<svg xmlns="http://www.w3.org/2000/svg" xmlns:xlink="http://www.w3.org/1999/xlink" width="500" zoomAndPan="magnify" viewBox="0 0 375 374.999991" height="500" preserveAspectRatio="xMidYMid meet" version="1.0"><defs><clipPath id="8b953d11c3"><path d="M 201 0 L 375 0 L 375 292 L 201 292 Z M 201 0 " clip-rule="nonzero"/></clipPath><clipPath id="4ab0e1016d"><path d="M 178.628906 309.121094 L 170.375 -37.277344 L 537.023438 -46.015625 L 545.273438 300.386719 Z M 178.628906 309.121094 " clip-rule="nonzero"/></clipPath><clipPath id="bab74061dc"><path d="M 178.628906 309.121094 L 171.160156 -4.289062 L 375.105469 -9.148438 L 382.570312 304.261719 Z M 178.628906 309.121094 " clip-rule="nonzero"/></clipPath><clipPath id="0dd72ac3f0"><path d="M 178.628906 309.121094 L 170.375 -37.277344 L 537.023438 -46.015625 L 545.273438 300.386719 Z M 178.628906 309.121094 " clip-rule="nonzero"/></clipPath><clipPath id="43432ddc70"><path d="M 253 0 L 375 0 L 375 283 L 253 283 Z M 253 0 " clip-rule="nonzero"/></clipPath><clipPath id="849a8f8eb4"><path d="M 178.628906 309.121094 L 170.375 -37.277344 L 537.023438 -46.015625 L 545.273438 300.386719 Z M 178.628906 309.121094 " clip-rule="nonzero"/></clipPath><clipPath id="9d52358258"><path d="M 178.628906 309.121094 L 171.160156 -4.289062 L 375.105469 -9.148438 L 382.570312 304.261719 Z M 178.628906 309.121094 " clip-rule="nonzero"/></clipPath><clipPath id="cb4bd7d002"><path d="M 178.628906 309.121094 L 170.375 -37.277344 L 537.023438 -46.015625 L 545.273438 300.386719 Z M 178.628906 309.121094 " clip-rule="nonzero"/></clipPath><clipPath id="6b32222d4e"><path d="M 178 35 L 375 35 L 375 307 L 178 307 Z M 178 35 " clip-rule="nonzero"/></clipPath><clipPath id="c4f76bf06f"><path d="M 178.628906 309.121094 L 170.375 -37.277344 L 537.023438 -46.015625 L 545.273438 300.386719 Z M 178.628906 309.121094 " clip-rule="nonzero"/></clipPath><clipPath id="00ecad0c64"><path d="M 178.628906 309.121094 L 171.160156 -4.289062 L 375.105469 -9.148438 L 382.570312 304.261719 Z M 178.628906 309.121094 " clip-rule="nonzero"/></clipPath><clipPath id="8e615d12cb"><path d="M 178.628906 309.121094 L 170.375 -37.277344 L 537.023438 -46.015625 L 545.273438 300.386719 Z M 178.628906 309.121094 " clip-rule="nonzero"/></clipPath><clipPath id="adaf7fdac1"><path d="M 182 36 L 375 36 L 375 307 L 182 307 Z M 182 36 " clip-rule="nonzero"/></clipPath><clipPath id="4d4f33e75f"><path d="M 178.628906 309.121094 L 170.375 -37.277344 L 537.023438 -46.015625 L 545.273438 300.386719 Z M 178.628906 309.121094 " clip-rule="nonzero"/></clipPath><clipPath id="9831db53e3"><path d="M 178.628906 309.121094 L 171.160156 -4.289062 L 375.105469 -9.148438 L 382.570312 304.261719 Z M 178.628906 309.121094 " clip-rule="nonzero"/></clipPath><clipPath id="8558c79a6d"><path d="M 178.628906 309.121094 L 170.375 -37.277344 L 537.023438 -46.015625 L 545.273438 300.386719 Z M 178.628906 309.121094 " clip-rule="nonzero"/></clipPath></defs><g clip-path="url(#8b953d11c3)"><g clip-path="url(#4ab0e1016d)"><g clip-path="url(#bab74061dc)"><g clip-path="url(#0dd72ac3f0)"><path fill="#a47052" d="M 529.445312 -43.445312 C 528.871094 -41.125 526.832031 -39.3125 525.195312 -37.777344 C 522.71875 -35.457031 520.011719 -33.355469 517.488281 -31.121094 C 512.265625 -26.515625 508.558594 -20.816406 504.347656 -15.375 C 499.695312 -9.378906 494.710938 -4.234375 488.347656 -0.0546875 C 480.644531 5.015625 472.898438 10.089844 465.152344 15.074219 C 461.324219 17.5625 457.492188 19.964844 453.664062 22.410156 C 451.066406 23.464844 448.464844 24.433594 445.820312 25.3125 C 436.53125 28.25 426.621094 29.796875 417.019531 30.929688 C 398.128906 33.148438 378.5625 29.71875 360.269531 36.039062 C 350.71875 39.347656 342.5 45.5625 333.046875 49.09375 C 331.792969 49.53125 332.335938 51.464844 333.683594 51.113281 C 336.648438 50.273438 339.46875 49.253906 342.292969 48.148438 L 342.335938 48.144531 C 347.710938 46.027344 352.988281 43.59375 358.460938 41.789062 C 367.386719 38.859375 376.976562 38.945312 386.246094 39.042969 C 391.085938 39.109375 395.925781 39.308594 400.757812 39.148438 C 405.910156 38.980469 410.953125 38.09375 416.042969 37.425781 C 422.128906 36.648438 428.390625 35.730469 434.464844 34.5 L 434.511719 34.5 C 434.601562 34.496094 434.734375 34.445312 434.824219 34.445312 C 430.195312 37.40625 425.609375 40.324219 421.023438 43.375 C 407.40625 52.390625 394.898438 62.554688 382.910156 73.613281 C 380.035156 76.261719 377.339844 79 374.648438 81.777344 C 372.003906 84.601562 369.171875 87.160156 366.570312 89.9375 C 361.148438 95.769531 358.257812 103.445312 354.121094 110.152344 C 353.425781 111.253906 352.820312 112.398438 352.167969 113.5 C 349.585938 115.191406 346.910156 116.796875 344.140625 118.128906 C 339.941406 120.175781 335.449219 121.503906 331.058594 123.101562 C 327.203125 124.507812 323.394531 126 319.59375 127.675781 L 319.546875 127.675781 C 318.5625 128.0625 317.535156 128.539062 316.550781 128.972656 C 316.550781 128.972656 316.503906 128.972656 316.460938 128.972656 C 308.777344 129.109375 301.066406 128.074219 293.523438 126.53125 C 285.210938 124.828125 277.796875 120.976562 269.777344 118.40625 C 267.273438 117.605469 264.726562 116.988281 262.179688 116.460938 C 255.867188 115.164062 249.429688 114.457031 243.199219 112.976562 C 242.0625 112.683594 241.652344 114.371094 242.746094 114.707031 C 251.941406 117.382812 261.640625 118.375 270.542969 122.101562 C 278.582031 125.484375 285.875 129.835938 294.421875 131.851562 C 298.421875 132.753906 302.503906 133.425781 306.625 133.734375 C 298.859375 137.8125 291.1875 142.203125 282.789062 144.667969 C 271.027344 148.027344 258.351562 147.378906 246.378906 149.609375 C 233.910156 151.898438 223.191406 159.261719 210.769531 161.683594 C 210.050781 161.835938 210.21875 163.097656 210.984375 162.992188 C 222.429688 161.449219 232.644531 155.730469 243.796875 153.246094 C 248.207031 152.28125 252.710938 151.675781 257.269531 151.25 C 265.835938 150.367188 274.511719 150.117188 282.984375 149.007812 C 289.023438 148.230469 295.003906 146.867188 300.644531 144.558594 C 306.375 142.203125 311.726562 139 317.40625 136.417969 C 321.027344 134.792969 324.792969 133.347656 328.511719 131.945312 C 328.871094 131.847656 329.183594 131.792969 329.542969 131.695312 C 331.832031 131.007812 334.972656 129.980469 337.289062 128.476562 C 340.15625 127.320312 342.972656 126.078125 345.742188 124.699219 C 345.484375 125.15625 345.222656 125.570312 345.007812 126.03125 L 345.007812 126.074219 C 343.707031 128.367188 342.449219 130.664062 341.195312 132.957031 C 337.421875 139.789062 333.421875 146.449219 329.882812 153.414062 C 322.324219 168.257812 318.601562 184.6875 310.953125 199.492188 C 309.136719 203.019531 306.816406 206.246094 304.863281 209.6875 C 303 213.078125 301.503906 216.601562 299.640625 219.949219 C 295.824219 226.832031 290.203125 231.808594 284.03125 236.570312 C 277.726562 241.429688 270.269531 245.273438 264.800781 251.152344 C 262.335938 253.792969 260.78125 256.90625 259.046875 260.070312 C 258.007812 261.953125 256.550781 263.433594 254.953125 264.695312 C 253.035156 265.78125 251.070312 266.824219 248.871094 267.554688 C 244.65625 269.015625 240.148438 269.4375 235.679688 269.816406 C 230.898438 270.203125 226.636719 269.671875 221.914062 268.921875 C 217.511719 268.210938 213.085938 268.410156 208.664062 268.695312 C 207.851562 268.714844 207.878906 269.890625 208.691406 269.917969 C 213.894531 269.972656 219.007812 270.257812 224.058594 271.542969 C 228.5625 272.703125 233.277344 273.3125 237.878906 272.933594 C 238.691406 272.867188 239.503906 272.714844 240.269531 272.605469 C 227.203125 278.257812 213.230469 282.03125 201.261719 290.101562 C 200.683594 290.476562 201.25 291.460938 201.871094 291.035156 C 213.761719 283.464844 227.464844 279.835938 240.40625 274.636719 C 242.109375 273.964844 243.808594 273.246094 245.464844 272.480469 C 248.011719 271.289062 250.605469 270.140625 252.96875 268.726562 C 253.015625 268.726562 253.015625 268.679688 253.058594 268.679688 C 254.753906 267.6875 256.398438 266.5625 257.859375 265.304688 C 258.085938 265.164062 258.304688 264.976562 258.527344 264.792969 C 259.808594 263.582031 261 262.289062 262.003906 260.769531 C 264.097656 257.597656 265.875 254.476562 268.9375 252.09375 C 271.957031 249.761719 275.398438 248.046875 278.605469 245.980469 C 283.949219 242.59375 289.28125 238.710938 294.015625 234.386719 C 293.894531 235.023438 293.773438 235.660156 293.652344 236.253906 C 293.449219 237.253906 293.15625 238.210938 292.773438 239.125 C 291.109375 243.328125 289.539062 247.667969 287.554688 251.695312 C 285.960938 254.902344 284.855469 257.917969 284.578125 261.5 C 284.222656 265.492188 284.863281 269.6875 283.464844 273.566406 C 281.984375 277.765625 278.757812 280.96875 275.25 283.585938 C 274.40625 284.238281 275.207031 285.625 276.144531 285.011719 C 277.167969 284.355469 278.191406 283.652344 279.167969 282.949219 C 279.167969 282.902344 279.210938 282.902344 279.210938 282.902344 C 283.433594 279.722656 287.085938 275.652344 288.5 270.460938 C 289.542969 266.8125 288.863281 262.9375 289.679688 259.25 C 290.621094 255.0625 293.148438 251.203125 294.683594 247.183594 C 296.210938 243.117188 297.792969 239.277344 298.550781 235.003906 C 298.910156 233.003906 299.222656 230.914062 300.21875 229.125 C 301.171875 227.382812 302.675781 225.941406 303.949219 224.417969 C 304.960938 223.171875 305.925781 221.972656 306.570312 220.507812 C 307.378906 218.496094 307.46875 216.457031 308.734375 214.617188 C 310.917969 211.351562 313.019531 208.539062 314.558594 204.835938 C 315.925781 201.363281 316.882812 197.992188 317.75 194.488281 C 318.316406 193.566406 318.835938 192.695312 319.3125 191.777344 C 323.292969 184.351562 326.183594 176.542969 329.617188 168.898438 C 332.921875 161.488281 337.191406 154.6875 341.546875 147.839844 C 341.941406 147.242188 342.332031 146.597656 342.726562 146 C 342.722656 145.957031 342.722656 145.910156 342.8125 145.863281 C 344.25 143.609375 345.640625 141.269531 347.078125 138.972656 C 347.078125 138.925781 347.078125 138.882812 347.121094 138.878906 C 349.6875 134.652344 352.207031 130.382812 354.730469 126.113281 C 359.03125 118.90625 364.109375 111.90625 367.5 104.21875 C 369 100.789062 370.132812 97.183594 371.910156 93.882812 C 373.898438 90.078125 376.578125 86.890625 379.535156 83.789062 C 390.871094 71.976562 404.578125 62.734375 418.476562 54.164062 C 433.359375 44.9375 448.570312 36.382812 463.355469 26.976562 C 468.65625 23.589844 473.90625 20.117188 479.160156 16.640625 C 478.898438 17.144531 478.640625 17.648438 478.382812 18.152344 C 478.164062 18.566406 477.949219 18.933594 477.777344 19.34375 C 476.09375 22.734375 474.320312 25.992188 473.183594 29.59375 C 470.789062 37.300781 468.757812 45.042969 466.640625 52.835938 C 464.644531 60.167969 462.289062 67.511719 458.921875 74.339844 C 455.429688 81.390625 450.417969 87.351562 446.417969 94.101562 C 444.941406 96.578125 443.601562 99.191406 442.261719 101.804688 C 439.996094 103.398438 438.246094 105.835938 436.625 108.003906 C 434.039062 111.460938 432.1875 115.398438 429.144531 118.546875 C 425.351562 122.484375 421.367188 126.15625 417.992188 130.492188 C 414.613281 134.78125 412.378906 139.722656 409.183594 144.101562 C 402.96875 152.757812 393.992188 159.21875 385.128906 164.863281 C 381.121094 167.402344 377.066406 169.851562 373.617188 173.101562 C 370.167969 176.398438 367.503906 180.398438 364.519531 184.046875 C 358.324219 191.574219 351.113281 200.164062 350.132812 210.238281 C 350.019531 211.191406 351.699219 211.421875 351.855469 210.421875 C 353.261719 201.152344 360.347656 193.109375 366.242188 186.269531 C 367.257812 185.113281 368.3125 183.914062 369.417969 182.800781 C 371.445312 180.625 373.65625 178.535156 376.144531 176.84375 C 379.972656 174.265625 384.21875 172.214844 388.28125 169.992188 C 397.117188 165.253906 405.511719 158.945312 412.066406 151.320312 C 415.410156 147.4375 417.65625 143.039062 420.449219 138.851562 C 423.417969 134.4375 427.21875 130.679688 430.507812 126.527344 C 431.257812 125.605469 432 124.636719 432.65625 123.714844 C 432.488281 124.125 432.316406 124.582031 432.144531 124.996094 C 430.308594 129.472656 428.5625 134.042969 427.179688 138.601562 C 424.832031 146.308594 425.382812 154.171875 426.203125 162.074219 C 427.027344 170.066406 427.75 177.652344 425.949219 185.617188 C 422.316406 201.953125 411.703125 215.742188 400.691406 227.90625 C 400.117188 228.554688 401.089844 229.484375 401.707031 228.835938 C 407.757812 222.804688 413.484375 216.421875 418.242188 209.339844 C 418.242188 209.292969 418.285156 209.292969 418.285156 209.292969 C 421.5625 204.414062 424.375 199.234375 426.503906 193.707031 C 429.144531 186.808594 430.417969 179.625 430.558594 172.289062 C 430.726562 164.136719 429.984375 155.78125 431.421875 147.691406 C 432.941406 139.414062 436.824219 131.671875 440.03125 123.902344 C 443.105469 116.359375 446.273438 108.769531 450.492188 101.789062 C 454.753906 94.761719 460.671875 88.917969 464.707031 81.804688 C 465.707031 80.0625 466.65625 78.273438 467.519531 76.441406 C 467.402344 77.214844 467.285156 78.03125 467.167969 78.804688 C 466.589844 82.980469 466.328125 87.199219 466.652344 91.355469 C 467.167969 97.859375 470.554688 103.300781 472.417969 109.460938 C 474.433594 116.15625 473.929688 123.546875 474.410156 130.460938 C 474.492188 131.996094 476.707031 131.945312 476.761719 130.40625 C 476.792969 129.769531 476.820312 129.136719 476.851562 128.5 C 477.148438 122.066406 478.078125 115.527344 477.160156 109.164062 C 476.722656 106.097656 475.660156 103.179688 474.820312 100.167969 C 473.835938 96.839844 473.488281 93.683594 473.453125 90.195312 C 473.429688 83.5 474.992188 76.988281 475.238281 70.328125 C 475.347656 67.246094 475.089844 64.085938 474.566406 61.019531 C 474.457031 60.207031 474.296875 59.261719 474.09375 58.316406 C 476.292969 50.070312 477.402344 41.578125 479.417969 33.246094 C 480.449219 29.101562 481.488281 25.277344 483.203125 21.34375 C 484.449219 18.507812 485.503906 15.449219 485.792969 12.316406 C 486.992188 11.519531 488.195312 10.765625 489.355469 10.015625 C 497.144531 4.851562 503.84375 -0.425781 509.636719 -7.804688 C 514.417969 -13.894531 518.511719 -20.375 524.402344 -25.582031 C 529.09375 -29.722656 535.570312 -34.992188 536.496094 -41.667969 C 536.839844 -44.394531 534.625 -46.152344 532.546875 -46.101562 C 531.191406 -46.070312 529.902344 -45.269531 529.445312 -43.445312 Z M 529.445312 -43.445312 " fill-opacity="1" fill-rule="nonzero"/></g></g></g></g><g clip-path="url(#43432ddc70)"><g clip-path="url(#849a8f8eb4)"><g clip-path="url(#9d52358258)"><g clip-path="url(#cb4bd7d002)"><path fill="#7f4c38" d="M 317.75 194.488281 C 318.316406 193.566406 318.835938 192.695312 319.3125 191.777344 C 323.292969 184.351562 326.183594 176.542969 329.617188 168.898438 C 332.921875 161.488281 337.191406 154.6875 341.546875 147.839844 C 341.941406 147.242188 342.332031 146.597656 342.726562 146 C 342.722656 145.957031 342.722656 145.910156 342.8125 145.863281 C 343.980469 143.664062 345.285156 141.503906 346.726562 139.433594 C 346.816406 139.292969 346.945312 139.109375 347.078125 138.972656 C 347.078125 138.925781 347.078125 138.882812 347.121094 138.878906 C 349.6875 134.652344 352.207031 130.382812 354.730469 126.113281 C 359.03125 118.90625 364.109375 111.90625 367.5 104.21875 C 369 100.789062 370.132812 97.183594 371.910156 93.882812 C 373.898438 90.078125 376.578125 86.890625 379.535156 83.789062 C 390.871094 71.976562 404.578125 62.734375 418.476562 54.164062 C 433.359375 44.9375 448.570312 36.382812 463.355469 26.976562 C 468.65625 23.589844 473.90625 20.117188 479.160156 16.640625 C 478.898438 17.144531 478.640625 17.648438 478.382812 18.152344 C 479.132812 17.367188 480.359375 15.84375 479.796875 14.90625 C 479.699219 14.726562 479.519531 14.6875 479.386719 14.734375 C 478.800781 14.839844 478.410156 15.527344 478.011719 15.945312 C 477.480469 16.410156 476.902344 16.832031 476.277344 17.160156 C 475.652344 17.539062 474.984375 17.828125 474.308594 18.070312 C 473.503906 18.359375 472.789062 18.785156 472.03125 19.121094 C 470.5 19.84375 469.097656 20.652344 467.660156 21.460938 C 469.425781 19.605469 471.132812 17.707031 473.128906 16.070312 C 473.257812 15.964844 473.085938 15.757812 472.945312 15.84375 C 470.316406 17.5 468.257812 19.878906 465.898438 21.871094 C 464.441406 23.097656 463.042969 24.210938 461.214844 24.832031 C 459.703125 25.347656 458.222656 25.84375 456.773438 26.515625 C 453.953125 27.828125 451.210938 29.339844 448.910156 31.449219 C 447.605469 32.644531 446.34375 33.582031 444.742188 34.328125 C 443.148438 35.074219 441.542969 36.046875 439.839844 36.496094 C 439.574219 36.566406 439.636719 37.03125 439.921875 36.988281 C 441.40625 36.769531 442.71875 36.136719 444.117188 35.617188 C 445.554688 35.085938 446.964844 34.5625 448.265625 33.738281 C 449.683594 32.835938 450.898438 31.660156 452.324219 30.769531 C 453.851562 29.816406 455.472656 28.980469 457.070312 28.148438 C 457.191406 28.085938 457.3125 28.039062 457.433594 27.980469 C 453.59375 30.601562 450.296875 34.042969 446.074219 36.03125 C 444.152344 36.9375 442.273438 37.753906 440.492188 38.882812 C 438.84375 39.960938 437.199219 41.089844 435.410156 41.902344 C 435.097656 42 434.78125 42.097656 434.421875 42.195312 C 433.703125 42.394531 432.984375 42.636719 432.3125 42.878906 C 431.476562 43.101562 430.6875 43.386719 429.921875 43.742188 C 430.195312 43.550781 430.460938 43.34375 430.738281 43.164062 C 432.269531 42.160156 433.964844 41.433594 435.386719 40.273438 C 435.671875 40.046875 435.28125 39.566406 434.984375 39.777344 C 433.515625 40.828125 431.789062 41.445312 430.21875 42.320312 C 428.300781 43.386719 426.484375 44.664062 424.660156 45.882812 C 424.097656 46.261719 423.574219 46.675781 423.042969 47.085938 C 420.734375 48.300781 418.53125 49.675781 416.46875 51.449219 C 415.898438 51.945312 415.289062 52.398438 414.707031 52.878906 C 413.132812 53.648438 411.554688 54.417969 410.039062 55.300781 C 408.398438 56.253906 407.082031 57.554688 405.546875 58.648438 C 403.894531 59.824219 401.964844 60.511719 400.226562 61.535156 C 398.554688 62.519531 397.019531 63.714844 395.328125 64.667969 C 395.191406 64.746094 395.292969 64.957031 395.441406 64.917969 C 397.175781 64.421875 398.535156 63.390625 400.078125 62.496094 C 401.835938 61.476562 403.820312 60.929688 405.570312 59.917969 C 407.101562 59.03125 408.394531 57.804688 409.859375 56.816406 C 408.066406 58.226562 406.277344 59.636719 404.585938 61.148438 C 402.8125 62.773438 401.183594 64.535156 399.226562 65.9375 C 397.449219 67.203125 395.53125 68.246094 393.753906 69.554688 C 392.066406 70.816406 390.332031 72.035156 388.738281 73.429688 C 388.027344 74.082031 387.273438 74.6875 386.613281 75.425781 C 383.203125 76.414062 380.519531 79.648438 378.042969 81.921875 C 374.859375 84.804688 371.703125 87.144531 369.71875 91.085938 C 367.730469 94.980469 367.109375 99.25 365.804688 103.398438 C 365.132812 105.453125 364.089844 107.242188 362.773438 108.992188 C 362.601562 109.269531 362.382812 109.546875 362.207031 109.824219 C 362.125 109.8125 362.054688 109.835938 361.976562 109.839844 C 362.195312 109.378906 362.480469 108.976562 362.667969 108.484375 C 363.78125 105.539062 363.722656 102.308594 364.765625 99.316406 C 364.875 99 364.382812 98.890625 364.269531 99.191406 C 363.226562 101.957031 362.792969 104.917969 361.707031 107.65625 C 360.511719 110.660156 358.6875 112.992188 356.65625 115.464844 C 354.886719 117.613281 353.503906 120.148438 352.160156 122.578125 C 350.867188 124.902344 349.878906 127.378906 348.550781 129.671875 C 348.480469 129.792969 348.652344 129.917969 348.746094 129.816406 C 349.550781 128.980469 350.058594 127.921875 350.5625 126.890625 C 351.199219 125.589844 351.988281 124.421875 352.738281 123.1875 C 353.832031 121.378906 355 119.597656 356.25 117.878906 C 355.980469 118.359375 355.6875 118.828125 355.425781 119.308594 C 353.605469 122.566406 352.242188 126.082031 349.960938 129.035156 C 345.707031 134.476562 341.765625 139.867188 338.566406 146.007812 C 335.363281 152.0625 332.710938 158.324219 330.46875 164.804688 C 329.207031 168.355469 327.46875 171.421875 325.644531 174.664062 C 326.839844 171.703125 327.933594 168.695312 328.527344 165.636719 C 328.574219 165.402344 328.226562 165.3125 328.167969 165.546875 C 327.402344 168.570312 325.921875 171.414062 324.648438 174.246094 C 323.554688 176.679688 322.636719 179.1875 321.554688 181.628906 C 320.519531 183.953125 319.558594 186.28125 318.679688 188.664062 C 317.652344 191.445312 316.132812 193.945312 314.855469 196.609375 C 313.890625 198.621094 313.386719 200.84375 312.34375 202.8125 C 311.28125 204.820312 309.542969 206.328125 308.523438 208.367188 C 307.476562 210.449219 306.992188 212.789062 305.84375 214.824219 C 304.484375 217.238281 302.542969 219.363281 300.980469 221.660156 C 300.816406 221.902344 301.207031 222.105469 301.375 221.878906 C 302.882812 219.8125 304.675781 217.921875 306.09375 215.796875 C 305.566406 217.003906 305.070312 218.230469 304.464844 219.382812 C 303.511719 221.171875 302.28125 222.738281 301.328125 224.480469 C 299.785156 226.148438 298.425781 227.898438 297.53125 230.09375 C 294.617188 236.816406 294.484375 244.5625 290.933594 251.074219 C 289.589844 253.59375 288.160156 256.117188 287.457031 258.894531 C 287.316406 259.492188 287.273438 260.082031 287.226562 260.671875 C 287.113281 261.101562 286.996094 261.535156 286.875 261.941406 C 286.472656 263.300781 285.988281 264.628906 285.875 266.054688 C 285.75 267.648438 286.0625 269.238281 285.789062 270.828125 C 285.542969 272.277344 284.800781 273.578125 284.617188 275.039062 C 284.582031 275.3125 284.953125 275.417969 285.035156 275.144531 C 285.441406 273.789062 286.160156 272.546875 286.480469 271.164062 C 286.832031 269.644531 286.796875 268.132812 286.910156 266.589844 C 286.957031 265.910156 287.113281 265.257812 287.292969 264.613281 C 287.425781 265.957031 287.59375 267.304688 287.644531 268.667969 C 287.789062 272.921875 285.605469 276.003906 282.828125 279.015625 C 281.679688 280.21875 280.535156 281.46875 279.386719 282.671875 C 279.300781 282.765625 279.253906 282.8125 279.210938 282.902344 C 283.433594 279.722656 287.085938 275.652344 288.5 270.460938 C 289.542969 266.8125 288.863281 262.9375 289.679688 259.25 C 290.621094 255.0625 293.148438 251.203125 294.683594 247.183594 C 296.210938 243.117188 297.792969 239.277344 298.550781 235.003906 C 298.910156 233.003906 299.222656 230.914062 300.21875 229.125 C 301.171875 227.382812 302.675781 225.941406 303.949219 224.417969 C 304.960938 223.171875 305.925781 221.972656 306.570312 220.507812 C 307.378906 218.496094 307.46875 216.457031 308.734375 214.617188 C 310.917969 211.351562 313.019531 208.539062 314.558594 204.835938 C 315.925781 201.363281 316.882812 197.992188 317.75 194.488281 Z M 310.765625 208.773438 C 309.898438 210.488281 308.523438 211.558594 307.488281 213.097656 C 308.082031 211.660156 308.582031 210.183594 309.390625 208.84375 C 310.234375 207.445312 311.316406 206.230469 312.300781 204.941406 C 311.863281 206.242188 311.390625 207.535156 310.765625 208.773438 Z M 532.546875 -46.101562 C 534.625 -46.152344 536.839844 -44.394531 536.496094 -41.667969 C 535.570312 -34.992188 529.09375 -29.722656 524.402344 -25.582031 C 518.511719 -20.375 514.417969 -13.894531 509.636719 -7.804688 C 503.84375 -0.425781 497.140625 4.851562 489.355469 10.015625 C 488.195312 10.765625 486.992188 11.519531 485.792969 12.316406 C 485.503906 15.449219 484.449219 18.507812 483.203125 21.34375 C 481.488281 25.277344 480.449219 29.101562 479.417969 33.246094 C 477.402344 41.578125 476.292969 50.070312 474.09375 58.316406 C 474.296875 59.261719 474.457031 60.207031 474.566406 61.019531 C 475.089844 64.085938 475.347656 67.246094 475.238281 70.328125 C 474.992188 76.988281 473.429688 83.5 473.453125 90.195312 C 473.488281 93.683594 473.835938 96.839844 474.820312 100.167969 C 475.660156 103.179688 476.722656 106.097656 477.160156 109.164062 C 478.078125 115.527344 477.148438 122.066406 476.851562 128.5 C 475.285156 121.660156 477.46875 114.5 476.082031 107.5625 C 475.414062 104.226562 474.242188 100.679688 473.039062 97.496094 C 471.789062 94.402344 470.238281 91.859375 470.246094 88.417969 C 470.300781 85.019531 471.125 81.742188 471.996094 78.507812 C 472.992188 74.726562 473.179688 71.148438 472.230469 67.320312 C 471.761719 65.503906 471.121094 63.617188 471.003906 61.714844 C 470.484375 62.671875 470.09375 63.65625 469.734375 64.714844 C 469.644531 64.980469 469.238281 64.890625 469.304688 64.609375 C 469.574219 63.484375 469.644531 62.3125 470.078125 61.234375 C 470.582031 59.964844 471.167969 58.78125 471.550781 57.460938 C 472.265625 55.011719 472.492188 52.414062 472.835938 49.890625 C 473.210938 47.152344 473.757812 44.488281 474.226562 41.769531 C 474.445312 40.476562 474.644531 39.324219 475.140625 38.105469 C 475.601562 36.972656 475.796875 35.710938 476.453125 34.667969 C 476.539062 34.53125 476.757812 34.609375 476.722656 34.777344 C 476.441406 36.019531 476.480469 37.296875 476.21875 38.535156 C 475.949219 39.808594 475.621094 41.050781 475.390625 42.34375 C 475.320312 42.726562 475.257812 43.105469 475.1875 43.484375 C 476 40.46875 477.101562 37.617188 478.230469 34.632812 C 479.691406 30.792969 480.128906 26.894531 480.753906 22.894531 C 480.550781 23.394531 480.320312 23.882812 480.121094 24.386719 C 479.378906 26.289062 478.941406 28.304688 478.03125 30.140625 C 477.929688 30.347656 477.570312 30.210938 477.648438 29.988281 C 478.355469 28.03125 478.574219 25.9375 479.1875 23.945312 C 479.753906 22.097656 480.398438 20.300781 481.152344 18.519531 C 482 16.511719 482.890625 14.53125 483.601562 12.46875 C 483.890625 11.625 484.148438 10.769531 484.480469 9.941406 C 484.832031 9.0625 485.308594 8.25 485.628906 7.363281 C 485.757812 7.011719 486.242188 7.054688 486.28125 7.4375 C 486.339844 7.964844 486.214844 8.460938 486.058594 8.953125 C 486.445312 8.574219 486.886719 8.207031 487.402344 7.84375 C 488.46875 7.09375 489.632812 6.570312 490.65625 5.867188 C 492.125 4.878906 493.3125 3.539062 494.734375 2.507812 C 497.753906 0.21875 500.359375 -2.421875 502.914062 -5.199219 C 505.605469 -8.117188 508.65625 -10.90625 510.929688 -14.125 C 512.011719 -15.6875 512.875 -17.375 513.789062 -19.019531 C 512.628906 -18.089844 511.433594 -17.1875 510.476562 -16.039062 C 509.371094 -14.710938 508.628906 -13.121094 507.503906 -11.800781 C 505.097656 -8.992188 501.523438 -7.03125 498.46875 -5.023438 C 498.21875 -4.859375 497.992188 -5.242188 498.226562 -5.414062 C 501.246094 -7.625 504.890625 -10.132812 506.8125 -13.421875 C 507.574219 -14.730469 508.230469 -16.085938 509.199219 -17.261719 C 510.195312 -18.472656 511.433594 -19.4375 512.671875 -20.386719 C 514.164062 -21.53125 515.640625 -22.578125 516.695312 -24.171875 C 517.675781 -25.652344 518.398438 -27.292969 519.398438 -28.761719 C 520.136719 -29.839844 521.089844 -30.714844 522.066406 -31.566406 C 523.351562 -32.683594 524.226562 -33.820312 525.09375 -35.285156 C 525.222656 -35.503906 525.515625 -35.359375 525.484375 -35.132812 C 525.082031 -32.105469 521.734375 -30.207031 520.277344 -27.710938 C 519.992188 -27.21875 519.742188 -26.703125 519.484375 -26.191406 C 520.722656 -27.304688 522.035156 -28.339844 523.363281 -29.359375 C 526.246094 -31.601562 528.265625 -34.140625 529.90625 -37.4375 C 531.285156 -40.230469 531.714844 -43.183594 532.546875 -46.101562 Z M 440.03125 123.902344 C 436.824219 131.671875 432.941406 139.414062 431.421875 147.691406 C 429.984375 155.78125 430.726562 164.136719 430.558594 172.289062 C 430.417969 179.625 429.144531 186.808594 426.503906 193.707031 C 424.375 199.234375 421.558594 204.414062 418.285156 209.292969 C 418.410156 208.835938 418.535156 208.378906 418.707031 207.925781 C 420.453125 203.535156 423.304688 199.894531 425.195312 195.636719 C 427.554688 190.421875 429.015625 185.316406 429.332031 179.5625 C 429.609375 174.121094 429.570312 168.738281 429.261719 163.3125 C 429.015625 159.640625 429.070312 156.003906 429.292969 152.359375 C 428.972656 154.269531 428.632812 156.175781 428.355469 158.101562 C 427.824219 161.761719 428.246094 165.265625 428.273438 168.917969 C 428.273438 169.121094 427.984375 169.121094 427.964844 168.925781 C 427.59375 165.273438 427.003906 161.671875 427.238281 157.976562 C 427.460938 154.457031 428.15625 150.933594 428.5625 147.429688 C 429 143.683594 430.359375 140.316406 431.136719 136.671875 C 431.867188 133.257812 432.929688 129.734375 434.546875 126.636719 C 434.648438 126.441406 434.964844 126.566406 434.902344 126.777344 C 433.90625 130.171875 432.8125 133.445312 432.269531 136.953125 C 432.21875 137.265625 432.117188 137.558594 432.050781 137.863281 C 432.628906 136.160156 433.246094 134.453125 433.910156 132.691406 C 435.742188 127.894531 437.984375 123.363281 440.089844 118.695312 C 441.335938 115.992188 442.582031 113.339844 444.015625 110.816406 C 445.007812 108.800781 445.769531 106.699219 446.671875 104.640625 C 447.613281 102.402344 448.964844 100.285156 450.089844 98.175781 C 450.445312 97.503906 450.84375 96.824219 451.246094 96.148438 C 449.957031 97.820312 448.644531 99.476562 447.390625 101.171875 C 446.378906 102.542969 445.566406 103.902344 444.867188 105.457031 C 444.285156 106.75 443.671875 107.972656 442.757812 109.066406 C 442.582031 109.277344 442.222656 109.007812 442.371094 108.78125 C 443.3125 107.328125 443.800781 105.703125 444.441406 104.109375 C 445.007812 102.703125 445.804688 101.507812 446.652344 100.257812 C 448.554688 97.472656 450.714844 94.871094 452.558594 92.050781 C 454.417969 89.203125 456.511719 86.550781 458.386719 83.71875 C 459.273438 82.382812 460.226562 81.089844 461.074219 79.726562 C 461.816406 78.539062 462.507812 77.152344 463.605469 76.25 C 463.769531 76.113281 464.054688 76.273438 463.929688 76.488281 C 462.257812 79.328125 460.671875 82.210938 458.9375 85.019531 C 458.039062 86.46875 456.980469 87.785156 456.011719 89.183594 C 455.230469 90.308594 454.539062 91.488281 453.796875 92.640625 C 455.132812 91.265625 456.878906 90.28125 458.089844 88.707031 C 459.582031 86.769531 460.835938 84.476562 462.191406 82.40625 C 463.453125 80.386719 465.074219 78.265625 465.835938 76.03125 C 466.425781 74.203125 466.554688 72.121094 467.832031 70.59375 C 468.09375 70.273438 468.730469 70.394531 468.832031 70.84375 C 469.34375 73.457031 468.371094 76.242188 467.167969 78.804688 C 467.285156 78.03125 467.402344 77.214844 467.519531 76.441406 C 466.65625 78.273438 465.707031 80.0625 464.707031 81.804688 C 460.671875 88.917969 454.753906 94.761719 450.492188 101.789062 C 446.273438 108.769531 443.105469 116.359375 440.03125 123.902344 Z M 432.144531 124.996094 C 432.316406 124.582031 432.488281 124.125 432.65625 123.714844 C 432 124.636719 431.257812 125.605469 430.507812 126.527344 C 427.21875 130.679688 423.417969 134.4375 420.449219 138.851562 C 417.65625 143.039062 415.410156 147.4375 412.066406 151.320312 C 405.511719 158.945312 397.117188 165.253906 388.28125 169.992188 C 384.21875 172.214844 379.972656 174.265625 376.144531 176.84375 C 373.65625 178.535156 371.445312 180.625 369.417969 182.800781 C 371.082031 180.632812 373.023438 178.683594 375.292969 177.046875 C 380.710938 173.023438 386.550781 169.582031 391.925781 165.515625 C 394.636719 163.503906 397.574219 161.625 400.144531 159.480469 C 400.566406 159.125 400.886719 158.679688 401.273438 158.292969 C 400.222656 159.269531 399.183594 160.265625 397.992188 161.070312 C 396.113281 162.34375 393.84375 163.035156 391.808594 164.015625 C 389.832031 164.96875 387.871094 165.890625 385.789062 166.59375 C 385.523438 166.683594 385.414062 166.28125 385.664062 166.179688 C 387.9375 165.242188 390.078125 164.027344 392.265625 162.910156 C 394.308594 161.871094 396.503906 161.164062 398.21875 159.589844 C 399.585938 158.332031 400.9375 156.957031 402.214844 155.609375 C 403.667969 154.078125 405.496094 153.039062 406.695312 151.277344 C 407.839844 149.589844 409.242188 148.027344 410.324219 146.320312 C 411.328125 144.738281 412.113281 143.171875 413.316406 141.71875 C 416.003906 138.476562 418.871094 135.398438 421.535156 132.140625 C 421.632812 132.019531 421.8125 132.167969 421.746094 132.296875 C 420.808594 134.109375 419.371094 135.585938 418.058594 137.125 C 416.554688 138.882812 415.210938 140.773438 413.828125 142.628906 C 413.011719 143.71875 412.449219 144.945312 411.824219 146.140625 C 412.109375 145.820312 412.410156 145.523438 412.691406 145.195312 C 414.800781 142.746094 416.914062 140.386719 419.398438 138.289062 C 419.617188 138.101562 419.886719 137.960938 420.15625 137.953125 C 420.417969 137.496094 420.679688 137.035156 420.9375 136.53125 C 422.144531 134.105469 423.542969 132.078125 425.394531 130.089844 C 426.367188 129.070312 427.066406 128.058594 427.757812 126.820312 C 428.367188 125.808594 429.015625 124.617188 429.902344 123.824219 C 430.785156 122.988281 431.816406 122.601562 432.425781 121.503906 C 432.636719 121.101562 432.898438 120.632812 433.238281 120.289062 C 433.285156 120.140625 433.316406 119.988281 433.378906 119.847656 C 433.566406 119.390625 433.835938 118.988281 434.132812 118.597656 C 434.445312 118.191406 434.84375 117.894531 435.195312 117.53125 C 435.882812 116.816406 436.304688 115.90625 436.769531 115.042969 C 437.230469 114.199219 437.734375 113.375 438.417969 112.691406 C 438.671875 112.4375 439.050781 112.804688 438.820312 113.074219 C 438.128906 113.886719 437.707031 114.851562 437.277344 115.816406 C 436.863281 116.746094 436.402344 117.617188 435.863281 118.476562 C 435.582031 118.921875 435.289062 119.359375 435.023438 119.8125 C 434.941406 119.949219 434.871094 120.09375 434.800781 120.238281 C 434.804688 120.265625 434.835938 120.285156 434.835938 120.3125 C 434.859375 121.171875 434.296875 122.273438 433.90625 123.050781 C 433.519531 123.875 432.808594 124.390625 432.144531 124.996094 Z M 358.460938 41.789062 C 352.988281 43.59375 347.710938 46.027344 342.335938 48.144531 C 343.273438 47.582031 344.117188 46.925781 345.097656 46.40625 C 347.421875 45.21875 349.644531 43.71875 352.015625 42.664062 C 357.253906 40.367188 362.828125 39.148438 368.421875 38.515625 C 371.578125 38.214844 374.628906 37.28125 377.785156 36.9375 C 380.941406 36.589844 384.148438 36.378906 387.3125 36.4375 C 390.34375 36.457031 393.378906 36.789062 396.40625 36.71875 C 399.179688 36.609375 401.757812 36.261719 404.441406 36.589844 C 396.15625 35.609375 387.757812 33.082031 379.542969 35.078125 C 379.296875 35.136719 379.191406 34.785156 379.429688 34.707031 C 383.375 33.363281 388.148438 33.007812 392.285156 33.371094 C 397.121094 33.792969 401.800781 35.238281 406.644531 35.648438 C 411.484375 36.058594 415.5 34.496094 420.152344 33.613281 C 424.25 32.835938 428.414062 32.390625 432.472656 31.503906 C 432.710938 31.453125 432.90625 31.796875 432.660156 31.917969 C 431.023438 32.734375 429.441406 32.953125 427.664062 33.234375 C 425.609375 33.5625 423.628906 34.246094 421.578125 34.605469 C 419.503906 34.964844 417.460938 35.566406 415.402344 36.070312 C 415.847656 36.050781 416.292969 36.046875 416.734375 36.007812 C 418.671875 35.78125 420.371094 34.96875 422.257812 34.472656 C 423.742188 34.074219 425.316406 33.855469 426.851562 33.683594 C 428.699219 33.414062 430.542969 33.054688 432.394531 32.964844 C 433.351562 32.941406 434.339844 32.839844 435.273438 32.960938 C 435.636719 32.90625 436 32.855469 436.363281 32.804688 C 438.222656 32.546875 440.085938 32.105469 441.578125 30.890625 C 441.828125 30.6875 442.191406 31 441.953125 31.253906 C 440.605469 32.679688 438.746094 33.425781 436.839844 33.753906 C 436.796875 33.761719 436.757812 33.761719 436.71875 33.769531 C 436.695312 33.796875 436.707031 33.839844 436.664062 33.859375 C 435.949219 34.238281 435.273438 34.253906 434.511719 34.5 L 434.464844 34.5 C 428.390625 35.730469 422.128906 36.648438 416.042969 37.425781 C 410.953125 38.09375 405.910156 38.980469 400.757812 39.148438 C 395.925781 39.308594 391.085938 39.109375 386.246094 39.042969 C 376.976562 38.945312 367.386719 38.859375 358.460938 41.789062 Z M 282.984375 149.007812 C 274.511719 150.117188 265.835938 150.367188 257.269531 151.25 C 261.984375 149.917969 267.023438 148.890625 271.765625 148.6875 C 275.015625 148.5625 278.320312 148.667969 281.574219 148.679688 C 284.917969 148.644531 287.480469 147.90625 290.425781 146.386719 C 290.621094 146.285156 290.824219 146.207031 291.019531 146.109375 C 288.765625 146.328125 286.492188 146.398438 284.265625 146.847656 C 283.914062 146.917969 283.746094 146.40625 284.101562 146.304688 C 287.214844 145.417969 290.445312 145.324219 293.59375 144.640625 C 294.269531 144.492188 294.902344 144.269531 295.523438 144.039062 C 295.882812 143.886719 296.242188 143.738281 296.605469 143.585938 C 298.578125 142.683594 300.367188 141.453125 302.214844 140.179688 C 307.714844 136.390625 314.074219 133.320312 320.402344 131.199219 C 320.582031 131.136719 320.683594 131.394531 320.535156 131.496094 C 317.503906 133.523438 313.894531 134.820312 310.660156 136.5 C 308.296875 137.726562 306.03125 139.082031 303.816406 140.535156 C 305.03125 139.996094 306.246094 139.441406 307.425781 138.828125 C 309.882812 137.550781 312.339844 136.269531 314.9375 135.300781 C 317.132812 134.523438 319.273438 133.160156 321.515625 132.519531 C 321.871094 132.195312 322.226562 131.914062 322.578125 131.589844 C 324.972656 129.628906 327.65625 128.390625 330.574219 127.414062 C 333.714844 126.390625 336.914062 125.949219 340.105469 125.242188 C 341.410156 124.9375 342.664062 124.5 343.871094 123.972656 C 344.5625 123.660156 345.261719 123.25 345.988281 122.988281 C 346.144531 122.851562 346.285156 122.703125 346.449219 122.574219 C 347.191406 121.980469 347.910156 121.351562 348.6875 120.804688 C 350.210938 119.71875 351.480469 118.351562 352.859375 117.101562 C 353.078125 116.902344 353.394531 117.195312 353.191406 117.417969 C 351.929688 118.800781 350.796875 120.304688 349.386719 121.546875 C 348.65625 122.195312 347.90625 122.824219 347.164062 123.457031 C 347.128906 123.488281 347.085938 123.507812 347.050781 123.539062 C 346.910156 124.542969 346.050781 125.375 345.007812 126.03125 C 345.222656 125.570312 345.484375 125.15625 345.742188 124.699219 C 342.972656 126.078125 340.15625 127.320312 337.289062 128.476562 C 334.972656 129.980469 331.832031 131.007812 329.542969 131.695312 C 329.183594 131.792969 328.871094 131.847656 328.511719 131.945312 C 324.792969 133.347656 321.027344 134.792969 317.40625 136.417969 C 311.726562 139 306.375 142.203125 300.644531 144.558594 C 295.003906 146.867188 289.023438 148.230469 282.984375 149.007812 Z M 319.546875 127.675781 C 316.097656 130.882812 311.65625 130.355469 307.003906 130.511719 C 301.402344 130.734375 296.628906 129.625 291.214844 128.171875 C 285.617188 126.675781 280.796875 123.578125 275.457031 121.441406 C 271.117188 119.640625 266.476562 118.351562 262.179688 116.460938 C 264.726562 116.988281 267.273438 117.605469 269.777344 118.40625 C 277.796875 120.976562 285.210938 124.828125 293.523438 126.53125 C 301.066406 128.074219 308.777344 129.109375 316.460938 128.972656 C 316.503906 128.972656 316.550781 128.972656 316.550781 128.972656 C 317.535156 128.539062 318.5625 128.0625 319.546875 127.675781 Z M 257.859375 265.304688 C 256.398438 266.5625 254.753906 267.6875 253.058594 268.679688 C 254.789062 267.324219 256.382812 265.882812 257.925781 264.261719 C 259.871094 262.316406 261.910156 260.589844 263.160156 258.117188 C 264.28125 255.828125 265.359375 253.71875 267.078125 251.824219 C 270.871094 247.703125 276.210938 246.039062 280.839844 243.121094 C 283.425781 241.519531 285.5 239.34375 287.710938 237.300781 C 289.480469 235.628906 291.664062 234.398438 293.15625 232.417969 C 293.359375 232.164062 293.628906 232.132812 293.886719 232.1875 C 293.988281 232.042969 294.082031 231.898438 294.179688 231.753906 C 294.859375 230.738281 295.566406 229.746094 296.304688 228.773438 C 296.507812 228.507812 296.917969 228.835938 296.765625 229.109375 C 296.164062 230.175781 295.609375 231.261719 294.976562 232.3125 C 294.867188 232.496094 294.738281 232.667969 294.625 232.847656 C 294.648438 232.921875 294.699219 232.980469 294.707031 233.058594 C 294.832031 234.414062 294.402344 235.417969 293.652344 236.25 C 293.773438 235.660156 293.894531 235.023438 294.015625 234.386719 C 289.28125 238.710938 283.949219 242.59375 278.605469 245.980469 C 275.398438 248.046875 271.957031 249.761719 268.9375 252.09375 C 265.875 254.476562 264.097656 257.597656 262.003906 260.769531 C 261 262.289062 259.808594 263.582031 258.527344 264.792969 C 258.304688 264.976562 258.085938 265.164062 257.859375 265.304688 Z M 257.859375 265.304688 " fill-opacity="1" fill-rule="nonzero"/></g></g></g></g><g clip-path="url(#6b32222d4e)"><g clip-path="url(#c4f76bf06f)"><g clip-path="url(#00ecad0c64)"><g clip-path="url(#8e615d12cb)"><path fill="#5f926a" d="M 179.785156 302.605469 C 179.332031 302.660156 178.789062 302.628906 178.644531 302.226562 C 178.59375 301.953125 178.765625 301.679688 178.941406 301.449219 C 180.214844 299.835938 181.488281 298.175781 182.757812 296.558594 C 184.207031 294.714844 185.699219 292.777344 187.65625 291.507812 C 189.792969 290.101562 192.402344 289.496094 194.925781 289.253906 C 196.097656 289.136719 197.273438 289.0625 198.402344 289.082031 C 198.898438 289.023438 199.398438 289.011719 199.894531 289 C 201.25 288.96875 202.742188 289.066406 204.042969 288.582031 C 204.359375 288.484375 204.753906 288.113281 205.078125 288.421875 C 205.496094 288.820312 204.976562 289.738281 204.804688 290.148438 C 203.777344 292.527344 202.703125 294.90625 201.125 297.027344 C 199.503906 299.238281 197.289062 301.148438 194.640625 301.84375 C 193.875 302.089844 193.066406 302.199219 192.253906 302.21875 C 190.71875 302.34375 189.132812 302.203125 187.59375 302.148438 C 184.96875 302.074219 182.351562 302.226562 179.785156 302.605469 Z M 212.808594 269.316406 C 212.074219 268.972656 211.214844 268.902344 210.480469 268.511719 C 208.882812 267.738281 207.5 266.636719 206.160156 265.492188 C 204.085938 263.777344 202.050781 261.925781 199.585938 260.941406 C 198.128906 260.390625 196.585938 260.152344 195.003906 260.191406 C 193.554688 260.179688 192.160156 260.394531 190.769531 260.789062 C 187.894531 261.582031 185.214844 263.050781 182.675781 264.605469 C 182.453125 264.789062 182.1875 264.933594 182.101562 265.207031 C 182.0625 265.480469 182.207031 265.792969 182.4375 265.96875 C 182.710938 266.140625 182.984375 266.226562 183.257812 266.3125 C 187.21875 267.394531 190.320312 270.441406 194.191406 271.707031 C 197.109375 272.632812 200.269531 272.515625 203.332031 272.035156 C 203.378906 272.03125 203.378906 272.03125 203.378906 272.03125 C 204.144531 271.921875 204.953125 271.769531 205.71875 271.613281 C 208.015625 271.199219 210.21875 270.691406 212.464844 270.1875 C 213.230469 270.03125 213.492188 269.617188 212.808594 269.316406 Z M 211.417969 252.738281 C 211.089844 252.292969 210.761719 251.847656 210.433594 251.359375 C 210.011719 250.691406 209.40625 249.933594 208.6875 250.132812 C 208.285156 250.234375 208.019531 250.601562 207.941406 251.011719 C 207.8125 251.375 207.867188 251.78125 207.878906 252.191406 C 208.117188 254.628906 208.355469 257.066406 209 259.449219 C 209.597656 261.789062 210.648438 264.074219 212.273438 265.890625 C 213.339844 267.085938 214.722656 268.09375 216.273438 268.648438 C 216.410156 268.6875 216.589844 268.773438 216.726562 268.816406 C 217.230469 268.988281 217.730469 269.15625 218.28125 269.460938 C 218.832031 269.761719 219.285156 269.933594 219.914062 269.78125 C 218.535156 268.683594 218.308594 266.832031 218.359375 265.15625 C 218.453125 263.480469 218.773438 261.707031 218.195312 260.136719 C 217.46875 258.164062 215.585938 256.894531 214.015625 255.527344 C 213.046875 254.691406 212.210938 253.761719 211.417969 252.738281 Z M 276.820312 282.460938 C 275.746094 282.9375 274.667969 283.28125 273.59375 283.621094 C 272.335938 284.015625 271.035156 284.363281 269.777344 284.800781 C 266.726562 285.824219 263.601562 287.347656 261.902344 290.101562 C 260.464844 292.398438 260.261719 295.257812 260.054688 297.976562 C 259.890625 300.605469 259.730469 303.234375 259.519531 305.910156 C 259.527344 306.226562 259.492188 306.589844 259.722656 306.8125 C 259.769531 306.855469 259.863281 306.945312 259.953125 306.941406 C 260.316406 307.023438 260.71875 306.878906 261.03125 306.691406 C 262.726562 305.699219 264.421875 304.753906 266.117188 303.808594 C 267.945312 302.769531 269.773438 301.683594 271.136719 300.113281 C 273.027344 297.894531 273.726562 294.980469 274.75 292.285156 C 275.121094 291.289062 275.578125 290.320312 276.035156 289.355469 C 275.953125 290.546875 275.945312 291.75 276.074219 292.933594 C 276.476562 296.453125 277.640625 299.867188 278.851562 303.1875 C 279.1875 304.085938 279.800781 305.15625 280.746094 305 C 281.289062 304.894531 281.636719 304.386719 281.898438 303.929688 L 281.941406 303.882812 C 283.207031 301.953125 284.472656 300.019531 285.234375 297.828125 C 286.039062 295.636719 286.296875 293.140625 285.476562 290.988281 C 284.605469 288.519531 282.480469 286.667969 281.472656 284.25 C 281.089844 283.308594 280.746094 282.183594 279.789062 281.800781 C 279.5625 281.699219 279.308594 281.738281 279.0625 281.75 C 278.367188 281.585938 277.335938 282.261719 276.820312 282.460938 Z M 213.214844 163.117188 C 213.617188 162.878906 213.972656 162.601562 214.234375 162.230469 C 214.5 161.847656 214.546875 161.234375 214.230469 160.867188 C 214.238281 160.871094 214.242188 160.871094 214.246094 160.875 C 216.023438 161.464844 218.0625 161.6875 217.1875 158.992188 C 216.648438 157.332031 216.300781 155.980469 216.300781 154.171875 C 216.3125 152.675781 216.363281 151.089844 215.652344 149.703125 C 214.894531 148.183594 213.378906 147.222656 211.824219 146.492188 C 210.773438 145.972656 209.722656 145.5 208.757812 144.84375 C 208.296875 144.585938 207.882812 144.277344 207.46875 143.878906 C 207.050781 143.480469 206.496094 142.953125 205.914062 143.148438 C 205.375 143.339844 205.253906 144.023438 205.179688 144.566406 C 205.035156 146.15625 204.847656 147.789062 204.976562 149.371094 C 205.226562 152.351562 206.5625 155.21875 208.601562 157.386719 C 209.855469 158.714844 211.371094 159.71875 213.0625 160.449219 C 213.21875 160.503906 213.402344 160.570312 213.574219 160.632812 C 213.148438 160.628906 212.585938 160.867188 212.167969 160.878906 C 210.40625 160.964844 208.582031 160.285156 206.9375 159.644531 C 205.386719 159.003906 203.878906 158.3125 202.242188 157.945312 C 201.652344 157.824219 201.058594 157.703125 200.425781 157.671875 C 197.847656 157.507812 195.292969 158.519531 193.203125 159.972656 C 191.070312 161.472656 189.261719 163.371094 187.542969 165.265625 C 187.277344 165.542969 186.96875 165.914062 187.023438 166.273438 C 187.128906 166.953125 188.082031 167.019531 188.757812 166.914062 C 190.425781 166.738281 192.101562 166.878906 193.738281 167.246094 C 196.191406 167.820312 198.527344 169.078125 201.015625 169.109375 L 201.152344 169.105469 C 204.226562 169.078125 206.984375 167.292969 209.523438 165.601562 C 210.769531 164.757812 212.015625 163.960938 213.214844 163.117188 Z M 473.667969 128.9375 C 473.234375 129.714844 472.984375 130.671875 472.683594 131.40625 C 471.871094 133.324219 471.058594 135.289062 470.566406 137.339844 C 469.664062 141.164062 470.074219 145.183594 471.339844 148.910156 C 472.601562 152.589844 474.71875 155.980469 477.230469 159 C 477.511719 159.355469 477.835938 159.753906 478.246094 159.925781 C 478.613281 160.140625 479.113281 160.175781 479.511719 159.941406 C 479.558594 159.9375 479.558594 159.894531 479.601562 159.890625 C 480.042969 159.472656 479.984375 158.796875 480.011719 158.164062 C 480.035156 155.265625 482.144531 152.816406 482.894531 149.992188 C 483.804688 146.574219 482.636719 142.980469 481.15625 139.757812 C 479.585938 136.355469 477.835938 133.183594 477.203125 129.394531 C 476.945312 128.132812 476.59375 126.605469 474.984375 127.410156 C 474.359375 127.742188 473.96875 128.296875 473.667969 128.9375 Z M 240.617188 94.972656 C 241.054688 94.417969 241.964844 94.625 242.605469 94.925781 C 243.425781 95.269531 244.292969 95.609375 245.070312 96 C 245.117188 95.996094 245.117188 95.996094 245.117188 96.042969 C 245.988281 96.472656 246.8125 96.996094 247.597656 97.613281 C 249.113281 98.753906 250.328125 100.355469 250.78125 102.199219 C 251.6875 106.070312 248.886719 110.074219 249.613281 114.042969 C 249.671875 114.371094 249.660156 114.6875 249.597656 114.976562 C 250.105469 114.921875 250.628906 114.867188 251.132812 115.046875 C 252.632812 115.464844 252.023438 116.519531 251 117.085938 C 248.054688 118.785156 246.839844 122.753906 243.84375 124.226562 C 243.710938 124.367188 243.625 124.414062 243.488281 124.460938 C 241.964844 125.085938 240.246094 124.992188 238.617188 124.894531 C 237.441406 124.832031 236.261719 124.726562 235.085938 124.664062 C 234.722656 124.625 234.359375 124.589844 234.082031 124.371094 C 233.710938 123.972656 233.921875 123.289062 234.183594 122.828125 C 235.5625 120.035156 237.859375 117.761719 240.675781 116.425781 C 242.363281 115.59375 244.070312 115.273438 245.847656 115.160156 C 245.617188 115.125 245.386719 115.09375 245.164062 115.097656 C 243.898438 115.039062 242.597656 115.476562 241.429688 115.820312 C 240.488281 116.113281 239.542969 116.410156 238.601562 116.65625 C 238.554688 116.660156 238.464844 116.660156 238.421875 116.707031 C 237.925781 116.855469 237.433594 116.957031 236.9375 117.058594 L 236.890625 117.0625 C 236.804688 117.109375 236.714844 117.109375 236.578125 117.113281 C 235.765625 117.269531 234.910156 117.289062 234.046875 117.171875 C 232.503906 116.984375 231.085938 116.292969 229.757812 115.554688 C 227.007812 113.992188 224.523438 112.058594 222.296875 109.804688 C 221.882812 109.40625 221.460938 108.828125 221.671875 108.28125 C 221.84375 107.734375 222.5625 107.578125 223.101562 107.519531 C 226.078125 107.132812 229.007812 106.746094 231.9375 106.359375 C 232.160156 106.355469 232.339844 106.304688 232.566406 106.300781 C 234.234375 106.035156 235.902344 105.902344 237.496094 106.410156 C 241.570312 107.660156 243.644531 112.121094 247.0625 114.4375 C 246.769531 113.984375 246.484375 113.511719 246.113281 113.128906 C 244.214844 111.273438 242.9375 108.90625 242.109375 106.34375 C 241.035156 103.109375 240.726562 99.675781 240.375 96.292969 C 240.367188 95.839844 240.308594 95.34375 240.617188 94.972656 Z M 247.023438 115.113281 C 247.191406 115.109375 247.367188 115.109375 247.539062 115.109375 C 247.53125 115.101562 247.519531 115.09375 247.515625 115.085938 C 247.449219 115.011719 247.398438 114.914062 247.339844 114.835938 C 247.238281 114.949219 247.136719 115.054688 247.023438 115.113281 Z M 351.707031 205.488281 C 351.664062 205.535156 351.707031 205.578125 351.707031 205.578125 L 351.714844 205.894531 C 351.707031 206.046875 351.679688 206.195312 351.664062 206.34375 C 351.453125 206.246094 351.21875 206.226562 351.003906 206.410156 C 350.785156 206.6875 350.894531 207.546875 350.769531 207.863281 C 350.304688 209.324219 349.121094 210.757812 348.246094 212.042969 C 348.113281 212.230469 348.027344 212.410156 347.898438 212.597656 C 346.503906 214.890625 345.070312 217.28125 344.773438 219.957031 C 344.445312 223.269531 345.96875 226.492188 347.621094 229.394531 C 349.410156 232.523438 351.519531 235.640625 354.722656 237.148438 C 355.453125 237.539062 356.363281 237.789062 357.078125 237.410156 C 357.121094 237.363281 357.167969 237.363281 357.210938 237.316406 C 357.703125 237.03125 358.007812 236.480469 358.21875 235.980469 C 359.503906 233.003906 359.195312 229.527344 358.171875 226.429688 C 357.390625 224.085938 356.238281 221.855469 355.160156 219.613281 C 357.960938 223.1875 361.992188 225.730469 366.324219 227.050781 C 366.734375 227.128906 367.144531 227.257812 367.550781 227.246094 C 367.734375 227.289062 367.914062 227.28125 368.140625 227.277344 C 368.726562 227.21875 369.351562 226.886719 369.5625 226.339844 C 369.777344 225.835938 369.628906 225.296875 369.527344 224.753906 C 369.074219 222.863281 368.625 221.019531 368.214844 219.128906 C 367.816406 217.597656 367.464844 216.023438 366.53125 214.777344 C 365.503906 213.355469 363.945312 212.484375 362.390625 211.84375 C 360.792969 211.203125 359.109375 210.746094 357.601562 209.964844 C 356.046875 209.234375 354.617188 208.089844 353.902344 206.523438 C 353.710938 206.164062 353.613281 205.804688 353.378906 205.449219 C 353.097656 205.046875 352.546875 204.65625 352.054688 204.890625 C 351.742188 205.082031 351.703125 205.261719 351.707031 205.488281 Z M 404.625 224.203125 C 403.90625 224.410156 402.894531 225.0625 402.40625 225.285156 C 400.570312 226.097656 398.636719 226.503906 396.703125 226.824219 C 396.207031 226.925781 395.664062 226.984375 395.171875 227.085938 C 392.78125 227.460938 390.398438 227.878906 388.253906 228.972656 C 385.171875 230.628906 383.027344 233.578125 381.65625 236.777344 C 380.332031 239.976562 379.734375 243.433594 379.140625 246.886719 C 379.0625 247.339844 378.984375 247.886719 379.265625 248.285156 C 379.730469 248.957031 380.765625 248.75 381.527344 248.460938 C 384.976562 247.109375 388.429688 245.804688 391.921875 244.5 C 392.191406 244.402344 392.417969 244.308594 392.683594 244.210938 C 394.566406 243.488281 396.402344 242.671875 397.769531 241.238281 C 399.179688 239.847656 399.949219 237.972656 400.722656 236.140625 C 401.5625 234.136719 402.394531 232.140625 403.222656 230.148438 C 402.945312 232.050781 402.933594 233.988281 403.246094 235.902344 C 403.785156 239.554688 405.136719 243.054688 406.707031 246.457031 C 407.234375 247.667969 407.851562 248.917969 408.691406 249.984375 C 409.109375 250.519531 409.667969 251.09375 410.34375 251.03125 C 410.75 250.976562 411.105469 250.742188 411.324219 250.421875 C 411.5 250.28125 411.585938 250.050781 411.671875 249.867188 C 411.839844 249.277344 411.824219 248.644531 411.855469 248.054688 C 411.941406 245.925781 412.523438 243.828125 412.96875 241.734375 C 413.417969 239.597656 413.679688 237.417969 413.132812 235.347656 C 412.085938 231.164062 408.128906 228.316406 406.722656 224.277344 C 406.21875 222.921875 405.242188 223.066406 404.625 224.203125 Z M 316.25 36.089844 C 315.804688 36.375 316.09375 37.089844 316.421875 37.535156 C 318.75 40.511719 321.085938 43.535156 324.03125 45.863281 C 325.191406 46.78125 326.492188 47.535156 327.839844 48.164062 C 327.582031 48.128906 327.324219 48.089844 327.070312 48.054688 C 323.894531 47.585938 320.367188 47.582031 317.789062 49.453125 C 316.234375 50.621094 315.191406 52.320312 314.28125 54.0625 C 312.902344 56.8125 311.75 59.691406 311.414062 62.730469 C 311.382812 63.230469 311.394531 63.863281 311.808594 64.171875 C 312.5 64.605469 313.25 63.867188 313.777344 63.308594 C 315.589844 61.457031 318.382812 61.117188 320.957031 61.011719 L 321.5 60.996094 C 323.847656 60.941406 326.382812 60.925781 328.433594 59.835938 C 331.203125 58.367188 332.621094 55.347656 334.464844 52.949219 C 334.800781 52.503906 335.675781 51.765625 336.421875 51.027344 C 336.046875 52.347656 336.082031 53.886719 336.144531 55.125 C 336.25 57.613281 336.578125 60.050781 337.179688 62.480469 C 337.832031 65.269531 338.894531 68.1875 341.199219 69.945312 C 341.566406 70.207031 342.023438 70.46875 342.425781 70.277344 C 342.515625 70.273438 342.5625 70.273438 342.605469 70.226562 C 342.875 70.039062 342.957031 69.71875 343.039062 69.402344 C 343.574219 67.261719 344.113281 65.121094 344.648438 62.980469 C 345.0625 61.386719 345.476562 59.746094 345.167969 58.125 C 344.59375 54.925781 341.652344 52.957031 340.007812 50.28125 C 339.296875 49.105469 338.664062 48 337.457031 49.175781 C 337.425781 49.070312 337.347656 49.011719 337.28125 48.933594 C 337.550781 48.8125 337.78125 48.652344 337.882812 48.386719 C 338.054688 48.066406 337.910156 47.660156 337.808594 47.257812 C 336.734375 43.886719 335.382812 40.253906 332.355469 38.378906 C 330.839844 37.464844 329.023438 37.144531 327.210938 36.960938 C 326.800781 36.878906 326.351562 36.847656 325.941406 36.8125 C 322.90625 36.519531 319.917969 36.277344 316.925781 35.984375 C 316.699219 35.945312 316.425781 35.953125 316.25 36.089844 Z M 316.25 36.089844 " fill-opacity="1" fill-rule="nonzero"/></g></g></g></g><g clip-path="url(#adaf7fdac1)"><g clip-path="url(#4d4f33e75f)"><g clip-path="url(#9831db53e3)"><g clip-path="url(#8558c79a6d)"><path fill="#587e60" d="M 352.605469 209.714844 C 352.605469 209.527344 352.800781 209.421875 352.960938 209.5 C 353.515625 209.765625 353.863281 210.457031 354.128906 210.980469 C 354.421875 211.554688 354.695312 212.136719 354.960938 212.722656 C 355.53125 213.984375 356.109375 215.277344 356.980469 216.367188 C 357.917969 217.53125 359.1875 218.398438 360.378906 219.28125 C 361.59375 220.179688 362.753906 221.328125 364.144531 221.941406 C 364.40625 222.054688 364.230469 222.472656 363.964844 222.394531 C 362.527344 221.992188 361.332031 220.847656 360.109375 220.027344 C 358.828125 219.164062 357.492188 218.269531 356.46875 217.101562 C 355.527344 216.027344 354.855469 214.769531 354.230469 213.492188 C 353.90625 212.832031 353.613281 212.160156 353.285156 211.5 C 353.019531 210.960938 352.613281 210.332031 352.605469 209.714844 Z M 214.078125 160.070312 C 214.117188 160.277344 214.144531 160.488281 214.195312 160.695312 C 214.199219 160.738281 214.246094 160.828125 214.246094 160.875 C 216.023438 161.464844 218.0625 161.6875 217.1875 158.992188 C 216.648438 157.332031 216.300781 155.980469 216.300781 154.171875 C 216.3125 152.675781 216.363281 151.089844 215.652344 149.703125 C 214.894531 148.183594 213.378906 147.222656 211.824219 146.492188 C 210.773438 145.972656 209.722656 145.5 208.757812 144.84375 C 208.804688 144.933594 208.851562 145.023438 208.898438 145.066406 C 210.25 146.890625 212.230469 148.292969 213.183594 150.398438 C 214.328125 152.90625 213.730469 155.828125 213.898438 158.628906 C 213.363281 158.363281 212.828125 158.101562 212.414062 157.691406 C 211.449219 156.738281 210.863281 155.460938 210.09375 154.359375 C 208.546875 152.144531 207.578125 149.4375 207.3125 146.75 C 207.28125 146.449219 206.839844 146.453125 206.84375 146.757812 C 206.886719 149.65625 207.683594 152.558594 209.25 154.996094 C 210.007812 156.179688 210.652344 157.484375 211.652344 158.492188 C 212.261719 159.105469 213.164062 159.703125 214.078125 160.070312 Z M 473.667969 128.9375 C 473.761719 129.160156 473.855469 129.339844 473.953125 129.519531 C 474.167969 129.910156 474.363281 130.316406 474.574219 130.714844 C 474.132812 132.765625 474.722656 135.058594 474.628906 137.125 C 474.507812 139.753906 473.972656 142.324219 473.976562 144.964844 C 473.988281 150.019531 475.378906 154.949219 478.359375 159.0625 C 478.554688 159.332031 478.972656 159.082031 478.804688 158.789062 C 476.136719 154.125 474.753906 149.320312 475.113281 143.929688 C 475.277344 141.457031 475.792969 139.019531 475.859375 136.535156 C 475.890625 135.351562 475.730469 134.214844 475.632812 133.039062 C 475.628906 132.984375 475.632812 132.921875 475.632812 132.863281 C 478.113281 138.183594 479.746094 143.929688 479.585938 149.753906 C 479.441406 153.152344 478.800781 156.652344 479.511719 159.941406 C 479.558594 159.9375 479.558594 159.894531 479.601562 159.890625 C 480.042969 159.472656 479.984375 158.796875 480.011719 158.164062 C 480.035156 155.265625 482.148438 152.816406 482.894531 149.992188 C 483.804688 146.574219 482.636719 142.980469 481.15625 139.757812 C 479.585938 136.355469 477.835938 133.183594 477.203125 129.394531 C 476.945312 128.132812 476.59375 126.605469 474.984375 127.410156 C 474.359375 127.742188 473.96875 128.296875 473.667969 128.9375 Z M 330.203125 39.199219 C 332.109375 41.371094 332.722656 44.390625 334.050781 46.9375 C 334.25 47.339844 334.476562 47.726562 334.734375 48.089844 C 334.1875 47.816406 333.652344 47.511719 333.152344 47.195312 C 331.46875 46.136719 329.925781 44.84375 328.496094 43.46875 C 327.136719 42.160156 325.664062 41.015625 324.101562 39.960938 C 323.375 39.46875 322.65625 38.933594 321.824219 38.628906 C 320.910156 38.296875 319.902344 38.304688 319.023438 37.847656 C 318.648438 37.652344 318.355469 38.195312 318.710938 38.421875 C 319.40625 38.863281 320.195312 39.023438 320.972656 39.269531 C 322.039062 39.601562 322.878906 40.304688 323.757812 40.96875 C 325.410156 42.21875 326.785156 43.628906 328.191406 45.136719 C 329.507812 46.546875 330.976562 47.789062 332.59375 48.847656 C 332.925781 49.0625 333.371094 49.324219 333.855469 49.574219 C 333.664062 49.726562 333.476562 49.882812 333.285156 50.015625 C 332.402344 50.644531 331.429688 51.101562 330.425781 51.492188 C 328.152344 52.378906 325.816406 52.824219 323.457031 53.398438 C 321.375 53.910156 319.359375 54.273438 317.6875 55.6875 C 316.035156 57.085938 314.675781 58.402344 313.484375 60.214844 C 313.292969 60.503906 313.71875 60.773438 313.949219 60.558594 C 315.566406 59.046875 317.011719 57.433594 318.964844 56.320312 C 320.042969 55.699219 321.351562 55.738281 322.554688 55.597656 C 323.683594 55.46875 324.804688 55.332031 325.925781 55.148438 C 326.652344 55.027344 327.34375 54.847656 328.042969 54.683594 C 328.019531 54.71875 327.972656 54.738281 327.953125 54.777344 C 327.691406 55.191406 327.613281 55.691406 327.441406 56.148438 C 326.722656 58.203125 324.859375 59.742188 322.847656 60.558594 C 322.398438 60.75 321.996094 60.894531 321.5 60.996094 C 323.847656 60.941406 326.382812 60.925781 328.433594 59.835938 C 331.203125 58.367188 332.621094 55.347656 334.464844 52.949219 C 334.933594 52.332031 336.425781 51.160156 337.152344 50.195312 C 337.167969 50.1875 337.1875 50.195312 337.203125 50.191406 C 337.21875 53.199219 338.574219 55.675781 339.871094 58.363281 C 340.710938 60.097656 340.601562 61.703125 340.597656 63.578125 C 340.59375 65.226562 340.921875 66.863281 341.535156 68.390625 C 341.617188 68.597656 341.941406 68.507812 341.871094 68.289062 C 341.292969 66.425781 341.21875 64.574219 341.4375 62.648438 C 341.621094 61.039062 341.570312 59.660156 340.917969 58.15625 C 340.261719 56.640625 339.421875 55.21875 338.851562 53.664062 C 338.652344 53.121094 338.507812 52.570312 338.402344 52.007812 C 338.71875 52.496094 339.039062 52.988281 339.402344 53.417969 C 340.382812 54.617188 341.496094 55.8125 342.160156 57.199219 C 343.207031 59.347656 343.222656 61.882812 342.960938 64.289062 C 342.785156 66.285156 342.425781 68.285156 342.425781 70.277344 C 342.515625 70.273438 342.5625 70.273438 342.605469 70.226562 C 342.875 70.039062 342.957031 69.71875 343.039062 69.402344 C 343.574219 67.261719 344.113281 65.121094 344.648438 62.980469 C 345.0625 61.386719 345.476562 59.746094 345.167969 58.125 C 344.59375 54.925781 341.652344 52.957031 340.007812 50.28125 C 339.3125 49.128906 338.6875 48.042969 337.527344 49.109375 C 337.429688 49.035156 337.3125 49.011719 337.203125 48.960938 C 337.503906 48.839844 337.773438 48.675781 337.882812 48.386719 C 338.054688 48.066406 337.910156 47.660156 337.808594 47.253906 C 336.734375 43.886719 335.382812 40.253906 332.355469 38.378906 C 330.839844 37.464844 329.023438 37.144531 327.210938 36.960938 C 328.355469 37.523438 329.367188 38.269531 330.203125 39.199219 Z M 248.683594 101.570312 C 249.101562 103.914062 248.253906 106.289062 247.632812 108.613281 C 247.433594 109.273438 247.28125 109.964844 247.164062 110.660156 C 247.15625 110.648438 247.144531 110.636719 247.136719 110.625 C 246.515625 109.578125 246.046875 108.445312 245.648438 107.300781 C 245.164062 105.917969 244.945312 104.464844 244.492188 103.078125 C 244.046875 101.703125 243.488281 100.386719 243.488281 98.917969 C 243.488281 98.621094 243.042969 98.636719 243.027344 98.929688 C 242.960938 100.339844 243.371094 101.703125 243.722656 103.050781 C 244.136719 104.625 244.390625 106.234375 244.867188 107.789062 C 245.238281 108.988281 245.703125 110.160156 246.332031 111.25 C 246.535156 111.605469 246.765625 111.96875 247.015625 112.324219 C 247.007812 113.132812 247.125 113.925781 247.398438 114.679688 C 243.769531 112.441406 241.707031 107.703125 237.496094 106.410156 C 235.902344 105.902344 234.234375 106.035156 232.566406 106.300781 C 232.75 106.339844 232.886719 106.429688 233.023438 106.515625 C 234.078125 107.078125 235.085938 107.6875 235.964844 108.4375 C 237.023438 109.316406 237.910156 110.382812 238.613281 111.542969 C 239.027344 112.171875 239.324219 112.882812 239.351562 113.628906 C 239.042969 113.613281 238.730469 113.609375 238.429688 113.570312 C 236.996094 113.394531 235.546875 113.152344 234.148438 112.773438 C 232.722656 112.386719 231.375 111.765625 229.957031 111.335938 C 228.582031 110.917969 227.179688 110.59375 225.914062 109.882812 C 225.679688 109.75 225.496094 110.101562 225.714844 110.246094 C 226.886719 111.03125 228.21875 111.472656 229.527344 111.96875 C 231 112.527344 232.410156 113.25 233.914062 113.714844 C 235.386719 114.167969 236.953125 114.4375 238.480469 114.632812 C 238.699219 114.660156 238.929688 114.6875 239.15625 114.714844 C 238.957031 115.179688 238.683594 115.613281 238.3125 115.941406 C 237.78125 116.40625 237.203125 116.78125 236.578125 117.113281 C 236.535156 117.160156 236.441406 117.160156 236.398438 117.207031 C 236.578125 117.160156 236.714844 117.109375 236.890625 117.0625 L 236.9375 117.058594 C 237.429688 116.910156 237.925781 116.765625 238.421875 116.707031 C 238.464844 116.660156 238.554688 116.660156 238.601562 116.65625 C 239.542969 116.410156 240.488281 116.113281 241.429688 115.820312 C 242.597656 115.476562 243.898438 115.039062 245.164062 115.097656 C 245.960938 115.078125 246.851562 115.5625 247.421875 114.761719 C 247.460938 114.867188 247.46875 114.980469 247.515625 115.085938 C 247.609375 115.222656 247.746094 115.351562 247.886719 115.484375 C 247.984375 115.558594 248.046875 115.542969 248.136719 115.59375 C 247.816406 115.8125 247.527344 116.074219 247.253906 116.351562 C 246.589844 116.566406 245.945312 116.875 245.324219 117.152344 C 244.171875 117.671875 243.054688 118.242188 241.964844 118.878906 C 239.792969 120.144531 237.863281 121.640625 236.082031 123.417969 C 235.910156 123.589844 236.15625 123.914062 236.359375 123.757812 C 238.289062 122.277344 240.425781 121 242.589844 119.890625 C 243.675781 119.332031 244.785156 118.8125 245.902344 118.320312 C 245.90625 118.320312 245.90625 118.320312 245.910156 118.320312 C 245.8125 118.523438 245.695312 118.722656 245.617188 118.933594 C 245.152344 120.304688 245.007812 121.757812 244.496094 123.082031 C 244.324219 123.539062 244.152344 123.902344 243.84375 124.226562 C 246.839844 122.753906 248.054688 118.785156 251 117.085938 C 252.023438 116.519531 252.632812 115.464844 251.132812 115.046875 C 250.628906 114.867188 250.105469 114.921875 249.597656 114.976562 C 249.660156 114.6875 249.671875 114.371094 249.613281 114.042969 C 248.886719 110.074219 251.683594 106.070312 250.78125 102.199219 C 250.328125 100.355469 249.113281 98.753906 247.597656 97.613281 C 246.8125 96.996094 245.988281 96.472656 245.117188 96.042969 C 245.671875 96.527344 246.179688 97.058594 246.644531 97.589844 C 247.621094 98.742188 248.378906 100.082031 248.683594 101.570312 Z M 213.214844 163.117188 C 213.617188 162.878906 213.972656 162.601562 214.234375 162.230469 C 214.582031 161.726562 214.5625 160.820312 213.835938 160.613281 C 213.421875 160.441406 212.664062 160.867188 212.167969 160.878906 C 210.40625 160.964844 208.582031 160.285156 206.9375 159.644531 C 205.386719 159.003906 203.878906 158.3125 202.242188 157.945312 C 203.496094 159.269531 204.707031 160.554688 205.957031 161.835938 C 204.226562 161.722656 202.464844 161.621094 200.730469 161.667969 C 198.976562 161.71875 197.214844 162.003906 195.5625 162.609375 C 193.847656 163.234375 192.289062 164.207031 190.515625 164.675781 C 190.289062 164.734375 190.34375 165.117188 190.582031 165.089844 C 192.421875 164.875 194.113281 164.167969 195.878906 163.660156 C 197.789062 163.113281 199.730469 162.882812 201.714844 162.941406 C 203.351562 162.992188 204.984375 163.089844 206.617188 163.199219 C 206.574219 163.476562 206.445312 163.757812 206.273438 164.003906 C 204.96875 166.074219 203.484375 168.28125 201.152344 169.105469 C 204.226562 169.078125 206.984375 167.292969 209.523438 165.601562 C 210.769531 164.757812 212.015625 163.960938 213.214844 163.117188 Z M 213.332031 257.21875 C 214.175781 258.46875 215.507812 259.386719 216.128906 260.773438 C 216.945312 262.523438 216.53125 264.539062 216.496094 266.5 C 216.042969 266.140625 215.558594 265.808594 215.144531 265.453125 C 213.960938 264.445312 213.15625 262.988281 212.65625 261.53125 C 212.136719 260.015625 211.832031 258.414062 211.390625 256.871094 C 211.164062 256.082031 210.960938 255.289062 210.640625 254.53125 C 210.324219 253.773438 209.964844 253.027344 209.71875 252.242188 C 209.648438 252.011719 209.253906 252.054688 209.285156 252.308594 C 209.492188 253.890625 210.175781 255.417969 210.566406 256.964844 C 210.996094 258.65625 211.277344 260.414062 211.816406 262.074219 C 212.269531 263.464844 212.867188 264.84375 213.871094 265.929688 C 214.609375 266.726562 215.589844 267.546875 216.585938 268.132812 C 216.625 268.363281 216.660156 268.601562 216.726562 268.816406 C 217.230469 268.988281 217.730469 269.15625 218.28125 269.460938 C 218.832031 269.761719 219.285156 269.933594 219.914062 269.78125 C 218.535156 268.683594 218.308594 266.832031 218.359375 265.15625 C 218.453125 263.480469 218.773438 261.707031 218.195312 260.136719 C 217.46875 258.164062 215.585938 256.894531 214.015625 255.527344 C 213.046875 254.691406 212.210938 253.761719 211.417969 252.738281 C 211.996094 254.265625 212.398438 255.882812 213.332031 257.21875 Z M 212.808594 269.316406 C 212.074219 268.972656 211.214844 268.902344 210.480469 268.511719 C 208.882812 267.738281 207.5 266.636719 206.160156 265.492188 C 204.085938 263.777344 202.050781 261.925781 199.585938 260.941406 C 198.128906 260.390625 196.585938 260.152344 195.003906 260.191406 C 197.695312 261.167969 200.171875 262.738281 202.210938 264.773438 C 203.730469 266.257812 205.035156 268 206.660156 269.332031 C 205.378906 269.28125 204.09375 269.261719 202.839844 268.984375 C 200.949219 268.570312 199.203125 267.695312 197.390625 267.039062 C 195.636719 266.40625 193.875 265.582031 192.046875 265.175781 C 190.050781 264.730469 187.988281 264.769531 185.964844 264.945312 C 185.703125 264.96875 185.714844 265.339844 185.976562 265.351562 C 188.191406 265.453125 190.453125 265.589844 192.578125 266.277344 C 194.441406 266.882812 196.316406 267.710938 198.117188 268.484375 C 200.789062 269.625 203.59375 270.605469 206.480469 270.628906 C 205.414062 271.023438 204.367188 271.457031 203.378906 272.03125 C 204.144531 271.921875 204.953125 271.769531 205.71875 271.613281 C 208.015625 271.199219 210.21875 270.691406 212.464844 270.1875 C 213.230469 270.03125 213.492188 269.617188 212.808594 269.316406 Z M 201.125 297.027344 C 202.703125 294.90625 203.777344 292.527344 204.804688 290.148438 C 204.976562 289.738281 205.496094 288.820312 205.078125 288.421875 C 204.753906 288.113281 204.359375 288.484375 204.042969 288.582031 C 202.742188 289.066406 201.25 288.96875 199.894531 289 C 199.398438 289.011719 198.898438 289.023438 198.402344 289.082031 C 198.636719 289.4375 199.007812 289.789062 199.246094 290.191406 C 199.734375 290.863281 199.941406 291.699219 199.96875 292.546875 C 199.15625 293.1875 198.394531 293.902344 197.542969 294.488281 C 196.011719 295.535156 194.046875 296.03125 192.289062 296.570312 C 190.464844 297.125 188.539062 297.480469 186.785156 298.25 C 185.238281 298.933594 183.972656 300.277344 182.234375 300.472656 C 181.949219 300.507812 181.949219 300.929688 182.242188 300.925781 C 183.839844 300.902344 185.105469 300.121094 186.5 299.449219 C 188.398438 298.53125 190.605469 298.253906 192.628906 297.695312 C 194.363281 297.214844 196.238281 296.761719 197.816406 295.871094 C 198.445312 295.519531 199.050781 295.03125 199.652344 294.546875 C 199.210938 295.828125 198.40625 296.96875 197.53125 298.019531 C 196.519531 299.175781 195.371094 300.289062 194.082031 301.179688 C 193.503906 301.554688 192.878906 301.929688 192.253906 302.21875 C 193.066406 302.199219 193.875 302.089844 194.640625 301.84375 C 197.289062 301.148438 199.503906 299.238281 201.125 297.027344 Z M 276.820312 282.460938 C 275.746094 282.9375 274.667969 283.28125 273.59375 283.621094 C 273.65625 284.300781 273.808594 285.019531 273.777344 285.699219 C 273.761719 285.980469 273.675781 286.25 273.601562 286.515625 C 272.144531 287.027344 270.742188 288.074219 269.625 288.972656 C 268.121094 290.175781 266.746094 291.570312 265.585938 293.113281 C 263.109375 296.410156 262.074219 300.171875 261.113281 304.113281 C 261.03125 304.449219 261.503906 304.546875 261.617188 304.242188 C 262.945312 300.648438 264.285156 297 266.714844 293.992188 C 267.832031 292.605469 269.09375 291.371094 270.464844 290.242188 C 271.144531 289.679688 271.859375 289.167969 272.570312 288.648438 C 272.28125 289.101562 271.980469 289.550781 271.710938 290.003906 C 270.496094 292.160156 270.011719 294.660156 269.027344 296.902344 C 267.183594 301.113281 263.546875 304.140625 259.953125 306.941406 C 260.316406 307.023438 260.71875 306.878906 261.03125 306.691406 C 262.726562 305.699219 264.421875 304.753906 266.117188 303.808594 C 267.945312 302.769531 269.773438 301.683594 271.136719 300.113281 C 273.027344 297.894531 273.726562 294.980469 274.75 292.285156 C 275.554688 290.144531 276.597656 288.089844 277.796875 286.136719 C 278.101562 288.949219 279.816406 291.347656 280.605469 294.066406 C 281.007812 295.460938 280.832031 296.832031 280.796875 298.257812 C 280.761719 299.636719 280.839844 301.128906 280.203125 302.390625 C 280.054688 302.679688 280.460938 302.894531 280.632812 302.632812 C 281.371094 301.53125 281.585938 300.152344 281.71875 298.863281 C 281.871094 297.375 282.222656 295.789062 282.007812 294.296875 C 281.78125 292.683594 281.0625 290.945312 280.324219 289.5 C 279.902344 288.667969 279.367188 287.929688 279.039062 287.046875 C 278.8125 286.453125 278.574219 285.898438 278.25 285.371094 C 278.359375 285.207031 278.4375 285.023438 278.550781 284.863281 C 278.554688 284.855469 278.566406 284.839844 278.570312 284.832031 C 280.273438 287.128906 282.011719 289.410156 282.835938 292.09375 C 283.570312 294.476562 283.496094 297.011719 283.101562 299.417969 C 282.820312 300.964844 282.40625 302.421875 281.941406 303.882812 C 283.207031 301.953125 284.472656 300.019531 285.234375 297.828125 C 286.039062 295.636719 286.296875 293.140625 285.476562 290.988281 C 284.605469 288.519531 282.480469 286.667969 281.472656 284.25 C 281.089844 283.308594 280.746094 282.183594 279.789062 281.800781 C 279.5625 281.699219 279.308594 281.738281 279.0625 281.75 C 278.367188 281.585938 277.335938 282.261719 276.820312 282.460938 Z M 351.707031 205.488281 C 351.664062 205.535156 351.707031 205.578125 351.707031 205.578125 C 352.339844 207.464844 353.378906 209.207031 354.765625 210.621094 C 357.964844 213.894531 362.839844 215.410156 365.371094 219.195312 C 366.917969 221.558594 367.394531 224.398438 367.550781 227.246094 C 367.734375 227.289062 367.914062 227.28125 368.140625 227.277344 C 368.726562 227.21875 369.351562 226.886719 369.5625 226.339844 C 369.777344 225.835938 369.628906 225.296875 369.527344 224.753906 C 369.074219 222.863281 368.625 221.019531 368.214844 219.128906 C 367.816406 217.597656 367.464844 216.023438 366.53125 214.777344 C 365.503906 213.355469 363.945312 212.484375 362.390625 211.84375 C 360.792969 211.203125 359.109375 210.746094 357.601562 209.964844 C 356.046875 209.234375 354.617188 208.089844 353.902344 206.523438 C 353.710938 206.164062 353.613281 205.804688 353.378906 205.449219 C 353.097656 205.046875 352.546875 204.65625 352.054688 204.890625 C 351.742188 205.082031 351.703125 205.261719 351.707031 205.488281 Z M 357.210938 237.316406 C 357.703125 237.03125 358.007812 236.480469 358.21875 235.980469 C 359.503906 233.003906 359.195312 229.527344 358.171875 226.429688 C 357.152344 223.375 355.5 220.515625 354.210938 217.5625 C 352.875 214.605469 351.890625 211.371094 352.222656 208.148438 C 352.257812 207.785156 352.339844 207.375 352.242188 207.015625 C 352.09375 206.519531 351.492188 205.992188 351.003906 206.410156 C 350.785156 206.6875 350.894531 207.546875 350.769531 207.863281 C 350.304688 209.324219 349.121094 210.757812 348.246094 212.042969 C 348.472656 212.085938 348.65625 212.171875 348.839844 212.300781 C 349.550781 212.75 350.054688 213.4375 350.421875 214.195312 C 350.195312 215.179688 350.164062 216.238281 350.144531 217.179688 C 350.101562 219.390625 350.222656 221.539062 350.65625 223.710938 C 351.371094 227.273438 352.582031 231.640625 355.558594 234.015625 C 355.738281 234.160156 356.078125 234.015625 355.980469 233.753906 C 355.886719 233.527344 355.804688 233.292969 355.738281 233.054688 C 355.707031 232.960938 355.554688 232.980469 355.558594 233.082031 C 354.65625 231.757812 353.875 230.441406 353.308594 228.898438 C 352.695312 227.230469 352.292969 225.484375 351.957031 223.742188 C 351.808594 222.960938 351.71875 222.183594 351.644531 221.402344 C 352.332031 224.269531 353.910156 226.910156 355.21875 229.578125 C 356.449219 231.945312 357.421875 234.683594 357.210938 237.316406 Z M 404.625 224.203125 C 403.90625 224.410156 402.894531 225.0625 402.40625 225.285156 C 400.570312 226.097656 398.636719 226.503906 396.703125 226.824219 C 396.207031 226.925781 395.664062 226.984375 395.171875 227.085938 C 395.863281 227.703125 396.867188 228.085938 397.601562 228.613281 C 398.472656 229.234375 399.019531 230.179688 399.324219 231.210938 C 399.320312 231.214844 399.316406 231.21875 399.3125 231.222656 C 397.140625 232.664062 394.699219 233.597656 392.398438 234.792969 C 388.015625 237.078125 385.050781 240.816406 382.8125 245.140625 C 382.699219 245.359375 383.011719 245.527344 383.144531 245.324219 C 384.527344 243.152344 386.164062 241.070312 388.046875 239.308594 C 390.050781 237.4375 392.355469 236.230469 394.863281 235.171875 C 396.464844 234.496094 398.089844 233.816406 399.59375 232.933594 C 399.59375 233.09375 399.625 233.25 399.617188 233.40625 C 399.476562 235.175781 398.660156 236.871094 397.746094 238.386719 C 396.351562 240.59375 394.632812 242.535156 392.683594 244.210938 C 394.566406 243.488281 396.402344 242.671875 397.769531 241.238281 C 399.179688 239.847656 399.949219 237.972656 400.722656 236.144531 C 401.632812 233.96875 402.53125 231.808594 403.433594 229.644531 C 403.632812 229.410156 403.835938 229.1875 404.03125 228.945312 C 404.242188 228.6875 404.46875 228.410156 404.683594 228.128906 C 404.253906 229.777344 404.453125 231.597656 404.566406 233.277344 C 404.675781 234.921875 404.835938 236.660156 405.332031 238.238281 C 405.816406 239.792969 406.597656 241.230469 407.238281 242.722656 C 407.839844 244.136719 408.359375 245.578125 409.332031 246.796875 C 409.515625 247.027344 409.90625 246.804688 409.730469 246.550781 C 408.820312 245.246094 408.390625 243.707031 407.8125 242.242188 C 407.257812 240.828125 406.578125 239.453125 406.230469 237.964844 C 405.84375 236.320312 405.898438 234.574219 405.878906 232.894531 C 405.867188 232.117188 405.898438 231.316406 405.886719 230.523438 C 407.230469 233.53125 408.757812 236.492188 409.53125 239.691406 C 410.335938 243.109375 410.238281 246.6875 411.226562 250.0625 C 411.273438 250.148438 411.273438 250.285156 411.324219 250.421875 C 411.5 250.28125 411.585938 250.050781 411.671875 249.867188 C 411.839844 249.277344 411.824219 248.644531 411.855469 248.054688 C 411.941406 245.925781 412.523438 243.828125 412.96875 241.734375 C 413.417969 239.597656 413.679688 237.417969 413.132812 235.347656 C 412.085938 231.164062 408.128906 228.316406 406.722656 224.277344 C 406.21875 222.921875 405.242188 223.066406 404.625 224.203125 Z M 404.625 224.203125 " fill-opacity="1" fill-rule="nonzero"/></g></g></g></g></svg>