<svg xmlns="http://www.w3.org/2000/svg" xmlns:xlink="http://www.w3.org/1999/xlink" width="500" zoomAndPan="magnify" viewBox="0 0 375 374.999991" height="500" preserveAspectRatio="xMidYMid meet" version="1.0"><defs><clipPath id="b21a940e88"><path d="M 0 58 L 240 58 L 240 302 L 0 302 Z M 0 58 " clip-rule="nonzero"/></clipPath><clipPath id="82bd499f56"><path d="M 263.488281 283.742188 L -61.472656 404.007812 L -188.765625 60.058594 L 136.191406 -60.207031 Z M 263.488281 283.742188 " clip-rule="nonzero"/></clipPath><clipPath id="107b178c6c"><path d="M 263.488281 283.742188 L 1.832031 380.578125 L -122.339844 45.070312 L 139.316406 -51.769531 Z M 263.488281 283.742188 " clip-rule="nonzero"/></clipPath><clipPath id="75c194630d"><path d="M 263.488281 283.742188 L -61.472656 404.007812 L -188.765625 60.058594 L 136.191406 -60.207031 Z M 263.488281 283.742188 " clip-rule="nonzero"/></clipPath><clipPath id="1eac1915a4"><path d="M 0 58 L 207 58 L 207 268 L 0 268 Z M 0 58 " clip-rule="nonzero"/></clipPath><clipPath id="5bf3f49202"><path d="M 263.488281 283.742188 L -61.472656 404.007812 L -188.765625 60.058594 L 136.191406 -60.207031 Z M 263.488281 283.742188 " clip-rule="nonzero"/></clipPath><clipPath id="25f1711fd1"><path d="M 263.488281 283.742188 L 1.832031 380.578125 L -122.339844 45.070312 L 139.316406 -51.769531 Z M 263.488281 283.742188 " clip-rule="nonzero"/></clipPath><clipPath id="7096c5b93b"><path d="M 263.488281 283.742188 L -61.472656 404.007812 L -188.765625 60.058594 L 136.191406 -60.207031 Z M 263.488281 283.742188 " clip-rule="nonzero"/></clipPath><clipPath id="d56a187d0a"><path d="M 0 47 L 258 47 L 258 323 L 0 323 Z M 0 47 " clip-rule="nonzero"/></clipPath><clipPath id="1479817c89"><path d="M 263.488281 283.742188 L -61.472656 404.007812 L -188.765625 60.058594 L 136.191406 -60.207031 Z M 263.488281 283.742188 " clip-rule="nonzero"/></clipPath><clipPath id="fb6b1111cd"><path d="M 263.488281 283.742188 L 1.832031 380.578125 L -122.339844 45.070312 L 139.316406 -51.769531 Z M 263.488281 283.742188 " clip-rule="nonzero"/></clipPath><clipPath id="5e96a7176f"><path d="M 263.488281 283.742188 L -61.472656 404.007812 L -188.765625 60.058594 L 136.191406 -60.207031 Z M 263.488281 283.742188 " clip-rule="nonzero"/></clipPath><clipPath id="7f2593c8c3"><path d="M 0 47 L 255 47 L 255 320 L 0 320 Z M 0 47 " clip-rule="nonzero"/></clipPath><clipPath id="6e0655705d"><path d="M 263.488281 283.742188 L -61.472656 404.007812 L -188.765625 60.058594 L 136.191406 -60.207031 Z M 263.488281 283.742188 " clip-rule="nonzero"/></clipPath><clipPath id="68a5fe3b6b"><path d="M 263.488281 283.742188 L 1.832031 380.578125 L -122.339844 45.070312 L 139.316406 -51.769531 Z M 263.488281 283.742188 " clip-rule="nonzero"/></clipPath><clipPath id="117a76471c"><path d="M 263.488281 283.742188 L -61.472656 404.007812 L -188.765625 60.058594 L 136.191406 -60.207031 Z M 263.488281 283.742188 " clip-rule="nonzero"/></clipPath></defs><g clip-path="url(#b21a940e88)"><g clip-path="url(#82bd499f56)"><g clip-path="url(#107b178c6c)"><g clip-path="url(#75c194630d)"><path fill="#a47052" d="M -183.878906 66.390625 C -181.496094 66.183594 -179.117188 67.519531 -177.136719 68.570312 C -174.136719 70.15625 -171.269531 72.035156 -168.339844 73.699219 C -162.289062 77.144531 -155.691406 78.800781 -149.175781 81.015625 C -141.996094 83.46875 -135.515625 86.515625 -129.492188 91.175781 C -122.195312 96.8125 -114.882812 102.492188 -107.65625 108.203125 C -104.054688 111.015625 -100.542969 113.859375 -96.988281 116.6875 C -95.144531 118.800781 -93.386719 120.945312 -91.695312 123.164062 C -85.902344 130.996094 -81.21875 139.867188 -77.03125 148.578125 C -68.800781 165.726562 -65.691406 185.347656 -53.773438 200.597656 C -47.546875 208.558594 -39 214.3125 -32.589844 222.109375 C -31.769531 223.152344 -30.117188 222.011719 -30.882812 220.851562 C -32.640625 218.320312 -34.519531 215.980469 -36.484375 213.671875 L -36.5 213.628906 C -40.25 209.230469 -44.265625 205.03125 -47.75 200.441406 C -53.417969 192.949219 -56.449219 183.851562 -59.367188 175.054688 C -60.875 170.457031 -62.257812 165.8125 -63.976562 161.292969 C -65.808594 156.472656 -68.285156 151.996094 -70.570312 147.394531 C -73.28125 141.890625 -76.183594 136.265625 -79.320312 130.921875 L -79.335938 130.878906 C -79.367188 130.792969 -79.457031 130.683594 -79.488281 130.597656 C -75.183594 134.015625 -70.933594 137.40625 -66.5625 140.753906 C -53.613281 150.707031 -39.9375 159.238281 -25.585938 166.984375 C -22.144531 168.84375 -18.683594 170.503906 -15.183594 172.148438 C -11.652344 173.730469 -8.3125 175.582031 -4.839844 177.140625 C 2.433594 180.375 10.632812 180.617188 18.316406 182.351562 C 19.589844 182.652344 20.867188 182.851562 22.121094 183.113281 C 24.558594 185.003906 26.945312 187.015625 29.105469 189.203125 C 32.40625 192.511719 35.121094 196.324219 38.058594 199.960938 C 40.636719 203.152344 43.285156 206.265625 46.105469 209.320312 L 46.121094 209.363281 C 46.804688 210.167969 47.589844 210.988281 48.316406 211.777344 C 48.316406 211.777344 48.332031 211.820312 48.347656 211.863281 C 50.972656 219.085938 52.496094 226.714844 53.484375 234.347656 C 54.574219 242.765625 53.339844 251.027344 53.511719 259.445312 C 53.566406 262.078125 53.808594 264.6875 54.136719 267.261719 C 54.957031 273.65625 56.378906 279.976562 57 286.347656 C 57.097656 287.515625 58.824219 287.359375 58.785156 286.21875 C 58.332031 276.648438 56.121094 267.15625 56.753906 257.523438 C 57.347656 248.820312 59.097656 240.511719 58.226562 231.773438 C 57.78125 227.699219 57.089844 223.617188 56.042969 219.617188 C 62.421875 225.640625 69.066406 231.472656 74.125 238.613281 C 81.121094 248.648438 84.621094 260.847656 90.617188 271.449219 C 96.832031 282.496094 107.273438 290.246094 113.597656 301.207031 C 113.976562 301.839844 115.117188 301.273438 114.765625 300.582031 C 109.59375 290.257812 100.867188 282.449219 94.898438 272.707031 C 92.554688 268.851562 90.515625 264.785156 88.636719 260.613281 C 85.019531 252.796875 81.964844 244.675781 78.167969 237.019531 C 75.46875 231.558594 72.238281 226.347656 68.222656 221.761719 C 64.136719 217.105469 59.367188 213.085938 55.085938 208.550781 C 52.371094 205.652344 49.78125 202.5625 47.246094 199.5 C 47.035156 199.191406 46.882812 198.910156 46.671875 198.605469 C 45.28125 196.660156 43.289062 194.023438 41.117188 192.324219 C 39.09375 189.988281 37.003906 187.726562 34.800781 185.554688 C 35.316406 185.648438 35.792969 185.761719 36.296875 185.816406 L 36.339844 185.800781 C 38.929688 186.289062 41.507812 186.730469 44.085938 187.175781 C 51.773438 188.523438 59.371094 190.144531 67.109375 191.234375 C 83.601562 193.5625 100.351562 191.75 116.835938 194.179688 C 120.761719 194.75 124.566406 195.894531 128.453125 196.625 C 132.269531 197.285156 136.085938 197.558594 139.859375 198.238281 C 147.605469 199.609375 154.136719 203.3125 160.648438 207.601562 C 167.289062 211.988281 173.34375 217.792969 180.679688 221.054688 C 183.976562 222.535156 187.429688 222.992188 190.984375 223.601562 C 193.101562 223.976562 194.976562 224.871094 196.6875 225.976562 C 198.339844 227.4375 199.960938 228.957031 201.367188 230.796875 C 204.113281 234.308594 205.980469 238.4375 207.789062 242.539062 C 209.707031 246.9375 210.585938 251.144531 211.410156 255.851562 C 212.167969 260.246094 213.792969 264.367188 215.5 268.457031 C 215.78125 269.222656 216.882812 268.8125 216.644531 268.035156 C 215.011719 263.097656 213.621094 258.164062 213.195312 252.972656 C 212.828125 248.339844 211.875 243.679688 210.023438 239.449219 C 209.695312 238.703125 209.289062 237.984375 208.9375 237.296875 C 218.523438 247.820312 226.628906 259.808594 238.148438 268.507812 C 238.691406 268.933594 239.4375 268.082031 238.835938 267.628906 C 227.8125 258.839844 219.929688 247.058594 210.816406 236.503906 C 209.625 235.113281 208.390625 233.738281 207.132812 232.421875 C 205.175781 230.398438 203.25 228.316406 201.144531 226.542969 C 201.128906 226.5 201.085938 226.515625 201.070312 226.472656 C 199.582031 225.191406 197.984375 224 196.320312 223.027344 C 196.113281 222.863281 195.867188 222.710938 195.617188 222.5625 C 194.058594 221.742188 192.449219 221.039062 190.6875 220.582031 C 187.003906 219.628906 183.476562 218.960938 180.230469 216.835938 C 177.039062 214.738281 174.304688 212.042969 171.308594 209.679688 C 166.371094 205.726562 160.964844 201.941406 155.339844 198.867188 C 155.980469 198.777344 156.621094 198.683594 157.21875 198.605469 C 158.234375 198.472656 159.234375 198.4375 160.222656 198.507812 C 164.738281 198.714844 169.351562 198.789062 173.808594 199.359375 C 177.359375 199.828125 180.570312 199.890625 184.046875 198.992188 C 187.9375 198.03125 191.695312 196.0625 195.820312 196.125 C 200.273438 196.164062 204.347656 198.175781 207.964844 200.644531 C 208.855469 201.230469 209.90625 200.023438 209.023438 199.335938 C 208.070312 198.582031 207.070312 197.84375 206.089844 197.144531 C 206.046875 197.160156 206.03125 197.117188 206.03125 197.117188 C 201.65625 194.160156 196.621094 192.023438 191.25 192.375 C 187.460938 192.570312 184.015625 194.472656 180.265625 194.898438 C 176 195.367188 171.523438 194.226562 167.222656 194.082031 C 162.882812 193.957031 158.738281 193.707031 154.449219 194.378906 C 152.441406 194.6875 150.363281 195.070312 148.347656 194.710938 C 146.390625 194.371094 144.539062 193.417969 142.683594 192.707031 C 141.179688 192.15625 139.730469 191.632812 138.136719 191.5 C 135.972656 191.386719 134.015625 191.964844 131.863281 191.363281 C 128.0625 190.359375 124.722656 189.285156 120.722656 189.03125 C 116.992188 188.867188 113.492188 189.054688 109.894531 189.375 C 108.84375 189.136719 107.847656 188.925781 106.824219 188.773438 C 98.507812 187.417969 90.183594 187.222656 81.839844 186.457031 C 73.757812 185.734375 65.941406 183.90625 58.046875 182.007812 C 57.355469 181.832031 56.621094 181.667969 55.925781 181.492188 C 55.882812 181.507812 55.839844 181.523438 55.769531 181.453125 C 53.171875 180.824219 50.503906 180.269531 47.863281 179.65625 C 47.820312 179.671875 47.78125 179.6875 47.765625 179.644531 C 42.933594 178.589844 38.078125 177.59375 33.222656 176.59375 C 25.003906 174.863281 16.734375 172.335938 8.363281 171.625 C 4.632812 171.320312 0.855469 171.414062 -2.84375 170.808594 C -7.085938 170.164062 -10.972656 168.660156 -14.867188 166.875 C -29.71875 159.984375 -42.910156 150.023438 -55.53125 139.660156 C -69.085938 128.578125 -82.117188 116.96875 -95.816406 106.039062 C -100.738281 102.125 -105.726562 98.285156 -110.71875 94.445312 C -110.160156 94.527344 -109.597656 94.609375 -109.039062 94.691406 C -108.578125 94.761719 -108.160156 94.847656 -107.714844 94.875 C -103.960938 95.367188 -100.304688 95.988281 -96.53125 95.894531 C -88.464844 95.652344 -80.480469 95.0625 -72.421875 94.535156 C -64.835938 94.042969 -57.125 93.886719 -49.578125 94.855469 C -41.773438 95.867188 -34.507812 98.675781 -26.828125 100.265625 C -24.003906 100.855469 -21.097656 101.277344 -18.191406 101.695312 C -15.949219 103.324219 -13.070312 104.1875 -10.496094 105.015625 C -6.386719 106.339844 -2.0625 106.8125 1.90625 108.667969 C 6.859375 110.976562 11.625 113.550781 16.824219 115.339844 C 21.976562 117.140625 27.375 117.648438 32.554688 119.25 C 42.761719 122.316406 51.785156 128.710938 60 135.261719 C 63.703125 138.230469 67.335938 141.269531 71.53125 143.476562 C 75.769531 145.667969 80.417969 146.886719 84.835938 148.527344 C 93.96875 151.945312 104.433594 155.972656 114.277344 153.632812 C 115.214844 153.429688 114.890625 151.765625 113.894531 151.941406 C 104.671875 153.621094 94.761719 149.527344 86.378906 146.175781 C 84.957031 145.589844 83.476562 144.984375 82.066406 144.300781 C 79.351562 143.089844 76.65625 141.675781 74.25 139.867188 C 70.566406 137.085938 67.25 133.734375 63.828125 130.617188 C 56.480469 123.792969 47.785156 117.902344 38.445312 114.179688 C 33.6875 112.277344 28.796875 111.582031 23.933594 110.296875 C 18.792969 108.921875 14.003906 106.550781 9.007812 104.785156 C 7.894531 104.378906 6.734375 103.988281 5.652344 103.667969 C 6.09375 103.695312 6.582031 103.707031 7.027344 103.734375 C 11.859375 104.019531 16.75 104.183594 21.507812 104.011719 C 29.5625 103.734375 36.820312 100.660156 44.027344 97.320312 C 51.320312 93.945312 58.261719 90.796875 66.378906 89.914062 C 83.007812 88.046875 99.496094 93.609375 114.578125 100.074219 C 115.375 100.40625 115.9375 99.1875 115.125 98.8125 C 107.457031 95.046875 99.5625 91.703125 91.316406 89.503906 C 91.273438 89.519531 91.257812 89.476562 91.257812 89.476562 C 85.582031 87.960938 79.769531 86.980469 73.847656 86.761719 C 66.46875 86.507812 59.261719 87.632812 52.273438 89.878906 C 44.511719 92.367188 36.847656 95.78125 28.730469 97.050781 C 20.410156 98.300781 11.824219 97.140625 3.433594 96.632812 C -4.699219 96.171875 -12.902344 95.640625 -20.875 93.917969 C -28.90625 92.167969 -36.355469 88.464844 -44.394531 86.960938 C -46.367188 86.582031 -48.367188 86.261719 -50.378906 86.042969 C -49.609375 85.902344 -48.800781 85.746094 -48.03125 85.605469 C -43.890625 84.796875 -39.820312 83.675781 -35.992188 82.019531 C -30.007812 79.417969 -25.960938 74.449219 -20.742188 70.6875 C -15.0625 66.609375 -7.90625 64.683594 -1.523438 61.984375 C -0.0976562 61.40625 -0.867188 59.332031 -2.339844 59.78125 C -2.949219 59.957031 -3.558594 60.136719 -4.167969 60.3125 C -10.351562 62.117188 -16.839844 63.363281 -22.558594 66.300781 C -25.320312 67.707031 -27.730469 69.660156 -30.308594 71.433594 C -33.136719 73.441406 -36.011719 74.796875 -39.296875 75.964844 C -45.625 78.160156 -52.289062 78.796875 -58.667969 80.722656 C -61.617188 81.621094 -64.523438 82.890625 -67.253906 84.382812 C -67.984375 84.75 -68.832031 85.207031 -69.660156 85.707031 C -78.171875 86.304688 -86.5625 88.011719 -95.097656 88.808594 C -99.351562 89.179688 -103.308594 89.4375 -107.585938 89.09375 C -110.671875 88.839844 -113.90625 88.832031 -116.960938 89.574219 C -118.105469 88.699219 -119.210938 87.804688 -120.296875 86.953125 C -127.710938 81.265625 -134.875 76.636719 -143.734375 73.554688 C -151.046875 71.007812 -158.503906 69.238281 -165.34375 65.363281 C -170.785156 62.265625 -177.871094 57.851562 -184.484375 59.144531 C -187.175781 59.707031 -188.117188 62.367188 -187.398438 64.316406 C -186.925781 65.589844 -185.75 66.550781 -183.878906 66.390625 Z M -183.878906 66.390625 " fill-opacity="1" fill-rule="nonzero"/></g></g></g></g><g clip-path="url(#1eac1915a4)"><g clip-path="url(#5bf3f49202)"><g clip-path="url(#25f1711fd1)"><g clip-path="url(#7096c5b93b)"><path fill="#7f4c38" d="M 109.894531 189.375 C 108.84375 189.136719 107.847656 188.925781 106.824219 188.773438 C 98.507812 187.417969 90.183594 187.222656 81.839844 186.457031 C 73.757812 185.734375 65.941406 183.90625 58.046875 182.007812 C 57.355469 181.832031 56.621094 181.667969 55.925781 181.492188 C 55.882812 181.507812 55.839844 181.523438 55.769531 181.453125 C 53.308594 181.0625 50.84375 180.53125 48.414062 179.839844 C 48.257812 179.800781 48.039062 179.738281 47.863281 179.65625 C 47.820312 179.671875 47.78125 179.6875 47.765625 179.644531 C 42.933594 178.589844 38.078125 177.59375 33.222656 176.59375 C 25.003906 174.863281 16.734375 172.335938 8.363281 171.625 C 4.632812 171.320312 0.855469 171.414062 -2.84375 170.808594 C -7.085938 170.164062 -10.972656 168.660156 -14.867188 166.875 C -29.71875 159.984375 -42.910156 150.023438 -55.53125 139.660156 C -69.085938 128.578125 -82.117188 116.96875 -95.816406 106.039062 C -100.738281 102.125 -105.726562 98.285156 -110.71875 94.445312 C -110.160156 94.527344 -109.597656 94.609375 -109.039062 94.691406 C -110.027344 94.238281 -111.863281 93.570312 -112.566406 94.40625 C -112.707031 94.554688 -112.6875 94.738281 -112.597656 94.851562 C -112.308594 95.371094 -111.53125 95.515625 -111.007812 95.757812 C -110.394531 96.109375 -109.808594 96.519531 -109.292969 97 C -108.730469 97.46875 -108.242188 98.011719 -107.796875 98.566406 C -107.257812 99.238281 -106.625 99.773438 -106.0625 100.382812 C -104.878906 101.59375 -103.660156 102.660156 -102.429688 103.757812 C -104.753906 102.691406 -107.105469 101.6875 -109.300781 100.335938 C -109.445312 100.246094 -109.582031 100.476562 -109.457031 100.578125 C -107.039062 102.53125 -104.121094 103.703125 -101.46875 105.292969 C -99.832031 106.269531 -98.328125 107.230469 -97.148438 108.757812 C -96.171875 110.019531 -95.21875 111.261719 -94.113281 112.414062 C -91.957031 114.652344 -89.632812 116.757812 -86.894531 118.25 C -85.339844 119.097656 -84.042969 119.980469 -82.816406 121.253906 C -81.59375 122.519531 -80.152344 123.726562 -79.175781 125.1875 C -79.019531 125.417969 -78.601562 125.207031 -78.734375 124.953125 C -79.425781 123.617188 -80.449219 122.582031 -81.394531 121.429688 C -82.363281 120.242188 -83.316406 119.074219 -84.519531 118.117188 C -85.832031 117.066406 -87.339844 116.296875 -88.644531 115.242188 C -90.042969 114.105469 -91.359375 112.84375 -92.664062 111.601562 C -92.761719 111.507812 -92.847656 111.40625 -92.941406 111.3125 C -89.214844 114.09375 -84.890625 116.09375 -81.636719 119.441406 C -80.15625 120.964844 -78.777344 122.480469 -77.128906 123.796875 C -75.574219 125.003906 -73.976562 126.195312 -72.625 127.625 C -72.429688 127.890625 -72.238281 128.15625 -72.027344 128.460938 C -71.605469 129.078125 -71.140625 129.679688 -70.695312 130.234375 C -70.214844 130.957031 -69.6875 131.609375 -69.101562 132.21875 C -69.371094 132.019531 -69.652344 131.835938 -69.914062 131.632812 C -71.359375 130.511719 -72.597656 129.144531 -74.15625 128.171875 C -74.464844 127.980469 -74.792969 128.503906 -74.496094 128.714844 C -73.023438 129.761719 -71.882812 131.195312 -70.542969 132.402344 C -68.914062 133.867188 -67.113281 135.171875 -65.367188 136.496094 C -64.828125 136.90625 -64.265625 137.269531 -63.707031 137.640625 C -61.804688 139.425781 -59.792969 141.0625 -57.445312 142.4375 C -56.789062 142.816406 -56.164062 143.246094 -55.519531 143.640625 C -54.28125 144.882812 -53.039062 146.125 -51.714844 147.273438 C -50.277344 148.515625 -48.621094 149.335938 -47.089844 150.433594 C -45.4375 151.613281 -44.167969 153.214844 -42.632812 154.527344 C -41.160156 155.789062 -39.527344 156.851562 -38.078125 158.140625 C -37.960938 158.246094 -37.792969 158.082031 -37.878906 157.957031 C -38.910156 156.476562 -40.328125 155.523438 -41.675781 154.355469 C -43.207031 153.023438 -44.371094 151.324219 -45.898438 149.996094 C -47.230469 148.835938 -48.8125 148.011719 -50.222656 146.949219 C -48.304688 148.183594 -46.390625 149.417969 -44.414062 150.53125 C -42.300781 151.675781 -40.105469 152.648438 -38.144531 154.042969 C -36.371094 155.3125 -34.761719 156.792969 -32.945312 158.046875 C -31.203125 159.234375 -29.488281 160.476562 -27.652344 161.53125 C -26.804688 161.992188 -25.988281 162.507812 -25.074219 162.890625 C -23.03125 165.800781 -19.105469 167.285156 -16.144531 168.890625 C -12.386719 170.96875 -9.148438 173.191406 -4.777344 173.789062 C -0.449219 174.40625 3.789062 173.605469 8.140625 173.492188 C 10.300781 173.464844 12.332031 173.867188 14.414062 174.542969 C 14.734375 174.617188 15.066406 174.734375 15.382812 174.8125 C 15.402344 174.890625 15.445312 174.953125 15.472656 175.023438 C 14.96875 174.964844 14.496094 174.824219 13.96875 174.808594 C 10.820312 174.710938 7.785156 175.816406 4.613281 175.800781 C 4.28125 175.800781 4.335938 176.300781 4.65625 176.3125 C 7.613281 176.402344 10.554688 175.847656 13.496094 175.988281 C 16.726562 176.140625 19.527344 177.109375 22.519531 178.230469 C 25.128906 179.203125 27.976562 179.6875 30.707031 180.175781 C 33.328125 180.640625 35.988281 180.769531 38.589844 181.285156 C 38.730469 181.3125 38.789062 181.109375 38.664062 181.050781 C 37.613281 180.5625 36.445312 180.425781 35.304688 180.285156 C 33.871094 180.101562 32.507812 179.734375 31.097656 179.429688 C 29.03125 178.980469 26.96875 178.457031 24.9375 177.828125 C 25.480469 177.929688 26.015625 178.050781 26.558594 178.144531 C 30.230469 178.808594 34 178.957031 37.53125 180.15625 C 44.058594 182.414062 50.4375 184.390625 57.285156 185.421875 C 64.046875 186.488281 70.835938 186.960938 77.691406 186.980469 C 81.457031 187.019531 84.921875 187.667969 88.582031 188.34375 C 85.390625 188.171875 82.195312 188.113281 79.109375 188.546875 C 78.871094 188.578125 78.898438 188.933594 79.140625 188.914062 C 82.246094 188.65625 85.417969 189.132812 88.511719 189.417969 C 91.167969 189.664062 93.839844 189.71875 96.496094 189.949219 C 99.03125 190.171875 101.542969 190.328125 104.085938 190.386719 C 107.050781 190.453125 109.910156 191.078125 112.839844 191.421875 C 115.058594 191.679688 117.324219 191.4375 119.523438 191.78125 C 121.765625 192.136719 123.761719 193.289062 126.015625 193.59375 C 128.328125 193.90625 130.695312 193.605469 132.996094 194.03125 C 135.722656 194.535156 138.363281 195.679688 141.039062 196.410156 C 141.324219 196.488281 141.386719 196.050781 141.117188 195.96875 C 138.675781 195.214844 136.304688 194.132812 133.832031 193.480469 C 135.148438 193.585938 136.46875 193.65625 137.753906 193.859375 C 139.753906 194.179688 141.636719 194.832031 143.59375 195.167969 C 145.671875 196.085938 147.769531 196.800781 150.136719 196.9375 C 157.441406 197.511719 164.808594 195.121094 172.121094 196.367188 C 174.941406 196.816406 177.796875 197.351562 180.648438 197.113281 C 181.257812 197.054688 181.832031 196.902344 182.40625 196.757812 C 182.847656 196.726562 183.296875 196.691406 183.71875 196.675781 C 185.136719 196.613281 186.550781 196.640625 187.933594 196.285156 C 189.484375 195.886719 190.886719 195.078125 192.476562 194.816406 C 193.925781 194.578125 195.398438 194.859375 196.839844 194.558594 C 197.109375 194.503906 197.089844 194.117188 196.804688 194.128906 C 195.390625 194.1875 193.984375 193.910156 192.570312 194.054688 C 191.015625 194.214844 189.601562 194.738281 188.105469 195.136719 C 187.445312 195.308594 186.777344 195.375 186.109375 195.410156 C 187.339844 194.851562 188.558594 194.257812 189.832031 193.765625 C 193.808594 192.246094 197.433594 193.3125 201.179688 194.960938 C 202.691406 195.65625 204.246094 196.332031 205.757812 197.027344 C 205.875 197.082031 205.933594 197.109375 206.03125 197.117188 C 201.65625 194.160156 196.621094 192.023438 191.25 192.375 C 187.460938 192.570312 184.015625 194.472656 180.265625 194.894531 C 176 195.367188 171.523438 194.226562 167.222656 194.082031 C 162.882812 193.957031 158.738281 193.707031 154.449219 194.378906 C 152.441406 194.6875 150.363281 195.070312 148.347656 194.710938 C 146.390625 194.371094 144.539062 193.417969 142.683594 192.707031 C 141.179688 192.15625 139.730469 191.632812 138.136719 191.5 C 135.972656 191.386719 134.015625 191.964844 131.863281 191.363281 C 128.0625 190.359375 124.722656 189.285156 120.71875 189.03125 C 116.992188 188.867188 113.492188 189.054688 109.894531 189.375 Z M 125.675781 191.339844 C 127.578125 191.605469 129.035156 192.558594 130.828125 193.035156 C 129.277344 192.945312 127.714844 192.949219 126.1875 192.621094 C 124.589844 192.277344 123.089844 191.644531 121.550781 191.132812 C 122.925781 191.125 124.300781 191.152344 125.675781 191.339844 Z M -187.398438 64.316406 C -188.117188 62.367188 -187.175781 59.707031 -184.484375 59.144531 C -177.871094 57.851562 -170.785156 62.265625 -165.34375 65.363281 C -158.503906 69.238281 -151.046875 71.011719 -143.734375 73.554688 C -134.875 76.640625 -127.710938 81.265625 -120.296875 86.953125 C -119.210938 87.804688 -118.105469 88.699219 -116.960938 89.574219 C -113.90625 88.832031 -110.671875 88.839844 -107.585938 89.09375 C -103.308594 89.4375 -99.351562 89.179688 -95.097656 88.808594 C -86.5625 88.011719 -78.171875 86.304688 -69.660156 85.707031 C -68.832031 85.207031 -67.984375 84.75 -67.253906 84.382812 C -64.523438 82.890625 -61.617188 81.621094 -58.667969 80.722656 C -52.289062 78.796875 -45.625 78.160156 -39.296875 75.964844 C -36.011719 74.796875 -33.136719 73.441406 -30.308594 71.433594 C -27.730469 69.660156 -25.320312 67.707031 -22.558594 66.300781 C -16.839844 63.363281 -10.351562 62.121094 -4.167969 60.3125 C -10.132812 64.015625 -17.613281 64.277344 -23.726562 67.839844 C -26.660156 69.550781 -29.636719 71.8125 -32.257812 73.984375 C -34.777344 76.171875 -36.679688 78.464844 -39.9375 79.574219 C -43.167969 80.625 -46.535156 80.90625 -49.878906 81.132812 C -53.777344 81.421875 -57.226562 82.40625 -60.535156 84.546875 C -62.101562 85.578125 -63.679688 86.796875 -65.4375 87.523438 C -64.367188 87.707031 -63.308594 87.753906 -62.1875 87.753906 C -61.910156 87.753906 -61.863281 88.164062 -62.152344 88.191406 C -63.300781 88.304688 -64.433594 88.617188 -65.59375 88.558594 C -66.957031 88.492188 -68.269531 88.320312 -69.640625 88.386719 C -72.191406 88.511719 -74.71875 89.136719 -77.21875 89.632812 C -79.929688 90.167969 -82.628906 90.515625 -85.351562 90.953125 C -86.644531 91.164062 -87.800781 91.351562 -89.113281 91.277344 C -90.332031 91.210938 -91.589844 91.433594 -92.789062 91.152344 C -92.949219 91.113281 -92.945312 90.882812 -92.777344 90.863281 C -91.507812 90.726562 -90.3125 90.273438 -89.058594 90.117188 C -87.761719 89.960938 -86.484375 89.867188 -85.183594 89.664062 C -84.800781 89.605469 -84.421875 89.546875 -84.039062 89.488281 C -87.15625 89.695312 -90.210938 89.582031 -93.402344 89.480469 C -97.507812 89.347656 -101.335938 90.199219 -105.324219 90.910156 C -104.785156 90.9375 -104.25 90.996094 -103.707031 91.019531 C -101.667969 91.109375 -99.617188 90.867188 -97.585938 91.128906 C -97.355469 91.160156 -97.371094 91.542969 -97.605469 91.539062 C -99.6875 91.507812 -101.738281 91.980469 -103.820312 92.046875 C -105.753906 92.109375 -107.660156 92.085938 -109.589844 91.949219 C -111.761719 91.800781 -113.929688 91.601562 -116.109375 91.601562 C -117 91.597656 -117.894531 91.632812 -118.785156 91.589844 C -119.730469 91.539062 -120.652344 91.355469 -121.597656 91.335938 C -121.972656 91.328125 -122.085938 90.859375 -121.738281 90.695312 C -121.257812 90.472656 -120.746094 90.425781 -120.230469 90.414062 C -120.714844 90.171875 -121.207031 89.875 -121.714844 89.503906 C -122.773438 88.738281 -123.648438 87.808594 -124.644531 87.070312 C -126.054688 86 -127.707031 85.3125 -129.144531 84.300781 C -132.289062 82.1875 -135.632812 80.582031 -139.089844 79.066406 C -142.722656 77.46875 -146.351562 75.488281 -150.136719 74.382812 C -151.964844 73.867188 -153.839844 73.597656 -155.691406 73.269531 C -154.433594 74.0625 -153.195312 74.902344 -151.796875 75.433594 C -150.179688 76.046875 -148.433594 76.234375 -146.824219 76.871094 C -143.386719 78.230469 -140.371094 80.980469 -137.480469 83.214844 C -137.242188 83.398438 -137.53125 83.738281 -137.773438 83.570312 C -140.84375 81.433594 -144.398438 78.800781 -148.132812 78.050781 C -149.617188 77.753906 -151.113281 77.570312 -152.535156 77.039062 C -154.007812 76.492188 -155.320312 75.628906 -156.621094 74.769531 C -158.1875 73.730469 -159.660156 72.671875 -161.507812 72.191406 C -163.226562 71.746094 -165.011719 71.597656 -166.726562 71.125 C -167.984375 70.777344 -169.121094 70.160156 -170.246094 69.511719 C -171.722656 68.664062 -173.082031 68.203125 -174.746094 67.859375 C -174.996094 67.804688 -174.953125 67.484375 -174.726562 67.4375 C -171.734375 66.839844 -168.851562 69.386719 -166.019531 69.953125 C -165.457031 70.066406 -164.890625 70.132812 -164.324219 70.210938 C -165.777344 69.398438 -167.183594 68.492188 -168.582031 67.570312 C -171.636719 65.570312 -174.695312 64.484375 -178.34375 64.003906 C -181.4375 63.605469 -184.367188 64.160156 -187.398438 64.316406 Z M 3.433594 96.632812 C 11.824219 97.140625 20.410156 98.300781 28.730469 97.050781 C 36.847656 95.78125 44.511719 92.367188 52.273438 89.878906 C 59.261719 87.632812 66.46875 86.507812 73.847656 86.761719 C 79.769531 86.980469 85.582031 87.960938 91.257812 89.476562 C 90.785156 89.507812 90.316406 89.535156 89.828125 89.523438 C 85.109375 89.292969 80.738281 87.78125 76.101562 87.375 C 70.402344 86.835938 65.097656 87.109375 59.550781 88.679688 C 54.316406 90.183594 49.234375 91.96875 44.207031 94.023438 C 40.8125 95.449219 37.355469 96.578125 33.835938 97.546875 C 35.746094 97.234375 37.660156 96.933594 39.570312 96.570312 C 43.203125 95.886719 46.382812 94.347656 49.832031 93.136719 C 50.019531 93.070312 50.117188 93.34375 49.9375 93.425781 C 46.605469 94.964844 43.386719 96.691406 39.816406 97.667969 C 36.414062 98.601562 32.855469 99.085938 29.410156 99.839844 C 25.726562 100.644531 22.101562 100.449219 18.398438 100.898438 C 14.933594 101.316406 11.257812 101.453125 7.800781 100.933594 C 7.582031 100.898438 7.597656 100.558594 7.816406 100.546875 C 11.351562 100.386719 14.804688 100.359375 18.296875 99.738281 C 18.609375 99.679688 18.921875 99.679688 19.230469 99.644531 C 17.429688 99.652344 15.617188 99.621094 13.734375 99.566406 C 8.605469 99.390625 3.585938 98.742188 -1.511719 98.269531 C -4.46875 97.964844 -7.386719 97.648438 -10.238281 97.113281 C -12.464844 96.828125 -14.699219 96.789062 -16.9375 96.605469 C -19.363281 96.441406 -21.800781 95.851562 -24.164062 95.472656 C -24.914062 95.351562 -25.6875 95.195312 -26.457031 95.035156 C -24.457031 95.710938 -22.464844 96.414062 -20.453125 97.046875 C -18.828125 97.558594 -17.277344 97.886719 -15.582031 98.046875 C -14.171875 98.175781 -12.816406 98.359375 -11.484375 98.867188 C -11.226562 98.96875 -11.363281 99.394531 -11.628906 99.328125 C -13.304688 98.910156 -15.003906 98.972656 -16.71875 98.886719 C -18.230469 98.808594 -19.621094 98.441406 -21.078125 98.042969 C -24.332031 97.152344 -27.492188 95.953125 -30.757812 95.125 C -34.054688 94.289062 -37.242188 93.171875 -40.53125 92.316406 C -42.085938 91.910156 -43.617188 91.429688 -45.179688 91.070312 C -46.546875 90.753906 -48.082031 90.550781 -49.289062 89.804688 C -49.472656 89.691406 -49.414062 89.371094 -49.171875 89.421875 C -45.941406 90.082031 -42.703125 90.644531 -39.480469 91.375 C -37.820312 91.75 -36.230469 92.324219 -34.59375 92.789062 C -33.277344 93.160156 -31.933594 93.429688 -30.605469 93.761719 C -32.335938 92.941406 -33.835938 91.613281 -35.71875 90.976562 C -38.035156 90.195312 -40.609375 89.75 -43.007812 89.144531 C -45.328125 88.605469 -47.859375 87.761719 -50.222656 87.765625 C -52.140625 87.800781 -54.15625 88.355469 -56.011719 87.644531 C -56.402344 87.5 -56.492188 86.859375 -56.101562 86.617188 C -53.796875 85.28125 -50.847656 85.300781 -48.03125 85.605469 C -48.800781 85.746094 -49.609375 85.902344 -50.378906 86.042969 C -48.367188 86.261719 -46.367188 86.582031 -44.394531 86.960938 C -36.355469 88.464844 -28.90625 92.167969 -20.875 93.917969 C -12.902344 95.640625 -4.699219 96.171875 3.433594 96.632812 Z M 7.027344 103.734375 C 6.582031 103.707031 6.09375 103.695312 5.652344 103.667969 C 6.734375 103.988281 7.894531 104.378906 9.007812 104.785156 C 14.003906 106.550781 18.792969 108.921875 23.933594 110.296875 C 28.796875 111.582031 33.6875 112.277344 38.445312 114.179688 C 47.785156 117.902344 56.480469 123.792969 63.828125 130.617188 C 67.25 133.734375 70.566406 137.085938 74.25 139.867188 C 76.65625 141.675781 79.351562 143.089844 82.066406 144.300781 C 79.476562 143.425781 77.003906 142.222656 74.71875 140.609375 C 69.152344 136.789062 64 132.382812 58.410156 128.621094 C 55.628906 126.710938 52.894531 124.542969 50.035156 122.804688 C 49.5625 122.523438 49.035156 122.363281 48.546875 122.125 C 49.8125 122.800781 51.089844 123.460938 52.238281 124.328125 C 54.050781 125.691406 55.441406 127.613281 57.03125 129.21875 C 58.574219 130.777344 60.082031 132.335938 61.421875 134.074219 C 61.597656 134.296875 61.25 134.53125 61.070312 134.328125 C 59.445312 132.484375 57.601562 130.851562 55.835938 129.144531 C 54.1875 127.550781 52.808594 125.703125 50.765625 124.59375 C 49.132812 123.707031 47.390625 122.875 45.699219 122.105469 C 43.78125 121.230469 42.203125 119.835938 40.148438 119.277344 C 38.183594 118.738281 36.246094 117.921875 34.28125 117.449219 C 32.460938 117.015625 30.722656 116.78125 28.960938 116.113281 C 25.019531 114.625 21.179688 112.910156 17.230469 111.453125 C 17.085938 111.398438 17.167969 111.179688 17.308594 111.203125 C 19.328125 111.5 21.195312 112.378906 23.074219 113.121094 C 25.226562 113.972656 27.453125 114.628906 29.652344 115.335938 C 30.949219 115.753906 32.292969 115.886719 33.625 116.09375 C 33.230469 115.925781 32.851562 115.734375 32.449219 115.578125 C 29.445312 114.378906 26.527344 113.144531 23.742188 111.476562 C 23.492188 111.328125 23.273438 111.121094 23.175781 110.867188 C 22.660156 110.769531 22.140625 110.671875 21.578125 110.589844 C 18.890625 110.234375 16.523438 109.570312 14.039062 108.464844 C 12.757812 107.878906 11.574219 107.546875 10.175781 107.292969 C 9.023438 107.042969 7.683594 106.816406 6.648438 106.234375 C 5.574219 105.671875 4.871094 104.820312 3.632812 104.605469 C 3.183594 104.535156 2.65625 104.4375 2.21875 104.230469 C 2.066406 104.234375 1.914062 104.25 1.757812 104.242188 C 1.265625 104.207031 0.796875 104.085938 0.332031 103.929688 C -0.152344 103.769531 -0.5625 103.488281 -1.023438 103.273438 C -1.921875 102.855469 -2.917969 102.753906 -3.886719 102.589844 C -4.835938 102.429688 -5.777344 102.222656 -6.644531 101.796875 C -6.96875 101.640625 -6.746094 101.160156 -6.414062 101.292969 C -5.421875 101.679688 -4.371094 101.769531 -3.320312 101.859375 C -2.308594 101.953125 -1.332031 102.101562 -0.34375 102.335938 C 0.167969 102.453125 0.675781 102.589844 1.191406 102.695312 C 1.347656 102.726562 1.507812 102.746094 1.667969 102.769531 C 1.691406 102.753906 1.699219 102.71875 1.726562 102.710938 C 2.53125 102.410156 3.753906 102.585938 4.617188 102.699219 C 5.523438 102.796875 6.238281 103.304688 7.027344 103.734375 Z M -47.75 200.441406 C -44.265625 205.03125 -40.25 209.230469 -36.5 213.628906 C -37.339844 212.925781 -38.230469 212.339844 -39.042969 211.582031 C -40.921875 209.769531 -43.0625 208.152344 -44.828125 206.25 C -48.699219 202.046875 -51.664062 197.167969 -54.078125 192.085938 C -55.386719 189.195312 -57.261719 186.613281 -58.613281 183.738281 C -59.964844 180.867188 -61.207031 177.902344 -62.179688 174.890625 C -63.144531 172.019531 -63.8125 169.039062 -64.863281 166.195312 C -65.867188 163.609375 -67.03125 161.285156 -67.59375 158.640625 C -65.832031 166.796875 -65.496094 175.558594 -60.941406 182.683594 C -60.804688 182.890625 -61.105469 183.105469 -61.257812 182.910156 C -63.804688 179.613281 -65.695312 175.214844 -66.695312 171.183594 C -67.863281 166.472656 -68.015625 161.578125 -69.199219 156.863281 C -70.382812 152.152344 -73.164062 148.859375 -75.507812 144.746094 C -77.574219 141.125 -79.351562 137.328125 -81.503906 133.777344 C -81.632812 133.570312 -81.367188 133.273438 -81.171875 133.46875 C -79.871094 134.746094 -79.152344 136.175781 -78.308594 137.765625 C -77.332031 139.601562 -76.039062 141.253906 -75.035156 143.078125 C -74.023438 144.921875 -72.789062 146.660156 -71.644531 148.441406 C -71.808594 148.027344 -71.957031 147.605469 -72.136719 147.203125 C -72.980469 145.441406 -74.296875 144.097656 -75.378906 142.476562 C -76.238281 141.203125 -76.957031 139.78125 -77.617188 138.386719 C -78.472656 136.726562 -79.414062 135.101562 -80.097656 133.378906 C -80.429688 132.480469 -80.847656 131.578125 -81.035156 130.65625 C -81.207031 130.332031 -81.375 130.003906 -81.539062 129.675781 C -82.386719 128 -83.40625 126.378906 -85.039062 125.363281 C -85.316406 125.195312 -85.136719 124.75 -84.820312 124.890625 C -83.03125 125.703125 -81.726562 127.222656 -80.792969 128.917969 C -80.773438 128.953125 -80.761719 128.992188 -80.742188 129.027344 C -80.707031 129.039062 -80.667969 129.015625 -80.640625 129.046875 C -80.050781 129.601562 -79.8125 130.234375 -79.335938 130.878906 L -79.320312 130.921875 C -76.183594 136.265625 -73.28125 141.890625 -70.570312 147.394531 C -68.285156 151.996094 -65.808594 156.472656 -63.976562 161.289062 C -62.257812 165.8125 -60.875 170.457031 -59.367188 175.054688 C -56.449219 183.851562 -53.417969 192.949219 -47.75 200.441406 Z M 78.167969 237.019531 C 81.964844 244.675781 85.019531 252.796875 88.636719 260.617188 C 85.84375 256.589844 83.238281 252.15625 81.503906 247.738281 C 80.332031 244.699219 79.359375 241.542969 78.3125 238.460938 C 77.195312 235.308594 75.664062 233.128906 73.269531 230.832031 C 73.113281 230.679688 72.96875 230.515625 72.8125 230.359375 C 73.753906 232.421875 74.558594 234.546875 75.707031 236.511719 C 75.886719 236.820312 75.460938 237.144531 75.25 236.839844 C 73.398438 234.183594 72.261719 231.160156 70.589844 228.402344 C 70.230469 227.8125 69.816406 227.289062 69.394531 226.773438 C 69.132812 226.484375 68.875 226.191406 68.617188 225.898438 C 67.121094 224.324219 65.378906 223.03125 63.574219 221.699219 C 58.203125 217.726562 53.238281 212.707031 49.175781 207.414062 C 49.058594 207.261719 49.265625 207.082031 49.410156 207.191406 C 52.3125 209.394531 54.710938 212.390625 57.351562 214.90625 C 59.277344 216.742188 61.296875 218.445312 63.390625 220.070312 C 62.484375 219.09375 61.566406 218.125 60.605469 217.207031 C 58.59375 215.300781 56.585938 213.394531 54.828125 211.25 C 53.378906 209.421875 51.398438 207.84375 50.058594 205.929688 C 49.636719 205.699219 49.257812 205.453125 48.835938 205.226562 C 46.207031 203.597656 44.160156 201.460938 42.292969 199.019531 C 40.304688 196.382812 38.851562 193.5 37.140625 190.710938 C 36.433594 189.574219 35.609375 188.53125 34.71875 187.558594 C 34.199219 187.007812 33.585938 186.476562 33.101562 185.875 C 32.921875 185.773438 32.734375 185.6875 32.558594 185.574219 C 31.757812 185.066406 30.929688 184.589844 30.160156 184.035156 C 28.640625 182.945312 26.933594 182.1875 25.300781 181.289062 C 25.042969 181.148438 25.21875 180.753906 25.492188 180.871094 C 27.210938 181.617188 29 182.203125 30.636719 183.128906 C 31.484375 183.613281 32.324219 184.113281 33.164062 184.613281 C 33.203125 184.636719 33.234375 184.667969 33.277344 184.695312 C 34.273438 184.5 35.339844 185.042969 36.296875 185.816406 C 35.792969 185.761719 35.316406 185.648438 34.800781 185.554688 C 37.003906 187.726562 39.09375 189.988281 41.117188 192.324219 C 43.289062 194.023438 45.28125 196.660156 46.675781 198.605469 C 46.882812 198.910156 47.035156 199.191406 47.246094 199.5 C 49.78125 202.5625 52.371094 205.652344 55.085938 208.550781 C 59.367188 213.085938 64.136719 217.105469 68.222656 221.761719 C 72.238281 226.347656 75.46875 231.558594 78.167969 237.019531 Z M 46.121094 209.363281 C 50.273438 211.585938 51.214844 215.957031 52.875 220.308594 C 54.902344 225.535156 55.40625 230.40625 55.785156 236.003906 C 56.1875 241.78125 54.824219 247.347656 54.535156 253.089844 C 54.242188 257.777344 54.527344 262.589844 54.136719 267.265625 C 53.808594 264.6875 53.566406 262.078125 53.511719 259.445312 C 53.339844 251.027344 54.574219 242.765625 53.484375 234.347656 C 52.496094 226.714844 50.972656 219.085938 48.347656 211.863281 C 48.332031 211.820312 48.316406 211.777344 48.316406 211.777344 C 47.589844 210.988281 46.804688 210.167969 46.121094 209.363281 Z M 196.320312 223.027344 C 197.984375 224 199.582031 225.191406 201.070312 226.472656 C 199.226562 225.277344 197.347656 224.238281 195.3125 223.304688 C 192.839844 222.097656 190.546875 220.730469 187.800781 220.347656 C 185.269531 220.03125 182.925781 219.695312 180.574219 218.683594 C 175.449219 216.4375 172.140625 211.925781 167.875 208.492188 C 165.523438 206.570312 162.792969 205.316406 160.140625 203.886719 C 157.984375 202.757812 156.113281 201.085938 153.753906 200.324219 C 153.449219 200.210938 153.332031 199.964844 153.300781 199.703125 C 153.132812 199.65625 152.964844 199.613281 152.796875 199.570312 C 151.613281 199.253906 150.449219 198.910156 149.285156 198.523438 C 148.96875 198.421875 149.144531 197.925781 149.457031 197.980469 C 150.660156 198.203125 151.867188 198.375 153.066406 198.632812 C 153.273438 198.679688 153.476562 198.742188 153.6875 198.789062 C 153.746094 198.742188 153.789062 198.675781 153.859375 198.644531 C 155.097656 198.089844 156.191406 198.167969 157.21875 198.605469 C 156.621094 198.683594 155.980469 198.777344 155.339844 198.867188 C 160.964844 201.941406 166.371094 205.726562 171.308594 209.679688 C 174.304688 212.042969 177.039062 214.738281 180.230469 216.835938 C 183.476562 218.960938 187.003906 219.628906 190.6875 220.582031 C 192.449219 221.039062 194.058594 221.742188 195.617188 222.5625 C 195.867188 222.710938 196.113281 222.863281 196.320312 223.027344 Z M 196.320312 223.027344 " fill-opacity="1" fill-rule="nonzero"/></g></g></g></g><g clip-path="url(#d56a187d0a)"><g clip-path="url(#1479817c89)"><g clip-path="url(#fb6b1111cd)"><g clip-path="url(#5e96a7176f)"><path fill="#5f926a" d="M 256.949219 284.765625 C 257.148438 285.171875 257.292969 285.699219 256.957031 285.964844 C 256.71875 286.101562 256.402344 286.027344 256.128906 285.9375 C 254.1875 285.257812 252.203125 284.59375 250.265625 283.914062 C 248.046875 283.144531 245.734375 282.363281 243.898438 280.921875 C 241.871094 279.355469 240.453125 277.085938 239.402344 274.777344 C 238.910156 273.707031 238.460938 272.621094 238.109375 271.542969 C 237.894531 271.09375 237.722656 270.628906 237.550781 270.160156 C 237.078125 268.890625 236.6875 267.445312 235.808594 266.371094 C 235.617188 266.105469 235.132812 265.851562 235.320312 265.445312 C 235.5625 264.921875 236.601562 265.117188 237.042969 265.144531 C 239.628906 265.34375 242.226562 265.585938 244.742188 266.390625 C 247.359375 267.203125 249.886719 268.679688 251.40625 270.960938 C 251.882812 271.601562 252.25 272.335938 252.535156 273.097656 C 253.152344 274.507812 253.53125 276.054688 253.980469 277.527344 C 254.761719 280.03125 255.757812 282.457031 256.949219 284.765625 Z M 214.742188 264.335938 C 214.65625 265.140625 214.867188 265.976562 214.738281 266.796875 C 214.523438 268.5625 213.933594 270.226562 213.28125 271.867188 C 212.332031 274.386719 211.242188 276.910156 211.113281 279.558594 C 211.0625 281.121094 211.34375 282.65625 211.890625 284.140625 C 212.351562 285.511719 213.007812 286.761719 213.832031 287.953125 C 215.515625 290.414062 217.773438 292.46875 220.066406 294.367188 C 220.316406 294.515625 220.535156 294.722656 220.824219 294.714844 C 221.09375 294.660156 221.34375 294.425781 221.433594 294.148438 C 221.507812 293.832031 221.5 293.546875 221.492188 293.261719 C 221.230469 289.164062 223.105469 285.242188 223.046875 281.167969 C 222.976562 278.109375 221.835938 275.15625 220.386719 272.417969 C 220.371094 272.375 220.371094 272.375 220.371094 272.375 C 220.019531 271.683594 219.609375 270.96875 219.214844 270.296875 C 218.078125 268.261719 216.882812 266.339844 215.675781 264.378906 C 215.28125 263.703125 214.804688 263.589844 214.742188 264.335938 Z M 199.511719 271.035156 C 199.199219 271.488281 198.882812 271.941406 198.527344 272.410156 C 198.03125 273.027344 197.515625 273.847656 197.933594 274.460938 C 198.160156 274.8125 198.59375 274.941406 199.007812 274.882812 C 199.394531 274.886719 199.761719 274.703125 200.140625 274.558594 C 202.371094 273.542969 204.601562 272.523438 206.644531 271.140625 C 208.664062 269.816406 210.484375 268.082031 211.675781 265.953125 C 212.460938 264.554688 212.964844 262.921875 212.984375 261.277344 C 212.980469 261.132812 213 260.933594 212.996094 260.789062 C 212.992188 260.261719 212.992188 259.734375 213.097656 259.113281 C 213.207031 258.496094 213.222656 258.007812 212.875 257.460938 C 212.285156 259.125 210.605469 259.941406 209.003906 260.4375 C 207.386719 260.890625 205.605469 261.164062 204.308594 262.222656 C 202.679688 263.550781 202.089844 265.742188 201.308594 267.671875 C 200.832031 268.859375 200.222656 269.953125 199.511719 271.035156 Z M 206.390625 199.523438 C 207.191406 200.386719 207.863281 201.292969 208.539062 202.199219 C 209.316406 203.261719 210.070312 204.378906 210.890625 205.425781 C 212.847656 207.980469 215.304688 210.441406 218.460938 211.152344 C 221.101562 211.765625 223.871094 211.03125 226.511719 210.34375 C 229.050781 209.644531 231.589844 208.945312 234.1875 208.273438 C 234.484375 208.164062 234.839844 208.082031 234.972656 207.789062 C 235 207.730469 235.054688 207.613281 235.023438 207.53125 C 234.980469 207.160156 234.714844 206.824219 234.433594 206.589844 C 232.945312 205.3125 231.5 204.015625 230.058594 202.71875 C 228.480469 201.324219 226.859375 199.949219 224.929688 199.167969 C 222.21875 198.101562 219.238281 198.386719 216.355469 198.292969 C 215.292969 198.265625 214.226562 198.148438 213.167969 198.03125 C 214.324219 197.722656 215.460938 197.335938 216.539062 196.828125 C 219.738281 195.308594 222.585938 193.097656 225.335938 190.875 C 226.074219 190.265625 226.890625 189.335938 226.433594 188.492188 C 226.160156 188.015625 225.566406 187.847656 225.050781 187.75 L 224.992188 187.726562 C 222.753906 187.15625 220.515625 186.585938 218.195312 186.578125 C 215.863281 186.527344 213.417969 187.09375 211.648438 188.566406 C 209.59375 190.195312 208.535156 192.804688 206.570312 194.542969 C 205.804688 195.210938 204.855469 195.898438 204.800781 196.933594 C 204.78125 197.179688 204.902344 197.40625 204.992188 197.636719 C 205.058594 198.347656 206.035156 199.101562 206.390625 199.523438 Z M 114.160156 298.429688 C 113.808594 298.128906 113.425781 297.882812 112.992188 297.753906 C 112.542969 297.625 111.949219 297.785156 111.707031 298.199219 C 111.707031 298.191406 111.707031 298.1875 111.707031 298.183594 C 111.6875 296.308594 111.234375 294.308594 108.972656 296.011719 C 107.574219 297.0625 106.410156 297.828125 104.699219 298.414062 C 103.28125 298.890625 101.765625 299.355469 100.683594 300.476562 C 99.492188 301.691406 99.078125 303.433594 98.886719 305.144531 C 98.742188 306.304688 98.632812 307.453125 98.328125 308.578125 C 98.230469 309.097656 98.074219 309.589844 97.832031 310.113281 C 97.59375 310.632812 97.269531 311.332031 97.644531 311.820312 C 98.003906 312.265625 98.6875 312.15625 99.226562 312.054688 C 100.773438 311.671875 102.382812 311.320312 103.835938 310.6875 C 106.574219 309.480469 108.851562 307.289062 110.238281 304.652344 C 111.089844 303.035156 111.546875 301.277344 111.6875 299.441406 C 111.691406 299.273438 111.691406 299.082031 111.695312 298.898438 C 111.832031 299.300781 112.238281 299.757812 112.382812 300.148438 C 113.039062 301.785156 112.988281 303.730469 112.914062 305.492188 C 112.8125 307.171875 112.652344 308.820312 112.832031 310.488281 C 112.910156 311.085938 112.988281 311.683594 113.164062 312.292969 C 113.847656 314.789062 115.632812 316.875 117.683594 318.378906 C 119.796875 319.910156 122.179688 321.003906 124.53125 322.015625 C 124.878906 322.175781 125.328125 322.34375 125.652344 322.175781 C 126.257812 321.855469 126.011719 320.933594 125.691406 320.332031 C 124.984375 318.808594 124.574219 317.179688 124.390625 315.511719 C 124.136719 313.003906 124.570312 310.386719 123.789062 308.023438 L 123.742188 307.894531 C 122.71875 304.996094 120.132812 302.964844 117.710938 301.117188 C 116.507812 300.210938 115.347656 299.292969 114.160156 298.429688 Z M -2.722656 63.183594 C -1.84375 63.339844 -0.859375 63.265625 -0.0703125 63.3125 C 2.007812 63.457031 4.132812 63.585938 6.230469 63.386719 C 10.140625 63 13.808594 61.304688 16.921875 58.902344 C 19.996094 56.511719 22.511719 53.410156 24.550781 50.054688 C 24.796875 49.671875 25.070312 49.234375 25.097656 48.789062 C 25.183594 48.371094 25.054688 47.890625 24.703125 47.585938 C 24.6875 47.546875 24.644531 47.5625 24.628906 47.519531 C 24.089844 47.238281 23.46875 47.515625 22.859375 47.691406 C 20.109375 48.613281 17.109375 47.410156 14.195312 47.621094 C 10.667969 47.867188 7.648438 50.140625 5.078125 52.585938 C 2.371094 55.175781 -0.0625 57.859375 -3.4375 59.6875 C -4.546875 60.339844 -5.882812 61.171875 -4.59375 62.429688 C -4.078125 62.914062 -3.429688 63.105469 -2.722656 63.183594 Z M 40.8125 294.636719 C 40.148438 294.402344 40.046875 293.476562 40.121094 292.773438 C 40.179688 291.882812 40.222656 290.953125 40.335938 290.089844 C 40.320312 290.046875 40.320312 290.046875 40.363281 290.03125 C 40.488281 289.070312 40.714844 288.117188 41.042969 287.175781 C 41.628906 285.371094 42.75 283.703125 44.347656 282.675781 C 47.714844 280.5625 52.414062 281.910156 55.925781 279.933594 C 56.21875 279.773438 56.523438 279.683594 56.816406 279.648438 C 56.597656 279.1875 56.378906 278.707031 56.386719 278.175781 C 56.292969 276.617188 57.488281 276.851562 58.359375 277.636719 C 60.921875 279.871094 65.070312 279.730469 67.433594 282.085938 C 67.609375 282.164062 67.683594 282.234375 67.773438 282.34375 C 68.859375 283.582031 69.328125 285.242188 69.765625 286.8125 C 70.085938 287.945312 70.367188 289.097656 70.691406 290.230469 C 70.773438 290.585938 70.855469 290.9375 70.738281 291.273438 C 70.484375 291.753906 69.765625 291.777344 69.25 291.679688 C 66.15625 291.28125 63.261719 289.847656 61.085938 287.617188 C 59.75 286.289062 58.890625 284.777344 58.210938 283.136719 C 58.25 283.363281 58.292969 283.589844 58.371094 283.800781 C 58.726562 285.019531 59.5625 286.105469 60.269531 287.097656 C 60.851562 287.894531 61.4375 288.691406 61.976562 289.503906 C 61.992188 289.542969 62.023438 289.628906 62.082031 289.65625 C 62.382812 290.074219 62.640625 290.511719 62.898438 290.945312 L 62.914062 290.988281 C 62.988281 291.054688 63.019531 291.140625 63.066406 291.269531 C 63.476562 291.984375 63.773438 292.789062 63.945312 293.640625 C 64.265625 295.160156 64.074219 296.726562 63.804688 298.222656 C 63.21875 301.332031 62.199219 304.3125 60.789062 307.148438 C 60.546875 307.671875 60.136719 308.257812 59.546875 308.234375 C 58.976562 308.25 58.597656 307.621094 58.367188 307.128906 C 57.035156 304.441406 55.71875 301.796875 54.402344 299.148438 C 54.324219 298.9375 54.21875 298.785156 54.140625 298.570312 C 53.347656 297.082031 52.679688 295.546875 52.640625 293.875 C 52.503906 289.613281 56.050781 286.203125 57.132812 282.21875 C 56.796875 282.644531 56.445312 283.066406 56.203125 283.542969 C 55.0625 285.941406 53.238281 287.917969 51.085938 289.535156 C 48.375 291.597656 45.226562 293.003906 42.136719 294.433594 C 41.714844 294.59375 41.261719 294.808594 40.8125 294.636719 Z M 57.78125 282.039062 C 57.722656 281.878906 57.667969 281.714844 57.613281 281.550781 C 57.609375 281.558594 57.605469 281.574219 57.597656 281.582031 C 57.550781 281.667969 57.472656 281.746094 57.417969 281.832031 C 57.558594 281.886719 57.691406 281.949219 57.78125 282.039062 Z M 109.277344 153.683594 C 109.335938 153.710938 109.363281 153.652344 109.363281 153.652344 L 109.660156 153.542969 C 109.804688 153.5 109.953125 153.480469 110.101562 153.445312 C 110.074219 153.679688 110.132812 153.90625 110.375 154.046875 C 110.710938 154.164062 111.484375 153.78125 111.828125 153.800781 C 113.359375 153.761719 115.097656 154.421875 116.601562 154.828125 C 116.816406 154.894531 117.019531 154.914062 117.234375 154.980469 C 119.859375 155.550781 122.585938 156.132812 125.214844 155.542969 C 128.453125 154.78125 131.007812 152.292969 133.214844 149.789062 C 135.589844 147.078125 137.855469 144.070312 138.242188 140.554688 C 138.371094 139.734375 138.3125 138.792969 137.722656 138.238281 C 137.664062 138.214844 137.648438 138.171875 137.589844 138.144531 C 137.164062 137.773438 136.546875 137.664062 136 137.625 C 132.769531 137.375 129.582031 138.796875 126.984375 140.769531 C 125.019531 142.273438 123.289062 144.085938 121.511719 145.832031 C 123.984375 142.023438 125.082031 137.382812 124.921875 132.855469 C 124.867188 132.445312 124.851562 132.015625 124.710938 131.632812 C 124.691406 131.449219 124.628906 131.277344 124.550781 131.066406 C 124.304688 130.53125 123.785156 130.046875 123.199219 130.023438 C 122.652344 129.984375 122.191406 130.300781 121.714844 130.574219 C 120.074219 131.617188 118.472656 132.640625 116.816406 133.640625 C 115.5 134.511719 114.125 135.359375 113.25 136.648438 C 112.238281 138.082031 111.921875 139.835938 111.816406 141.515625 C 111.730469 143.234375 111.84375 144.972656 111.597656 146.65625 C 111.410156 148.363281 110.792969 150.085938 109.542969 151.273438 C 109.265625 151.566406 108.957031 151.777344 108.695312 152.117188 C 108.410156 152.511719 108.214844 153.160156 108.601562 153.550781 C 108.878906 153.78125 109.066406 153.761719 109.277344 153.683594 Z M 109.796875 97.554688 C 110.226562 98.167969 111.171875 98.917969 111.539062 99.304688 C 112.90625 100.773438 113.917969 102.472656 114.847656 104.199219 C 115.105469 104.636719 115.335938 105.128906 115.59375 105.5625 C 116.722656 107.699219 117.894531 109.820312 119.621094 111.492188 C 122.191406 113.867188 125.675781 114.941406 129.148438 115.199219 C 132.605469 115.410156 136.066406 114.855469 139.527344 114.296875 C 139.980469 114.222656 140.523438 114.121094 140.808594 113.722656 C 141.289062 113.066406 140.757812 112.152344 140.238281 111.527344 C 137.839844 108.703125 135.488281 105.863281 133.117188 102.980469 C 132.941406 102.757812 132.777344 102.578125 132.597656 102.355469 C 131.300781 100.808594 129.9375 99.339844 128.136719 98.511719 C 126.359375 97.625 124.335938 97.507812 122.355469 97.371094 C 120.183594 97.226562 118.03125 97.089844 115.875 96.953125 C 117.765625 96.597656 119.601562 95.976562 121.308594 95.0625 C 124.589844 93.367188 127.460938 90.953125 130.167969 88.363281 C 131.140625 87.472656 132.125 86.480469 132.863281 85.339844 C 133.230469 84.769531 133.59375 84.058594 133.316406 83.4375 C 133.132812 83.070312 132.792969 82.8125 132.417969 82.710938 C 132.230469 82.585938 131.984375 82.582031 131.785156 82.558594 C 131.171875 82.59375 130.574219 82.8125 130.007812 82.976562 C 127.96875 83.585938 125.796875 83.714844 123.671875 83.972656 C 121.503906 84.242188 119.355469 84.699219 117.578125 85.890625 C 113.960938 88.242188 112.550781 92.90625 109.183594 95.550781 C 108.066406 96.464844 108.523438 97.34375 109.796875 97.554688 Z M -39.433594 242.214844 C -39.023438 242.546875 -38.4375 242.039062 -38.125 241.585938 C -36.0625 238.414062 -33.960938 235.226562 -32.71875 231.683594 C -32.226562 230.289062 -31.933594 228.816406 -31.777344 227.335938 C -31.730469 227.589844 -31.679688 227.847656 -31.632812 228.097656 C -31.042969 231.253906 -29.902344 234.59375 -27.296875 236.421875 C -25.683594 237.511719 -23.738281 237.949219 -21.796875 238.242188 C -18.75 238.65625 -15.652344 238.8125 -12.667969 238.140625 C -12.183594 238.011719 -11.589844 237.789062 -11.433594 237.296875 C -11.246094 236.507812 -12.191406 236.035156 -12.886719 235.714844 C -15.230469 234.605469 -16.457031 232.074219 -17.394531 229.671875 L -17.582031 229.164062 C -18.398438 226.960938 -19.234375 224.570312 -20.929688 222.980469 C -23.21875 220.839844 -26.539062 220.480469 -29.402344 219.515625 C -29.933594 219.339844 -30.914062 218.75 -31.855469 218.289062 C -30.484375 218.214844 -29.039062 217.679688 -27.886719 217.21875 C -25.570312 216.3125 -23.371094 215.210938 -21.269531 213.855469 C -18.839844 212.328125 -16.429688 210.375 -15.515625 207.628906 C -15.386719 207.195312 -15.289062 206.675781 -15.597656 206.359375 C -15.628906 206.273438 -15.644531 206.230469 -15.703125 206.203125 C -15.96875 206.011719 -16.296875 206.039062 -16.625 206.0625 C -18.824219 206.25 -21.023438 206.4375 -23.21875 206.625 C -24.863281 206.75 -26.546875 206.890625 -27.980469 207.710938 C -30.820312 209.292969 -31.726562 212.714844 -33.726562 215.140625 C -34.605469 216.191406 -35.445312 217.152344 -33.941406 217.910156 C -34.03125 217.972656 -34.0625 218.066406 -34.113281 218.152344 C -34.316406 217.9375 -34.542969 217.769531 -34.828125 217.765625 C -35.1875 217.703125 -35.523438 217.972656 -35.875 218.199219 C -38.710938 220.308594 -41.710938 222.769531 -42.5 226.242188 C -42.871094 227.972656 -42.585938 229.792969 -42.167969 231.566406 C -42.113281 231.980469 -42 232.417969 -41.898438 232.816406 C -41.1875 235.78125 -40.449219 238.6875 -39.753906 241.613281 C -39.71875 241.839844 -39.625 242.09375 -39.433594 242.214844 Z M -39.433594 242.214844 " fill-opacity="1" fill-rule="nonzero"/></g></g></g></g><g clip-path="url(#7f2593c8c3)"><g clip-path="url(#6e0655705d)"><g clip-path="url(#68a5fe3b6b)"><g clip-path="url(#117a76471c)"><path fill="#587e60" d="M 112.980469 151.460938 C 112.804688 151.523438 112.640625 151.375 112.664062 151.195312 C 112.734375 150.585938 113.273438 150.03125 113.683594 149.609375 C 114.128906 149.148438 114.59375 148.699219 115.0625 148.257812 C 116.070312 147.308594 117.105469 146.34375 117.851562 145.164062 C 118.652344 143.898438 119.058594 142.417969 119.507812 141.003906 C 119.964844 139.5625 120.667969 138.09375 120.796875 136.578125 C 120.820312 136.292969 121.273438 136.324219 121.289062 136.597656 C 121.375 138.09375 120.679688 139.59375 120.296875 141.019531 C 119.898438 142.507812 119.484375 144.0625 118.714844 145.40625 C 118.003906 146.648438 117.03125 147.695312 116.027344 148.699219 C 115.507812 149.21875 114.96875 149.714844 114.449219 150.238281 C 114.027344 150.667969 113.5625 151.253906 112.980469 151.460938 Z M 111 298.601562 C 111.183594 298.496094 111.375 298.40625 111.550781 298.289062 C 111.59375 298.273438 111.664062 298.199219 111.707031 298.183594 C 111.6875 296.308594 111.234375 294.308594 108.972656 296.011719 C 107.574219 297.0625 106.410156 297.828125 104.699219 298.414062 C 103.28125 298.890625 101.765625 299.355469 100.683594 300.476562 C 99.492188 301.691406 99.078125 303.433594 98.886719 305.144531 C 98.742188 306.304688 98.632812 307.453125 98.328125 308.578125 C 98.394531 308.503906 98.464844 308.433594 98.492188 308.375 C 99.777344 306.5 100.460938 304.175781 102.140625 302.589844 C 104.140625 300.691406 107.101562 300.308594 109.695312 299.238281 C 109.617188 299.832031 109.542969 300.425781 109.289062 300.949219 C 108.703125 302.171875 107.683594 303.140625 106.890625 304.226562 C 105.300781 306.410156 103.050781 308.203125 100.597656 309.328125 C 100.324219 309.453125 100.472656 309.871094 100.757812 309.765625 C 103.484375 308.785156 105.96875 307.089844 107.769531 304.816406 C 108.640625 303.714844 109.667969 302.683594 110.292969 301.410156 C 110.675781 300.636719 110.949219 299.589844 111 298.601562 Z M -2.722656 63.183594 C -2.542969 63.019531 -2.40625 62.875 -2.265625 62.726562 C -1.964844 62.394531 -1.648438 62.074219 -1.335938 61.75 C 0.746094 61.5 2.722656 60.195312 4.707031 59.613281 C 7.234375 58.875 9.839844 58.546875 12.335938 57.683594 C 17.113281 56.035156 21.320312 53.117188 24.246094 48.964844 C 24.4375 48.691406 24.066406 48.378906 23.84375 48.632812 C 20.300781 52.667969 16.203125 55.539062 10.988281 56.949219 C 8.59375 57.59375 6.121094 57.898438 3.753906 58.640625 C 2.621094 58.996094 1.597656 59.519531 0.519531 59.992188 C 0.46875 60.011719 0.40625 60.027344 0.351562 60.050781 C 4.578125 55.976562 9.480469 52.566406 15.042969 50.824219 C 18.304688 49.859375 21.824219 49.328125 24.703125 47.585938 C 24.6875 47.546875 24.644531 47.5625 24.628906 47.519531 C 24.089844 47.238281 23.46875 47.515625 22.859375 47.691406 C 20.109375 48.613281 17.109375 47.410156 14.195312 47.621094 C 10.667969 47.867188 7.648438 50.140625 5.078125 52.585938 C 2.371094 55.175781 -0.0625 57.859375 -3.4375 59.6875 C -4.546875 60.339844 -5.882812 61.171875 -4.59375 62.429688 C -4.078125 62.914062 -3.429688 63.105469 -2.722656 63.183594 Z M -41.023438 228.007812 C -39.589844 225.5 -36.933594 223.941406 -34.953125 221.859375 C -34.640625 221.539062 -34.347656 221.199219 -34.085938 220.839844 C -34.164062 221.445312 -34.28125 222.046875 -34.417969 222.625 C -34.875 224.558594 -35.597656 226.4375 -36.433594 228.238281 C -37.230469 229.949219 -37.835938 231.714844 -38.324219 233.53125 C -38.554688 234.382812 -38.824219 235.234375 -38.84375 236.117188 C -38.863281 237.09375 -38.527344 238.042969 -38.671875 239.019531 C -38.734375 239.441406 -38.125 239.539062 -38.027344 239.132812 C -37.835938 238.328125 -37.941406 237.53125 -37.960938 236.714844 C -37.992188 235.597656 -37.601562 234.578125 -37.257812 233.53125 C -36.613281 231.5625 -35.726562 229.804688 -34.757812 227.984375 C -33.847656 226.28125 -33.152344 224.488281 -32.675781 222.617188 C -32.578125 222.234375 -32.476562 221.726562 -32.398438 221.1875 C -32.191406 221.316406 -31.984375 221.445312 -31.792969 221.582031 C -30.914062 222.214844 -30.164062 222.984375 -29.46875 223.808594 C -27.890625 225.667969 -26.710938 227.734375 -25.402344 229.777344 C -24.246094 231.585938 -23.246094 233.371094 -21.367188 234.492188 C -19.507812 235.605469 -17.820312 236.460938 -15.71875 237 C -15.382812 237.085938 -15.269531 236.597656 -15.546875 236.449219 C -17.5 235.410156 -19.496094 234.5625 -21.183594 233.082031 C -22.117188 232.261719 -22.507812 231.011719 -23.03125 229.917969 C -23.519531 228.894531 -24.011719 227.878906 -24.550781 226.878906 C -24.898438 226.230469 -25.292969 225.632812 -25.679688 225.023438 C -25.636719 225.035156 -25.601562 225.074219 -25.558594 225.082031 C -25.082031 225.195312 -24.585938 225.105469 -24.097656 225.117188 C -21.921875 225.132812 -19.859375 226.394531 -18.433594 228.035156 C -18.105469 228.394531 -17.839844 228.730469 -17.582031 229.164062 C -18.398438 226.960938 -19.234375 224.570312 -20.929688 222.980469 C -23.21875 220.839844 -26.539062 220.480469 -29.402344 219.515625 C -30.140625 219.273438 -31.734375 218.242188 -32.882812 217.867188 C -32.890625 217.855469 -32.890625 217.832031 -32.902344 217.820312 C -30.058594 216.828125 -28.160156 214.742188 -26.039062 212.640625 C -24.667969 211.285156 -23.113281 210.867188 -21.339844 210.265625 C -19.78125 209.734375 -18.339844 208.890625 -17.09375 207.816406 C -16.921875 207.671875 -17.113281 207.394531 -17.300781 207.53125 C -18.875 208.679688 -20.601562 209.355469 -22.492188 209.773438 C -24.074219 210.121094 -25.363281 210.613281 -26.574219 211.71875 C -27.792969 212.835938 -28.863281 214.085938 -30.152344 215.132812 C -30.601562 215.5 -31.074219 215.8125 -31.570312 216.097656 C -31.210938 215.640625 -30.851562 215.175781 -30.5625 214.691406 C -29.746094 213.375 -28.976562 211.9375 -27.878906 210.855469 C -26.1875 209.167969 -23.796875 208.332031 -21.4375 207.796875 C -19.492188 207.316406 -17.480469 207.007812 -15.597656 206.359375 C -15.628906 206.273438 -15.644531 206.230469 -15.703125 206.203125 C -15.96875 206.011719 -16.296875 206.039062 -16.625 206.0625 C -18.824219 206.25 -21.023438 206.4375 -23.222656 206.625 C -24.863281 206.75 -26.546875 206.890625 -27.980469 207.710938 C -30.820312 209.292969 -31.726562 212.714844 -33.726562 215.140625 C -34.589844 216.171875 -35.414062 217.113281 -34.027344 217.867188 C -34.066406 217.980469 -34.050781 218.101562 -34.0625 218.21875 C -34.277344 217.972656 -34.519531 217.773438 -34.828125 217.765625 C -35.1875 217.703125 -35.523438 217.972656 -35.875 218.199219 C -38.710938 220.308594 -41.710938 222.769531 -42.5 226.242188 C -42.871094 227.972656 -42.585938 229.792969 -42.167969 231.566406 C -42.011719 230.300781 -41.632812 229.101562 -41.023438 228.007812 Z M 44.433594 284.863281 C 46.515625 283.707031 49.035156 283.738281 51.433594 283.574219 C 52.125 283.546875 52.828125 283.464844 53.523438 283.351562 C 53.515625 283.363281 53.507812 283.378906 53.5 283.386719 C 52.710938 284.316406 51.792969 285.125 50.839844 285.875 C 49.6875 286.78125 48.386719 287.460938 47.21875 288.339844 C 46.066406 289.207031 45 290.160156 43.613281 290.640625 C 43.332031 290.738281 43.492188 291.152344 43.773438 291.070312 C 45.128906 290.675781 46.285156 289.84375 47.445312 289.074219 C 48.796875 288.175781 50.238281 287.410156 51.554688 286.453125 C 52.570312 285.714844 53.527344 284.894531 54.355469 283.945312 C 54.621094 283.640625 54.890625 283.300781 55.148438 282.949219 C 55.914062 282.695312 56.625 282.328125 57.25 281.824219 C 56.3125 285.984375 52.5 289.472656 52.640625 293.875 C 52.679688 295.546875 53.347656 297.082031 54.140625 298.570312 C 54.117188 298.386719 54.15625 298.226562 54.195312 298.070312 C 54.386719 296.890625 54.632812 295.738281 55.058594 294.664062 C 55.546875 293.375 56.265625 292.195312 57.132812 291.148438 C 57.59375 290.554688 58.171875 290.046875 58.871094 289.777344 C 58.953125 290.070312 59.050781 290.371094 59.113281 290.664062 C 59.414062 292.078125 59.652344 293.527344 59.75 294.972656 C 59.847656 296.449219 59.695312 297.925781 59.75 299.40625 C 59.800781 300.84375 59.949219 302.273438 59.691406 303.699219 C 59.640625 303.96875 60.03125 304.027344 60.097656 303.773438 C 60.457031 302.40625 60.441406 301.007812 60.488281 299.605469 C 60.539062 298.035156 60.761719 296.464844 60.714844 294.890625 C 60.667969 293.351562 60.414062 291.78125 60.101562 290.277344 C 60.058594 290.058594 60.007812 289.832031 59.960938 289.609375 C 60.460938 289.644531 60.960938 289.765625 61.390625 290.007812 C 62.003906 290.359375 62.546875 290.785156 63.066406 291.269531 C 63.125 291.296875 63.15625 291.378906 63.214844 291.40625 C 63.109375 291.253906 63.019531 291.140625 62.914062 290.988281 L 62.898438 290.945312 C 62.597656 290.527344 62.296875 290.105469 62.082031 289.65625 C 62.023438 289.628906 61.992188 289.542969 61.976562 289.503906 C 61.4375 288.691406 60.851562 287.894531 60.269531 287.097656 C 59.5625 286.105469 58.726562 285.019531 58.371094 283.800781 C 58.09375 283.054688 58.261719 282.054688 57.320312 281.777344 C 57.410156 281.703125 57.515625 281.660156 57.597656 281.582031 C 57.695312 281.449219 57.773438 281.273438 57.855469 281.101562 C 57.894531 280.984375 57.855469 280.929688 57.875 280.828125 C 58.1875 281.0625 58.527344 281.246094 58.878906 281.417969 C 59.296875 281.976562 59.796875 282.484375 60.265625 282.984375 C 61.128906 283.902344 62.03125 284.773438 62.984375 285.597656 C 64.886719 287.242188 66.933594 288.582031 69.1875 289.6875 C 69.410156 289.796875 69.632812 289.457031 69.421875 289.316406 C 67.394531 287.972656 65.492188 286.363281 63.738281 284.679688 C 62.859375 283.835938 62.007812 282.953125 61.179688 282.054688 C 61.179688 282.054688 61.175781 282.054688 61.175781 282.050781 C 61.402344 282.074219 61.628906 282.121094 61.851562 282.125 C 63.300781 282.121094 64.71875 281.789062 66.140625 281.839844 C 66.625 281.855469 67.027344 281.898438 67.433594 282.085938 C 65.070312 279.730469 60.921875 279.871094 58.359375 277.636719 C 57.488281 276.851562 56.292969 276.617188 56.386719 278.175781 C 56.378906 278.707031 56.597656 279.1875 56.816406 279.648438 C 56.523438 279.683594 56.21875 279.773438 55.925781 279.933594 C 52.414062 281.910156 47.714844 280.5625 44.347656 282.675781 C 42.75 283.703125 41.628906 285.371094 41.042969 287.175781 C 40.714844 288.117188 40.488281 289.070312 40.363281 290.03125 C 40.640625 289.351562 40.980469 288.695312 41.332031 288.082031 C 42.105469 286.785156 43.128906 285.636719 44.433594 284.863281 Z M 114.160156 298.429688 C 113.808594 298.128906 113.425781 297.882812 112.992188 297.753906 C 112.402344 297.585938 111.554688 297.902344 111.589844 298.65625 C 111.5625 299.101562 112.210938 299.679688 112.382812 300.148438 C 113.039062 301.785156 112.988281 303.730469 112.914062 305.492188 C 112.8125 307.171875 112.652344 308.820312 112.832031 310.488281 C 113.679688 308.871094 114.5 307.308594 115.304688 305.710938 C 115.761719 307.382812 116.234375 309.082031 116.84375 310.707031 C 117.460938 312.351562 118.304688 313.925781 119.410156 315.292969 C 120.558594 316.710938 121.988281 317.867188 123.003906 319.390625 C 123.132812 319.585938 123.480469 319.414062 123.375 319.195312 C 122.574219 317.527344 121.355469 316.15625 120.304688 314.652344 C 119.164062 313.023438 118.320312 311.257812 117.730469 309.363281 C 117.246094 307.800781 116.808594 306.222656 116.382812 304.644531 C 116.660156 304.59375 116.964844 304.628906 117.257812 304.707031 C 119.636719 305.269531 122.207031 305.957031 123.742188 307.894531 C 122.71875 304.996094 120.132812 302.964844 117.710938 301.117188 C 116.507812 300.210938 115.347656 299.292969 114.160156 298.429688 Z M 203.128906 267.769531 C 204.035156 266.566406 204.472656 265.007812 205.582031 263.96875 C 206.972656 262.628906 209.015625 262.363281 210.878906 261.765625 C 210.683594 262.308594 210.53125 262.871094 210.328125 263.382812 C 209.757812 264.828125 208.644531 266.0625 207.425781 267.007812 C 206.160156 267.992188 204.746094 268.800781 203.433594 269.71875 C 202.757812 270.1875 202.074219 270.640625 201.457031 271.1875 C 200.84375 271.734375 200.257812 272.316406 199.59375 272.804688 C 199.402344 272.945312 199.570312 273.304688 199.800781 273.1875 C 201.226562 272.484375 202.449219 271.339844 203.785156 270.464844 C 205.246094 269.511719 206.816406 268.675781 208.210938 267.625 C 209.378906 266.746094 210.492188 265.730469 211.191406 264.429688 C 211.707031 263.472656 212.164062 262.28125 212.394531 261.148438 C 212.601562 261.035156 212.8125 260.925781 212.996094 260.789062 C 212.992188 260.261719 212.992188 259.734375 213.097656 259.113281 C 213.207031 258.496094 213.222656 258.007812 212.875 257.460938 C 212.285156 259.125 210.605469 259.941406 209.003906 260.4375 C 207.386719 260.890625 205.605469 261.164062 204.308594 262.222656 C 202.679688 263.550781 202.089844 265.742188 201.308594 267.671875 C 200.832031 268.859375 200.222656 269.953125 199.511719 271.035156 C 200.765625 269.992188 202.167969 269.085938 203.128906 267.769531 Z M 214.742188 264.335938 C 214.65625 265.140625 214.867188 265.976562 214.738281 266.796875 C 214.523438 268.5625 213.933594 270.226562 213.28125 271.867188 C 212.332031 274.386719 211.242188 276.910156 211.113281 279.558594 C 211.0625 281.121094 211.34375 282.65625 211.890625 284.140625 C 211.941406 281.277344 212.621094 278.421875 213.882812 275.835938 C 214.796875 273.914062 216.019531 272.117188 216.75 270.144531 C 217.121094 271.375 217.519531 272.597656 217.664062 273.871094 C 217.882812 275.796875 217.621094 277.730469 217.59375 279.65625 C 217.5625 281.523438 217.355469 283.457031 217.566406 285.316406 C 217.792969 287.347656 218.5 289.289062 219.320312 291.144531 C 219.425781 291.382812 219.777344 291.253906 219.703125 291.003906 C 219.082031 288.875 218.472656 286.691406 218.433594 284.457031 C 218.402344 282.496094 218.578125 280.457031 218.722656 278.5 C 218.933594 275.601562 218.949219 272.636719 218.035156 269.894531 C 218.753906 270.777344 219.507812 271.625 220.371094 272.375 C 220.019531 271.683594 219.609375 270.96875 219.214844 270.296875 C 218.078125 268.261719 216.882812 266.339844 215.675781 264.378906 C 215.28125 263.703125 214.804688 263.589844 214.742188 264.335938 Z M 244.742188 266.390625 C 242.226562 265.585938 239.628906 265.34375 237.042969 265.144531 C 236.601562 265.117188 235.5625 264.921875 235.320312 265.445312 C 235.132812 265.851562 235.617188 266.105469 235.808594 266.371094 C 236.6875 267.445312 237.078125 268.890625 237.550781 270.160156 C 237.722656 270.628906 237.894531 271.09375 238.109375 271.542969 C 238.371094 271.207031 238.585938 270.742188 238.890625 270.386719 C 239.367188 269.707031 240.085938 269.238281 240.878906 268.9375 C 241.753906 269.496094 242.675781 269.988281 243.503906 270.605469 C 244.992188 271.714844 246.101562 273.40625 247.179688 274.894531 C 248.296875 276.441406 249.257812 278.148438 250.554688 279.554688 C 251.707031 280.800781 253.386719 281.558594 254.136719 283.140625 C 254.261719 283.398438 254.660156 283.261719 254.558594 282.984375 C 254.023438 281.480469 252.871094 280.539062 251.78125 279.4375 C 250.296875 277.941406 249.320312 275.941406 248.132812 274.210938 C 247.117188 272.722656 246.078125 271.097656 244.726562 269.894531 C 244.1875 269.414062 243.527344 269 242.875 268.585938 C 244.230469 268.589844 245.570312 268.980469 246.847656 269.46875 C 248.269531 270.050781 249.695312 270.773438 250.957031 271.707031 C 251.5 272.128906 252.058594 272.597656 252.535156 273.097656 C 252.25 272.335938 251.882812 271.601562 251.40625 270.960938 C 249.886719 268.679688 247.359375 267.203125 244.742188 266.390625 Z M 206.390625 199.523438 C 207.191406 200.386719 207.863281 201.292969 208.539062 202.199219 C 209.160156 201.921875 209.789062 201.542969 210.441406 201.351562 C 210.714844 201.273438 210.996094 201.269531 211.273438 201.253906 C 212.226562 202.464844 213.675781 203.449219 214.886719 204.214844 C 216.511719 205.246094 218.277344 206.097656 220.113281 206.691406 C 224.035156 207.960938 227.933594 207.722656 231.96875 207.351562 C 232.3125 207.320312 232.253906 206.839844 231.925781 206.832031 C 228.097656 206.742188 224.210938 206.664062 220.578125 205.339844 C 218.90625 204.730469 217.328125 203.941406 215.8125 203.011719 C 215.0625 202.546875 214.347656 202.039062 213.621094 201.535156 C 214.148438 201.664062 214.667969 201.796875 215.183594 201.910156 C 217.617188 202.359375 220.140625 202 222.582031 202.207031 C 227.160156 202.585938 231.207031 205.039062 235.023438 207.53125 C 234.980469 207.160156 234.714844 206.824219 234.433594 206.589844 C 232.945312 205.3125 231.5 204.015625 230.058594 202.71875 C 228.480469 201.324219 226.859375 199.949219 224.929688 199.167969 C 222.21875 198.101562 219.238281 198.386719 216.355469 198.292969 C 214.070312 198.230469 211.789062 197.910156 209.550781 197.40625 C 212.113281 196.207031 213.824219 193.804688 216.140625 192.179688 C 217.328125 191.34375 218.683594 191.066406 220.042969 190.636719 C 221.355469 190.21875 222.742188 189.664062 224.144531 189.855469 C 224.464844 189.898438 224.535156 189.449219 224.230469 189.367188 C 222.953125 189.03125 221.578125 189.273438 220.3125 189.570312 C 218.859375 189.90625 217.246094 190.089844 215.902344 190.773438 C 214.453125 191.515625 213.039062 192.757812 211.910156 193.921875 C 211.261719 194.59375 210.738281 195.339844 210.011719 195.9375 C 209.519531 196.34375 209.074219 196.75 208.679688 197.226562 C 208.488281 197.179688 208.292969 197.160156 208.101562 197.109375 C 208.089844 197.105469 208.074219 197.101562 208.0625 197.097656 C 209.6875 194.742188 211.277344 192.359375 213.546875 190.707031 C 215.5625 189.238281 217.984375 188.484375 220.390625 188.078125 C 221.945312 187.839844 223.460938 187.761719 224.992188 187.726562 C 222.753906 187.15625 220.515625 186.585938 218.195312 186.578125 C 215.863281 186.527344 213.417969 187.09375 211.648438 188.566406 C 209.59375 190.195312 208.535156 192.804688 206.570312 194.542969 C 205.804688 195.210938 204.855469 195.898438 204.800781 196.933594 C 204.78125 197.179688 204.902344 197.40625 204.992188 197.636719 C 205.058594 198.347656 206.035156 199.101562 206.390625 199.523438 Z M 109.277344 153.683594 C 109.335938 153.710938 109.363281 153.652344 109.363281 153.652344 C 110.941406 152.441406 112.25 150.898438 113.136719 149.121094 C 115.195312 145.035156 115.046875 139.933594 117.804688 136.3125 C 119.535156 134.078125 122.070312 132.707031 124.710938 131.632812 C 124.691406 131.449219 124.628906 131.277344 124.550781 131.066406 C 124.304688 130.53125 123.785156 130.046875 123.199219 130.023438 C 122.652344 129.984375 122.191406 130.300781 121.714844 130.574219 C 120.074219 131.617188 118.472656 132.640625 116.816406 133.640625 C 115.5 134.511719 114.125 135.359375 113.25 136.648438 C 112.238281 138.082031 111.921875 139.835938 111.816406 141.515625 C 111.730469 143.234375 111.84375 144.972656 111.597656 146.65625 C 111.410156 148.363281 110.792969 150.085938 109.542969 151.273438 C 109.265625 151.566406 108.957031 151.777344 108.695312 152.117188 C 108.410156 152.511719 108.214844 153.160156 108.601562 153.550781 C 108.878906 153.78125 109.066406 153.761719 109.277344 153.683594 Z M 137.589844 138.144531 C 137.164062 137.773438 136.546875 137.664062 136 137.625 C 132.769531 137.375 129.582031 138.796875 126.984375 140.769531 C 124.425781 142.726562 122.257812 145.214844 119.882812 147.398438 C 117.519531 149.621094 114.777344 151.601562 111.625 152.332031 C 111.269531 152.417969 110.855469 152.472656 110.546875 152.683594 C 110.128906 152.984375 109.820312 153.722656 110.375 154.046875 C 110.710938 154.164062 111.484375 153.78125 111.828125 153.800781 C 113.359375 153.761719 115.097656 154.421875 116.601562 154.828125 C 116.566406 154.601562 116.585938 154.398438 116.652344 154.183594 C 116.847656 153.367188 117.332031 152.664062 117.929688 152.074219 C 118.933594 151.964844 119.945312 151.652344 120.84375 151.363281 C 122.945312 150.691406 124.941406 149.875 126.851562 148.761719 C 129.992188 146.929688 133.726562 144.367188 135.007812 140.78125 C 135.085938 140.5625 134.839844 140.285156 134.625 140.464844 C 134.4375 140.628906 134.242188 140.78125 134.039062 140.921875 C 133.960938 140.980469 134.027344 141.121094 134.125 141.082031 C 133.167969 142.363281 132.175781 143.53125 130.898438 144.570312 C 129.519531 145.691406 127.996094 146.636719 126.457031 147.519531 C 125.769531 147.914062 125.0625 148.253906 124.347656 148.574219 C 126.839844 146.996094 128.820312 144.648438 130.917969 142.542969 C 132.761719 140.605469 135.035156 138.800781 137.589844 138.144531 Z M 109.796875 97.554688 C 110.226562 98.167969 111.171875 98.917969 111.539062 99.304688 C 112.90625 100.773438 113.917969 102.472656 114.847656 104.199219 C 115.105469 104.636719 115.335938 105.128906 115.59375 105.5625 C 115.953125 104.707031 115.988281 103.632812 116.246094 102.765625 C 116.554688 101.742188 117.269531 100.917969 118.144531 100.292969 C 118.148438 100.296875 118.15625 100.300781 118.160156 100.304688 C 120.226562 101.886719 121.902344 103.894531 123.785156 105.683594 C 127.367188 109.085938 131.863281 110.675781 136.679688 111.390625 C 136.925781 111.429688 136.984375 111.074219 136.746094 111.019531 C 134.246094 110.414062 131.742188 109.542969 129.46875 108.332031 C 127.042969 107.046875 125.15625 105.257812 123.339844 103.226562 C 122.179688 101.933594 121.011719 100.617188 119.6875 99.480469 C 119.835938 99.429688 119.976562 99.347656 120.128906 99.304688 C 121.847656 98.863281 123.714844 99.085938 125.445312 99.457031 C 127.984375 100.0625 130.378906 101.054688 132.597656 102.355469 C 131.300781 100.808594 129.9375 99.339844 128.136719 98.511719 C 126.359375 97.625 124.335938 97.507812 122.355469 97.371094 C 120.003906 97.214844 117.667969 97.066406 115.332031 96.917969 C 115.046875 96.804688 114.765625 96.683594 114.476562 96.578125 C 114.160156 96.460938 113.828125 96.335938 113.488281 96.226562 C 115.191406 96.097656 116.847656 95.316406 118.398438 94.664062 C 119.917969 94.027344 121.507812 93.3125 122.84375 92.332031 C 124.152344 91.367188 125.261719 90.160156 126.464844 89.074219 C 127.609375 88.042969 128.800781 87.082031 129.636719 85.769531 C 129.796875 85.519531 129.457031 85.222656 129.277344 85.472656 C 128.335938 86.757812 127.023438 87.664062 125.824219 88.683594 C 124.664062 89.667969 123.585938 90.757812 122.292969 91.570312 C 120.863281 92.46875 119.191406 92.984375 117.609375 93.550781 C 116.878906 93.8125 116.113281 94.039062 115.363281 94.3125 C 117.773438 92.0625 120.078125 89.660156 122.851562 87.886719 C 125.828125 86.015625 129.242188 84.945312 132.109375 82.917969 C 132.179688 82.847656 132.308594 82.800781 132.417969 82.710938 C 132.230469 82.585938 131.984375 82.582031 131.785156 82.558594 C 131.171875 82.59375 130.574219 82.8125 130.007812 82.976562 C 127.96875 83.585938 125.796875 83.714844 123.671875 83.972656 C 121.503906 84.242188 119.355469 84.699219 117.578125 85.890625 C 113.960938 88.238281 112.550781 92.90625 109.183594 95.550781 C 108.066406 96.464844 108.523438 97.34375 109.796875 97.554688 Z M 109.796875 97.554688 " fill-opacity="1" fill-rule="nonzero"/></g></g></g></g></svg>