<svg xmlns="http://www.w3.org/2000/svg" xmlns:xlink="http://www.w3.org/1999/xlink" width="500" zoomAndPan="magnify" viewBox="0 0 375 374.999991" height="500" preserveAspectRatio="xMidYMid meet" version="1.0"><defs><clipPath id="fba5bf9dca"><path d="M 277 0 L 375 0 L 375 225 L 277 225 Z M 277 0 " clip-rule="nonzero"/></clipPath><clipPath id="7953bb8399"><path d="M 276.722656 -178.027344 L 615.582031 -105.671875 L 539 252.992188 L 200.140625 180.636719 Z M 276.722656 -178.027344 " clip-rule="nonzero"/></clipPath><clipPath id="0ed09ae178"><path d="M 244.773438 -28.402344 L 452.34375 15.917969 L 407.710938 224.957031 L 200.140625 180.636719 Z M 244.773438 -28.402344 " clip-rule="nonzero"/></clipPath><clipPath id="a34cc6b6f2"><path d="M 276.730469 -178.070312 L 615.59375 -105.714844 L 539.007812 252.949219 L 200.148438 180.59375 Z M 276.730469 -178.070312 " clip-rule="nonzero"/></clipPath><clipPath id="cb92ae4f14"><path d="M 278 0 L 375 0 L 375 225 L 278 225 Z M 278 0 " clip-rule="nonzero"/></clipPath><clipPath id="4631a31bdf"><path d="M 276.722656 -178.027344 L 615.582031 -105.671875 L 539 252.992188 L 200.140625 180.636719 Z M 276.722656 -178.027344 " clip-rule="nonzero"/></clipPath><clipPath id="395092555e"><path d="M 244.773438 -28.402344 L 452.34375 15.917969 L 407.710938 224.957031 L 200.140625 180.636719 Z M 244.773438 -28.402344 " clip-rule="nonzero"/></clipPath><clipPath id="62f389557e"><path d="M 276.730469 -178.070312 L 615.59375 -105.714844 L 539.007812 252.949219 L 200.148438 180.59375 Z M 276.730469 -178.070312 " clip-rule="nonzero"/></clipPath><clipPath id="a4c026d33e"><path d="M 257 0 L 375 0 L 375 157 L 257 157 Z M 257 0 " clip-rule="nonzero"/></clipPath><clipPath id="06b9aef92f"><path d="M 276.722656 -178.027344 L 615.582031 -105.671875 L 539 252.992188 L 200.140625 180.636719 Z M 276.722656 -178.027344 " clip-rule="nonzero"/></clipPath><clipPath id="d3446f8ea6"><path d="M 244.773438 -28.402344 L 452.34375 15.917969 L 407.710938 224.957031 L 200.140625 180.636719 Z M 244.773438 -28.402344 " clip-rule="nonzero"/></clipPath><clipPath id="ffb7402ecb"><path d="M 276.730469 -178.070312 L 615.59375 -105.714844 L 539.007812 252.949219 L 200.148438 180.59375 Z M 276.730469 -178.070312 " clip-rule="nonzero"/></clipPath></defs><g clip-path="url(#fba5bf9dca)"><g clip-path="url(#7953bb8399)"><g clip-path="url(#0ed09ae178)"><g clip-path="url(#a34cc6b6f2)"><path fill="#a47052" d="M 538.269531 244.984375 C 536.144531 243.882812 534.851562 241.480469 533.742188 239.535156 C 532.058594 236.585938 530.640625 233.464844 529.054688 230.492188 C 525.789062 224.339844 521.101562 219.414062 516.785156 214.054688 C 512.035156 208.140625 508.1875 202.097656 505.597656 194.9375 C 502.453125 186.269531 499.316406 177.558594 496.265625 168.863281 C 494.730469 164.5625 493.285156 160.28125 491.796875 155.988281 C 491.371094 153.214844 491.035156 150.464844 490.792969 147.683594 C 490.089844 137.96875 490.886719 127.96875 492.011719 118.367188 C 494.238281 99.476562 502.113281 81.242188 500.210938 61.980469 C 499.210938 51.921875 495.070312 42.488281 493.832031 32.472656 C 493.699219 31.148438 491.691406 31.230469 491.71875 32.621094 C 491.847656 35.699219 492.179688 38.683594 492.605469 41.683594 L 492.59375 41.726562 C 493.410156 47.449219 494.554688 53.144531 495.039062 58.886719 C 495.816406 68.25 493.507812 77.554688 491.261719 86.550781 C 490.074219 91.242188 488.753906 95.902344 487.789062 100.644531 C 486.757812 105.691406 486.453125 110.800781 485.917969 115.910156 C 485.261719 122.007812 484.703125 128.3125 484.492188 134.507812 L 484.480469 134.550781 C 484.464844 134.640625 484.480469 134.78125 484.460938 134.871094 C 482.652344 129.679688 480.882812 124.539062 478.976562 119.375 C 473.367188 104.035156 466.382812 89.511719 458.40625 75.28125 C 456.5 71.871094 454.464844 68.617188 452.382812 65.355469 C 450.25 62.125 448.421875 58.777344 446.320312 55.601562 C 441.90625 48.976562 435.113281 44.382812 429.550781 38.804688 C 428.636719 37.867188 427.664062 37.015625 426.742188 36.125 C 425.699219 33.21875 424.757812 30.246094 424.105469 27.242188 C 423.089844 22.679688 422.835938 18.003906 422.300781 13.363281 C 421.832031 9.285156 421.261719 5.238281 420.515625 1.148438 L 420.523438 1.105469 C 420.378906 0.0585938 420.152344 -1.054688 419.960938 -2.113281 C 419.960938 -2.113281 419.972656 -2.15625 419.980469 -2.199219 C 421.628906 -9.703125 424.429688 -16.964844 427.675781 -23.941406 C 431.261719 -31.632812 436.730469 -37.953125 441.089844 -45.15625 C 442.449219 -47.40625 443.644531 -49.742188 444.746094 -52.09375 C 447.476562 -57.933594 449.65625 -64.03125 452.542969 -69.746094 C 453.085938 -70.785156 451.542969 -71.578125 450.964844 -70.589844 C 446.226562 -62.269531 443.011719 -53.0625 437.320312 -45.265625 C 432.164062 -38.234375 426.238281 -32.152344 422.292969 -24.304688 C 420.488281 -20.625 418.886719 -16.804688 417.632812 -12.867188 C 415.46875 -21.371094 412.976562 -29.851562 412.527344 -38.589844 C 411.988281 -50.8125 415.5625 -62.992188 416.167969 -75.15625 C 416.835938 -87.816406 412.164062 -99.949219 412.6875 -112.59375 C 412.707031 -113.328125 411.4375 -113.460938 411.367188 -112.691406 C 410.210938 -101.199219 413.402344 -89.933594 413.230469 -78.511719 C 413.144531 -74 412.691406 -69.472656 412.046875 -64.945312 C 410.917969 -56.40625 409.148438 -47.910156 408.261719 -39.410156 C 407.613281 -33.355469 407.554688 -27.222656 408.488281 -21.199219 C 409.449219 -15.078125 411.328125 -9.132812 412.519531 -3.007812 C 413.257812 0.894531 413.792969 4.890625 414.292969 8.832031 C 414.304688 9.207031 414.285156 9.523438 414.296875 9.898438 C 414.433594 12.285156 414.703125 15.574219 415.628906 18.175781 C 416.085938 21.230469 416.644531 24.261719 417.339844 27.277344 C 416.957031 26.917969 416.613281 26.566406 416.21875 26.25 L 416.175781 26.242188 C 414.246094 24.445312 412.304688 22.6875 410.367188 20.933594 C 404.59375 15.683594 399.046875 10.246094 393.09375 5.183594 C 380.40625 -5.613281 365.289062 -13.046875 352.664062 -23.921875 C 349.652344 -26.503906 347.054688 -29.507812 344.160156 -32.207031 C 341.292969 -34.808594 338.214844 -37.082031 335.390625 -39.671875 C 329.582031 -44.980469 326.046875 -51.605469 322.84375 -58.710938 C 319.582031 -65.972656 317.574219 -74.117188 313.121094 -80.796875 C 311.128906 -83.8125 308.457031 -86.046875 305.78125 -88.464844 C 304.195312 -89.914062 303.089844 -91.675781 302.234375 -93.523438 C 301.625 -95.640625 301.066406 -97.792969 300.863281 -100.101562 C 300.421875 -104.539062 301.058594 -109.023438 301.726562 -113.457031 C 302.460938 -118.199219 303.96875 -122.222656 305.789062 -126.636719 C 307.503906 -130.757812 308.339844 -135.105469 309.085938 -139.476562 C 309.257812 -140.273438 308.105469 -140.515625 307.890625 -139.730469 C 306.628906 -134.6875 305.164062 -129.777344 302.746094 -125.164062 C 300.570312 -121.050781 298.882812 -116.605469 298.183594 -112.039062 C 298.058594 -111.234375 298.023438 -110.410156 297.949219 -109.640625 C 295.484375 -123.664062 295.054688 -138.128906 289.984375 -151.640625 C 289.75 -152.292969 288.664062 -151.96875 288.929688 -151.265625 C 293.535156 -137.945312 293.886719 -123.773438 295.9375 -109.976562 C 296.199219 -108.167969 296.503906 -106.34375 296.863281 -104.558594 C 297.433594 -101.804688 297.949219 -99.011719 298.773438 -96.386719 C 298.765625 -96.34375 298.808594 -96.332031 298.800781 -96.289062 C 299.371094 -94.410156 300.082031 -92.546875 300.96875 -90.835938 C 301.054688 -90.585938 301.183594 -90.328125 301.3125 -90.066406 C 302.191406 -88.539062 303.175781 -87.082031 304.417969 -85.753906 C 307.019531 -82.980469 309.640625 -80.523438 311.246094 -76.992188 C 312.816406 -73.515625 313.683594 -69.773438 314.949219 -66.175781 C 317.003906 -60.191406 319.546875 -54.101562 322.652344 -48.492188 C 322.058594 -48.757812 321.46875 -49.023438 320.921875 -49.277344 C 319.996094 -49.707031 319.132812 -50.214844 318.332031 -50.800781 C 314.628906 -53.394531 310.773438 -55.929688 307.3125 -58.792969 C 304.566406 -61.089844 301.890625 -62.863281 298.46875 -63.960938 C 294.667969 -65.234375 290.441406 -65.585938 286.988281 -67.847656 C 283.25 -70.261719 280.882812 -74.140625 279.152344 -78.164062 C 278.710938 -79.132812 277.179688 -78.675781 277.554688 -77.625 C 277.957031 -76.476562 278.40625 -75.316406 278.859375 -74.203125 C 278.90625 -74.195312 278.894531 -74.148438 278.894531 -74.148438 C 281.007812 -69.308594 284.121094 -64.808594 288.84375 -62.226562 C 292.148438 -60.367188 296.078125 -60.128906 299.472656 -58.480469 C 303.328125 -56.59375 306.496094 -53.234375 310.050781 -50.8125 C 313.652344 -48.382812 317.019531 -45.953125 321 -44.222656 C 322.863281 -43.410156 324.820312 -42.621094 326.332031 -41.238281 C 327.804688 -39.90625 328.855469 -38.109375 330.042969 -36.515625 C 331.019531 -35.242188 331.964844 -34.027344 333.238281 -33.0625 C 335.007812 -31.804688 336.96875 -31.246094 338.464844 -29.585938 C 341.136719 -26.707031 343.382812 -24.007812 346.628906 -21.652344 C 349.6875 -19.519531 352.746094 -17.804688 355.957031 -16.148438 C 356.71875 -15.382812 357.445312 -14.675781 358.226562 -14 C 364.527344 -8.402344 371.453125 -3.78125 378.089844 1.332031 C 384.53125 6.269531 390.15625 12 395.808594 17.824219 C 396.296875 18.347656 396.832031 18.875 397.320312 19.398438 C 397.367188 19.40625 397.410156 19.417969 397.4375 19.515625 C 399.292969 21.4375 401.25 23.332031 403.148438 25.261719 C 403.195312 25.273438 403.238281 25.28125 403.226562 25.328125 C 406.742188 28.804688 410.3125 32.246094 413.878906 35.6875 C 419.894531 41.546875 425.527344 48.109375 432.214844 53.191406 C 435.203125 55.445312 438.445312 57.386719 441.242188 59.878906 C 444.484375 62.695312 446.960938 66.042969 449.292969 69.640625 C 458.152344 83.40625 463.964844 98.882812 469.074219 114.394531 C 474.597656 131.007812 479.386719 147.792969 485.105469 164.355469 C 487.167969 170.296875 489.328125 176.210938 491.492188 182.125 C 491.0625 181.757812 490.628906 181.386719 490.199219 181.019531 C 489.847656 180.710938 489.542969 180.414062 489.183594 180.152344 C 486.277344 177.730469 483.519531 175.246094 480.277344 173.308594 C 473.335938 169.191406 466.277344 165.417969 459.191406 161.550781 C 452.519531 157.90625 445.921875 153.910156 440.0625 149.054688 C 434.011719 144.019531 429.378906 137.761719 423.742188 132.304688 C 421.675781 130.292969 419.445312 128.382812 417.214844 126.472656 C 416.191406 123.898438 414.222656 121.628906 412.492188 119.550781 C 409.730469 116.234375 406.328125 113.519531 403.972656 109.828125 C 401.023438 105.222656 398.375 100.5 394.941406 96.207031 C 391.554688 91.925781 387.265625 88.605469 383.75 84.480469 C 376.769531 76.429688 372.570312 66.195312 369.136719 56.265625 C 367.597656 51.777344 366.152344 47.265625 363.792969 43.15625 C 361.386719 39.039062 358.113281 35.519531 355.257812 31.765625 C 349.375 23.996094 342.691406 14.988281 333.121094 11.695312 C 332.21875 11.367188 331.605469 12.945312 332.539062 13.328125 C 341.230469 16.847656 347.410156 25.609375 352.695312 32.929688 C 353.585938 34.183594 354.507812 35.488281 355.335938 36.820312 C 356.980469 39.296875 358.5 41.933594 359.566406 44.75 C 361.1875 49.070312 362.191406 53.675781 363.414062 58.140625 C 365.972656 67.839844 370.160156 77.46875 376.058594 85.613281 C 379.058594 89.765625 382.816406 92.972656 386.238281 96.660156 C 389.84375 100.574219 392.617188 105.140625 395.894531 109.304688 C 396.617188 110.246094 397.386719 111.195312 398.128906 112.046875 C 397.769531 111.785156 397.363281 111.515625 397.003906 111.25 C 393.074219 108.425781 389.035156 105.667969 384.921875 103.265625 C 377.96875 99.191406 370.195312 97.902344 362.316406 96.867188 C 354.351562 95.8125 346.804688 94.757812 339.476562 91.15625 C 324.425781 83.832031 313.480469 70.308594 304.199219 56.773438 C 303.703125 56.066406 302.574219 56.796875 303.0625 57.546875 C 307.523438 64.832031 312.402344 71.882812 318.191406 78.15625 C 318.234375 78.164062 318.226562 78.210938 318.226562 78.210938 C 322.207031 82.527344 326.59375 86.464844 331.476562 89.820312 C 337.574219 93.988281 344.265625 96.894531 351.367188 98.734375 C 359.257812 100.789062 367.558594 102.007812 375.097656 105.28125 C 382.792969 108.679688 389.421875 114.253906 396.238281 119.175781 C 402.859375 123.917969 409.507812 128.757812 415.320312 134.480469 C 421.164062 140.257812 425.476562 147.371094 431.460938 152.945312 C 432.921875 154.324219 434.441406 155.664062 436.023438 156.925781 C 435.300781 156.632812 434.53125 156.328125 433.808594 156.035156 C 429.878906 154.503906 425.835938 153.273438 421.71875 152.625 C 415.269531 151.617188 409.191406 153.644531 402.769531 154.03125 C 395.789062 154.433594 388.71875 152.230469 381.878906 151.09375 C 380.367188 150.816406 379.902344 152.984375 381.390625 153.394531 C 382 153.570312 382.609375 153.746094 383.21875 153.921875 C 389.410156 155.707031 395.554688 158.128906 401.957031 158.710938 C 405.042969 159 408.125 158.640625 411.25 158.523438 C 414.714844 158.335938 417.867188 158.734375 421.265625 159.503906 C 427.789062 161.035156 433.757812 164.066406 440.179688 165.855469 C 443.148438 166.675781 446.285156 167.160156 449.390625 167.359375 C 450.203125 167.441406 451.164062 167.507812 452.128906 167.527344 C 459.640625 171.582031 467.640625 174.628906 475.277344 178.523438 C 479.070312 180.488281 482.550781 182.386719 485.980469 184.96875 C 488.449219 186.835938 491.179688 188.574219 494.15625 189.582031 C 494.652344 190.933594 495.105469 192.28125 495.570312 193.578125 C 498.785156 202.355469 502.363281 210.097656 508.195312 217.441406 C 513.011719 223.507812 518.363281 228.996094 522.0625 235.933594 C 525.003906 241.457031 528.625 248.980469 534.902344 251.429688 C 537.472656 252.394531 539.695312 250.652344 540.132812 248.617188 C 540.414062 247.292969 539.9375 245.847656 538.269531 244.984375 Z M 538.269531 244.984375 " fill-opacity="1" fill-rule="nonzero"/></g></g></g></g><g clip-path="url(#cb92ae4f14)"><g clip-path="url(#4631a31bdf)"><g clip-path="url(#395092555e)"><g clip-path="url(#62f389557e)"><path fill="#7f4c38" d="M 355.957031 -16.148438 C 356.71875 -15.382812 357.445312 -14.675781 358.226562 -14 C 364.527344 -8.402344 371.453125 -3.78125 378.089844 1.332031 C 384.53125 6.269531 390.15625 12 395.808594 17.824219 C 396.296875 18.347656 396.832031 18.875 397.320312 19.398438 C 397.367188 19.40625 397.410156 19.417969 397.4375 19.515625 C 399.304688 21.160156 401.101562 22.929688 402.78125 24.816406 C 402.894531 24.933594 403.042969 25.101562 403.148438 25.261719 C 403.195312 25.273438 403.238281 25.28125 403.226562 25.328125 C 406.742188 28.804688 410.3125 32.246094 413.878906 35.6875 C 419.894531 41.546875 425.527344 48.109375 432.214844 53.191406 C 435.203125 55.445312 438.445312 57.386719 441.242188 59.878906 C 444.484375 62.695312 446.960938 66.042969 449.292969 69.640625 C 458.152344 83.40625 463.964844 98.882812 469.074219 114.394531 C 474.597656 131.007812 479.386719 147.792969 485.105469 164.355469 C 487.167969 170.296875 489.328125 176.210938 491.492188 182.125 C 491.0625 181.757812 490.628906 181.386719 490.199219 181.019531 C 490.792969 181.929688 491.988281 183.480469 493.03125 183.148438 C 493.226562 183.097656 493.308594 182.929688 493.292969 182.789062 C 493.328125 182.195312 492.75 181.65625 492.433594 181.171875 C 492.105469 180.546875 491.832031 179.886719 491.652344 179.203125 C 491.429688 178.507812 491.304688 177.789062 491.226562 177.078125 C 491.132812 176.226562 490.882812 175.433594 490.734375 174.617188 C 490.382812 172.960938 489.925781 171.410156 489.472656 169.824219 C 490.863281 171.96875 492.316406 174.074219 493.445312 176.394531 C 493.519531 176.542969 493.757812 176.421875 493.707031 176.269531 C 492.707031 173.328125 490.871094 170.773438 489.484375 168.011719 C 488.625 166.308594 487.867188 164.691406 487.6875 162.769531 C 487.539062 161.183594 487.398438 159.625 487.082031 158.058594 C 486.460938 155.011719 485.621094 151.992188 484.105469 149.265625 C 483.246094 147.71875 482.628906 146.277344 482.273438 144.546875 C 481.917969 142.820312 481.34375 141.03125 481.300781 139.273438 C 481.292969 138.996094 480.828125 138.949219 480.804688 139.234375 C 480.671875 140.734375 480.984375 142.15625 481.164062 143.636719 C 481.347656 145.15625 481.527344 146.652344 482.027344 148.109375 C 482.578125 149.695312 483.4375 151.152344 483.972656 152.742188 C 484.550781 154.453125 484.984375 156.222656 485.421875 157.96875 C 485.453125 158.101562 485.472656 158.230469 485.503906 158.363281 C 483.84375 154.019531 481.261719 150.015625 480.304688 145.445312 C 479.871094 143.363281 479.515625 141.347656 478.828125 139.351562 C 478.160156 137.5 477.449219 135.636719 477.074219 133.710938 C 477.050781 133.382812 477.027344 133.054688 477.015625 132.679688 C 476.988281 131.9375 476.917969 131.179688 476.839844 130.472656 C 476.820312 129.601562 476.722656 128.769531 476.554688 127.945312 C 476.675781 128.253906 476.816406 128.558594 476.929688 128.871094 C 477.546875 130.59375 477.863281 132.410156 478.660156 134.066406 C 478.816406 134.394531 479.375 134.128906 479.238281 133.789062 C 478.554688 132.117188 478.355469 130.292969 477.871094 128.5625 C 477.277344 126.449219 476.457031 124.386719 475.691406 122.328125 C 475.457031 121.695312 475.175781 121.085938 474.902344 120.476562 C 474.253906 117.949219 473.425781 115.488281 472.179688 113.070312 C 471.832031 112.402344 471.53125 111.703125 471.199219 111.023438 C 470.816406 109.3125 470.433594 107.601562 469.925781 105.921875 C 469.378906 104.101562 468.417969 102.519531 467.710938 100.773438 C 466.949219 98.894531 466.730469 96.859375 466.140625 94.929688 C 465.570312 93.078125 464.761719 91.304688 464.226562 89.441406 C 464.183594 89.289062 463.953125 89.335938 463.960938 89.492188 C 464.039062 91.292969 464.726562 92.855469 465.238281 94.5625 C 465.820312 96.507812 465.894531 98.566406 466.472656 100.503906 C 466.976562 102.199219 467.871094 103.742188 468.492188 105.394531 C 467.535156 103.324219 466.582031 101.257812 465.503906 99.257812 C 464.332031 97.160156 463 95.164062 462.085938 92.9375 C 461.269531 90.914062 460.703125 88.804688 459.839844 86.773438 C 459.003906 84.839844 458.222656 82.867188 457.234375 80.992188 C 456.765625 80.152344 456.351562 79.28125 455.785156 78.464844 C 455.617188 74.917969 453.09375 71.558594 451.453125 68.621094 C 449.390625 64.855469 447.847656 61.242188 444.476562 58.398438 C 441.148438 55.558594 437.140625 53.964844 433.40625 51.734375 C 431.5625 50.601562 430.066406 49.171875 428.667969 47.488281 C 428.4375 47.253906 428.21875 46.976562 427.992188 46.742188 C 428.019531 46.664062 428.015625 46.589844 428.03125 46.515625 C 428.425781 46.835938 428.75 47.207031 429.183594 47.5 C 431.792969 49.269531 434.949219 49.960938 437.617188 51.671875 C 437.898438 51.851562 438.121094 51.398438 437.855469 51.21875 C 435.40625 49.558594 432.625 48.449219 430.21875 46.757812 C 427.570312 44.902344 425.722656 42.582031 423.792969 40.035156 C 422.109375 37.816406 419.964844 35.882812 417.917969 34.007812 C 415.953125 32.214844 413.777344 30.679688 411.855469 28.851562 C 411.75 28.757812 411.589844 28.894531 411.667969 29.011719 C 412.296875 29.984375 413.207031 30.726562 414.09375 31.457031 C 415.210938 32.378906 416.164062 33.417969 417.191406 34.429688 C 418.695312 35.914062 420.15625 37.464844 421.535156 39.078125 C 421.132812 38.707031 420.746094 38.3125 420.339844 37.945312 C 417.59375 35.417969 414.488281 33.277344 412.144531 30.371094 C 407.839844 24.972656 403.511719 19.886719 398.277344 15.351562 C 393.136719 10.832031 387.65625 6.796875 381.875 3.113281 C 378.714844 1.0625 376.136719 -1.339844 373.40625 -3.867188 C 376.007812 -2.015625 378.679688 -0.253906 381.515625 1.03125 C 381.734375 1.128906 381.902344 0.8125 381.6875 0.703125 C 378.925781 -0.742188 376.5 -2.84375 374.042969 -4.742188 C 371.929688 -6.371094 369.703125 -7.84375 367.582031 -9.460938 C 365.558594 -11.007812 363.519531 -12.484375 361.402344 -13.894531 C 358.933594 -15.535156 356.855469 -17.59375 354.5625 -19.453125 C 352.828125 -20.863281 350.785156 -21.867188 349.113281 -23.335938 C 347.40625 -24.835938 346.339844 -26.878906 344.597656 -28.34375 C 342.8125 -29.84375 340.648438 -30.859375 338.933594 -32.449219 C 336.902344 -34.332031 335.285156 -36.714844 333.417969 -38.761719 C 333.21875 -38.980469 332.929688 -38.644531 333.113281 -38.429688 C 334.769531 -36.488281 336.195312 -34.304688 337.933594 -32.429688 C 336.878906 -33.222656 335.804688 -33.992188 334.824219 -34.847656 C 333.304688 -36.1875 332.0625 -37.75 330.589844 -39.078125 C 329.328125 -40.96875 327.9375 -42.695312 326.011719 -44.078125 C 320.148438 -48.472656 312.648438 -50.398438 307.136719 -55.363281 C 304.996094 -57.253906 302.871094 -59.234375 300.332031 -60.558594 C 299.789062 -60.835938 299.222656 -61.011719 298.660156 -61.195312 C 298.269531 -61.40625 297.871094 -61.621094 297.507812 -61.832031 C 296.277344 -62.539062 295.097656 -63.316406 293.738281 -63.757812 C 292.214844 -64.253906 290.597656 -64.316406 289.113281 -64.949219 C 287.761719 -65.523438 286.667969 -66.550781 285.289062 -67.070312 C 285.035156 -67.164062 284.84375 -66.828125 285.089844 -66.683594 C 286.316406 -65.976562 287.355469 -64.988281 288.628906 -64.355469 C 290.023438 -63.660156 291.5 -63.34375 292.976562 -62.878906 C 293.628906 -62.671875 294.222656 -62.371094 294.808594 -62.042969 C 293.472656 -62.226562 292.125 -62.378906 290.785156 -62.644531 C 286.613281 -63.488281 284.121094 -66.332031 281.839844 -69.730469 C 280.933594 -71.125 279.984375 -72.53125 279.078125 -73.925781 C 279.007812 -74.03125 278.976562 -74.085938 278.894531 -74.148438 C 281.007812 -69.308594 284.121094 -64.808594 288.84375 -62.226562 C 292.148438 -60.367188 296.078125 -60.128906 299.472656 -58.480469 C 303.328125 -56.59375 306.496094 -53.234375 310.050781 -50.8125 C 313.652344 -48.382812 317.019531 -45.953125 321 -44.222656 C 322.863281 -43.410156 324.820312 -42.621094 326.332031 -41.238281 C 327.804688 -39.90625 328.855469 -38.109375 330.042969 -36.515625 C 331.019531 -35.242188 331.964844 -34.027344 333.238281 -33.0625 C 335.007812 -31.804688 336.96875 -31.246094 338.464844 -29.585938 C 341.136719 -26.707031 343.382812 -24.007812 346.628906 -21.652344 C 349.6875 -19.519531 352.746094 -17.804688 355.957031 -16.148438 Z M 343.675781 -26.257812 C 342.214844 -27.5 341.492188 -29.082031 340.234375 -30.445312 C 341.492188 -29.539062 342.816406 -28.707031 343.929688 -27.613281 C 345.09375 -26.464844 346.023438 -25.128906 347.050781 -23.875 C 345.886719 -24.601562 344.738281 -25.359375 343.675781 -26.257812 Z M 540.132812 248.617188 C 539.695312 250.652344 537.472656 252.394531 534.902344 251.429688 C 528.625 248.980469 525 241.457031 522.0625 235.933594 C 518.363281 228.996094 513.011719 223.507812 508.195312 217.441406 C 502.363281 210.097656 498.785156 202.355469 495.570312 193.578125 C 495.105469 192.28125 494.652344 190.933594 494.15625 189.582031 C 491.179688 188.574219 488.449219 186.835938 485.980469 184.96875 C 482.550781 182.386719 479.070312 180.488281 475.277344 178.523438 C 467.640625 174.628906 459.640625 171.582031 452.128906 167.527344 C 451.164062 167.507812 450.203125 167.441406 449.390625 167.359375 C 446.285156 167.160156 443.148438 166.675781 440.179688 165.855469 C 433.757812 164.066406 427.789062 161.035156 421.265625 159.503906 C 417.867188 158.734375 414.714844 158.335938 411.25 158.523438 C 408.125 158.640625 405.042969 159 401.957031 158.710938 C 395.554688 158.128906 389.410156 155.707031 383.21875 153.921875 C 390.238281 153.988281 396.695312 157.773438 403.765625 158.035156 C 407.164062 158.15625 410.886719 157.84375 414.265625 157.410156 C 417.5625 156.914062 420.398438 155.992188 423.742188 156.800781 C 427.03125 157.640625 430.03125 159.203125 432.972656 160.804688 C 436.421875 162.648438 439.859375 163.660156 443.800781 163.625 C 445.679688 163.589844 447.660156 163.40625 449.539062 163.734375 C 448.730469 163.007812 447.863281 162.398438 446.914062 161.800781 C 446.679688 161.652344 446.863281 161.277344 447.117188 161.410156 C 448.148438 161.929688 449.273438 162.273438 450.222656 162.945312 C 451.339844 163.730469 452.355469 164.574219 453.550781 165.253906 C 455.769531 166.515625 458.242188 167.339844 460.613281 168.257812 C 463.191406 169.257812 465.65625 170.410156 468.195312 171.496094 C 469.398438 172.011719 470.472656 172.472656 471.542969 173.234375 C 472.539062 173.945312 473.71875 174.429688 474.582031 175.308594 C 474.695312 175.425781 474.570312 175.621094 474.417969 175.546875 C 473.273438 174.984375 472.019531 174.726562 470.878906 174.1875 C 469.699219 173.628906 468.566406 173.019531 467.363281 172.496094 C 467.007812 172.339844 466.65625 172.1875 466.300781 172.03125 C 469.046875 173.523438 471.5625 175.257812 474.207031 177.046875 C 477.601562 179.359375 481.289062 180.6875 485.039062 182.226562 C 484.601562 181.910156 484.179688 181.574219 483.734375 181.265625 C 482.058594 180.097656 480.199219 179.207031 478.621094 177.898438 C 478.441406 177.75 478.660156 177.429688 478.859375 177.558594 C 480.601562 178.699219 482.585938 179.402344 484.378906 180.457031 C 486.042969 181.441406 487.644531 182.484375 489.199219 183.628906 C 490.957031 184.917969 492.679688 186.246094 494.519531 187.414062 C 495.273438 187.890625 496.046875 188.339844 496.773438 188.855469 C 497.542969 189.402344 498.226562 190.050781 499.011719 190.574219 C 499.328125 190.78125 499.171875 191.238281 498.792969 191.191406 C 498.265625 191.121094 497.808594 190.886719 497.367188 190.621094 C 497.648438 191.085938 497.902344 191.601562 498.132812 192.1875 C 498.617188 193.398438 498.855469 194.652344 499.304688 195.808594 C 499.921875 197.46875 500.949219 198.933594 501.621094 200.554688 C 503.148438 204.023438 505.113281 207.171875 507.222656 210.300781 C 509.433594 213.59375 511.4375 217.210938 514.046875 220.171875 C 515.3125 221.585938 516.753906 222.816406 518.140625 224.085938 C 517.503906 222.742188 516.90625 221.371094 516.011719 220.171875 C 514.976562 218.789062 513.601562 217.695312 512.582031 216.296875 C 510.402344 213.304688 509.328125 209.371094 508.082031 205.9375 C 507.980469 205.65625 508.40625 205.523438 508.519531 205.792969 C 509.96875 209.242188 511.5625 213.371094 514.316406 216 C 515.410156 217.042969 516.578125 218 517.496094 219.210938 C 518.445312 220.460938 519.09375 221.894531 519.730469 223.316406 C 520.496094 225.03125 521.175781 226.710938 522.476562 228.105469 C 523.691406 229.40625 525.117188 230.488281 526.316406 231.804688 C 527.191406 232.769531 527.824219 233.898438 528.425781 235.046875 C 529.214844 236.558594 530.117188 237.671875 531.339844 238.855469 C 531.523438 239.03125 531.316406 239.285156 531.101562 239.199219 C 528.25 238.105469 527.179688 234.410156 525.089844 232.414062 C 524.675781 232.019531 524.234375 231.660156 523.796875 231.289062 C 524.589844 232.753906 525.292969 234.269531 525.980469 235.796875 C 527.488281 239.125 529.488281 241.675781 532.316406 244.039062 C 534.714844 246.027344 537.488281 247.128906 540.132812 248.617188 Z M 396.238281 119.175781 C 389.421875 114.253906 382.792969 108.679688 375.097656 105.28125 C 367.558594 102.007812 359.257812 100.789062 351.367188 98.734375 C 344.265625 96.894531 337.574219 93.988281 331.476562 89.820312 C 326.59375 86.464844 322.207031 82.527344 318.226562 78.207031 C 318.640625 78.4375 319.054688 78.664062 319.457031 78.933594 C 323.320312 81.652344 326.203125 85.273438 329.902344 88.097656 C 334.429688 91.605469 339.054688 94.210938 344.582031 95.851562 C 349.804688 97.382812 355.054688 98.597656 360.402344 99.554688 C 364.03125 100.167969 367.558594 101.0625 371.046875 102.125 C 369.265625 101.371094 367.488281 100.601562 365.679688 99.882812 C 362.246094 98.515625 358.738281 98.113281 355.175781 97.292969 C 354.980469 97.246094 355.046875 96.964844 355.242188 96.988281 C 358.878906 97.476562 362.523438 97.742188 366.058594 98.824219 C 369.433594 99.859375 372.699219 101.355469 376.011719 102.5625 C 379.554688 103.851562 382.515625 105.957031 385.882812 107.5625 C 389.03125 109.0625 392.210938 110.914062 394.851562 113.207031 C 395.019531 113.347656 394.824219 113.628906 394.632812 113.519531 C 391.558594 111.761719 388.628906 109.941406 385.34375 108.597656 C 385.050781 108.476562 384.789062 108.308594 384.507812 108.171875 C 386.03125 109.132812 387.546875 110.128906 389.105469 111.183594 C 393.347656 114.074219 397.238281 117.308594 401.289062 120.441406 C 403.628906 122.277344 405.921875 124.109375 408.042969 126.085938 C 409.773438 127.519531 411.636719 128.75 413.433594 130.101562 C 415.394531 131.539062 417.136719 133.34375 418.925781 134.925781 C 419.496094 135.433594 420.066406 135.976562 420.628906 136.523438 C 419.304688 134.882812 418 133.222656 416.636719 131.609375 C 415.539062 130.308594 414.40625 129.199219 413.058594 128.160156 C 411.933594 127.292969 410.886719 126.414062 410.035156 125.273438 C 409.871094 125.050781 410.214844 124.761719 410.402344 124.960938 C 411.597656 126.210938 413.066406 127.066406 414.464844 128.058594 C 415.703125 128.933594 416.683594 129.988281 417.699219 131.105469 C 419.96875 133.597656 421.996094 136.304688 424.3125 138.75 C 426.652344 141.222656 428.746094 143.871094 431.0625 146.355469 C 432.160156 147.527344 433.195312 148.753906 434.324219 149.894531 C 435.308594 150.894531 436.496094 151.886719 437.117188 153.164062 C 437.214844 153.355469 436.992188 153.597656 436.8125 153.421875 C 434.4375 151.136719 432.003906 148.925781 429.671875 146.589844 C 428.472656 145.378906 427.433594 144.042969 426.300781 142.777344 C 425.386719 141.757812 424.398438 140.808594 423.453125 139.820312 C 424.476562 141.4375 425.03125 143.363281 426.28125 144.910156 C 427.820312 146.808594 429.757812 148.5625 431.457031 150.359375 C 433.128906 152.054688 434.816406 154.125 436.816406 155.386719 C 438.453125 156.382812 440.453125 156.992188 441.636719 158.585938 C 441.890625 158.917969 441.625 159.507812 441.164062 159.503906 C 438.503906 159.394531 436.019531 157.804688 433.808594 156.035156 C 434.53125 156.328125 435.300781 156.632812 436.023438 156.925781 C 434.441406 155.664062 432.925781 154.324219 431.460938 152.945312 C 425.476562 147.371094 421.164062 140.257812 415.320312 134.480469 C 409.507812 128.757812 402.859375 123.917969 396.238281 119.175781 Z M 397.003906 111.25 C 397.363281 111.515625 397.769531 111.785156 398.128906 112.046875 C 397.386719 111.195312 396.617188 110.246094 395.894531 109.304688 C 392.617188 105.140625 389.84375 100.574219 386.238281 96.660156 C 382.816406 92.972656 379.058594 89.765625 376.058594 85.613281 C 370.160156 77.46875 365.972656 67.839844 363.414062 58.140625 C 362.191406 53.675781 361.1875 49.070312 359.566406 44.75 C 358.5 41.933594 356.980469 39.296875 355.335938 36.820312 C 357.054688 38.945312 358.5 41.285156 359.566406 43.871094 C 362.222656 50.078125 364.214844 56.554688 366.921875 62.726562 C 368.25 65.828125 369.398438 69.125 370.886719 72.121094 C 371.132812 72.613281 371.492188 73.03125 371.777344 73.496094 C 371.070312 72.246094 370.347656 71.003906 369.839844 69.660156 C 369.035156 67.535156 368.890625 65.167969 368.410156 62.960938 C 367.9375 60.816406 367.5 58.695312 367.296875 56.507812 C 367.269531 56.226562 367.6875 56.214844 367.730469 56.484375 C 368.117188 58.910156 368.800781 61.277344 369.378906 63.664062 C 369.917969 65.890625 370.09375 68.191406 371.226562 70.222656 C 372.132812 71.84375 373.15625 73.480469 374.171875 75.035156 C 375.324219 76.800781 375.910156 78.824219 377.347656 80.394531 C 378.722656 81.902344 379.917969 83.628906 381.324219 85.078125 C 382.628906 86.417969 383.972656 87.550781 385.105469 89.054688 C 387.636719 92.421875 389.964844 95.925781 392.515625 99.269531 C 392.613281 99.394531 392.425781 99.535156 392.316406 99.441406 C 390.769531 98.109375 389.664062 96.367188 388.472656 94.734375 C 387.113281 92.863281 385.585938 91.117188 384.101562 89.339844 C 383.230469 88.296875 382.167969 87.460938 381.152344 86.578125 C 381.398438 86.929688 381.617188 87.292969 381.871094 87.640625 C 383.765625 90.261719 385.570312 92.867188 387.03125 95.765625 C 387.160156 96.023438 387.238281 96.320312 387.179688 96.582031 C 387.566406 96.941406 387.953125 97.304688 388.382812 97.671875 C 390.464844 99.410156 392.109375 101.242188 393.617188 103.503906 C 394.382812 104.683594 395.203125 105.597656 396.25 106.5625 C 397.089844 107.386719 398.097656 108.296875 398.660156 109.339844 C 399.269531 110.394531 399.40625 111.488281 400.335938 112.332031 C 400.679688 112.632812 401.074219 112.996094 401.328125 113.40625 C 401.460938 113.484375 401.601562 113.554688 401.726562 113.644531 C 402.125 113.933594 402.453125 114.289062 402.765625 114.671875 C 403.085938 115.066406 403.28125 115.523438 403.558594 115.949219 C 404.09375 116.785156 404.882812 117.40625 405.609375 118.058594 C 406.328125 118.703125 407.011719 119.382812 407.515625 120.207031 C 407.707031 120.515625 407.257812 120.796875 407.050781 120.507812 C 406.421875 119.652344 405.578125 119.015625 404.742188 118.375 C 403.933594 117.753906 403.191406 117.105469 402.480469 116.378906 C 402.113281 116.003906 401.753906 115.617188 401.378906 115.253906 C 401.261719 115.144531 401.136719 115.039062 401.015625 114.9375 C 400.984375 114.9375 400.960938 114.960938 400.933594 114.957031 C 400.09375 114.777344 399.152344 113.976562 398.484375 113.417969 C 397.773438 112.847656 397.4375 112.039062 397.003906 111.25 Z M 495.039062 58.886719 C 494.554688 53.144531 493.410156 47.449219 492.59375 41.726562 C 492.929688 42.769531 493.367188 43.742188 493.648438 44.816406 C 494.261719 47.351562 495.207031 49.863281 495.679688 52.414062 C 496.699219 58.039062 496.59375 63.75 495.910156 69.332031 C 495.46875 72.472656 495.667969 75.660156 495.273438 78.808594 C 494.878906 81.960938 494.339844 85.128906 493.546875 88.191406 C 492.828125 91.136719 491.796875 94.011719 491.164062 96.972656 C 490.625 99.695312 490.367188 102.28125 489.421875 104.816406 C 492.300781 96.984375 496.710938 89.40625 496.675781 80.949219 C 496.671875 80.699219 497.039062 80.675781 497.0625 80.925781 C 497.453125 85.074219 496.691406 89.800781 495.378906 93.742188 C 493.84375 98.347656 491.355469 102.5625 489.832031 107.179688 C 488.308594 111.789062 488.894531 116.0625 488.671875 120.792969 C 488.480469 124.957031 487.949219 129.113281 487.867188 133.265625 C 487.863281 133.507812 487.480469 133.617188 487.417969 133.347656 C 487.003906 131.570312 487.164062 129.980469 487.300781 128.1875 C 487.457031 126.109375 487.25 124.023438 487.378906 121.945312 C 487.511719 119.847656 487.402344 117.71875 487.386719 115.601562 C 487.304688 116.039062 487.203125 116.472656 487.136719 116.910156 C 486.910156 118.847656 487.304688 120.6875 487.347656 122.640625 C 487.390625 124.175781 487.238281 125.757812 487.050781 127.289062 C 486.886719 129.148438 486.808594 131.027344 486.464844 132.851562 C 486.265625 133.785156 486.132812 134.769531 485.800781 135.652344 C 485.769531 136.015625 485.734375 136.382812 485.699219 136.746094 C 485.519531 138.617188 485.515625 140.53125 486.351562 142.261719 C 486.492188 142.554688 486.101562 142.835938 485.914062 142.546875 C 484.835938 140.902344 484.542969 138.921875 484.664062 136.988281 C 484.667969 136.949219 484.675781 136.910156 484.679688 136.867188 C 484.65625 136.839844 484.613281 136.839844 484.605469 136.796875 C 484.402344 136.015625 484.542969 135.351562 484.480469 134.550781 L 484.492188 134.507812 C 484.703125 128.3125 485.261719 122.007812 485.917969 115.910156 C 486.453125 110.800781 486.757812 105.691406 487.789062 100.644531 C 488.753906 95.90625 490.074219 91.242188 491.261719 86.550781 C 493.507812 77.554688 495.816406 68.25 495.039062 58.886719 Z M 408.261719 -39.410156 C 409.148438 -47.910156 410.917969 -56.40625 412.046875 -64.945312 C 412.25 -60.046875 412.078125 -54.910156 411.175781 -50.25 C 410.539062 -47.058594 409.675781 -43.867188 408.90625 -40.703125 C 408.164062 -37.445312 408.289062 -34.78125 409.082031 -31.5625 C 409.136719 -31.347656 409.167969 -31.132812 409.214844 -30.917969 C 409.523438 -33.164062 409.984375 -35.390625 410.0625 -37.664062 C 410.078125 -38.019531 410.613281 -38.066406 410.628906 -37.695312 C 410.769531 -34.460938 410.113281 -31.300781 410.046875 -28.074219 C 410.03125 -27.382812 410.101562 -26.71875 410.183594 -26.058594 C 410.25 -25.675781 410.3125 -25.289062 410.375 -24.902344 C 410.796875 -22.773438 411.574219 -20.75 412.382812 -18.65625 C 414.792969 -12.425781 416.304688 -5.527344 416.902344 1.117188 C 416.917969 1.308594 416.644531 1.347656 416.582031 1.179688 C 415.3125 -2.238281 414.890625 -6.050781 414.007812 -9.589844 C 413.363281 -12.171875 412.566406 -14.6875 411.667969 -17.179688 C 411.910156 -15.871094 412.167969 -14.566406 412.488281 -13.273438 C 413.164062 -10.585938 413.839844 -7.902344 414.175781 -5.148438 C 414.421875 -2.832031 415.253906 -0.4375 415.359375 1.898438 C 415.589844 2.316406 415.78125 2.726562 416.015625 3.148438 C 417.363281 5.929688 417.949219 8.828125 418.222656 11.890625 C 418.488281 15.183594 418.171875 18.394531 418.125 21.667969 C 418.113281 23.003906 418.25 24.328125 418.480469 25.625 C 418.628906 26.371094 418.863281 27.144531 418.949219 27.914062 C 419.046875 28.09375 419.15625 28.269531 419.246094 28.457031 C 419.652344 29.316406 420.09375 30.160156 420.449219 31.042969 C 421.148438 32.777344 422.183594 34.328125 423.082031 35.960938 C 423.222656 36.21875 422.863281 36.460938 422.695312 36.210938 C 421.644531 34.660156 420.445312 33.210938 419.5625 31.550781 C 419.101562 30.691406 418.664062 29.816406 418.21875 28.949219 C 418.199219 28.90625 418.1875 28.859375 418.167969 28.816406 C 417.222656 28.445312 416.613281 27.417969 416.21875 26.25 C 416.613281 26.566406 416.957031 26.917969 417.339844 27.277344 C 416.644531 24.261719 416.085938 21.230469 415.628906 18.175781 C 414.703125 15.574219 414.433594 12.28125 414.296875 9.898438 C 414.285156 9.523438 414.304688 9.207031 414.292969 8.832031 C 413.792969 4.890625 413.257812 0.894531 412.519531 -3.007812 C 411.328125 -9.132812 409.449219 -15.078125 408.488281 -21.199219 C 407.554688 -27.222656 407.613281 -33.355469 408.261719 -39.410156 Z M 420.523438 1.105469 C 418.207031 -2.996094 419.75 -7.195312 420.679688 -11.753906 C 421.761719 -17.253906 423.945312 -21.640625 426.617188 -26.570312 C 429.371094 -31.667969 433.503906 -35.636719 436.824219 -40.335938 C 439.578125 -44.136719 441.914062 -48.355469 444.746094 -52.09375 C 443.644531 -49.742188 442.449219 -47.40625 441.089844 -45.15625 C 436.730469 -37.953125 431.261719 -31.632812 427.675781 -23.941406 C 424.429688 -16.964844 421.628906 -9.703125 419.980469 -2.199219 C 419.972656 -2.15625 419.960938 -2.113281 419.960938 -2.113281 C 420.152344 -1.054688 420.378906 0.0585938 420.523438 1.105469 Z M 300.96875 -90.835938 C 300.082031 -92.546875 299.371094 -94.410156 298.800781 -96.289062 C 299.714844 -94.289062 300.75 -92.40625 301.964844 -90.527344 C 303.410156 -88.1875 304.613281 -85.804688 306.730469 -84.011719 C 308.695312 -82.390625 310.496094 -80.851562 311.941406 -78.738281 C 315.070312 -74.097656 315.453125 -68.515625 317.214844 -63.332031 C 318.171875 -60.449219 319.808594 -57.925781 321.28125 -55.300781 C 322.5 -53.191406 323.1875 -50.78125 324.769531 -48.871094 C 324.964844 -48.613281 324.933594 -48.347656 324.820312 -48.105469 C 324.9375 -47.976562 325.054688 -47.851562 325.175781 -47.722656 C 326.003906 -46.824219 326.804688 -45.910156 327.582031 -44.964844 C 327.792969 -44.707031 327.378906 -44.378906 327.144531 -44.59375 C 326.25 -45.425781 325.320312 -46.21875 324.445312 -47.078125 C 324.292969 -47.226562 324.15625 -47.390625 324.003906 -47.542969 C 323.929688 -47.535156 323.859375 -47.5 323.785156 -47.511719 C 322.4375 -47.707031 321.558594 -48.355469 320.921875 -49.277344 C 321.46875 -49.023438 322.058594 -48.757812 322.652344 -48.492188 C 319.546875 -54.101562 317.003906 -60.191406 314.949219 -66.175781 C 313.683594 -69.773438 312.816406 -73.515625 311.246094 -76.992188 C 309.640625 -80.523438 307.019531 -82.980469 304.417969 -85.753906 C 303.175781 -87.082031 302.191406 -88.539062 301.3125 -90.066406 C 301.183594 -90.328125 301.054688 -90.585938 300.96875 -90.835938 Z M 300.96875 -90.835938 " fill-opacity="1" fill-rule="nonzero"/></g></g></g></g><g clip-path="url(#a4c026d33e)"><g clip-path="url(#06b9aef92f)"><g clip-path="url(#d3446f8ea6)"><g clip-path="url(#ffb7402ecb)"><path fill="#5f926a" d="M 282.804688 -175.4375 C 282.851562 -175.886719 283.011719 -176.410156 283.4375 -176.457031 C 283.710938 -176.445312 283.941406 -176.210938 284.125 -175.988281 C 285.398438 -174.375 286.71875 -172.75 287.992188 -171.140625 C 289.453125 -169.304688 290.992188 -167.402344 291.769531 -165.203125 C 292.644531 -162.796875 292.628906 -160.121094 292.277344 -157.609375 C 292.121094 -156.441406 291.917969 -155.28125 291.636719 -154.1875 C 291.578125 -153.691406 291.476562 -153.203125 291.371094 -152.71875 C 291.089844 -151.390625 290.644531 -149.960938 290.8125 -148.585938 C 290.835938 -148.257812 291.105469 -147.785156 290.730469 -147.539062 C 290.246094 -147.226562 289.472656 -147.945312 289.113281 -148.207031 C 287.039062 -149.761719 284.972656 -151.359375 283.277344 -153.382812 C 281.5 -155.472656 280.160156 -158.070312 280.097656 -160.808594 C 280.035156 -161.609375 280.117188 -162.421875 280.285156 -163.21875 C 280.519531 -164.742188 281.027344 -166.25 281.4375 -167.734375 C 282.117188 -170.269531 282.574219 -172.851562 282.804688 -175.4375 Z M 307.519531 -135.589844 C 308.023438 -136.222656 308.292969 -137.042969 308.839844 -137.664062 C 309.96875 -139.042969 311.355469 -140.132812 312.78125 -141.167969 C 314.933594 -142.789062 317.207031 -144.335938 318.734375 -146.503906 C 319.609375 -147.796875 320.199219 -149.242188 320.527344 -150.789062 C 320.875 -152.195312 320.988281 -153.601562 320.929688 -155.050781 C 320.824219 -158.027344 320.019531 -160.972656 319.097656 -163.804688 C 318.964844 -164.0625 318.890625 -164.359375 318.644531 -164.503906 C 318.386719 -164.601562 318.050781 -164.539062 317.824219 -164.355469 C 317.589844 -164.125 317.445312 -163.878906 317.300781 -163.632812 C 315.328125 -160.035156 311.644531 -157.726562 309.511719 -154.25 C 307.9375 -151.628906 307.320312 -148.527344 307.074219 -145.4375 C 307.066406 -145.390625 307.066406 -145.390625 307.066406 -145.390625 C 306.996094 -144.621094 306.957031 -143.796875 306.929688 -143.019531 C 306.800781 -140.6875 306.78125 -138.429688 306.753906 -136.125 C 306.726562 -135.34375 307.066406 -134.992188 307.519531 -135.589844 Z M 323.96875 -133.09375 C 324.476562 -133.308594 324.984375 -133.523438 325.539062 -133.730469 C 326.285156 -133.984375 327.160156 -134.398438 327.136719 -135.144531 C 327.132812 -135.5625 326.835938 -135.902344 326.457031 -136.074219 C 326.128906 -136.285156 325.722656 -136.324219 325.324219 -136.410156 C 322.894531 -136.742188 320.46875 -137.078125 318 -137.003906 C 315.585938 -136.964844 313.121094 -136.472656 310.976562 -135.3125 C 309.566406 -134.550781 308.261719 -133.445312 307.367188 -132.0625 C 307.292969 -131.941406 307.167969 -131.78125 307.097656 -131.660156 C 306.816406 -131.210938 306.535156 -130.761719 306.109375 -130.296875 C 305.6875 -129.835938 305.417969 -129.429688 305.417969 -128.78125 C 306.808594 -129.871094 308.660156 -129.660156 310.277344 -129.222656 C 311.886719 -128.742188 313.539062 -128.019531 315.199219 -128.21875 C 317.289062 -128.46875 318.957031 -130.003906 320.652344 -131.214844 C 321.691406 -131.964844 322.789062 -132.5625 323.96875 -133.09375 Z M 279.882812 -76.375 C 279.667969 -77.527344 279.582031 -78.65625 279.5 -79.785156 C 279.410156 -81.097656 279.375 -82.445312 279.238281 -83.765625 C 278.953125 -86.972656 278.195312 -90.367188 275.910156 -92.65625 C 274.007812 -94.589844 271.277344 -95.449219 268.679688 -96.28125 C 266.160156 -97.050781 263.640625 -97.820312 261.085938 -98.644531 C 260.773438 -98.710938 260.429688 -98.828125 260.160156 -98.65625 C 260.109375 -98.621094 260 -98.550781 259.980469 -98.460938 C 259.816406 -98.128906 259.867188 -97.703125 259.976562 -97.355469 C 260.546875 -95.476562 261.074219 -93.609375 261.601562 -91.738281 C 262.1875 -89.71875 262.816406 -87.691406 264.03125 -85.996094 C 265.746094 -83.644531 268.417969 -82.289062 270.804688 -80.667969 C 271.6875 -80.074219 272.523438 -79.40625 273.359375 -78.738281 C 272.214844 -79.097656 271.046875 -79.378906 269.867188 -79.53125 C 266.347656 -79.957031 262.757812 -79.613281 259.25 -79.207031 C 258.296875 -79.089844 257.113281 -78.742188 257.046875 -77.785156 C 257.023438 -77.234375 257.433594 -76.777344 257.820312 -76.417969 L 257.855469 -76.363281 C 259.4375 -74.683594 261.023438 -73.007812 262.980469 -71.757812 C 264.921875 -70.464844 267.292969 -69.632812 269.574219 -69.933594 C 272.179688 -70.207031 274.472656 -71.84375 277.0625 -72.261719 C 278.066406 -72.417969 279.238281 -72.492188 279.835938 -73.332031 C 279.984375 -73.53125 280.003906 -73.785156 280.050781 -74.03125 C 280.375 -74.667969 279.957031 -75.828125 279.882812 -76.375 Z M 410.726562 -110.546875 C 410.863281 -110.101562 411.054688 -109.695312 411.351562 -109.351562 C 411.664062 -109.003906 412.25 -108.816406 412.679688 -109.039062 C 412.675781 -109.035156 412.671875 -109.03125 412.667969 -109.023438 C 411.679688 -107.433594 410.992188 -105.5 413.816406 -105.730469 C 415.558594 -105.867188 416.953125 -105.890625 418.710938 -105.46875 C 420.164062 -105.113281 421.691406 -104.695312 423.207031 -105.066406 C 424.863281 -105.449219 426.148438 -106.703125 427.21875 -108.042969 C 427.96875 -108.945312 428.671875 -109.859375 429.535156 -110.644531 C 429.894531 -111.03125 430.289062 -111.363281 430.773438 -111.675781 C 431.253906 -111.988281 431.898438 -112.40625 431.847656 -113.019531 C 431.78125 -113.585938 431.144531 -113.859375 430.632812 -114.0625 C 429.121094 -114.570312 427.578125 -115.132812 426.007812 -115.375 C 423.050781 -115.820312 419.953125 -115.1875 417.371094 -113.707031 C 415.789062 -112.796875 414.457031 -111.554688 413.355469 -110.078125 C 413.265625 -109.9375 413.160156 -109.773438 413.058594 -109.625 C 413.160156 -110.035156 413.058594 -110.640625 413.148438 -111.046875 C 413.472656 -112.78125 414.558594 -114.398438 415.558594 -115.847656 C 416.546875 -117.210938 417.566406 -118.515625 418.304688 -120.023438 C 418.558594 -120.570312 418.8125 -121.117188 418.988281 -121.726562 C 419.75 -124.195312 419.359375 -126.914062 418.429688 -129.285156 C 417.464844 -131.710938 416.039062 -133.910156 414.59375 -136.019531 C 414.382812 -136.339844 414.09375 -136.726562 413.734375 -136.757812 C 413.050781 -136.8125 412.761719 -135.902344 412.710938 -135.21875 C 412.492188 -133.554688 411.96875 -131.957031 411.230469 -130.453125 C 410.101562 -128.199219 408.335938 -126.21875 407.726562 -123.804688 L 407.699219 -123.671875 C 407.011719 -120.675781 408.109375 -117.578125 409.164062 -114.71875 C 409.695312 -113.308594 410.183594 -111.914062 410.726562 -110.546875 Z M 383.535156 150.722656 C 382.878906 150.121094 382.003906 149.65625 381.363281 149.195312 C 379.683594 147.960938 377.960938 146.714844 376.082031 145.757812 C 372.570312 143.992188 368.566406 143.460938 364.648438 143.824219 C 360.773438 144.199219 356.984375 145.472656 353.464844 147.214844 C 353.054688 147.40625 352.589844 147.628906 352.328125 147.988281 C 352.03125 148.296875 351.886719 148.773438 352.019531 149.21875 C 352.011719 149.261719 352.054688 149.269531 352.046875 149.316406 C 352.351562 149.84375 353.023438 149.941406 353.632812 150.117188 C 356.449219 150.808594 358.339844 153.433594 360.914062 154.8125 C 364.023438 156.496094 367.792969 156.191406 371.269531 155.5 C 374.945312 154.757812 378.4375 153.796875 382.269531 154.058594 C 383.554688 154.101562 385.125 154.113281 384.710938 152.363281 C 384.535156 151.675781 384.089844 151.164062 383.535156 150.722656 Z M 470.652344 -68.082031 C 471.089844 -67.527344 470.679688 -66.691406 470.238281 -66.136719 C 469.710938 -65.417969 469.179688 -64.652344 468.621094 -63.988281 C 468.613281 -63.945312 468.613281 -63.945312 468.566406 -63.953125 C 467.945312 -63.207031 467.246094 -62.527344 466.464844 -61.90625 C 465.003906 -60.695312 463.164062 -59.882812 461.265625 -59.875 C 457.289062 -59.890625 454.042969 -63.542969 450.015625 -63.753906 C 449.683594 -63.777344 449.375 -63.863281 449.109375 -63.988281 C 449.046875 -63.480469 448.976562 -62.960938 448.6875 -62.511719 C 447.933594 -61.148438 447.046875 -61.984375 446.734375 -63.117188 C 445.761719 -66.371094 442.1875 -68.476562 441.445312 -71.730469 C 441.339844 -71.890625 441.316406 -71.988281 441.300781 -72.132812 C 441.046875 -73.757812 441.539062 -75.410156 442.011719 -76.972656 C 442.34375 -78.101562 442.722656 -79.222656 443.054688 -80.351562 C 443.175781 -80.695312 443.296875 -81.042969 443.574219 -81.257812 C 444.046875 -81.527344 444.664062 -81.164062 445.050781 -80.804688 C 447.445312 -78.816406 449.125 -76.054688 449.769531 -73.003906 C 450.1875 -71.167969 450.105469 -69.433594 449.800781 -67.679688 C 449.886719 -67.894531 449.972656 -68.109375 450.019531 -68.328125 C 450.375 -69.546875 450.25 -70.914062 450.183594 -72.128906 C 450.117188 -73.113281 450.050781 -74.097656 450.027344 -75.074219 C 450.035156 -75.117188 450.054688 -75.207031 450.019531 -75.261719 C 449.992188 -75.777344 450.007812 -76.28125 450.023438 -76.785156 L 450.03125 -76.832031 C 450.003906 -76.929688 450.023438 -77.015625 450.054688 -77.148438 C 450.089844 -77.972656 450.269531 -78.8125 450.582031 -79.625 C 451.125 -81.078125 452.125 -82.296875 453.152344 -83.421875 C 455.308594 -85.730469 457.765625 -87.703125 460.476562 -89.34375 C 460.960938 -89.65625 461.621094 -89.929688 462.105469 -89.597656 C 462.597656 -89.304688 462.578125 -88.570312 462.511719 -88.03125 C 462.195312 -85.046875 461.894531 -82.109375 461.589844 -79.167969 C 461.542969 -78.949219 461.550781 -78.761719 461.5 -78.539062 C 461.375 -76.859375 461.113281 -75.203125 460.25 -73.769531 C 458.089844 -70.097656 453.269531 -69.117188 450.222656 -66.328125 C 450.730469 -66.511719 451.253906 -66.675781 451.714844 -66.949219 C 453.960938 -68.367188 456.5625 -69.058594 459.246094 -69.269531 C 462.640625 -69.5625 466.050781 -69.066406 469.425781 -68.621094 C 469.867188 -68.527344 470.363281 -68.46875 470.652344 -68.082031 Z M 449.578125 -66.523438 C 449.539062 -66.359375 449.496094 -66.191406 449.457031 -66.023438 C 449.464844 -66.027344 449.476562 -66.035156 449.484375 -66.039062 C 449.574219 -66.085938 449.679688 -66.113281 449.773438 -66.152344 C 449.683594 -66.277344 449.605469 -66.398438 449.578125 -66.523438 Z M 337.375 14.328125 C 337.339844 14.277344 337.285156 14.3125 337.285156 14.3125 L 336.976562 14.246094 C 336.828125 14.199219 336.695312 14.136719 336.550781 14.089844 C 336.695312 13.90625 336.769531 13.683594 336.640625 13.433594 C 336.421875 13.15625 335.5625 13.0625 335.28125 12.867188 C 333.96875 12.078125 332.851562 10.589844 331.800781 9.441406 C 331.652344 9.273438 331.492188 9.144531 331.34375 8.976562 C 329.433594 7.089844 327.445312 5.136719 324.910156 4.226562 C 321.761719 3.140625 318.273438 3.875 315.066406 4.804688 C 311.609375 5.824219 308.089844 7.152344 305.878906 9.914062 C 305.328125 10.539062 304.875 11.363281 305.078125 12.148438 C 305.113281 12.203125 305.105469 12.246094 305.136719 12.300781 C 305.300781 12.84375 305.765625 13.265625 306.203125 13.589844 C 308.796875 15.53125 312.253906 16.035156 315.503906 15.761719 C 317.964844 15.542969 320.402344 14.9375 322.835938 14.410156 C 318.707031 16.304688 315.296875 19.640625 313.007812 23.546875 C 312.835938 23.925781 312.617188 24.296875 312.535156 24.691406 C 312.453125 24.859375 312.414062 25.035156 312.367188 25.257812 C 312.289062 25.839844 312.464844 26.527344 312.949219 26.859375 C 313.390625 27.1875 313.949219 27.167969 314.5 27.191406 C 316.441406 27.191406 318.339844 27.179688 320.277344 27.222656 C 321.855469 27.191406 323.472656 27.214844 324.898438 26.59375 C 326.523438 25.921875 327.726562 24.609375 328.714844 23.25 C 329.707031 21.84375 330.542969 20.3125 331.652344 19.023438 C 332.726562 17.679688 334.167969 16.554688 335.859375 16.222656 C 336.25 16.121094 336.625 16.109375 337.023438 15.964844 C 337.480469 15.785156 337.992188 15.339844 337.875 14.804688 C 337.761719 14.457031 337.59375 14.375 337.375 14.328125 Z M 306.890625 61.460938 C 306.855469 60.714844 306.457031 59.578125 306.351562 59.050781 C 305.988281 57.078125 306.039062 55.101562 306.179688 53.144531 C 306.195312 52.640625 306.265625 52.101562 306.28125 51.59375 C 306.46875 49.1875 306.617188 46.769531 306.050781 44.429688 C 305.152344 41.046875 302.785156 38.277344 299.988281 36.203125 C 297.183594 34.171875 293.960938 32.789062 290.738281 31.40625 C 290.316406 31.226562 289.804688 31.023438 289.347656 31.203125 C 288.589844 31.503906 288.550781 32.558594 288.65625 33.367188 C 289.167969 37.035156 289.636719 40.691406 290.09375 44.394531 C 290.125 44.679688 290.167969 44.917969 290.199219 45.203125 C 290.46875 47.203125 290.832031 49.175781 291.914062 50.835938 C 292.9375 52.535156 294.582031 53.71875 296.183594 54.894531 C 297.9375 56.179688 299.6875 57.449219 301.433594 58.71875 C 299.648438 58.003906 297.765625 57.546875 295.832031 57.40625 C 292.152344 57.082031 288.4375 57.582031 284.761719 58.324219 C 283.460938 58.554688 282.101562 58.863281 280.867188 59.433594 C 280.253906 59.71875 279.5625 60.125 279.46875 60.796875 C 279.425781 61.203125 279.570312 61.605469 279.835938 61.890625 C 279.929688 62.097656 280.132812 62.234375 280.289062 62.359375 C 280.828125 62.660156 281.445312 62.792969 282.011719 62.957031 C 284.066406 63.535156 285.96875 64.589844 287.902344 65.507812 C 289.875 66.441406 291.933594 67.203125 294.074219 67.152344 C 298.386719 67.101562 302.074219 63.914062 306.332031 63.484375 C 307.769531 63.308594 307.851562 62.324219 306.890625 61.460938 Z M 510.375 19.148438 C 510.203125 18.652344 509.4375 18.765625 508.929688 18.980469 C 505.492188 20.558594 502.011719 22.125 499.0625 24.453125 C 497.902344 25.367188 496.867188 26.457031 495.941406 27.621094 C 496.039062 27.378906 496.136719 27.136719 496.226562 26.898438 C 497.417969 23.917969 498.242188 20.488281 497.019531 17.546875 C 496.246094 15.761719 494.832031 14.351562 493.351562 13.066406 C 490.996094 11.082031 488.464844 9.296875 485.582031 8.265625 C 485.105469 8.117188 484.488281 7.984375 484.09375 8.316406 C 483.507812 8.882812 484.054688 9.785156 484.472656 10.429688 C 485.855469 12.621094 485.539062 15.417969 485.042969 17.945312 L 484.929688 18.476562 C 484.4375 20.777344 483.867188 23.242188 484.449219 25.492188 C 485.238281 28.523438 487.847656 30.605469 489.75 32.957031 C 490.105469 33.386719 490.621094 34.410156 491.164062 35.304688 C 489.96875 34.632812 488.460938 34.3125 487.242188 34.082031 C 484.800781 33.609375 482.351562 33.363281 479.851562 33.382812 C 476.984375 33.371094 473.898438 33.730469 471.65625 35.5625 C 471.316406 35.859375 470.957031 36.242188 471.046875 36.679688 C 471.03125 36.769531 471.019531 36.8125 471.054688 36.867188 C 471.175781 37.167969 471.464844 37.324219 471.757812 37.476562 C 473.714844 38.496094 475.671875 39.515625 477.628906 40.535156 C 479.082031 41.308594 480.582031 42.089844 482.230469 42.164062 C 485.476562 42.347656 488.074219 39.945312 491.058594 38.964844 C 492.367188 38.546875 493.589844 38.1875 492.726562 36.738281 C 492.835938 36.734375 492.914062 36.671875 493 36.628906 C 493.058594 36.917969 493.160156 37.179688 493.398438 37.339844 C 493.667969 37.582031 494.09375 37.535156 494.511719 37.53125 C 498.039062 37.265625 501.886719 36.792969 504.414062 34.285156 C 505.65625 33.023438 506.386719 31.332031 506.984375 29.609375 C 507.160156 29.230469 507.296875 28.800781 507.425781 28.410156 C 508.414062 25.523438 509.34375 22.671875 510.320312 19.832031 C 510.414062 19.621094 510.46875 19.355469 510.375 19.148438 Z M 510.375 19.148438 " fill-opacity="1" fill-rule="nonzero"/><path fill="#587e60" d="M 333.054688 14.226562 C 333.238281 14.265625 333.296875 14.480469 333.183594 14.617188 C 332.792969 15.097656 332.042969 15.273438 331.46875 15.414062 C 330.84375 15.5625 330.214844 15.695312 329.582031 15.816406 C 328.222656 16.078125 326.828125 16.339844 325.570312 16.9375 C 324.21875 17.578125 323.078125 18.609375 321.945312 19.566406 C 320.789062 20.539062 319.40625 21.398438 318.484375 22.613281 C 318.3125 22.839844 317.949219 22.570312 318.082031 22.332031 C 318.808594 21.023438 320.199219 20.128906 321.285156 19.128906 C 322.417969 18.082031 323.601562 16.992188 324.972656 16.269531 C 326.238281 15.601562 327.617188 15.238281 329.003906 14.925781 C 329.722656 14.765625 330.441406 14.636719 331.160156 14.46875 C 331.746094 14.335938 332.453125 14.089844 333.054688 14.226562 Z M 413.488281 -109 C 413.277344 -109.011719 413.066406 -109.035156 412.855469 -109.03125 C 412.8125 -109.039062 412.714844 -109.015625 412.667969 -109.023438 C 411.679688 -107.433594 410.992188 -105.5 413.816406 -105.730469 C 415.558594 -105.867188 416.953125 -105.890625 418.710938 -105.46875 C 420.164062 -105.113281 421.691406 -104.695312 423.207031 -105.066406 C 424.863281 -105.449219 426.148438 -106.703125 427.21875 -108.042969 C 427.96875 -108.945312 428.671875 -109.859375 429.535156 -110.644531 C 429.4375 -110.621094 429.339844 -110.59375 429.285156 -110.5625 C 427.195312 -109.667969 425.375 -108.066406 423.105469 -107.628906 C 420.402344 -107.097656 417.695312 -108.355469 414.933594 -108.839844 C 415.3125 -109.300781 415.695312 -109.761719 416.191406 -110.070312 C 417.34375 -110.789062 418.71875 -111.058594 419.96875 -111.554688 C 422.484375 -112.542969 425.34375 -112.859375 428.019531 -112.492188 C 428.3125 -112.453125 428.414062 -112.882812 428.117188 -112.949219 C 425.289062 -113.582031 422.28125 -113.480469 419.542969 -112.523438 C 418.21875 -112.058594 416.796875 -111.734375 415.589844 -110.996094 C 414.851562 -110.546875 414.0625 -109.808594 413.488281 -109 Z M 383.535156 150.722656 C 383.296875 150.765625 383.097656 150.816406 382.902344 150.867188 C 382.472656 150.984375 382.03125 151.085938 381.59375 151.191406 C 379.703125 150.289062 377.335938 150.332031 375.347656 149.761719 C 372.816406 149.035156 370.441406 147.914062 367.871094 147.308594 C 362.953125 146.144531 357.835938 146.355469 353.144531 148.300781 C 352.835938 148.425781 352.980469 148.890625 353.308594 148.792969 C 358.460938 147.28125 363.453125 147.050781 368.613281 148.652344 C 370.984375 149.386719 373.234375 150.453125 375.632812 151.09375 C 376.78125 151.402344 377.921875 151.507812 379.089844 151.6875 C 379.144531 151.695312 379.203125 151.714844 379.257812 151.722656 C 373.507812 152.902344 367.542969 153.160156 361.914062 151.652344 C 358.640625 150.722656 355.382812 149.289062 352.019531 149.21875 C 352.011719 149.261719 352.054688 149.269531 352.046875 149.316406 C 352.351562 149.84375 353.023438 149.941406 353.632812 150.117188 C 356.449219 150.808594 358.339844 153.433594 360.914062 154.8125 C 364.023438 156.496094 367.792969 156.191406 371.269531 155.5 C 374.945312 154.757812 378.4375 153.796875 382.269531 154.058594 C 383.554688 154.101562 385.125 154.113281 384.710938 152.363281 C 384.535156 151.675781 384.089844 151.164062 383.535156 150.722656 Z M 504.113281 32 C 501.558594 33.351562 498.480469 33.246094 495.695312 33.945312 C 495.257812 34.050781 494.828125 34.179688 494.414062 34.34375 C 494.804688 33.875 495.226562 33.429688 495.652344 33.011719 C 497.074219 31.621094 498.6875 30.421875 500.359375 29.347656 C 501.945312 28.332031 503.402344 27.164062 504.789062 25.890625 C 505.4375 25.296875 506.121094 24.722656 506.613281 23.984375 C 507.148438 23.167969 507.375 22.1875 508.023438 21.441406 C 508.300781 21.121094 507.839844 20.710938 507.539062 21 C 506.945312 21.578125 506.609375 22.308594 506.1875 23.007812 C 505.617188 23.96875 504.738281 24.621094 503.890625 25.320312 C 502.289062 26.640625 500.601562 27.648438 498.804688 28.667969 C 497.125 29.621094 495.582031 30.761719 494.175781 32.085938 C 493.886719 32.359375 493.53125 32.730469 493.175781 33.148438 C 493.074219 32.925781 492.964844 32.707031 492.875 32.488281 C 492.472656 31.484375 492.253906 30.433594 492.105469 29.363281 C 491.769531 26.949219 491.878906 24.570312 491.867188 22.144531 C 491.855469 20 491.964844 17.953125 490.980469 16 C 490.003906 14.070312 489.039062 12.441406 487.550781 10.859375 C 487.316406 10.609375 486.957031 10.960938 487.109375 11.234375 C 488.203125 13.15625 489.4375 14.941406 490.070312 17.09375 C 490.421875 18.289062 490.082031 19.550781 489.9375 20.757812 C 489.800781 21.882812 489.675781 23.007812 489.59375 24.140625 C 489.539062 24.875 489.554688 25.589844 489.554688 26.308594 C 489.523438 26.277344 489.515625 26.226562 489.484375 26.195312 C 489.140625 25.847656 488.671875 25.652344 488.269531 25.382812 C 486.4375 24.207031 485.375 22.039062 485.046875 19.886719 C 484.960938 19.410156 484.914062 18.980469 484.929688 18.476562 C 484.441406 20.777344 483.867188 23.242188 484.449219 25.492188 C 485.238281 28.523438 487.847656 30.605469 489.75 32.957031 C 490.242188 33.554688 491.035156 35.28125 491.808594 36.207031 C 491.808594 36.226562 491.796875 36.242188 491.796875 36.261719 C 488.867188 35.578125 486.148438 36.320312 483.230469 36.960938 C 481.347656 37.371094 479.808594 36.894531 477.988281 36.453125 C 476.386719 36.066406 474.71875 36.007812 473.089844 36.246094 C 472.871094 36.28125 472.878906 36.617188 473.113281 36.601562 C 475.058594 36.472656 476.875 36.824219 478.699219 37.488281 C 480.222656 38.039062 481.574219 38.3125 483.1875 38.023438 C 484.8125 37.738281 486.390625 37.253906 488.039062 37.054688 C 488.613281 36.988281 489.183594 36.976562 489.75 37.003906 C 489.203125 37.195312 488.652344 37.394531 488.148438 37.648438 C 486.753906 38.324219 485.332031 39.128906 483.828125 39.453125 C 481.496094 39.972656 479.027344 39.402344 476.75 38.589844 C 474.847656 37.953125 472.988281 37.140625 471.046875 36.679688 C 471.03125 36.769531 471.019531 36.8125 471.054688 36.867188 C 471.175781 37.167969 471.464844 37.324219 471.757812 37.476562 C 473.714844 38.496094 475.671875 39.515625 477.628906 40.535156 C 479.082031 41.308594 480.582031 42.089844 482.230469 42.164062 C 485.476562 42.347656 488.074219 39.945312 491.058594 38.964844 C 492.339844 38.558594 493.542969 38.203125 492.777344 36.824219 C 492.871094 36.75 492.921875 36.636719 492.992188 36.542969 C 493.042969 36.867188 493.136719 37.164062 493.398438 37.339844 C 493.667969 37.582031 494.09375 37.535156 494.511719 37.53125 C 498.039062 37.265625 501.886719 36.792969 504.414062 34.285156 C 505.65625 33.023438 506.386719 31.332031 506.984375 29.609375 C 506.171875 30.59375 505.214844 31.402344 504.113281 32 Z M 462.363281 -61.765625 C 459.984375 -61.902344 457.871094 -63.277344 455.757812 -64.421875 C 455.160156 -64.769531 454.523438 -65.078125 453.875 -65.355469 C 453.890625 -65.359375 453.902344 -65.367188 453.914062 -65.371094 C 455.078125 -65.734375 456.285156 -65.925781 457.492188 -66.050781 C 458.949219 -66.199219 460.414062 -66.074219 461.871094 -66.191406 C 463.308594 -66.308594 464.71875 -66.542969 466.144531 -66.207031 C 466.4375 -66.136719 466.523438 -66.574219 466.242188 -66.65625 C 464.886719 -67.046875 463.464844 -66.964844 462.070312 -66.933594 C 460.449219 -66.898438 458.824219 -67.023438 457.199219 -66.917969 C 455.945312 -66.839844 454.699219 -66.65625 453.492188 -66.300781 C 453.101562 -66.1875 452.691406 -66.042969 452.289062 -65.886719 C 451.503906 -66.078125 450.707031 -66.148438 449.910156 -66.058594 C 452.929688 -69.070312 458.015625 -69.976562 460.25 -73.769531 C 461.113281 -75.203125 461.375 -76.859375 461.5 -78.539062 C 461.417969 -78.371094 461.304688 -78.257812 461.1875 -78.144531 C 460.394531 -77.253906 459.566406 -76.410156 458.636719 -75.730469 C 457.53125 -74.90625 456.292969 -74.292969 455 -73.875 C 454.289062 -73.617188 453.53125 -73.496094 452.796875 -73.644531 C 452.886719 -73.9375 452.960938 -74.242188 453.066406 -74.523438 C 453.570312 -75.878906 454.144531 -77.234375 454.835938 -78.503906 C 455.542969 -79.800781 456.464844 -80.96875 457.210938 -82.246094 C 457.9375 -83.488281 458.574219 -84.777344 459.558594 -85.84375 C 459.742188 -86.042969 459.445312 -86.300781 459.25 -86.125 C 458.21875 -85.160156 457.480469 -83.96875 456.691406 -82.8125 C 455.808594 -81.511719 454.78125 -80.308594 453.976562 -78.949219 C 453.195312 -77.621094 452.566406 -76.164062 452.023438 -74.722656 C 451.945312 -74.515625 451.867188 -74.300781 451.785156 -74.085938 C 451.382812 -74.382812 451.023438 -74.753906 450.792969 -75.1875 C 450.460938 -75.8125 450.230469 -76.464844 450.054688 -77.148438 C 450.019531 -77.203125 450.035156 -77.292969 450.003906 -77.34375 C 450.007812 -77.160156 450.023438 -77.015625 450.03125 -76.832031 L 450.023438 -76.785156 C 450.050781 -76.273438 450.078125 -75.757812 450.019531 -75.261719 C 450.054688 -75.207031 450.035156 -75.117188 450.027344 -75.074219 C 450.050781 -74.097656 450.117188 -73.113281 450.183594 -72.128906 C 450.25 -70.914062 450.375 -69.546875 450.019531 -68.328125 C 449.855469 -67.550781 449.179688 -66.796875 449.824219 -66.054688 C 449.710938 -66.042969 449.597656 -66.0625 449.484375 -66.039062 C 449.332031 -65.980469 449.171875 -65.875 449.011719 -65.769531 C 448.917969 -65.695312 448.917969 -65.628906 448.847656 -65.550781 C 448.710938 -65.914062 448.523438 -66.253906 448.316406 -66.585938 C 448.261719 -67.28125 448.113281 -67.980469 447.984375 -68.652344 C 447.746094 -69.890625 447.453125 -71.109375 447.085938 -72.316406 C 446.359375 -74.722656 445.347656 -76.949219 444.035156 -79.09375 C 443.90625 -79.300781 443.535156 -79.136719 443.640625 -78.902344 C 444.632812 -76.683594 445.378906 -74.304688 445.957031 -71.945312 C 446.25 -70.761719 446.496094 -69.558594 446.714844 -68.359375 C 446.714844 -68.355469 446.714844 -68.355469 446.714844 -68.351562 C 446.539062 -68.492188 446.371094 -68.652344 446.183594 -68.777344 C 444.960938 -69.546875 443.582031 -70.027344 442.410156 -70.832031 C 442.007812 -71.101562 441.691406 -71.355469 441.445312 -71.730469 C 442.1875 -68.476562 445.761719 -66.371094 446.734375 -63.117188 C 447.046875 -61.984375 447.933594 -61.148438 448.6875 -62.511719 C 448.976562 -62.960938 449.046875 -63.480469 449.109375 -63.988281 C 449.375 -63.863281 449.683594 -63.777344 450.015625 -63.753906 C 454.042969 -63.542969 457.289062 -59.890625 461.265625 -59.875 C 463.164062 -59.882812 465.003906 -60.695312 466.464844 -61.90625 C 467.246094 -62.527344 467.945312 -63.207031 468.566406 -63.953125 C 467.96875 -63.527344 467.332031 -63.152344 466.707031 -62.824219 C 465.359375 -62.140625 463.878906 -61.71875 462.363281 -61.765625 Z M 410.726562 -110.546875 C 410.863281 -110.101562 411.054688 -109.695312 411.351562 -109.351562 C 411.761719 -108.894531 412.648438 -108.707031 413.019531 -109.367188 C 413.28125 -109.726562 413.042969 -110.5625 413.148438 -111.046875 C 413.472656 -112.78125 414.558594 -114.398438 415.558594 -115.847656 C 416.546875 -117.210938 417.566406 -118.515625 418.304688 -120.023438 C 416.722656 -119.109375 415.195312 -118.230469 413.65625 -117.3125 C 414.167969 -118.96875 414.675781 -120.660156 415.03125 -122.355469 C 415.390625 -124.074219 415.523438 -125.855469 415.316406 -127.601562 C 415.105469 -129.414062 414.519531 -131.15625 414.476562 -132.988281 C 414.472656 -133.222656 414.085938 -133.261719 414.058594 -133.019531 C 413.84375 -131.183594 414.136719 -129.375 414.222656 -127.539062 C 414.3125 -125.554688 414.082031 -123.609375 413.5625 -121.695312 C 413.136719 -120.117188 412.664062 -118.550781 412.179688 -116.988281 C 411.917969 -117.09375 411.675781 -117.285156 411.472656 -117.507812 C 409.765625 -119.257812 407.960938 -121.214844 407.699219 -123.671875 C 407.011719 -120.675781 408.109375 -117.578125 409.164062 -114.71875 C 409.695312 -113.308594 410.183594 -111.914062 410.726562 -110.546875 Z M 319.164062 -132.273438 C 317.753906 -131.742188 316.550781 -130.65625 315.058594 -130.375 C 313.167969 -129.988281 311.300781 -130.859375 309.40625 -131.347656 C 309.859375 -131.703125 310.292969 -132.097656 310.734375 -132.421875 C 311.992188 -133.335938 313.59375 -133.78125 315.128906 -133.929688 C 316.722656 -134.082031 318.351562 -134.011719 319.953125 -134.082031 C 320.773438 -134.117188 321.59375 -134.132812 322.40625 -134.265625 C 323.21875 -134.398438 324.023438 -134.578125 324.847656 -134.632812 C 325.085938 -134.648438 325.136719 -135.042969 324.878906 -135.066406 C 323.296875 -135.238281 321.648438 -134.925781 320.054688 -134.902344 C 318.308594 -134.878906 316.535156 -135.011719 314.796875 -134.871094 C 313.339844 -134.757812 311.855469 -134.492188 310.570312 -133.769531 C 309.621094 -133.234375 308.597656 -132.472656 307.796875 -131.636719 C 307.558594 -131.652344 307.324219 -131.675781 307.097656 -131.660156 C 306.816406 -131.210938 306.535156 -130.761719 306.109375 -130.296875 C 305.6875 -129.835938 305.417969 -129.429688 305.417969 -128.78125 C 306.808594 -129.871094 308.660156 -129.660156 310.277344 -129.222656 C 311.886719 -128.742188 313.539062 -128.019531 315.199219 -128.21875 C 317.289062 -128.46875 318.957031 -130.003906 320.652344 -131.214844 C 321.691406 -131.964844 322.789062 -132.5625 323.96875 -133.09375 C 322.351562 -132.886719 320.679688 -132.871094 319.164062 -132.273438 Z M 307.519531 -135.589844 C 308.023438 -136.222656 308.292969 -137.042969 308.839844 -137.664062 C 309.96875 -139.042969 311.355469 -140.132812 312.78125 -141.167969 C 314.933594 -142.789062 317.207031 -144.335938 318.734375 -146.503906 C 319.609375 -147.796875 320.199219 -149.242188 320.527344 -150.789062 C 318.953125 -148.398438 316.851562 -146.351562 314.398438 -144.84375 C 312.601562 -143.710938 310.605469 -142.847656 308.929688 -141.570312 C 309.277344 -142.808594 309.59375 -144.050781 310.15625 -145.207031 C 311 -146.953125 312.253906 -148.445312 313.3125 -150.054688 C 314.335938 -151.617188 315.542969 -153.140625 316.363281 -154.820312 C 317.261719 -156.660156 317.703125 -158.675781 318 -160.683594 C 318.039062 -160.945312 317.675781 -161.019531 317.605469 -160.769531 C 316.988281 -158.636719 316.332031 -156.46875 315.167969 -154.5625 C 314.148438 -152.886719 312.90625 -151.257812 311.738281 -149.683594 C 310.007812 -147.351562 308.40625 -144.851562 307.710938 -142.046875 C 307.578125 -143.175781 307.394531 -144.296875 307.066406 -145.390625 C 306.996094 -144.621094 306.957031 -143.796875 306.929688 -143.019531 C 306.800781 -140.6875 306.78125 -138.429688 306.753906 -136.125 C 306.726562 -135.34375 307.066406 -134.992188 307.519531 -135.589844 Z M 283.277344 -153.382812 C 284.972656 -151.359375 287.039062 -149.761719 289.113281 -148.207031 C 289.472656 -147.945312 290.246094 -147.226562 290.730469 -147.539062 C 291.105469 -147.785156 290.835938 -148.257812 290.8125 -148.585938 C 290.644531 -149.960938 291.089844 -151.390625 291.371094 -152.71875 C 291.476562 -153.203125 291.578125 -153.691406 291.636719 -154.1875 C 291.238281 -154.039062 290.808594 -153.761719 290.363281 -153.625 C 289.59375 -153.304688 288.734375 -153.296875 287.902344 -153.46875 C 287.46875 -154.40625 286.949219 -155.316406 286.578125 -156.28125 C 285.917969 -158.011719 285.886719 -160.039062 285.773438 -161.871094 C 285.65625 -163.777344 285.757812 -165.730469 285.414062 -167.613281 C 285.109375 -169.28125 284.097656 -170.820312 284.308594 -172.558594 C 284.34375 -172.84375 283.929688 -172.941406 283.867188 -172.652344 C 283.519531 -171.097656 283.984375 -169.683594 284.316406 -168.171875 C 284.765625 -166.113281 284.523438 -163.898438 284.597656 -161.800781 C 284.660156 -160.003906 284.667969 -158.074219 285.167969 -156.332031 C 285.367188 -155.640625 285.699219 -154.9375 286.03125 -154.238281 C 284.886719 -154.964844 283.964844 -156.015625 283.144531 -157.109375 C 282.257812 -158.359375 281.441406 -159.738281 280.875 -161.199219 C 280.640625 -161.847656 280.421875 -162.542969 280.285156 -163.21875 C 280.117188 -162.421875 280.035156 -161.609375 280.097656 -160.808594 C 280.160156 -158.070312 281.5 -155.472656 283.277344 -153.382812 Z M 279.882812 -76.375 C 279.667969 -77.527344 279.582031 -78.65625 279.5 -79.785156 C 278.824219 -79.878906 278.089844 -79.898438 277.433594 -80.085938 C 277.164062 -80.167969 276.925781 -80.308594 276.683594 -80.445312 C 276.523438 -81.984375 275.828125 -83.589844 275.214844 -84.882812 C 274.394531 -86.625 273.359375 -88.289062 272.128906 -89.773438 C 269.492188 -92.945312 266.074219 -94.828125 262.464844 -96.675781 C 262.15625 -96.835938 261.949219 -96.398438 262.222656 -96.214844 C 265.410156 -94.089844 268.648438 -91.941406 271.011719 -88.878906 C 272.097656 -87.46875 273.007812 -85.957031 273.789062 -84.363281 C 274.175781 -83.570312 274.507812 -82.753906 274.847656 -81.941406 C 274.472656 -82.332031 274.105469 -82.726562 273.730469 -83.09375 C 271.914062 -84.777344 269.59375 -85.828125 267.640625 -87.304688 C 263.976562 -90.078125 261.871094 -94.316406 259.980469 -98.460938 C 259.816406 -98.128906 259.867188 -97.703125 259.976562 -97.355469 C 260.546875 -95.476562 261.074219 -93.609375 261.601562 -91.738281 C 262.1875 -89.71875 262.816406 -87.691406 264.03125 -85.996094 C 265.746094 -83.644531 268.417969 -82.289062 270.804688 -80.667969 C 272.703125 -79.390625 274.457031 -77.898438 276.078125 -76.277344 C 273.273438 -76.636719 270.542969 -75.519531 267.714844 -75.386719 C 266.265625 -75.320312 264.972656 -75.808594 263.59375 -76.171875 C 262.257812 -76.527344 260.789062 -76.796875 259.707031 -77.710938 C 259.460938 -77.917969 259.160156 -77.578125 259.375 -77.34375 C 260.273438 -76.375 261.566406 -75.84375 262.789062 -75.417969 C 264.203125 -74.921875 265.660156 -74.214844 267.164062 -74.074219 C 268.785156 -73.921875 270.644531 -74.21875 272.21875 -74.597656 C 273.125 -74.816406 273.96875 -75.164062 274.902344 -75.28125 C 275.535156 -75.363281 276.132812 -75.464844 276.71875 -75.660156 C 276.851562 -75.515625 277.011719 -75.394531 277.144531 -75.25 C 277.148438 -75.242188 277.164062 -75.226562 277.167969 -75.222656 C 274.539062 -74.097656 271.917969 -72.9375 269.117188 -72.757812 C 266.628906 -72.59375 264.179688 -73.257812 261.925781 -74.199219 C 260.488281 -74.832031 259.167969 -75.574219 257.855469 -76.363281 C 259.4375 -74.683594 261.023438 -73.007812 262.980469 -71.757812 C 264.921875 -70.464844 267.292969 -69.632812 269.574219 -69.933594 C 272.179688 -70.207031 274.472656 -71.84375 277.0625 -72.261719 C 278.066406 -72.417969 279.238281 -72.492188 279.835938 -73.332031 C 279.984375 -73.53125 280.003906 -73.785156 280.050781 -74.03125 C 280.375 -74.667969 279.957031 -75.828125 279.882812 -76.375 Z M 337.375 14.328125 C 337.339844 14.277344 337.285156 14.3125 337.285156 14.3125 C 335.304688 14.488281 333.371094 15.09375 331.671875 16.117188 C 327.746094 18.464844 325.140625 22.855469 320.871094 24.4375 C 318.214844 25.398438 315.339844 25.199219 312.535156 24.691406 C 312.453125 24.859375 312.414062 25.035156 312.367188 25.257812 C 312.289062 25.839844 312.464844 26.527344 312.949219 26.859375 C 313.390625 27.1875 313.949219 27.167969 314.5 27.191406 C 316.441406 27.191406 318.339844 27.179688 320.277344 27.222656 C 321.855469 27.191406 323.472656 27.214844 324.898438 26.59375 C 326.523438 25.921875 327.726562 24.609375 328.714844 23.25 C 329.707031 21.84375 330.542969 20.3125 331.652344 19.023438 C 332.726562 17.679688 334.167969 16.554688 335.859375 16.222656 C 336.25 16.121094 336.625 16.109375 337.023438 15.964844 C 337.480469 15.785156 337.992188 15.339844 337.875 14.804688 C 337.761719 14.457031 337.59375 14.375 337.375 14.328125 Z M 305.136719 12.300781 C 305.300781 12.84375 305.765625 13.265625 306.203125 13.589844 C 308.796875 15.53125 312.253906 16.035156 315.503906 15.761719 C 318.710938 15.476562 321.875 14.53125 325.050781 13.960938 C 328.234375 13.347656 331.609375 13.144531 334.667969 14.214844 C 335.011719 14.332031 335.390625 14.507812 335.765625 14.496094 C 336.28125 14.464844 336.933594 14.003906 336.640625 13.433594 C 336.421875 13.15625 335.5625 13.0625 335.28125 12.867188 C 333.96875 12.078125 332.851562 10.589844 331.800781 9.441406 C 331.707031 9.652344 331.582031 9.8125 331.410156 9.960938 C 330.808594 10.546875 330.023438 10.878906 329.203125 11.058594 C 328.296875 10.613281 327.273438 10.335938 326.363281 10.097656 C 324.226562 9.539062 322.105469 9.160156 319.894531 9.078125 C 316.261719 8.945312 311.730469 9.113281 308.734375 11.457031 C 308.550781 11.597656 308.609375 11.964844 308.886719 11.925781 C 309.132812 11.886719 309.378906 11.863281 309.625 11.851562 C 309.722656 11.847656 309.742188 11.691406 309.640625 11.671875 C 311.136719 11.101562 312.597656 10.648438 314.230469 10.457031 C 315.996094 10.246094 317.789062 10.261719 319.5625 10.339844 C 320.351562 10.371094 321.132812 10.46875 321.90625 10.578125 C 318.960938 10.578125 316.027344 11.5 313.128906 12.15625 C 310.539062 12.804688 307.648438 13.113281 305.136719 12.300781 Z M 306.890625 61.460938 C 306.855469 60.714844 306.457031 59.578125 306.351562 59.050781 C 305.988281 57.078125 306.039062 55.101562 306.179688 53.144531 C 306.195312 52.640625 306.265625 52.101562 306.28125 51.59375 C 305.519531 52.125 304.914062 53.011719 304.230469 53.605469 C 303.421875 54.308594 302.378906 54.621094 301.304688 54.679688 C 301.300781 54.671875 301.296875 54.667969 301.296875 54.664062 C 300.398438 52.21875 300.058594 49.625 299.425781 47.109375 C 298.222656 42.316406 295.273438 38.566406 291.589844 35.382812 C 291.402344 35.222656 291.164062 35.488281 291.332031 35.664062 C 293.121094 37.511719 294.769531 39.589844 296.042969 41.828125 C 297.402344 44.210938 298.039062 46.734375 298.488281 49.421875 C 298.773438 51.136719 299.054688 52.875 299.566406 54.539062 C 299.410156 54.503906 299.25 54.496094 299.097656 54.453125 C 297.410156 53.90625 295.953125 52.71875 294.691406 51.476562 C 292.867188 49.609375 291.378906 47.488281 290.199219 45.203125 C 290.46875 47.203125 290.832031 49.175781 291.910156 50.835938 C 292.9375 52.535156 294.582031 53.71875 296.183594 54.894531 C 298.085938 56.285156 299.980469 57.660156 301.875 59.039062 C 302.054688 59.285156 302.226562 59.539062 302.414062 59.785156 C 302.617188 60.050781 302.832031 60.332031 303.058594 60.605469 C 301.554688 59.808594 299.738281 59.578125 298.078125 59.296875 C 296.449219 59.023438 294.726562 58.777344 293.074219 58.890625 C 291.449219 59.003906 289.871094 59.429688 288.269531 59.703125 C 286.753906 59.964844 285.230469 60.132812 283.820312 60.796875 C 283.554688 60.921875 283.679688 61.355469 283.96875 61.242188 C 285.449219 60.660156 287.042969 60.597656 288.605469 60.375 C 290.109375 60.164062 291.601562 59.820312 293.128906 59.828125 C 294.820312 59.835938 296.507812 60.292969 298.148438 60.664062 C 298.902344 60.832031 299.675781 61.050781 300.449219 61.21875 C 297.210938 61.832031 293.976562 62.628906 290.6875 62.640625 C 287.171875 62.628906 283.714844 61.703125 280.207031 61.878906 C 280.109375 61.90625 279.976562 61.875 279.835938 61.890625 C 279.929688 62.097656 280.132812 62.234375 280.289062 62.359375 C 280.828125 62.660156 281.445312 62.792969 282.011719 62.957031 C 284.0625 63.535156 285.96875 64.589844 287.898438 65.511719 C 289.875 66.441406 291.933594 67.203125 294.074219 67.152344 C 298.386719 67.101562 302.074219 63.914062 306.332031 63.484375 C 307.769531 63.308594 307.851562 62.324219 306.890625 61.460938 Z M 306.890625 61.460938 " fill-opacity="1" fill-rule="nonzero"/></g></g></g></g></svg>