<svg xmlns="http://www.w3.org/2000/svg" xmlns:xlink="http://www.w3.org/1999/xlink" width="500" zoomAndPan="magnify" viewBox="0 0 375 374.999991" height="500" preserveAspectRatio="xMidYMid meet" version="1.0"><defs><clipPath id="2c9755f821"><path d="M 239 23 L 375 23 L 375 375 L 239 375 Z M 239 23 " clip-rule="nonzero"/></clipPath><clipPath id="1c541ba00f"><path d="M 308.085938 0 L 498.113281 491.011719 L 366.617188 541.902344 L 176.589844 50.890625 Z M 308.085938 0 " clip-rule="nonzero"/></clipPath><clipPath id="2d6eec0709"><path d="M 308.085938 0 L 443.164062 349.023438 L 311.667969 399.914062 L 176.589844 50.890625 Z M 308.085938 0 " clip-rule="nonzero"/></clipPath><clipPath id="ccd943f951"><path d="M 308.085938 0 L 498.113281 491.011719 L 366.617188 541.902344 L 176.589844 50.890625 Z M 308.085938 0 " clip-rule="nonzero"/></clipPath><clipPath id="ca5ae5322c"><path d="M 239 30 L 375 30 L 375 375 L 239 375 Z M 239 30 " clip-rule="nonzero"/></clipPath><clipPath id="50739a897b"><path d="M 308.085938 0 L 498.113281 491.011719 L 366.617188 541.902344 L 176.589844 50.890625 Z M 308.085938 0 " clip-rule="nonzero"/></clipPath><clipPath id="2eb1ccd63e"><path d="M 308.085938 0 L 443.164062 349.023438 L 311.667969 399.914062 L 176.589844 50.890625 Z M 308.085938 0 " clip-rule="nonzero"/></clipPath><clipPath id="dc8bcd7e6e"><path d="M 308.085938 0 L 498.113281 491.011719 L 366.617188 541.902344 L 176.589844 50.890625 Z M 308.085938 0 " clip-rule="nonzero"/></clipPath><clipPath id="1cd127b708"><path d="M 269 71 L 375 71 L 375 375 L 269 375 Z M 269 71 " clip-rule="nonzero"/></clipPath><clipPath id="d880c552f7"><path d="M 308.085938 0 L 498.113281 491.011719 L 366.617188 541.902344 L 176.589844 50.890625 Z M 308.085938 0 " clip-rule="nonzero"/></clipPath><clipPath id="87e94b31e0"><path d="M 308.085938 0 L 443.164062 349.023438 L 311.667969 399.914062 L 176.589844 50.890625 Z M 308.085938 0 " clip-rule="nonzero"/></clipPath><clipPath id="a27f46f726"><path d="M 308.085938 0 L 498.113281 491.011719 L 366.617188 541.902344 L 176.589844 50.890625 Z M 308.085938 0 " clip-rule="nonzero"/></clipPath><clipPath id="97690756ba"><path d="M 269 72 L 375 72 L 375 375 L 269 375 Z M 269 72 " clip-rule="nonzero"/></clipPath><clipPath id="e301f8d40d"><path d="M 308.085938 0 L 498.113281 491.011719 L 366.617188 541.902344 L 176.589844 50.890625 Z M 308.085938 0 " clip-rule="nonzero"/></clipPath><clipPath id="36771fa16a"><path d="M 308.085938 0 L 443.164062 349.023438 L 311.667969 399.914062 L 176.589844 50.890625 Z M 308.085938 0 " clip-rule="nonzero"/></clipPath><clipPath id="1bc641ca04"><path d="M 308.085938 0 L 498.113281 491.011719 L 366.617188 541.902344 L 176.589844 50.890625 Z M 308.085938 0 " clip-rule="nonzero"/></clipPath></defs><g clip-path="url(#2c9755f821)"><g clip-path="url(#1c541ba00f)"><g clip-path="url(#2d6eec0709)"><g clip-path="url(#ccd943f951)"><path fill="#a47052" d="M 431.488281 514.8125 C 432.796875 513.1875 432.207031 510.859375 431.253906 509.042969 C 430.929688 508.359375 430.566406 507.75 430.242188 507.066406 C 428.792969 504.136719 427.457031 501.160156 425.953125 498.25 C 424.347656 495.070312 422.558594 491.894531 421.417969 488.46875 C 418.789062 480.382812 416.398438 471.457031 414.894531 463.058594 C 414.023438 458.222656 413.152344 453.382812 412.222656 448.566406 C 412.808594 447.65625 413.488281 446.832031 414.167969 446.007812 C 416.289062 443.253906 416.867188 440.222656 417.523438 436.914062 C 418.171875 433.421875 418.851562 429.851562 419.628906 426.371094 C 419.882812 425.089844 417.941406 424.59375 417.441406 425.722656 C 415.867188 429.078125 414.492188 432.476562 413.066406 435.894531 C 412.421875 437.457031 411.914062 439.210938 411.117188 440.703125 C 410.996094 440.875 410.855469 440.992188 410.789062 441.144531 C 409.023438 432.222656 407.007812 423.464844 404.546875 414.6875 C 400.113281 399.195312 398.296875 382.875 393.070312 367.75 C 387.726562 352.171875 382.410156 336.335938 375.078125 321.585938 C 368.230469 307.773438 360.667969 294.367188 352.101562 281.59375 C 351.316406 280.214844 350.5 278.910156 349.714844 277.527344 C 346.734375 272.570312 343.808594 267.59375 340.914062 262.539062 C 337.765625 257.148438 335.453125 251.496094 332.71875 245.882812 C 327.269531 234.710938 318.925781 225.097656 313.007812 214.167969 C 312.34375 212.929688 311.695312 211.742188 310.953125 210.472656 C 309.707031 207.089844 308.570312 203.664062 307.378906 200.257812 C 305.925781 191.34375 303.371094 182.480469 301.863281 173.585938 C 300.925781 168.085938 300.460938 162.53125 299.8125 156.980469 C 299.269531 151.703125 298.011719 146.515625 297.785156 141.242188 C 297.269531 131.839844 298.125 121.78125 299.847656 112.511719 C 301.574219 102.925781 305.324219 93.242188 311.570312 85.652344 C 312.371094 84.652344 310.882812 83.546875 310.039062 84.433594 C 306.90625 87.640625 304.105469 91.222656 301.796875 95.105469 C 301.710938 95.203125 301.695312 95.332031 301.664062 95.40625 C 293.535156 108.46875 289.902344 124.589844 289.960938 139.59375 C 290.003906 144.066406 290.601562 148.511719 291.304688 152.917969 L 290.046875 149.664062 C 289.183594 147.441406 288.398438 145.25 287.503906 143.101562 C 280.273438 125.386719 270.234375 108.320312 266.578125 89.347656 C 264.894531 80.644531 264.570312 71.726562 263.398438 62.890625 C 262.542969 56.488281 260.050781 50.53125 258.394531 44.3125 C 256.78125 38.203125 256.335938 31.890625 253.996094 26 C 253.722656 25.292969 253.351562 24.503906 252.652344 24.148438 C 251.386719 23.457031 249.910156 24.648438 248.871094 25.675781 C 247.324219 27.332031 245.757812 28.9375 244.191406 30.542969 C 243.085938 31.71875 241.980469 32.894531 240.949219 34.105469 C 238.6875 36.664062 239.136719 37.175781 240.121094 40.035156 C 241.214844 43.355469 241.648438 47.050781 242.65625 50.464844 C 243.632812 53.953125 244.695312 57.347656 245.324219 60.90625 C 246.761719 69.140625 246.84375 77.589844 247.988281 85.878906 C 250.460938 103.5625 257.355469 119.601562 264.527344 135.71875 C 267.890625 143.273438 271.304688 150.804688 273.632812 158.757812 C 276.160156 167.382812 277.957031 176.226562 280.722656 184.824219 C 282.765625 191.078125 286.175781 195.683594 289.597656 200.65625 C 292.035156 205.824219 294.832031 210.789062 297.792969 215.691406 C 299.992188 220.890625 301.863281 226.210938 304.0625 231.410156 C 307.175781 238.808594 310.730469 246.539062 315.78125 252.8125 C 318.351562 256.058594 320.539062 258.640625 322.210938 262.484375 C 324.09375 266.867188 325.253906 271.46875 327.0625 275.820312 C 327.765625 277.480469 328.449219 279.085938 329.265625 280.707031 L 329.367188 280.976562 C 330.390625 283.136719 331.546875 285.308594 332.753906 287.460938 C 332.828125 287.496094 332.871094 287.601562 332.835938 287.679688 C 339.226562 298.859375 347.070312 309.605469 352.863281 321.019531 C 355.144531 325.625 357.644531 330.144531 360.21875 334.695312 C 360.003906 334.46875 359.738281 334.257812 359.503906 333.976562 C 359.117188 333.625 358.785156 333.253906 358.378906 332.851562 C 354.933594 328.949219 351.417969 325.195312 347.542969 321.644531 C 340.167969 315.019531 332.1875 308.445312 323.140625 304.277344 C 314.296875 300.152344 304.742188 296.617188 295.273438 294.109375 C 294.042969 293.835938 293.4375 295.816406 294.601562 296.242188 C 311.242188 302.269531 325.632812 312.976562 339.195312 324.125 C 340.84375 325.484375 342.417969 326.808594 343.992188 328.128906 C 347.945312 331.402344 351.214844 335 354.707031 338.699219 C 358.179688 342.34375 362.027344 345.34375 364.988281 349.4375 C 368.0625 353.671875 370.722656 358.128906 373.660156 362.480469 C 373.957031 362.925781 374.351562 363.460938 374.6875 364.015625 C 375.339844 365.695312 376.011719 367.429688 376.554688 369.152344 C 378.839844 376.1875 378.078125 383.589844 379.195312 390.828125 C 380.601562 399.636719 383.042969 408.042969 383.628906 416.984375 C 384.296875 426.453125 386.46875 435.777344 388.359375 445.023438 C 390.320312 454.613281 391.382812 464.304688 393.671875 473.769531 C 395.996094 483.160156 400.757812 491.914062 405.070312 500.472656 C 407.796875 505.902344 407.492188 515.933594 413.933594 518.367188 C 416.257812 519.210938 418.859375 518.828125 421.269531 518.273438 C 421.507812 518.242188 421.667969 518.179688 421.90625 518.148438 C 423.988281 517.714844 426.085938 517.15625 428.179688 516.59375 C 429.417969 516.242188 430.6875 515.8125 431.488281 514.8125 Z M 431.488281 514.8125 " fill-opacity="1" fill-rule="nonzero"/></g></g></g></g><g clip-path="url(#ca5ae5322c)"><g clip-path="url(#50739a897b)"><g clip-path="url(#2eb1ccd63e)"><g clip-path="url(#dc8bcd7e6e)"><path fill="#7f4c38" d="M 352.863281 321.019531 C 347.070312 309.605469 339.226562 298.859375 332.835938 287.679688 C 332.871094 287.601562 332.828125 287.496094 332.753906 287.460938 C 332.492188 286.625 332.179688 285.8125 331.863281 285 C 331.765625 284.910156 331.671875 284.824219 331.628906 284.714844 C 330.886719 283.445312 330.089844 282.195312 329.367188 280.976562 L 329.265625 280.707031 C 328.449219 279.085938 327.765625 277.480469 327.0625 275.820312 C 325.253906 271.46875 324.09375 266.867188 322.210938 262.484375 C 320.539062 258.640625 318.351562 256.058594 315.78125 252.8125 C 310.730469 246.539062 307.175781 238.808594 304.0625 231.410156 C 301.863281 226.210938 299.992188 220.886719 297.792969 215.691406 C 294.832031 210.789062 292.035156 205.824219 289.597656 200.65625 C 286.175781 195.683594 282.765625 191.078125 280.722656 184.824219 C 277.957031 176.226562 276.160156 167.382812 273.632812 158.757812 C 271.304688 150.804688 267.890625 143.273438 264.527344 135.71875 C 257.355469 119.601562 250.460938 103.5625 247.988281 85.875 C 246.84375 77.589844 246.761719 69.140625 245.324219 60.90625 C 244.695312 57.347656 243.632812 53.953125 242.65625 50.464844 C 241.648438 47.050781 241.214844 43.351562 240.121094 40.035156 C 239.136719 37.175781 238.6875 36.664062 240.949219 34.105469 C 241.980469 32.894531 243.085938 31.71875 244.191406 30.542969 C 248.15625 38.359375 250.0625 47.164062 252.515625 55.441406 C 253.914062 60.015625 255.1875 64.757812 255.617188 69.582031 C 256.03125 74.535156 255.550781 79.582031 255.210938 84.515625 C 254.941406 88.984375 254.765625 93.542969 255.675781 97.992188 C 256.648438 102.601562 258.675781 106.871094 260.789062 111.039062 C 264.667969 118.640625 267.867188 126.257812 270.765625 134.238281 C 270.425781 132.875 270 131.605469 269.398438 130.21875 C 267.554688 125.941406 266.441406 121.449219 265.671875 116.882812 C 264.113281 107.195312 261.390625 97.898438 259.242188 88.316406 C 259.128906 87.863281 259.878906 87.699219 260.046875 88.132812 C 262.84375 97.460938 265.175781 107.035156 268.484375 116.230469 C 270.085938 120.535156 271.570312 125.011719 273.519531 129.246094 C 275.324219 133.101562 275.019531 136.835938 276.183594 140.8125 C 281.5 158.582031 292.132812 174.109375 298.40625 191.445312 C 298.617188 191.988281 297.953125 192.371094 297.601562 191.945312 C 294.699219 188.328125 292.957031 183.828125 290.972656 179.671875 C 288.820312 175.078125 286.308594 170.6875 283.820312 166.351562 C 282.273438 163.644531 280.476562 161.097656 278.875 158.414062 C 279.429688 160.007812 279.90625 161.566406 280.460938 163.160156 C 283.460938 172.039062 284.226562 181.285156 289.222656 189.515625 C 293.859375 197.136719 299.765625 203.515625 303.09375 211.957031 C 304.710938 216.132812 305.816406 220.441406 306.757812 224.816406 C 307.644531 228.714844 308.359375 232.988281 310.242188 236.5625 C 313.796875 243.167969 319.972656 247.824219 324.457031 253.757812 C 324.082031 252.46875 323.742188 251.105469 323.382812 249.683594 C 321.246094 241.90625 317.074219 235.164062 313.296875 228.148438 C 312.914062 227.484375 314.046875 226.859375 314.484375 227.5 C 318.6875 234.167969 323.230469 240.578125 326.195312 247.910156 C 329.082031 255.210938 330.476562 262.527344 335.007812 269.066406 C 339.601562 275.769531 343.957031 282.5 348.15625 289.480469 C 352.058594 296.015625 356.027344 303.519531 357.796875 311.003906 C 357.910156 311.457031 357.289062 311.949219 356.96875 311.449219 C 354.601562 307.75 352.824219 303.636719 350.597656 299.824219 C 348.570312 296.367188 346.566406 292.964844 344.453125 289.605469 C 341.082031 284.113281 337.507812 278.761719 333.796875 273.527344 C 334.59375 276.398438 335.210938 279.277344 336.148438 282.03125 C 340.664062 290.945312 345.011719 299.925781 350.191406 308.460938 C 354.410156 315.492188 358.417969 322.609375 362.472656 329.707031 C 364.445312 333.183594 366.785156 336.644531 369.09375 339.867188 C 371.0625 342.535156 373.683594 344.949219 375.132812 347.878906 C 375.382812 348.53125 374.628906 349.320312 373.984375 348.949219 C 370.800781 347.1875 368.339844 343.898438 365.734375 341.355469 C 363.28125 339.058594 361.277344 336.78125 359.503906 333.976562 C 359.738281 334.257812 360.003906 334.46875 360.21875 334.695312 C 357.644531 330.144531 355.144531 325.621094 352.863281 321.019531 Z M 420.046875 513.507812 C 419.945312 513.234375 419.761719 512.929688 419.660156 512.660156 C 415.878906 495.789062 406.808594 479.78125 406.445312 462.214844 C 406.246094 453.625 404.449219 445.589844 402.601562 437.265625 C 401.644531 433.019531 401.09375 428.683594 400.191406 424.417969 C 399.332031 420.261719 397.800781 416.300781 396.777344 412.207031 C 396.621094 411.644531 395.65625 411.894531 395.789062 412.402344 C 399.363281 429.539062 401.402344 447.082031 401.796875 464.574219 C 401.964844 470.496094 403.332031 476.453125 405.082031 482.261719 C 405.019531 482.097656 404.921875 482.007812 404.878906 481.902344 C 401.363281 474.59375 399.007812 467.214844 397.65625 459.195312 C 396.332031 451.414062 395.539062 443.554688 393.8125 435.863281 C 392.015625 427.832031 389.792969 420.148438 388.871094 411.960938 C 387.960938 403.960938 386.582031 396.199219 385.140625 388.277344 C 383.796875 381.253906 384.648438 372.628906 380.761719 366.464844 C 376.515625 359.691406 370.421875 354.441406 365.039062 348.605469 C 361.929688 345.257812 358.972656 341.972656 356.3125 338.328125 C 353.960938 334.996094 351.367188 332.011719 348.121094 329.589844 C 345.3125 327.496094 342.246094 325.875 339.195312 324.125 C 340.84375 325.484375 342.417969 326.804688 343.992188 328.128906 C 347.945312 331.402344 351.214844 335 354.707031 338.699219 C 358.179688 342.34375 362.027344 345.34375 364.988281 349.4375 C 368.0625 353.671875 370.722656 358.128906 373.660156 362.480469 C 373.957031 362.925781 374.351562 363.460938 374.6875 364.015625 C 375.339844 365.695312 376.011719 367.429688 376.554688 369.152344 C 378.839844 376.1875 378.078125 383.589844 379.195312 390.828125 C 380.601562 399.636719 383.042969 408.042969 383.628906 416.984375 C 384.296875 426.453125 386.46875 435.777344 388.359375 445.023438 C 390.320312 454.613281 391.382812 464.304688 393.671875 473.769531 C 395.996094 483.15625 400.757812 491.914062 405.070312 500.472656 C 407.796875 505.902344 407.492188 515.933594 413.933594 518.367188 C 416.257812 519.210938 418.859375 518.828125 421.269531 518.273438 C 421.507812 518.242188 421.667969 518.179688 421.90625 518.148438 C 421.246094 516.597656 420.691406 515.003906 420.046875 513.507812 Z M 289.960938 139.59375 C 290.003906 144.066406 290.601562 148.511719 291.304688 152.917969 L 290.046875 149.664062 C 290.066406 149.71875 290.054688 149.847656 290.074219 149.902344 C 290.742188 153.882812 291.914062 158.042969 293.273438 161.882812 C 293.703125 163.148438 295.558594 162.617188 295.5 161.332031 C 295.261719 157.496094 293.367188 154.050781 292.839844 150.265625 C 292.332031 146.53125 293.578125 142.808594 293.730469 139.007812 C 293.992188 131.609375 292.957031 124.09375 294.808594 116.765625 C 295.792969 113.019531 297.566406 109.527344 298.628906 105.8125 C 299.644531 102.300781 300.367188 98.839844 301.664062 95.40625 C 293.535156 108.46875 289.902344 124.589844 289.960938 139.59375 Z M 289.960938 139.59375 " fill-opacity="1" fill-rule="nonzero"/></g></g></g></g><g clip-path="url(#1cd127b708)"><g clip-path="url(#d880c552f7)"><g clip-path="url(#87e94b31e0)"><g clip-path="url(#a27f46f726)"><path fill="#5f926a" d="M 306.960938 314.777344 C 304.28125 318.183594 300.132812 320.226562 295.894531 321.054688 C 291.621094 321.960938 287.21875 321.730469 282.878906 321.167969 C 282.542969 321.109375 282.230469 321.105469 281.929688 320.972656 C 281.703125 320.875 281.476562 320.773438 281.316406 320.523438 C 280.847656 319.957031 280.976562 319.160156 281.199219 318.449219 C 282.351562 314.636719 284.621094 311.140625 287.691406 308.578125 C 289.96875 306.699219 292.496094 305.511719 295.136719 304.632812 C 290.808594 303.808594 287.082031 301.238281 283.777344 298.308594 C 277.28125 292.65625 271.71875 285.390625 269.992188 276.894531 C 269.828125 276.148438 269.785156 275.226562 270.105469 274.605469 C 270.261719 274.359375 270.382812 274.1875 270.632812 274.027344 C 271.023438 273.75 271.503906 273.691406 272 273.6875 C 276.40625 273.289062 280.925781 272.851562 285.332031 273.265625 C 289.796875 273.65625 294.28125 274.914062 297.90625 277.5 C 301.609375 280.121094 304.246094 284.027344 306.097656 288.175781 C 307.257812 290.84375 308.109375 293.691406 308.886719 296.507812 C 309.164062 297.710938 310.304688 300.015625 309.910156 301.414062 C 309.898438 301.542969 309.886719 301.671875 309.796875 301.769531 C 309.726562 301.902344 309.519531 301.988281 309.40625 302.105469 C 311.980469 301.953125 311.835938 302.992188 310.992188 305.984375 C 310.089844 309.140625 309.035156 312.230469 306.960938 314.777344 Z M 336.113281 73.347656 C 335.78125 72.976562 335.1875 72.894531 334.722656 72.824219 C 332.722656 72.664062 330.757812 72.425781 328.738281 72.210938 C 325.679688 71.898438 322.492188 71.570312 319.421875 72.199219 C 319.367188 72.21875 319.367188 72.21875 319.3125 72.238281 C 315.605469 72.988281 312.226562 75.234375 310.121094 78.355469 C 308.609375 80.523438 307.78125 83.179688 307.5625 85.867188 C 307.492188 83.214844 306.292969 79.777344 305.703125 78.566406 C 304.679688 76.40625 303.222656 74.414062 301.382812 72.882812 C 300.804688 72.359375 300.007812 71.917969 299.324219 72.246094 C 298.90625 72.46875 298.707031 72.917969 298.5625 73.351562 C 298.382812 73.855469 298.226562 74.417969 298.101562 74.902344 C 297.375 77.550781 297.375 80.292969 298.289062 82.808594 C 298.902344 84.566406 299.957031 86.15625 301.414062 87.335938 C 302.453125 88.242188 304.78125 89.898438 306.261719 89.203125 C 307.113281 88.816406 307.410156 87.894531 307.503906 86.769531 C 307.511719 86.835938 307.5 86.914062 307.519531 86.96875 C 307.441406 88.058594 307.648438 88.914062 308.992188 88.519531 C 310.644531 87.941406 311.855469 87.035156 313.6875 86.761719 C 315.886719 86.472656 318.179688 86.582031 320.402344 86.347656 C 326.933594 85.628906 333.042969 81.394531 335.992188 75.453125 C 336.3125 74.828125 336.582031 73.914062 336.113281 73.347656 Z M 419.367188 428.59375 C 419.890625 428.015625 420.554688 427.636719 421.21875 427.253906 C 423.75 425.714844 426.722656 425 429.089844 423.210938 C 431.820312 421.21875 433.511719 418.007812 434.296875 414.710938 C 435.082031 411.414062 435.125 407.964844 435.113281 404.542969 C 435.113281 403.417969 434.882812 402.011719 433.78125 401.753906 C 433.242188 401.648438 432.699219 401.859375 432.210938 402.046875 C 431.9375 402.152344 431.613281 402.28125 431.363281 402.441406 C 429.589844 403.1875 427.871094 403.914062 426.042969 404.683594 C 423.890625 405.578125 421.652344 406.570312 419.878906 408.128906 C 417.332031 410.425781 416.003906 413.933594 415.648438 417.375 C 415.238281 420.839844 415.695312 424.277344 416.152344 427.71875 C 416.261719 428.484375 416.65625 429.828125 417.445312 430.085938 C 417.691406 430.242188 418.039062 430.167969 418.398438 429.96875 C 418.757812 429.765625 419.046875 428.90625 419.367188 428.59375 Z M 419.367188 428.59375 " fill-opacity="1" fill-rule="nonzero"/></g></g></g></g><g clip-path="url(#97690756ba)"><g clip-path="url(#e301f8d40d)"><g clip-path="url(#36771fa16a)"><g clip-path="url(#1bc641ca04)"><path fill="#587e60" d="M 308.070312 304.550781 C 308.96875 303.867188 309.671875 303.042969 310.5 302.289062 C 310.667969 302.136719 310.984375 302.28125 310.988281 302.503906 C 311.027344 304.566406 308.960938 305.699219 307.527344 306.796875 C 305.296875 308.507812 303.175781 310.34375 300.769531 311.816406 C 298.433594 313.238281 296.003906 314.203125 293.386719 314.972656 C 290.625 315.78125 287.921875 316.625 285.648438 318.46875 C 285.367188 318.699219 285.050781 318.253906 285.316406 318.023438 C 289.199219 314.644531 294.625 313.769531 298.996094 311.183594 C 301.273438 309.835938 303.378906 308.226562 305.433594 306.570312 C 306.300781 305.875 307.1875 305.222656 308.070312 304.550781 Z M 417.496094 428.460938 C 417.652344 428.507812 417.832031 428.484375 417.84375 428.289062 C 417.910156 427.179688 417.964844 426.207031 418.324219 425.140625 C 418.671875 424.117188 419.109375 423.125 419.453125 422.101562 C 420.277344 419.671875 421.269531 417.289062 423.050781 415.394531 C 424.886719 413.441406 426.953125 411.675781 428.914062 409.851562 C 430.703125 408.191406 431.828125 406.347656 432.996094 404.230469 C 433.128906 403.988281 432.738281 403.75 432.582031 403.980469 C 431.824219 405.09375 431.109375 406.25 430.222656 407.269531 C 429.289062 408.351562 428.097656 409.164062 426.96875 410.03125 C 424.84375 411.667969 422.449219 413.414062 420.789062 415.542969 C 419.488281 417.214844 418.8125 419.105469 418.160156 421.046875 C 418.15625 421.015625 418.160156 420.988281 418.15625 420.957031 C 418.15625 420.957031 418.15625 420.957031 418.136719 420.902344 C 418.050781 418.253906 417.550781 415.515625 418.449219 412.988281 C 419.503906 409.898438 422.339844 407.863281 425.214844 406.253906 C 426.511719 405.5625 427.859375 404.855469 429.113281 404.058594 C 429.921875 403.558594 430.628906 402.972656 431.363281 402.441406 C 429.589844 403.1875 427.871094 403.914062 426.042969 404.683594 C 423.890625 405.578125 421.652344 406.570312 419.878906 408.128906 C 417.332031 410.425781 416.003906 413.933594 415.648438 417.375 C 415.238281 420.839844 415.695312 424.277344 416.152344 427.71875 C 416.261719 428.484375 416.65625 429.828125 417.445312 430.085938 C 417.417969 429.539062 417.464844 429.027344 417.496094 428.460938 Z M 307.503906 86.769531 C 307.511719 86.835938 307.5 86.914062 307.519531 86.96875 C 307.515625 87.011719 307.648438 86.742188 307.832031 86.386719 C 308.554688 86.214844 309.113281 85.753906 309.617188 85.199219 C 310.46875 84.257812 311.175781 83.28125 312.144531 82.4375 C 314.066406 80.765625 316.089844 79.234375 318.410156 78.144531 C 320.777344 77.039062 323.148438 76.515625 325.746094 76.324219 C 327.101562 76.222656 328.464844 76.101562 329.8125 75.941406 C 331.058594 75.796875 332.054688 75.15625 333.25 74.867188 C 333.554688 74.792969 333.429688 74.289062 333.121094 74.332031 C 331.78125 74.519531 330.59375 75.050781 329.207031 75.105469 C 327.777344 75.160156 326.371094 75.183594 324.941406 75.140625 C 322.417969 75.070312 320.097656 75.519531 317.796875 76.5625 C 315.84375 77.445312 314.132812 78.621094 312.527344 80.007812 C 312.902344 79.148438 313.199219 78.238281 313.617188 77.375 C 314.707031 75.023438 316.890625 73.242188 319.3125 72.238281 C 315.605469 72.988281 312.226562 75.234375 310.121094 78.355469 C 308.640625 80.480469 307.832031 83.078125 307.59375 85.710938 C 307.527344 85.792969 307.472656 85.875 307.40625 85.957031 C 307.375 85.996094 307.433594 86.03125 307.429688 86.074219 C 307.25 85.898438 307.058594 85.738281 306.820312 85.640625 C 306.234375 85.117188 305.410156 84.710938 304.902344 84.261719 C 303.949219 83.421875 303.136719 82.433594 302.421875 81.382812 C 300.886719 79.125 301.128906 76.269531 300.136719 73.804688 C 299.996094 73.457031 299.476562 73.660156 299.59375 74.011719 C 300.070312 75.433594 300.140625 76.921875 300.296875 78.402344 C 300.445312 79.777344 300.792969 81.089844 301.445312 82.316406 C 301.914062 83.207031 302.578125 83.988281 303.289062 84.710938 C 301.652344 83.988281 300.285156 82.636719 299.421875 81.0625 C 298.449219 79.191406 298.109375 77.019531 298.101562 74.902344 C 297.375 77.550781 297.375 80.292969 298.289062 82.808594 C 298.902344 84.566406 299.957031 86.15625 301.414062 87.335938 C 302.453125 88.242188 304.78125 89.898438 306.261719 89.203125 C 307.113281 88.816406 307.410156 87.894531 307.503906 86.769531 Z M 290.261719 286.941406 C 293.605469 288.867188 297.152344 290.589844 300.359375 292.730469 C 303.554688 294.863281 306.039062 297.863281 309.078125 300.183594 C 309.300781 300.351562 309.542969 300.082031 309.414062 299.863281 C 305.574219 293.445312 298.898438 290.121094 292.644531 286.574219 C 289.445312 284.757812 286.253906 282.976562 282.933594 281.390625 C 279.636719 279.8125 276.414062 278.203125 273.699219 275.714844 C 273.46875 275.503906 273.082031 275.867188 273.300781 276.097656 C 277.925781 281.015625 284.503906 283.621094 290.261719 286.941406 Z M 286.636719 312.480469 C 289.527344 309.613281 293.40625 308.175781 297.242188 306.941406 C 299.316406 306.324219 301.441406 305.6875 303.453125 304.910156 C 304.289062 304.648438 305.710938 304.285156 306.402344 303.644531 C 306.441406 303.605469 306.445312 303.578125 306.480469 303.539062 C 307.925781 303.15625 309.324219 302.621094 309.796875 301.769531 C 309.886719 301.671875 309.898438 301.542969 309.910156 301.414062 C 304.546875 301.121094 299.460938 298.789062 294.554688 296.445312 C 287.496094 293.066406 280.195312 289.53125 275.136719 283.570312 C 272.929688 280.933594 271.183594 277.867188 270.105469 274.605469 C 269.785156 275.230469 269.828125 276.148438 269.992188 276.894531 C 271.71875 285.390625 277.28125 292.65625 283.777344 298.308594 C 287.082031 301.238281 290.808594 303.808594 295.136719 304.632812 C 292.496094 305.511719 289.964844 306.699219 287.691406 308.578125 C 284.621094 311.140625 282.351562 314.636719 281.199219 318.449219 C 280.976562 319.160156 280.847656 319.957031 281.316406 320.523438 C 281.476562 320.773438 281.703125 320.875 281.929688 320.972656 C 282.941406 317.777344 284.351562 314.796875 286.636719 312.480469 Z M 286.636719 312.480469 " fill-opacity="1" fill-rule="nonzero"/></g></g></g></g></svg>