<svg xmlns="http://www.w3.org/2000/svg" xmlns:xlink="http://www.w3.org/1999/xlink" width="500" zoomAndPan="magnify" viewBox="0 0 375 374.999991" height="500" preserveAspectRatio="xMidYMid meet" version="1.0"><defs><clipPath id="ee33748005"><path d="M 265 96.523438 L 301.769531 96.523438 L 301.769531 130 L 265 130 Z M 265 96.523438 " clip-rule="nonzero"/></clipPath><clipPath id="3f35cb5e65"><path d="M 66 96.523438 L 301.769531 96.523438 L 301.769531 281 L 66 281 Z M 66 96.523438 " clip-rule="nonzero"/></clipPath><clipPath id="c7efeaebcf"><path d="M 96 96.523438 L 301.769531 96.523438 L 301.769531 281 L 96 281 Z M 96 96.523438 " clip-rule="nonzero"/></clipPath><clipPath id="37894ca8f7"><path d="M 271 100.246094 L 303.335938 100.246094 L 303.335938 118.992188 L 271 118.992188 Z M 271 100.246094 " clip-rule="nonzero"/></clipPath><clipPath id="7aed05d1bf"><path d="M 295.941406 115.277344 C 299.015625 107.585938 299.015625 106.203125 298.246094 105.894531 C 296.554688 105.28125 289.171875 112.046875 284.710938 113.738281 C 280.867188 115.277344 275.175781 117.429688 273.023438 116.507812 C 271.792969 115.894531 270.871094 113.738281 271.175781 113.125 C 271.484375 112.507812 274.5625 112.046875 275.023438 112.664062 C 275.484375 113.125 274.714844 115.894531 273.945312 116.355469 C 273.332031 116.660156 271.640625 116.046875 271.332031 115.429688 C 270.871094 114.816406 271.175781 113.125 271.945312 112.203125 C 273.945312 110.046875 283.175781 109.894531 287.019531 107.894531 C 289.941406 106.511719 291.480469 103.742188 293.941406 102.511719 C 295.941406 101.589844 298.863281 100.359375 300.402344 101.128906 C 301.785156 101.742188 302.554688 104.050781 302.863281 105.894531 C 303.324219 108.203125 302.707031 111.433594 301.9375 113.585938 C 301.167969 115.585938 299.785156 118.355469 298.554688 118.660156 C 297.785156 118.96875 296.554688 118.507812 296.09375 117.890625 C 295.632812 117.429688 295.941406 115.277344 295.941406 115.277344 " clip-rule="nonzero"/></clipPath><clipPath id="dee67fca33"><path d="M 275.246094 98.121094 L 304 98.121094 L 304 120.765625 L 275.246094 120.765625 Z M 275.246094 98.121094 " clip-rule="nonzero"/></clipPath><clipPath id="b434811080"><path d="M 297.324219 106.972656 C 299.476562 99.128906 300.246094 98.511719 301.015625 98.511719 C 301.785156 98.359375 303.167969 98.972656 303.324219 99.589844 C 303.628906 100.359375 301.632812 102.972656 301.785156 102.972656 C 301.785156 102.972656 303.167969 99.898438 303.476562 99.898438 C 303.785156 99.898438 303.9375 101.742188 303.785156 103.128906 C 303.628906 105.742188 303.628906 112.203125 301.632812 115.125 C 299.785156 117.738281 294.863281 120.660156 292.863281 120.351562 C 291.632812 120.199219 290.558594 119.121094 290.25 117.738281 C 289.789062 114.507812 295.632812 101.898438 297.785156 101.28125 C 298.707031 100.972656 300.09375 102.050781 300.246094 102.820312 C 300.246094 104.511719 293.480469 109.894531 289.632812 111.742188 C 285.941406 113.585938 280.097656 115.125 277.945312 114.203125 C 276.558594 113.738281 275.484375 111.742188 275.792969 111.125 C 275.945312 110.355469 278.867188 109.742188 279.484375 110.203125 C 279.945312 110.816406 279.484375 113.585938 278.867188 114.046875 C 278.40625 114.355469 277.175781 114.355469 276.714844 113.894531 C 276.097656 113.433594 275.328125 112.046875 275.636719 111.277344 C 276.40625 109.585938 284.40625 109.433594 288.097656 107.28125 C 291.789062 105.28125 295.480469 99.742188 297.941406 98.820312 C 299.171875 98.359375 300.554688 98.207031 301.167969 98.820312 C 302.246094 99.742188 302.09375 103.433594 301.476562 106.203125 C 300.402344 110.355469 295.015625 119.585938 292.863281 120.351562 C 292.09375 120.660156 291.324219 120.199219 290.863281 119.738281 C 290.402344 119.121094 289.941406 117.890625 290.402344 117.125 C 291.171875 115.738281 295.632812 115.894531 297.324219 113.894531 C 299.785156 110.816406 299.324219 98.972656 301.015625 98.511719 C 301.785156 98.207031 303.628906 99.898438 303.628906 100.667969 C 303.785156 101.433594 302.09375 102.050781 301.785156 102.972656 C 301.324219 104.359375 302.398438 107.28125 301.785156 108.355469 C 301.324219 109.125 299.785156 109.742188 299.015625 109.585938 C 298.246094 109.433594 297.324219 106.972656 297.324219 106.972656 " clip-rule="nonzero"/></clipPath><clipPath id="1e21eb692b"><path d="M 272.425781 108.527344 L 302 108.527344 L 302 159.488281 L 272.425781 159.488281 Z M 272.425781 108.527344 " clip-rule="nonzero"/></clipPath><clipPath id="e248eef53b"><path d="M 301.9375 110.972656 C 297.324219 128.503906 292.25 135.734375 288.402344 141.886719 C 284.558594 147.730469 279.484375 156.960938 276.558594 158.652344 C 275.636719 159.421875 274.5625 159.421875 273.792969 159.113281 C 273.332031 158.804688 272.5625 157.882812 272.714844 157.265625 C 272.871094 156.5 274.867188 154.652344 275.636719 154.804688 C 276.40625 154.960938 277.328125 157.113281 277.175781 157.882812 C 277.023438 158.496094 275.484375 159.421875 274.867188 159.421875 C 274.101562 159.265625 272.714844 158.191406 272.714844 156.804688 C 272.5625 152.191406 289.019531 133.121094 293.019531 126.042969 C 295.015625 122.507812 296.246094 120.507812 297.015625 117.738281 C 297.632812 115.125 296.710938 111.277344 297.632812 109.894531 C 298.09375 109.125 299.324219 108.664062 299.9375 108.816406 C 300.707031 108.816406 301.9375 110.972656 301.9375 110.972656 " clip-rule="nonzero"/></clipPath><clipPath id="b06c650b86"><path d="M 267.621094 107.65625 L 303.496094 107.65625 L 303.496094 169 L 267.621094 169 Z M 267.621094 107.65625 " clip-rule="nonzero"/></clipPath><clipPath id="22e2dd8bfb"><path d="M 303.324219 110.511719 C 288.402344 146.65625 275.636719 166.804688 271.332031 168.648438 C 270.101562 169.265625 269.023438 168.804688 268.5625 168.339844 C 267.949219 168.035156 267.640625 166.957031 267.792969 166.34375 C 268.101562 165.574219 269.945312 164.34375 270.5625 164.496094 C 271.332031 164.648438 272.40625 167.417969 271.945312 168.035156 C 271.636719 168.648438 269.332031 168.957031 268.714844 168.496094 C 268.101562 168.1875 267.792969 167.109375 267.949219 165.878906 C 268.871094 160.804688 285.328125 142.5 290.710938 132.042969 C 294.863281 123.738281 296.402344 110.972656 299.324219 108.664062 C 300.246094 107.894531 301.632812 107.742188 302.246094 108.203125 C 302.863281 108.511719 303.324219 110.511719 303.324219 110.511719 " clip-rule="nonzero"/></clipPath></defs><g clip-path="url(#ee33748005)"><path fill="#a47052" d="M 3223.136719 -2740.25 C 3217.570312 -2719.980469 3199.285156 -2704.472656 3184.578125 -2691.355469 C 3162.320312 -2671.476562 3138.074219 -2653.589844 3115.417969 -2634.507812 C 3068.511719 -2595.15625 3034.730469 -2545.867188 2996.570312 -2498.957031 C 2954.4375 -2447.277344 2909.519531 -2403.152344 2852.683594 -2367.773438 C 2783.917969 -2324.839844 2714.753906 -2281.910156 2645.59375 -2239.769531 C 2611.410156 -2218.699219 2577.226562 -2198.425781 2543.042969 -2177.757812 C 2519.988281 -2169.011719 2496.9375 -2161.0625 2473.480469 -2153.90625 C 2391.207031 -2130.054688 2303.757812 -2118.527344 2219.097656 -2110.578125 C 2052.546875 -2095.074219 1881.234375 -2129.257812 1719.0625 -2077.582031 C 1634.398438 -2050.550781 1560.863281 -1997.679688 1476.996094 -1968.660156 C 1465.867188 -1965.082031 1470.238281 -1947.988281 1482.164062 -1950.769531 C 1508.398438 -1957.53125 1533.4375 -1965.878906 1558.480469 -1975.019531 L 1558.878906 -1975.019531 C 1606.578125 -1992.511719 1653.476562 -2012.785156 1701.96875 -2027.492188 C 1781.070312 -2051.347656 1865.335938 -2048.5625 1946.820312 -2045.78125 C 1989.351562 -2044.191406 2031.878906 -2041.410156 2074.410156 -2041.804688 C 2119.722656 -2042.199219 2164.242188 -2048.960938 2209.15625 -2053.730469 C 2262.816406 -2059.292969 2318.066406 -2066.054688 2371.726562 -2075.59375 L 2372.125 -2075.59375 C 2372.921875 -2075.59375 2374.109375 -2075.992188 2374.90625 -2075.992188 C 2333.570312 -2050.949219 2292.628906 -2026.300781 2251.6875 -2000.460938 C 2130.058594 -1924.136719 2017.96875 -1837.480469 1910.25 -1742.871094 C 1884.414062 -1720.210938 1860.167969 -1696.753906 1835.921875 -1672.90625 C 1812.074219 -1648.65625 1786.632812 -1626.792969 1763.183594 -1602.9375 C 1714.292969 -1552.851562 1687.261719 -1486.066406 1649.5 -1428.03125 C 1643.140625 -1418.488281 1637.578125 -1408.550781 1631.617188 -1399.011719 C 1608.5625 -1384.699219 1584.710938 -1371.183594 1560.070312 -1360.054688 C 1522.707031 -1342.960938 1482.957031 -1332.226562 1444.003906 -1319.109375 C 1409.820312 -1307.582031 1376.03125 -1295.261719 1342.25 -1281.347656 L 1341.847656 -1281.347656 C 1333.109375 -1278.167969 1323.964844 -1274.1875 1315.21875 -1270.613281 C 1315.21875 -1270.613281 1314.824219 -1270.613281 1314.425781 -1270.613281 C 1246.851562 -1271.007812 1179.28125 -1281.738281 1113.296875 -1296.847656 C 1040.558594 -1313.546875 976.167969 -1348.921875 906.210938 -1373.171875 C 884.347656 -1380.726562 862.089844 -1386.6875 839.828125 -1391.855469 C 784.582031 -1404.578125 728.136719 -1412.132812 673.683594 -1426.4375 C 663.746094 -1429.222656 659.769531 -1414.515625 669.3125 -1411.335938 C 749.605469 -1385.894531 834.660156 -1375.160156 912.171875 -1340.578125 C 982.128906 -1309.171875 1045.332031 -1269.417969 1120.058594 -1249.9375 C 1155.035156 -1241.195312 1190.808594 -1234.4375 1226.976562 -1230.859375 C 1157.816406 -1196.671875 1089.449219 -1159.703125 1015.121094 -1139.828125 C 910.984375 -1112.792969 799.683594 -1121.140625 693.953125 -1104.046875 C 583.851562 -1086.558594 488.058594 -1024.148438 378.351562 -1005.464844 C 371.992188 -1004.269531 373.1875 -993.144531 379.945312 -993.9375 C 480.90625 -1005.066406 571.925781 -1053.164062 670.503906 -1072.648438 C 709.457031 -1080.199219 749.207031 -1084.574219 789.351562 -1087.355469 C 864.871094 -1093.316406 941.1875 -1093.714844 1015.914062 -1101.667969 C 1069.179688 -1107.230469 1122.046875 -1117.960938 1172.125 -1137.042969 C 1223.003906 -1156.523438 1270.703125 -1183.554688 1321.183594 -1205.019531 C 1353.378906 -1218.539062 1386.765625 -1230.464844 1419.757812 -1241.992188 C 1422.9375 -1242.785156 1425.71875 -1243.183594 1428.898438 -1243.980469 C 1449.171875 -1249.542969 1476.996094 -1257.890625 1497.667969 -1270.613281 C 1523.101562 -1280.152344 1548.144531 -1290.488281 1572.785156 -1302.015625 C 1570.40625 -1298.042969 1568.019531 -1294.460938 1566.03125 -1290.488281 L 1566.03125 -1290.089844 C 1554.105469 -1270.214844 1542.582031 -1250.339844 1531.054688 -1230.464844 C 1496.472656 -1171.230469 1459.902344 -1113.589844 1427.3125 -1053.164062 C 1357.75 -924.367188 1321.578125 -780.863281 1251.226562 -652.464844 C 1234.53125 -621.855469 1213.464844 -594.027344 1195.578125 -564.214844 C 1178.484375 -534.800781 1164.578125 -504.191406 1147.480469 -475.171875 C 1112.503906 -415.542969 1062.023438 -373.007812 1006.773438 -332.460938 C 950.332031 -291.117188 883.953125 -258.917969 834.660156 -208.433594 C 812.40625 -185.777344 798.097656 -158.738281 782.195312 -131.3125 C 772.65625 -115.015625 759.539062 -102.292969 745.230469 -91.5625 C 728.136719 -82.417969 710.648438 -73.671875 691.171875 -67.710938 C 653.808594 -55.785156 614.0625 -53.003906 574.710938 -50.617188 C 532.578125 -48.230469 495.210938 -53.796875 453.875 -61.351562 C 415.320312 -68.503906 376.367188 -67.710938 337.414062 -66.117188 C 330.257812 -66.117188 330.257812 -55.785156 337.414062 -55.386719 C 383.125 -53.796875 428.039062 -50.21875 472.160156 -37.894531 C 511.511719 -26.765625 552.851562 -20.402344 593.390625 -22.789062 C 600.550781 -23.1875 607.703125 -24.382812 614.457031 -25.175781 C 498.394531 21.734375 374.78125 51.945312 267.855469 120.316406 C 262.6875 123.496094 267.457031 132.242188 273.019531 128.664062 C 379.148438 64.667969 500.378906 35.644531 615.253906 -7.285156 C 630.359375 -12.851562 645.460938 -18.816406 660.171875 -25.175781 C 682.828125 -35.113281 705.878906 -44.652344 726.945312 -56.578125 C 727.34375 -56.578125 727.34375 -56.976562 727.742188 -56.976562 C 742.84375 -65.324219 757.550781 -74.863281 770.667969 -85.597656 C 772.65625 -86.789062 774.644531 -88.378906 776.628906 -89.972656 C 788.15625 -100.304688 798.890625 -111.4375 808.03125 -124.554688 C 827.113281 -151.984375 843.410156 -179.015625 870.832031 -199.289062 C 897.863281 -219.164062 928.472656 -233.476562 957.085938 -250.96875 C 1004.785156 -279.589844 1052.484375 -312.585938 1095.015625 -349.554688 C 1093.820312 -343.988281 1092.628906 -338.421875 1091.4375 -333.253906 C 1089.449219 -324.507812 1086.667969 -316.160156 1083.085938 -308.210938 C 1067.589844 -271.636719 1052.878906 -233.875 1034.597656 -198.890625 C 1019.890625 -171.066406 1009.554688 -144.828125 1006.375 -113.425781 C 1002.398438 -78.445312 1007.171875 -41.472656 994.050781 -7.683594 C 980.144531 28.886719 951.128906 56.316406 919.722656 78.578125 C 912.171875 84.144531 918.929688 96.46875 927.277344 91.300781 C 936.417969 85.734375 945.5625 79.769531 954.304688 73.808594 C 954.304688 73.410156 954.703125 73.410156 954.703125 73.410156 C 992.464844 46.378906 1025.457031 11.398438 1038.96875 -33.921875 C 1048.90625 -65.722656 1043.738281 -99.910156 1051.691406 -132.105469 C 1060.832031 -168.679688 1083.882812 -202.074219 1098.195312 -237.054688 C 1112.503906 -272.433594 1127.210938 -305.824219 1134.761719 -343.191406 C 1138.339844 -360.683594 1141.519531 -378.96875 1150.660156 -394.476562 C 1159.40625 -409.574219 1172.917969 -421.902344 1184.449219 -435.019531 C 1193.589844 -445.753906 1202.332031 -456.089844 1208.296875 -468.8125 C 1215.847656 -486.300781 1217.039062 -504.191406 1228.570312 -520.089844 C 1248.445312 -548.316406 1267.519531 -572.5625 1281.828125 -604.761719 C 1294.550781 -634.972656 1303.691406 -664.390625 1312.039062 -695 C 1317.207031 -702.949219 1321.976562 -710.5 1326.347656 -718.453125 C 1362.917969 -782.851562 1389.945312 -850.828125 1421.746094 -917.214844 C 1452.351562 -981.609375 1491.304688 -1040.445312 1531.054688 -1099.675781 C 1534.628906 -1104.847656 1538.207031 -1110.40625 1541.785156 -1115.578125 C 1541.785156 -1115.976562 1541.785156 -1116.375 1542.578125 -1116.769531 C 1555.695312 -1136.25 1568.414062 -1156.523438 1581.535156 -1176.398438 C 1581.535156 -1176.796875 1581.535156 -1177.195312 1581.929688 -1177.195312 C 1605.382812 -1213.765625 1628.4375 -1250.734375 1651.488281 -1287.707031 C 1690.839844 -1350.117188 1736.949219 -1410.539062 1768.351562 -1477.324219 C 1782.261719 -1507.136719 1792.996094 -1538.542969 1809.289062 -1567.164062 C 1827.574219 -1600.15625 1851.820312 -1627.585938 1878.453125 -1654.222656 C 1980.605469 -1755.589844 2103.027344 -1833.898438 2227.046875 -1906.25 C 2359.800781 -1984.164062 2495.34375 -2056.117188 2627.3125 -2135.621094 C 2674.609375 -2164.238281 2721.515625 -2193.65625 2768.414062 -2223.074219 C 2766.03125 -2218.699219 2763.644531 -2214.328125 2761.261719 -2209.957031 C 2759.269531 -2206.378906 2757.285156 -2203.199219 2755.695312 -2199.621094 C 2740.195312 -2170.207031 2723.898438 -2141.976562 2713.167969 -2110.578125 C 2690.507812 -2043.394531 2671.03125 -1975.816406 2650.761719 -1907.835938 C 2631.679688 -1843.839844 2609.421875 -1779.839844 2578.417969 -1720.605469 C 2546.222656 -1659.386719 2500.910156 -1608.105469 2464.339844 -1549.671875 C 2450.828125 -1528.203125 2438.503906 -1505.546875 2426.183594 -1482.886719 C 2405.910156 -1469.375 2390.011719 -1448.304688 2375.304688 -1429.621094 C 2351.851562 -1399.804688 2334.757812 -1365.617188 2307.332031 -1338.589844 C 2273.152344 -1304.800781 2237.378906 -1273.394531 2206.773438 -1236.027344 C 2176.164062 -1199.058594 2155.496094 -1156.125 2126.480469 -1118.359375 C 2070.035156 -1043.625 1989.746094 -988.769531 1910.648438 -941.066406 C 1874.875 -919.601562 1838.703125 -898.929688 1807.699219 -871.101562 C 1776.695312 -842.878906 1752.449219 -808.292969 1725.421875 -776.890625 C 1669.375 -712.09375 1604.191406 -638.152344 1593.457031 -549.902344 C 1592.261719 -541.554688 1606.972656 -539.171875 1608.5625 -547.914062 C 1622.871094 -629.011719 1686.863281 -698.179688 1740.128906 -757.015625 C 1749.269531 -766.949219 1758.808594 -777.285156 1768.746094 -786.828125 C 1787.03125 -805.511719 1806.90625 -823.398438 1829.164062 -837.710938 C 1863.347656 -859.570312 1901.109375 -876.664062 1937.28125 -895.351562 C 2015.980469 -935.101562 2091.105469 -988.769531 2150.328125 -1054.359375 C 2180.539062 -1087.753906 2201.207031 -1125.914062 2226.644531 -1162.089844 C 2253.671875 -1200.25 2287.855469 -1232.449219 2317.667969 -1268.226562 C 2324.425781 -1276.175781 2331.183594 -1284.527344 2337.144531 -1292.472656 C 2335.554688 -1288.902344 2333.964844 -1284.921875 2332.375 -1281.347656 C 2315.285156 -1242.386719 2298.988281 -1202.636719 2285.871094 -1162.882812 C 2263.609375 -1095.699219 2266.792969 -1026.53125 2272.355469 -956.96875 C 2277.921875 -886.605469 2282.691406 -819.820312 2265.203125 -750.253906 C 2229.824219 -607.542969 2133.636719 -488.6875 2034.265625 -384.136719 C 2029.097656 -378.574219 2037.445312 -370.222656 2043.007812 -375.789062 C 2097.464844 -427.46875 2149.136719 -482.324219 2192.464844 -543.542969 C 2192.464844 -543.941406 2192.859375 -543.941406 2192.859375 -543.941406 C 2222.671875 -586.074219 2248.507812 -630.996094 2268.382812 -679.097656 C 2293.023438 -739.125 2305.746094 -801.933594 2308.527344 -866.332031 C 2311.707031 -937.886719 2306.9375 -1011.425781 2321.246094 -1082.1875 C 2336.351562 -1154.535156 2372.125 -1221.71875 2401.933594 -1289.292969 C 2430.558594 -1354.882812 2459.96875 -1420.871094 2498.523438 -1481.300781 C 2537.476562 -1542.117188 2590.738281 -1592.203125 2627.703125 -1653.824219 C 2636.847656 -1668.929688 2645.59375 -1684.433594 2653.542969 -1700.335938 C 2652.351562 -1693.574219 2651.160156 -1686.421875 2649.964844 -1679.660156 C 2644.003906 -1643.089844 2640.824219 -1606.121094 2642.8125 -1569.550781 C 2645.992188 -1512.304688 2674.609375 -1463.808594 2689.710938 -1409.347656 C 2706.011719 -1350.117188 2700.046875 -1285.320312 2702.832031 -1224.496094 C 2703.226562 -1210.984375 2722.703125 -1210.984375 2723.5 -1224.496094 C 2723.898438 -1230.0625 2724.296875 -1235.632812 2724.691406 -1241.195312 C 2728.667969 -1297.640625 2738.207031 -1354.886719 2731.449219 -1410.9375 C 2728.269531 -1437.96875 2719.523438 -1463.808594 2712.765625 -1490.441406 C 2704.816406 -1519.859375 2702.433594 -1547.683594 2702.832031 -1578.292969 C 2704.027344 -1637.125 2719.128906 -1693.976562 2722.707031 -1752.410156 C 2724.296875 -1779.4375 2722.707031 -1807.265625 2718.730469 -1834.300781 C 2717.933594 -1841.453125 2716.742188 -1849.800781 2715.152344 -1858.148438 C 2736.222656 -1930.101562 2747.746094 -2004.441406 2767.222656 -2077.183594 C 2777.160156 -2113.359375 2787.09375 -2146.75 2802.996094 -2180.941406 C 2814.523438 -2205.585938 2824.457031 -2232.214844 2827.640625 -2259.648438 C 2838.375 -2266.402344 2849.105469 -2272.765625 2859.441406 -2279.125 C 2928.996094 -2322.851562 2989.015625 -2367.773438 3041.488281 -2431.375 C 3084.8125 -2483.851562 3122.175781 -2539.898438 3175.042969 -2584.421875 C 3217.171875 -2619.800781 3275.207031 -2664.722656 3284.746094 -2723.15625 C 3288.320312 -2747.007812 3269.246094 -2762.90625 3250.960938 -2762.90625 C 3239.035156 -2762.90625 3227.507812 -2756.152344 3223.136719 -2740.25 Z M 3223.136719 -2740.25 " fill-opacity="1" fill-rule="nonzero"/></g><g clip-path="url(#3f35cb5e65)"><path fill="#5f926a" d="M 76.394531 225.640625 C 72.421875 226.035156 67.648438 225.640625 66.457031 222.0625 C 66.058594 219.675781 67.648438 217.292969 69.238281 215.304688 C 80.765625 201.394531 92.292969 187.078125 103.816406 173.167969 C 116.9375 157.265625 130.453125 140.570312 147.941406 129.839844 C 167.019531 117.910156 190.074219 113.140625 212.332031 111.550781 C 222.667969 110.757812 233.003906 110.355469 242.9375 110.757812 C 247.3125 110.355469 251.683594 110.355469 256.054688 110.355469 C 267.980469 110.355469 281.097656 111.550781 292.625 107.574219 C 295.40625 106.78125 298.984375 103.601562 301.765625 106.382812 C 305.34375 109.960938 300.574219 117.910156 298.984375 121.492188 C 289.441406 142.160156 279.507812 162.832031 265.199219 181.121094 C 250.492188 200.199219 230.617188 216.496094 207.164062 222.0625 C 200.40625 224.050781 193.253906 224.84375 186.097656 224.84375 C 172.582031 225.640625 158.671875 224.050781 145.15625 223.253906 C 122.105469 222.0625 99.050781 222.855469 76.394531 225.640625 Z M 373.710938 -59.78125 C 367.351562 -62.960938 359.796875 -63.757812 353.4375 -67.335938 C 339.527344 -74.488281 327.601562 -84.425781 316.074219 -94.761719 C 298.191406 -110.265625 280.699219 -126.964844 259.234375 -136.101562 C 246.519531 -141.269531 233.003906 -143.65625 219.089844 -143.65625 C 206.371094 -144.054688 194.046875 -142.464844 181.726562 -139.285156 C 156.289062 -132.925781 132.4375 -120.605469 109.785156 -107.484375 C 107.796875 -105.894531 105.410156 -104.703125 104.617188 -102.316406 C 104.21875 -99.929688 105.410156 -97.148438 107.398438 -95.558594 C 109.785156 -93.96875 112.167969 -93.175781 114.550781 -92.375 C 149.132812 -82.042969 175.765625 -54.613281 209.546875 -42.6875 C 234.988281 -33.941406 262.8125 -34.339844 289.84375 -37.917969 C 290.238281 -37.917969 290.238281 -37.917969 290.238281 -37.917969 C 296.996094 -38.714844 304.148438 -39.90625 310.90625 -41.097656 C 331.179688 -44.277344 350.65625 -48.253906 370.53125 -52.226562 C 377.285156 -53.421875 379.671875 -56.996094 373.710938 -59.78125 Z M 364.964844 -205.671875 C 362.183594 -209.648438 359.402344 -213.621094 356.617188 -217.992188 C 353.042969 -223.957031 347.875 -230.714844 341.515625 -229.125 C 337.9375 -228.328125 335.554688 -225.148438 334.753906 -221.574219 C 333.5625 -218.390625 333.960938 -214.816406 333.960938 -211.234375 C 335.554688 -189.773438 337.140625 -168.304688 342.308594 -147.238281 C 347.078125 -126.5625 355.824219 -106.289062 369.738281 -89.992188 C 378.878906 -79.261719 390.800781 -70.117188 404.316406 -64.949219 C 405.511719 -64.550781 407.097656 -63.757812 408.289062 -63.355469 C 412.664062 -61.765625 417.035156 -60.175781 421.804688 -57.394531 C 426.578125 -54.613281 430.550781 -53.023438 436.113281 -54.214844 C 424.191406 -64.152344 422.601562 -80.449219 423.394531 -95.160156 C 424.589844 -109.871094 427.765625 -125.371094 423 -139.285156 C 417.035156 -156.777344 400.738281 -168.304688 387.226562 -180.628906 C 378.878906 -188.179688 371.722656 -196.527344 364.964844 -205.671875 Z M 933.765625 69.015625 C 924.222656 72.988281 914.683594 75.773438 905.140625 78.554688 C 894.015625 81.738281 882.488281 84.519531 871.359375 88.097656 C 844.328125 96.445312 816.503906 109.164062 801.003906 133.015625 C 787.890625 152.890625 785.503906 177.9375 783.117188 201.789062 C 781.128906 224.84375 779.140625 247.902344 776.753906 271.355469 C 776.753906 274.136719 776.359375 277.316406 778.347656 279.304688 C 778.742188 279.703125 779.542969 280.496094 780.335938 280.496094 C 783.515625 281.292969 787.089844 280.101562 789.875 278.511719 C 804.980469 270.164062 820.082031 262.210938 835.1875 254.261719 C 851.484375 245.515625 867.777344 236.375 880.105469 222.855469 C 897.195312 203.777344 903.949219 178.335938 913.488281 154.878906 C 916.992188 146.199219 921.183594 137.785156 925.410156 129.402344 C 924.429688 139.875 924.136719 150.441406 925.015625 160.84375 C 927.800781 191.851562 937.339844 222.0625 947.277344 251.476562 C 950.058594 259.429688 955.226562 268.972656 963.574219 267.777344 C 968.34375 266.980469 971.523438 262.609375 973.910156 258.636719 L 974.308594 258.238281 C 985.832031 241.542969 997.359375 224.84375 1004.511719 205.761719 C 1012.066406 186.683594 1014.847656 164.816406 1008.09375 145.738281 C 1000.9375 123.871094 982.652344 107.179688 974.308594 85.710938 C 971.128906 77.363281 968.34375 67.425781 959.996094 63.847656 C 958.023438 62.929688 955.789062 63.214844 953.609375 63.253906 C 947.539062 61.65625 938.339844 67.386719 933.765625 69.015625 Z M 399.546875 -992.367188 C 403.125 -994.355469 406.300781 -996.742188 408.6875 -999.921875 C 411.117188 -1003.253906 411.636719 -1008.628906 408.953125 -1011.894531 C 409 -1011.878906 409.039062 -1011.859375 409.085938 -1011.847656 C 424.589844 -1006.28125 442.472656 -1003.894531 435.320312 -1027.75 C 430.945312 -1042.457031 428.164062 -1054.382812 428.5625 -1070.28125 C 428.957031 -1083.398438 429.757812 -1097.3125 423.792969 -1109.640625 C 417.433594 -1123.152344 404.316406 -1131.898438 390.800781 -1138.65625 C 381.660156 -1143.425781 372.519531 -1147.800781 364.171875 -1153.761719 C 360.199219 -1156.148438 356.617188 -1158.929688 353.042969 -1162.507812 C 349.464844 -1166.082031 344.695312 -1170.855469 339.527344 -1169.265625 C 334.753906 -1167.675781 333.5625 -1161.714844 332.769531 -1156.941406 C 331.179688 -1143.027344 329.191406 -1128.71875 329.988281 -1114.808594 C 331.574219 -1088.566406 342.707031 -1063.125 360.199219 -1043.648438 C 370.925781 -1031.722656 384.046875 -1022.578125 398.75 -1015.820312 C 400.125 -1015.304688 401.726562 -1014.703125 403.21875 -1014.101562 C 399.476562 -1014.21875 394.46875 -1012.242188 390.800781 -1012.242188 C 375.300781 -1011.84375 359.402344 -1018.203125 345.089844 -1024.167969 C 331.574219 -1030.132812 318.460938 -1036.492188 304.148438 -1040.070312 C 298.984375 -1041.261719 293.816406 -1042.457031 288.25 -1042.851562 C 265.59375 -1044.839844 242.9375 -1036.492188 224.257812 -1024.167969 C 205.175781 -1011.449219 188.878906 -995.148438 173.378906 -978.851562 C 170.996094 -976.46875 168.210938 -973.285156 168.609375 -970.109375 C 169.40625 -964.140625 177.75 -963.347656 183.714844 -964.140625 C 198.421875 -965.335938 213.128906 -963.746094 227.4375 -960.167969 C 248.902344 -954.601562 269.171875 -943.074219 291.035156 -942.28125 L 292.222656 -942.28125 C 319.253906 -941.878906 343.898438 -956.988281 366.554688 -971.300781 C 377.6875 -978.453125 388.8125 -985.214844 399.546875 -992.367188 Z M 2696.597656 -1238.035156 C 2692.625 -1231.277344 2690.238281 -1222.929688 2687.457031 -1216.570312 C 2679.902344 -1199.875 2672.351562 -1182.78125 2667.582031 -1164.894531 C 2658.835938 -1131.5 2661.621094 -1096.121094 2671.953125 -1063.125 C 2682.289062 -1030.527344 2700.175781 -1000.316406 2721.640625 -973.285156 C 2724.023438 -970.109375 2726.808594 -966.527344 2730.382812 -964.941406 C 2733.5625 -962.949219 2737.933594 -962.554688 2741.511719 -964.539062 C 2741.910156 -964.539062 2741.910156 -964.941406 2742.308594 -964.941406 C 2746.28125 -968.515625 2745.882812 -974.480469 2746.28125 -980.042969 C 2747.078125 -1005.484375 2766.15625 -1026.554688 2773.3125 -1051.203125 C 2782.054688 -1081.015625 2772.515625 -1112.816406 2760.191406 -1141.441406 C 2747.078125 -1171.648438 2732.371094 -1199.875 2727.601562 -1233.265625 C 2725.613281 -1244.394531 2722.832031 -1257.910156 2708.519531 -1251.15625 C 2702.960938 -1248.371094 2699.378906 -1243.605469 2696.597656 -1238.035156 Z M 654.730469 -1585.074219 C 658.703125 -1589.84375 666.65625 -1587.855469 672.21875 -1585.074219 C 679.371094 -1581.890625 686.925781 -1578.710938 693.6875 -1575.136719 C 694.078125 -1575.136719 694.078125 -1575.136719 694.078125 -1574.734375 C 701.632812 -1570.761719 708.785156 -1565.992188 715.542969 -1560.425781 C 728.660156 -1550.089844 738.996094 -1535.78125 742.574219 -1519.480469 C 749.726562 -1485.292969 724.289062 -1450.710938 729.855469 -1415.730469 C 730.285156 -1412.835938 730.101562 -1410.039062 729.515625 -1407.53125 C 733.972656 -1407.910156 738.597656 -1408.269531 742.972656 -1406.585938 C 756.085938 -1402.609375 750.527344 -1393.46875 741.382812 -1388.695312 C 715.148438 -1374.386719 703.621094 -1339.800781 676.988281 -1327.480469 C 675.796875 -1326.285156 675.003906 -1325.890625 673.8125 -1325.492188 C 660.296875 -1320.320312 645.1875 -1321.511719 630.878906 -1322.707031 C 620.546875 -1323.503906 610.210938 -1324.695312 599.875 -1325.492188 C 596.699219 -1325.890625 593.515625 -1326.285156 591.136719 -1328.273438 C 587.953125 -1331.851562 589.941406 -1337.816406 592.328125 -1341.789062 C 605.042969 -1366.035156 625.714844 -1385.515625 650.753906 -1396.648438 C 665.777344 -1403.621094 680.855469 -1406.070312 696.488281 -1406.675781 C 694.484375 -1407.042969 692.464844 -1407.382812 690.503906 -1407.382812 C 679.371094 -1408.175781 667.847656 -1404.597656 657.515625 -1401.816406 C 649.164062 -1399.429688 640.820312 -1397.042969 632.472656 -1395.058594 C 632.074219 -1395.058594 631.28125 -1395.058594 630.878906 -1394.660156 C 626.507812 -1393.46875 622.136719 -1392.671875 617.765625 -1391.875 L 617.363281 -1391.875 C 616.574219 -1391.480469 615.777344 -1391.480469 614.582031 -1391.480469 C 607.429688 -1390.289062 599.875 -1390.289062 592.328125 -1391.480469 C 578.8125 -1393.46875 566.488281 -1399.828125 554.960938 -1406.585938 C 531.113281 -1420.894531 509.648438 -1438.386719 490.570312 -1458.660156 C 486.992188 -1462.238281 483.414062 -1467.40625 485.402344 -1472.179688 C 486.992188 -1476.945312 493.351562 -1478.136719 498.125 -1478.539062 C 524.355469 -1481.320312 550.191406 -1484.101562 576.027344 -1486.886719 C 578.015625 -1486.886719 579.605469 -1487.28125 581.59375 -1487.28125 C 596.300781 -1489.273438 611.007812 -1490.066406 624.917969 -1485.292969 C 660.472656 -1473.445312 677.769531 -1433.832031 707.328125 -1412.769531 C 704.839844 -1416.816406 702.441406 -1421.019531 699.246094 -1424.472656 C 682.953125 -1441.171875 672.21875 -1462.238281 665.464844 -1484.898438 C 656.714844 -1513.519531 654.730469 -1543.730469 652.347656 -1573.542969 C 652.347656 -1577.519531 651.949219 -1581.890625 654.730469 -1585.074219 Z M 706.832031 -1406.875 C 708.335938 -1406.859375 709.851562 -1406.8125 711.363281 -1406.769531 C 711.3125 -1406.839844 711.222656 -1406.914062 711.175781 -1406.984375 C 710.609375 -1407.648438 710.195312 -1408.519531 709.671875 -1409.242188 C 708.773438 -1408.25 707.855469 -1407.339844 706.832031 -1406.875 Z M 1608.289062 -591.265625 C 1607.894531 -590.867188 1608.289062 -590.476562 1608.289062 -590.476562 L 1608.289062 -587.6875 C 1608.183594 -586.363281 1607.894531 -585.078125 1607.730469 -583.761719 C 1605.902344 -584.679688 1603.859375 -584.890625 1601.929688 -583.316406 C 1599.945312 -580.933594 1600.734375 -573.378906 1599.546875 -570.597656 C 1595.175781 -557.878906 1584.441406 -545.554688 1576.492188 -534.421875 C 1575.300781 -532.832031 1574.503906 -531.242188 1573.3125 -529.652344 C 1560.59375 -509.777344 1547.476562 -489.101562 1544.296875 -465.652344 C 1540.71875 -436.632812 1553.4375 -408.011719 1567.351562 -382.171875 C 1582.453125 -354.347656 1600.34375 -326.519531 1628.164062 -312.601562 C 1634.527344 -309.027344 1642.476562 -306.644531 1648.835938 -309.824219 C 1649.234375 -310.21875 1649.628906 -310.21875 1650.027344 -310.617188 C 1654.398438 -313.003906 1657.183594 -317.769531 1659.167969 -322.144531 C 1671.089844 -347.984375 1669.105469 -378.59375 1660.757812 -406.023438 C 1654.355469 -426.761719 1644.695312 -446.574219 1635.6875 -466.519531 C 1659.566406 -434.546875 1694.496094 -411.34375 1732.304688 -398.867188 C 1735.882812 -398.074219 1739.460938 -396.878906 1743.039062 -396.878906 C 1744.628906 -396.480469 1746.21875 -396.480469 1748.203125 -396.480469 C 1753.371094 -396.878906 1758.9375 -399.660156 1760.925781 -404.433594 C 1762.910156 -408.808594 1761.71875 -413.574219 1760.925781 -418.347656 C 1757.347656 -435.042969 1753.769531 -451.34375 1750.589844 -468.035156 C 1747.40625 -481.550781 1744.628906 -495.464844 1736.679688 -506.597656 C 1727.933594 -519.316406 1714.421875 -527.265625 1700.902344 -533.230469 C 1686.992188 -539.191406 1672.285156 -543.5625 1659.167969 -550.722656 C 1645.652344 -557.480469 1633.332031 -567.8125 1627.371094 -581.726562 C 1625.777344 -584.90625 1624.984375 -588.089844 1622.996094 -591.265625 C 1620.609375 -594.847656 1615.84375 -598.421875 1611.46875 -596.433594 C 1608.6875 -594.847656 1608.289062 -593.253906 1608.289062 -591.265625 Z M 2069.636719 -415.859375 C 2063.28125 -414.167969 2054.21875 -408.671875 2049.894531 -406.816406 C 2033.597656 -400.058594 2016.503906 -396.878906 1999.414062 -394.492188 C 1995.042969 -393.699219 1990.273438 -393.300781 1985.898438 -392.507812 C 1964.832031 -389.726562 1943.765625 -386.546875 1924.6875 -377.398438 C 1897.261719 -363.488281 1877.785156 -338.046875 1865.066406 -310.21875 C 1852.742188 -282.394531 1846.777344 -252.183594 1840.816406 -221.96875 C 1840.023438 -217.992188 1839.226562 -213.226562 1841.613281 -209.648438 C 1845.585938 -203.683594 1854.730469 -205.273438 1861.484375 -207.660156 C 1892.09375 -218.789062 1922.699219 -229.523438 1953.703125 -240.257812 C 1956.085938 -241.046875 1958.078125 -241.847656 1960.460938 -242.640625 C 1977.152344 -248.601562 1993.449219 -255.359375 2005.773438 -267.683594 C 2018.492188 -279.609375 2025.644531 -295.910156 2032.804688 -311.8125 C 2040.632812 -329.257812 2048.351562 -346.601562 2056.070312 -363.941406 C 2053.207031 -347.28125 2052.722656 -330.277344 2055.058594 -313.398438 C 2059.035156 -281.203125 2070.164062 -250.195312 2083.28125 -219.980469 C 2087.652344 -209.25 2092.820312 -198.117188 2099.976562 -188.578125 C 2103.550781 -183.804688 2108.324219 -178.640625 2114.285156 -179.039062 C 2117.863281 -179.433594 2121.042969 -181.425781 2123.027344 -184.207031 C 2124.621094 -185.398438 2125.414062 -187.386719 2126.207031 -188.976562 C 2127.796875 -194.144531 2127.796875 -199.707031 2128.199219 -204.878906 C 2129.390625 -223.558594 2134.953125 -241.847656 2139.328125 -260.136719 C 2143.699219 -278.816406 2146.480469 -297.894531 2142.109375 -316.183594 C 2133.761719 -353.152344 2099.578125 -378.992188 2088.050781 -414.765625 C 2083.921875 -426.78125 2075.28125 -425.691406 2069.636719 -415.859375 Z M 1332.042969 -2086.347656 C 1328.066406 -2083.960938 1330.449219 -2077.601562 1333.234375 -2073.628906 C 1353.109375 -2046.992188 1372.980469 -2019.964844 1398.421875 -1998.894531 C 1408.421875 -1990.613281 1419.675781 -1983.703125 1431.398438 -1977.894531 C 1429.160156 -1978.273438 1426.886719 -1978.667969 1424.652344 -1979.019531 C 1396.828125 -1983.789062 1365.824219 -1984.582031 1342.773438 -1968.683594 C 1328.859375 -1958.742188 1319.320312 -1944.035156 1310.972656 -1928.929688 C 1298.253906 -1905.078125 1287.523438 -1880.035156 1283.945312 -1853.398438 C 1283.546875 -1849.027344 1283.546875 -1843.464844 1287.125 -1840.679688 C 1293.089844 -1836.707031 1299.84375 -1843.0625 1304.613281 -1847.835938 C 1320.910156 -1863.738281 1345.554688 -1866.121094 1368.210938 -1866.519531 L 1372.980469 -1866.519531 C 1393.648438 -1866.519531 1415.910156 -1866.121094 1434.191406 -1875.265625 C 1458.835938 -1887.585938 1471.953125 -1913.824219 1488.652344 -1934.496094 C 1491.710938 -1938.328125 1499.5625 -1944.621094 1506.25 -1950.949219 C 1502.691406 -1939.445312 1502.683594 -1925.90625 1502.960938 -1915.015625 C 1503.355469 -1893.152344 1505.742188 -1871.6875 1510.511719 -1850.222656 C 1515.679688 -1825.570312 1524.421875 -1799.738281 1544.296875 -1783.835938 C 1547.476562 -1781.449219 1551.449219 -1779.0625 1555.027344 -1780.65625 C 1555.824219 -1780.65625 1556.21875 -1780.65625 1556.617188 -1781.050781 C 1559.003906 -1782.644531 1559.796875 -1785.425781 1560.59375 -1788.207031 C 1565.761719 -1806.890625 1570.925781 -1825.570312 1576.09375 -1844.257812 C 1580.070312 -1858.171875 1584.042969 -1872.480469 1581.660156 -1886.792969 C 1577.289062 -1915.015625 1551.847656 -1932.90625 1537.9375 -1956.757812 C 1531.953125 -1967.222656 1526.605469 -1977.078125 1515.734375 -1966.988281 C 1515.492188 -1967.933594 1514.816406 -1968.476562 1514.273438 -1969.152344 C 1516.652344 -1970.164062 1518.726562 -1971.535156 1519.652344 -1973.851562 C 1521.242188 -1976.632812 1520.046875 -1980.210938 1519.253906 -1983.789062 C 1510.507812 -2013.605469 1499.378906 -2045.800781 1473.148438 -2062.894531 C 1460.027344 -2071.242188 1444.128906 -2074.425781 1428.230469 -2076.410156 C 1424.652344 -2077.207031 1420.679688 -2077.605469 1417.101562 -2078 C 1390.46875 -2081.183594 1364.238281 -2083.960938 1338 -2087.140625 C 1336.015625 -2087.539062 1333.628906 -2087.539062 1332.042969 -2086.347656 Z M 1332.042969 -2086.347656 " fill-opacity="1" fill-rule="nonzero"/></g><g clip-path="url(#c7efeaebcf)"><path fill="#587e60" d="M 1615.320312 -553.980469 C 1615.339844 -555.628906 1617.070312 -556.507812 1618.476562 -555.792969 C 1623.296875 -553.316406 1626.207031 -547.203125 1628.449219 -542.535156 C 1630.890625 -537.445312 1633.183594 -532.269531 1635.382812 -527.074219 C 1640.125 -515.871094 1644.933594 -504.375 1652.386719 -494.648438 C 1660.390625 -484.203125 1671.351562 -476.328125 1681.652344 -468.320312 C 1692.144531 -460.167969 1702.101562 -449.871094 1714.214844 -444.195312 C 1716.476562 -443.136719 1714.84375 -439.515625 1712.539062 -440.222656 C 1699.960938 -444.070312 1689.699219 -454.375 1679.117188 -461.851562 C 1668.042969 -469.667969 1656.488281 -477.824219 1647.742188 -488.285156 C 1639.671875 -497.929688 1634.019531 -509.113281 1628.792969 -520.46875 C 1626.097656 -526.328125 1623.644531 -532.292969 1620.917969 -538.132812 C 1618.675781 -542.929688 1615.257812 -548.550781 1615.320312 -553.980469 Z M 407.785156 -1018.929688 C 408.085938 -1017.101562 408.253906 -1015.242188 408.6875 -1013.433594 C 408.6875 -1013.035156 409.085938 -1012.242188 409.085938 -1011.847656 C 424.589844 -1006.28125 442.472656 -1003.894531 435.320312 -1027.75 C 430.945312 -1042.457031 428.164062 -1054.378906 428.5625 -1070.28125 C 428.957031 -1083.398438 429.757812 -1097.3125 423.792969 -1109.636719 C 417.433594 -1123.152344 404.316406 -1131.898438 390.800781 -1138.65625 C 381.660156 -1143.425781 372.519531 -1147.800781 364.171875 -1153.761719 C 364.570312 -1152.964844 364.964844 -1152.171875 365.363281 -1151.773438 C 376.890625 -1135.472656 393.980469 -1122.753906 401.929688 -1104.074219 C 411.472656 -1081.808594 405.613281 -1056.25 406.507812 -1031.640625 C 401.859375 -1034.0625 397.191406 -1036.492188 393.628906 -1040.175781 C 385.339844 -1048.757812 380.476562 -1060.082031 373.933594 -1069.925781 C 360.792969 -1089.699219 352.835938 -1113.691406 351.074219 -1137.347656 C 350.882812 -1139.960938 346.984375 -1140.03125 346.957031 -1137.347656 C 346.734375 -1111.894531 353.121094 -1086.257812 366.382812 -1064.496094 C 372.800781 -1053.953125 378.191406 -1042.347656 386.765625 -1033.308594 C 391.996094 -1027.796875 399.800781 -1022.363281 407.785156 -1018.929688 Z M 2696.597656 -1238.035156 C 2697.394531 -1236.050781 2698.183594 -1234.457031 2698.984375 -1232.871094 C 2700.792969 -1229.371094 2702.457031 -1225.78125 2704.191406 -1222.230469 C 2699.894531 -1204.308594 2704.617188 -1184.050781 2703.351562 -1165.9375 C 2701.746094 -1142.867188 2696.484375 -1120.398438 2695.980469 -1097.203125 C 2695.015625 -1052.816406 2706.226562 -1009.25 2731.558594 -972.5 C 2733.214844 -970.09375 2736.933594 -972.191406 2735.511719 -974.8125 C 2713.054688 -1016.300781 2701.875 -1058.792969 2706.171875 -1106.054688 C 2708.140625 -1127.746094 2713.179688 -1149.042969 2714.296875 -1170.835938 C 2714.828125 -1181.246094 2713.640625 -1191.246094 2713.035156 -1201.59375 C 2713.007812 -1202.082031 2713.0625 -1202.636719 2713.050781 -1203.132812 C 2733.746094 -1155.894531 2746.914062 -1105.101562 2744.296875 -1053.984375 C 2742.308594 -1024.167969 2735.949219 -993.558594 2741.515625 -964.539062 C 2741.910156 -964.539062 2741.910156 -964.941406 2742.308594 -964.941406 C 2746.28125 -968.515625 2745.882812 -974.480469 2746.28125 -980.046875 C 2747.078125 -1005.488281 2766.15625 -1026.554688 2773.3125 -1051.203125 C 2782.054688 -1081.015625 2772.519531 -1112.816406 2760.195312 -1141.441406 C 2747.078125 -1171.648438 2732.371094 -1199.875 2727.601562 -1233.265625 C 2725.613281 -1244.394531 2722.835938 -1257.910156 2708.523438 -1251.15625 C 2702.960938 -1248.371094 2699.378906 -1243.605469 2696.597656 -1238.035156 Z M 1454.066406 -2056.136719 C 1470.363281 -2036.65625 1475.136719 -2010.023438 1486.265625 -1987.363281 C 1487.953125 -1983.796875 1489.863281 -1980.355469 1492.03125 -1977.09375 C 1487.28125 -1979.609375 1482.660156 -1982.414062 1478.3125 -1985.296875 C 1463.746094 -1994.949219 1450.449219 -2006.621094 1438.15625 -2019.011719 C 1426.476562 -2030.777344 1413.777344 -2041.144531 1400.273438 -2050.738281 C 1393.976562 -2055.210938 1387.777344 -2060.039062 1380.523438 -2062.882812 C 1372.535156 -2066.019531 1363.675781 -2066.152344 1356.074219 -2070.335938 C 1352.808594 -2072.128906 1350.117188 -2067.421875 1353.175781 -2065.375 C 1359.21875 -2061.328125 1366.109375 -2059.773438 1372.910156 -2057.457031 C 1382.210938 -2054.292969 1389.449219 -2047.972656 1397.035156 -2041.945312 C 1411.296875 -2030.625 1423.074219 -2017.964844 1435.128906 -2004.417969 C 1446.421875 -1991.734375 1459.070312 -1980.542969 1473.0625 -1970.910156 C 1475.925781 -1968.933594 1479.78125 -1966.566406 1484.003906 -1964.273438 C 1482.304688 -1962.972656 1480.601562 -1961.640625 1478.882812 -1960.484375 C 1470.992188 -1955.171875 1462.351562 -1951.351562 1453.4375 -1948.117188 C 1433.28125 -1940.804688 1412.632812 -1937.390625 1391.792969 -1932.835938 C 1373.355469 -1928.804688 1355.5625 -1926.007812 1340.578125 -1913.953125 C 1325.75 -1902.027344 1313.535156 -1890.734375 1302.664062 -1875.070312 C 1300.929688 -1872.570312 1304.617188 -1870.128906 1306.6875 -1871.96875 C 1321.214844 -1884.882812 1334.28125 -1898.746094 1351.65625 -1908.144531 C 1361.273438 -1913.34375 1372.769531 -1912.742188 1383.390625 -1913.714844 C 1393.339844 -1914.628906 1403.222656 -1915.582031 1413.117188 -1916.964844 C 1419.527344 -1917.859375 1425.648438 -1919.296875 1431.835938 -1920.609375 C 1431.617188 -1920.28125 1431.214844 -1920.128906 1431.011719 -1919.789062 C 1428.628906 -1916.207031 1427.832031 -1911.835938 1426.246094 -1907.859375 C 1419.484375 -1889.972656 1402.792969 -1876.855469 1384.90625 -1870.101562 C 1380.933594 -1868.507812 1377.351562 -1867.3125 1372.980469 -1866.519531 C 1393.648438 -1866.519531 1415.910156 -1866.121094 1434.191406 -1875.265625 C 1458.835938 -1887.585938 1471.953125 -1913.828125 1488.652344 -1934.496094 C 1492.90625 -1939.824219 1506.277344 -1949.804688 1512.855469 -1958.128906 C 1513 -1958.164062 1513.175781 -1958.105469 1513.316406 -1958.144531 C 1512.820312 -1931.714844 1524.207031 -1909.699219 1535.066406 -1885.8125 C 1542.070312 -1870.402344 1540.777344 -1856.316406 1540.335938 -1839.871094 C 1539.953125 -1825.390625 1542.515625 -1810.957031 1547.566406 -1797.40625 C 1548.25 -1795.566406 1551.117188 -1796.273438 1550.558594 -1798.230469 C 1545.871094 -1814.71875 1545.585938 -1830.988281 1547.917969 -1847.859375 C 1549.863281 -1861.949219 1549.726562 -1874.074219 1544.308594 -1887.40625 C 1538.839844 -1900.855469 1531.777344 -1913.507812 1527.066406 -1927.296875 C 1525.421875 -1932.109375 1524.277344 -1936.984375 1523.46875 -1941.921875 C 1526.136719 -1937.566406 1528.851562 -1933.191406 1531.972656 -1929.328125 C 1540.324219 -1918.59375 1549.859375 -1907.859375 1555.425781 -1895.539062 C 1564.171875 -1876.457031 1563.773438 -1854.199219 1560.988281 -1833.128906 C 1559.003906 -1815.636719 1555.425781 -1798.144531 1555.027344 -1780.65625 C 1555.824219 -1780.65625 1556.21875 -1780.65625 1556.617188 -1781.054688 C 1559.003906 -1782.644531 1559.796875 -1785.425781 1560.59375 -1788.207031 C 1565.761719 -1806.890625 1570.925781 -1825.574219 1576.09375 -1844.257812 C 1580.070312 -1858.171875 1584.042969 -1872.484375 1581.660156 -1886.792969 C 1577.289062 -1915.019531 1551.847656 -1932.90625 1537.9375 -1956.757812 C 1532.070312 -1967.019531 1526.8125 -1976.699219 1516.375 -1967.574219 C 1515.550781 -1968.242188 1514.503906 -1968.488281 1513.5625 -1968.929688 C 1516.234375 -1969.9375 1518.640625 -1971.316406 1519.652344 -1973.851562 C 1521.242188 -1976.636719 1520.046875 -1980.210938 1519.253906 -1983.789062 C 1510.507812 -2013.605469 1499.378906 -2045.804688 1473.148438 -2062.898438 C 1460.027344 -2071.246094 1444.128906 -2074.425781 1428.230469 -2076.410156 C 1438.167969 -2071.242188 1446.910156 -2064.484375 1454.066406 -2056.136719 Z M 724.289062 -1525.445312 C 727.46875 -1504.773438 719.519531 -1484.101562 713.558594 -1463.828125 C 711.679688 -1458.058594 710.1875 -1452.03125 709 -1445.941406 C 708.9375 -1446.058594 708.84375 -1446.148438 708.777344 -1446.265625 C 703.546875 -1455.578125 699.660156 -1465.613281 696.386719 -1475.761719 C 692.4375 -1488 690.796875 -1500.800781 687.113281 -1513.097656 C 683.480469 -1525.234375 678.863281 -1536.917969 679.152344 -1549.808594 C 679.203125 -1552.429688 675.300781 -1552.378906 675.113281 -1549.808594 C 674.214844 -1537.457031 677.546875 -1525.390625 680.367188 -1513.472656 C 683.648438 -1499.585938 685.554688 -1485.386719 689.4375 -1471.644531 C 692.433594 -1461.023438 696.285156 -1450.636719 701.5625 -1440.921875 C 703.269531 -1437.777344 705.242188 -1434.527344 707.359375 -1431.34375 C 707.128906 -1424.246094 707.984375 -1417.273438 710.226562 -1410.582031 C 678.792969 -1431 661.660156 -1473.046875 624.917969 -1485.292969 C 611.007812 -1490.066406 596.300781 -1489.273438 581.59375 -1487.28125 C 583.183594 -1486.886719 584.375 -1486.089844 585.566406 -1485.292969 C 594.707031 -1480.125 603.457031 -1474.5625 611.007812 -1467.804688 C 620.152344 -1459.851562 627.699219 -1450.3125 633.664062 -1439.980469 C 637.171875 -1434.363281 639.609375 -1428.066406 639.695312 -1421.488281 C 637.007812 -1421.71875 634.25 -1421.808594 631.628906 -1422.191406 C 619.050781 -1424.035156 606.351562 -1426.476562 594.148438 -1430.09375 C 581.6875 -1433.792969 569.949219 -1439.539062 557.601562 -1443.609375 C 545.585938 -1447.570312 533.335938 -1450.695312 522.351562 -1457.195312 C 520.296875 -1458.40625 518.613281 -1455.375 520.507812 -1454.042969 C 530.671875 -1446.933594 542.273438 -1442.777344 553.679688 -1438.132812 C 566.492188 -1432.914062 578.738281 -1426.292969 591.890625 -1421.886719 C 604.742188 -1417.589844 618.433594 -1414.890625 631.820312 -1412.867188 C 633.742188 -1412.578125 635.757812 -1412.289062 637.742188 -1411.992188 C 635.921875 -1407.976562 633.402344 -1404.222656 630.085938 -1401.417969 C 625.316406 -1397.445312 620.152344 -1394.261719 614.582031 -1391.480469 C 614.1875 -1391.082031 613.390625 -1391.082031 612.996094 -1390.683594 C 614.582031 -1391.082031 615.777344 -1391.480469 617.363281 -1391.875 L 617.765625 -1391.875 C 622.136719 -1393.070312 626.507812 -1394.261719 630.878906 -1394.660156 C 631.28125 -1395.058594 632.074219 -1395.058594 632.472656 -1395.058594 C 640.820312 -1397.042969 649.164062 -1399.429688 657.511719 -1401.816406 C 667.847656 -1404.597656 679.371094 -1408.175781 690.503906 -1407.382812 C 697.507812 -1407.382812 705.242188 -1402.964844 710.417969 -1409.863281 C 710.75 -1408.917969 710.78125 -1407.914062 711.175781 -1406.984375 C 711.96875 -1405.789062 713.160156 -1404.597656 714.355469 -1403.402344 C 715.195312 -1402.738281 715.765625 -1402.863281 716.539062 -1402.402344 C 713.667969 -1400.554688 711.089844 -1398.3125 708.621094 -1395.929688 C 702.734375 -1394.195312 697.011719 -1391.625 691.472656 -1389.289062 C 681.25 -1384.976562 671.304688 -1380.210938 661.585938 -1374.855469 C 642.230469 -1364.179688 624.9375 -1351.4375 608.921875 -1336.21875 C 607.363281 -1334.738281 609.460938 -1331.847656 611.269531 -1333.171875 C 628.550781 -1345.757812 647.621094 -1356.535156 666.855469 -1365.835938 C 676.519531 -1370.511719 686.390625 -1374.847656 696.316406 -1378.921875 C 696.335938 -1378.929688 696.355469 -1378.933594 696.375 -1378.941406 C 695.480469 -1377.152344 694.414062 -1375.441406 693.6875 -1373.589844 C 689.3125 -1361.667969 687.71875 -1348.945312 682.953125 -1337.414062 C 681.359375 -1333.441406 679.769531 -1330.261719 676.988281 -1327.480469 C 703.621094 -1339.800781 715.148438 -1374.386719 741.382812 -1388.695312 C 750.527344 -1393.46875 756.085938 -1402.609375 742.972656 -1406.585938 C 738.597656 -1408.269531 733.972656 -1407.910156 729.515625 -1407.53125 C 730.101562 -1410.039062 730.285156 -1412.835938 729.855469 -1415.730469 C 724.289062 -1450.710938 749.726562 -1485.292969 742.574219 -1519.480469 C 738.996094 -1535.78125 728.660156 -1550.089844 715.542969 -1560.425781 C 708.785156 -1565.992188 701.632812 -1570.761719 694.078125 -1574.734375 C 698.851562 -1570.363281 703.222656 -1565.59375 707.199219 -1560.824219 C 715.542969 -1550.488281 721.902344 -1538.5625 724.289062 -1525.445312 Z M 399.546875 -992.367188 C 403.125 -994.355469 406.300781 -996.742188 408.6875 -999.921875 C 411.871094 -1004.292969 411.871094 -1012.242188 405.511719 -1014.230469 C 401.929688 -1015.820312 395.175781 -1012.242188 390.800781 -1012.242188 C 375.300781 -1011.847656 359.402344 -1018.207031 345.089844 -1024.167969 C 331.574219 -1030.132812 318.460938 -1036.492188 304.148438 -1040.070312 C 314.898438 -1028.171875 325.292969 -1016.652344 336.007812 -1005.136719 C 320.8125 -1006.488281 305.34375 -1007.757812 290.097656 -1007.691406 C 274.65625 -1007.617188 259.09375 -1005.484375 244.441406 -1000.527344 C 229.246094 -995.386719 215.347656 -987.152344 199.660156 -983.429688 C 197.65625 -982.953125 198.027344 -979.574219 200.152344 -979.769531 C 216.359375 -981.277344 231.375 -987.140625 247.007812 -991.222656 C 263.914062 -995.636719 281.050781 -997.222656 298.480469 -996.296875 C 312.835938 -995.527344 327.183594 -994.316406 341.507812 -993.023438 C 341.078125 -990.578125 339.875 -988.164062 338.335938 -986.007812 C 326.40625 -968.121094 312.894531 -949.039062 292.222656 -942.28125 C 319.253906 -941.878906 343.898438 -956.988281 366.554688 -971.300781 C 377.6875 -978.453125 388.8125 -985.214844 399.546875 -992.367188 Z M 380.863281 -165.917969 C 388.019531 -154.789062 399.546875 -146.4375 404.714844 -134.117188 C 411.511719 -118.574219 407.464844 -100.957031 406.71875 -83.769531 C 402.84375 -87.023438 398.644531 -90.011719 395.058594 -93.230469 C 384.894531 -102.339844 378.113281 -115.289062 374.015625 -128.203125 C 369.761719 -141.625 367.40625 -155.738281 363.855469 -169.375 C 362.035156 -176.363281 360.402344 -183.375 357.761719 -190.113281 C 355.125 -196.832031 352.117188 -203.445312 350.128906 -210.398438 C 349.554688 -212.417969 346.082031 -212.128906 346.316406 -209.882812 C 347.78125 -195.964844 353.492188 -182.394531 356.605469 -168.742188 C 360.023438 -153.78125 362.117188 -138.308594 366.515625 -123.609375 C 370.199219 -111.3125 375.191406 -99.050781 383.78125 -89.328125 C 390.105469 -82.167969 398.542969 -74.761719 407.191406 -69.410156 C 407.492188 -67.351562 407.738281 -65.285156 408.289062 -63.355469 C 412.664062 -61.765625 417.035156 -60.175781 421.804688 -57.394531 C 426.578125 -54.613281 430.550781 -53.023438 436.113281 -54.214844 C 424.191406 -64.152344 422.601562 -80.449219 423.394531 -95.160156 C 424.589844 -109.871094 427.765625 -125.371094 423 -139.285156 C 417.035156 -156.777344 400.738281 -168.304688 387.226562 -180.628906 C 378.878906 -188.179688 371.722656 -196.527344 364.964844 -205.671875 C 369.738281 -192.15625 372.914062 -177.847656 380.863281 -165.917969 Z M 373.710938 -59.78125 C 367.351562 -62.960938 359.796875 -63.757812 353.4375 -67.335938 C 339.527344 -74.488281 327.601562 -84.425781 316.074219 -94.761719 C 298.191406 -110.265625 280.699219 -126.964844 259.234375 -136.101562 C 246.519531 -141.269531 233.003906 -143.65625 219.089844 -143.65625 C 242.539062 -134.515625 264.007812 -120.203125 281.492188 -101.917969 C 294.542969 -88.542969 305.640625 -72.980469 319.675781 -60.941406 C 308.410156 -61.652344 297.117188 -62.097656 286.148438 -64.789062 C 269.605469 -68.84375 254.453125 -76.890625 238.652344 -83.015625 C 223.34375 -88.953125 208.042969 -96.539062 192.058594 -100.503906 C 174.609375 -104.824219 156.457031 -104.914062 138.632812 -103.804688 C 136.332031 -103.660156 136.335938 -100.394531 138.632812 -100.234375 C 158.085938 -98.867188 177.96875 -97.207031 196.496094 -90.710938 C 212.761719 -85 229.0625 -77.335938 244.746094 -70.191406 C 267.996094 -59.609375 292.429688 -50.414062 317.828125 -49.59375 C 308.355469 -46.359375 299.042969 -42.75 290.238281 -37.914062 C 296.996094 -38.714844 304.148438 -39.90625 310.90625 -41.097656 C 331.179688 -44.273438 350.65625 -48.253906 370.53125 -52.226562 C 377.285156 -53.421875 379.671875 -56.996094 373.710938 -59.78125 Z M 265.199219 181.121094 C 279.507812 162.832031 289.441406 142.160156 298.984375 121.492188 C 300.574219 117.910156 305.34375 109.960938 301.765625 106.382812 C 298.984375 103.601562 295.40625 106.78125 292.625 107.574219 C 281.097656 111.550781 267.980469 110.355469 256.054688 110.355469 C 251.683594 110.355469 247.3125 110.355469 242.9375 110.757812 C 244.925781 113.9375 248.105469 117.117188 250.09375 120.691406 C 254.257812 126.710938 255.914062 134.070312 255.96875 141.519531 C 248.707031 146.996094 241.839844 153.113281 234.21875 158.058594 C 220.542969 166.929688 203.179688 170.902344 187.613281 175.242188 C 171.441406 179.746094 154.457031 182.449219 138.878906 188.867188 C 125.109375 194.535156 113.707031 206.0625 98.375 207.4375 C 95.878906 207.660156 95.785156 211.367188 98.375 211.398438 C 112.402344 211.539062 123.703125 204.9375 136.09375 199.320312 C 152.988281 191.660156 172.464844 189.695312 190.359375 185.210938 C 205.71875 181.363281 222.296875 177.761719 236.351562 170.277344 C 241.953125 167.296875 247.394531 163.140625 252.78125 159.027344 C 248.625 170.175781 241.308594 180.027344 233.398438 189.070312 C 224.257812 199.007812 213.921875 208.546875 202.394531 216.101562 C 197.226562 219.28125 191.664062 222.460938 186.097656 224.84375 C 193.253906 224.84375 200.40625 224.050781 207.164062 222.0625 C 230.617188 216.496094 250.492188 200.199219 265.199219 181.121094 Z M 933.765625 69.015625 C 924.222656 72.988281 914.683594 75.773438 905.140625 78.554688 C 905.542969 84.519531 906.734375 90.878906 906.335938 96.84375 C 906.125 99.316406 905.335938 101.636719 904.613281 103.972656 C 891.679688 108.148438 879.15625 117.074219 869.140625 124.710938 C 855.679688 134.980469 843.265625 146.917969 832.765625 160.214844 C 810.304688 188.667969 800.402344 221.496094 791.128906 255.898438 C 790.34375 258.8125 794.484375 259.792969 795.546875 257.117188 C 807.96875 225.839844 820.496094 194.085938 842.503906 168.175781 C 852.625 156.257812 863.953125 145.660156 876.253906 136.023438 C 882.359375 131.242188 888.75 126.902344 895.109375 122.476562 C 892.457031 126.40625 889.738281 130.296875 887.261719 134.210938 C 876.125 152.890625 871.359375 174.757812 862.21875 194.234375 C 845.125 230.808594 812.53125 256.648438 780.335938 280.496094 C 783.515625 281.292969 787.089844 280.101562 789.875 278.511719 C 804.980469 270.164062 820.085938 262.210938 835.1875 254.261719 C 851.484375 245.515625 867.777344 236.375 880.105469 222.855469 C 897.195312 203.777344 903.953125 178.335938 913.488281 154.878906 C 921.011719 136.238281 930.609375 118.429688 941.585938 101.523438 C 943.65625 126.289062 958.257812 147.699219 964.597656 171.746094 C 967.84375 184.066406 966.011719 196.082031 965.40625 208.585938 C 964.820312 220.695312 965.195312 233.800781 959.3125 244.777344 C 957.976562 247.277344 961.472656 249.238281 963.070312 246.972656 C 969.765625 237.464844 971.945312 225.410156 973.378906 214.089844 C 975.027344 201.054688 978.457031 187.222656 976.898438 174.066406 C 975.222656 159.859375 969.273438 144.4375 963.109375 131.589844 C 959.5625 124.199219 955.027344 117.59375 952.300781 109.789062 C 950.457031 104.515625 948.453125 99.574219 945.71875 94.890625 C 946.703125 93.464844 947.457031 91.890625 948.472656 90.480469 C 948.515625 90.414062 948.609375 90.28125 948.660156 90.207031 C 963.144531 110.753906 977.953125 131.140625 984.640625 154.878906 C 990.605469 175.949219 989.414062 198.210938 985.4375 219.28125 C 982.652344 232.796875 978.679688 245.515625 974.308594 258.238281 C 985.832031 241.542969 997.359375 224.84375 1004.511719 205.761719 C 1012.066406 186.683594 1014.847656 164.816406 1008.09375 145.738281 C 1000.9375 123.871094 982.65625 107.179688 974.308594 85.710938 C 971.128906 77.363281 968.34375 67.425781 959.996094 63.847656 C 958.023438 62.929688 955.789062 63.214844 953.609375 63.253906 C 947.539062 61.65625 938.339844 67.386719 933.765625 69.015625 Z M 1608.289062 -591.265625 C 1607.894531 -590.867188 1608.289062 -590.476562 1608.289062 -590.476562 C 1613.457031 -573.777344 1622.203125 -558.273438 1634.125 -545.554688 C 1661.554688 -516.136719 1704.085938 -501.824219 1725.546875 -468.035156 C 1738.664062 -446.96875 1742.242188 -421.921875 1743.039062 -396.878906 C 1744.628906 -396.480469 1746.21875 -396.480469 1748.203125 -396.480469 C 1753.371094 -396.878906 1758.9375 -399.660156 1760.925781 -404.433594 C 1762.910156 -408.808594 1761.71875 -413.574219 1760.925781 -418.347656 C 1757.347656 -435.042969 1753.769531 -451.34375 1750.589844 -468.035156 C 1747.40625 -481.550781 1744.628906 -495.464844 1736.679688 -506.597656 C 1727.933594 -519.316406 1714.421875 -527.265625 1700.902344 -533.230469 C 1686.992188 -539.191406 1672.285156 -543.5625 1659.167969 -550.722656 C 1645.652344 -557.480469 1633.332031 -567.8125 1627.371094 -581.726562 C 1625.777344 -584.90625 1624.984375 -588.089844 1622.996094 -591.265625 C 1620.609375 -594.847656 1615.84375 -598.421875 1611.46875 -596.433594 C 1608.6875 -594.847656 1608.289062 -593.253906 1608.289062 -591.265625 Z M 1650.027344 -310.617188 C 1654.398438 -313.003906 1657.183594 -317.769531 1659.167969 -322.144531 C 1671.089844 -347.984375 1669.105469 -378.59375 1660.757812 -406.023438 C 1652.410156 -433.054688 1638.5 -458.496094 1627.765625 -484.730469 C 1616.636719 -510.96875 1608.6875 -539.589844 1612.265625 -567.8125 C 1612.664062 -570.992188 1613.457031 -574.574219 1612.664062 -577.753906 C 1611.46875 -582.125 1606.304688 -586.894531 1601.929688 -583.316406 C 1599.945312 -580.933594 1600.734375 -573.378906 1599.546875 -570.597656 C 1595.175781 -557.878906 1584.441406 -545.554688 1576.492188 -534.421875 C 1578.480469 -534.023438 1580.070312 -533.230469 1581.660156 -532.039062 C 1587.8125 -527.9375 1592.097656 -521.804688 1595.15625 -515.0625 C 1592.984375 -506.476562 1592.472656 -497.183594 1592.109375 -488.914062 C 1591.25 -469.53125 1591.878906 -450.613281 1595.238281 -431.460938 C 1600.761719 -400.015625 1610.503906 -361.414062 1636.183594 -339.949219 C 1637.742188 -338.644531 1640.761719 -339.824219 1639.945312 -342.144531 C 1639.160156 -344.171875 1638.496094 -346.238281 1637.949219 -348.34375 C 1637.710938 -349.183594 1636.355469 -349.039062 1636.375 -348.128906 C 1628.726562 -359.945312 1622.128906 -371.664062 1617.46875 -385.351562 C 1612.4375 -400.132812 1609.273438 -415.554688 1606.675781 -430.929688 C 1605.519531 -437.792969 1604.898438 -444.652344 1604.414062 -451.515625 C 1609.839844 -426.199219 1623.160156 -402.695312 1634.125 -378.992188 C 1644.460938 -357.921875 1652.410156 -333.671875 1650.027344 -310.617188 Z M 2069.636719 -415.859375 C 2063.28125 -414.167969 2054.21875 -408.671875 2049.894531 -406.816406 C 2033.597656 -400.058594 2016.503906 -396.878906 1999.414062 -394.492188 C 1995.042969 -393.699219 1990.273438 -393.300781 1985.898438 -392.507812 C 1991.863281 -386.9375 2000.605469 -383.367188 2006.964844 -378.59375 C 2014.5 -372.941406 2019.082031 -364.550781 2021.566406 -355.417969 C 2021.519531 -355.390625 2021.484375 -355.351562 2021.433594 -355.320312 C 2002.066406 -343.117188 1980.382812 -335.4375 1959.910156 -325.390625 C 1920.902344 -306.253906 1894.0625 -274.058594 1873.453125 -236.550781 C 1872.410156 -234.652344 1875.144531 -233.09375 1876.335938 -234.863281 C 1888.953125 -253.636719 1903.785156 -271.589844 1920.703125 -286.652344 C 1938.710938 -302.6875 1959.242188 -312.800781 1981.511719 -321.566406 C 1995.742188 -327.167969 2010.160156 -332.792969 2023.550781 -340.230469 C 2023.542969 -338.835938 2023.761719 -337.441406 2023.660156 -336.058594 C 2022.070312 -320.554688 2014.519531 -305.84375 2006.171875 -292.726562 C 1993.453125 -273.648438 1977.949219 -256.949219 1960.460938 -242.640625 C 1977.152344 -248.601562 1993.453125 -255.359375 2005.773438 -267.683594 C 2018.492188 -279.609375 2025.644531 -295.910156 2032.804688 -311.8125 C 2041.285156 -330.722656 2049.644531 -349.507812 2058.015625 -368.304688 C 2059.804688 -370.316406 2061.652344 -372.253906 2063.421875 -374.320312 C 2065.335938 -376.546875 2067.378906 -378.917969 2069.320312 -381.375 C 2065.207031 -366.964844 2066.582031 -350.9375 2067.21875 -336.164062 C 2067.84375 -321.695312 2068.882812 -306.414062 2072.898438 -292.445312 C 2076.851562 -278.699219 2083.417969 -265.90625 2088.710938 -252.667969 C 2093.734375 -240.105469 2098 -227.335938 2106.292969 -216.441406 C 2107.847656 -214.394531 2111.34375 -216.257812 2109.84375 -218.519531 C 2102.117188 -230.183594 2098.640625 -243.757812 2093.882812 -256.761719 C 2089.289062 -269.304688 2083.609375 -281.507812 2080.859375 -294.644531 C 2077.816406 -309.167969 2078.652344 -324.511719 2078.820312 -339.273438 C 2078.898438 -346.085938 2079.351562 -353.105469 2079.390625 -360.085938 C 2090.59375 -333.375 2103.386719 -307.066406 2109.515625 -278.816406 C 2115.875 -248.601562 2114.285156 -217.199219 2122.238281 -187.386719 C 2122.632812 -186.589844 2122.632812 -185.398438 2123.03125 -184.207031 C 2124.621094 -185.398438 2125.414062 -187.386719 2126.210938 -188.972656 C 2127.800781 -194.140625 2127.800781 -199.707031 2128.199219 -204.875 C 2129.390625 -223.558594 2134.953125 -241.847656 2139.328125 -260.132812 C 2143.699219 -278.816406 2146.480469 -297.894531 2142.109375 -316.183594 C 2133.761719 -353.152344 2099.582031 -378.992188 2088.050781 -414.765625 C 2083.921875 -426.78125 2075.28125 -425.691406 2069.636719 -415.859375 Z M 2069.636719 -415.859375 " fill-opacity="1" fill-rule="nonzero"/></g><g clip-path="url(#37894ca8f7)"><g clip-path="url(#7aed05d1bf)"><path fill="#587e60" d="M 265.023438 94.976562 L 309.195312 94.976562 L 309.195312 124.96875 L 265.023438 124.96875 Z M 265.023438 94.976562 " fill-opacity="1" fill-rule="nonzero"/></g></g><g clip-path="url(#dee67fca33)"><g clip-path="url(#b434811080)"><path fill="#587e60" d="M 269.484375 92.359375 L 310.082031 92.359375 L 310.082031 126.660156 L 269.484375 126.660156 Z M 269.484375 92.359375 " fill-opacity="1" fill-rule="nonzero"/></g></g><g clip-path="url(#1e21eb692b)"><g clip-path="url(#e248eef53b)"><path fill="#587e60" d="M 266.5625 102.664062 L 308.246094 102.664062 L 308.246094 165.675781 L 266.5625 165.675781 Z M 266.5625 102.664062 " fill-opacity="1" fill-rule="nonzero"/></g></g><g clip-path="url(#b06c650b86)"><g clip-path="url(#22e2dd8bfb)"><path fill="#587e60" d="M 261.640625 102.050781 L 309.476562 102.050781 L 309.476562 174.921875 L 261.640625 174.921875 Z M 261.640625 102.050781 " fill-opacity="1" fill-rule="nonzero"/></g></g></svg>