<svg xmlns="http://www.w3.org/2000/svg" xmlns:xlink="http://www.w3.org/1999/xlink" width="500" zoomAndPan="magnify" viewBox="0 0 375 374.999991" height="500" preserveAspectRatio="xMidYMid meet" version="1.0"><defs><clipPath id="cca395a6e3"><path d="M 3 134 L 372 134 L 372 356.25 L 3 356.25 Z M 3 134 " clip-rule="nonzero"/></clipPath></defs><path fill="#7ec987" d="M 133.167969 171.035156 C 133.167969 176.636719 128.824219 180.980469 123.226562 180.980469 C 117.632812 180.980469 113.285156 176.636719 113.285156 171.035156 C 113.285156 139.878906 120.136719 110.5625 131.328125 85.664062 C 143.183594 58.851562 160.636719 37.050781 181.769531 21.433594 C 185.523438 18.929688 189.871094 18.929688 193.625 22.023438 C 214.167969 36.976562 231.621094 59.441406 243.476562 85.589844 C 254.667969 110.488281 261.519531 139.804688 261.519531 170.964844 C 261.519531 176.5625 257.171875 180.90625 251.578125 180.90625 C 245.980469 180.90625 241.636719 176.5625 241.636719 170.964844 C 241.636719 142.898438 236.039062 116.085938 225.4375 93.695312 C 216.085938 73.144531 202.976562 55.023438 187.4375 42.574219 C 171.828125 55.023438 158.792969 73.144531 149.441406 93.695312 C 139.355469 116.234375 133.167969 143.046875 133.167969 171.035156 Z M 133.167969 171.035156 " fill-opacity="1" fill-rule="nonzero"/><g clip-path="url(#cca395a6e3)"><path fill="#7ec987" d="M 124.40625 319.386719 C 129.414062 321.894531 131.253906 327.492188 128.75 332.5 C 126.246094 337.507812 120.0625 339.351562 115.644531 336.847656 C 105.703125 331.835938 96.351562 326.238281 87.585938 320.050781 C 78.898438 313.199219 70.136719 306.351562 62.035156 298.246094 C 40.238281 276.445312 24.039062 250.882812 14.6875 224.660156 C 4.15625 197.847656 1.0625 169.785156 4.820312 144.226562 C 5.410156 139.878906 9.164062 136.121094 13.507812 135.53125 C 39.0625 131.777344 67.117188 134.945312 93.921875 145.476562 C 120.0625 154.832031 145.613281 171.035156 167.484375 193.503906 C 174.996094 200.355469 181.179688 207.867188 187.4375 214.71875 C 193.699219 207.867188 199.882812 200.355469 207.394531 193.503906 C 229.855469 171.035156 254.742188 154.832031 280.957031 145.476562 C 308.351562 134.871094 335.816406 131.777344 361.371094 135.53125 C 366.378906 136.121094 369.46875 139.878906 370.058594 144.226562 C 373.8125 169.785156 370.648438 197.847656 360.117188 224.660156 C 350.765625 250.8125 334.566406 276.371094 312.769531 298.246094 C 304.667969 306.351562 295.980469 313.199219 287.21875 320.050781 C 278.527344 326.3125 269.175781 331.910156 259.824219 336.847656 C 254.816406 339.351562 248.632812 337.433594 246.128906 332.5 C 243.625 327.566406 245.539062 321.894531 250.472656 319.386719 C 259.160156 315.042969 267.261719 310.035156 275.363281 303.773438 C 283.460938 298.175781 290.972656 291.324219 298.410156 283.808594 C 318.367188 263.847656 333.3125 241.457031 342.003906 217.738281 C 349.515625 196.523438 353.195312 174.71875 351.355469 154.757812 C 330.808594 152.917969 309.015625 156.011719 287.804688 164.113281 C 264.757812 172.804688 241.710938 187.167969 221.753906 207.128906 C 213.652344 215.234375 206.804688 222.746094 200.546875 230.1875 C 227.941406 266.351562 235.449219 294.417969 232.945312 314.96875 C 229.855469 342.371094 208.648438 356.070312 187.4375 356.070312 C 166.230469 356.070312 145.097656 342.371094 141.933594 314.96875 C 139.429688 294.417969 147.527344 266.351562 174.921875 230.1875 C 168.660156 222.671875 161.226562 215.234375 153.125 207.128906 C 133.167969 187.167969 110.785156 172.878906 87.074219 164.113281 C 65.863281 156.011719 44.066406 152.917969 23.523438 154.757812 C 22.273438 174.792969 25.363281 196.597656 33.464844 217.8125 C 42.152344 241.53125 56.511719 263.921875 76.46875 283.882812 C 83.980469 291.398438 91.417969 298.246094 99.515625 303.847656 C 107.617188 310.035156 115.71875 315.042969 124.40625 319.386719 Z M 213.507812 312.539062 C 215.347656 296.921875 208.5 275.117188 187.367188 246.464844 C 166.160156 275.117188 159.308594 296.921875 161.8125 312.539062 C 163.65625 328.152344 175.511719 336.257812 187.367188 336.257812 C 199.222656 336.257812 211.078125 328.152344 213.507812 312.539062 Z M 213.507812 312.539062 " fill-opacity="1" fill-rule="nonzero"/></g></svg>