<svg xmlns="http://www.w3.org/2000/svg" xmlns:xlink="http://www.w3.org/1999/xlink" width="500" zoomAndPan="magnify" viewBox="0 0 375 374.999991" height="500" preserveAspectRatio="xMidYMid meet" version="1.0"><defs><g/></defs><g fill="#4d7051" fill-opacity="1"><g transform="translate(53.590075, 188.184187)"><g><path d="M 2.519531 0 L 7.261719 0 L 7.261719 -12.871094 L 16.53125 0 L 20.578125 0 L 20.578125 -21 L 15.839844 -21 L 15.839844 -8.21875 L 6.570312 -21 L 2.519531 -21 Z M 2.519531 0 "/></g></g></g><g fill="#4d7051" fill-opacity="1"><g transform="translate(82.690516, 188.184187)"><g><path d="M 0.269531 0 L 5.371094 0 L 6.78125 -3.628906 L 15.121094 -3.628906 L 16.53125 0 L 21.628906 0 L 13.289062 -21 L 8.609375 -21 Z M 8.011719 -7.378906 L 10.949219 -15.058594 L 13.921875 -7.378906 Z M 8.011719 -7.378906 "/></g></g></g><g fill="#4d7051" fill-opacity="1"><g transform="translate(110.590953, 188.184187)"><g><path d="M 7.558594 0 L 12.328125 0 L 12.328125 -16.53125 L 18.988281 -16.53125 L 18.988281 -21 L 0.898438 -21 L 0.898438 -16.53125 L 7.558594 -16.53125 Z M 7.558594 0 "/></g></g></g><g fill="#4d7051" fill-opacity="1"><g transform="translate(136.481395, 188.184187)"><g><path d="M 11.101562 0.421875 C 16.558594 0.421875 19.890625 -3 19.890625 -8.640625 L 19.890625 -21 L 15.121094 -21 L 15.121094 -8.96875 C 15.121094 -5.761719 13.769531 -4.109375 11.101562 -4.109375 C 8.429688 -4.109375 7.078125 -5.761719 7.078125 -8.96875 L 7.078125 -21 L 2.308594 -21 L 2.308594 -8.640625 C 2.308594 -3 5.640625 0.421875 11.101562 0.421875 Z M 11.101562 0.421875 "/></g></g></g><g fill="#4d7051" fill-opacity="1"><g transform="translate(164.681839, 188.184187)"><g><path d="M 2.519531 0 L 7.289062 0 L 7.289062 -6.539062 L 10.441406 -6.539062 L 14.191406 0 L 19.710938 0 L 15.359375 -7.289062 C 17.878906 -8.398438 19.351562 -10.679688 19.351562 -13.769531 C 19.351562 -18.238281 16.289062 -21 11.488281 -21 L 2.519531 -21 Z M 7.230469 -10.558594 L 7.230469 -16.921875 L 10.859375 -16.921875 C 13.199219 -16.921875 14.519531 -15.78125 14.519531 -13.738281 C 14.519531 -11.699219 13.199219 -10.558594 10.859375 -10.558594 Z M 7.230469 -10.558594 "/></g></g></g><g fill="#4d7051" fill-opacity="1"><g transform="translate(191.802286, 188.184187)"><g><path d="M 2.519531 0 L 16.648438 0 L 16.648438 -4.050781 L 7.261719 -4.050781 L 7.261719 -8.640625 L 15.511719 -8.640625 L 15.511719 -12.628906 L 7.261719 -12.628906 L 7.261719 -16.980469 L 16.320312 -16.980469 L 16.320312 -21 L 2.519531 -21 Z M 2.519531 0 "/></g></g></g><g fill="#4d7051" fill-opacity="1"><g transform="translate(215.982735, 188.184187)"><g/></g></g><g fill="#4d7051" fill-opacity="1"><g transform="translate(229.033199, 188.184187)"><g><path d="M 2.519531 0 L 16.46875 0 L 16.46875 -4.46875 L 7.289062 -4.46875 L 7.289062 -21 L 2.519531 -21 Z M 2.519531 0 "/></g></g></g><g fill="#4d7051" fill-opacity="1"><g transform="translate(252.313651, 188.184187)"><g><path d="M 2.519531 0 L 16.648438 0 L 16.648438 -4.050781 L 7.261719 -4.050781 L 7.261719 -8.640625 L 15.511719 -8.640625 L 15.511719 -12.628906 L 7.261719 -12.628906 L 7.261719 -16.980469 L 16.320312 -16.980469 L 16.320312 -21 L 2.519531 -21 Z M 2.519531 0 "/></g></g></g><g fill="#4d7051" fill-opacity="1"><g transform="translate(276.4941, 188.184187)"><g><path d="M 0.269531 0 L 5.371094 0 L 6.78125 -3.628906 L 15.121094 -3.628906 L 16.53125 0 L 21.628906 0 L 13.289062 -21 L 8.609375 -21 Z M 8.011719 -7.378906 L 10.949219 -15.058594 L 13.921875 -7.378906 Z M 8.011719 -7.378906 "/></g></g></g><g fill="#4d7051" fill-opacity="1"><g transform="translate(304.394542, 188.184187)"><g><path d="M 2.519531 0 L 7.289062 0 L 7.289062 -7.230469 L 14.910156 -7.230469 L 14.910156 -11.429688 L 7.289062 -11.429688 L 7.289062 -16.679688 L 15.691406 -16.679688 L 15.691406 -21 L 2.519531 -21 Z M 2.519531 0 "/></g></g></g><g fill="#5ba463" fill-opacity="1"><g transform="translate(130.591372, 211.991367)"><g><path d="M 4.9375 0.078125 C 4.125 0.078125 3.382812 -0.101562 2.71875 -0.46875 C 2.0625 -0.832031 1.546875 -1.332031 1.171875 -1.96875 C 0.796875 -2.601562 0.609375 -3.316406 0.609375 -4.109375 C 0.609375 -4.898438 0.796875 -5.613281 1.171875 -6.25 C 1.546875 -6.882812 2.0625 -7.382812 2.71875 -7.75 C 3.382812 -8.113281 4.125 -8.296875 4.9375 -8.296875 C 5.75 -8.296875 6.484375 -8.113281 7.140625 -7.75 C 7.796875 -7.394531 8.3125 -6.894531 8.6875 -6.25 C 9.0625 -5.613281 9.25 -4.898438 9.25 -4.109375 C 9.25 -3.316406 9.0625 -2.601562 8.6875 -1.96875 C 8.3125 -1.332031 7.796875 -0.832031 7.140625 -0.46875 C 6.484375 -0.101562 5.75 0.078125 4.9375 0.078125 Z M 4.9375 -0.703125 C 5.582031 -0.703125 6.164062 -0.847656 6.6875 -1.140625 C 7.21875 -1.441406 7.628906 -1.851562 7.921875 -2.375 C 8.222656 -2.894531 8.375 -3.472656 8.375 -4.109375 C 8.375 -4.753906 8.222656 -5.335938 7.921875 -5.859375 C 7.628906 -6.378906 7.21875 -6.785156 6.6875 -7.078125 C 6.164062 -7.367188 5.582031 -7.515625 4.9375 -7.515625 C 4.28125 -7.515625 3.6875 -7.367188 3.15625 -7.078125 C 2.632812 -6.785156 2.222656 -6.378906 1.921875 -5.859375 C 1.617188 -5.335938 1.46875 -4.753906 1.46875 -4.109375 C 1.46875 -3.472656 1.617188 -2.894531 1.921875 -2.375 C 2.222656 -1.851562 2.632812 -1.441406 3.15625 -1.140625 C 3.6875 -0.847656 4.28125 -0.703125 4.9375 -0.703125 Z M 4.9375 -0.703125 "/></g></g></g><g fill="#5ba463" fill-opacity="1"><g transform="translate(149.849551, 211.991367)"><g><path d="M 6.953125 0 L 5.078125 -2.640625 C 4.867188 -2.617188 4.648438 -2.609375 4.421875 -2.609375 L 2.203125 -2.609375 L 2.203125 0 L 1.34375 0 L 1.34375 -8.21875 L 4.421875 -8.21875 C 5.472656 -8.21875 6.296875 -7.96875 6.890625 -7.46875 C 7.484375 -6.96875 7.78125 -6.28125 7.78125 -5.40625 C 7.78125 -4.757812 7.613281 -4.210938 7.28125 -3.765625 C 6.957031 -3.328125 6.5 -3.007812 5.90625 -2.8125 L 7.90625 0 Z M 4.390625 -3.34375 C 5.203125 -3.34375 5.820312 -3.523438 6.25 -3.890625 C 6.6875 -4.253906 6.90625 -4.757812 6.90625 -5.40625 C 6.90625 -6.070312 6.6875 -6.582031 6.25 -6.9375 C 5.820312 -7.289062 5.203125 -7.46875 4.390625 -7.46875 L 2.203125 -7.46875 L 2.203125 -3.34375 Z M 4.390625 -3.34375 "/></g></g></g><g fill="#5ba463" fill-opacity="1"><g transform="translate(167.745643, 211.991367)"><g><path d="M 7.125 -4.109375 L 7.96875 -4.109375 L 7.96875 -0.96875 C 7.582031 -0.632812 7.125 -0.375 6.59375 -0.1875 C 6.070312 -0.0078125 5.523438 0.078125 4.953125 0.078125 C 4.128906 0.078125 3.382812 -0.101562 2.71875 -0.46875 C 2.0625 -0.832031 1.546875 -1.332031 1.171875 -1.96875 C 0.796875 -2.601562 0.609375 -3.316406 0.609375 -4.109375 C 0.609375 -4.898438 0.796875 -5.613281 1.171875 -6.25 C 1.546875 -6.894531 2.0625 -7.394531 2.71875 -7.75 C 3.382812 -8.113281 4.128906 -8.296875 4.953125 -8.296875 C 5.585938 -8.296875 6.164062 -8.195312 6.6875 -8 C 7.207031 -7.800781 7.648438 -7.503906 8.015625 -7.109375 L 7.46875 -6.5625 C 6.820312 -7.195312 6 -7.515625 5 -7.515625 C 4.332031 -7.515625 3.726562 -7.367188 3.1875 -7.078125 C 2.65625 -6.785156 2.234375 -6.378906 1.921875 -5.859375 C 1.617188 -5.335938 1.46875 -4.753906 1.46875 -4.109375 C 1.46875 -3.472656 1.617188 -2.894531 1.921875 -2.375 C 2.234375 -1.851562 2.65625 -1.441406 3.1875 -1.140625 C 3.71875 -0.847656 4.316406 -0.703125 4.984375 -0.703125 C 5.828125 -0.703125 6.539062 -0.914062 7.125 -1.34375 Z M 7.125 -4.109375 "/></g></g></g><g fill="#5ba463" fill-opacity="1"><g transform="translate(186.22884, 211.991367)"><g><path d="M 6.5 -2.203125 L 1.921875 -2.203125 L 0.921875 0 L 0.03125 0 L 3.78125 -8.21875 L 4.640625 -8.21875 L 8.40625 0 L 7.484375 0 Z M 6.1875 -2.90625 L 4.203125 -7.3125 L 2.234375 -2.90625 Z M 6.1875 -2.90625 "/></g></g></g><g fill="#5ba463" fill-opacity="1"><g transform="translate(204.054483, 211.991367)"><g><path d="M 8.21875 -8.21875 L 8.21875 0 L 7.5 0 L 2.203125 -6.671875 L 2.203125 0 L 1.34375 0 L 1.34375 -8.21875 L 2.0625 -8.21875 L 7.359375 -1.546875 L 7.359375 -8.21875 Z M 8.21875 -8.21875 "/></g></g></g><g fill="#5ba463" fill-opacity="1"><g transform="translate(223.007368, 211.991367)"><g><path d="M 1.34375 -8.21875 L 2.203125 -8.21875 L 2.203125 0 L 1.34375 0 Z M 1.34375 -8.21875 "/></g></g></g><g fill="#5ba463" fill-opacity="1"><g transform="translate(235.960002, 211.991367)"><g><path d="M 4.90625 0.078125 C 4.09375 0.078125 3.359375 -0.101562 2.703125 -0.46875 C 2.054688 -0.832031 1.546875 -1.332031 1.171875 -1.96875 C 0.796875 -2.601562 0.609375 -3.316406 0.609375 -4.109375 C 0.609375 -4.898438 0.796875 -5.613281 1.171875 -6.25 C 1.546875 -6.894531 2.0625 -7.394531 2.71875 -7.75 C 3.375 -8.113281 4.109375 -8.296875 4.921875 -8.296875 C 5.535156 -8.296875 6.097656 -8.191406 6.609375 -7.984375 C 7.128906 -7.785156 7.570312 -7.488281 7.9375 -7.09375 L 7.375 -6.546875 C 6.738281 -7.191406 5.929688 -7.515625 4.953125 -7.515625 C 4.296875 -7.515625 3.703125 -7.363281 3.171875 -7.0625 C 2.640625 -6.769531 2.222656 -6.363281 1.921875 -5.84375 C 1.617188 -5.332031 1.46875 -4.753906 1.46875 -4.109375 C 1.46875 -3.472656 1.617188 -2.894531 1.921875 -2.375 C 2.222656 -1.851562 2.640625 -1.441406 3.171875 -1.140625 C 3.703125 -0.847656 4.296875 -0.703125 4.953125 -0.703125 C 5.929688 -0.703125 6.738281 -1.03125 7.375 -1.6875 L 7.9375 -1.140625 C 7.570312 -0.742188 7.128906 -0.441406 6.609375 -0.234375 C 6.085938 -0.0234375 5.519531 0.078125 4.90625 0.078125 Z M 4.90625 0.078125 "/></g></g></g></svg>