<svg xmlns="http://www.w3.org/2000/svg" xmlns:xlink="http://www.w3.org/1999/xlink" width="500" zoomAndPan="magnify" viewBox="0 0 375 374.999991" height="500" preserveAspectRatio="xMidYMid meet" version="1.0"><defs><clipPath id="693e48a536"><path d="M 50.308594 70.835938 L 350.980469 70.835938 L 350.980469 281 L 50.308594 281 Z M 50.308594 70.835938 " clip-rule="nonzero"/></clipPath><clipPath id="db8860f69a"><path d="M 37.554688 109.046875 L 285.820312 109.046875 L 285.820312 304.085938 L 37.554688 304.085938 Z M 37.554688 109.046875 " clip-rule="nonzero"/></clipPath></defs><g clip-path="url(#693e48a536)"><path fill="#689f38" d="M 350.980469 82.882812 C 300.878906 123.238281 275.253906 184.519531 244.128906 219.203125 C 46.640625 439.273438 -108.652344 -6.640625 350.980469 82.882812 " fill-opacity="1" fill-rule="evenodd"/></g><g clip-path="url(#db8860f69a)"><path fill="#558b2f" d="M 37.554688 287.738281 C 77.390625 232.523438 109.59375 173.667969 183.382812 138.300781 C 213.28125 123.96875 219.300781 118.59375 252.761719 110.738281 L 252.402344 110.828125 C 266.3125 108.960938 272.117188 110.171875 285.457031 111.210938 C 274.6875 112.761719 282.378906 112.035156 269.296875 112.367188 C 237.785156 113.183594 213.289062 129.6875 186.117188 143.667969 C 109.675781 182.996094 84.132812 243.835938 39.636719 304.109375 L 37.554688 287.738281 " fill-opacity="1" fill-rule="evenodd"/></g><path fill="#558b2f" d="M 160.925781 151.214844 C 166.191406 150.507812 171.597656 149.988281 177.171875 149.671875 C 205.148438 148.101562 211.582031 145.84375 240.25 150.472656 L 239.9375 150.425781 C 251.40625 153.445312 255.550781 156.261719 265.628906 161.363281 C 256.71875 159.109375 262.960938 161.011719 252.632812 157.070312 C 227.761719 147.5625 203.304688 152.574219 177.574219 154.75 C 171.921875 155.230469 166.46875 155.910156 161.195312 156.769531 C 161.820312 154.957031 161.714844 152.964844 160.925781 151.214844 " fill-opacity="1" fill-rule="evenodd"/><path fill="#558b2f" d="M 110.011719 191.328125 C 110.316406 191.3125 110.613281 191.289062 110.917969 191.273438 C 144.03125 189.410156 151.648438 186.738281 185.578125 192.21875 L 185.210938 192.160156 C 198.789062 195.738281 203.6875 199.066406 215.621094 205.105469 C 205.074219 202.4375 212.464844 204.695312 200.238281 200.023438 C 170.796875 188.773438 141.851562 194.707031 111.394531 197.28125 L 110.742188 197.339844 C 111.207031 195.324219 110.949219 193.183594 110.011719 191.328125 " fill-opacity="1" fill-rule="evenodd"/><path fill="#558b2f" d="M 193 139.328125 C 195.019531 136.414062 196.898438 133.425781 198.617188 130.347656 C 207.265625 114.914062 211.050781 111.308594 214.003906 95.679688 L 213.96875 95.851562 C 214.042969 89.632812 212.441406 87.4375 210.191406 82.042969 C 210.046875 86.875 209.835938 83.5 210.933594 89.066406 C 213.558594 102.460938 202.558594 116.058594 193.917969 130.28125 C 192.019531 133.402344 189.980469 136.421875 187.8125 139.347656 C 189.691406 138.949219 191.554688 138.945312 193 139.328125 " fill-opacity="1" fill-rule="evenodd"/><path fill="#558b2f" d="M 126.6875 182.195312 C 126.796875 181.996094 126.914062 181.800781 127.023438 181.597656 C 139.167969 159.757812 144.058594 154.914062 149.605469 131.941406 L 149.539062 132.191406 C 150.472656 122.886719 148.902344 119.359375 147.015625 110.953125 C 146.191406 118.167969 146.410156 113.082031 146.925781 121.578125 C 148.171875 142.035156 133.542969 160.78125 121.566406 180.796875 L 121.308594 181.230469 C 123.335938 181.082031 125.253906 181.425781 126.6875 182.195312 " fill-opacity="1" fill-rule="evenodd"/></svg>