<svg xmlns="http://www.w3.org/2000/svg" xmlns:xlink="http://www.w3.org/1999/xlink" width="794" zoomAndPan="magnify" viewBox="0 0 595.5 842.249979" height="1123" preserveAspectRatio="xMidYMid meet" version="1.0"><defs><clipPath id="e0d18cbda1"><path d="M 236 177.644531 L 549.453125 177.644531 L 549.453125 656 L 236 656 Z M 236 177.644531 " clip-rule="nonzero"/></clipPath><clipPath id="402dfff70d"><path d="M 51 177.644531 L 369 177.644531 L 369 595 L 51 595 Z M 51 177.644531 " clip-rule="nonzero"/></clipPath></defs><g clip-path="url(#e0d18cbda1)"><path fill="#006838" d="M 236.277344 594.726562 C 274.835938 594.324219 270.402344 626.5625 295.722656 640.707031 C 327.515625 658.460938 369.195312 663.730469 403.457031 633.6875 C 395.816406 625.265625 375.832031 621.203125 388.597656 598.617188 C 409.96875 560.816406 466.535156 590.660156 488.90625 551.859375 C 471.957031 548.269531 464.421875 539.582031 464.382812 529.257812 C 464.324219 508.992188 512.96875 529.574219 521.597656 505.878906 C 502.527344 493.363281 488.183594 465.40625 511.9375 453.667969 C 548.128906 435.777344 549.089844 412.359375 549.089844 412.359375 C 519.113281 420.222656 494.324219 430.371094 474.046875 419.375 C 453.050781 407.988281 466.363281 394.457031 476.273438 366.382812 C 450.128906 383.976562 404.28125 415.222656 392.3125 388.199219 C 378.128906 356.175781 420.652344 308.832031 427.976562 267.40625 C 376.09375 292.890625 374.257812 214.0625 368.535156 177.78125 C 324.269531 306.707031 244.929688 426.617188 236.277344 594.726562 Z M 236.277344 594.726562 " fill-opacity="1" fill-rule="evenodd"/></g><g clip-path="url(#402dfff70d)"><path fill="#8cc342" d="M 236.230469 594.734375 C 206.222656 569.339844 178.839844 592.832031 150.621094 587.453125 C 115.179688 580.695312 79.367188 557.714844 70.253906 511.863281 C 81.230469 510.230469 92.597656 518.0625 102.648438 494.019531 C 101.320312 450.09375 46.21875 437.078125 51.613281 392.089844 C 67.03125 400.296875 78.082031 398.382812 84.210938 390.3125 C 96.25 374.457031 45.917969 358.953125 53.160156 334.753906 C 75.519531 337.34375 103.304688 324.738281 91.613281 300.078125 C 73.800781 262.503906 86.894531 243.507812 86.894531 243.507812 C 105.761719 269.179688 119.203125 293.265625 141.613281 297.828125 C 164.8125 302.554688 162.375 283.28125 171.203125 254.808594 C 181.777344 285.40625 203.707031 337.722656 224.160156 326.546875 C 254 310.238281 248.859375 245.851562 267.613281 208.589844 C 293.242188 262.332031 342.605469 202.503906 368.550781 177.769531 C 352.945312 294.855469 309.71875 441.9375 236.230469 594.734375 Z M 236.230469 594.734375 " fill-opacity="1" fill-rule="evenodd"/></g><path fill="#55833d" d="M 368.851562 178.625 C 367.390625 220.167969 356.296875 272.921875 341.089844 327.84375 C 355.453125 325.0625 365.601562 318.710938 374.570312 310.644531 C 375.859375 309.480469 377.09375 308.109375 378.355469 306.890625 L 378.324219 306.863281 C 378.136719 306.671875 377.996094 306.433594 377.910156 306.175781 C 372.527344 292.5625 369.277344 276.378906 372.191406 253.535156 C 372.292969 252.621094 373.0625 251.953125 373.9375 252 C 374.917969 252.0625 375.644531 252.980469 375.507812 254 C 372.6875 276.078125 375.746094 291.335938 380.859375 304.425781 C 388.917969 296.402344 396.847656 287.796875 407.285156 280.269531 C 407.558594 280.0625 407.890625 279.945312 408.226562 279.941406 C 409.9375 279.867188 410.640625 282.210938 409.195312 283.171875 C 396.515625 292.316406 387.476562 303.664062 376.734375 313.328125 C 367.1875 321.917969 355.914062 328.84375 340.019531 331.566406 C 330.203125 366.640625 318.859375 402.191406 306.90625 436.6875 C 320.066406 433.820312 330.363281 429.914062 339.417969 424.96875 C 340.804688 399.589844 348.203125 371.417969 373.863281 346.222656 C 374.125 345.949219 374.484375 345.800781 374.855469 345.8125 C 376.097656 345.84375 376.65625 347.453125 375.71875 348.304688 C 351.171875 372.40625 343.859375 398.953125 342.265625 423.40625 C 355.945312 415.425781 367.535156 405.035156 383.917969 392.101562 C 384.28125 391.800781 384.742188 391.671875 385.199219 391.742188 C 386.671875 391.980469 387.132812 393.96875 385.929688 394.894531 C 357.492188 417.34375 342.550781 432.859375 305.605469 440.496094 C 296.402344 466.90625 287.121094 492.359375 278.082031 515.957031 C 294.0625 513.199219 310.34375 509.324219 326.835938 504.671875 C 327.382812 495.714844 331.476562 484.519531 337.539062 473.285156 C 344.113281 461.105469 352.851562 449.101562 361.640625 440.796875 C 361.976562 440.476562 362.417969 440.308594 362.871094 440.332031 C 364.355469 440.4375 364.980469 442.371094 363.863281 443.402344 C 355.449219 451.347656 346.847656 463.132812 340.4375 475.007812 C 334.796875 485.457031 331.078125 495.894531 330.28125 503.738281 C 350.683594 497.847656 371.433594 490.691406 392.535156 482.566406 C 395.167969 470.996094 403.628906 456.191406 414.289062 440.851562 C 425.703125 424.429688 439.398438 407.683594 450.480469 395.058594 C 450.824219 394.660156 451.328125 394.445312 451.839844 394.484375 C 453.261719 394.554688 453.945312 396.355469 452.960938 397.441406 C 441.945312 409.992188 428.28125 426.648438 416.976562 442.90625 C 407.140625 457.0625 399.433594 470.8125 396.425781 481.113281 C 437.96875 464.925781 480.765625 445.210938 524.460938 424.554688 C 524.964844 424.308594 525.523438 424.195312 526.082031 424.226562 C 529.574219 424.46875 530.410156 429.46875 527.203125 430.941406 C 501.042969 443.300781 475.230469 455.25 449.722656 466.4375 C 463.851562 480.28125 483.800781 502.339844 512.683594 506.34375 C 514.929688 506.605469 514.507812 510.148438 512.265625 509.820312 C 481.214844 505.515625 460.261719 481.429688 446.355469 467.914062 C 420.808594 479.054688 395.605469 489.324219 370.835938 498.070312 C 391.546875 519.945312 427.109375 548.398438 464.742188 552.304688 C 467.164062 552.332031 466.8125 556.230469 464.425781 555.78125 C 425.117188 551.707031 388.898438 522.273438 367.9375 499.988281 C 367.746094 499.789062 367.601562 499.546875 367.519531 499.277344 C 354.730469 503.730469 342.082031 507.625 329.527344 511.191406 C 331.871094 518.796875 338.851562 528.671875 347.882812 537.84375 C 357.234375 547.332031 368.640625 556.101562 378.851562 561.230469 C 381.144531 562.121094 379.515625 565.695312 377.417969 564.382812 C 366.746094 559.023438 355.144531 550.085938 345.558594 540.363281 C 336.234375 530.898438 328.875 520.816406 326.261719 512.070312 C 309.332031 516.765625 292.570312 520.78125 276.097656 523.488281 C 275.773438 523.53125 275.449219 523.53125 275.132812 523.488281 C 271.460938 532.988281 267.75 542.6875 264.265625 551.425781 C 300.300781 572.371094 319.261719 589.835938 333 602.425781 C 347.292969 615.53125 356.113281 623.265625 374.675781 625.1875 C 376.886719 625.4375 376.550781 628.910156 374.339844 628.691406 C 354.988281 626.6875 345.128906 618.210938 330.808594 605.082031 C 317.085938 592.507812 298.492188 575.382812 262.960938 554.6875 C 242.421875 606.0625 225.785156 643.730469 222.667969 649.070312 C 218.519531 657.933594 205.980469 650.5625 211.023438 642.222656 C 225.453125 614.472656 239.484375 583.632812 252.933594 551.511719 C 224.367188 546.917969 205.816406 548.019531 190.785156 548.714844 C 174.890625 549.453125 162.226562 549.242188 145.242188 540.496094 C 145.226562 540.488281 145.199219 540.507812 145.183594 540.496094 C 145.121094 540.492188 145.078125 540.484375 145.027344 540.46875 C 144.890625 540.4375 144.757812 540.378906 144.632812 540.304688 C 143.074219 539.464844 143.636719 536.992188 145.390625 536.988281 L 145.78125 536.988281 L 146.148438 537.183594 C 162.898438 545.96875 174.625 545.949219 190.644531 545.207031 C 205.75 544.507812 224.875 543.316406 254.234375 548.109375 C 254.292969 548.117188 254.308594 548.121094 254.367188 548.140625 C 258.65625 537.835938 262.703125 527.191406 266.851562 516.667969 C 256.429688 507.292969 246.363281 497.554688 236.636719 487.472656 C 229.847656 492.867188 219.25 496.960938 207.335938 499.578125 C 204.070312 500.296875 200.726562 500.90625 197.359375 501.386719 C 187.261719 502.835938 176.980469 503.171875 168.164062 502.097656 C 165.839844 501.921875 166.257812 498.226562 168.554688 498.617188 C 179.804688 499.992188 193.921875 498.957031 206.65625 496.152344 C 218.042969 493.652344 228.101562 489.625 234.207031 484.980469 C 224.539062 474.832031 215.21875 464.367188 206.472656 453.398438 C 177.117188 459.945312 129.203125 458.792969 94.890625 441.101562 L 94.859375 441.101562 C 94.800781 441.105469 94.757812 441.105469 94.703125 441.101562 C 94.644531 441.09375 94.585938 441.085938 94.519531 441.074219 C 94.386719 441.042969 94.253906 440.984375 94.128906 440.910156 C 92.566406 440.070312 93.132812 437.597656 94.886719 437.59375 L 95.277344 437.59375 L 95.644531 437.785156 C 128.308594 454.925781 175.257812 456.285156 204.144531 450.273438 C 187.53125 429.050781 172.773438 406.28125 160.796875 381.445312 C 150.0625 384.0625 135.21875 380.570312 119.929688 373.585938 C 104.117188 366.363281 87.992188 355.433594 76.214844 343.261719 C 75.238281 342.28125 75.722656 340.550781 77.050781 340.28125 C 77.109375 340.265625 77.171875 340.25 77.234375 340.25 C 77.351562 340.238281 77.460938 340.238281 77.574219 340.25 C 77.953125 340.292969 78.300781 340.484375 78.566406 340.769531 C 89.964844 352.546875 105.824219 363.328125 121.261719 370.375 C 135.742188 376.992188 149.710938 380.027344 159.101562 378.15625 C 146.414062 353.304688 136.277344 327.234375 129.777344 300.371094 C 129.195312 298.175781 130.738281 295.996094 132.90625 295.933594 C 134.496094 295.886719 135.890625 297.023438 136.25 298.644531 C 143.328125 326.546875 155.847656 354.078125 166.335938 377.441406 C 174.546875 393.234375 183.898438 408.433594 193.964844 423.097656 C 197.480469 412.765625 199.664062 395.992188 200.203125 377.605469 C 200.535156 366.222656 200.207031 354.386719 199.367188 343.148438 C 198.242188 334.960938 197.5 327.695312 196.652344 319.8125 C 196.429688 318.699219 197.265625 317.660156 198.347656 317.703125 C 199.140625 317.734375 199.804688 318.335938 199.941406 319.15625 C 201.207031 326.359375 202.085938 334.46875 202.710938 342.84375 C 206.308594 373.714844 203.9375 407.425781 196.441406 426.519531 C 209.359375 444.984375 223.4375 462.367188 238.25 478.476562 C 241.941406 471.511719 244.3125 459.914062 244.882812 447.144531 C 245.496094 433.515625 244.203125 418.722656 241.121094 407.296875 C 240.769531 406.070312 241.742188 404.875 242.953125 405.046875 C 243.617188 405.152344 244.160156 405.652344 244.335938 406.335938 C 247.550781 418.277344 248.851562 433.332031 248.226562 447.308594 C 247.621094 460.859375 245.238281 473.265625 240.730469 481.109375 C 250.160156 491.222656 259.789062 500.789062 269.585938 509.757812 C 278.378906 487.1875 286.859375 464.507812 294.839844 441.828125 C 294.582031 441.558594 294.417969 441.199219 294.371094 440.816406 C 260.714844 410.09375 258.992188 367.359375 245.484375 330.082031 C 245.316406 329.640625 245.328125 329.144531 245.515625 328.710938 C 245.648438 328.394531 245.882812 328.125 246.167969 327.945312 C 246.445312 327.757812 246.773438 327.664062 247.105469 327.671875 C 247.78125 327.699219 248.363281 328.160156 248.597656 328.820312 C 255.519531 347.921875 259.363281 367.949219 265.621094 386.917969 C 266.324219 389.046875 267.199219 391.113281 267.972656 393.210938 C 284.746094 370.195312 294.445312 343.472656 285.101562 305.101562 C 284.785156 303.871094 285.78125 302.707031 286.980469 302.910156 C 287.652344 303.03125 288.191406 303.554688 288.339844 304.253906 C 298.144531 344.515625 287.339844 373.128906 269.433594 397.046875 C 274.503906 409.898438 281.082031 422.105469 291.238281 432.929688 C 292.824219 434.617188 294.523438 436.265625 296.28125 437.886719 C 309.242188 400.839844 320.859375 364.675781 330.933594 331.203125 C 319.4375 321.703125 311.390625 310.671875 305.183594 298.996094 C 305.050781 298.816406 304.9375 298.613281 304.871094 298.390625 C 295.28125 280.136719 289.9375 260.410156 282.621094 242.570312 C 282.128906 241.40625 282.949219 240.097656 284.164062 240.105469 C 284.839844 240.109375 285.449219 240.542969 285.703125 241.199219 C 292.691406 258.238281 297.855469 276.433594 306.175781 293.351562 C 310.546875 280.96875 313.023438 266.535156 310.433594 246.242188 C 310.261719 245.125 311.132812 244.128906 312.207031 244.214844 C 313.015625 244.273438 313.664062 244.933594 313.75 245.777344 C 316.609375 268.203125 313.496094 284.164062 308.292969 297.625 C 314.105469 308.507812 321.625 318.6875 332.054688 327.5625 C 353.054688 257.402344 366.707031 200.488281 368.851562 178.617188 Z M 368.851562 178.625 " fill-opacity="1" fill-rule="evenodd"/></svg>