<svg xmlns="http://www.w3.org/2000/svg" xmlns:xlink="http://www.w3.org/1999/xlink" width="500" zoomAndPan="magnify" viewBox="0 0 375 374.999991" height="500" preserveAspectRatio="xMidYMid meet" version="1.0"><defs><clipPath id="c7eeb7fad5"><path d="M 122 80.203125 L 254 80.203125 L 254 278 L 122 278 Z M 122 80.203125 " clip-rule="nonzero"/></clipPath><clipPath id="464aea201a"><path d="M 130 80.203125 L 249 80.203125 L 249 294.703125 L 130 294.703125 Z M 130 80.203125 " clip-rule="nonzero"/></clipPath></defs><g clip-path="url(#c7eeb7fad5)"><path fill="#435e3f" d="M 217.65625 276.316406 C 196.65625 279.296875 174.59375 273.957031 157.273438 261.710938 C 139.953125 249.46875 127.558594 230.441406 123.351562 209.644531 C 127.335938 212.261719 131.320312 214.878906 135.304688 217.492188 C 127.273438 201.183594 123.632812 182.734375 124.867188 164.59375 C 127.671875 168.175781 131.175781 171.203125 135.125 173.464844 C 124.585938 158.289062 120.308594 138.898438 123.476562 120.695312 C 126.179688 123.734375 128.878906 126.773438 131.582031 129.8125 C 126.703125 113.789062 126.359375 96.40625 130.59375 80.199219 C 138.925781 88.816406 147.257812 97.429688 155.589844 106.042969 C 154.90625 103.125 154.226562 100.207031 153.542969 97.289062 C 164.175781 107.921875 174.808594 118.554688 185.894531 127.664062 C 185.191406 125.746094 184.492188 123.828125 183.792969 121.421875 C 185.949219 124.160156 188.105469 126.898438 190.746094 130.128906 C 194.261719 133.820312 197.773438 137.507812 202.0625 142.417969 C 208.667969 147.789062 215.273438 153.160156 221.878906 158.527344 C 220.894531 155.828125 219.90625 153.128906 218.917969 150.425781 C 238.335938 166.269531 252.414062 189.652344 253.488281 214.695312 C 254.5625 239.738281 243.050781 272.71875 217.65625 276.316406 Z M 217.65625 276.316406 " fill-opacity="1" fill-rule="nonzero"/></g><g clip-path="url(#464aea201a)"><path fill="#293b26" d="M 248.542969 290.929688 C 243.960938 284.707031 224.019531 260.246094 216.226562 249.664062 C 215.25 248.339844 214.285156 247.007812 213.320312 245.671875 C 213.332031 245.652344 213.339844 245.632812 213.347656 245.609375 C 214.0625 244.132812 214.726562 242.617188 215.132812 241.023438 C 216.007812 238.898438 216.886719 236.773438 217.675781 234.613281 C 220.140625 227.746094 222.65625 220.882812 224.414062 213.792969 C 227.4375 202.105469 228.613281 189.875 227.335938 177.851562 C 226.894531 174.390625 226.515625 170.894531 225.515625 167.542969 C 224.820312 165.398438 223.699219 163.4375 222.582031 161.496094 C 223.402344 164.0625 224.394531 166.574219 225.03125 169.203125 C 225.449219 170.925781 225.710938 172.679688 225.976562 174.433594 C 226.300781 176.601562 226.609375 179.257812 226.761719 181.792969 C 227.367188 192.625 226.265625 202.925781 223.589844 213.328125 C 222.277344 218.59375 220.605469 223.761719 218.75 228.859375 C 217.785156 231.613281 216.839844 234.375 215.761719 237.082031 C 214.816406 239.429688 213.695312 242.148438 212.941406 243.894531 C 212.816406 244.160156 212.71875 244.429688 212.625 244.703125 C 203.011719 231.316406 194.070312 217.480469 185.75 203.261719 C 186.289062 201.253906 186.726562 199.222656 187.101562 197.179688 C 188.210938 191.382812 189.054688 185.523438 189.421875 179.625 C 189.824219 173.988281 189.78125 168.328125 189.933594 162.679688 C 190.027344 154.777344 190.289062 146.773438 188.589844 139.003906 C 188.210938 137.402344 187.753906 135.808594 187.140625 134.273438 C 186.671875 133.089844 186.058594 131.972656 185.5625 130.800781 C 185.753906 131.816406 186.0625 132.804688 186.34375 133.796875 C 186.613281 134.757812 186.839844 135.730469 187.070312 136.703125 C 187.332031 137.777344 187.636719 138.84375 187.867188 139.929688 C 188.183594 141.5625 188.363281 142.824219 188.542969 144.246094 C 188.988281 147.789062 189.085938 151.359375 189.082031 154.921875 C 189.085938 157.921875 189.074219 160.921875 188.996094 163.917969 C 188.859375 169.308594 188.886719 174.703125 188.480469 180.082031 C 188.097656 185.753906 187.375 190.78125 186.328125 196.378906 C 185.917969 198.386719 185.550781 200.40625 185.269531 202.4375 C 183.292969 199.039062 181.34375 195.621094 179.433594 192.179688 C 172.214844 179.175781 165.859375 164.519531 159.675781 149.832031 C 159.773438 149.179688 159.875 148.523438 159.988281 147.871094 C 160.90625 142.269531 160.59375 136.570312 160.160156 130.9375 C 159.933594 127.09375 159.570312 123.253906 158.984375 119.445312 C 158.515625 116.300781 157.972656 113.15625 157.128906 110.089844 C 157.242188 112.148438 157.339844 114.214844 157.597656 116.261719 C 157.980469 119.097656 158.421875 121.554688 158.691406 124.175781 C 158.957031 126.503906 159.109375 128.84375 159.265625 131.183594 C 159.421875 133.511719 159.613281 135.84375 159.664062 138.179688 C 159.734375 141.179688 159.476562 144.167969 159.472656 147.164062 C 159.460938 147.898438 159.457031 148.628906 159.480469 149.363281 C 156.226562 141.628906 153.019531 133.894531 149.757812 126.390625 C 143.164062 111.226562 133.191406 85.410156 130.59375 80.199219 C 130.605469 81.109375 130.671875 83.34375 131.492188 84.050781 C 140.28125 107.128906 149.082031 130.234375 158.773438 152.941406 C 158.488281 152.730469 158.203125 152.515625 157.917969 152.304688 C 155.5 150.457031 152.976562 148.75 150.539062 146.929688 C 148.269531 145.308594 146.472656 144.039062 144.457031 142.210938 C 142.929688 140.875 141.480469 139.453125 140.101562 137.972656 C 138.269531 135.902344 136.4375 133.820312 134.347656 132.003906 C 135.785156 133.953125 137.179688 135.945312 138.730469 137.808594 C 140.519531 139.851562 142.492188 141.722656 144.542969 143.5 C 146.546875 145.257812 148.761719 146.75 150.910156 148.320312 C 153.265625 150.039062 155.59375 151.808594 158.132812 153.25 C 158.464844 153.433594 158.796875 153.613281 159.132812 153.789062 C 165.070312 167.660156 171.339844 181.378906 178.148438 194.847656 C 178.960938 196.453125 179.835938 198.109375 180.765625 199.808594 C 180.253906 199.566406 179.742188 199.324219 179.234375 199.074219 C 176.957031 197.996094 174.625 197.023438 172.363281 195.90625 C 169.890625 194.675781 167.488281 193.316406 165.042969 192.03125 C 162.65625 190.738281 160.269531 189.441406 157.886719 188.132812 C 156.027344 187.070312 154.222656 185.921875 152.425781 184.753906 C 150.917969 183.753906 149.378906 182.792969 147.921875 181.71875 C 146.832031 180.929688 145.371094 179.617188 143.996094 178.621094 C 143.003906 177.914062 141.949219 177.304688 140.882812 176.71875 C 140.175781 176.324219 139.417969 176.003906 138.796875 175.480469 C 139.292969 176.121094 140.230469 176.746094 140.726562 177.144531 C 141.949219 178.097656 142.613281 178.5625 143.96875 179.6875 C 145.15625 180.660156 146.324219 181.65625 147.558594 182.570312 C 148.964844 183.597656 150.4375 184.527344 151.886719 185.488281 C 153.546875 186.566406 155.210938 187.632812 156.921875 188.628906 C 158.378906 189.472656 159.878906 190.246094 161.351562 191.066406 C 164.726562 192.894531 168.097656 194.734375 171.507812 196.496094 C 174.152344 197.769531 176.832031 199.074219 179.605469 200.042969 C 180.117188 200.214844 180.632812 200.367188 181.152344 200.507812 C 188.722656 214.191406 199.8125 230.566406 210.652344 245.800781 C 208.726562 245.324219 206.792969 244.882812 204.832031 244.558594 C 199.78125 243.652344 194.785156 242.445312 189.820312 241.152344 C 185.449219 240 181.070312 238.828125 176.851562 237.195312 C 168.390625 233.914062 159.792969 229.511719 151.328125 225.386719 C 147.78125 223.660156 144.390625 221.625 140.789062 220.011719 C 142.277344 221.101562 143.769531 222.191406 145.320312 223.1875 C 146.53125 223.96875 147.816406 224.617188 149.097656 225.277344 C 153.09375 227.292969 157.121094 229.246094 161.152344 231.1875 C 167.148438 234.097656 173.203125 236.929688 179.5 239.125 C 183.707031 240.511719 187.996094 241.628906 192.285156 242.726562 C 196.578125 243.789062 200.886719 244.820312 205.253906 245.53125 C 206.90625 245.789062 209.179688 246.035156 210.910156 246.167969 C 228.640625 271.070312 245.621094 292.839844 245.332031 294.695312 C 246.191406 292.042969 248.90625 291.425781 248.542969 290.929688 Z M 248.542969 290.929688 " fill-opacity="1" fill-rule="nonzero"/></g></svg>