<svg xmlns="http://www.w3.org/2000/svg" xmlns:xlink="http://www.w3.org/1999/xlink" width="500" zoomAndPan="magnify" viewBox="0 0 375 374.999991" height="500" preserveAspectRatio="xMidYMid meet" version="1.0"><defs><clipPath id="bfa956be42"><path d="M 79 121 L 375 121 L 375 268.710938 L 79 268.710938 Z M 79 121 " clip-rule="nonzero"/></clipPath></defs><path fill="#a47052" d="M -8.480469 194.597656 C -7.386719 196.492188 -4.890625 196.796875 -2.757812 196.550781 C -1.964844 196.492188 -1.234375 196.371094 -0.445312 196.308594 C 2.964844 196.003906 6.375 195.820312 9.785156 195.453125 C 13.5 195.085938 17.273438 194.539062 21.046875 194.722656 C 29.9375 195.210938 39.558594 196.246094 48.324219 197.957031 C 53.378906 198.933594 58.433594 199.910156 63.488281 200.828125 C 64.15625 201.742188 64.703125 202.71875 65.253906 203.695312 C 67.140625 206.8125 69.878906 208.519531 72.863281 210.414062 C 76.03125 212.367188 79.257812 214.382812 82.363281 216.457031 C 83.519531 217.191406 84.734375 215.480469 83.824219 214.566406 C 81.144531 211.757812 78.34375 209.132812 75.542969 206.445312 C 74.261719 205.222656 72.742188 204.0625 71.585938 202.71875 C 71.464844 202.535156 71.402344 202.351562 71.28125 202.230469 C 80.65625 203.878906 89.972656 205.222656 99.472656 206.140625 C 116.277344 207.664062 132.898438 212.0625 149.640625 212.671875 C 166.875 213.34375 184.347656 214.136719 201.519531 212.550781 C 217.59375 211.085938 233.546875 208.765625 249.253906 205.222656 C 250.898438 204.980469 252.480469 204.675781 254.125 204.429688 C 260.09375 203.390625 266.058594 202.414062 272.085938 201.5 C 278.539062 200.460938 284.933594 200.339844 291.449219 199.789062 C 304.417969 198.691406 316.960938 194.171875 329.867188 192.523438 C 331.332031 192.339844 332.730469 192.15625 334.253906 191.910156 C 338.027344 191.972656 341.804688 192.15625 345.578125 192.277344 C 354.832031 194.230469 364.453125 195.085938 373.707031 196.980469 C 379.429688 198.140625 385.03125 199.789062 390.695312 201.253906 C 396.054688 202.71875 401.59375 203.453125 406.832031 205.222656 C 416.207031 208.277344 425.707031 212.917969 434.109375 218.105469 C 442.816406 223.417969 450.851562 230.746094 455.90625 239.722656 C 456.574219 240.882812 458.21875 239.84375 457.671875 238.683594 C 455.722656 234.410156 453.289062 230.320312 450.367188 226.59375 C 450.304688 226.472656 450.183594 226.410156 450.121094 226.351562 C 440.441406 213.464844 426.070312 203.820312 411.398438 198.199219 C 407.011719 196.550781 402.445312 195.453125 397.878906 194.476562 L 401.53125 194.476562 C 404.03125 194.476562 406.464844 194.539062 408.902344 194.476562 C 428.933594 194.109375 449.390625 190.75 469.300781 194.355469 C 478.433594 196.003906 487.261719 199.054688 496.335938 201.253906 C 502.910156 202.84375 509.667969 202.660156 516.367188 203.390625 C 522.941406 204.125 529.273438 206.078125 535.910156 206.015625 C 536.703125 206.015625 537.617188 205.957031 538.226562 205.40625 C 539.382812 204.429688 538.773438 202.535156 538.164062 201.132812 C 537.128906 198.996094 536.15625 196.859375 535.179688 194.722656 C 534.449219 193.195312 533.71875 191.667969 532.929688 190.203125 C 531.285156 187.027344 530.613281 187.269531 527.449219 187.148438 C 523.796875 186.964844 520.019531 185.988281 516.304688 185.683594 C 512.53125 185.316406 508.816406 185.074219 505.101562 184.339844 C 496.519531 182.632812 488.238281 179.515625 479.710938 177.5 C 461.507812 173.226562 443.242188 173.898438 424.792969 174.816406 C 416.144531 175.242188 407.5 175.730469 398.855469 175 C 389.476562 174.203125 380.160156 172.617188 370.722656 172.066406 C 363.84375 171.699219 358.058594 173.289062 351.910156 174.753906 C 345.941406 175.179688 340.039062 176.035156 334.128906 177.074219 C 328.226562 177.257812 322.320312 177.074219 316.414062 177.257812 C 308.011719 177.5 299.121094 178.050781 291.082031 180.617188 C 286.941406 181.898438 283.59375 183.058594 279.210938 183.242188 C 274.21875 183.425781 269.285156 182.8125 264.355469 182.9375 C 262.46875 182.996094 260.640625 183.058594 258.753906 183.242188 L 258.449219 183.242188 C 255.953125 183.425781 253.394531 183.730469 250.835938 184.097656 C 250.777344 184.15625 250.652344 184.15625 250.59375 184.097656 C 237.257812 186.109375 223.804688 189.714844 210.46875 191.058594 C 205.109375 191.546875 199.753906 192.277344 194.332031 193.070312 C 194.636719 192.949219 194.941406 192.765625 195.308594 192.644531 C 195.792969 192.402344 196.28125 192.21875 196.828125 191.972656 C 201.945312 190.082031 206.9375 188.066406 211.867188 185.625 C 221.125 180.921875 230.5625 175.609375 238.050781 168.34375 C 245.417969 161.257812 252.480469 153.261719 258.507812 144.957031 C 259.238281 143.855469 257.535156 142.515625 256.683594 143.492188 C 244.503906 157.472656 228.613281 167.488281 212.601562 176.523438 C 210.652344 177.625 208.765625 178.660156 206.875 179.699219 C 202.1875 182.324219 197.4375 184.15625 192.507812 186.171875 C 187.636719 188.1875 183.253906 190.8125 178.136719 192.15625 C 172.839844 193.5625 167.480469 194.476562 162.125 195.699219 C 161.574219 195.820312 160.90625 196.003906 160.238281 196.125 C 158.347656 196.125 156.402344 196.125 154.511719 196.003906 C 146.78125 195.574219 139.839844 192.035156 132.351562 190.386719 C 123.21875 188.429688 114.085938 187.636719 105.132812 184.828125 C 95.636719 181.898438 85.710938 180.492188 75.96875 178.84375 C 65.863281 177.136719 55.996094 174.511719 45.890625 173.167969 C 35.84375 171.882812 25.492188 173.226562 15.507812 174.203125 C 9.175781 174.816406 -0.503906 170.722656 -5.316406 176.097656 C -7.019531 178.050781 -7.628906 180.738281 -7.996094 183.300781 C -8.054688 183.546875 -8.054688 183.730469 -8.117188 183.972656 C -8.480469 186.171875 -8.726562 188.429688 -8.96875 190.691406 C -9.089844 192.035156 -9.152344 193.4375 -8.480469 194.597656 Z M -8.480469 194.597656 " fill-opacity="1" fill-rule="nonzero"/><path fill="#7f4c38" d="M 210.46875 191.058594 C 223.804688 189.714844 237.257812 186.113281 250.59375 184.097656 C 250.65625 184.15625 250.777344 184.15625 250.835938 184.097656 C 251.75 184.15625 252.664062 184.15625 253.578125 184.15625 C 253.699219 184.097656 253.820312 184.035156 253.941406 184.035156 C 255.464844 183.789062 256.988281 183.484375 258.449219 183.242188 L 258.753906 183.242188 C 260.640625 183.058594 262.46875 182.996094 264.355469 182.9375 C 269.285156 182.8125 274.21875 183.425781 279.210938 183.242188 C 283.59375 183.058594 286.945312 181.898438 291.082031 180.617188 C 299.121094 178.050781 308.011719 177.5 316.414062 177.257812 C 322.320312 177.074219 328.226562 177.257812 334.132812 177.074219 C 340.039062 176.035156 345.941406 175.179688 351.910156 174.753906 C 358.058594 173.289062 363.84375 171.699219 370.722656 172.066406 C 380.164062 172.617188 389.476562 174.203125 398.855469 175 C 407.5 175.730469 416.144531 175.242188 424.792969 174.816406 C 443.242188 173.898438 461.507812 173.226562 479.714844 177.5 C 488.238281 179.515625 496.519531 182.632812 505.101562 184.339844 C 508.816406 185.074219 512.53125 185.316406 516.304688 185.683594 C 520.019531 185.988281 523.796875 186.964844 527.449219 187.148438 C 530.613281 187.269531 531.285156 187.027344 532.929688 190.203125 C 533.71875 191.667969 534.449219 193.195312 535.179688 194.722656 C 526.046875 195.636719 516.734375 194.171875 507.722656 193.4375 C 502.726562 193.074219 497.613281 192.523438 492.742188 191.117188 C 487.75 189.652344 483 187.269531 478.3125 185.074219 C 474.050781 183.121094 469.667969 181.226562 464.976562 180.433594 C 460.105469 179.640625 455.175781 180.003906 450.304688 180.492188 C 441.414062 181.410156 432.769531 181.652344 423.878906 181.472656 C 425.339844 181.652344 426.742188 181.714844 428.324219 181.652344 C 433.195312 181.472656 438.003906 182.082031 442.753906 183.058594 C 452.800781 185.195312 462.90625 186.050781 473.074219 187.578125 C 473.5625 187.636719 473.441406 188.429688 472.953125 188.429688 C 462.785156 187.636719 452.558594 186.292969 442.328125 186.050781 C 437.519531 185.988281 432.585938 185.746094 427.714844 186.050781 C 423.269531 186.355469 419.738281 184.644531 415.414062 184.28125 C 396.054688 182.753906 376.875 187.269531 357.574219 186.84375 C 356.964844 186.84375 356.84375 186.050781 357.390625 185.867188 C 362.015625 184.402344 367.070312 184.402344 371.882812 184.035156 C 377.179688 183.667969 382.414062 182.875 387.589844 182.082031 C 390.816406 181.59375 393.984375 180.800781 397.210938 180.25 C 395.445312 180.1875 393.738281 180.066406 391.972656 180.003906 C 382.171875 179.578125 372.855469 176.832031 362.929688 178.601562 C 353.738281 180.25 345.273438 183.609375 335.773438 183.667969 C 331.085938 183.667969 326.460938 183.121094 321.832031 182.386719 C 317.691406 181.777344 313.246094 180.859375 309.046875 181.347656 C 301.253906 182.324219 294.371094 186.601562 286.882812 188.738281 C 288.28125 188.859375 289.742188 189.042969 291.265625 189.226562 C 299.667969 190.082031 307.828125 188.554688 316.109375 187.515625 C 316.902344 187.394531 317.082031 188.738281 316.292969 188.921875 C 308.191406 190.507812 300.214844 192.523438 291.9375 192.644531 C 283.714844 192.707031 276.042969 191.300781 267.945312 193.253906 C 259.664062 195.210938 251.445312 196.917969 243.042969 198.382812 C 235.1875 199.726562 226.359375 200.765625 218.382812 199.667969 C 217.898438 199.605469 217.652344 198.8125 218.261719 198.691406 C 222.769531 197.773438 227.457031 197.589844 232.023438 196.859375 C 236.164062 196.1875 240.242188 195.515625 244.320312 194.722656 C 250.957031 193.5 257.535156 192.035156 264.050781 190.386719 C 260.945312 190.082031 257.902344 189.59375 254.855469 189.46875 C 244.445312 190.507812 234.03125 191.363281 223.742188 193.195312 C 215.277344 194.660156 206.816406 195.882812 198.351562 197.164062 C 194.210938 197.773438 189.949219 198.75 185.929688 199.789062 C 182.582031 200.703125 179.234375 202.351562 175.824219 202.660156 C 175.09375 202.660156 174.605469 201.621094 175.214844 201.132812 C 178.136719 198.691406 182.277344 197.53125 185.75 195.941406 C 188.914062 194.414062 191.898438 193.316406 195.308594 192.644531 C 194.941406 192.765625 194.636719 192.949219 194.332031 193.074219 C 199.753906 192.277344 205.109375 191.546875 210.46875 191.058594 Z M -2.878906 183.914062 C -2.574219 183.914062 -2.210938 183.851562 -1.90625 183.851562 C 15.996094 186.539062 35.050781 183.730469 52.34375 190.019531 C 60.808594 193.074219 69.332031 194.355469 78.160156 195.699219 C 82.667969 196.371094 87.109375 197.46875 91.617188 198.199219 C 96 198.933594 100.445312 198.933594 104.828125 199.484375 C 105.4375 199.542969 105.558594 198.507812 105.011719 198.445312 C 86.929688 195.453125 69.027344 190.8125 51.796875 184.585938 C 45.953125 182.507812 39.617188 181.59375 33.285156 181.105469 C 33.46875 181.105469 33.589844 181.042969 33.714844 181.042969 C 42.175781 180.371094 50.273438 180.859375 58.617188 182.570312 C 66.714844 184.21875 74.691406 186.417969 82.847656 187.636719 C 91.375 188.921875 99.714844 189.652344 108.054688 191.851562 C 116.214844 193.988281 124.3125 195.574219 132.59375 197.164062 C 139.960938 198.507812 148.058594 202.597656 155.546875 201.132812 C 163.769531 199.542969 171.195312 195.574219 178.929688 192.523438 C 183.375 190.75 187.695312 189.105469 192.265625 187.882812 C 196.402344 186.84375 200.300781 185.441406 203.894531 183.179688 C 207 181.226562 209.738281 178.84375 212.601562 176.523438 C 210.652344 177.625 208.765625 178.660156 206.878906 179.699219 C 202.1875 182.324219 197.4375 184.15625 192.507812 186.171875 C 187.636719 188.1875 183.253906 190.8125 178.136719 192.15625 C 172.839844 193.5625 167.480469 194.476562 162.125 195.699219 C 161.578125 195.820312 160.90625 196.003906 160.238281 196.125 C 158.347656 196.125 156.402344 196.125 154.511719 196.003906 C 146.78125 195.574219 139.839844 192.035156 132.351562 190.386719 C 123.21875 188.429688 114.085938 187.636719 105.132812 184.828125 C 95.636719 181.898438 85.710938 180.492188 75.96875 178.84375 C 65.863281 177.136719 55.996094 174.511719 45.890625 173.167969 C 35.84375 171.882812 25.492188 173.226562 15.507812 174.203125 C 9.175781 174.816406 -0.503906 170.722656 -5.316406 176.097656 C -7.019531 178.050781 -7.628906 180.738281 -7.996094 183.300781 C -8.054688 183.546875 -8.054688 183.730469 -8.117188 183.972656 C -6.351562 183.914062 -4.585938 183.972656 -2.878906 183.914062 Z M 411.398438 198.199219 C 407.011719 196.550781 402.445312 195.453125 397.878906 194.476562 L 401.53125 194.476562 C 401.472656 194.476562 401.351562 194.414062 401.289062 194.414062 C 397.148438 193.5625 392.644531 193.132812 388.382812 193.011719 C 386.980469 192.949219 386.796875 194.964844 388.078125 195.394531 C 391.914062 196.613281 395.992188 196.0625 399.890625 196.980469 C 403.726562 197.894531 406.890625 200.523438 410.546875 202.109375 C 417.667969 205.160156 425.402344 206.992188 431.855469 211.574219 C 435.144531 213.953125 437.882812 217.007812 441.109375 219.449219 C 444.15625 221.769531 447.261719 223.785156 450.121094 226.351562 C 440.441406 213.464844 426.070312 203.820312 411.398438 198.199219 Z M 411.398438 198.199219 " fill-opacity="1" fill-rule="nonzero"/><g clip-path="url(#bfa956be42)"><path fill="#5f926a" d="M 233.910156 148.558594 C 231.597656 144.652344 231.171875 139.828125 231.960938 135.371094 C 232.691406 130.851562 234.582031 126.636719 236.773438 122.609375 C 236.953125 122.304688 237.078125 121.996094 237.320312 121.753906 C 237.503906 121.570312 237.6875 121.386719 237.988281 121.328125 C 238.71875 121.082031 239.453125 121.507812 240.0625 121.996094 C 243.347656 124.5625 245.90625 128.105469 247.246094 132.074219 C 248.21875 135.007812 248.425781 137.929688 248.285156 140.839844 C 250.726562 136.921875 254.644531 134.253906 258.753906 132.132812 C 266.730469 127.921875 275.921875 125.234375 284.875 126.761719 C 285.664062 126.882812 286.578125 127.1875 287.066406 127.738281 C 287.246094 127.980469 287.371094 128.164062 287.429688 128.46875 C 287.550781 128.957031 287.429688 129.449219 287.246094 129.9375 C 285.96875 134.394531 284.691406 138.972656 282.621094 143.125 C 280.550781 147.335938 277.628906 151.246094 273.730469 153.808594 C 269.773438 156.4375 264.964844 157.535156 260.214844 157.777344 C 257.171875 157.902344 254.0625 157.65625 251.019531 157.351562 C 249.742188 157.167969 247.0625 157.414062 245.84375 156.496094 C 245.722656 156.4375 245.601562 156.375 245.539062 156.253906 C 245.4375 156.128906 245.433594 155.898438 245.359375 155.742188 C 244.535156 158.316406 243.574219 157.78125 240.972656 155.824219 C 238.234375 153.75 235.613281 151.550781 233.910156 148.558594 Z M 458.644531 268.359375 C 459.132812 268.175781 459.4375 267.628906 459.679688 267.199219 C 460.59375 265.304688 461.566406 263.476562 462.542969 261.582031 C 464.003906 258.710938 465.527344 255.71875 466.074219 252.484375 C 466.074219 252.421875 466.074219 252.421875 466.074219 252.363281 C 466.742188 248.453125 465.832031 244.300781 463.578125 241.066406 C 462.03125 238.765625 459.75 236.953125 457.207031 235.722656 C 459.828125 236.65625 463.632812 236.785156 465.039062 236.667969 C 467.535156 236.484375 470.03125 235.816406 472.222656 234.59375 C 472.953125 234.226562 473.683594 233.617188 473.625 232.824219 C 473.5625 232.332031 473.199219 231.96875 472.832031 231.664062 C 472.40625 231.296875 471.917969 230.929688 471.492188 230.625 C 469.179688 228.914062 466.5 227.875 463.699219 227.816406 C 461.75 227.753906 459.800781 228.183594 458.097656 229.160156 C 456.820312 229.832031 454.324219 231.480469 454.445312 233.1875 C 454.496094 234.167969 455.285156 234.808594 456.347656 235.324219 C 456.28125 235.304688 456.210938 235.265625 456.148438 235.265625 C 455.113281 234.777344 454.199219 234.65625 454.078125 236.121094 C 454.019531 237.953125 454.445312 239.476562 454.019531 241.371094 C 453.46875 243.628906 452.496094 245.828125 451.886719 248.085938 C 450.121094 254.742188 451.949219 262.316406 456.636719 267.445312 C 457.125 267.992188 457.914062 268.605469 458.644531 268.359375 Z M 80.292969 215.359375 C 80.65625 216.09375 80.777344 216.886719 80.902344 217.679688 C 81.449219 220.734375 81.023438 223.90625 81.875 226.898438 C 82.789062 230.320312 85.285156 233.1875 88.207031 235.203125 C 91.128906 237.21875 94.480469 238.5625 97.828125 239.84375 C 98.921875 240.273438 100.382812 240.578125 101.054688 239.601562 C 101.359375 239.113281 101.359375 238.5 101.359375 237.953125 C 101.359375 237.644531 101.359375 237.28125 101.296875 236.972656 C 101.238281 234.960938 101.175781 233.007812 101.117188 230.929688 C 101.054688 228.488281 100.933594 225.921875 100.082031 223.601562 C 98.800781 220.242188 95.878906 217.617188 92.652344 215.96875 C 89.425781 214.261719 85.894531 213.40625 82.363281 212.550781 C 81.570312 212.367188 80.109375 212.246094 79.5625 212.917969 C 79.316406 213.101562 79.257812 213.464844 79.316406 213.894531 C 79.378906 214.320312 80.109375 214.933594 80.292969 215.359375 Z M 80.292969 215.359375 " fill-opacity="1" fill-rule="nonzero"/></g><path fill="#587e60" d="M 243.476562 153.511719 C 243.804688 154.648438 244.34375 155.648438 244.765625 156.742188 C 244.851562 156.964844 244.589844 157.21875 244.371094 157.136719 C 242.34375 156.398438 242.019531 153.949219 241.488281 152.128906 C 240.660156 149.304688 239.667969 146.539062 239.144531 143.628906 C 238.632812 140.808594 238.613281 138.070312 238.851562 135.222656 C 239.105469 132.214844 239.300781 129.253906 238.359375 126.335938 C 238.242188 125.972656 238.796875 125.832031 238.921875 126.179688 C 240.753906 131.253906 239.558594 136.886719 240.429688 142.136719 C 240.886719 144.871094 241.664062 147.535156 242.5 150.171875 C 242.855469 151.28125 243.15625 152.394531 243.476562 153.511719 Z M 81.128906 213.582031 C 81.023438 213.714844 80.980469 213.902344 81.164062 213.988281 C 82.222656 214.472656 83.152344 214.894531 84.058594 215.648438 C 84.925781 216.375 85.730469 217.175781 86.597656 217.902344 C 88.660156 219.625 90.609375 221.496094 91.785156 223.953125 C 93 226.488281 93.945312 229.171875 94.984375 231.78125 C 95.929688 234.15625 97.304688 235.953125 98.933594 237.894531 C 99.117188 238.117188 99.5 237.824219 99.332031 237.582031 C 98.53125 236.421875 97.671875 235.285156 97.011719 234.035156 C 96.308594 232.710938 95.964844 231.242188 95.542969 229.8125 C 94.75 227.117188 93.949219 224.113281 92.496094 221.6875 C 91.355469 219.785156 89.765625 218.40625 88.117188 217.035156 C 88.152344 217.046875 88.175781 217.058594 88.207031 217.070312 C 88.207031 217.070312 88.207031 217.070312 88.269531 217.070312 C 90.886719 217.984375 93.75 218.535156 95.878906 220.367188 C 98.496094 222.566406 99.410156 226.105469 99.898438 229.523438 C 100.082031 231.050781 100.261719 232.640625 100.566406 234.164062 C 100.75 235.144531 101.054688 236.058594 101.296875 236.972656 C 101.238281 234.960938 101.175781 233.007812 101.117188 230.929688 C 101.054688 228.488281 100.933594 225.921875 100.082031 223.601562 C 98.800781 220.242188 95.878906 217.617188 92.652344 215.96875 C 89.425781 214.261719 85.894531 213.40625 82.363281 212.550781 C 81.570312 212.367188 80.109375 212.246094 79.5625 212.917969 C 80.105469 213.097656 80.585938 213.339844 81.128906 213.582031 Z M 456.347656 235.324219 C 456.28125 235.304688 456.210938 235.265625 456.148438 235.265625 C 456.109375 235.246094 456.320312 235.476562 456.597656 235.789062 C 456.492188 236.5625 456.734375 237.28125 457.085938 237.984375 C 457.683594 239.171875 458.367188 240.230469 458.824219 241.496094 C 459.734375 244.011719 460.464844 246.5625 460.648438 249.246094 C 460.835938 251.976562 460.449219 254.492188 459.65625 257.101562 C 459.242188 258.464844 458.84375 259.839844 458.492188 261.21875 C 458.164062 262.492188 458.410156 263.710938 458.242188 264.984375 C 458.199219 265.3125 458.738281 265.378906 458.8125 265.0625 C 459.136719 263.679688 459.066406 262.320312 459.539062 260.945312 C 460.023438 259.527344 460.53125 258.144531 461.113281 256.761719 C 462.136719 254.324219 462.574219 251.890625 462.425781 249.246094 C 462.300781 247.003906 461.800781 244.882812 461.054688 242.792969 C 461.75 243.480469 462.527344 244.117188 463.210938 244.851562 C 465.101562 246.804688 466.011719 249.613281 466.074219 252.363281 C 466.742188 248.453125 465.832031 244.300781 463.578125 241.066406 C 462.0625 238.8125 459.832031 237.042969 457.351562 235.8125 C 457.292969 235.71875 457.238281 235.632812 457.179688 235.539062 C 457.152344 235.492188 457.097656 235.535156 457.058594 235.515625 C 457.296875 235.40625 457.523438 235.28125 457.710938 235.082031 C 458.441406 234.710938 459.148438 234.058594 459.78125 233.730469 C 460.964844 233.117188 462.234375 232.699219 463.53125 232.398438 C 466.316406 231.75 469.011719 233.066406 471.796875 233.027344 C 472.1875 233.023438 472.183594 232.441406 471.796875 232.421875 C 470.226562 232.347656 468.75 231.851562 467.246094 231.449219 C 465.84375 231.070312 464.433594 230.914062 462.988281 231.085938 C 461.941406 231.210938 460.925781 231.5625 459.953125 231.984375 C 461.277344 230.660156 463.113281 229.832031 464.976562 229.585938 C 467.171875 229.34375 469.421875 229.832031 471.492188 230.625 C 469.179688 228.914062 466.5 227.875 463.699219 227.816406 C 461.75 227.753906 459.800781 228.183594 458.097656 229.160156 C 456.820312 229.832031 454.324219 231.480469 454.445312 233.1875 C 454.496094 234.167969 455.285156 234.808594 456.347656 235.324219 Z M 267.402344 142.769531 C 264.257812 145.308594 261.238281 148.121094 257.933594 150.449219 C 254.644531 152.761719 250.773438 154.054688 247.359375 156.148438 C 247.113281 156.300781 247.28125 156.640625 247.546875 156.597656 C 255.265625 155.273438 261.035156 150.003906 266.859375 145.238281 C 269.839844 142.796875 272.789062 140.347656 275.59375 137.707031 C 278.378906 135.082031 281.167969 132.539062 284.625 130.828125 C 284.917969 130.683594 284.710938 130.167969 284.402344 130.292969 C 277.851562 132.953125 272.820312 138.398438 267.402344 142.769531 Z M 243.835938 129.570312 C 245.539062 133.476562 245.480469 137.8125 245.234375 142.027344 C 245.054688 144.285156 244.871094 146.605469 244.871094 148.863281 C 244.808594 149.78125 244.625 151.308594 244.992188 152.222656 C 245.015625 152.277344 245.039062 152.292969 245.066406 152.339844 C 244.890625 153.898438 244.886719 155.464844 245.539062 156.253906 C 245.601562 156.375 245.722656 156.4375 245.84375 156.496094 C 248.160156 151.367188 252.359375 147.277344 256.5 143.367188 C 262.46875 137.75 268.675781 131.949219 276.410156 129.265625 C 279.820312 128.105469 283.472656 127.554688 287.066406 127.738281 C 286.578125 127.1875 285.664062 126.882812 284.875 126.761719 C 275.921875 125.234375 266.730469 127.921875 258.753906 132.132812 C 254.644531 134.253906 250.726562 136.921875 248.285156 140.839844 C 248.425781 137.929688 248.21875 135.007812 247.246094 132.074219 C 245.90625 128.105469 243.347656 124.5625 240.058594 121.996094 C 239.449219 121.507812 238.71875 121.082031 237.988281 121.328125 C 237.6875 121.386719 237.503906 121.570312 237.320312 121.753906 C 240.0625 123.953125 242.433594 126.457031 243.835938 129.570312 Z M 243.835938 129.570312 " fill-opacity="1" fill-rule="nonzero"/></svg>