<svg xmlns="http://www.w3.org/2000/svg" xmlns:xlink="http://www.w3.org/1999/xlink" width="500" zoomAndPan="magnify" viewBox="0 0 375 374.999991" height="500" preserveAspectRatio="xMidYMid meet" version="1.0"><defs><clipPath id="ac34ab30ac"><path d="M 40 102.523438 L 375 102.523438 L 375 250 L 40 250 Z M 40 102.523438 " clip-rule="nonzero"/></clipPath></defs><path fill="#a47052" d="M 522.398438 176.632812 C 521.300781 174.742188 518.804688 174.433594 516.675781 174.679688 C 515.882812 174.742188 515.152344 174.863281 514.363281 174.925781 C 510.953125 175.230469 507.542969 175.414062 504.132812 175.777344 C 500.417969 176.144531 496.644531 176.695312 492.867188 176.511719 C 483.980469 176.023438 474.359375 174.984375 465.589844 173.277344 C 460.539062 172.296875 455.484375 171.320312 450.429688 170.40625 C 449.761719 169.488281 449.210938 168.511719 448.664062 167.535156 C 446.777344 164.421875 444.035156 162.710938 441.054688 160.820312 C 437.886719 158.863281 434.660156 156.851562 431.554688 154.773438 C 430.398438 154.042969 429.179688 155.75 430.09375 156.667969 C 432.773438 159.476562 435.574219 162.101562 438.375 164.789062 C 439.652344 166.007812 441.175781 167.167969 442.332031 168.511719 C 442.453125 168.695312 442.515625 168.878906 442.636719 169 C 433.261719 167.351562 423.945312 166.007812 414.445312 165.09375 C 397.640625 163.566406 381.019531 159.171875 364.273438 158.558594 C 347.042969 157.886719 329.570312 157.09375 312.398438 158.683594 C 296.324219 160.148438 280.371094 162.46875 264.664062 166.007812 C 263.019531 166.253906 261.433594 166.558594 259.792969 166.804688 C 253.824219 167.839844 247.859375 168.816406 241.828125 169.734375 C 235.375 170.773438 228.984375 170.894531 222.46875 171.441406 C 209.5 172.542969 196.957031 177.0625 184.046875 178.710938 C 182.585938 178.894531 181.1875 179.074219 179.664062 179.320312 C 175.890625 179.257812 172.113281 179.074219 168.339844 178.953125 C 159.085938 177 149.464844 176.144531 140.210938 174.253906 C 134.484375 173.09375 128.882812 171.441406 123.222656 169.976562 C 117.863281 168.511719 112.324219 167.78125 107.085938 166.007812 C 97.710938 162.957031 88.210938 158.316406 79.808594 153.125 C 71.101562 147.8125 63.0625 140.484375 58.011719 131.511719 C 57.339844 130.351562 55.695312 131.386719 56.246094 132.546875 C 58.191406 136.820312 60.628906 140.914062 63.550781 144.636719 C 63.613281 144.757812 63.734375 144.820312 63.796875 144.882812 C 73.476562 157.765625 87.847656 167.414062 102.519531 173.03125 C 106.902344 174.679688 111.46875 175.777344 116.035156 176.757812 L 112.382812 176.757812 C 109.886719 176.757812 107.453125 176.695312 105.015625 176.757812 C 84.984375 177.121094 64.527344 180.480469 44.617188 176.878906 C 35.484375 175.230469 26.652344 172.175781 17.582031 169.976562 C 11.007812 168.390625 4.246094 168.574219 -2.449219 167.839844 C -9.027344 167.109375 -15.359375 165.152344 -21.996094 165.214844 C -22.785156 165.214844 -23.699219 165.277344 -24.308594 165.824219 C -25.464844 166.804688 -24.855469 168.695312 -24.246094 170.101562 C -23.210938 172.238281 -22.238281 174.375 -21.265625 176.511719 C -20.535156 178.039062 -19.804688 179.566406 -19.011719 181.03125 C -17.367188 184.207031 -16.699219 183.960938 -13.53125 184.082031 C -9.878906 184.265625 -6.101562 185.242188 -2.390625 185.546875 C 1.386719 185.914062 5.101562 186.160156 8.8125 186.890625 C 17.398438 188.601562 25.679688 191.714844 34.203125 193.730469 C 52.410156 198.003906 70.675781 197.332031 89.125 196.417969 C 97.769531 195.988281 106.417969 195.5 115.0625 196.234375 C 124.4375 197.027344 133.753906 198.613281 143.191406 199.164062 C 150.074219 199.53125 155.859375 197.945312 162.007812 196.476562 C 167.972656 196.050781 173.878906 195.195312 179.785156 194.15625 C 185.691406 193.976562 191.597656 194.15625 197.503906 193.976562 C 205.90625 193.730469 214.796875 193.179688 222.832031 190.617188 C 226.972656 189.335938 230.324219 188.175781 234.707031 187.992188 C 239.699219 187.808594 244.628906 188.417969 249.5625 188.296875 C 251.449219 188.234375 253.277344 188.175781 255.164062 187.992188 L 255.46875 187.992188 C 257.964844 187.808594 260.523438 187.503906 263.078125 187.136719 C 263.140625 187.074219 263.261719 187.074219 263.324219 187.136719 C 276.65625 185.121094 290.113281 181.519531 303.449219 180.175781 C 308.804688 179.6875 314.164062 178.953125 319.582031 178.160156 C 319.277344 178.28125 318.972656 178.464844 318.609375 178.585938 C 318.121094 178.832031 317.632812 179.015625 317.085938 179.257812 C 311.972656 181.152344 306.980469 183.167969 302.046875 185.609375 C 292.792969 190.3125 283.355469 195.625 275.867188 202.890625 C 268.5 209.972656 261.433594 217.972656 255.40625 226.277344 C 254.675781 227.375 256.382812 228.71875 257.234375 227.742188 C 269.410156 213.757812 285.304688 203.746094 301.316406 194.707031 C 303.265625 193.609375 305.152344 192.570312 307.039062 191.53125 C 311.730469 188.90625 316.476562 187.074219 321.410156 185.058594 C 326.28125 183.046875 330.664062 180.417969 335.777344 179.074219 C 341.078125 177.671875 346.433594 176.757812 351.792969 175.535156 C 352.339844 175.414062 353.011719 175.230469 353.679688 175.105469 C 355.566406 175.105469 357.515625 175.105469 359.402344 175.230469 C 367.136719 175.65625 374.078125 179.199219 381.566406 180.847656 C 390.699219 182.800781 399.832031 183.59375 408.78125 186.402344 C 418.28125 189.335938 428.207031 190.738281 437.949219 192.386719 C 448.054688 194.097656 457.917969 196.722656 468.027344 198.066406 C 478.074219 199.347656 488.425781 198.003906 498.410156 197.027344 C 504.742188 196.417969 514.421875 200.507812 519.234375 195.136719 C 520.9375 193.179688 521.546875 190.496094 521.910156 187.929688 C 521.972656 187.6875 521.972656 187.503906 522.03125 187.257812 C 522.398438 185.058594 522.640625 182.800781 522.886719 180.542969 C 523.007812 179.199219 523.070312 177.792969 522.398438 176.632812 Z M 522.398438 176.632812 " fill-opacity="1" fill-rule="nonzero"/><path fill="#7f4c38" d="M 303.449219 180.175781 C 290.113281 181.519531 276.65625 185.121094 263.324219 187.136719 C 263.261719 187.074219 263.140625 187.074219 263.078125 187.136719 C 262.164062 187.074219 261.253906 187.074219 260.339844 187.074219 C 260.21875 187.136719 260.097656 187.195312 259.972656 187.195312 C 258.453125 187.441406 256.929688 187.746094 255.46875 187.992188 L 255.164062 187.992188 C 253.277344 188.175781 251.449219 188.234375 249.5625 188.296875 C 244.628906 188.417969 239.699219 187.808594 234.707031 187.992188 C 230.320312 188.175781 226.972656 189.335938 222.832031 190.617188 C 214.796875 193.179688 205.90625 193.730469 197.503906 193.976562 C 191.597656 194.15625 185.691406 193.976562 179.785156 194.15625 C 173.878906 195.195312 167.972656 196.050781 162.007812 196.476562 C 155.855469 197.945312 150.074219 199.53125 143.191406 199.164062 C 133.753906 198.613281 124.4375 197.027344 115.0625 196.234375 C 106.417969 195.5 97.769531 195.988281 89.125 196.417969 C 70.675781 197.332031 52.410156 198.003906 34.203125 193.730469 C 25.679688 191.714844 17.398438 188.601562 8.8125 186.890625 C 5.101562 186.160156 1.386719 185.914062 -2.390625 185.546875 C -6.101562 185.242188 -9.878906 184.265625 -13.53125 184.082031 C -16.699219 183.960938 -17.367188 184.207031 -19.011719 181.03125 C -19.804688 179.566406 -20.535156 178.039062 -21.265625 176.511719 C -12.132812 175.59375 -2.816406 177.0625 6.195312 177.792969 C 11.1875 178.160156 16.304688 178.710938 21.175781 180.113281 C 26.167969 181.578125 30.917969 183.960938 35.605469 186.160156 C 39.867188 188.113281 44.25 190.007812 48.9375 190.800781 C 53.808594 191.59375 58.742188 191.226562 63.613281 190.738281 C 72.5 189.824219 81.148438 189.578125 90.039062 189.761719 C 88.578125 189.578125 87.175781 189.515625 85.59375 189.578125 C 80.722656 189.761719 75.910156 189.152344 71.164062 188.175781 C 61.117188 186.035156 51.007812 185.183594 40.839844 183.65625 C 40.351562 183.59375 40.476562 182.800781 40.960938 182.800781 C 51.128906 183.59375 61.359375 184.9375 71.589844 185.183594 C 76.398438 185.242188 81.332031 185.488281 86.203125 185.183594 C 90.648438 184.875 94.179688 186.585938 98.5 186.953125 C 117.863281 188.480469 137.042969 183.960938 156.34375 184.386719 C 156.953125 184.386719 157.074219 185.183594 156.527344 185.363281 C 151.898438 186.832031 146.847656 186.832031 142.035156 187.195312 C 136.738281 187.5625 131.503906 188.355469 126.328125 189.152344 C 123.101562 189.640625 119.933594 190.433594 116.707031 190.984375 C 118.472656 191.042969 120.175781 191.164062 121.941406 191.226562 C 131.746094 191.652344 141.0625 194.402344 150.984375 192.632812 C 160.179688 190.984375 168.644531 187.625 178.140625 187.5625 C 182.828125 187.5625 187.457031 188.113281 192.085938 188.84375 C 196.226562 189.457031 200.671875 190.371094 204.871094 189.882812 C 212.664062 188.90625 219.546875 184.632812 227.035156 182.496094 C 225.632812 182.375 224.171875 182.191406 222.648438 182.007812 C 214.246094 181.152344 206.089844 182.679688 197.808594 183.714844 C 197.015625 183.839844 196.835938 182.496094 197.625 182.3125 C 205.722656 180.722656 213.699219 178.710938 221.980469 178.585938 C 230.199219 178.527344 237.871094 179.929688 245.96875 177.976562 C 254.25 176.023438 262.46875 174.3125 270.871094 172.847656 C 278.726562 171.503906 287.554688 170.464844 295.53125 171.566406 C 296.019531 171.625 296.261719 172.421875 295.652344 172.542969 C 291.148438 173.457031 286.460938 173.640625 281.894531 174.375 C 277.753906 175.046875 273.675781 175.71875 269.59375 176.511719 C 262.957031 177.734375 256.382812 179.199219 249.867188 180.847656 C 252.972656 181.152344 256.015625 181.640625 259.0625 181.761719 C 269.472656 180.722656 279.882812 179.871094 290.175781 178.039062 C 298.636719 176.574219 307.101562 175.351562 315.5625 174.070312 C 319.703125 173.457031 323.96875 172.480469 327.984375 171.441406 C 331.335938 170.527344 334.683594 168.878906 338.09375 168.574219 C 338.824219 168.574219 339.308594 169.613281 338.703125 170.101562 C 335.777344 172.542969 331.636719 173.703125 328.167969 175.289062 C 325 176.816406 322.019531 177.914062 318.609375 178.585938 C 318.972656 178.464844 319.277344 178.28125 319.582031 178.160156 C 314.164062 178.953125 308.804688 179.6875 303.449219 180.175781 Z M 516.796875 187.320312 C 516.492188 187.320312 516.128906 187.378906 515.824219 187.378906 C 497.921875 184.695312 478.863281 187.503906 461.574219 181.214844 C 453.109375 178.160156 444.585938 176.878906 435.757812 175.535156 C 431.25 174.863281 426.804688 173.765625 422.300781 173.03125 C 417.917969 172.296875 413.472656 172.296875 409.085938 171.75 C 408.476562 171.6875 408.355469 172.726562 408.90625 172.785156 C 426.988281 175.777344 444.890625 180.417969 462.121094 186.648438 C 467.964844 188.722656 474.296875 189.640625 480.628906 190.128906 C 480.445312 190.128906 480.324219 190.1875 480.203125 190.1875 C 471.738281 190.859375 463.640625 190.371094 455.300781 188.664062 C 447.203125 187.015625 439.226562 184.816406 431.066406 183.59375 C 422.542969 182.3125 414.203125 181.578125 405.859375 179.382812 C 397.703125 177.242188 389.601562 175.65625 381.324219 174.070312 C 373.957031 172.726562 365.855469 168.636719 358.367188 170.101562 C 350.148438 171.6875 342.71875 175.65625 334.988281 178.710938 C 330.542969 180.480469 326.21875 182.128906 321.652344 183.351562 C 317.511719 184.386719 313.617188 185.792969 310.023438 188.050781 C 306.917969 190.007812 304.179688 192.386719 301.316406 194.707031 C 303.265625 193.609375 305.152344 192.570312 307.039062 191.53125 C 311.730469 188.90625 316.476562 187.074219 321.410156 185.058594 C 326.28125 183.046875 330.664062 180.417969 335.777344 179.074219 C 341.078125 177.671875 346.433594 176.757812 351.792969 175.535156 C 352.339844 175.414062 353.011719 175.230469 353.679688 175.105469 C 355.566406 175.105469 357.515625 175.105469 359.402344 175.230469 C 367.136719 175.65625 374.078125 179.199219 381.566406 180.847656 C 390.699219 182.800781 399.832031 183.59375 408.78125 186.402344 C 418.28125 189.335938 428.207031 190.738281 437.949219 192.386719 C 448.054688 194.097656 457.917969 196.722656 468.027344 198.066406 C 478.074219 199.347656 488.421875 198.003906 498.410156 197.027344 C 504.742188 196.417969 514.421875 200.507812 519.230469 195.132812 C 520.9375 193.179688 521.546875 190.496094 521.910156 187.929688 C 521.972656 187.6875 521.972656 187.503906 522.03125 187.257812 C 520.265625 187.320312 518.5 187.257812 516.796875 187.320312 Z M 102.519531 173.03125 C 106.902344 174.679688 111.46875 175.777344 116.035156 176.757812 L 112.382812 176.757812 C 112.445312 176.757812 112.566406 176.816406 112.625 176.816406 C 116.765625 177.671875 121.273438 178.097656 125.535156 178.222656 C 126.933594 178.28125 127.117188 176.265625 125.839844 175.839844 C 122.003906 174.617188 117.921875 175.167969 114.027344 174.253906 C 110.191406 173.335938 107.027344 170.710938 103.371094 169.125 C 96.246094 166.070312 88.515625 164.238281 82.0625 159.660156 C 78.773438 157.277344 76.035156 154.226562 72.804688 151.78125 C 69.761719 149.460938 66.65625 147.445312 63.792969 144.882812 C 73.476562 157.765625 87.84375 167.414062 102.519531 173.03125 Z M 102.519531 173.03125 " fill-opacity="1" fill-rule="nonzero"/><g clip-path="url(#ac34ab30ac)"><path fill="#5f926a" d="M 280.007812 222.671875 C 282.320312 226.582031 282.746094 231.40625 281.953125 235.863281 C 281.222656 240.378906 279.335938 244.59375 277.144531 248.625 C 276.960938 248.929688 276.839844 249.234375 276.597656 249.480469 C 276.414062 249.660156 276.230469 249.84375 275.925781 249.90625 C 275.195312 250.148438 274.464844 249.722656 273.855469 249.234375 C 270.570312 246.667969 268.011719 243.128906 266.671875 239.160156 C 265.695312 236.222656 265.492188 233.304688 265.632812 230.394531 C 263.191406 234.308594 259.273438 236.976562 255.164062 239.097656 C 247.1875 243.3125 237.992188 246 229.042969 244.472656 C 228.25 244.347656 227.339844 244.042969 226.851562 243.496094 C 226.667969 243.25 226.546875 243.066406 226.484375 242.761719 C 226.363281 242.273438 226.484375 241.785156 226.667969 241.296875 C 227.945312 236.839844 229.226562 232.257812 231.296875 228.109375 C 233.367188 223.894531 236.289062 219.988281 240.1875 217.421875 C 244.144531 214.796875 248.953125 213.699219 253.703125 213.453125 C 256.746094 213.332031 259.851562 213.574219 262.894531 213.878906 C 264.175781 214.0625 266.855469 213.820312 268.074219 214.734375 C 268.195312 214.796875 268.316406 214.859375 268.375 214.980469 C 268.476562 215.101562 268.484375 215.332031 268.554688 215.492188 C 269.378906 212.917969 270.339844 213.449219 272.945312 215.40625 C 275.683594 217.484375 278.300781 219.679688 280.007812 222.671875 Z M 55.269531 102.871094 C 54.785156 103.054688 54.480469 103.605469 54.234375 104.03125 C 53.324219 105.925781 52.347656 107.757812 51.375 109.648438 C 49.914062 112.519531 48.390625 115.511719 47.84375 118.75 C 47.84375 118.808594 47.84375 118.808594 47.84375 118.871094 C 47.171875 122.777344 48.085938 126.929688 50.339844 130.167969 C 51.886719 132.464844 54.164062 134.277344 56.710938 135.507812 C 54.089844 134.574219 50.285156 134.445312 48.878906 134.5625 C 46.382812 134.746094 43.886719 135.417969 41.691406 136.640625 C 40.960938 137.003906 40.230469 137.617188 40.292969 138.410156 C 40.351562 138.898438 40.71875 139.265625 41.082031 139.570312 C 41.511719 139.9375 41.996094 140.304688 42.425781 140.609375 C 44.738281 142.316406 47.417969 143.355469 50.21875 143.417969 C 52.164062 143.476562 54.113281 143.050781 55.820312 142.074219 C 57.097656 141.402344 59.59375 139.753906 59.472656 138.042969 C 59.421875 137.0625 58.632812 136.425781 57.566406 135.90625 C 57.636719 135.925781 57.707031 135.96875 57.765625 135.96875 C 58.800781 136.457031 59.714844 136.578125 59.835938 135.113281 C 59.898438 133.28125 59.472656 131.753906 59.898438 129.863281 C 60.445312 127.601562 61.421875 125.402344 62.03125 123.144531 C 63.792969 116.488281 61.96875 108.917969 57.28125 103.789062 C 56.792969 103.238281 56 102.628906 55.269531 102.871094 Z M 433.625 155.871094 C 433.261719 155.140625 433.136719 154.347656 433.015625 153.550781 C 432.46875 150.5 432.894531 147.324219 432.042969 144.332031 C 431.128906 140.914062 428.632812 138.042969 425.710938 136.027344 C 422.785156 134.011719 419.4375 132.667969 416.089844 131.386719 C 414.992188 130.960938 413.53125 130.65625 412.863281 131.632812 C 412.558594 132.121094 412.558594 132.730469 412.558594 133.28125 C 412.558594 133.585938 412.558594 133.953125 412.617188 134.257812 C 412.679688 136.273438 412.738281 138.226562 412.800781 140.304688 C 412.863281 142.746094 412.984375 145.308594 413.835938 147.628906 C 415.113281 150.988281 418.039062 153.613281 421.265625 155.261719 C 424.492188 156.972656 428.023438 157.828125 431.554688 158.683594 C 432.347656 158.863281 433.808594 158.988281 434.355469 158.316406 C 434.597656 158.132812 434.660156 157.765625 434.597656 157.339844 C 434.539062 156.910156 433.808594 156.300781 433.625 155.871094 Z M 433.625 155.871094 " fill-opacity="1" fill-rule="nonzero"/></g><path fill="#587e60" d="M 270.441406 217.71875 C 270.113281 216.582031 269.570312 215.582031 269.148438 214.492188 C 269.0625 214.269531 269.324219 214.015625 269.546875 214.09375 C 271.574219 214.835938 271.894531 217.285156 272.429688 219.101562 C 273.253906 221.929688 274.246094 224.695312 274.773438 227.601562 C 275.28125 230.421875 275.304688 233.160156 275.066406 236.011719 C 274.8125 239.015625 274.613281 241.976562 275.558594 244.894531 C 275.675781 245.257812 275.121094 245.402344 274.996094 245.050781 C 273.164062 239.980469 274.359375 234.347656 273.484375 229.09375 C 273.03125 226.363281 272.253906 223.695312 271.414062 221.0625 C 271.0625 219.953125 270.761719 218.835938 270.441406 217.71875 Z M 432.785156 157.648438 C 432.894531 157.515625 432.9375 157.328125 432.753906 157.242188 C 431.695312 156.761719 430.765625 156.339844 429.859375 155.582031 C 428.988281 154.855469 428.1875 154.054688 427.320312 153.328125 C 425.257812 151.605469 423.304688 149.738281 422.128906 147.28125 C 420.917969 144.746094 419.972656 142.058594 418.933594 139.453125 C 417.988281 137.074219 416.609375 135.277344 414.984375 133.335938 C 414.800781 133.117188 414.417969 133.410156 414.582031 133.648438 C 415.382812 134.808594 416.242188 135.945312 416.90625 137.195312 C 417.605469 138.519531 417.953125 139.992188 418.375 141.421875 C 419.167969 144.117188 419.96875 147.117188 421.417969 149.542969 C 422.558594 151.449219 424.152344 152.824219 425.796875 154.195312 C 425.765625 154.1875 425.742188 154.171875 425.710938 154.164062 C 425.710938 154.164062 425.710938 154.164062 425.648438 154.164062 C 423.03125 153.246094 420.167969 152.699219 418.039062 150.867188 C 415.417969 148.667969 414.507812 145.125 414.019531 141.707031 C 413.835938 140.179688 413.652344 138.59375 413.347656 137.066406 C 413.167969 136.089844 412.863281 135.171875 412.617188 134.257812 C 412.679688 136.273438 412.738281 138.226562 412.800781 140.304688 C 412.863281 142.746094 412.984375 145.308594 413.835938 147.628906 C 415.113281 150.988281 418.039062 153.613281 421.265625 155.261719 C 424.492188 156.972656 428.023438 157.828125 431.554688 158.683594 C 432.347656 158.863281 433.808594 158.988281 434.355469 158.316406 C 433.8125 158.132812 433.328125 157.890625 432.785156 157.648438 Z M 57.566406 135.90625 C 57.636719 135.925781 57.707031 135.96875 57.765625 135.96875 C 57.804688 135.988281 57.597656 135.753906 57.316406 135.445312 C 57.425781 134.671875 57.183594 133.949219 56.832031 133.25 C 56.234375 132.058594 55.550781 131 55.09375 129.734375 C 54.183594 127.222656 53.453125 124.667969 53.269531 121.988281 C 53.078125 119.257812 53.464844 116.738281 54.257812 114.128906 C 54.675781 112.769531 55.074219 111.390625 55.425781 110.011719 C 55.753906 108.738281 55.507812 107.523438 55.675781 106.246094 C 55.71875 105.917969 55.179688 105.851562 55.101562 106.167969 C 54.78125 107.550781 54.851562 108.910156 54.378906 110.289062 C 53.890625 111.703125 53.382812 113.089844 52.804688 114.46875 C 51.777344 116.910156 51.339844 119.34375 51.488281 121.988281 C 51.613281 124.230469 52.117188 126.347656 52.863281 128.4375 C 52.164062 127.75 51.386719 127.117188 50.703125 126.382812 C 48.816406 124.425781 47.902344 121.617188 47.84375 118.871094 C 47.171875 122.777344 48.085938 126.929688 50.339844 130.167969 C 51.855469 132.421875 54.085938 134.191406 56.566406 135.421875 C 56.625 135.515625 56.679688 135.601562 56.734375 135.695312 C 56.761719 135.738281 56.820312 135.699219 56.859375 135.71875 C 56.621094 135.824219 56.394531 135.953125 56.207031 136.148438 C 55.472656 136.523438 54.765625 137.171875 54.136719 137.5 C 52.953125 138.117188 51.679688 138.535156 50.386719 138.835938 C 47.601562 139.484375 44.902344 138.164062 42.121094 138.203125 C 41.730469 138.207031 41.730469 138.792969 42.121094 138.8125 C 43.691406 138.886719 45.167969 139.378906 46.671875 139.785156 C 48.074219 140.160156 49.484375 140.316406 50.929688 140.144531 C 51.976562 140.019531 52.988281 139.671875 53.960938 139.246094 C 52.640625 140.570312 50.804688 141.398438 48.9375 141.644531 C 46.746094 141.890625 44.492188 141.402344 42.425781 140.609375 C 44.738281 142.316406 47.417969 143.355469 50.21875 143.417969 C 52.164062 143.476562 54.113281 143.050781 55.820312 142.074219 C 57.097656 141.402344 59.59375 139.753906 59.472656 138.042969 C 59.421875 137.0625 58.632812 136.425781 57.566406 135.90625 Z M 246.515625 228.460938 C 249.660156 225.925781 252.679688 223.109375 255.984375 220.785156 C 259.269531 218.46875 263.144531 217.175781 266.558594 215.082031 C 266.804688 214.929688 266.632812 214.589844 266.371094 214.636719 C 258.652344 215.957031 252.882812 221.226562 247.054688 225.996094 C 244.074219 228.433594 241.128906 230.882812 238.324219 233.527344 C 235.539062 236.152344 232.746094 238.691406 229.289062 240.40625 C 229 240.550781 229.207031 241.0625 229.515625 240.9375 C 236.066406 238.277344 241.097656 232.835938 246.515625 228.460938 Z M 270.082031 241.664062 C 268.375 237.753906 268.4375 233.421875 268.679688 229.207031 C 268.863281 226.949219 269.046875 224.628906 269.046875 222.367188 C 269.105469 221.453125 269.289062 219.925781 268.925781 219.007812 C 268.898438 218.953125 268.875 218.941406 268.851562 218.890625 C 269.023438 217.335938 269.03125 215.765625 268.375 214.980469 C 268.316406 214.859375 268.195312 214.796875 268.074219 214.734375 C 265.757812 219.863281 261.558594 223.957031 257.417969 227.863281 C 251.449219 233.480469 245.238281 239.28125 237.507812 241.96875 C 234.097656 243.128906 230.445312 243.675781 226.851562 243.496094 C 227.339844 244.042969 228.25 244.347656 229.042969 244.472656 C 237.992188 246 247.1875 243.3125 255.164062 239.097656 C 259.273438 236.976562 263.191406 234.308594 265.632812 230.394531 C 265.492188 233.304688 265.695312 236.226562 266.671875 239.160156 C 268.011719 243.128906 270.570312 246.667969 273.855469 249.234375 C 274.464844 249.722656 275.195312 250.148438 275.925781 249.90625 C 276.230469 249.84375 276.414062 249.660156 276.597656 249.480469 C 273.855469 247.28125 271.480469 244.777344 270.082031 241.664062 Z M 270.082031 241.664062 " fill-opacity="1" fill-rule="nonzero"/></svg>