<svg xmlns="http://www.w3.org/2000/svg" xmlns:xlink="http://www.w3.org/1999/xlink" width="500" zoomAndPan="magnify" viewBox="0 0 375 374.999991" height="500" preserveAspectRatio="xMidYMid meet" version="1.0"><defs><clipPath id="520b424737"><path d="M 0 155 L 375 155 L 375 267 L 0 267 Z M 0 155 " clip-rule="nonzero"/></clipPath><clipPath id="7aad3dbdb4"><path d="M -12.105469 194.074219 L 308.214844 -126.246094 L 628.535156 194.074219 L 308.214844 514.394531 Z M -12.105469 194.074219 " clip-rule="nonzero"/></clipPath><clipPath id="0733124a59"><path d="M -12.105469 194.074219 L 278.515625 -96.546875 L 562.773438 187.710938 L 272.152344 478.332031 Z M -12.105469 194.074219 " clip-rule="nonzero"/></clipPath><clipPath id="e96f29b093"><path d="M -12.105469 194.074219 L 308.214844 -126.246094 L 628.535156 194.074219 L 308.214844 514.394531 Z M -12.105469 194.074219 " clip-rule="nonzero"/></clipPath><clipPath id="acacd6277e"><path d="M 0 158 L 375 158 L 375 267 L 0 267 Z M 0 158 " clip-rule="nonzero"/></clipPath><clipPath id="ef580f254d"><path d="M -12.105469 194.074219 L 308.214844 -126.246094 L 628.535156 194.074219 L 308.214844 514.394531 Z M -12.105469 194.074219 " clip-rule="nonzero"/></clipPath><clipPath id="52ea094a15"><path d="M -12.105469 194.074219 L 278.515625 -96.546875 L 562.773438 187.710938 L 272.152344 478.332031 Z M -12.105469 194.074219 " clip-rule="nonzero"/></clipPath><clipPath id="33e8c7c8b2"><path d="M -12.105469 194.074219 L 308.214844 -126.246094 L 628.535156 194.074219 L 308.214844 514.394531 Z M -12.105469 194.074219 " clip-rule="nonzero"/></clipPath></defs><g clip-path="url(#520b424737)"><g clip-path="url(#7aad3dbdb4)"><g clip-path="url(#0733124a59)"><g clip-path="url(#e96f29b093)"><path fill="#a47052" d="M 615.917969 187.910156 C 611.808594 188.832031 607.058594 187.414062 602.773438 187.945312 C 597.988281 188.546875 593.277344 189.644531 588.636719 191.167969 C 579.636719 194.074219 571.09375 198.292969 562.128906 201.515625 C 557.984375 203.039062 553.734375 204.171875 549.375 205.058594 C 545.832031 204.847656 542.109375 205.238281 538.710938 205.164062 C 533.890625 205.023438 529.035156 203.5 524.359375 202.296875 C 514.96875 199.921875 505.933594 195.492188 497.820312 190.140625 C 494.097656 187.695312 490.34375 185.074219 487.222656 181.886719 C 483.148438 177.738281 480.171875 172.636719 475.886719 168.773438 C 471.242188 164.558594 465.46875 161.617188 459.726562 159.277344 C 454.695312 157.222656 447.363281 153.433594 442.1875 156.410156 C 441.335938 156.90625 440.628906 157.683594 440.273438 158.605469 C 439.671875 159.917969 439.636719 161.511719 440.453125 162.75 C 443.5 167.570312 451.257812 168.386719 456.21875 170.652344 C 461.960938 173.203125 466.992188 175.96875 471.171875 180.644531 C 475.035156 184.933594 478.578125 189.113281 483.148438 192.691406 C 485.734375 194.710938 488.394531 196.519531 491.15625 198.292969 C 491.476562 198.539062 491.832031 198.753906 492.183594 198.964844 C 487.542969 198.433594 482.902344 198.398438 478.257812 198.574219 C 467.203125 198.929688 456.148438 199.707031 445.128906 198.46875 C 434.214844 197.265625 423.550781 195.882812 412.566406 195.667969 C 401.972656 195.421875 391.304688 195.101562 380.710938 195.703125 C 369.972656 196.308594 359.734375 199.035156 349.386719 201.65625 C 338.898438 204.28125 328.515625 205.378906 317.78125 205.839844 C 312.679688 206.050781 307.433594 206.546875 302.332031 206.191406 C 297.125 205.804688 292.304688 203.675781 287.378906 202.082031 C 282.914062 200.664062 278.554688 200.347656 273.878906 200.132812 C 268.707031 199.921875 264.667969 198.007812 259.988281 196.023438 C 251.378906 192.375 242.023438 194.214844 233.058594 194.605469 C 222.960938 195.066406 212.933594 194.960938 203.046875 197.476562 C 198.40625 198.644531 193.835938 200.242188 189.335938 201.90625 C 184.65625 203.675781 179.945312 205.769531 174.878906 206.230469 C 165.59375 207.078125 157.375 204.386719 148.832031 201.089844 C 139.300781 197.441406 129.949219 195.171875 119.707031 194.996094 C 110 194.855469 100.324219 196.023438 90.617188 195.8125 C 72.472656 195.386719 52.136719 188.371094 41.964844 172.460938 C 40.585938 170.300781 39.308594 167.890625 37.21875 166.4375 C 35.199219 164.984375 31.902344 164.664062 30.378906 166.753906 C 34.027344 170.546875 40.972656 173.808594 36.898438 179.867188 C 33.886719 184.367188 25.738281 188.761719 20.492188 189.46875 C 15.640625 190.070312 10.679688 189.574219 5.789062 189.292969 C 1.109375 189.007812 -5.375 188.40625 -9.378906 191.417969 C -10.15625 191.984375 -10.476562 192.800781 -10.296875 193.542969 C -10.226562 194.324219 -9.765625 194.925781 -8.917969 195.207031 C -6.472656 195.953125 -3.53125 195.917969 -1.015625 196.164062 C 1.644531 196.484375 4.265625 196.625 6.921875 196.875 C 12.378906 197.441406 17.800781 197.902344 23.257812 197.050781 C 28.996094 196.128906 33 192.621094 37.820312 189.714844 C 39.804688 188.511719 42.675781 187.769531 45.226562 186.632812 C 46.855469 188.335938 48.699219 189.753906 50.789062 191.132812 C 58.726562 196.378906 68.117188 200.3125 77.433594 202.1875 C 95.152344 205.804688 113.257812 200.59375 130.941406 203.890625 C 139.585938 205.519531 148.195312 208.390625 156.664062 210.835938 C 165.699219 213.421875 174.347656 214.554688 183.628906 213.207031 C 188.589844 212.5 193.304688 210.765625 198.015625 209.242188 C 203.332031 207.539062 208.75 206.300781 214.316406 205.414062 C 215.695312 205.164062 217.078125 204.988281 218.53125 204.8125 C 222.925781 204.171875 227.355469 203.710938 231.75 203.359375 C 235.679688 203.039062 239.542969 202.792969 243.40625 202.542969 C 247.800781 202.261719 250.988281 203.039062 254.957031 204.882812 C 260.058594 207.21875 264.773438 209.808594 270.476562 210.339844 C 275.15625 210.765625 279.617188 210.339844 284.226562 211.683594 C 288.972656 213.101562 293.542969 215.050781 298.433594 215.832031 C 299.957031 216.078125 301.515625 216.222656 303.039062 216.328125 C 302.367188 216.503906 301.660156 216.644531 301.019531 216.859375 C 300.984375 216.824219 300.949219 216.859375 300.949219 216.859375 C 296.875 217.816406 292.835938 219.019531 288.832031 220.542969 C 283.941406 222.457031 279.511719 224.691406 275.792969 228.480469 C 272.285156 232.128906 269.839844 236.628906 266.507812 240.386719 C 259.953125 247.933594 250.28125 249.527344 241.8125 253.957031 C 237.523438 256.191406 233.625 259.734375 228.664062 260.511719 C 223.492188 261.363281 218.425781 259.554688 213.605469 262.179688 C 212.257812 262.886719 212.753906 265.296875 214.386719 265.15625 C 218.140625 264.800781 221.757812 265.933594 225.40625 266.324219 C 225.40625 266.324219 225.476562 266.324219 225.511719 266.289062 C 226.21875 266.359375 226.964844 266.464844 227.707031 266.429688 C 231.925781 266.394531 235.574219 265.082031 239.1875 262.957031 C 243.371094 260.546875 247.445312 258.386719 252.015625 256.722656 C 256.054688 255.234375 260.203125 253.851562 263.957031 251.65625 C 268.316406 249.066406 271.859375 245.59375 275.226562 241.945312 C 278.484375 238.402344 281.425781 234.609375 285.644531 232.238281 C 290.53125 229.472656 296.273438 228.054688 301.625 226.53125 C 307.042969 224.9375 312.535156 223.554688 317.992188 222.210938 C 325.363281 220.4375 332.203125 217.140625 339.148438 214.238281 C 347.4375 212.820312 355.519531 210.691406 363.773438 208.886719 C 374.476562 206.476562 385.035156 206.121094 395.949219 206.191406 C 406.933594 206.191406 418.09375 206.230469 428.972656 207.753906 C 439.921875 209.277344 450.445312 211.296875 461.570312 211.152344 C 471.953125 210.976562 483.363281 208.921875 493.53125 211.226562 C 498.703125 212.359375 503.558594 214.519531 508.554688 216.183594 C 513.800781 217.886719 519.113281 218.878906 524.570312 219.234375 C 535.308594 219.90625 547 218.417969 557.382812 215.617188 C 567.695312 212.820312 577.261719 208 587.21875 204.351562 C 592.390625 202.4375 597.707031 200.738281 603.128906 199.921875 C 608.441406 199.140625 613.722656 200.738281 618.929688 199.496094 C 624.035156 198.292969 624.316406 192.691406 621.660156 189.679688 C 620.382812 188.191406 618.398438 187.34375 615.917969 187.910156 Z M 615.917969 187.910156 " fill-opacity="1" fill-rule="nonzero"/></g></g></g></g><g clip-path="url(#acacd6277e)"><g clip-path="url(#ef580f254d)"><g clip-path="url(#52ea094a15)"><g clip-path="url(#33e8c7c8b2)"><path fill="#7f4c38" d="M 183.628906 213.207031 C 188.589844 212.5 193.304688 210.765625 198.015625 209.242188 C 203.332031 207.539062 208.75 206.300781 214.316406 205.414062 C 215.695312 205.164062 217.078125 204.988281 218.53125 204.8125 C 220.125 204.351562 221.683594 203.925781 223.316406 203.570312 C 226.148438 202.933594 228.949219 202.96875 231.75 203.359375 C 235.679688 203.039062 239.542969 202.792969 243.40625 202.542969 C 247.800781 202.261719 250.988281 203.039062 254.957031 204.882812 C 260.058594 207.21875 264.773438 209.808594 270.476562 210.339844 C 275.15625 210.765625 279.617188 210.339844 284.226562 211.683594 C 288.972656 213.101562 293.542969 215.050781 298.433594 215.832031 C 299.957031 216.078125 301.515625 216.222656 303.039062 216.328125 C 302.367188 216.503906 301.660156 216.644531 301.019531 216.859375 L 302.082031 216.859375 C 304.882812 216.753906 307.433594 215.761719 310.054688 214.910156 C 310.15625 214.882812 310.207031 214.808594 310.28125 214.757812 C 310.492188 214.730469 310.707031 214.769531 310.917969 214.730469 C 312.566406 214.429688 314.152344 213.863281 315.710938 213.257812 C 317.484375 212.574219 319.304688 211.996094 321.1875 211.695312 C 321.898438 211.582031 321.746094 210.390625 321.027344 210.445312 C 319.234375 210.570312 317.507812 211.011719 315.746094 211.316406 C 314.078125 211.605469 312.402344 211.832031 310.738281 212.144531 C 309.238281 212.425781 307.78125 212.066406 306.289062 211.863281 C 305.34375 211.734375 304.390625 211.703125 303.441406 211.621094 C 302.398438 211.53125 301.351562 211.316406 300.308594 211.421875 C 300.167969 211.4375 300.09375 211.527344 300.03125 211.617188 C 299.066406 211.132812 298.113281 210.625 297.09375 210.230469 C 294.152344 209.09375 291.054688 208.3125 287.96875 207.6875 C 284.949219 207.078125 281.894531 206.734375 278.855469 206.230469 C 276.988281 205.917969 274.949219 205.691406 273.023438 205.234375 C 271.835938 204.613281 270.625 204.039062 269.34375 203.605469 C 264.453125 201.976562 258.890625 201.445312 253.71875 200.949219 C 245.140625 200.167969 236.78125 196.980469 228.0625 197.40625 C 226.925781 197.457031 225.796875 197.585938 224.675781 197.746094 C 223.292969 197.535156 221.90625 197.398438 220.65625 197.308594 C 216.703125 197.019531 212.496094 197.554688 208.660156 198.535156 C 206.703125 199.035156 204.753906 199.625 202.898438 200.425781 C 200.777344 201.339844 198.777344 202.480469 196.578125 203.210938 C 194.488281 203.90625 192.304688 204.207031 190.164062 204.707031 C 187.964844 205.21875 185.800781 205.871094 183.59375 206.351562 C 183.074219 206.464844 183.167969 207.355469 183.71875 207.292969 C 185.566406 207.082031 187.394531 206.757812 189.226562 206.449219 C 191.335938 206.097656 193.488281 206.160156 195.578125 205.746094 C 199.585938 204.953125 203.136719 202.78125 207.019531 201.605469 C 210.03125 200.695312 213.101562 200.257812 216.191406 199.816406 C 210.617188 201.625 205.171875 204.0625 199.714844 205.839844 C 193.976562 207.679688 188.058594 208.636719 182.210938 209.878906 C 179.269531 210.480469 176.257812 211.507812 173.210938 211.4375 C 171.261719 211.402344 169.386719 211.082031 167.4375 210.765625 C 164.175781 209.773438 160.988281 208.636719 157.65625 207.859375 C 153.828125 207.007812 149.96875 206.40625 146.140625 205.484375 C 137.992188 203.570312 130.054688 201.089844 121.902344 199.390625 C 121.792969 199.367188 121.6875 199.367188 121.578125 199.347656 C 124.773438 199.660156 127.953125 200.109375 131.058594 200.839844 C 133.296875 201.367188 135.453125 202.199219 137.699219 202.664062 C 138.664062 202.863281 139.644531 203.128906 140.625 203.21875 C 141.71875 203.316406 142.761719 203.160156 143.828125 203.519531 C 144.152344 203.628906 144.359375 203.121094 144.054688 202.960938 C 142.472656 202.136719 140.429688 202.183594 138.707031 201.714844 C 136.457031 201.105469 134.371094 200.152344 132.175781 199.398438 C 127.550781 197.808594 122.847656 197.570312 118 197.253906 C 115.6875 197.101562 113.332031 197.105469 111.003906 197.03125 C 108.792969 196.964844 106.414062 196.597656 104.21875 196.921875 C 101.523438 197.320312 98.769531 197.480469 96.035156 197.527344 C 93.496094 197.574219 90.921875 197.84375 88.382812 197.746094 C 88.011719 197.734375 87.929688 198.320312 88.300781 198.402344 C 90.476562 198.871094 92.644531 198.695312 94.855469 198.710938 C 97.449219 198.734375 100.078125 198.753906 102.667969 198.566406 C 105.011719 198.394531 107.164062 198.402344 109.519531 198.550781 C 110.472656 198.613281 111.414062 198.652344 112.359375 198.71875 C 109.140625 198.847656 105.925781 199.210938 102.59375 199.425781 C 99.261719 199.636719 96.039062 199.25 92.777344 199.390625 C 90.097656 199.554688 87.472656 199.933594 84.820312 200.078125 C 83.363281 199.890625 81.894531 199.742188 80.460938 199.507812 C 78.320312 199.160156 76.191406 198.847656 74.046875 198.539062 C 72.039062 198.25 70.128906 197.511719 68.167969 197.015625 C 67.347656 196.808594 66.542969 196.578125 65.730469 196.367188 C 65.722656 196.3125 65.703125 196.261719 65.628906 196.226562 C 63.414062 195.125 61.035156 194.414062 58.84375 193.207031 C 56.472656 191.90625 54.921875 189.769531 52.761719 188.191406 C 50.480469 186.519531 47.828125 185.527344 45.757812 183.558594 C 43.800781 181.691406 42.148438 180.097656 39.53125 179.195312 C 39.046875 179.03125 38.652344 179.730469 39.03125 180.0625 C 40.027344 180.9375 41.207031 181.589844 42.175781 182.5 C 42.636719 182.9375 43.050781 183.410156 43.472656 183.882812 C 39.285156 183.625 34.9375 186.460938 31.050781 188.050781 C 28.394531 189.15625 25.789062 190.195312 23.1875 191.167969 C 22.472656 191.070312 21.730469 191.148438 21.023438 191.234375 C 20.046875 191.355469 19.078125 191.515625 18.113281 191.703125 C 16.191406 192.074219 14.25 192.398438 12.289062 192.4375 C 8.054688 192.523438 3.796875 191.882812 -0.292969 190.820312 C -0.890625 190.667969 -1.09375 191.523438 -0.53125 191.730469 C 3.492188 193.203125 7.859375 194.152344 12.148438 194.296875 C 12.269531 194.300781 12.394531 194.273438 12.515625 194.277344 C 10.671875 194.625 8.804688 194.914062 6.851562 195.03125 C 3.058594 195.28125 -0.695312 195.28125 -4.488281 194.820312 C -6.4375 194.570312 -8.347656 193.933594 -10.296875 193.542969 C -10.226562 194.324219 -9.765625 194.925781 -8.917969 195.207031 C -6.472656 195.953125 -3.53125 195.917969 -1.015625 196.164062 C 1.644531 196.484375 4.265625 196.625 6.921875 196.875 C 12.378906 197.441406 17.800781 197.902344 23.257812 197.050781 C 28.996094 196.128906 33 192.621094 37.820312 189.714844 C 39.804688 188.511719 42.675781 187.769531 45.226562 186.632812 C 46.855469 188.335938 48.699219 189.753906 50.789062 191.132812 C 58.726562 196.378906 68.117188 200.3125 77.433594 202.1875 C 95.152344 205.804688 113.257812 200.59375 130.941406 203.890625 C 139.585938 205.519531 148.195312 208.390625 156.664062 210.835938 C 165.699219 213.421875 174.347656 214.554688 183.628906 213.207031 Z M 286.882812 209.636719 C 287.980469 209.867188 289.042969 210.230469 290.128906 210.503906 C 287.742188 210.535156 285.34375 210.601562 282.949219 209.984375 C 280.976562 209.488281 279.1875 208.597656 277.425781 207.640625 C 280.558594 208.449219 283.722656 208.96875 286.882812 209.636719 Z M 621.660156 189.679688 C 624.316406 192.691406 624.03125 198.292969 618.929688 199.496094 C 613.722656 200.738281 608.441406 199.140625 603.128906 199.921875 C 597.707031 200.734375 592.390625 202.4375 587.21875 204.351562 C 577.261719 208 567.695312 212.820312 557.382812 215.617188 C 547 218.417969 535.308594 219.90625 524.570312 219.234375 C 519.113281 218.878906 513.800781 217.886719 508.554688 216.183594 C 503.558594 214.519531 498.703125 212.359375 493.53125 211.226562 C 483.363281 208.921875 471.953125 210.976562 461.570312 211.152344 C 450.445312 211.296875 439.921875 209.277344 428.972656 207.753906 C 418.09375 206.230469 406.933594 206.191406 395.949219 206.191406 C 385.035156 206.121094 374.472656 206.476562 363.773438 208.886719 C 355.519531 210.691406 347.4375 212.820312 339.148438 214.238281 C 332.203125 217.140625 325.363281 220.4375 317.992188 222.210938 C 312.535156 223.554688 307.042969 224.9375 301.625 226.53125 C 296.273438 228.054688 290.53125 229.472656 285.644531 232.238281 C 281.425781 234.609375 278.484375 238.402344 275.226562 241.945312 C 271.859375 245.59375 268.316406 249.066406 263.957031 251.65625 C 260.203125 253.851562 256.054688 255.234375 252.015625 256.722656 C 247.445312 258.386719 243.371094 260.546875 239.1875 262.957031 C 235.574219 265.082031 231.925781 266.394531 227.707031 266.429688 C 226.964844 266.464844 226.21875 266.359375 225.511719 266.289062 C 227.035156 266.253906 228.59375 266.324219 230.082031 266.183594 C 233.058594 265.898438 235.398438 263.984375 237.664062 262.144531 C 239.792969 260.371094 241.953125 258.707031 244.257812 257.039062 C 246.382812 255.480469 248.367188 253.710938 250.953125 252.824219 C 253.574219 251.902344 256.304688 251.726562 258.820312 250.484375 C 262.269531 248.773438 265.214844 246.152344 268.015625 243.429688 C 269.613281 241.261719 271.339844 239.210938 273.191406 237.210938 C 275.535156 234.679688 277.667969 232.054688 280.417969 229.925781 C 283.128906 227.824219 286.121094 226.601562 289.179688 225.117188 C 291 224.234375 292.753906 223.195312 294.625 222.417969 C 296.496094 221.644531 298.425781 221.046875 300.269531 220.199219 C 300.835938 219.941406 301.320312 220.757812 300.753906 221.050781 C 297.402344 222.792969 293.898438 224.226562 290.53125 225.957031 C 287.324219 227.601562 284.296875 228.925781 281.582031 231.292969 C 282.15625 230.917969 282.707031 230.511719 283.304688 230.179688 C 287.910156 227.628906 293.011719 227.628906 297.726562 225.679688 C 303.183594 223.414062 308.355469 220.578125 313.953125 218.453125 C 319.304688 216.433594 324.40625 213.953125 329.6875 211.578125 C 334.324219 209.527344 338.585938 208.644531 343.546875 208.332031 C 344.039062 208.132812 344.527344 207.933594 345.027344 207.753906 C 346.664062 207.171875 348.320312 206.851562 350.011719 206.484375 C 351.734375 206.109375 353.429688 205.539062 355.179688 205.316406 C 356.902344 205.09375 358.648438 204.960938 360.382812 204.859375 C 363.714844 204.667969 367.050781 204.058594 370.386719 204.011719 C 371.125 204 371.109375 205.097656 370.386719 205.148438 C 366.84375 205.398438 363.296875 206.4375 359.785156 206.992188 C 359.222656 207.082031 358.679688 207.246094 358.125 207.359375 C 358.421875 207.347656 358.730469 207.351562 359.027344 207.328125 C 365.296875 206.9375 371.640625 205.554688 377.910156 204.742188 C 383.332031 203.996094 388.683594 203.109375 394.105469 202.4375 C 399.492188 201.800781 404.910156 201.621094 410.332031 201.160156 C 421.460938 200.242188 432.054688 203.253906 443.074219 204.207031 C 448.742188 204.703125 454.414062 204.988281 460.046875 205.660156 C 465.398438 206.335938 470.675781 207.714844 476.097656 208.105469 C 478.402344 208.285156 480.738281 208.210938 483.113281 208.175781 C 483.953125 207.882812 484.800781 207.574219 485.664062 207.285156 C 484.464844 207.035156 483.273438 206.78125 482.097656 206.535156 C 479.335938 205.964844 476.691406 205.3125 473.878906 205.007812 C 471.875 204.785156 469.984375 204.476562 468.128906 203.648438 C 467.777344 203.496094 468.023438 202.9375 468.375 203.039062 C 470.953125 203.789062 473.363281 203.523438 475.984375 203.371094 C 478.550781 203.21875 481.238281 203.210938 483.796875 203.414062 C 488.894531 203.820312 493.871094 205.039062 498.992188 205.265625 C 504.035156 205.492188 509.015625 206.328125 513.898438 207.621094 C 516.335938 208.269531 518.796875 208.691406 521.242188 209.28125 C 523.664062 209.863281 525.996094 209.285156 528.40625 209.601562 C 528.808594 209.65625 528.722656 210.21875 528.410156 210.320312 C 523.722656 211.867188 518.816406 210.878906 514.082031 210.042969 C 511.269531 209.542969 508.371094 209.015625 505.519531 208.875 C 504.535156 208.828125 503.554688 208.882812 502.578125 208.921875 C 508.171875 211.382812 513.152344 213.25 519.328125 213.632812 C 521.914062 213.8125 524.535156 213.953125 527.121094 214.414062 C 529.53125 214.839844 531.765625 215.652344 534.210938 215.832031 C 539.488281 216.292969 544.449219 214.449219 549.304688 212.359375 C 555.007812 209.914062 560.785156 207.609375 566.632812 205.378906 C 572.265625 203.214844 577.792969 200.808594 583.496094 198.789062 C 587.441406 197.339844 591.300781 196.671875 595.304688 196.378906 C 593.859375 196.277344 592.417969 196.175781 590.957031 196.265625 C 587.125 196.496094 583.359375 197.410156 579.628906 198.257812 C 579.097656 198.378906 578.714844 197.566406 579.253906 197.339844 C 582.597656 195.941406 585.953125 194.492188 589.496094 193.679688 C 593.003906 192.878906 596.484375 192.914062 600.035156 193.390625 C 603.605469 193.871094 607.101562 195.15625 610.742188 194.667969 C 614.246094 194.195312 616.964844 191.433594 620.429688 191.105469 C 620.460938 191.101562 620.484375 191.125 620.511719 191.125 C 620.898438 190.644531 621.296875 190.175781 621.660156 189.679688 Z M 456.21875 170.652344 C 451.257812 168.386719 443.5 167.570312 440.453125 162.75 C 439.636719 161.511719 439.671875 159.917969 440.273438 158.605469 C 442.472656 159.8125 445.128906 160.695312 447.289062 161.582031 C 450.410156 162.929688 453.457031 164.488281 456.609375 165.800781 C 462.882812 168.316406 469.082031 170.40625 473.441406 175.828125 C 475.601562 178.554688 477.515625 181.460938 480.066406 183.800781 C 482.371094 185.890625 484.992188 187.378906 487.4375 189.257812 C 490.023438 191.277344 492.433594 193.261719 495.480469 194.675781 C 496.710938 195.257812 497.941406 195.898438 499.128906 196.605469 C 500.28125 196.988281 501.441406 197.347656 502.558594 197.816406 C 505.5 199.054688 508.175781 201.171875 511.421875 201.601562 C 512.230469 201.707031 511.933594 202.84375 511.25 202.910156 C 509.582031 203.074219 507.960938 202.707031 506.375 202.210938 C 504.84375 201.730469 503.449219 200.988281 501.964844 200.414062 C 498.0625 200.609375 494.523438 199.714844 491.15625 198.292969 C 488.394531 196.519531 485.734375 194.710938 483.148438 192.691406 C 478.578125 189.113281 475.035156 184.933594 471.171875 180.644531 C 466.992188 175.96875 461.960938 173.203125 456.21875 170.652344 Z M 456.21875 170.652344 " fill-opacity="1" fill-rule="nonzero"/></g></g></g></g></svg>