<svg xmlns="http://www.w3.org/2000/svg" xmlns:xlink="http://www.w3.org/1999/xlink" width="500" zoomAndPan="magnify" viewBox="0 0 375 374.999991" height="500" preserveAspectRatio="xMidYMid meet" version="1.0"><defs><clipPath id="1395daa15f"><path d="M 0 148 L 375 148 L 375 260 L 0 260 Z M 0 148 " clip-rule="nonzero"/></clipPath><clipPath id="125619c7e9"><path d="M -218.421875 187.5 L 101.898438 -132.820312 L 422.214844 187.5 L 101.898438 507.816406 Z M -218.421875 187.5 " clip-rule="nonzero"/></clipPath><clipPath id="516f183c35"><path d="M -187.664062 187.5 L 117.277344 -117.441406 L 422.214844 187.5 L 117.277344 492.4375 Z M -187.664062 187.5 " clip-rule="nonzero"/></clipPath><clipPath id="d72fd4e903"><path d="M -218.414062 187.5 L 101.90625 -132.820312 L 422.226562 187.5 L 101.90625 507.816406 Z M -218.414062 187.5 " clip-rule="nonzero"/></clipPath><clipPath id="aa203eb7dd"><path d="M 0 152 L 375 152 L 375 260 L 0 260 Z M 0 152 " clip-rule="nonzero"/></clipPath><clipPath id="73c51f7e31"><path d="M -218.421875 187.5 L 101.898438 -132.820312 L 422.214844 187.5 L 101.898438 507.816406 Z M -218.421875 187.5 " clip-rule="nonzero"/></clipPath><clipPath id="e18675ed8d"><path d="M -187.664062 187.5 L 117.277344 -117.441406 L 422.214844 187.5 L 117.277344 492.4375 Z M -187.664062 187.5 " clip-rule="nonzero"/></clipPath><clipPath id="7897e2cbf3"><path d="M -218.414062 187.5 L 101.90625 -132.820312 L 422.226562 187.5 L 101.90625 507.816406 Z M -218.414062 187.5 " clip-rule="nonzero"/></clipPath></defs><g clip-path="url(#1395daa15f)"><g clip-path="url(#125619c7e9)"><g clip-path="url(#516f183c35)"><g clip-path="url(#d72fd4e903)"><path fill="#a47052" d="M 409.613281 181.332031 C 405.5 182.253906 400.753906 180.835938 396.464844 181.367188 C 391.683594 181.972656 386.96875 183.070312 382.328125 184.59375 C 373.328125 187.5 364.789062 191.714844 355.824219 194.941406 C 351.675781 196.464844 347.425781 197.597656 343.066406 198.484375 C 339.523438 198.269531 335.804688 198.660156 332.402344 198.589844 C 327.582031 198.449219 322.730469 196.925781 318.050781 195.71875 C 308.660156 193.34375 299.625 188.917969 291.511719 183.566406 C 287.792969 181.121094 284.035156 178.5 280.917969 175.308594 C 276.84375 171.164062 273.867188 166.0625 269.578125 162.199219 C 264.9375 157.984375 259.160156 155.042969 253.421875 152.703125 C 248.390625 150.648438 241.054688 146.855469 235.882812 149.832031 C 235.03125 150.328125 234.320312 151.109375 233.96875 152.03125 C 233.363281 153.339844 233.328125 154.933594 234.144531 156.175781 C 237.191406 160.996094 244.953125 161.808594 249.914062 164.078125 C 255.652344 166.628906 260.683594 169.390625 264.867188 174.070312 C 268.726562 178.355469 272.269531 182.539062 276.84375 186.117188 C 279.429688 188.136719 282.085938 189.945312 284.851562 191.714844 C 285.167969 191.964844 285.523438 192.175781 285.878906 192.390625 C 281.234375 191.855469 276.59375 191.820312 271.953125 192 C 260.898438 192.351562 249.839844 193.132812 238.820312 191.894531 C 227.910156 190.6875 217.242188 189.304688 206.257812 189.09375 C 195.664062 188.84375 185 188.527344 174.402344 189.128906 C 163.667969 189.730469 153.425781 192.460938 143.082031 195.082031 C 132.59375 197.703125 122.210938 198.800781 111.472656 199.261719 C 106.371094 199.476562 101.128906 199.972656 96.023438 199.617188 C 90.816406 199.226562 85.996094 197.101562 81.070312 195.507812 C 76.605469 194.089844 72.25 193.769531 67.570312 193.558594 C 62.398438 193.34375 58.359375 191.433594 53.679688 189.449219 C 45.070312 185.796875 35.714844 187.640625 26.753906 188.03125 C 16.652344 188.492188 6.625 188.382812 -3.261719 190.902344 C -7.902344 192.070312 -12.472656 193.664062 -16.972656 195.328125 C -21.648438 197.101562 -26.363281 199.191406 -31.429688 199.652344 C -40.714844 200.503906 -48.933594 197.808594 -57.472656 194.515625 C -67.003906 190.863281 -76.359375 188.597656 -86.601562 188.421875 C -96.308594 188.277344 -105.980469 189.449219 -115.691406 189.234375 C -133.832031 188.808594 -154.171875 181.792969 -164.339844 165.882812 C -165.722656 163.722656 -167 161.3125 -169.089844 159.859375 C -171.109375 158.40625 -174.402344 158.089844 -175.929688 160.179688 C -172.277344 163.972656 -165.332031 167.230469 -169.40625 173.289062 C -172.417969 177.789062 -180.570312 182.183594 -185.8125 182.894531 C -190.667969 183.496094 -195.628906 183 -200.519531 182.714844 C -205.195312 182.433594 -211.679688 181.828125 -215.683594 184.839844 C -216.464844 185.410156 -216.78125 186.222656 -216.605469 186.96875 C -216.535156 187.746094 -216.074219 188.347656 -215.222656 188.632812 C -212.777344 189.375 -209.835938 189.339844 -207.320312 189.589844 C -204.664062 189.910156 -202.042969 190.050781 -199.386719 190.296875 C -193.929688 190.863281 -188.507812 191.324219 -183.050781 190.476562 C -177.308594 189.554688 -173.304688 186.046875 -168.488281 183.140625 C -166.503906 181.9375 -163.632812 181.191406 -161.082031 180.058594 C -159.453125 181.757812 -157.609375 183.175781 -155.519531 184.558594 C -147.582031 189.800781 -138.191406 193.734375 -128.871094 195.613281 C -111.15625 199.226562 -93.046875 194.019531 -75.367188 197.3125 C -66.722656 198.945312 -58.109375 201.8125 -49.644531 204.257812 C -40.605469 206.84375 -31.960938 207.980469 -22.679688 206.632812 C -17.71875 205.925781 -13.003906 204.1875 -8.292969 202.664062 C -2.976562 200.964844 2.445312 199.722656 8.007812 198.835938 C 9.390625 198.589844 10.773438 198.414062 12.222656 198.234375 C 16.617188 197.597656 21.046875 197.136719 25.441406 196.78125 C 29.375 196.464844 33.238281 196.214844 37.097656 195.96875 C 41.492188 195.683594 44.679688 196.464844 48.648438 198.304688 C 53.753906 200.644531 58.464844 203.230469 64.167969 203.761719 C 68.847656 204.1875 73.3125 203.761719 77.917969 205.109375 C 82.667969 206.527344 87.238281 208.476562 92.125 209.253906 C 93.652344 209.503906 95.210938 209.644531 96.734375 209.75 C 96.058594 209.929688 95.351562 210.070312 94.714844 210.28125 C 94.679688 210.246094 94.644531 210.28125 94.644531 210.28125 C 90.566406 211.238281 86.527344 212.445312 82.523438 213.96875 C 77.632812 215.882812 73.207031 218.113281 69.484375 221.90625 C 65.976562 225.554688 63.53125 230.054688 60.203125 233.8125 C 53.644531 241.359375 43.972656 242.953125 35.503906 247.382812 C 31.214844 249.613281 27.320312 253.15625 22.359375 253.9375 C 17.183594 254.789062 12.117188 252.980469 7.300781 255.601562 C 5.953125 256.3125 6.449219 258.71875 8.078125 258.578125 C 11.835938 258.222656 15.449219 259.359375 19.097656 259.746094 C 19.097656 259.746094 19.167969 259.746094 19.203125 259.710938 C 19.914062 259.785156 20.65625 259.890625 21.402344 259.855469 C 25.617188 259.820312 29.269531 258.507812 32.882812 256.382812 C 37.0625 253.972656 41.136719 251.8125 45.710938 250.144531 C 49.75 248.65625 53.894531 247.273438 57.648438 245.078125 C 62.007812 242.492188 65.550781 239.019531 68.917969 235.371094 C 72.179688 231.828125 75.117188 228.035156 79.335938 225.660156 C 84.226562 222.898438 89.964844 221.480469 95.316406 219.957031 C 100.738281 218.363281 106.230469 216.980469 111.6875 215.632812 C 119.054688 213.863281 125.894531 210.566406 132.839844 207.660156 C 141.132812 206.242188 149.210938 204.117188 157.464844 202.308594 C 168.167969 199.902344 178.726562 199.546875 189.640625 199.617188 C 200.625 199.617188 211.785156 199.652344 222.664062 201.175781 C 233.613281 202.699219 244.136719 204.71875 255.261719 204.578125 C 265.644531 204.402344 277.054688 202.34375 287.222656 204.648438 C 292.398438 205.78125 297.25 207.945312 302.246094 209.609375 C 307.492188 211.308594 312.808594 212.300781 318.265625 212.65625 C 329 213.328125 340.691406 211.84375 351.074219 209.042969 C 361.386719 206.242188 370.953125 201.425781 380.910156 197.773438 C 386.082031 195.859375 391.398438 194.160156 396.820312 193.34375 C 402.136719 192.566406 407.414062 194.160156 412.625 192.921875 C 417.726562 191.714844 418.007812 186.117188 415.351562 183.105469 C 414.078125 181.617188 412.09375 180.765625 409.613281 181.332031 Z M 409.613281 181.332031 " fill-opacity="1" fill-rule="nonzero"/></g></g></g></g><g clip-path="url(#aa203eb7dd)"><g clip-path="url(#73c51f7e31)"><g clip-path="url(#e18675ed8d)"><g clip-path="url(#7897e2cbf3)"><path fill="#7f4c38" d="M -22.679688 206.632812 C -17.71875 205.925781 -13.003906 204.1875 -8.292969 202.664062 C -2.976562 200.964844 2.445312 199.722656 8.007812 198.835938 C 9.390625 198.589844 10.773438 198.414062 12.222656 198.234375 C 13.820312 197.773438 15.378906 197.347656 17.007812 196.996094 C 19.84375 196.355469 22.640625 196.394531 25.441406 196.78125 C 29.375 196.464844 33.238281 196.214844 37.097656 195.96875 C 41.492188 195.683594 44.679688 196.464844 48.648438 198.304688 C 53.753906 200.644531 58.464844 203.230469 64.167969 203.761719 C 68.847656 204.1875 73.3125 203.761719 77.917969 205.109375 C 82.667969 206.527344 87.238281 208.476562 92.125 209.253906 C 93.652344 209.503906 95.210938 209.644531 96.734375 209.75 C 96.058594 209.929688 95.351562 210.070312 94.714844 210.28125 L 95.777344 210.28125 C 98.574219 210.175781 101.128906 209.183594 103.75 208.332031 C 103.847656 208.308594 103.898438 208.234375 103.972656 208.179688 C 104.1875 208.15625 104.402344 208.195312 104.609375 208.15625 C 106.257812 207.855469 107.84375 207.285156 109.402344 206.683594 C 111.175781 206 113 205.421875 114.882812 205.121094 C 115.589844 205.003906 115.4375 203.816406 114.71875 203.867188 C 112.925781 203.996094 111.203125 204.4375 109.4375 204.742188 C 107.769531 205.027344 106.09375 205.257812 104.433594 205.570312 C 102.929688 205.851562 101.472656 205.488281 99.980469 205.285156 C 99.035156 205.160156 98.085938 205.125 97.136719 205.046875 C 96.09375 204.957031 95.042969 204.742188 94 204.847656 C 93.859375 204.859375 93.785156 204.949219 93.722656 205.042969 C 92.757812 204.554688 91.804688 204.050781 90.785156 203.65625 C 87.847656 202.519531 84.75 201.734375 81.664062 201.113281 C 78.640625 200.5 75.585938 200.15625 72.546875 199.652344 C 70.683594 199.34375 68.644531 199.113281 66.714844 198.65625 C 65.53125 198.035156 64.316406 197.464844 63.035156 197.03125 C 58.144531 195.402344 52.582031 194.867188 47.410156 194.375 C 38.835938 193.59375 30.472656 190.40625 21.757812 190.828125 C 20.617188 190.882812 19.492188 191.007812 18.367188 191.171875 C 16.984375 190.960938 15.597656 190.820312 14.347656 190.730469 C 10.398438 190.445312 6.191406 190.976562 2.355469 191.957031 C 0.394531 192.457031 -1.550781 193.050781 -3.410156 193.847656 C -5.53125 194.761719 -7.527344 195.902344 -9.730469 196.636719 C -11.820312 197.332031 -14.003906 197.632812 -16.140625 198.128906 C -18.339844 198.644531 -20.503906 199.292969 -22.710938 199.773438 C -23.234375 199.886719 -23.136719 200.78125 -22.589844 200.71875 C -20.742188 200.503906 -18.914062 200.179688 -17.078125 199.875 C -14.972656 199.523438 -12.820312 199.585938 -10.730469 199.171875 C -6.722656 198.378906 -3.171875 196.203125 0.714844 195.027344 C 3.722656 194.117188 6.796875 193.683594 9.882812 193.242188 C 4.308594 195.050781 -1.136719 197.488281 -6.589844 199.261719 C -12.332031 201.105469 -18.25 202.0625 -24.09375 203.300781 C -27.035156 203.90625 -30.046875 204.933594 -33.09375 204.863281 C -35.042969 204.824219 -36.921875 204.507812 -38.871094 204.1875 C -42.128906 203.195312 -45.320312 202.0625 -48.652344 201.28125 C -52.476562 200.433594 -56.339844 199.828125 -60.167969 198.910156 C -68.316406 196.996094 -76.253906 194.515625 -84.402344 192.8125 C -84.511719 192.789062 -84.617188 192.792969 -84.726562 192.769531 C -81.535156 193.082031 -78.355469 193.535156 -75.25 194.265625 C -73.007812 194.792969 -70.851562 195.621094 -68.605469 196.085938 C -67.640625 196.285156 -66.664062 196.554688 -65.679688 196.644531 C -64.589844 196.742188 -63.542969 196.585938 -62.480469 196.941406 C -62.152344 197.050781 -61.949219 196.542969 -62.253906 196.386719 C -63.835938 195.558594 -65.878906 195.605469 -67.601562 195.140625 C -69.851562 194.53125 -71.933594 193.578125 -74.132812 192.820312 C -78.757812 191.230469 -83.460938 190.996094 -88.308594 190.679688 C -90.621094 190.527344 -92.976562 190.527344 -95.300781 190.457031 C -97.515625 190.386719 -99.894531 190.019531 -102.085938 190.34375 C -104.785156 190.746094 -107.539062 190.90625 -110.269531 190.953125 C -112.8125 190.996094 -115.386719 191.269531 -117.921875 191.171875 C -118.296875 191.15625 -118.378906 191.746094 -118.007812 191.824219 C -115.828125 192.296875 -113.664062 192.117188 -111.449219 192.136719 C -108.859375 192.160156 -106.226562 192.179688 -103.640625 191.992188 C -101.296875 191.820312 -99.144531 191.828125 -96.789062 191.976562 C -95.835938 192.035156 -94.894531 192.074219 -93.949219 192.140625 C -97.164062 192.269531 -100.382812 192.632812 -103.714844 192.847656 C -107.046875 193.0625 -110.269531 192.671875 -113.527344 192.8125 C -116.210938 192.976562 -118.835938 193.359375 -121.488281 193.503906 C -122.945312 193.3125 -124.414062 193.167969 -125.847656 192.933594 C -127.988281 192.585938 -130.117188 192.269531 -132.261719 191.960938 C -134.269531 191.671875 -136.175781 190.9375 -138.136719 190.441406 C -138.957031 190.234375 -139.765625 190.003906 -140.578125 189.792969 C -140.585938 189.738281 -140.601562 189.683594 -140.675781 189.648438 C -142.894531 188.550781 -145.273438 187.839844 -147.464844 186.632812 C -149.835938 185.328125 -151.386719 183.191406 -153.542969 181.613281 C -155.828125 179.945312 -158.480469 178.953125 -160.550781 176.980469 C -162.507812 175.117188 -164.160156 173.519531 -166.777344 172.621094 C -167.257812 172.453125 -167.65625 173.15625 -167.277344 173.488281 C -166.277344 174.363281 -165.101562 175.011719 -164.132812 175.925781 C -163.671875 176.359375 -163.253906 176.835938 -162.835938 177.308594 C -167.023438 177.050781 -171.367188 179.882812 -175.253906 181.476562 C -177.914062 182.582031 -180.515625 183.621094 -183.121094 184.59375 C -183.832031 184.496094 -184.574219 184.570312 -185.28125 184.65625 C -186.257812 184.777344 -187.226562 184.9375 -188.191406 185.125 C -190.113281 185.496094 -192.054688 185.820312 -194.015625 185.859375 C -198.25 185.945312 -202.511719 185.308594 -206.601562 184.246094 C -207.195312 184.089844 -207.398438 184.949219 -206.839844 185.152344 C -202.816406 186.625 -198.449219 187.578125 -194.160156 187.71875 C -194.035156 187.722656 -193.914062 187.699219 -193.792969 187.699219 C -195.632812 188.050781 -197.503906 188.335938 -199.457031 188.457031 C -203.246094 188.703125 -207.003906 188.703125 -210.792969 188.242188 C -212.742188 187.996094 -214.65625 187.355469 -216.605469 186.96875 C -216.535156 187.746094 -216.074219 188.347656 -215.222656 188.632812 C -212.777344 189.375 -209.835938 189.339844 -207.320312 189.589844 C -204.664062 189.910156 -202.042969 190.050781 -199.386719 190.296875 C -193.929688 190.863281 -188.507812 191.324219 -183.050781 190.476562 C -177.308594 189.554688 -173.304688 186.046875 -168.488281 183.140625 C -166.503906 181.9375 -163.632812 181.191406 -161.082031 180.058594 C -159.453125 181.757812 -157.609375 183.175781 -155.519531 184.558594 C -147.582031 189.800781 -138.191406 193.734375 -128.871094 195.613281 C -111.15625 199.226562 -93.046875 194.019531 -75.367188 197.3125 C -66.722656 198.945312 -58.109375 201.8125 -49.644531 204.257812 C -40.605469 206.84375 -31.960938 207.980469 -22.679688 206.632812 Z M 80.574219 203.0625 C 81.675781 203.292969 82.738281 203.652344 83.824219 203.929688 C 81.433594 203.960938 79.039062 204.027344 76.640625 203.410156 C 74.667969 202.914062 72.882812 202.019531 71.121094 201.0625 C 74.25 201.871094 77.414062 202.390625 80.574219 203.0625 Z M 415.351562 183.105469 C 418.007812 186.117188 417.726562 191.714844 412.625 192.921875 C 407.414062 194.160156 402.136719 192.566406 396.820312 193.34375 C 391.398438 194.160156 386.082031 195.859375 380.910156 197.773438 C 370.953125 201.425781 361.386719 206.242188 351.074219 209.042969 C 340.691406 211.839844 329 213.328125 318.265625 212.65625 C 312.808594 212.300781 307.492188 211.308594 302.246094 209.609375 C 297.25 207.945312 292.398438 205.78125 287.222656 204.648438 C 277.054688 202.34375 265.644531 204.402344 255.261719 204.578125 C 244.136719 204.71875 233.613281 202.699219 222.664062 201.175781 C 211.785156 199.652344 200.625 199.617188 189.640625 199.617188 C 178.726562 199.546875 168.167969 199.902344 157.464844 202.308594 C 149.210938 204.117188 141.132812 206.242188 132.839844 207.660156 C 125.894531 210.566406 119.054688 213.863281 111.6875 215.632812 C 106.230469 216.980469 100.738281 218.363281 95.316406 219.957031 C 89.964844 221.480469 84.226562 222.898438 79.335938 225.660156 C 75.117188 228.035156 72.179688 231.828125 68.917969 235.371094 C 65.550781 239.019531 62.007812 242.492188 57.648438 245.078125 C 53.894531 247.273438 49.75 248.65625 45.710938 250.144531 C 41.136719 251.8125 37.0625 253.972656 32.882812 256.382812 C 29.269531 258.507812 25.617188 259.820312 21.402344 259.855469 C 20.65625 259.890625 19.914062 259.785156 19.203125 259.710938 C 20.726562 259.675781 22.289062 259.746094 23.777344 259.605469 C 26.753906 259.324219 29.089844 257.410156 31.359375 255.566406 C 33.484375 253.796875 35.644531 252.128906 37.949219 250.464844 C 40.074219 248.90625 42.058594 247.132812 44.644531 246.246094 C 47.269531 245.328125 49.996094 245.148438 52.511719 243.910156 C 55.960938 242.199219 58.90625 239.574219 61.707031 236.855469 C 63.308594 234.683594 65.03125 232.632812 66.882812 230.636719 C 69.226562 228.105469 71.359375 225.480469 74.109375 223.351562 C 76.820312 221.25 79.8125 220.023438 82.871094 218.542969 C 84.691406 217.660156 86.445312 216.617188 88.316406 215.84375 C 90.1875 215.066406 92.121094 214.46875 93.964844 213.625 C 94.527344 213.367188 95.011719 214.183594 94.445312 214.476562 C 91.09375 216.214844 87.589844 217.652344 84.222656 219.378906 C 81.019531 221.027344 77.988281 222.347656 75.273438 224.714844 C 75.847656 224.34375 76.398438 223.9375 76.996094 223.605469 C 81.601562 221.054688 86.707031 221.054688 91.417969 219.105469 C 96.875 216.835938 102.046875 214.003906 107.648438 211.878906 C 112.996094 209.859375 118.101562 207.378906 123.378906 205.003906 C 128.015625 202.949219 132.28125 202.066406 137.242188 201.753906 C 137.730469 201.554688 138.222656 201.355469 138.71875 201.179688 C 140.359375 200.59375 142.011719 200.273438 143.707031 199.90625 C 145.429688 199.53125 147.121094 198.960938 148.875 198.738281 C 150.59375 198.519531 152.34375 198.386719 154.074219 198.285156 C 157.40625 198.089844 160.746094 197.480469 164.078125 197.4375 C 164.816406 197.425781 164.800781 198.519531 164.078125 198.570312 C 160.535156 198.824219 156.988281 199.863281 153.476562 200.414062 C 152.914062 200.503906 152.371094 200.667969 151.816406 200.785156 C 152.117188 200.769531 152.421875 200.777344 152.71875 200.75 C 158.988281 200.359375 165.332031 198.980469 171.605469 198.164062 C 177.027344 197.421875 182.375 196.535156 187.796875 195.859375 C 193.183594 195.222656 198.605469 195.046875 204.027344 194.585938 C 215.152344 193.664062 225.746094 196.675781 236.765625 197.632812 C 242.4375 198.128906 248.105469 198.414062 253.738281 199.085938 C 259.089844 199.757812 264.371094 201.140625 269.789062 201.53125 C 272.09375 201.707031 274.433594 201.636719 276.808594 201.601562 C 277.644531 201.308594 278.496094 201 279.355469 200.707031 C 278.160156 200.460938 276.96875 200.203125 275.789062 199.960938 C 273.027344 199.386719 270.382812 198.738281 267.574219 198.429688 C 265.566406 198.210938 263.679688 197.902344 261.820312 197.074219 C 261.46875 196.917969 261.714844 196.359375 262.070312 196.460938 C 264.644531 197.210938 267.054688 196.949219 269.679688 196.792969 C 272.246094 196.644531 274.929688 196.636719 277.492188 196.839844 C 282.589844 197.246094 287.5625 198.460938 292.6875 198.691406 C 297.726562 198.914062 302.707031 199.75 307.59375 201.046875 C 310.027344 201.691406 312.488281 202.117188 314.933594 202.707031 C 317.355469 203.289062 319.6875 202.710938 322.101562 203.027344 C 322.503906 203.078125 322.414062 203.644531 322.101562 203.746094 C 317.414062 205.289062 312.507812 204.304688 307.773438 203.464844 C 304.964844 202.96875 302.0625 202.4375 299.210938 202.300781 C 298.230469 202.253906 297.25 202.304688 296.269531 202.347656 C 301.867188 204.804688 306.84375 206.675781 313.019531 207.058594 C 315.605469 207.234375 318.230469 207.378906 320.816406 207.835938 C 323.226562 208.261719 325.457031 209.078125 327.902344 209.253906 C 333.179688 209.714844 338.140625 207.875 342.996094 205.78125 C 348.703125 203.335938 354.476562 201.035156 360.324219 198.800781 C 365.957031 196.640625 371.484375 194.230469 377.191406 192.210938 C 381.132812 190.765625 384.996094 190.097656 388.996094 189.800781 C 387.554688 189.703125 386.109375 189.601562 384.648438 189.6875 C 380.820312 189.921875 377.050781 190.832031 373.320312 191.683594 C 372.792969 191.800781 372.40625 190.992188 372.945312 190.765625 C 376.289062 189.367188 379.644531 187.914062 383.1875 187.105469 C 386.699219 186.304688 390.175781 186.339844 393.730469 186.816406 C 397.296875 187.296875 400.792969 188.582031 404.4375 188.089844 C 407.9375 187.621094 410.65625 184.859375 414.121094 184.527344 C 414.152344 184.527344 414.175781 184.546875 414.207031 184.546875 C 414.589844 184.070312 414.988281 183.601562 415.351562 183.105469 Z M 249.914062 164.078125 C 244.953125 161.808594 237.191406 160.996094 234.144531 156.175781 C 233.328125 154.933594 233.363281 153.339844 233.96875 152.03125 C 236.164062 153.234375 238.820312 154.121094 240.984375 155.007812 C 244.101562 156.351562 247.148438 157.910156 250.300781 159.222656 C 256.574219 161.738281 262.773438 163.828125 267.132812 169.25 C 269.292969 171.980469 271.207031 174.882812 273.757812 177.222656 C 276.0625 179.3125 278.683594 180.800781 281.128906 182.679688 C 283.714844 184.699219 286.125 186.683594 289.171875 188.101562 C 290.40625 188.683594 291.632812 189.320312 292.820312 190.03125 C 293.972656 190.410156 295.132812 190.773438 296.25 191.242188 C 299.191406 192.476562 301.867188 194.59375 305.113281 195.023438 C 305.921875 195.132812 305.628906 196.265625 304.945312 196.332031 C 303.273438 196.496094 301.652344 196.132812 300.066406 195.636719 C 298.539062 195.15625 297.144531 194.410156 295.65625 193.839844 C 291.753906 194.035156 288.214844 193.136719 284.851562 191.714844 C 282.085938 189.945312 279.429688 188.136719 276.84375 186.117188 C 272.269531 182.539062 268.726562 178.355469 264.867188 174.070312 C 260.683594 169.390625 255.652344 166.628906 249.914062 164.078125 Z M 249.914062 164.078125 " fill-opacity="1" fill-rule="nonzero"/></g></g></g></g></svg>