<svg xmlns="http://www.w3.org/2000/svg" xmlns:xlink="http://www.w3.org/1999/xlink" width="500" zoomAndPan="magnify" viewBox="0 0 375 374.999991" height="500" preserveAspectRatio="xMidYMid meet" version="1.0"><defs><clipPath id="b026b56412"><path d="M 0 148 L 375 148 L 375 302 L 0 302 Z M 0 148 " clip-rule="nonzero"/></clipPath><clipPath id="b0b9a39c17"><path d="M -182.167969 173.953125 L 271.566406 -81.085938 L 429.953125 200.703125 L -23.78125 455.742188 Z M -182.167969 173.953125 " clip-rule="nonzero"/></clipPath><clipPath id="bf98770b04"><path d="M -129.867188 144.554688 L 271.566406 -81.085938 L 429.953125 200.703125 L 28.523438 426.339844 Z M -129.867188 144.554688 " clip-rule="nonzero"/></clipPath><clipPath id="b06101cdb5"><path d="M -182.140625 173.9375 L 271.59375 -81.101562 L 429.980469 200.6875 L -23.753906 455.726562 Z M -182.140625 173.9375 " clip-rule="nonzero"/></clipPath><clipPath id="e03a89e985"><path d="M 0 160 L 375 160 L 375 299 L 0 299 Z M 0 160 " clip-rule="nonzero"/></clipPath><clipPath id="71852b353e"><path d="M -182.167969 173.953125 L 271.566406 -81.085938 L 429.953125 200.703125 L -23.78125 455.742188 Z M -182.167969 173.953125 " clip-rule="nonzero"/></clipPath><clipPath id="a19398eede"><path d="M -129.867188 144.554688 L 271.566406 -81.085938 L 429.953125 200.703125 L 28.523438 426.339844 Z M -129.867188 144.554688 " clip-rule="nonzero"/></clipPath><clipPath id="3933934f0e"><path d="M -182.140625 173.9375 L 271.59375 -81.101562 L 429.980469 200.6875 L -23.753906 455.726562 Z M -182.140625 173.9375 " clip-rule="nonzero"/></clipPath></defs><g clip-path="url(#b026b56412)"><g clip-path="url(#b0b9a39c17)"><g clip-path="url(#bf98770b04)"><g clip-path="url(#b06101cdb5)"><path fill="#a47052" d="M 424.199219 193.824219 C 423.480469 193.304688 422.554688 193.046875 421.535156 193.125 C 414.398438 193.804688 407.828125 191.195312 401.46875 188.464844 C 393.359375 185.015625 385.179688 182.957031 376.332031 181.980469 C 367.453125 180.949219 358.378906 180.949219 349.402344 180.753906 C 339.207031 180.535156 329.003906 180.175781 318.828125 179.734375 C 298.914062 178.882812 279.019531 177.8125 259.074219 177.40625 C 239.4375 177.039062 219.796875 177.808594 200.117188 178.382812 C 198.851562 177.894531 197.527344 177.433594 196.1875 177.195312 C 193.53125 176.632812 190.804688 176.324219 188.203125 175.730469 C 185.851562 175.210938 182.75 174.617188 180.925781 172.878906 C 178.808594 170.882812 178.308594 167.976562 175.242188 166.9375 C 172.902344 166.054688 171.191406 167.300781 168.945312 167.214844 C 167.699219 167.140625 166.632812 168.019531 166.105469 169.097656 C 166.25 169.230469 166.363281 169.304688 166.476562 169.382812 C 166.945312 169.699219 167.375 170.417969 167.796875 170.824219 C 168.289062 171.300781 168.695312 171.859375 169.160156 172.367188 C 170.238281 173.554688 171.320312 174.738281 172.398438 175.921875 C 173.003906 176.585938 173.644531 177.339844 173.664062 178.238281 C 173.667969 178.511719 173.59375 178.8125 173.359375 178.953125 C 172.933594 179.210938 171.726562 179.039062 171.203125 179.054688 C 138.390625 179.859375 105.511719 180.417969 72.734375 180.777344 C 48.667969 180.988281 24.421875 180.378906 0.257812 181.421875 C -1.179688 180.882812 -2.617188 180.347656 -4.078125 179.890625 C -15.726562 175.953125 -28.171875 175.511719 -40.125 172.667969 C -45.53125 171.386719 -50.703125 169.121094 -56.246094 168.34375 C -62.097656 167.523438 -67.511719 169.503906 -73.296875 169.425781 C -84.152344 169.292969 -92.058594 161.414062 -101.449219 157.199219 C -111.550781 152.605469 -123.308594 154.394531 -133.125 148.792969 C -134.292969 148.105469 -135.34375 149.898438 -134.199219 150.671875 C -126.019531 156.132812 -116.191406 156.207031 -107.101562 159.382812 C -106.3125 159.648438 -105.578125 159.945312 -104.871094 160.324219 C -96.015625 164.34375 -89.285156 171.894531 -80.105469 175.234375 C -74.699219 177.15625 -69.613281 176.988281 -64.023438 176.464844 C -57.875 175.917969 -52.5 177.78125 -46.742188 179.574219 C -40.109375 181.65625 -33.226562 182.675781 -26.324219 183.472656 C -27.726562 183.621094 -29.1875 183.804688 -30.613281 184.039062 C -34.6875 184.488281 -38.703125 185.042969 -42.710938 185.738281 C -62.363281 189.132812 -81.25 195.785156 -100.621094 200.4375 C -120.152344 205.183594 -140.390625 209.050781 -160.636719 207.609375 C -162.109375 207.515625 -162.109375 209.78125 -160.691406 209.90625 C -154.21875 210.449219 -147.792969 210.519531 -141.414062 210.261719 C -112.914062 208.976562 -85.3125 200.546875 -57.425781 194.507812 C -19.875 186.363281 19.3125 189.835938 57.425781 190.515625 C 63.878906 190.640625 70.304688 190.714844 76.757812 190.839844 C 74.972656 191.703125 73.273438 192.585938 71.570312 193.472656 C 71.109375 193.660156 70.789062 193.84375 70.464844 194.027344 C 63.558594 197.765625 56.054688 200.566406 49.390625 204.738281 C 42.589844 208.914062 38.144531 214.882812 33.234375 221.042969 C 23.0625 233.984375 6.835938 239.566406 -7.589844 246.328125 C -23.207031 253.621094 -36.75 263.851562 -51.613281 272.488281 C -66.390625 281.148438 -82.851562 287.570312 -95.21875 299.761719 C -96.355469 300.898438 -94.644531 302.554688 -93.53125 301.503906 C -92.496094 300.570312 -91.433594 299.6875 -90.335938 298.859375 C -79.238281 290.214844 -65.6875 284.792969 -53.003906 279.222656 C -37.910156 272.507812 -23.617188 264.121094 -8.585938 257.300781 C 5.578125 250.828125 21.351562 245.574219 33.515625 235.546875 C 39.054688 231.019531 42.660156 224.8125 47.414062 219.519531 C 52.644531 213.675781 59.609375 210.679688 66.621094 207.378906 C 74.039062 203.917969 81.03125 199.703125 88.75 196.78125 C 94.046875 194.722656 99.5 192.933594 104.921875 191.230469 C 131.28125 191.433594 157.628906 191.5 183.921875 190.957031 C 204.519531 190.503906 225.144531 189.464844 245.765625 189.5625 C 258.191406 189.589844 270.449219 190.066406 282.839844 190.539062 C 283.425781 190.566406 283.976562 190.539062 284.503906 190.597656 C 284.449219 190.625 284.398438 190.65625 284.375 190.742188 C 283.046875 193.046875 284.222656 195.644531 286.28125 197.035156 C 286.625 197.269531 286.96875 197.5 287.332031 197.648438 C 289.863281 198.992188 292.8125 199.316406 295.484375 198.519531 C 298.511719 197.597656 300.980469 195.429688 304.035156 194.425781 C 310.84375 192.15625 318.773438 192.515625 325.90625 192.332031 C 326.511719 192.273438 327.09375 192.300781 327.730469 192.296875 C 332 192.445312 336.246094 192.683594 340.484375 192.777344 C 351.015625 193.09375 361.636719 192.929688 372.140625 193.828125 C 381.28125 194.570312 389.769531 196.671875 398.1875 200.296875 C 406.832031 203.9375 414.855469 206.726562 423.96875 202.878906 C 427.683594 201.285156 427.140625 195.78125 424.199219 193.824219 Z M 424.199219 193.824219 " fill-opacity="1" fill-rule="nonzero"/></g></g></g></g><g clip-path="url(#e03a89e985)"><g clip-path="url(#71852b353e)"><g clip-path="url(#a19398eede)"><g clip-path="url(#3933934f0e)"><path fill="#7f4c38" d="M 295.585938 189.113281 C 291.277344 189.269531 287.0625 189.726562 282.925781 190.5625 L 282.839844 190.539062 C 270.449219 190.066406 258.191406 189.589844 245.765625 189.5625 C 225.144531 189.464844 204.519531 190.503906 183.921875 190.957031 C 157.628906 191.5 131.28125 191.433594 104.921875 191.230469 C 99.5 192.933594 94.046875 194.722656 88.75 196.78125 C 81.03125 199.703125 74.039062 203.917969 66.621094 207.378906 C 59.609375 210.679688 52.644531 213.675781 47.414062 219.519531 C 42.660156 224.8125 39.054688 231.019531 33.515625 235.546875 C 21.351562 245.574219 5.578125 250.828125 -8.585938 257.300781 C -23.617188 264.121094 -37.910156 272.507812 -53.003906 279.222656 C -65.6875 284.792969 -79.238281 290.214844 -90.28125 298.828125 L -90.335938 298.859375 C -90.769531 298.464844 -90.949219 297.644531 -90.222656 297.167969 C -76.300781 287.859375 -60.546875 282.121094 -45.765625 274.394531 C -50.527344 275.949219 -55.40625 277.207031 -59.507812 280.179688 C -59.796875 280.390625 -60.144531 279.914062 -59.882812 279.683594 C -53.550781 274.113281 -44.859375 273.160156 -37.664062 269.097656 C -30.023438 264.785156 -23.457031 258.894531 -15.492188 255.054688 C -15.300781 254.960938 -15.066406 255.222656 -15.253906 255.371094 C -18.554688 257.941406 -22.414062 259.746094 -25.863281 262.113281 C -27.675781 263.355469 -29.402344 264.707031 -31.125 266.0625 C -20.75 259.863281 -10.492188 253.527344 0.6875 248.6875 C 7.765625 245.632812 15.007812 242.621094 21.808594 238.941406 C 25.730469 236.816406 28.976562 234.429688 31.933594 231.652344 C 29.664062 233.5 26.882812 234.808594 24.328125 236.15625 C 18.105469 239.445312 11.621094 242.261719 5.03125 244.722656 C 4.679688 244.855469 4.445312 244.253906 4.789062 244.113281 C 12.214844 241.074219 19.195312 237.277344 25.992188 233.023438 C 28.964844 231.164062 31.40625 229.367188 33.59375 226.640625 C 35.5625 224.175781 37.378906 221.550781 39.433594 219.160156 C 42.335938 215.78125 46.128906 212.816406 49.894531 210.097656 C 50.5 209.554688 51.066406 208.941406 51.699219 208.46875 C 52.621094 207.777344 53.679688 207.257812 54.710938 206.703125 C 58.570312 203.992188 63.691406 200.585938 68.394531 200.828125 C 68.613281 200.839844 68.667969 201.175781 68.4375 201.21875 C 65.605469 201.777344 62.886719 202.863281 60.261719 204.234375 C 64.164062 202.863281 68.261719 201.832031 71.96875 200.617188 C 76.191406 199.164062 80.355469 197.746094 84.417969 195.886719 C 86.5 194.921875 88.425781 193.765625 90.335938 192.585938 C 86.988281 193.472656 83.625 194.3125 80.289062 195.183594 C 80.019531 195.253906 79.933594 194.863281 80.1875 194.773438 C 85.757812 192.789062 91.308594 190.761719 96.9375 189.042969 C 98.761719 188.328125 100.59375 187.8125 102.457031 187.570312 C 106.882812 186.4375 111.355469 185.484375 115.976562 185.101562 C 118.964844 184.851562 121.875 185.046875 124.859375 185.105469 C 128.042969 185.167969 131.132812 184.550781 134.28125 184.210938 C 140.441406 183.546875 146.398438 184.101562 152.550781 184.152344 C 152.808594 184.15625 152.859375 184.550781 152.601562 184.605469 C 149.949219 185.152344 147.285156 184.949219 144.597656 185.097656 C 141.550781 185.269531 138.507812 185.722656 135.464844 185.992188 C 132.300781 186.269531 129.109375 186.882812 125.925781 186.652344 C 123.128906 186.449219 120.492188 186.070312 117.671875 186.25 C 116.125 186.347656 114.585938 186.679688 113.039062 186.894531 C 117.066406 186.5 121.445312 187.316406 125.324219 187.273438 C 132.847656 187.152344 140.292969 187.785156 147.765625 188.332031 C 162.734375 189.480469 177.671875 190.433594 192.710938 189.558594 C 195.164062 189.421875 197.601562 189.089844 200.042969 188.804688 C 198.539062 188.71875 197.03125 188.671875 195.535156 188.539062 C 190.117188 188.054688 184.789062 188.101562 179.367188 188.519531 C 177.261719 188.679688 175.378906 188.714844 173.3125 188.304688 C 171.179688 187.878906 169.03125 187.851562 166.898438 187.476562 C 166.628906 187.429688 166.699219 186.972656 166.96875 187.003906 C 169.152344 187.234375 171.308594 187.074219 173.496094 187.390625 C 175.992188 187.753906 178.335938 187.527344 180.839844 187.339844 C 186.09375 186.949219 191.3125 187.109375 196.574219 187.171875 C 200.734375 187.222656 204.894531 187.582031 209.046875 187.808594 C 211.28125 187.527344 213.507812 187.210938 215.753906 187.019531 C 222.78125 186.402344 229.871094 186.523438 236.902344 186.539062 C 249.023438 186.527344 261.027344 185.800781 272.980469 186.875 C 280.554688 185.589844 288.042969 185.277344 295.914062 186.664062 C 297.390625 186.894531 296.882812 189.023438 295.585938 189.113281 Z M 424.199219 193.824219 C 422.082031 195.863281 419.140625 197.445312 416.261719 198 C 409.652344 199.238281 402.230469 196.253906 396.113281 193.953125 C 391.917969 192.378906 387.625 191.167969 383.300781 190.128906 C 386.828125 190.253906 390.316406 190.542969 393.789062 191.546875 C 394.109375 191.640625 394.265625 191.207031 394.007812 191.027344 C 390.105469 188.339844 384.660156 188.386719 380.109375 188.191406 C 373.902344 187.921875 367.90625 187.496094 361.761719 186.59375 C 356.351562 185.800781 350.773438 185.4375 345.308594 185.171875 C 342.335938 185.027344 339.351562 184.867188 336.375 184.789062 C 333.777344 184.722656 331.21875 185.390625 328.628906 185.136719 C 328.207031 185.09375 328.101562 185.789062 328.519531 185.871094 C 330.554688 186.273438 332.605469 186.203125 334.664062 186.324219 C 337.546875 186.492188 340.40625 187.027344 343.28125 187.261719 C 345.136719 187.410156 346.992188 187.640625 348.855469 187.800781 C 344.027344 188.140625 339.203125 188.492188 334.359375 188.570312 C 327.5 188.601562 320.777344 188.625 314.011719 190.09375 C 308.695312 191.238281 303.820312 193.410156 298.738281 195.347656 C 295.421875 196.644531 291.15625 198.261719 287.417969 197.671875 C 289.863281 198.988281 292.8125 199.316406 295.484375 198.519531 C 298.511719 197.597656 300.980469 195.429688 304.035156 194.425781 C 310.84375 192.15625 318.777344 192.511719 325.90625 192.332031 C 326.511719 192.273438 327.097656 192.300781 327.730469 192.296875 C 332 192.445312 336.246094 192.679688 340.484375 192.777344 C 351.019531 193.09375 361.636719 192.929688 372.140625 193.828125 C 381.28125 194.570312 389.769531 196.671875 398.1875 200.296875 C 406.832031 203.9375 414.855469 206.726562 423.96875 202.878906 C 427.683594 201.285156 427.140625 195.78125 424.199219 193.824219 Z M 57.425781 190.515625 C 63.878906 190.640625 70.304688 190.714844 76.757812 190.839844 C 74.972656 191.703125 73.273438 192.585938 71.570312 193.472656 C 72.863281 193.242188 74.113281 192.824219 75.359375 192.265625 C 75.628906 192.113281 76.015625 192.039062 76.285156 191.886719 C 77.992188 191.140625 79.433594 190.046875 81.179688 189.492188 C 82.023438 189.226562 81.980469 187.765625 80.960938 187.839844 C 80.351562 187.910156 79.722656 187.992188 79.109375 188.066406 C 79.0625 187.984375 79.019531 187.914062 78.941406 187.867188 C 79.835938 187.792969 80.726562 187.726562 81.644531 187.65625 C 83.5625 187.511719 85.363281 187.523438 87.046875 186.476562 C 87.425781 186.238281 87.105469 185.660156 86.703125 185.867188 C 84.527344 186.976562 81.886719 186.394531 79.53125 186.597656 C 77.183594 186.800781 74.914062 186.605469 72.582031 186.320312 C 68 185.757812 63.449219 184.679688 58.816406 184.738281 C 54.03125 184.796875 49.339844 185.203125 44.589844 185.714844 C 39.851562 186.226562 35.367188 185.453125 30.675781 185.054688 C 30.40625 185.03125 30.382812 185.410156 30.609375 185.492188 C 34.738281 186.96875 39.507812 187.363281 43.855469 187.007812 C 49.277344 186.5625 54.578125 185.886719 60.039062 186.128906 C 64.574219 186.332031 69.003906 187.523438 73.523438 187.964844 C 67.957031 189.597656 61.984375 188.710938 56.324219 188.300781 C 49.382812 187.8125 42.414062 188.539062 35.484375 188.324219 C 28.195312 188.101562 21.074219 186.792969 13.804688 186.34375 C 6.203125 185.941406 -1.507812 185.601562 -9.15625 185.367188 C -23.929688 184.957031 -38.464844 188.242188 -53.050781 190.558594 C -68.925781 193.105469 -83.617188 199.523438 -99.289062 202.808594 C -107.78125 204.605469 -116.367188 206.242188 -124.980469 207.828125 C -130.355469 208.863281 -135.9375 209.027344 -141.273438 210.253906 C -112.914062 208.976562 -85.3125 200.546875 -57.425781 194.507812 C -19.875 186.363281 19.3125 189.835938 57.425781 190.515625 Z M -64.023438 176.464844 C -57.875 175.917969 -52.5 177.78125 -46.742188 179.574219 C -41.890625 181.097656 -36.878906 182.054688 -31.847656 182.769531 C -30.511719 182.957031 -29.171875 183.132812 -27.832031 183.292969 C -26.789062 183.417969 -25.789062 183.796875 -24.738281 183.882812 C -23.597656 183.972656 -22.339844 183.585938 -21.273438 183.203125 C -20.308594 182.855469 -19.277344 182.875 -18.316406 182.417969 C -18.121094 182.324219 -17.902344 182.097656 -18.042969 181.9375 C -18.089844 181.882812 -18.164062 181.863281 -18.234375 181.84375 C -20.4375 181.28125 -22.671875 180.847656 -24.921875 180.539062 C -27.058594 180.25 -29.203125 180.140625 -31.328125 179.753906 C -36.183594 178.871094 -40.882812 177.242188 -45.570312 175.730469 C -46.097656 175.558594 -46.652344 175.472656 -47.183594 175.316406 C -49.203125 174.203125 -51.785156 173.890625 -53.988281 173.429688 C -56.488281 172.90625 -58.964844 172.019531 -61.535156 171.917969 C -64.171875 171.8125 -66.738281 172.640625 -69.367188 172.5625 C -71.640625 172.496094 -73.710938 171.402344 -76.019531 171.589844 C -76.480469 171.628906 -76.5 172.277344 -76.03125 172.3125 C -73.839844 172.492188 -71.921875 173.785156 -69.730469 174 C -67.640625 174.207031 -65.5625 173.824219 -63.476562 173.65625 C -66.648438 174.140625 -69.8125 174.890625 -72.945312 174.46875 C -76.789062 173.9375 -80.628906 171.777344 -84.089844 170.039062 C -87.972656 168.179688 -91.78125 166.074219 -95.691406 164.160156 C -98.671875 162.648438 -101.664062 161.355469 -104.753906 160.402344 C -96.015625 164.34375 -89.285156 171.894531 -80.105469 175.234375 C -74.699219 177.15625 -69.613281 176.988281 -64.023438 176.464844 Z M 179.371094 179.710938 C 180.679688 179.835938 182.007812 179.886719 183.320312 179.828125 C 183.785156 179.808594 183.804688 179.125 183.335938 179.105469 C 182.160156 179.054688 181.019531 178.882812 179.890625 178.546875 C 178.8125 178.21875 177.742188 177.796875 176.640625 177.542969 C 176.296875 177.464844 175.980469 177.414062 175.628906 177.4375 C 175.328125 177.457031 174.980469 177.449219 174.820312 177.761719 C 174.507812 178.375 175.519531 178.851562 175.953125 179.007812 C 177.039062 179.398438 178.226562 179.605469 179.371094 179.710938 Z M 305.976562 188.03125 C 306.625 188.101562 307.269531 188.054688 307.917969 188.015625 C 308.546875 187.980469 309.171875 187.917969 309.796875 187.855469 C 310.109375 187.824219 310.429688 187.796875 310.746094 187.789062 C 311.066406 187.777344 311.347656 187.792969 311.65625 187.703125 C 311.894531 187.636719 312.011719 187.320312 311.816406 187.136719 C 311.347656 186.703125 310.621094 186.617188 310 186.566406 C 309.332031 186.511719 308.667969 186.558594 308.003906 186.640625 C 307.359375 186.71875 306.714844 186.777344 306.074219 186.863281 C 305.457031 186.945312 304.820312 186.988281 304.199219 186.90625 C 303.777344 186.851562 303.742188 187.476562 304.097656 187.605469 C 304.710938 187.824219 305.328125 187.964844 305.976562 188.03125 Z M 248.402344 182.90625 C 250.976562 182.796875 253.554688 182.746094 256.132812 182.621094 C 258.792969 182.488281 261.472656 182.546875 264.125 182.390625 C 264.363281 182.378906 264.449219 182.015625 264.191406 181.953125 C 261.777344 181.390625 259.125 181.246094 256.65625 181.082031 C 254.007812 180.90625 251.332031 181.023438 248.679688 181.148438 C 243.363281 181.394531 238.074219 182.074219 232.753906 182.363281 C 232.253906 182.390625 232.226562 183.140625 232.738281 183.144531 C 237.949219 183.207031 243.195312 183.132812 248.402344 182.90625 Z M 248.402344 182.90625 " fill-opacity="1" fill-rule="nonzero"/></g></g></g></g></svg>