<svg xmlns="http://www.w3.org/2000/svg" xmlns:xlink="http://www.w3.org/1999/xlink" width="500" zoomAndPan="magnify" viewBox="0 0 375 374.999991" height="500" preserveAspectRatio="xMidYMid meet" version="1.0"><defs><clipPath id="f09569bac1"><path d="M 0 145 L 375 145 L 375 247 L 0 247 Z M 0 145 " clip-rule="nonzero"/></clipPath><clipPath id="da8b0fe4b5"><path d="M -273.300781 175.878906 L 256.304688 -83.019531 L 394.316406 199.300781 L -135.289062 458.199219 Z M -273.300781 175.878906 " clip-rule="nonzero"/></clipPath><clipPath id="a65aba0cdb"><path d="M -131.804688 106.707031 L 256.304688 -83.019531 L 394.316406 199.300781 L 6.210938 389.03125 Z M -131.804688 106.707031 " clip-rule="nonzero"/></clipPath><clipPath id="7b3b03f081"><path d="M -273.296875 175.878906 L 256.308594 -83.019531 L 394.320312 199.300781 L -135.285156 458.199219 Z M -273.296875 175.878906 " clip-rule="nonzero"/></clipPath><clipPath id="5b6f988ee5"><path d="M 0 159 L 375 159 L 375 247 L 0 247 Z M 0 159 " clip-rule="nonzero"/></clipPath><clipPath id="c9c06e1247"><path d="M -273.300781 175.878906 L 256.304688 -83.019531 L 394.316406 199.300781 L -135.289062 458.199219 Z M -273.300781 175.878906 " clip-rule="nonzero"/></clipPath><clipPath id="16bb826d6a"><path d="M -131.804688 106.707031 L 256.304688 -83.019531 L 394.316406 199.300781 L 6.210938 389.03125 Z M -131.804688 106.707031 " clip-rule="nonzero"/></clipPath><clipPath id="d881b8d76c"><path d="M -273.296875 175.878906 L 256.308594 -83.019531 L 394.320312 199.300781 L -135.285156 458.199219 Z M -273.296875 175.878906 " clip-rule="nonzero"/></clipPath></defs><g clip-path="url(#f09569bac1)"><g clip-path="url(#da8b0fe4b5)"><g clip-path="url(#a65aba0cdb)"><g clip-path="url(#7b3b03f081)"><path fill="#a47052" d="M 379.46875 188.875 C 366.472656 193.125 353.304688 201.316406 339.324219 201.574219 C 327.417969 201.78125 316.046875 197.695312 304.632812 194.246094 C 303.203125 192.75 301.488281 191.574219 299.632812 190.289062 C 296.0625 188 293.34375 184.769531 290.019531 182.273438 C 284.492188 177.960938 278.089844 177.410156 271.519531 175.796875 C 269.308594 175.214844 266.285156 174.589844 265.175781 172.324219 C 263.445312 168.960938 263.132812 164.730469 261.4375 161.261719 C 259.394531 157.265625 255.777344 155.785156 252.136719 153.535156 C 248.632812 151.386719 245.097656 149.347656 242.308594 146.152344 C 240.914062 144.554688 237.941406 146.359375 239.15625 148.308594 C 241.0625 151.496094 243.539062 154.230469 245.945312 157 C 247.445312 158.632812 248.597656 159.910156 249.140625 162.101562 C 249.652344 163.867188 250.269531 165.667969 250.785156 167.433594 C 251.402344 169.414062 251.984375 171.144531 252.675781 172.734375 L 252.710938 172.808594 C 253.710938 174.859375 254.929688 176.632812 256.921875 178.375 C 259.367188 180.511719 261.847656 182.542969 264.472656 184.503906 C 267.132812 186.359375 269.933594 187.972656 272.808594 189.546875 C 271.578125 189.535156 270.34375 189.523438 269.074219 189.621094 L 269.003906 189.652344 C 261.222656 189.863281 253.363281 190.8125 245.570312 192.078125 C 229.667969 194.679688 214.25 198.09375 198.113281 195.375 C 190.660156 194.109375 183.566406 191.613281 176.367188 189.433594 C 174.929688 188.996094 173.453125 188.492188 172.015625 188.054688 L 171.84375 187.699219 C 170.59375 185.328125 168.746094 183.339844 167.109375 181.246094 C 165.679688 179.578125 164.390625 177.839844 163.070312 176.03125 C 162.792969 175.640625 162.515625 175.25 162.234375 174.859375 C 162.199219 174.789062 162.199219 174.789062 162.164062 174.71875 C 162.132812 174.648438 162.132812 174.648438 162.097656 174.578125 C 161.820312 174.011719 160.914062 172.699219 160.777344 172.417969 C 158.839844 168.628906 156.9375 164.386719 153.371094 161.746094 C 148.925781 158.570312 143.152344 158.765625 139.035156 162.175781 C 137.40625 163.5 137.414062 166.566406 139.199219 167.710938 C 139.234375 167.78125 139.234375 167.78125 139.234375 167.78125 C 139.46875 169.332031 139.59375 170.847656 139.96875 172.332031 C 140.242188 173.425781 140.585938 174.484375 140.996094 175.511719 C 131.808594 171.234375 122.515625 167.097656 112.714844 164.261719 C 96.804688 159.675781 80.71875 159.210938 64.53125 162.300781 C 49.71875 165.15625 35.242188 169.605469 20.296875 171.652344 C 12.679688 172.742188 4.894531 173.304688 -2.625 171.542969 C -11.9375 169.519531 -20.496094 165.460938 -29.445312 162.210938 C -48.152344 155.308594 -67.742188 156.820312 -87.269531 155.230469 C -89.382812 155.035156 -90.222656 158.515625 -88.078125 158.957031 C -79.855469 160.722656 -71.554688 161.75 -63.289062 163.058594 C -63.007812 163.097656 -62.621094 163.171875 -62.339844 163.210938 C -53.339844 164.773438 -45.164062 167.699219 -36.777344 171.230469 C -22.324219 177.316406 -7.847656 184.882812 8.136719 184.78125 C 16.800781 184.757812 25.261719 183.425781 33.726562 181.742188 C 32.984375 182.195312 32.3125 182.609375 31.601562 183.132812 C 31.53125 183.167969 31.53125 183.167969 31.53125 183.167969 C 31.039062 183.410156 30.578125 183.722656 30.117188 184.035156 C 20.066406 190 9.558594 195.574219 -1.355469 199.769531 C -11.777344 203.726562 -22.402344 206.550781 -32.585938 211.355469 C -37.285156 213.566406 -41.570312 216.449219 -46.34375 218.519531 C -51.007812 220.625 -56.125 221.984375 -61.171875 222.960938 C -78.59375 226.214844 -95.664062 221.585938 -112.277344 216.640625 C -112.804688 216.460938 -113.261719 216.421875 -113.753906 216.3125 C -117.488281 212.964844 -121.621094 210.25 -126.144531 207.988281 C -129.542969 206.234375 -132.878906 204.96875 -136.605469 204.160156 C -140.117188 203.246094 -142.335938 203.542969 -144.175781 200.144531 C -147.363281 194.515625 -149.347656 187.59375 -155.550781 184.578125 C -158.882812 182.960938 -162.105469 181.027344 -165.472656 179.519531 C -168.523438 178.117188 -172.324219 177.871094 -174.625 175.136719 C -175.84375 173.714844 -178.21875 175.316406 -177.316406 176.976562 C -175.898438 179.703125 -173.550781 181.277344 -170.996094 182.917969 C -167.703125 184.992188 -165.230469 187.902344 -162.257812 190.398438 C -161.070312 191.394531 -159.703125 192.21875 -158.65625 193.460938 C -158.625 193.53125 -158.484375 193.636719 -158.449219 193.707031 C -157.195312 195.199219 -156.648438 197.210938 -155.640625 198.914062 C -154.011719 201.710938 -152.453125 204.71875 -150.46875 207.34375 C -148.03125 210.535156 -145.054688 212.5 -141.796875 214.152344 C -142.816406 214.210938 -143.769531 214.238281 -144.859375 214.15625 L -145.035156 214.15625 C -153.910156 214.460938 -162.175781 213.503906 -171.105469 211.554688 C -194.261719 206.480469 -218.589844 206.011719 -240.617188 196.4375 C -242.441406 195.574219 -244.054688 198.730469 -242.195312 199.664062 C -231.292969 205.117188 -220.023438 209.167969 -208.542969 212.585938 C -209.753906 214.230469 -209.84375 216.375 -209.222656 218.179688 C -209.222656 218.179688 -209.222656 218.179688 -209.1875 218.25 C -208.640625 219.910156 -207.386719 221.402344 -205.527344 222.15625 C -202.894531 223.238281 -199.441406 223.128906 -196.65625 222.378906 C -195.984375 222.140625 -195.207031 221.9375 -194.464844 221.660156 L -194.042969 221.453125 C -193.9375 221.488281 -193.9375 221.488281 -193.863281 221.457031 C -193.335938 221.285156 -192.699219 221.148438 -192.171875 220.976562 C -190.265625 220.574219 -188.257812 220.378906 -186.320312 220.222656 C -185.71875 220.191406 -185.191406 220.195312 -184.628906 220.097656 C -184.453125 220.097656 -183.855469 220.066406 -183.675781 220.070312 C -183.148438 220.074219 -182.621094 220.078125 -182.09375 220.085938 C -181.777344 220.015625 -181.496094 220.054688 -181.175781 219.988281 C -180.226562 219.960938 -181.175781 219.988281 -180.402344 219.957031 C -180.296875 219.996094 -180.15625 219.925781 -179.980469 219.929688 C -170.210938 222.167969 -160.339844 224.792969 -150.234375 224.851562 C -140.410156 224.871094 -130.539062 223.203125 -120.835938 225.121094 C -111.449219 226.933594 -102.324219 230.367188 -92.871094 232.144531 C -87.5625 233.144531 -82.109375 233.722656 -76.6875 233.878906 C -77.1875 234.648438 -77.582031 235.453125 -77.90625 236.226562 C -78.121094 236.683594 -78.226562 237 -78.375 237.421875 C -79.023438 239.492188 -78.722656 241.1875 -77.890625 242.53125 C -77.890625 242.53125 -77.785156 242.570312 -77.75 242.640625 C -75.390625 246.570312 -68.53125 247.515625 -64.226562 246.460938 C -59.78125 245.339844 -57.667969 241.414062 -54.300781 238.628906 C -50.71875 235.738281 -46.578125 233.449219 -42.753906 230.878906 C -38.820312 228.167969 -34.996094 225.421875 -31.167969 222.671875 C -22.796875 219.722656 -14.394531 217.015625 -5.957031 214.382812 C 3.539062 211.40625 13.421875 209.03125 22.371094 204.394531 C 31 200 38.796875 194.082031 46.316406 187.953125 C 50.570312 184.46875 55.136719 181.621094 59.777344 178.566406 C 61.441406 177.488281 63.246094 176.34375 64.914062 175.089844 C 76.691406 173.015625 88.566406 172.03125 100.621094 174.46875 C 131.023438 180.5625 156.65625 200.734375 186.554688 208.65625 C 190.980469 209.820312 195.269531 210.53125 199.558594 211.0625 C 199.167969 211.519531 198.8125 211.867188 198.457031 212.390625 C 197.566406 213.441406 196.785156 214.523438 196.246094 215.753906 C 195.671875 216.910156 195.800781 218.425781 196.316406 219.664062 C 196.488281 220.195312 196.730469 220.6875 197.007812 221.078125 C 198.085938 222.746094 199.628906 223.394531 201.5625 223.761719 C 208.699219 225.097656 216.46875 222.351562 222.316406 218.175781 C 224.972656 216.265625 227.59375 214.28125 230.324219 212.332031 C 231.210938 211.636719 232.0625 210.871094 232.984375 210.070312 C 233.476562 210.003906 233.96875 209.9375 234.464844 209.871094 C 250.71875 207.273438 267.371094 203.339844 283.9375 205.5 C 297.480469 207.210938 310.28125 212.789062 323.636719 215.554688 C 323.105469 216.253906 322.746094 216.953125 322.421875 217.726562 L 322.351562 217.761719 C 321.742188 219.023438 321.378906 220.429688 321.1875 222.011719 C 321.148438 222.292969 321.148438 222.648438 321.214844 222.964844 C 321.308594 224.410156 322.175781 225.824219 323.367188 226.46875 C 327.363281 228.726562 331.273438 228.128906 334.996094 225.519531 C 335.527344 225.175781 336.09375 224.722656 336.554688 224.230469 C 336.945312 223.953125 337.300781 223.605469 337.621094 223.1875 C 337.621094 223.1875 338.261719 222.523438 338.367188 222.382812 C 339.363281 221.371094 340.355469 220.355469 341.492188 219.453125 C 341.878906 219.351562 342.304688 219.144531 342.726562 218.933594 C 343.753906 218.523438 344.777344 218.109375 345.800781 217.695312 C 347.816406 216.976562 349.933594 216.464844 352.015625 215.710938 C 353.183594 215.226562 354.3125 214.675781 355.445312 214.121094 C 364.519531 211.351562 373.214844 207.277344 382.359375 204.296875 C 386.316406 203.0625 389.371094 199.816406 388.636719 195.441406 C 388.601562 195.371094 388.636719 195.265625 388.601562 195.195312 C 387.894531 191.417969 383.492188 187.609375 379.46875 188.875 Z M 379.46875 188.875 " fill-opacity="1" fill-rule="nonzero"/></g></g></g></g><g clip-path="url(#5b6f988ee5)"><g clip-path="url(#c9c06e1247)"><g clip-path="url(#16bb826d6a)"><g clip-path="url(#d881b8d76c)"><path fill="#7f4c38" d="M -76.6875 233.878906 C -82.109375 233.722656 -87.5625 233.144531 -92.871094 232.144531 C -102.324219 230.367188 -111.449219 226.933594 -120.835938 225.121094 C -130.539062 223.203125 -140.410156 224.871094 -150.234375 224.851562 C -160.339844 224.792969 -170.210938 222.167969 -179.980469 219.929688 C -180.15625 219.925781 -180.296875 219.996094 -180.402344 219.957031 C -181.175781 219.988281 -180.226562 219.960938 -181.175781 219.988281 C -181.496094 220.054688 -181.777344 220.015625 -182.09375 220.085938 C -182.621094 220.078125 -183.148438 220.074219 -183.675781 220.070312 C -183.855469 220.066406 -184.453125 220.097656 -184.628906 220.097656 C -185.191406 220.195312 -185.71875 220.191406 -186.320312 220.222656 C -188.257812 220.378906 -190.265625 220.574219 -192.171875 220.976562 C -192.699219 221.148438 -193.335938 221.285156 -193.863281 221.457031 C -193.9375 221.492188 -193.9375 221.492188 -194.042969 221.453125 L -194.464844 221.660156 C -195.207031 221.9375 -195.984375 222.140625 -196.65625 222.378906 C -199.441406 223.128906 -202.894531 223.238281 -205.527344 222.15625 C -207.386719 221.402344 -208.640625 219.910156 -209.1875 218.25 C -204.734375 223.347656 -194.183594 216.957031 -188.132812 214.933594 C -189.5 214.550781 -190.828125 214.066406 -192.195312 213.695312 C -193.921875 213.226562 -195.695312 213.078125 -197.480469 213.089844 C -198.007812 213.09375 -198.019531 212.285156 -197.527344 212.191406 C -195.691406 211.835938 -193.796875 211.625 -191.921875 211.777344 C -190.246094 211.914062 -188.550781 212.265625 -186.910156 212.625 C -185.230469 212.996094 -183.472656 213.410156 -181.914062 214.15625 C -181.839844 214.191406 -181.785156 214.246094 -181.710938 214.28125 C -180.6875 214.402344 -179.675781 214.535156 -178.5625 214.761719 C -174.308594 215.578125 -170.019531 216.285156 -165.765625 217.101562 C -158.628906 218.433594 -151.039062 220.160156 -143.777344 219.0625 C -138.558594 218.265625 -133.078125 215.851562 -127.960938 218.609375 C -125.230469 220.082031 -122.457031 221.269531 -119.617188 222.597656 C -117.320312 223.664062 -114.949219 223.96875 -112.507812 224.199219 C -112.640625 224.121094 -112.785156 224.085938 -112.914062 224.003906 C -114.714844 222.824219 -116.101562 221.175781 -117.847656 219.941406 C -120.75 217.894531 -124.621094 217.894531 -127.246094 215.390625 C -127.601562 215.050781 -127.066406 214.453125 -126.683594 214.746094 C -123.785156 216.960938 -119.691406 216.796875 -116.484375 218.421875 C -114.65625 219.351562 -113.105469 220.625 -111.367188 221.679688 C -109.714844 222.683594 -107.832031 222.972656 -105.9375 223.195312 C -101.976562 223.65625 -98.003906 223.503906 -94.070312 224.296875 C -90.191406 225.078125 -85.625 225.378906 -82.050781 227.171875 C -81.742188 227.328125 -81.976562 227.730469 -82.242188 227.738281 C -86.828125 227.835938 -91.429688 226.417969 -95.976562 225.964844 C -98.132812 225.75 -100.308594 225.882812 -102.476562 225.960938 C -98.585938 227.117188 -94.871094 228.664062 -90.914062 229.871094 C -82.554688 232.449219 -76.246094 227.613281 -68.210938 226.839844 C -65.777344 226.617188 -65.101562 229.441406 -66.941406 230.691406 C -70.554688 233.160156 -74.125 234.992188 -77.90625 236.226562 C -77.582031 235.453125 -77.1875 234.648438 -76.6875 233.878906 Z M 198.457031 212.390625 C 199.871094 211.699219 201.183594 210.796875 202.667969 209.894531 C 204.757812 208.785156 208.253906 207.515625 209.050781 205.023438 C 209.265625 204.390625 208.917969 203.683594 208.289062 203.464844 C 205.972656 202.667969 203.488281 204.582031 201.472656 205.65625 C 201.253906 205.765625 200.957031 205.824219 200.71875 205.929688 C 200.386719 205.953125 200.054688 205.992188 199.71875 206.007812 C 197.195312 206.125 195.398438 205.109375 193.175781 204.101562 C 189.1875 202.296875 184.949219 201.515625 180.832031 200.121094 C 178.6875 199.390625 176.78125 198.421875 174.890625 197.175781 C 172.863281 195.839844 170.609375 195.035156 168.324219 194.257812 C 163.328125 192.5625 158.664062 190.089844 153.578125 188.613281 C 153.007812 188.449219 152.722656 189.273438 153.277344 189.484375 C 158.371094 191.429688 162.871094 194.507812 167.808594 196.777344 C 172.207031 198.796875 175.996094 201.84375 180.65625 203.292969 C 184.871094 204.601562 189.457031 204.929688 193.515625 206.6875 C 194.171875 206.972656 194.78125 207.164062 195.402344 207.371094 C 194.675781 207.472656 193.925781 207.664062 193.253906 207.660156 C 187.585938 207.535156 182.726562 203.511719 177.238281 202.6875 C 175.691406 202.390625 174.285156 202.375 172.847656 201.765625 C 171.480469 201.117188 170.183594 200.261719 168.816406 199.613281 C 165.695312 198.070312 162.539062 196.808594 159.523438 195.300781 C 157.3125 194.1875 155.105469 193.078125 152.933594 191.859375 C 152.863281 191.71875 152.832031 191.46875 152.65625 191.292969 C 145.160156 182.59375 134.046875 177.066406 123.199219 173.339844 C 121.054688 172.589844 118.816406 172.136719 116.578125 171.671875 C 115.640625 171.148438 114.6875 170.679688 113.792969 170.320312 C 110.136719 168.855469 106.179688 168.652344 102.476562 167.386719 C 99.058594 166.21875 95.628906 165.261719 92.039062 164.820312 C 90.355469 164.613281 88.558594 164.378906 86.863281 164.574219 C 85.179688 164.769531 83.589844 165.476562 81.871094 165.179688 C 81.425781 165.105469 81.308594 165.796875 81.71875 165.945312 C 82.921875 166.375 84.125 166.292969 85.378906 166.214844 C 87.160156 166.101562 88.777344 166.394531 90.527344 166.703125 C 94.109375 167.328125 97.472656 168.34375 100.898438 169.554688 C 101.363281 169.71875 101.851562 169.804688 102.320312 169.949219 C 97.148438 169.683594 91.964844 169.589844 86.96875 169.304688 C 81.09375 168.933594 74.898438 168.632812 69.148438 169.953125 C 63.113281 171.410156 57.519531 175.023438 52.171875 178.25 C 52.125 178.277344 52.074219 178.316406 52.027344 178.347656 C 53.273438 177.289062 54.507812 176.226562 55.59375 175.050781 C 55.808594 174.816406 55.574219 174.347656 55.253906 174.542969 C 50.152344 177.652344 45.398438 181.097656 40.890625 185.0625 C 38.183594 187.445312 35.71875 190.160156 32.625 192.070312 C 29.511719 193.988281 25.878906 195.265625 22.40625 196.375 C 16.214844 198.351562 10.167969 198.832031 4.234375 201.6875 C 1.199219 203.148438 -1.773438 204.746094 -4.839844 206.144531 C -7.898438 207.539062 -11.125 208.503906 -14.101562 210.082031 C -14.660156 210.378906 -14.234375 211.257812 -13.667969 210.96875 C -10.652344 209.414062 -7.328125 208.710938 -4.175781 207.496094 C -0.445312 206.058594 3.128906 204.417969 6.972656 203.261719 C 10.789062 202.109375 14.691406 201.542969 18.550781 200.738281 C 13.515625 203.066406 8.59375 205.714844 3.851562 207.921875 C -1.273438 210.339844 -6.570312 212.050781 -12.144531 213.199219 C -17.503906 214.417969 -23.144531 214.894531 -28.371094 216.746094 C -38.328125 220.210938 -46.074219 227.855469 -53.667969 234.902344 C -58.566406 239.398438 -70.902344 248.9375 -77.75 242.640625 C -75.390625 246.570312 -68.53125 247.515625 -64.226562 246.460938 C -59.78125 245.339844 -57.667969 241.414062 -54.300781 238.628906 C -50.71875 235.738281 -46.578125 233.449219 -42.753906 230.878906 C -38.820312 228.167969 -34.996094 225.421875 -31.167969 222.671875 C -22.796875 219.722656 -14.394531 217.015625 -5.957031 214.382812 C 3.539062 211.40625 13.421875 209.03125 22.371094 204.394531 C 31 200 38.796875 194.082031 46.316406 187.953125 C 50.570312 184.46875 55.136719 181.621094 59.777344 178.566406 C 61.441406 177.488281 63.246094 176.34375 64.914062 175.089844 C 76.691406 173.015625 88.566406 172.03125 100.621094 174.46875 C 131.023438 180.5625 156.65625 200.734375 186.554688 208.65625 C 190.980469 209.820312 195.269531 210.53125 199.558594 211.0625 C 199.167969 211.519531 198.8125 211.867188 198.457031 212.390625 Z M 322.421875 217.726562 C 323.195312 217.699219 324.042969 217.636719 324.78125 217.535156 C 327.179688 217.242188 326.890625 214.140625 325.066406 213.277344 C 319.917969 210.9375 315.496094 207.585938 310.585938 204.929688 C 312.355469 205.359375 314.121094 205.71875 315.898438 206.289062 C 316.414062 206.453125 316.65625 205.710938 316.167969 205.5 C 313.011719 204.160156 310.664062 202.359375 307.261719 201.453125 C 304.417969 200.695312 301.726562 200.429688 298.816406 200.074219 C 292.042969 199.246094 285.558594 196.464844 278.71875 196.027344 C 272.203125 195.609375 266.253906 197.546875 259.957031 198.769531 C 254.089844 199.90625 247.542969 198.269531 241.917969 200.527344 C 241.527344 200.683594 241.773438 201.207031 242.132812 201.179688 C 247.746094 200.738281 253.570312 200.878906 259.136719 200.023438 C 266.128906 198.953125 272.351562 196.539062 279.546875 198.003906 C 282.703125 198.648438 285.824219 199.546875 288.953125 200.40625 C 279.300781 199.734375 269.566406 200.765625 260.023438 201.933594 C 254.246094 202.65625 248.5 203.449219 242.789062 203.960938 C 236.765625 204.539062 231.660156 204.140625 226.316406 207.542969 C 220.648438 211.1875 214.675781 214.019531 209.046875 217.5625 C 206 219.402344 204.019531 220.722656 200.433594 220.019531 C 198.921875 219.792969 197.65625 219.535156 196.316406 219.664062 C 196.488281 220.195312 196.730469 220.6875 197.007812 221.078125 C 198.085938 222.746094 199.628906 223.394531 201.5625 223.761719 C 208.699219 225.097656 216.46875 222.351562 222.316406 218.175781 C 224.972656 216.265625 227.59375 214.28125 230.324219 212.332031 C 231.210938 211.636719 232.0625 210.871094 232.984375 210.070312 C 233.476562 210.003906 233.96875 209.9375 234.464844 209.871094 C 250.71875 207.273438 267.371094 203.339844 283.9375 205.5 C 297.480469 207.210938 310.28125 212.789062 323.636719 215.554688 C 323.101562 216.253906 322.746094 216.953125 322.421875 217.726562 Z M 382.261719 199.433594 C 375.257812 203.03125 367.445312 206.941406 359.582031 208.066406 C 359.15625 208.121094 358.726562 208.140625 358.296875 208.175781 C 358.542969 208.011719 358.804688 207.917969 359.054688 207.742188 C 362.078125 205.628906 365.433594 203.882812 368.777344 202.335938 C 372.261719 200.726562 376.289062 199.808594 379.59375 197.886719 C 379.90625 197.707031 379.878906 197.121094 379.449219 197.128906 C 376.054688 197.183594 372.519531 198.839844 369.46875 200.1875 C 365.847656 201.789062 362.257812 203.519531 358.75 205.34375 C 357.160156 206.171875 355.574219 207.09375 353.894531 207.738281 C 352.121094 208.417969 350.191406 208.765625 348.347656 209.214844 C 346.023438 209.78125 342.804688 209.960938 341.117188 211.859375 C 340.886719 212.117188 341.140625 212.664062 341.496094 212.429688 C 342.539062 211.742188 343.839844 211.535156 345.1875 211.449219 C 343.394531 212.589844 341.671875 213.851562 339.980469 215.105469 C 334.554688 219.421875 328.628906 224.863281 321.214844 222.964844 C 321.308594 224.410156 322.175781 225.824219 323.367188 226.46875 C 327.363281 228.726562 331.273438 228.128906 334.996094 225.519531 C 335.527344 225.175781 336.09375 224.722656 336.554688 224.230469 C 336.945312 223.953125 337.300781 223.605469 337.621094 223.183594 C 337.621094 223.183594 338.261719 222.523438 338.367188 222.382812 C 339.363281 221.371094 340.355469 220.355469 341.492188 219.453125 C 341.878906 219.351562 342.304688 219.144531 342.726562 218.933594 C 343.753906 218.523438 344.777344 218.109375 345.800781 217.695312 C 347.816406 216.972656 349.933594 216.464844 352.015625 215.710938 C 353.183594 215.226562 354.3125 214.675781 355.445312 214.121094 C 364.519531 211.351562 373.214844 207.277344 382.359375 204.296875 C 386.316406 203.0625 389.371094 199.816406 388.636719 195.441406 C 386.511719 196.832031 384.492188 198.257812 382.261719 199.433594 Z M 252.710938 172.808594 C 253.710938 174.859375 254.929688 176.632812 256.921875 178.375 C 259.367188 180.511719 261.847656 182.542969 264.472656 184.503906 C 267.132812 186.359375 269.933594 187.972656 272.808594 189.546875 C 271.578125 189.535156 270.34375 189.523438 269.074219 189.621094 C 269.917969 190.085938 270.902344 190.304688 272.027344 190.457031 C 273.714844 190.683594 275.441406 190.628906 277.128906 190.679688 C 278.46875 190.726562 279.980469 190.777344 279.890625 188.980469 C 279.863281 188.378906 279.335938 188.023438 278.878906 187.808594 C 276.214844 186.480469 273.292969 186.59375 270.589844 185.546875 C 268.546875 184.804688 266.972656 183.257812 265.351562 181.808594 C 267.40625 182.269531 269.472656 182.714844 271.515625 183.199219 C 271.890625 183.285156 272.148438 182.828125 271.820312 182.582031 C 269.707031 181 266.933594 180.234375 264.519531 179.226562 C 263.203125 178.675781 261.878906 178.089844 260.914062 176.996094 C 260.007812 175.964844 259.546875 174.707031 258.867188 173.535156 C 258.179688 172.355469 257.3125 171.257812 256.324219 170.320312 C 255.207031 169.261719 254.015625 168.378906 253.601562 166.816406 C 253.253906 165.503906 253.378906 164.136719 252.988281 162.820312 C 252.617188 161.566406 252.019531 160.398438 251.40625 159.246094 C 251.203125 158.871094 250.640625 159.148438 250.8125 159.539062 C 251.425781 160.945312 252.011719 162.375 252.144531 163.917969 C 252.273438 165.355469 252.058594 166.75 252.371094 168.179688 C 253 171.035156 255.128906 173.15625 256.484375 175.664062 C 256.140625 175.425781 255.773438 175.226562 255.4375 174.980469 C 254.492188 174.300781 253.617188 173.589844 252.710938 172.808594 Z M -156.59375 195.167969 C -157.257812 194.527344 -157.886719 193.960938 -158.65625 193.460938 C -158.621094 193.53125 -158.484375 193.636719 -158.449219 193.707031 C -157.195312 195.199219 -156.648438 197.210938 -155.640625 198.914062 C -154.011719 201.710938 -152.453125 204.71875 -150.46875 207.34375 C -148.03125 210.535156 -145.054688 212.5 -141.796875 214.152344 C -142.816406 214.210938 -143.769531 214.238281 -144.859375 214.15625 C -144.472656 214.410156 -143.980469 214.519531 -143.492188 214.628906 C -142.753906 214.707031 -142.046875 214.710938 -141.410156 214.402344 C -140.738281 214.160156 -140.171875 213.53125 -139.464844 213.539062 C -138.550781 213.617188 -138.367188 212.5625 -138.890625 212.027344 C -139.871094 211.28125 -140.71875 211.519531 -141.804688 211.261719 C -143.140625 210.863281 -144.226562 210.253906 -145.347656 209.398438 C -145.5625 209.246094 -145.738281 209.046875 -145.949219 208.886719 C -145.960938 208.828125 -145.914062 208.769531 -145.957031 208.714844 C -146.683594 207.804688 -147.59375 207.074219 -148.28125 206.121094 C -148.835938 205.351562 -149.296875 204.492188 -149.742188 203.65625 C -150.707031 201.839844 -151.359375 199.886719 -152.113281 197.976562 C -153.886719 193.472656 -157.238281 190.132812 -160.53125 186.699219 C -160.835938 186.375 -161.332031 186.808594 -161.046875 187.15625 C -159.339844 189.234375 -157.582031 191.3125 -156.1875 193.621094 C -155.355469 194.996094 -154.789062 196.496094 -154.261719 198.011719 C -154.917969 197.007812 -155.644531 196.039062 -156.59375 195.167969 Z M -36.777344 171.230469 C -22.324219 177.316406 -7.847656 184.882812 8.136719 184.78125 C 16.800781 184.757812 25.261719 183.425781 33.726562 181.742188 C 32.984375 182.195312 32.3125 182.609375 31.601562 183.132812 C 32.167969 183.03125 32.765625 182.824219 33.367188 182.621094 C 34.5 182.242188 35.769531 181.796875 36.902344 181.242188 C 38.070312 180.585938 39.449219 179.824219 40.164062 178.597656 C 40.734375 177.617188 40.148438 176.414062 39.023438 176.261719 C 37.71875 176.109375 36.414062 176.660156 35.210938 177.246094 L 34.894531 177.140625 L 34.398438 177.382812 C 34.367188 177.308594 34.367188 177.308594 34.367188 177.308594 C 34.292969 177.34375 34.222656 177.378906 34.222656 177.378906 C 32.105469 178.0625 30.230469 179.066406 28.109375 179.929688 C 25.144531 181.027344 22.574219 180.792969 19.515625 180.449219 C 14.800781 179.949219 10.28125 181.28125 5.636719 180.917969 C 5.257812 180.886719 4.894531 180.785156 4.519531 180.734375 C 7.527344 180.875 10.570312 180.664062 13.753906 180.28125 C 20.894531 179.425781 26.953125 177.398438 33.679688 174.980469 C 41.011719 172.347656 48.769531 171.640625 56.140625 169.164062 C 56.378906 169.082031 56.234375 168.722656 56.003906 168.757812 C 49.351562 169.78125 42.578125 170.753906 36.03125 172.34375 C 29.519531 173.925781 23.699219 177.085938 16.949219 177.875 C 10.257812 178.660156 3.910156 178.511719 -2.625 176.808594 C -5.570312 176.039062 -8.375 175.007812 -11.226562 173.945312 C -14.484375 172.730469 -17.878906 171.847656 -20.710938 169.742188 C -21.070312 169.476562 -21.566406 170.027344 -21.234375 170.339844 C -19.1875 172.261719 -16.875 173.359375 -14.339844 174.492188 C -11.546875 175.738281 -8.847656 177.175781 -6.027344 178.355469 C -6.878906 178.199219 -7.726562 178.027344 -8.597656 177.972656 C -14.332031 177.53125 -18.363281 175.554688 -23.414062 173.113281 C -31.617188 169.058594 -40.300781 163.660156 -49.625 162.691406 C -54.164062 162.191406 -58.746094 162.679688 -63.289062 163.058594 C -63.007812 163.097656 -62.621094 163.171875 -62.339844 163.210938 C -53.339844 164.773438 -45.164062 167.699219 -36.777344 171.230469 Z M 148.601562 180.253906 C 149.46875 180.679688 150.371094 181.082031 151.289062 181.378906 C 151.742188 181.523438 152.191406 181.679688 152.648438 181.824219 C 153.066406 181.957031 153.464844 182.269531 153.917969 182.125 C 154.136719 182.058594 154.285156 181.917969 154.3125 181.6875 C 154.371094 181.167969 153.996094 180.875 153.652344 180.558594 C 153.277344 180.214844 152.898438 179.921875 152.453125 179.667969 C 151.585938 179.175781 150.644531 178.871094 149.730469 178.472656 C 148.828125 178.082031 147.957031 177.628906 147.0625 177.222656 C 146.097656 176.785156 145.160156 176.394531 144.296875 175.773438 C 143.785156 175.40625 143.121094 176.152344 143.566406 176.613281 C 144.300781 177.378906 145.136719 178.050781 146 178.664062 C 146.8125 179.238281 147.707031 179.8125 148.601562 180.253906 Z M 148.601562 180.253906 " fill-opacity="1" fill-rule="nonzero"/></g></g></g></g></svg>