<svg xmlns="http://www.w3.org/2000/svg" xmlns:xlink="http://www.w3.org/1999/xlink" width="500" zoomAndPan="magnify" viewBox="0 0 375 374.999991" height="500" preserveAspectRatio="xMidYMid meet" version="1.0"><defs><clipPath id="f0bb8ed1bf"><path d="M 0 0 L 375 0 L 375 250 L 0 250 Z M 0 0 " clip-rule="nonzero"/></clipPath><clipPath id="2725bee824"><path d="M -380.210938 26.410156 L 68.953125 -325.742188 L 455.34375 167.097656 L 6.183594 519.246094 Z M -380.210938 26.410156 " clip-rule="nonzero"/></clipPath><clipPath id="a33de5ceef"><path d="M -182.222656 142.796875 L 200.835938 -157.527344 L 455.34375 167.097656 L 72.289062 467.417969 Z M -182.222656 142.796875 " clip-rule="nonzero"/></clipPath><clipPath id="fc0b886b0a"><path d="M -380.199219 26.367188 L 68.964844 -325.78125 L 455.355469 167.054688 L 6.195312 519.207031 Z M -380.199219 26.367188 " clip-rule="nonzero"/></clipPath></defs><g clip-path="url(#f0bb8ed1bf)"><g clip-path="url(#2725bee824)"><g clip-path="url(#a33de5ceef)"><g clip-path="url(#fc0b886b0a)"><path fill="#a47052" d="M 438.410156 158.09375 C 431.554688 157.152344 424.15625 157.4375 417.496094 157.644531 C 413.03125 157.835938 408.6875 158.4375 404.347656 159.429688 C 400.421875 160.304688 396.203125 161.707031 392.273438 160.277344 C 384.839844 157.578125 378.625 155.535156 370.609375 156.703125 C 363.117188 157.765625 356.316406 160.992188 349.144531 163.105469 C 342.445312 165.050781 335.640625 163.667969 328.800781 163.515625 C 324.488281 163.386719 320.246094 163.605469 316.011719 164.21875 C 313.691406 162.925781 311.574219 161.378906 309.535156 159.667969 C 306.847656 157.265625 303.859375 154.09375 300.027344 153.6875 C 297.910156 153.542969 296.546875 155.515625 297.15625 157.445312 C 298.511719 161.09375 301.859375 164.082031 304.632812 166.722656 C 304.222656 166.84375 303.703125 166.949219 303.296875 167.066406 C 295.753906 169.472656 288.089844 173.773438 281.925781 178.707031 C 275.09375 184.066406 269.515625 190.644531 262.328125 195.679688 C 248.820312 205.066406 233.6875 209.308594 217.296875 207.722656 C 209.90625 206.996094 202.636719 205.277344 195.980469 201.773438 C 190.964844 199.089844 186.253906 195.765625 181.464844 192.601562 C 178.691406 189.960938 176.03125 187.332031 173.382812 184.597656 C 170.796875 181.8125 168.460938 178.832031 165.9375 175.996094 C 162.621094 172.277344 159.136719 168.089844 154.988281 165.230469 C 151.878906 163.054688 145.300781 161.191406 143.492188 165.921875 C 143.101562 166.828125 143.382812 168.210938 144.277344 168.714844 C 149.632812 171.832031 154.230469 177.054688 158.628906 182.027344 C 148.574219 179.183594 138.191406 178.097656 127.28125 178.128906 C 113.609375 178.21875 100.019531 177.644531 86.371094 177.515625 C 86.324219 177.453125 86.273438 177.390625 86.335938 177.34375 L 86.398438 177.292969 C 80.769531 170.878906 73.226562 166.765625 65.9375 162.453125 C 58.632812 158.253906 51.453125 153.957031 44.359375 149.390625 C 42.277344 148.015625 40.070312 146.738281 37.851562 145.570312 C 37.398438 144.222656 36.941406 142.875 36.363281 141.625 C 35.050781 138.542969 33.933594 135.707031 32.964844 132.554688 C 31.046875 126.140625 28.628906 120.113281 24.851562 114.65625 C 18.214844 104.914062 8.363281 98.101562 -2.453125 93.648438 C -13.957031 88.828125 -26.082031 85.902344 -37.523438 81.035156 C -40.039062 80 -42.589844 78.792969 -45.03125 77.597656 C -45.726562 76.839844 -46.484375 76.128906 -47.117188 75.324219 C -49.46875 72.453125 -51.921875 69.964844 -55.230469 68.046875 C -61.492188 64.535156 -69.109375 64.289062 -75.894531 62.289062 C -84.203125 59.882812 -87.195312 53.503906 -92.039062 47.074219 C -96.539062 41.078125 -102.917969 36.652344 -108.054688 31.253906 C -113.640625 25.40625 -119.117188 19.574219 -124.777344 13.886719 C -130.648438 8.0625 -136.792969 2.148438 -141.15625 -4.957031 C -148.824219 -17.292969 -154.503906 -31.191406 -157.441406 -45.433594 C -160.105469 -58.683594 -167.441406 -74.691406 -182.539062 -76.289062 C -184.53125 -76.53125 -185.199219 -73.800781 -183.382812 -73.019531 C -176.179688 -69.84375 -170.878906 -64.875 -167.882812 -57.597656 C -165.222656 -51.261719 -165.109375 -44.332031 -163.71875 -37.699219 C -162.578125 -32.28125 -160.808594 -26.949219 -158.800781 -21.703125 C -161.035156 -22.761719 -163.28125 -23.707031 -165.257812 -24.566406 C -168.460938 -25.964844 -170.652344 -27.351562 -173.03125 -30 C -174.871094 -31.964844 -176.578125 -34.140625 -178.40625 -36.214844 C -186.683594 -45.367188 -198.59375 -50.066406 -206.886719 -59.105469 C -208.824219 -61.195312 -211.867188 -58.808594 -210.363281 -56.378906 C -203.644531 -45.503906 -190.835938 -40.808594 -182.71875 -31.226562 C -179.03125 -26.902344 -175.3125 -22.800781 -171.292969 -18.828125 C -168.828125 -16.449219 -165.796875 -15.015625 -162.71875 -13.519531 C -162.398438 -13.371094 -162.09375 -13.109375 -161.773438 -12.957031 C -164.222656 -12.242188 -166.734375 -11.476562 -169.144531 -10.585938 C -176.199219 -8.066406 -183.097656 -4.964844 -190.621094 -4.578125 C -197.121094 -4.296875 -203.457031 -5.34375 -209.625 -7.324219 C -215.621094 -9.34375 -222.535156 -12.144531 -226.078125 -17.6875 C -226.550781 -18.421875 -227.402344 -18.355469 -227.960938 -17.917969 C -228.457031 -17.527344 -228.761719 -16.886719 -228.449219 -16.234375 C -225.4375 -10.472656 -219.183594 -6.847656 -213.519531 -3.972656 C -207.066406 -0.605469 -199.96875 2.046875 -192.835938 3.472656 C -184.9375 5.101562 -176.6875 2.445312 -169.300781 -0.0351562 C -165.382812 -1.304688 -161.480469 -2.859375 -157.464844 -4.003906 C -155.425781 -4.601562 -153.105469 -4.714844 -150.917969 -5.125 C -149.769531 -3.019531 -148.621094 -0.910156 -147.394531 1.035156 C -139.058594 14.355469 -126.863281 25.046875 -116.355469 36.660156 C -111.355469 42.265625 -105.460938 46.96875 -100.527344 52.625 C -95.835938 57.96875 -92.273438 64.304688 -85.835938 67.78125 C -79.082031 71.40625 -71.46875 72.15625 -64.269531 74.433594 C -63.347656 74.710938 -62.5 75.152344 -61.59375 75.542969 C -60.664062 76.21875 -59.730469 76.890625 -58.738281 77.515625 C -53.132812 81.34375 -48 85.84375 -42.128906 89.363281 C -31.714844 95.734375 -19.964844 98.953125 -8.792969 103.730469 C 2.007812 108.296875 11.15625 114.460938 17.203125 124.863281 C 20.023438 129.867188 22.125 135.238281 24.824219 140.34375 C 23.902344 140.0625 22.96875 139.894531 22.046875 139.613281 C 18.429688 138.839844 14.785156 138.285156 10.953125 138.386719 C 3.40625 138.484375 -3.605469 140.675781 -10.945312 142.316406 C -13.304688 142.761719 -15.574219 142.9375 -17.878906 142.941406 C -19.730469 141.988281 -21.371094 140.664062 -22.882812 139.246094 C -26.609375 135.648438 -29.757812 131.5 -33.804688 128.257812 C -42.355469 121.320312 -54.128906 120.125 -64.210938 116.601562 C -69.445312 114.789062 -74.945312 112.382812 -78.078125 107.617188 C -81.632812 102.183594 -83.328125 96.695312 -88.875 92.820312 C -98.925781 85.761719 -112.621094 84.667969 -121.617188 75.878906 C -122.875 74.660156 -124.476562 76.714844 -123.613281 77.945312 C -121.390625 81.417969 -118.414062 84.195312 -115.046875 86.570312 C -108.375 91.367188 -100.1875 94.773438 -93.847656 99.527344 C -89.421875 102.875 -87.96875 108.054688 -85.253906 112.539062 L -85.007812 112.851562 C -84.390625 113.769531 -83.769531 114.6875 -83.027344 115.507812 C -82.625 115.894531 -82.28125 116.328125 -81.816406 116.667969 C -81.269531 117.238281 -80.609375 117.824219 -79.949219 118.410156 C -81.8125 118.464844 -83.75 118.683594 -85.664062 119.179688 C -94.191406 121.355469 -102.582031 127.03125 -111.621094 124.589844 C -121.640625 121.917969 -130.515625 115.84375 -140.632812 113.046875 C -142.808594 112.445312 -144.195312 115.539062 -141.9375 116.375 C -140.378906 116.957031 -138.832031 117.648438 -137.359375 118.5 C -137.3125 118.5625 -137.25 118.515625 -137.199219 118.578125 C -129.621094 122.359375 -122.890625 127.613281 -114.933594 130.597656 C -106.117188 133.914062 -98.578125 132.011719 -89.96875 129.171875 C -85.8125 127.820312 -81.558594 126.589844 -77.148438 126.84375 C -72.566406 127.058594 -68.226562 128.371094 -63.785156 129.300781 C -59.617188 130.140625 -55.34375 130.601562 -51.039062 130.335938 C -50.40625 130.242188 -49.777344 130.148438 -49.210938 130.105469 C -44.46875 131.804688 -40.066406 133.964844 -36.402344 137.613281 C -35.453125 138.570312 -34.304688 139.777344 -33.011719 141.167969 C -33.675781 141.089844 -34.28125 140.960938 -34.773438 140.84375 C -34.945312 140.878906 -35.105469 140.804688 -35.214844 140.789062 C -42.710938 139.546875 -49.28125 139.484375 -56.574219 141.695312 C -60.199219 142.832031 -63.738281 144.203125 -67.609375 144.128906 C -71.085938 144.046875 -74.527344 143.238281 -77.964844 142.824219 C -85.878906 141.808594 -91.863281 143.390625 -98.644531 147.40625 C -102.21875 149.507812 -106.351562 148.835938 -110.371094 148.578125 C -115.382812 148.195312 -120.554688 147.738281 -125.222656 145.882812 C -127.039062 145.101562 -128.792969 147.980469 -127.003906 148.984375 C -126.796875 149.121094 -126.523438 149.210938 -126.253906 149.300781 C -126.191406 149.25 -126.09375 149.375 -126.09375 149.375 C -119.914062 152.652344 -113.238281 153.234375 -106.332031 154.234375 C -103.355469 154.707031 -100.488281 155.167969 -97.527344 154.851562 C -94.785156 154.507812 -92.441406 153.273438 -89.757812 152.472656 C -82.761719 150.394531 -75.839844 153.589844 -68.792969 153.878906 C -61.300781 154.222656 -55.519531 150.59375 -48.476562 149.082031 C -40.570312 147.394531 -32.035156 150.730469 -24.292969 151.777344 C -22.742188 151.964844 -21.289062 152.03125 -19.769531 152.046875 C -16.875 153.179688 -13.980469 153.417969 -11.175781 151.621094 C -11.050781 151.523438 -10.976562 151.363281 -10.914062 151.316406 C -7.75 150.742188 -4.636719 150.105469 -1.339844 149.324219 C 5.085938 147.796875 11.703125 147.019531 18.25 148.203125 C 24.144531 149.199219 29.242188 152.117188 34.316406 155.261719 C 46.539062 162.921875 58.925781 170.65625 71.566406 177.695312 C 71.109375 177.75 70.601562 177.746094 70.144531 177.804688 C 63.363281 178.109375 56.648438 178.757812 50.054688 179.816406 C 40.203125 181.328125 30.707031 181.753906 20.808594 181.792969 C 18.34375 181.722656 15.800781 181.808594 13.214844 181.832031 C 10.664062 181.523438 8.039062 181.375 5.449219 181.402344 C 1.457031 181.421875 -2.605469 182 -6.519531 182.765625 C -11.140625 183.78125 -16.410156 185.503906 -20.691406 188.359375 C -25.886719 189.027344 -31.121094 190.921875 -36.25 191.933594 C -43.214844 193.285156 -50.175781 194.132812 -57.242188 194.457031 C -63.855469 194.726562 -69.683594 194.585938 -75.9375 192.367188 C -82.300781 190.136719 -87.925781 186.929688 -94.867188 187.160156 C -102.316406 187.382812 -108.269531 187.339844 -115.519531 185 C -119.957031 183.566406 -124.386719 181.625 -128.742188 179.523438 C -128.789062 179.460938 -128.726562 179.414062 -128.726562 179.414062 C -128.546875 177.46875 -130.902344 176.003906 -132.46875 177.332031 L -132.714844 177.527344 C -133.878906 176.9375 -135.109375 176.394531 -136.273438 175.804688 C -148.042969 169.492188 -157.265625 159.777344 -167.3125 151.3125 C -177.25 142.859375 -191.398438 132.492188 -205.136719 133.136719 C -206.886719 133.207031 -207.023438 135.71875 -205.574219 136.289062 C -205.144531 136.453125 -204.765625 136.554688 -204.398438 136.769531 C -200.367188 138.324219 -196.578125 139.960938 -192.886719 141.980469 C -192.308594 142.332031 -191.78125 142.621094 -191.144531 142.921875 C -189.894531 143.75 -188.632812 144.464844 -187.398438 145.398438 C -181.707031 149.460938 -176.59375 154.574219 -171.550781 159.34375 C -165.894531 164.636719 -160.117188 169.832031 -154.109375 174.546875 C -154.949219 174.503906 -155.738281 174.519531 -156.636719 174.523438 C -157.476562 174.480469 -158.328125 174.546875 -159.179688 174.609375 C -159.121094 173.664062 -159.515625 172.769531 -160.570312 172.195312 C -162.632812 171.101562 -165.65625 172.871094 -167.832031 173.171875 C -173.546875 173.945312 -179.664062 172.023438 -185.050781 170.53125 C -187.988281 169.726562 -191.015625 169.191406 -193.980469 170.015625 C -196.714844 170.75 -199.066406 172.996094 -202.003906 172.191406 C -207.660156 170.609375 -212.285156 166.117188 -217.777344 164.101562 C -225.097656 161.421875 -232.988281 160.1875 -239.433594 155.414062 C -241.296875 154.066406 -243.320312 156.859375 -241.535156 158.367188 C -239.703125 159.9375 -237.71875 161.1875 -235.546875 162.292969 L -235.5 162.355469 C -231.890625 164.140625 -228.121094 165.496094 -224.238281 166.863281 C -221.375 167.828125 -218.511719 168.792969 -216.078125 170.492188 C -213.738281 172.066406 -211.460938 173.691406 -209 175.171875 C -206.953125 176.371094 -204.859375 177.636719 -202.496094 178.09375 C -199.382812 178.863281 -196.945312 177.75 -194.160156 176.570312 C -191.199219 175.351562 -188.644531 176.054688 -185.667969 177.03125 C -182.632812 177.960938 -179.523438 178.730469 -176.449219 179.328125 C -173.972656 179.792969 -170.996094 180.265625 -168.21875 180.097656 C -166.757812 180.554688 -165.28125 180.902344 -163.683594 181.148438 C -160.800781 181.5 -158.105469 181.992188 -155.4375 182.707031 C -155.328125 182.722656 -155.328125 182.722656 -155.328125 182.722656 C -154.503906 182.878906 -153.679688 183.035156 -152.917969 183.238281 C -153.484375 183.28125 -154.101562 183.265625 -154.730469 183.355469 C -164.175781 184.746094 -170.769531 189.515625 -177.890625 195.398438 C -183.261719 199.808594 -189.382812 203.007812 -195.988281 205.074219 C -202.480469 207.15625 -211.03125 209.046875 -216.5 203.609375 C -218.109375 202.066406 -220.878906 204.035156 -219.355469 205.847656 C -217.675781 207.738281 -215.703125 209.101562 -213.394531 210 L -213.347656 210.0625 C -212.820312 210.351562 -212.277344 210.527344 -211.675781 210.65625 C -211.292969 210.757812 -210.914062 210.859375 -210.53125 210.960938 C -209.609375 211.242188 -208.738281 211.460938 -207.800781 211.628906 C -206.421875 211.851562 -204.984375 212.027344 -203.527344 212.089844 C -202.136719 212.203125 -200.730469 212.203125 -199.265625 212.15625 C -191.359375 211.875 -182.839844 209.304688 -176.238281 204.929688 C -172.390625 202.417969 -169.050781 198.996094 -165.191406 196.371094 C -160.710938 193.257812 -155.398438 192.101562 -149.972656 191.859375 C -145.382812 191.570312 -140.714844 192.019531 -136.394531 190.238281 C -135.328125 189.804688 -134.398438 189.074219 -133.515625 188.28125 C -132.40625 188.414062 -131.347656 188.484375 -130.226562 188.507812 C -126.195312 190.0625 -122.203125 191.445312 -117.949219 192.519531 C -110.964844 194.265625 -104.28125 193.835938 -97.292969 194.171875 C -93.941406 194.355469 -90.804688 194.902344 -87.773438 196.335938 C -84.3125 197.933594 -81.714844 200.609375 -78.378906 202.304688 C -72.332031 205.285156 -65.070312 205.207031 -58.535156 205.09375 C -50.421875 204.949219 -42.136719 203.871094 -34.121094 202.199219 C -32.675781 201.867188 -31.230469 201.535156 -29.609375 201.167969 C -31.550781 202.789062 -33.367188 204.3125 -35.292969 205.824219 L -36.597656 206.847656 C -42.472656 211.25 -49.0625 214.617188 -54.742188 219.269531 C -56.917969 220.976562 -55.375 224.476562 -52.636719 224.132812 C -45.640625 223.460938 -39.027344 219.480469 -33.234375 215.742188 C -32.984375 215.546875 -32.625 215.363281 -32.378906 215.167969 C -26.457031 211.332031 -21.054688 207.09375 -15.28125 203.070312 C -6.988281 197.269531 3.574219 196.40625 13.160156 193.40625 C 20.90625 193.949219 28.570312 194.253906 36.242188 194.058594 C 36.699219 194 37.140625 194.054688 37.597656 193.996094 C 45.910156 193.597656 54.148438 191.949219 62.515625 191.105469 C 79.027344 189.390625 95.332031 191.246094 111.914062 191.28125 C 128.320312 191.351562 146.175781 189.6875 161.527344 196.601562 C 175.8125 203.046875 187.160156 215.605469 202.488281 219.929688 C 205.699219 220.824219 208.996094 221.449219 212.257812 221.898438 C 211.789062 222.066406 211.320312 222.234375 210.847656 222.402344 C 210.675781 222.4375 210.613281 222.484375 210.441406 222.523438 C 207.308594 223.773438 204.078125 224.902344 200.730469 225.621094 C 194.542969 227.066406 189.023438 228.984375 183.46875 232.136719 C 177.777344 235.496094 172.203125 239.265625 165.765625 240.902344 C 154.675781 243.78125 141.613281 243.496094 131.019531 239.066406 C 128.933594 238.195312 126.964844 241.445312 129.011719 242.648438 C 133.902344 245.429688 139.308594 247.207031 144.96875 248.285156 C 145.015625 248.347656 145.1875 248.3125 145.347656 248.386719 C 150.960938 249.402344 156.589844 249.800781 162.003906 249.667969 C 175.355469 249.425781 184.660156 239.925781 196.769531 236.046875 C 202.964844 234.097656 209.285156 232.949219 215.363281 230.59375 C 221.253906 228.382812 226.867188 225.6875 232.574219 223.117188 C 233.464844 222.71875 234.359375 222.320312 235.25 221.921875 C 240.175781 221.167969 245.082031 220.128906 249.78125 218.449219 C 258.042969 215.679688 265.816406 211.390625 272.945312 206.40625 C 280.070312 201.417969 285.488281 194.765625 292.371094 189.46875 C 298.757812 184.5625 306.636719 181.691406 314.46875 180.164062 C 322.300781 178.636719 329.640625 179.300781 337.414062 179.621094 C 346.363281 180.027344 353.878906 177.84375 362.15625 174.964844 C 369.492188 172.421875 376.683594 170.589844 384.0625 173.730469 C 388.492188 175.671875 392.734375 176.859375 397.667969 176.5 C 402.714844 176.152344 407.699219 174.449219 412.785156 173.773438 C 417.585938 173.117188 422.417969 173.136719 427.222656 173.378906 C 432.375 173.554688 437.972656 174.679688 443.039062 173.714844 C 447.410156 172.894531 449.5625 169.5 449.460938 165.273438 C 449.433594 164.089844 449.222656 163.050781 448.976562 161.84375 C 448.730469 160.632812 448.121094 159.601562 447.378906 158.78125 C 445.050781 156.195312 441.011719 155.652344 438.410156 158.09375 Z M 438.410156 158.09375 " fill-opacity="1" fill-rule="nonzero"/><path fill="#7f4c38" d="M -213.519531 -3.972656 C -219.183594 -6.847656 -225.4375 -10.472656 -228.445312 -16.234375 C -228.761719 -16.886719 -228.457031 -17.527344 -227.960938 -17.917969 C -223.078125 -13.222656 -218.441406 -8.335938 -212.773438 -4.558594 C -212.351562 -4.785156 -211.832031 -4.894531 -211.242188 -4.652344 C -209.28125 -3.6875 -207.332031 -2.605469 -205.417969 -1.699219 C -194.476562 2.65625 -181.703125 1.164062 -170.625 -2.109375 C -167.472656 -3.078125 -164.417969 -4.167969 -161.347656 -5.371094 C -158.980469 -6.324219 -156.335938 -8.195312 -153.734375 -8.332031 C -150.910156 -8.441406 -149.285156 -7.007812 -148.355469 -4.925781 C -145.578125 -1.894531 -143.382812 1.800781 -140.679688 4.996094 C -137.195312 9.183594 -133.648438 13.320312 -129.980469 17.363281 C -122.835938 25.195312 -115.863281 33.066406 -108.71875 40.898438 C -105.097656 44.878906 -101.597656 48.953125 -98.164062 53.078125 C -95.652344 56.023438 -92.953125 59.722656 -89.789062 62.355469 C -93.453125 57.808594 -97.4375 53.109375 -99.875 47.703125 C -100.039062 47.230469 -99.335938 46.980469 -99.105469 47.402344 C -96.171875 52.421875 -91.816406 56.824219 -87.628906 60.761719 C -85.917969 62.429688 -84.035156 64.0625 -82.003906 65.375 C -81.121094 65.988281 -80.164062 66.441406 -79.144531 66.84375 C -73.941406 67.980469 -68.4375 68.476562 -63.664062 70.851562 C -62.074219 70.707031 -60.039062 72.019531 -58.828125 72.671875 C -56.878906 73.75 -54.832031 74.953125 -52.832031 76.09375 C -50.515625 77.386719 -48.351562 78.996094 -45.957031 80.128906 C -43.722656 81.1875 -41.527344 82.070312 -39.644531 83.703125 C -38.742188 84.597656 -39.816406 86.042969 -40.90625 85.292969 C -42.570312 84.191406 -44.449219 83.460938 -46.265625 82.675781 C -43.96875 84.585938 -41.65625 86.382812 -39.378906 88.007812 C -30.003906 94.59375 -19.601562 97.367188 -9.078125 101.449219 C 0.105469 104.976562 10.152344 108.832031 15.5 117.574219 C 18.265625 122.125 19.136719 127.457031 21.542969 132.1875 C 24.289062 137.355469 28.449219 141.511719 30.898438 146.808594 C 31.261719 147.527344 30.328125 148.257812 29.65625 147.785156 C 26.683594 145.402344 24.148438 142.675781 22.046875 139.613281 C 22.96875 139.894531 23.902344 140.0625 24.824219 140.34375 C 22.125 135.238281 20.023438 129.867188 17.203125 124.863281 C 11.15625 114.460938 2.007812 108.296875 -8.792969 103.734375 C -19.964844 98.953125 -31.714844 95.734375 -42.128906 89.363281 C -48 85.84375 -53.132812 81.34375 -58.738281 77.515625 C -59.730469 76.890625 -60.664062 76.21875 -61.59375 75.542969 C -62.5 75.152344 -63.347656 74.710938 -64.269531 74.433594 C -71.46875 72.15625 -79.082031 71.40625 -85.835938 67.78125 C -92.273438 64.304688 -95.835938 57.96875 -100.527344 52.625 C -105.460938 46.96875 -111.355469 42.265625 -116.355469 36.660156 C -126.863281 25.046875 -139.058594 14.355469 -147.394531 1.035156 C -148.621094 -0.910156 -149.769531 -3.015625 -150.917969 -5.125 C -153.105469 -4.714844 -155.425781 -4.601562 -157.464844 -4.003906 C -161.480469 -2.859375 -165.382812 -1.304688 -169.300781 -0.0351562 C -176.6875 2.445312 -184.9375 5.101562 -192.835938 3.472656 C -199.96875 2.046875 -207.066406 -0.605469 -213.519531 -3.972656 Z M -97.527344 154.851562 C -94.785156 154.507812 -92.441406 153.273438 -89.757812 152.472656 C -82.761719 150.394531 -75.839844 153.589844 -68.792969 153.878906 C -61.300781 154.222656 -55.519531 150.59375 -48.476562 149.082031 C -40.570312 147.394531 -32.035156 150.730469 -24.292969 151.78125 C -22.742188 151.964844 -21.289062 152.03125 -19.769531 152.046875 C -16.875 153.179688 -13.980469 153.417969 -11.175781 151.621094 C -11.050781 151.523438 -10.976562 151.363281 -10.914062 151.316406 C -7.75 150.742188 -4.636719 150.105469 -1.339844 149.324219 C 5.085938 147.796875 11.703125 147.019531 18.25 148.203125 C 24.144531 149.199219 29.242188 152.117188 34.316406 155.261719 C 46.539062 162.921875 58.925781 170.65625 71.566406 177.695312 C 71.109375 177.75 70.601562 177.746094 70.144531 177.804688 C 72.367188 178.972656 74.671875 179.867188 77.269531 180.238281 C 78.109375 180.285156 78.339844 179.300781 77.777344 178.839844 C 74.75 176 71.058594 173.980469 67.769531 171.445312 C 64.160156 168.761719 60.660156 166.089844 56.777344 163.820312 C 52.9375 161.613281 48.953125 159.726562 45.191406 157.363281 C 41.480469 155.058594 37.890625 152.65625 34.089844 150.625 C 27.394531 146.949219 19.960938 144.757812 12.253906 144.78125 C 11.355469 144.785156 10.492188 144.960938 9.640625 145.027344 C 8.914062 144.996094 8.1875 144.964844 7.507812 144.996094 C 6.386719 144.972656 5.1875 145.109375 4.003906 145.136719 C 1.527344 145.171875 -0.964844 145.320312 -3.441406 145.359375 C -8.289062 145.449219 -13.257812 145.636719 -18.097656 146.121094 C -18.664062 146.164062 -18.675781 147.171875 -18.058594 147.191406 C -13.558594 147.175781 -9.113281 147.597656 -4.6875 147.738281 C -9.046875 148.449219 -13.144531 150.257812 -17.71875 150.4375 C -22.40625 150.601562 -27.730469 149.058594 -32.371094 148.386719 C -41.429688 147.066406 -49.515625 144.683594 -57.960938 147.09375 C -59.699219 147.050781 -61.375 146.960938 -63.101562 146.808594 C -67.496094 146.449219 -71.878906 145.972656 -76.21875 146.96875 C -77.144531 147.195312 -77.023438 148.5 -76.109375 148.386719 C -71.824219 147.835938 -67.480469 148.640625 -63.332031 149.199219 C -66.195312 150.539062 -68.65625 151.367188 -72.113281 150.667969 C -74.523438 150.152344 -76.867188 149.082031 -79.339844 148.613281 C -83.84375 147.734375 -88.144531 148.902344 -92.488281 150.398438 C -98.648438 152.523438 -103.699219 153.375 -110.183594 152.140625 C -115.511719 151.105469 -120.722656 149.574219 -126.09375 149.375 C -119.914062 152.652344 -113.238281 153.234375 -106.332031 154.234375 C -103.355469 154.707031 -100.488281 155.167969 -97.527344 154.851562 Z M -89.96875 129.171875 C -85.8125 127.820312 -81.558594 126.589844 -77.148438 126.84375 C -72.566406 127.058594 -68.226562 128.371094 -63.785156 129.300781 C -59.617188 130.140625 -55.34375 130.601562 -51.039062 130.335938 C -50.40625 130.242188 -49.777344 130.148438 -49.210938 130.105469 C -44.46875 131.804688 -40.066406 133.964844 -36.402344 137.613281 C -35.453125 138.570312 -34.304688 139.777344 -33.011719 141.167969 C -33.675781 141.089844 -34.28125 140.960938 -34.773438 140.84375 C -32.140625 142.792969 -29.503906 144.234375 -26.125 145.09375 C -25.792969 145.132812 -25.738281 144.691406 -26.007812 144.601562 C -34.1875 140.183594 -38.125 127.230469 -48.398438 126.660156 C -48.902344 126.65625 -49.359375 126.714844 -49.867188 126.710938 C -50.25 126.605469 -50.628906 126.503906 -50.960938 126.464844 C -52.386719 126.179688 -53.753906 125.847656 -55.167969 125.453125 C -58.644531 124.46875 -61.761719 122.800781 -64.984375 121.117188 C -65.785156 120.738281 -66.621094 122.101562 -65.839844 122.585938 C -64.050781 123.589844 -62.433594 124.628906 -60.691406 125.570312 C -59.476562 126.222656 -58.175781 126.605469 -56.886719 127.097656 C -58.574219 127.117188 -60.25 127.03125 -62.03125 126.421875 C -66.308594 125.0625 -70.269531 122.953125 -74.789062 122.6875 C -79.375 122.46875 -83.742188 124.191406 -88.113281 125.011719 C -93.601562 126.203125 -98.570312 128.695312 -103.992188 129.839844 C -115.71875 132.414062 -126.753906 121.917969 -137.199219 118.578125 C -129.621094 122.359375 -122.890625 127.613281 -114.933594 130.597656 C -106.117188 133.914062 -98.578125 132.011719 -89.96875 129.171875 Z M -85.007812 112.851562 C -83.984375 114.15625 -82.964844 115.460938 -81.816406 116.667969 C -81.269531 117.238281 -80.609375 117.824219 -79.949219 118.410156 C -77.539062 120.332031 -74.449219 121.714844 -71.578125 120.769531 C -71.105469 120.601562 -71.074219 119.875 -71.441406 119.664062 C -72.484375 118.972656 -73.640625 118.777344 -74.742188 118.140625 C -75.625 117.527344 -76.371094 116.707031 -77.125 115.996094 C -78.871094 114.15625 -80.054688 111.875 -81.550781 109.839844 C -85.175781 104.960938 -89.171875 100.375 -93.667969 96.179688 C -97.453125 92.628906 -101.628906 90.886719 -106.339844 88.96875 C -108.636719 87.960938 -112.277344 86.003906 -115.046875 86.570312 C -108.375 91.367188 -100.1875 94.773438 -93.847656 99.527344 C -89.421875 102.875 -87.96875 108.054688 -85.253906 112.542969 Z M -216.078125 170.492188 C -213.738281 172.066406 -211.460938 173.691406 -209 175.171875 C -206.953125 176.371094 -204.859375 177.636719 -202.496094 178.09375 C -199.382812 178.863281 -196.945312 177.75 -194.160156 176.570312 C -191.199219 175.351562 -188.644531 176.054688 -185.667969 177.03125 C -182.632812 177.960938 -179.523438 178.730469 -176.449219 179.328125 C -173.972656 179.792969 -170.996094 180.265625 -168.21875 180.097656 C -166.757812 180.554688 -165.28125 180.902344 -163.683594 181.152344 C -160.800781 181.5 -158.105469 181.992188 -155.4375 182.707031 C -155.328125 182.722656 -155.328125 182.722656 -155.328125 182.722656 C -153.042969 182.4375 -150.761719 182.148438 -148.371094 182.382812 C -147.53125 182.425781 -147.148438 181.125 -148.023438 180.90625 C -151.183594 180.074219 -154.230469 180.15625 -157.46875 179.988281 C -161.214844 179.816406 -164.984375 179.363281 -168.640625 178.921875 C -172.421875 178.578125 -176.347656 178.046875 -179.972656 176.878906 C -182.960938 176.011719 -185.96875 174.859375 -189.121094 174.421875 C -194.929688 173.664062 -200.347656 176.609375 -206.007812 174.125 C -206.804688 173.75 -207.601562 173.371094 -208.347656 173.054688 C -213.242188 170.273438 -218.597656 168.558594 -223.414062 165.613281 C -224.085938 165.140625 -224.714844 165.234375 -225.308594 165.496094 C -226.207031 164.996094 -227.085938 164.382812 -227.996094 163.992188 C -230.339844 162.921875 -232.839844 162.675781 -235.261719 162.273438 C -235.375 162.257812 -235.484375 162.246094 -235.5 162.355469 C -231.890625 164.140625 -228.121094 165.496094 -224.238281 166.863281 C -221.375 167.828125 -218.511719 168.792969 -216.078125 170.492188 Z M -213.347656 210.0625 C -212.820312 210.351562 -212.277344 210.527344 -211.675781 210.65625 C -212.054688 210.554688 -212.421875 210.339844 -212.792969 210.128906 C -213 209.992188 -213.222656 209.964844 -213.347656 210.0625 Z M -29.609375 201.167969 C -31.550781 202.789062 -33.367188 204.3125 -35.292969 205.824219 C -34.945312 205.753906 -34.585938 205.570312 -34.289062 205.4375 C -29.421875 203.328125 -25.734375 199.332031 -22.28125 195.421875 C -21.878906 194.90625 -22.636719 194.199219 -23.085938 194.648438 C -27.328125 198.578125 -33.769531 200.21875 -39.078125 202.273438 L -39.140625 202.324219 C -40.136719 202.203125 -41.121094 201.972656 -42.132812 201.960938 C -43.472656 201.910156 -44.757812 201.8125 -46.113281 201.875 C -47.253906 201.566406 -48.414062 201.371094 -49.632812 201.222656 C -52.746094 200.960938 -55.847656 201.484375 -58.976562 201.332031 C -64.472656 201.230469 -69.441406 198.605469 -74.347656 196.4375 C -74.9375 196.199219 -75.503906 197.144531 -74.925781 197.492188 C -71.007812 199.933594 -66.742188 202.304688 -62.125 203.199219 C -63.644531 203.183594 -65.082031 203.011719 -66.636719 202.824219 C -68.996094 202.371094 -71.484375 202.011719 -73.769531 201.398438 C -74.25 201.171875 -74.726562 200.945312 -75.144531 200.671875 C -75.304688 200.597656 -75.414062 200.582031 -75.523438 200.570312 C -79.78125 198.59375 -82.503906 194.609375 -86.949219 192.78125 C -90.4375 191.402344 -94.457031 191.648438 -98.144531 191.933594 C -103.414062 192.253906 -107.378906 192.054688 -112.507812 190.761719 C -115.460938 190.066406 -118.625 189.742188 -121.472656 188.667969 C -123.035156 188.085938 -124.457031 187.292969 -125.902344 186.726562 C -127.144531 186.292969 -128.671875 185.886719 -130.027344 185.945312 C -132.828125 184.933594 -136.8125 185.351562 -139.582031 185.917969 C -143.308594 186.535156 -146.101562 189.625 -149.816406 190.132812 C -153.015625 190.535156 -156.015625 189.777344 -159.214844 190.683594 C -160.898438 191.101562 -162.445312 191.8125 -164.054688 192.574219 C -165.621094 192.496094 -167.296875 192.40625 -168.867188 192.835938 C -170.71875 193.285156 -172.175781 194.628906 -173.667969 195.796875 C -177.457031 198.769531 -181.246094 201.738281 -185.328125 204.339844 C -187.449219 205.601562 -190.003906 207.203125 -192.53125 207.179688 C -194.046875 207.164062 -195.191406 206.859375 -196.628906 207.582031 C -197.410156 207.996094 -196.894531 209.292969 -196.0625 208.945312 C -194.464844 208.292969 -192.664062 209.1875 -191.007812 208.992188 C -189.183594 208.765625 -187.386719 207.855469 -185.714844 207.046875 C -181.476562 205.027344 -177.617188 202.402344 -174 199.46875 C -172.433594 198.136719 -170.738281 196.207031 -168.730469 195.4375 C -168.609375 195.339844 -168.496094 195.351562 -168.386719 195.367188 C -168.636719 195.5625 -168.871094 195.644531 -169.117188 195.839844 C -175.84375 201.210938 -180.558594 208.117188 -189.335938 210.488281 C -193.402344 211.570312 -197.5 211.976562 -201.695312 211.355469 C -204.566406 210.898438 -208.703125 211.632812 -211.675781 210.65625 C -207.792969 212.023438 -203.382812 212.277344 -199.265625 212.15625 C -191.359375 211.875 -182.839844 209.304688 -176.238281 204.929688 C -172.390625 202.417969 -169.050781 198.996094 -165.191406 196.371094 C -160.710938 193.257812 -155.398438 192.101562 -149.972656 191.859375 C -145.382812 191.570312 -140.714844 192.019531 -136.394531 190.238281 C -135.328125 189.804688 -134.398438 189.074219 -133.515625 188.28125 C -132.40625 188.414062 -131.347656 188.484375 -130.226562 188.507812 C -126.195312 190.0625 -122.203125 191.445312 -117.949219 192.523438 C -110.964844 194.265625 -104.28125 193.835938 -97.292969 194.171875 C -93.941406 194.355469 -90.804688 194.902344 -87.773438 196.335938 C -84.3125 197.933594 -81.714844 200.609375 -78.378906 202.304688 C -72.332031 205.285156 -65.070312 205.207031 -58.535156 205.09375 C -50.421875 204.953125 -42.136719 203.871094 -34.121094 202.199219 C -32.675781 201.867188 -31.230469 201.535156 -29.609375 201.167969 Z M -195.042969 140.765625 C -197.777344 139.199219 -201.101562 136.492188 -204.398438 136.769531 C -200.367188 138.324219 -196.578125 139.960938 -192.886719 141.980469 C -193.621094 141.554688 -194.308594 141.191406 -195.042969 140.765625 Z M -171.550781 159.34375 C -165.894531 164.636719 -160.117188 169.832031 -154.109375 174.550781 C -154.949219 174.503906 -155.738281 174.519531 -156.636719 174.523438 C -155.257812 175.648438 -153.648438 176.289062 -151.929688 176.046875 C -151.238281 175.90625 -151.242188 175.007812 -151.769531 174.71875 C -154.566406 173.199219 -156.625 172.109375 -158.671875 169.5 C -160.484375 167.3125 -161.988281 164.882812 -163.804688 162.695312 C -168.054688 157.40625 -173.902344 153.269531 -179.464844 149.503906 C -183.195312 146.917969 -187.234375 144.96875 -191.144531 142.921875 C -189.894531 143.75 -188.632812 144.464844 -187.398438 145.398438 C -181.707031 149.460938 -176.59375 154.574219 -171.550781 159.34375 Z M 161.527344 196.601562 C 175.8125 203.046875 187.160156 215.605469 202.488281 219.929688 C 205.699219 220.824219 208.996094 221.449219 212.257812 221.898438 C 211.789062 222.066406 211.320312 222.234375 210.847656 222.402344 C 211.949219 222.140625 213.109375 221.832031 214.097656 221.558594 C 214.570312 221.390625 214.441406 220.585938 213.9375 220.582031 C 207.808594 220.574219 202.832031 218.960938 197.878906 215.328125 C 192.554688 211.480469 186.789062 208.476562 181.316406 204.949219 C 178.863281 203.359375 176.5625 201.957031 173.886719 200.847656 C 172.4375 200.277344 170.628906 199.890625 169.59375 198.699219 C 168.847656 197.878906 168.871094 196.757812 168.128906 195.9375 C 167.445312 195.066406 166.351562 194.824219 165.445312 194.429688 C 164.265625 193.953125 163.226562 193.265625 162.09375 192.847656 C 159.273438 191.550781 156.679688 190.675781 153.5625 190.410156 C 153.5625 190.410156 153.5 190.460938 153.390625 190.445312 C 149.863281 189.402344 146.246094 188.628906 142.601562 188.074219 C 143.171875 188.03125 143.785156 188.046875 144.417969 187.957031 C 146.515625 187.816406 148.597656 187.785156 150.765625 187.992188 C 152.648438 188.21875 154.644531 188.460938 156.574219 188.75 C 158.445312 189.089844 159.992188 189.78125 161.699219 190.550781 C 162.015625 190.699219 162.402344 190.296875 162.222656 189.9375 C 161.449219 188.441406 159.238281 187.667969 157.726562 187.148438 C 155.738281 186.398438 153.644531 186.035156 151.492188 185.71875 C 149.386719 185.464844 147.265625 185.320312 145.042969 185.558594 C 143.105469 185.773438 141.167969 185.988281 139.121094 186.191406 C 136.046875 185.597656 132.449219 186.511719 129.492188 186.320312 C 124.796875 186.089844 119.871094 185.441406 115.375 184.054688 C 113.46875 183.542969 111.578125 182.921875 109.492188 182.949219 C 107.410156 182.980469 105.46875 183.699219 103.390625 184.125 C 100.96875 184.621094 98.730469 184.066406 96.265625 183.996094 C 93.789062 184.03125 91.515625 184.714844 89.0625 184.53125 C 88.621094 184.476562 88.476562 185.191406 88.921875 185.242188 C 91.34375 185.648438 93.675781 185.425781 96.078125 185.546875 C 98.039062 185.613281 99.867188 186.285156 101.855469 186.132812 C 104.0625 186.003906 106.164062 185.359375 108.386719 185.121094 C 110.828125 184.910156 113.136719 185.808594 115.460938 186.59375 C 117.574219 187.242188 119.542969 187.707031 121.707031 187.910156 C 117.75 188.109375 113.746094 187.738281 109.675781 187.917969 C 104.484375 188.078125 99.3125 189.027344 94.167969 189.25 C 88.804688 189.445312 83.742188 187.597656 78.433594 187.347656 C 73.21875 187.226562 68.039062 188.679688 62.855469 189.234375 C 58.855469 189.761719 54.800781 189.835938 50.800781 190.363281 C 50.445312 190.039062 50.03125 189.765625 49.425781 189.636719 C 44.898438 188.976562 40.28125 189.488281 35.746094 189.332031 C 34.464844 189.234375 32.742188 189.082031 31.039062 189.214844 C 29.945312 188.96875 28.800781 188.664062 27.644531 188.464844 C 22.796875 187.65625 18 186.402344 13.046875 185.972656 C 7.703125 185.550781 2.671875 186.6875 -2.492188 188.03125 C -5.164062 188.71875 -7.941406 189.394531 -10.398438 190.617188 C -12.960938 191.824219 -14.851562 193.507812 -16.878906 195.398438 C -17.078125 195.65625 -16.835938 195.964844 -16.539062 195.832031 C -14.105469 194.328125 -11.332031 192.753906 -8.570312 191.792969 C -5.640625 190.796875 -2.40625 190.570312 0.59375 189.921875 C 5.90625 188.761719 10.535156 188.140625 15.9375 189.019531 C 19.078125 189.566406 22.152344 190.164062 25.292969 190.710938 C 24.785156 190.707031 24.328125 190.765625 23.824219 190.757812 C 20.433594 190.910156 16.996094 190.496094 13.640625 190.820312 C 7.136719 191.609375 -0.492188 191.476562 -6.476562 194.460938 C -12.339844 197.351562 -17.554688 202.34375 -22.613281 206.511719 C -25.871094 209.265625 -29.105469 212.304688 -32.378906 215.167969 C -26.457031 211.332031 -21.054688 207.09375 -15.28125 203.070312 C -6.988281 197.269531 3.574219 196.410156 13.160156 193.40625 C 20.90625 193.949219 28.570312 194.257812 36.242188 194.058594 C 36.699219 194 37.140625 194.054688 37.597656 193.996094 C 45.910156 193.597656 54.148438 191.949219 62.515625 191.105469 C 79.027344 189.390625 95.332031 191.246094 111.914062 191.28125 C 128.320312 191.351562 146.175781 189.6875 161.527344 196.601562 Z M 442.527344 166.796875 C 441.460938 168.636719 440.074219 169.421875 438.453125 169.789062 C 437.671875 169.300781 435.890625 169.59375 435.214844 169.625 C 433.207031 169.492188 431.050781 169.175781 429.019531 168.761719 C 426.277344 168.207031 423.410156 167.746094 420.578125 167.460938 C 419.027344 167.273438 417.460938 167.199219 415.925781 166.898438 C 414.449219 166.554688 412.910156 166.253906 411.457031 166.191406 C 408.105469 166.011719 404.855469 166.855469 401.566406 166.625 C 400.394531 166.542969 400.191406 168.203125 401.351562 168.398438 C 404.105469 168.84375 406.867188 168.785156 409.664062 168.898438 C 412.527344 168.960938 415.304688 169.691406 418.082031 170.421875 C 418.082031 170.421875 418.082031 170.421875 418.132812 170.484375 C 418.019531 170.46875 417.910156 170.457031 417.847656 170.503906 C 415 170.332031 412.320312 169.726562 409.484375 169.945312 C 403.363281 170.328125 397.988281 172.941406 391.902344 171.195312 C 387.15625 170.003906 383.222656 167.671875 378.160156 168.632812 C 375.691406 169.066406 373.375 170.078125 370.925781 170.796875 C 367.539062 171.847656 364.054688 172.269531 360.597656 172.976562 C 354.199219 174.285156 348.136719 176.53125 342.027344 178.210938 C 338.605469 177.683594 335.265625 177.898438 331.75 178.148438 C 325.617188 178.644531 319.40625 176.996094 313.242188 177.320312 C 317.210938 176.113281 321.261719 175.140625 325.4375 174.574219 C 332.222656 173.765625 338.871094 174.570312 345.601562 174.707031 C 351.605469 174.8125 357.191406 173.242188 362.640625 170.976562 C 363.046875 170.855469 363.03125 170.066406 362.527344 170.0625 C 359.320312 170.070312 356.410156 171.347656 353.410156 171.996094 C 350.183594 172.617188 346.917969 172.671875 343.691406 172.394531 C 337.015625 171.816406 330.535156 171.480469 323.800781 171.847656 C 317.003906 172.265625 310.78125 174.4375 304.566406 177 C 300.964844 178.421875 297.5 179.632812 293.742188 180.472656 C 290.097656 181.324219 287.265625 183.34375 283.933594 184.851562 C 282.933594 185.238281 283.546875 186.660156 284.488281 186.324219 C 288.234375 185.09375 291.421875 183.394531 295.324219 182.742188 C 295.667969 182.671875 296.015625 182.601562 296.359375 182.53125 C 289.617188 186.214844 283.835938 191.25 278.574219 197.078125 C 275.667969 199.257812 272.453125 201.175781 269.683594 203.144531 C 264.519531 206.792969 259.203125 210.761719 252.902344 212.191406 C 247.8125 213.375 242.46875 212.449219 237.421875 214.199219 C 234.773438 215.171875 232.382812 216.347656 229.601562 217.023438 C 227.6875 217.523438 225.894531 217.921875 224.425781 219.378906 C 223.667969 220.070312 224.59375 221.25 225.402344 220.617188 C 227.597656 219.199219 230.199219 219.0625 232.585938 218.394531 C 235.726562 217.539062 238.242188 216.265625 241.582031 216.050781 C 244.234375 215.980469 247.03125 216.09375 249.625 215.5625 C 252.332031 215.046875 255.089844 214.085938 257.6875 213.050781 C 260.117188 212.050781 262.445312 210.925781 264.726562 209.742188 C 263.65625 210.679688 262.535156 211.558594 261.371094 212.371094 C 260.023438 212.828125 258.671875 213.28125 257.324219 213.738281 C 251.867188 215.609375 246.699219 217.457031 240.933594 218.167969 C 238.886719 218.367188 235.8125 218.671875 234.183594 220.050781 C 231.3125 220.996094 228.980469 222.625 226.277344 224.042969 C 222.609375 226.015625 218.535156 226.703125 214.914062 228.738281 C 211.964844 230.351562 209.351562 231.496094 206.445312 232.269531 C 206.820312 231.976562 207.253906 231.636719 207.527344 231.222656 C 208.003906 230.546875 207.335938 229.566406 206.554688 229.980469 C 202.726562 231.878906 199.070312 233.742188 194.929688 234.984375 C 190.773438 236.335938 186.367188 236.984375 182.105469 237.820312 C 178.078125 238.570312 174.40625 239.644531 170.738281 241.617188 C 166.847656 243.566406 162.648438 242.945312 158.535156 243.964844 C 157.65625 244.253906 157.792969 245.449219 158.703125 245.335938 C 162.679688 245.027344 166.8125 245.695312 170.636719 244.304688 C 172.875 243.449219 174.96875 242.410156 177.230469 241.839844 C 179.542969 241.332031 181.839844 240.933594 184.199219 240.488281 C 184.828125 240.398438 185.519531 240.253906 186.210938 240.113281 C 183.980469 241.363281 181.75 242.609375 179.398438 243.449219 C 174.398438 245.265625 168.820312 245.828125 163.5625 246.539062 C 157.613281 247.394531 151.386719 248.667969 145.347656 248.386719 C 150.960938 249.402344 156.589844 249.800781 162.003906 249.667969 C 175.355469 249.425781 184.660156 239.925781 196.769531 236.046875 C 202.964844 234.097656 209.285156 232.949219 215.363281 230.59375 C 221.253906 228.382812 226.867188 225.6875 232.574219 223.117188 C 233.464844 222.71875 234.359375 222.320312 235.25 221.921875 C 240.175781 221.167969 245.082031 220.128906 249.78125 218.449219 C 258.042969 215.679688 265.816406 211.390625 272.945312 206.40625 C 280.070312 201.417969 285.488281 194.765625 292.371094 189.46875 C 298.757812 184.5625 306.636719 181.695312 314.46875 180.164062 C 322.300781 178.636719 329.640625 179.300781 337.414062 179.621094 C 346.363281 180.027344 353.878906 177.84375 362.15625 174.964844 C 369.492188 172.421875 376.683594 170.589844 384.0625 173.730469 C 388.492188 175.671875 392.734375 176.859375 397.667969 176.5 C 402.714844 176.152344 407.699219 174.449219 412.785156 173.773438 C 417.585938 173.117188 422.417969 173.136719 427.222656 173.378906 C 432.375 173.554688 437.972656 174.679688 443.039062 173.714844 C 447.410156 172.894531 449.5625 169.5 449.460938 165.273438 C 449.433594 164.089844 449.222656 163.050781 448.976562 161.84375 C 448.730469 160.632812 448.121094 159.601562 447.378906 158.78125 C 444.894531 160.730469 444.246094 163.742188 442.527344 166.796875 Z M -35.59375 89.289062 C -30.714844 93.277344 -25.488281 94.429688 -19.636719 96.261719 C -13.625 98.144531 -8.453125 102 -2.277344 103.390625 C 3.828125 104.769531 9.800781 109.273438 14.246094 113.632812 C 18.976562 118.269531 22.089844 123.445312 24.121094 129.730469 C 24.394531 130.578125 25.707031 130.171875 25.597656 129.328125 C 24.835938 123.503906 21.402344 117.953125 17.5625 113.625 C 15.558594 111.363281 13.257812 109.363281 10.796875 107.609375 C 8.324219 105.855469 5.804688 103.855469 3.167969 102.371094 C 0.347656 100.78125 -2.964844 100.40625 -5.929688 99.121094 C -9.210938 97.695312 -12.289062 95.78125 -15.667969 94.582031 C -18.996094 93.402344 -22.507812 93.210938 -25.886719 92.277344 C -29.183594 91.367188 -31.921875 89.144531 -35.308594 88.570312 C -35.722656 88.5 -35.886719 89.050781 -35.59375 89.289062 Z M -35.59375 89.289062 " fill-opacity="1" fill-rule="nonzero"/></g></g></g></g></svg>