<svg xmlns="http://www.w3.org/2000/svg" xmlns:xlink="http://www.w3.org/1999/xlink" width="500" zoomAndPan="magnify" viewBox="0 0 375 374.999991" height="500" preserveAspectRatio="xMidYMid meet" version="1.0"><path fill="#a47052" d="M 385.511719 181.789062 C 385.511719 180.539062 385.511719 179.246094 384.984375 178.089844 C 383.925781 175.785156 381.433594 175.066406 378.746094 174.96875 C 377.546875 174.875 376.300781 174.96875 375.148438 175.066406 C 371.648438 175.355469 368.050781 175.449219 364.597656 174.632812 C 360.90625 173.769531 357.980469 171.417969 355.34375 168.824219 C 353.136719 166.664062 350.160156 162.292969 346.804688 162.050781 C 345.75 161.957031 344.695312 162.246094 343.640625 162.582031 C 339.5625 163.734375 335.4375 164.933594 331.3125 166.085938 C 330.59375 166.328125 329.875 166.566406 329.394531 167.09375 C 328.195312 168.632812 330.066406 172.472656 330.929688 173.867188 C 321.433594 174.632812 312.078125 175.355469 302.628906 176.746094 C 288.289062 178.90625 274.238281 181.691406 259.65625 182.078125 C 246.128906 182.460938 232.507812 181.40625 219.03125 180.78125 C 204.5 180.109375 190.015625 180.300781 175.480469 179.917969 C 168.957031 179.722656 162.386719 179.246094 155.816406 179.292969 C 148.527344 179.339844 141.476562 181.308594 134.042969 181.210938 C 109.535156 181.019531 84.976562 179.722656 60.46875 178.234375 C 57.636719 176.9375 54.808594 175.738281 51.832031 174.777344 C 47.421875 173.335938 42.816406 172.472656 38.402344 170.984375 C 37.925781 170.792969 37.445312 170.648438 36.964844 170.457031 C 36.726562 170.359375 36.628906 170.359375 36.484375 170.3125 C 36.4375 170.265625 36.390625 170.265625 36.34375 170.214844 C 33.320312 168.871094 29.769531 165.652344 26.460938 165.414062 C 25.023438 165.316406 23.632812 166.039062 22.386719 166.710938 C 21.089844 167.382812 19.84375 168.054688 18.597656 168.726562 C 15.527344 170.359375 19.363281 174.34375 20.179688 176.410156 C 13.609375 176.746094 6.84375 176.074219 0.273438 175.785156 C -6.152344 175.449219 -12.867188 173.914062 -19.292969 174.632812 C -25.339844 175.355469 -31.429688 173.53125 -37.425781 172.378906 C -39.390625 172.039062 -41.644531 171.753906 -43.132812 173.050781 C -44.761719 174.539062 -44.570312 177.082031 -44.234375 179.246094 C -43.804688 181.980469 -43.371094 184.71875 -42.890625 187.457031 C -42.796875 188.320312 -42.652344 189.136719 -42.507812 190 C -42.316406 191.34375 -42.027344 192.785156 -41.023438 193.648438 C -40.542969 194.082031 -39.917969 194.273438 -39.296875 194.464844 L -38.769531 194.464844 C -38.191406 194.5625 -37.617188 194.5625 -37.089844 194.5625 C -36.800781 194.5625 -36.511719 194.5625 -36.226562 194.515625 C -35.410156 194.515625 -34.59375 194.464844 -33.730469 194.464844 C -30.855469 194.371094 -27.976562 194.226562 -25.144531 194.226562 C -20.445312 194.082031 -15.792969 193.9375 -11.140625 193.9375 C 3.824219 195.089844 18.835938 195.234375 33.847656 195.617188 C 48.378906 196.050781 63.25 196.773438 77.734375 195.378906 C 92.457031 193.988281 106.65625 192.59375 121.476562 192.976562 C 136.390625 193.363281 150.253906 197.730469 165.074219 198.402344 C 171.691406 198.738281 178.359375 198.980469 184.976562 199.125 C 193.324219 199.316406 201.667969 199.414062 210.015625 199.414062 C 217.449219 199.414062 224.789062 199.316406 232.222656 199.078125 C 232.222656 199.078125 232.222656 199.078125 232.269531 199.078125 C 232.75 199.078125 233.277344 199.027344 233.757812 199.027344 C 232.558594 199.078125 229.917969 202.820312 229.152344 205.078125 C 228.914062 205.703125 228.816406 206.183594 228.960938 206.472656 C 229.296875 207.097656 229.96875 207.527344 230.589844 207.960938 C 232.84375 209.402344 236.105469 212.667969 238.984375 211.992188 C 242.535156 211.128906 246.179688 208.632812 249.679688 207.382812 C 252.941406 206.230469 256.296875 205.222656 259.65625 204.453125 C 263.109375 203.6875 266.804688 203.542969 270.160156 202.484375 C 272.269531 201.8125 274.046875 200.375 276.058594 199.460938 C 279.320312 197.925781 282.535156 196.339844 285.746094 194.609375 C 288.867188 194.179688 292.03125 193.648438 295.195312 193.121094 C 309.152344 190.625 323.972656 187.359375 338.074219 189.953125 C 352.65625 192.640625 367.378906 194.800781 382.058594 197.203125 C 383.113281 197.394531 384.40625 197.492188 385.078125 196.628906 C 385.558594 196.097656 385.558594 195.332031 385.558594 194.609375 L 385.558594 189.570312 C 385.558594 186.976562 385.558594 184.382812 385.511719 181.789062 Z M 385.511719 181.789062 " fill-opacity="1" fill-rule="nonzero"/><path fill="#7f4c38" d="M 232.222656 199.078125 C 224.789062 199.316406 217.449219 199.414062 210.015625 199.414062 C 201.667969 199.414062 193.324219 199.316406 184.976562 199.125 C 178.359375 198.980469 171.691406 198.738281 165.074219 198.402344 C 150.253906 197.730469 136.390625 193.363281 121.476562 192.976562 C 106.65625 192.59375 92.457031 193.988281 77.734375 195.378906 C 63.25 196.773438 48.378906 196.050781 33.847656 195.617188 C 18.835938 195.234375 3.824219 195.089844 -11.140625 193.9375 C -15.792969 193.9375 -20.445312 194.082031 -25.144531 194.226562 C -27.976562 194.226562 -30.855469 194.371094 -33.730469 194.464844 C -34.59375 194.464844 -35.410156 194.515625 -36.226562 194.515625 C -37.089844 194.515625 -37.953125 194.464844 -38.769531 194.464844 L -39.296875 194.464844 C -39.917969 194.273438 -40.542969 194.082031 -41.023438 193.648438 C -42.027344 192.785156 -42.316406 191.34375 -42.507812 190 C -42.652344 189.136719 -42.796875 188.320312 -42.890625 187.457031 C -27.066406 184.957031 -10.949219 187.503906 4.972656 187.886719 C 20.417969 188.320312 35.8125 187.984375 51.257812 188.273438 C 66.320312 188.511719 81.859375 190.191406 96.871094 188.273438 C 99.363281 187.9375 101.804688 187.5 104.230469 187.101562 C 102.59375 187.128906 100.957031 187.121094 99.324219 187.183594 C 94.148438 187.375 89.613281 187.125 84.515625 186.21875 C 79.425781 185.3125 74.082031 184.847656 68.929688 184.394531 C 64.316406 183.984375 59.65625 184.363281 55.09375 183.457031 C 54.675781 183.371094 54.855469 182.75 55.265625 182.820312 C 60.523438 183.722656 65.953125 182.867188 71.265625 183.15625 C 76.15625 183.417969 81.082031 183.070312 85.9375 183.644531 C 90.867188 184.226562 95.539062 183.980469 100.484375 183.847656 C 102.910156 183.78125 105.3125 183.839844 107.730469 183.578125 C 109.613281 183.375 111.15625 183.28125 113.015625 183.730469 C 117.632812 184.859375 122.421875 183.847656 127.160156 184.128906 C 131.960938 184.410156 136.75 184.980469 141.558594 185.144531 C 146.3125 185.308594 151.09375 185.5625 155.847656 185.394531 C 161.078125 185.207031 166.070312 184.265625 171.34375 184.679688 C 171.835938 184.71875 171.839844 185.417969 171.34375 185.449219 C 168.699219 185.625 166.050781 185.40625 163.402344 185.464844 C 160.542969 185.53125 157.78125 186.140625 154.957031 186.507812 C 150.335938 187.105469 145.664062 187.695312 141 187.496094 C 136.011719 187.289062 131.066406 186.191406 126.058594 186.484375 C 124.886719 186.550781 123.746094 186.707031 122.613281 186.875 C 128.460938 187.886719 134.253906 189.449219 139.84375 191.25 C 143.25 192.304688 146.558594 193.507812 150.109375 193.648438 C 150.925781 193.601562 151.742188 193.554688 152.554688 193.507812 C 158.023438 193.21875 163.492188 193.027344 168.957031 192.835938 C 171.40625 192.730469 173.859375 192.558594 176.308594 192.40625 C 172.898438 192.246094 169.445312 192.21875 166.148438 191.519531 C 165.753906 191.4375 165.753906 190.804688 166.148438 190.722656 C 170.65625 189.800781 175.640625 190.4375 180.183594 190.871094 C 184.78125 191.308594 189.148438 191.382812 193.757812 191.382812 C 198.257812 191.382812 202.828125 192.175781 207.335938 192.398438 C 212.292969 192.640625 217.25 192.597656 222.207031 192.828125 C 222.847656 192.855469 222.84375 193.785156 222.207031 193.820312 C 217.246094 194.089844 212.296875 194.582031 207.335938 194.851562 C 207.28125 194.855469 207.230469 194.851562 207.175781 194.851562 C 210.824219 195.46875 214.480469 196.042969 218.167969 196.339844 C 220.710938 196.578125 223.636719 196.820312 226.226562 196.578125 C 228 196.386719 229.679688 195.617188 231.359375 195.1875 C 234.140625 194.417969 237.449219 193.265625 240.230469 194.515625 C 240.3125 194.550781 240.332031 194.636719 240.386719 194.695312 C 241.019531 194.472656 241.628906 194.164062 242.253906 193.933594 C 243.542969 193.457031 244.898438 193.144531 246.265625 193.011719 C 246.769531 192.960938 246.882812 193.820312 246.386719 193.894531 C 244.898438 194.125 243.632812 194.703125 242.359375 195.488281 C 241.191406 196.207031 240.222656 197.011719 238.804688 197.109375 C 237.8125 197.175781 236.824219 197.074219 235.839844 196.984375 C 234.621094 197.570312 233.410156 198.34375 232.269531 199.078125 C 232.222656 199.078125 232.222656 199.078125 232.222656 199.078125 Z M 365.316406 188.273438 C 359.035156 187.886719 352.75 187.550781 346.566406 186.496094 C 344.824219 186.214844 343.066406 185.863281 341.304688 185.511719 C 343.105469 185.351562 344.914062 185.230469 346.734375 185.21875 C 353.34375 185.175781 360.125 185.859375 366.632812 184.390625 C 366.984375 184.3125 366.871094 183.832031 366.554688 183.800781 C 359.796875 183.179688 352.972656 182.972656 346.1875 182.988281 C 339.539062 183.003906 333.023438 183.636719 326.378906 183.136719 C 320.382812 182.683594 314.222656 182.3125 308.238281 182.945312 C 305.09375 183.277344 301.914062 183.359375 298.78125 183.757812 C 295.664062 184.152344 292.683594 185.28125 289.570312 185.605469 C 289.039062 185.664062 289.023438 186.496094 289.570312 186.449219 C 292.503906 186.214844 295.320312 185.265625 298.253906 184.964844 C 301.367188 184.640625 304.585938 184.617188 307.710938 184.703125 C 310.765625 184.789062 313.527344 185.921875 316.570312 186.074219 C 314.753906 186.230469 312.9375 186.332031 311.070312 186.445312 C 305.21875 186.734375 299.371094 187.648438 293.757812 189.28125 C 288.144531 190.863281 282.726562 193.171875 277.546875 195.859375 C 272.269531 198.644531 266.851562 199.554688 261.046875 200.515625 C 259.773438 200.722656 258.550781 200.996094 257.335938 201.285156 C 258.90625 200.699219 260.460938 200.082031 261.980469 199.34375 C 264.765625 197.992188 267.5625 196.582031 270.597656 195.886719 C 271.152344 195.757812 271.046875 194.808594 270.460938 194.871094 C 267.613281 195.171875 265 196.085938 262.359375 197.148438 C 259.53125 198.292969 256.679688 199.289062 253.820312 200.339844 C 250.921875 201.40625 248.074219 202.632812 245.292969 203.980469 C 242.808594 205.1875 240.128906 206.152344 237.671875 207.433594 C 236.941406 207.253906 236.222656 206.976562 235.433594 206.710938 C 233.421875 206.085938 231.308594 205.511719 229.152344 205.078125 C 228.914062 205.703125 228.816406 206.183594 228.960938 206.472656 C 229.296875 207.097656 229.96875 207.527344 230.589844 207.960938 C 232.84375 209.402344 236.105469 212.667969 238.984375 211.992188 C 242.535156 211.128906 246.179688 208.632812 249.679688 207.382812 C 252.941406 206.230469 256.300781 205.222656 259.65625 204.453125 C 263.109375 203.6875 266.804688 203.542969 270.160156 202.484375 C 272.269531 201.8125 274.046875 200.375 276.058594 199.460938 C 279.320312 197.925781 282.535156 196.339844 285.746094 194.609375 C 288.867188 194.179688 292.03125 193.648438 295.195312 193.121094 C 309.152344 190.625 323.972656 187.359375 338.074219 189.953125 C 352.65625 192.640625 367.378906 194.800781 382.058594 197.203125 C 383.113281 197.394531 384.40625 197.492188 385.078125 196.628906 C 385.558594 196.097656 385.558594 195.332031 385.558594 194.609375 L 385.558594 189.570312 C 378.890625 188.558594 371.839844 188.703125 365.316406 188.273438 Z M -38.441406 183.625 C -36.355469 183.695312 -34.292969 184.425781 -32.183594 184.5625 C -29.917969 184.710938 -27.632812 184.644531 -25.363281 184.734375 C -20.765625 184.921875 -16.261719 185.058594 -11.664062 184.695312 C -6.628906 184.300781 -1.894531 184.039062 3.132812 184.714844 C 7.308594 185.277344 11.664062 185.992188 15.839844 185.070312 C 16.253906 184.976562 16.246094 184.335938 15.839844 184.238281 C 6.742188 182.027344 -2.429688 182.71875 -11.664062 182.976562 C -16.230469 183.105469 -20.796875 182.683594 -25.363281 182.6875 C -27.640625 182.691406 -29.910156 182.8125 -32.183594 182.882812 C -34.285156 182.949219 -36.351562 182.582031 -38.441406 182.652344 C -39.066406 182.671875 -39.066406 183.605469 -38.441406 183.625 Z M 27.59375 178.707031 C 28.367188 178.769531 29.144531 178.800781 29.921875 178.757812 C 30.640625 178.714844 31.371094 178.679688 32.0625 178.472656 C 32.394531 178.371094 32.53125 177.832031 32.167969 177.664062 C 30.902344 177.085938 29.332031 177.195312 27.964844 177.15625 C 26.628906 177.117188 25.175781 177.097656 23.929688 176.546875 C 23.496094 176.355469 22.9375 176.902344 23.375 177.269531 C 24.542969 178.25 26.105469 178.585938 27.59375 178.707031 Z M 331.902344 174.449219 C 332.671875 174.640625 333.382812 174.980469 334.109375 175.289062 C 334.839844 175.597656 335.574219 175.777344 336.355469 175.898438 C 337.160156 176.023438 337.964844 176.125 338.777344 176.179688 C 339.566406 176.230469 340.480469 176.375 341.242188 176.148438 C 341.570312 176.054688 341.699219 175.625 341.445312 175.378906 C 340.871094 174.820312 339.953125 174.628906 339.175781 174.503906 C 338.339844 174.371094 337.503906 174.320312 336.667969 174.230469 C 335.105469 174.066406 333.617188 173.472656 332.050781 173.363281 C 331.425781 173.320312 331.300781 174.300781 331.902344 174.449219 Z M 331.902344 174.449219 " fill-opacity="1" fill-rule="nonzero"/></svg>