<svg xmlns="http://www.w3.org/2000/svg" xmlns:xlink="http://www.w3.org/1999/xlink" width="500" zoomAndPan="magnify" viewBox="0 0 375 374.999991" height="500" preserveAspectRatio="xMidYMid meet" version="1.0"><defs><clipPath id="0dcb07be50"><path d="M 0 3 L 51.964844 3 L 51.964844 281 L 0 281 Z M 0 3 " clip-rule="nonzero"/></clipPath></defs><path fill="#a47052" d="M -0.328125 342.808594 C 1.007812 342.039062 1.222656 340.277344 1.050781 338.777344 C 1.007812 338.21875 0.921875 337.703125 0.878906 337.144531 C 0.664062 334.742188 0.535156 332.339844 0.273438 329.9375 C 0.015625 327.320312 -0.371094 324.660156 -0.242188 321.996094 C 0.101562 315.734375 0.835938 308.953125 2.042969 302.773438 C 2.730469 299.210938 3.417969 295.648438 4.066406 292.089844 C 4.710938 291.617188 5.402344 291.230469 6.089844 290.84375 C 8.289062 289.511719 9.496094 287.582031 10.832031 285.480469 C 12.210938 283.25 13.628906 280.972656 15.097656 278.785156 C 15.613281 277.96875 14.40625 277.113281 13.761719 277.753906 C 11.777344 279.644531 9.925781 281.617188 8.03125 283.589844 C 7.167969 284.492188 6.347656 285.566406 5.402344 286.382812 C 5.273438 286.464844 5.144531 286.507812 5.058594 286.59375 C 6.21875 279.988281 7.167969 273.421875 7.816406 266.726562 C 8.890625 254.882812 11.992188 243.167969 12.425781 231.367188 C 12.898438 219.222656 13.457031 206.90625 12.339844 194.804688 C 11.304688 183.476562 9.667969 172.234375 7.167969 161.164062 C 6.996094 160.003906 6.78125 158.886719 6.609375 157.730469 C 5.875 153.523438 5.1875 149.320312 4.539062 145.070312 C 3.808594 140.523438 3.722656 136.015625 3.335938 131.425781 C 2.558594 122.285156 -0.628906 113.445312 -1.792969 104.347656 C -1.921875 103.316406 -2.050781 102.328125 -2.222656 101.257812 C -2.179688 98.597656 -2.050781 95.9375 -1.964844 93.277344 C -0.585938 86.753906 0.015625 79.972656 1.351562 73.449219 C 2.171875 69.417969 3.335938 65.46875 4.367188 61.476562 C 5.402344 57.699219 5.917969 53.796875 7.167969 50.105469 C 9.324219 43.496094 12.597656 36.800781 16.257812 30.878906 C 20.007812 24.746094 25.175781 19.078125 31.511719 15.519531 C 32.328125 15.046875 31.597656 13.886719 30.777344 14.273438 C 27.761719 15.648438 24.875 17.363281 22.246094 19.421875 C 22.160156 19.464844 22.117188 19.550781 22.074219 19.59375 C 12.984375 26.417969 6.175781 36.546875 2.214844 46.886719 C 1.050781 49.976562 0.273438 53.195312 -0.414062 56.414062 L -0.414062 53.839844 C -0.414062 52.078125 -0.371094 50.363281 -0.414062 48.644531 C -0.671875 34.527344 -3.042969 20.109375 -0.5 6.078125 C 0.664062 -0.359375 2.816406 -6.582031 4.367188 -12.976562 C 5.488281 -17.609375 5.359375 -22.375 5.875 -27.09375 C 6.394531 -31.726562 7.773438 -36.191406 7.726562 -40.867188 C 7.726562 -41.425781 7.683594 -42.070312 7.296875 -42.5 C 6.609375 -43.316406 5.273438 -42.886719 4.28125 -42.457031 C 2.773438 -41.726562 1.265625 -41.039062 -0.242188 -40.355469 C -1.320312 -39.839844 -2.394531 -39.324219 -3.429688 -38.765625 C -5.671875 -37.605469 -5.5 -37.136719 -5.585938 -34.902344 C -5.714844 -32.328125 -6.402344 -29.667969 -6.617188 -27.050781 C -6.878906 -24.390625 -7.050781 -21.773438 -7.566406 -19.15625 C -8.773438 -13.105469 -10.96875 -7.269531 -12.390625 -1.261719 C -15.40625 11.570312 -14.933594 24.445312 -14.289062 37.445312 C -13.984375 43.539062 -13.640625 49.632812 -14.15625 55.726562 C -14.71875 62.335938 -15.839844 68.902344 -16.226562 75.550781 C -16.484375 80.402344 -15.363281 84.480469 -14.332031 88.8125 C -14.027344 93.019531 -13.425781 97.179688 -12.691406 101.34375 C -12.5625 105.503906 -12.691406 109.667969 -12.5625 113.832031 C -12.390625 119.753906 -12.003906 126.015625 -10.195312 131.683594 C -9.289062 134.601562 -8.472656 136.960938 -8.339844 140.050781 C -8.210938 143.570312 -8.644531 147.042969 -8.558594 150.519531 C -8.515625 151.851562 -8.472656 153.136719 -8.339844 154.46875 L -8.339844 154.683594 C -8.210938 156.441406 -7.996094 158.246094 -7.738281 160.046875 C -7.695312 160.089844 -7.695312 160.175781 -7.738281 160.21875 C -6.316406 169.617188 -3.773438 179.101562 -2.828125 188.496094 C -2.484375 192.273438 -1.964844 196.050781 -1.40625 199.871094 C -1.492188 199.65625 -1.621094 199.441406 -1.707031 199.183594 C -1.878906 198.839844 -2.007812 198.496094 -2.179688 198.109375 C -3.515625 194.503906 -4.9375 190.988281 -6.660156 187.511719 C -9.980469 180.988281 -13.726562 174.335938 -18.855469 169.058594 C -23.851562 163.867188 -29.496094 158.886719 -35.355469 154.640625 C -36.128906 154.125 -37.078125 155.328125 -36.390625 155.925781 C -26.523438 164.511719 -19.457031 175.710938 -13.082031 186.996094 C -12.304688 188.367188 -11.574219 189.699219 -10.839844 191.03125 C -8.988281 194.335938 -7.695312 197.679688 -6.273438 201.15625 C -4.851562 204.589844 -3 207.679688 -2.050781 211.285156 C -1.0625 215.019531 -0.414062 218.792969 0.449219 222.570312 C 0.535156 222.957031 0.664062 223.429688 0.75 223.902344 C 0.75 225.230469 0.75 226.605469 0.664062 227.933594 C 0.359375 233.382812 -2.136719 238.277344 -3.300781 243.554688 C -4.679688 249.992188 -5.238281 256.429688 -7.222656 262.734375 C -9.289062 269.429688 -10.28125 276.425781 -11.445312 283.292969 C -12.648438 290.414062 -14.503906 297.367188 -15.449219 304.488281 C -16.355469 311.570312 -15.40625 318.867188 -14.71875 325.902344 C -14.289062 330.367188 -17.171875 337.1875 -13.382812 340.578125 C -12.003906 341.78125 -10.109375 342.210938 -8.296875 342.46875 C -8.125 342.511719 -7.996094 342.511719 -7.824219 342.554688 C -6.273438 342.808594 -4.679688 342.984375 -3.085938 343.152344 C -2.136719 343.238281 -1.148438 343.28125 -0.328125 342.808594 Z M -0.328125 342.808594 " fill-opacity="1" fill-rule="nonzero"/><path fill="#7f4c38" d="M -2.828125 188.496094 C -3.773438 179.101562 -6.316406 169.617188 -7.738281 160.21875 C -7.695312 160.175781 -7.695312 160.089844 -7.738281 160.046875 C -7.695312 159.402344 -7.695312 158.757812 -7.695312 158.117188 C -7.738281 158.03125 -7.78125 157.945312 -7.78125 157.859375 C -7.953125 156.785156 -8.167969 155.710938 -8.339844 154.683594 L -8.339844 154.46875 C -8.472656 153.136719 -8.515625 151.851562 -8.558594 150.519531 C -8.644531 147.042969 -8.210938 143.566406 -8.339844 140.050781 C -8.472656 136.960938 -9.289062 134.601562 -10.195312 131.683594 C -12.003906 126.015625 -12.390625 119.753906 -12.5625 113.832031 C -12.691406 109.667969 -12.5625 105.503906 -12.691406 101.34375 C -13.425781 97.179688 -14.027344 93.019531 -14.332031 88.8125 C -15.363281 84.476562 -16.484375 80.402344 -16.226562 75.550781 C -15.839844 68.902344 -14.71875 62.335938 -14.15625 55.726562 C -13.640625 49.632812 -13.984375 43.539062 -14.289062 37.445312 C -14.933594 24.445312 -15.40625 11.570312 -12.390625 -1.261719 C -10.96875 -7.269531 -8.773438 -13.105469 -7.566406 -19.15625 C -7.050781 -21.773438 -6.878906 -24.390625 -6.617188 -27.050781 C -6.402344 -29.667969 -5.714844 -32.328125 -5.585938 -34.902344 C -5.5 -37.136719 -5.671875 -37.609375 -3.429688 -38.765625 C -2.394531 -39.324219 -1.320312 -39.839844 -0.242188 -40.355469 C 0.402344 -33.917969 -0.628906 -27.351562 -1.148438 -21 C -1.40625 -17.480469 -1.792969 -13.878906 -2.785156 -10.445312 C -3.816406 -6.925781 -5.5 -3.578125 -7.050781 -0.273438 C -8.429688 2.730469 -9.761719 5.820312 -10.324219 9.125 C -10.882812 12.558594 -10.625 16.03125 -10.28125 19.464844 C -9.632812 25.730469 -9.460938 31.824219 -9.589844 38.089844 C -9.460938 37.058594 -9.417969 36.074219 -9.460938 34.957031 C -9.589844 31.523438 -9.160156 28.132812 -8.472656 24.785156 C -6.964844 17.707031 -6.359375 10.582031 -5.28125 3.417969 C -5.238281 3.074219 -4.679688 3.160156 -4.679688 3.503906 C -5.238281 10.667969 -6.1875 17.878906 -6.359375 25.085938 C -6.402344 28.476562 -6.574219 31.953125 -6.359375 35.386719 C -6.144531 38.519531 -7.351562 41.007812 -7.609375 44.054688 C -8.6875 57.699219 -5.5 71.21875 -5.800781 84.820312 C -5.800781 85.25 -6.359375 85.335938 -6.488281 84.949219 C -7.523438 81.6875 -7.523438 78.128906 -7.78125 74.738281 C -8.039062 71.003906 -8.601562 67.3125 -9.160156 63.664062 C -9.503906 61.390625 -10.066406 59.160156 -10.453125 56.886719 C -10.496094 58.128906 -10.582031 59.332031 -10.625 60.574219 C -10.925781 67.484375 -12.867188 74.050781 -11.617188 81.046875 C -10.453125 87.523438 -8.082031 93.488281 -8.039062 100.183594 C -8.039062 103.488281 -8.429688 106.75 -8.945312 110.011719 C -9.375 112.929688 -10.023438 116.0625 -9.675781 119.023438 C -8.988281 124.515625 -5.972656 129.363281 -4.464844 134.644531 C -4.378906 133.65625 -4.25 132.625 -4.121094 131.554688 C -3.515625 125.632812 -4.59375 119.882812 -5.324219 114.042969 C -5.410156 113.488281 -4.464844 113.359375 -4.335938 113.917969 C -3.214844 119.625 -1.792969 125.246094 -1.707031 131.082031 C -1.664062 136.875 -2.65625 142.28125 -1.277344 147.988281 C 0.101562 153.824219 1.308594 159.617188 2.34375 165.539062 C 3.292969 171.074219 4.023438 177.296875 3.246094 182.917969 C 3.203125 183.261719 2.644531 183.433594 2.558594 183.003906 C 1.910156 179.828125 1.78125 176.523438 1.265625 173.308594 C 0.792969 170.386719 0.316406 167.515625 -0.242188 164.636719 C -1.105469 159.960938 -2.136719 155.328125 -3.300781 150.734375 C -3.515625 152.921875 -3.859375 155.070312 -3.945312 157.214844 C -3.214844 164.550781 -2.613281 171.890625 -1.320312 179.144531 C -0.285156 185.109375 0.578125 191.074219 1.480469 197.039062 C 1.910156 199.957031 2.601562 202.960938 3.335938 205.792969 C 3.980469 208.152344 5.144531 210.511719 5.359375 212.914062 C 5.359375 213.429688 4.625 213.773438 4.28125 213.34375 C 2.558594 211.285156 1.738281 208.367188 0.621094 205.921875 C -0.457031 203.6875 -1.234375 201.585938 -1.707031 199.183594 C -1.621094 199.441406 -1.492188 199.65625 -1.40625 199.871094 C -1.964844 196.050781 -2.484375 192.273438 -2.828125 188.496094 Z M -7.867188 338.863281 C -7.867188 338.648438 -7.910156 338.390625 -7.910156 338.175781 C -6.015625 325.558594 -7.996094 312.128906 -3.558594 299.941406 C -1.40625 293.976562 -0.5 287.96875 0.449219 281.746094 C 0.921875 278.570312 1.695312 275.4375 2.214844 272.261719 C 2.730469 269.171875 2.730469 266.039062 3.117188 262.949219 C 3.160156 262.523438 2.429688 262.4375 2.386719 262.820312 C 0.273438 275.566406 -3 288.183594 -7.394531 300.328125 C -8.859375 304.445312 -9.503906 308.910156 -9.847656 313.371094 C -9.847656 313.242188 -9.894531 313.15625 -9.894531 313.074219 C -10.367188 307.105469 -10.023438 301.398438 -8.816406 295.519531 C -7.652344 289.8125 -6.101562 284.191406 -5.238281 278.441406 C -4.335938 272.433594 -3.816406 266.554688 -2.265625 260.675781 C -0.757812 254.925781 0.359375 249.21875 1.480469 243.382812 C 2.429688 238.191406 5.316406 232.484375 4.28125 227.203125 C 3.160156 221.410156 0.359375 216.175781 -1.792969 210.726562 C -3.042969 207.59375 -4.207031 204.546875 -5.066406 201.328125 C -5.800781 198.410156 -6.789062 195.664062 -8.386719 193.132812 C -9.761719 190.945312 -11.445312 189.011719 -13.082031 186.996094 C -12.304688 188.367188 -11.574219 189.699219 -10.839844 191.027344 C -8.988281 194.335938 -7.695312 197.679688 -6.273438 201.15625 C -4.851562 204.589844 -3 207.679688 -2.050781 211.285156 C -1.0625 215.019531 -0.414062 218.792969 0.449219 222.570312 C 0.535156 222.957031 0.664062 223.429688 0.75 223.902344 C 0.75 225.230469 0.75 226.605469 0.664062 227.933594 C 0.359375 233.382812 -2.136719 238.277344 -3.300781 243.554688 C -4.679688 249.992188 -5.238281 256.429688 -7.222656 262.734375 C -9.289062 269.429688 -10.28125 276.425781 -11.445312 283.289062 C -12.648438 290.414062 -14.503906 297.367188 -15.449219 304.488281 C -16.355469 311.570312 -15.40625 318.867188 -14.71875 325.902344 C -14.289062 330.367188 -17.171875 337.1875 -13.382812 340.578125 C -12.003906 341.78125 -10.109375 342.210938 -8.296875 342.46875 C -8.125 342.511719 -7.996094 342.511719 -7.824219 342.554688 C -7.867188 341.308594 -7.824219 340.0625 -7.867188 338.863281 Z M 2.214844 46.886719 C 1.050781 49.976562 0.273438 53.195312 -0.414062 56.414062 L -0.414062 53.839844 C -0.414062 53.882812 -0.457031 53.96875 -0.457031 54.011719 C -1.0625 56.929688 -1.363281 60.105469 -1.449219 63.109375 C -1.492188 64.09375 -0.0703125 64.222656 0.230469 63.324219 C 1.09375 60.617188 0.707031 57.742188 1.351562 54.996094 C 2 52.292969 3.851562 50.0625 4.972656 47.488281 C 7.125 42.464844 8.417969 37.015625 11.648438 32.46875 C 13.328125 30.152344 15.484375 28.21875 17.207031 25.945312 C 18.84375 23.800781 20.265625 21.613281 22.074219 19.59375 C 12.984375 26.417969 6.175781 36.546875 2.214844 46.886719 Z M 2.214844 46.886719 " fill-opacity="1" fill-rule="nonzero"/><g clip-path="url(#0dcb07be50)"><path fill="#5f926a" d="M -32.8125 171.976562 C -35.570312 173.605469 -38.972656 173.90625 -42.117188 173.351562 C -45.308594 172.835938 -48.28125 171.503906 -51.125 169.960938 C -51.339844 169.832031 -51.554688 169.746094 -51.726562 169.574219 C -51.855469 169.445312 -51.984375 169.316406 -52.027344 169.101562 C -52.199219 168.585938 -51.898438 168.070312 -51.554688 167.640625 C -49.746094 165.324219 -47.246094 163.523438 -44.445312 162.578125 C -42.375 161.890625 -40.3125 161.746094 -38.257812 161.84375 C -41.023438 160.125 -42.90625 157.363281 -44.402344 154.46875 C -47.375 148.847656 -49.269531 142.367188 -48.195312 136.058594 C -48.109375 135.5 -47.890625 134.855469 -47.503906 134.515625 C -47.332031 134.386719 -47.203125 134.300781 -46.988281 134.257812 C -46.644531 134.171875 -46.296875 134.257812 -45.953125 134.386719 C -42.808594 135.285156 -39.578125 136.1875 -36.648438 137.648438 C -33.675781 139.105469 -30.917969 141.164062 -29.109375 143.910156 C -27.253906 146.703125 -26.480469 150.089844 -26.308594 153.4375 C -26.222656 155.582031 -26.394531 157.773438 -26.609375 159.917969 C -26.738281 160.820312 -26.566406 162.707031 -27.210938 163.566406 C -27.253906 163.652344 -27.296875 163.738281 -27.382812 163.78125 C -27.46875 163.851562 -27.632812 163.855469 -27.746094 163.90625 C -25.929688 164.488281 -26.304688 165.164062 -27.6875 167 C -29.152344 168.929688 -30.703125 170.773438 -32.8125 171.976562 Z M 51.714844 13.585938 C 51.585938 13.242188 51.199219 13.027344 50.898438 12.859375 C 49.5625 12.214844 48.269531 11.527344 46.933594 10.839844 C 44.910156 9.8125 42.796875 8.738281 40.515625 8.351562 C 40.472656 8.351562 40.472656 8.351562 40.429688 8.351562 C 37.671875 7.878906 34.742188 8.523438 32.457031 10.109375 C 30.835938 11.203125 29.558594 12.808594 28.6875 14.601562 C 29.347656 12.753906 29.4375 10.070312 29.355469 9.082031 C 29.226562 7.320312 28.753906 5.5625 27.890625 4.019531 C 27.632812 3.503906 27.203125 2.988281 26.640625 3.03125 C 26.296875 3.074219 26.039062 3.332031 25.824219 3.589844 C 25.566406 3.890625 25.304688 4.230469 25.089844 4.53125 C 23.882812 6.164062 23.152344 8.050781 23.109375 10.023438 C 23.066406 11.398438 23.367188 12.773438 24.058594 13.972656 C 24.53125 14.875 25.695312 16.632812 26.902344 16.546875 C 27.59375 16.511719 28.042969 15.953125 28.40625 15.207031 C 28.394531 15.253906 28.363281 15.304688 28.363281 15.347656 C 28.019531 16.074219 27.933594 16.71875 28.96875 16.804688 C 30.261719 16.847656 31.339844 16.546875 32.671875 16.847656 C 34.269531 17.234375 35.820312 17.921875 37.414062 18.351562 C 42.109375 19.59375 47.449219 18.308594 51.070312 15.003906 C 51.457031 14.660156 51.890625 14.101562 51.714844 13.585938 Z M 14.320312 280.246094 C 14.835938 279.988281 15.398438 279.902344 15.957031 279.816406 C 18.113281 279.429688 20.351562 279.730469 22.464844 279.128906 C 24.875 278.484375 26.902344 276.726562 28.320312 274.664062 C 29.742188 272.605469 30.691406 270.246094 31.597656 267.886719 C 31.898438 267.113281 32.113281 266.082031 31.425781 265.609375 C 31.078125 265.398438 30.648438 265.398438 30.261719 265.398438 C 30.046875 265.398438 29.785156 265.398438 29.570312 265.441406 C 28.148438 265.484375 26.769531 265.523438 25.304688 265.566406 C 23.582031 265.609375 21.773438 265.695312 20.136719 266.296875 C 17.765625 267.199219 15.914062 269.257812 14.75 271.53125 C 13.542969 273.808594 12.941406 276.296875 12.339844 278.785156 C 12.210938 279.34375 12.121094 280.375 12.597656 280.757812 C 12.726562 280.929688 12.984375 280.972656 13.285156 280.929688 C 13.585938 280.886719 14.019531 280.375 14.320312 280.246094 Z M 14.320312 280.246094 " fill-opacity="1" fill-rule="nonzero"/></g><path fill="#587e60" d="M -29.316406 165.234375 C -28.515625 165.003906 -27.808594 164.621094 -27.039062 164.324219 C -26.882812 164.265625 -26.703125 164.449219 -26.761719 164.605469 C -27.28125 166.03125 -29.011719 166.261719 -30.292969 166.636719 C -32.289062 167.21875 -34.238281 167.917969 -36.292969 168.289062 C -38.28125 168.648438 -40.214844 168.664062 -42.222656 168.496094 C -44.34375 168.316406 -46.433594 168.175781 -48.492188 168.839844 C -48.75 168.925781 -48.847656 168.535156 -48.601562 168.445312 C -45.023438 167.152344 -41.050781 167.996094 -37.34375 167.378906 C -35.417969 167.0625 -33.535156 166.511719 -31.675781 165.921875 C -30.890625 165.671875 -30.105469 165.460938 -29.316406 165.234375 Z M 13.066406 279.652344 C 13.160156 279.726562 13.292969 279.757812 13.351562 279.628906 C 13.695312 278.882812 13.992188 278.230469 14.527344 277.589844 C 15.035156 276.976562 15.601562 276.410156 16.113281 275.800781 C 17.332031 274.347656 18.648438 272.972656 20.382812 272.144531 C 22.171875 271.289062 24.066406 270.621094 25.90625 269.890625 C 27.582031 269.222656 28.851562 268.253906 30.21875 267.105469 C 30.375 266.976562 30.171875 266.707031 30 266.824219 C 29.183594 267.386719 28.378906 267.996094 27.5 268.460938 C 26.5625 268.957031 25.527344 269.199219 24.515625 269.496094 C 22.617188 270.054688 20.496094 270.617188 18.785156 271.640625 C 17.441406 272.445312 16.46875 273.566406 15.503906 274.726562 C 15.507812 274.707031 15.519531 274.6875 15.527344 274.664062 C 15.527344 274.664062 15.527344 274.664062 15.527344 274.621094 C 16.171875 272.777344 16.558594 270.761719 17.851562 269.257812 C 19.402344 267.414062 21.902344 266.769531 24.316406 266.425781 C 25.390625 266.296875 26.511719 266.167969 27.589844 265.953125 C 28.277344 265.824219 28.925781 265.613281 29.570312 265.441406 C 28.148438 265.484375 26.769531 265.523438 25.304688 265.566406 C 23.582031 265.609375 21.773438 265.695312 20.136719 266.296875 C 17.765625 267.199219 15.914062 269.257812 14.75 271.53125 C 13.542969 273.808594 12.941406 276.296875 12.339844 278.785156 C 12.210938 279.34375 12.121094 280.375 12.597656 280.757812 C 12.726562 280.375 12.894531 280.035156 13.066406 279.652344 Z M 28.40625 15.207031 C 28.394531 15.253906 28.367188 15.304688 28.367188 15.347656 C 28.351562 15.375 28.515625 15.226562 28.734375 15.03125 C 29.28125 15.105469 29.789062 14.933594 30.285156 14.6875 C 31.121094 14.265625 31.867188 13.78125 32.761719 13.460938 C 34.535156 12.820312 36.335938 12.304688 38.230469 12.175781 C 40.15625 12.042969 41.933594 12.316406 43.773438 12.875 C 44.734375 13.167969 45.707031 13.445312 46.679688 13.695312 C 47.578125 13.925781 48.433594 13.753906 49.335938 13.871094 C 49.566406 13.902344 49.613281 13.519531 49.390625 13.46875 C 48.414062 13.242188 47.453125 13.289062 46.484375 12.957031 C 45.484375 12.613281 44.507812 12.257812 43.535156 11.847656 C 41.8125 11.125 40.09375 10.816406 38.230469 10.921875 C 36.648438 11.011719 35.152344 11.363281 33.675781 11.890625 C 34.164062 11.398438 34.609375 10.851562 35.128906 10.367188 C 36.507812 9.039062 38.488281 8.394531 40.429688 8.351562 C 37.671875 7.878906 34.742188 8.523438 32.457031 10.109375 C 30.867188 11.179688 29.621094 12.75 28.75 14.5 C 28.683594 14.539062 28.625 14.578125 28.558594 14.621094 C 28.527344 14.636719 28.554688 14.679688 28.542969 14.707031 C 28.464844 14.539062 28.375 14.378906 28.238281 14.246094 C 27.972656 13.730469 27.515625 13.230469 27.28125 12.785156 C 26.847656 11.953125 26.554688 11.058594 26.339844 10.144531 C 25.882812 8.183594 26.816406 6.28125 26.789062 4.320312 C 26.785156 4.042969 26.371094 4.046875 26.359375 4.320312 C 26.304688 5.425781 25.957031 6.464844 25.671875 7.527344 C 25.40625 8.515625 25.296875 9.507812 25.417969 10.527344 C 25.503906 11.265625 25.753906 11.980469 26.050781 12.664062 C 25.117188 11.730469 24.53125 10.4375 24.359375 9.125 C 24.1875 7.578125 24.53125 5.992188 25.089844 4.53125 C 23.882812 6.164062 23.152344 8.050781 23.109375 10.023438 C 23.066406 11.398438 23.367188 12.773438 24.058594 13.972656 C 24.53125 14.875 25.695312 16.632812 26.902344 16.546875 C 27.59375 16.511719 28.042969 15.953125 28.40625 15.207031 Z M -36.898438 148.371094 C -35.105469 150.589844 -33.121094 152.714844 -31.480469 155.046875 C -29.847656 157.363281 -28.933594 160.089844 -27.457031 162.5 C -27.351562 162.671875 -27.109375 162.550781 -27.140625 162.367188 C -28.074219 156.925781 -31.792969 152.859375 -35.15625 148.753906 C -36.878906 146.652344 -38.605469 144.578125 -40.472656 142.597656 C -42.324219 140.636719 -44.117188 138.667969 -45.324219 136.234375 C -45.425781 136.027344 -45.789062 136.171875 -45.699219 136.390625 C -43.824219 141.007812 -39.984375 144.554688 -36.898438 148.371094 Z M -46.210938 164.980469 C -43.453125 163.78125 -40.394531 163.824219 -37.421875 163.996094 C -35.828125 164.125 -34.191406 164.253906 -32.597656 164.253906 C -31.953125 164.296875 -30.875 164.425781 -30.226562 164.167969 C -30.1875 164.148438 -30.179688 164.132812 -30.144531 164.113281 C -29.046875 164.238281 -27.9375 164.242188 -27.382812 163.78125 C -27.296875 163.738281 -27.253906 163.652344 -27.210938 163.566406 C -30.832031 161.933594 -33.71875 158.972656 -36.476562 156.054688 C -40.4375 151.851562 -44.53125 147.472656 -46.425781 142.023438 C -47.246094 139.621094 -47.632812 137.046875 -47.503906 134.515625 C -47.890625 134.855469 -48.109375 135.5 -48.195312 136.058594 C -49.269531 142.367188 -47.375 148.847656 -44.402344 154.46875 C -42.90625 157.363281 -41.023438 160.125 -38.257812 161.84375 C -40.3125 161.746094 -42.375 161.890625 -44.445312 162.578125 C -47.246094 163.523438 -49.746094 165.324219 -51.554688 167.640625 C -51.898438 168.070312 -52.199219 168.585938 -52.027344 169.101562 C -51.984375 169.316406 -51.855469 169.445312 -51.726562 169.574219 C -50.175781 167.640625 -48.410156 165.96875 -46.210938 164.980469 Z M -46.210938 164.980469 " fill-opacity="1" fill-rule="nonzero"/></svg>