<svg xmlns="http://www.w3.org/2000/svg" xmlns:xlink="http://www.w3.org/1999/xlink" width="500" zoomAndPan="magnify" viewBox="0 0 375 374.999991" height="500" preserveAspectRatio="xMidYMid meet" version="1.0"><defs><clipPath id="5a08594747"><path d="M 352 0 L 375 0 L 375 210 L 352 210 Z M 352 0 " clip-rule="nonzero"/></clipPath><clipPath id="9c7bcad455"><path d="M 408.148438 -181.652344 L 478.015625 200.515625 L 375.464844 219.261719 L 305.597656 -162.902344 Z M 408.148438 -181.652344 " clip-rule="nonzero"/></clipPath><clipPath id="8771c6af52"><path d="M 362.847656 -66.628906 L 413.832031 212.25 L 375.464844 219.261719 L 324.480469 -59.617188 Z M 362.847656 -66.628906 " clip-rule="nonzero"/></clipPath><clipPath id="5802e61c0a"><path d="M 407.9375 -181.710938 L 477.804688 200.453125 L 375.253906 219.203125 L 305.386719 -162.964844 Z M 407.9375 -181.710938 " clip-rule="nonzero"/></clipPath><clipPath id="1c3db37ad8"><path d="M 341 0 L 375 0 L 375 146 L 341 146 Z M 341 0 " clip-rule="nonzero"/></clipPath><clipPath id="6d5815a3bd"><path d="M 408.148438 -181.652344 L 478.015625 200.515625 L 375.464844 219.261719 L 305.597656 -162.902344 Z M 408.148438 -181.652344 " clip-rule="nonzero"/></clipPath><clipPath id="35e80dfdcc"><path d="M 362.847656 -66.628906 L 413.832031 212.25 L 375.464844 219.261719 L 324.480469 -59.617188 Z M 362.847656 -66.628906 " clip-rule="nonzero"/></clipPath><clipPath id="3e995aab57"><path d="M 407.9375 -181.710938 L 477.804688 200.453125 L 375.253906 219.203125 L 305.386719 -162.964844 Z M 407.9375 -181.710938 " clip-rule="nonzero"/></clipPath></defs><g clip-path="url(#5a08594747)"><g clip-path="url(#9c7bcad455)"><g clip-path="url(#8771c6af52)"><g clip-path="url(#5802e61c0a)"><path fill="#a47052" d="M 426.121094 208.53125 C 427.296875 207.53125 427.191406 205.761719 426.753906 204.316406 C 426.609375 203.773438 426.433594 203.28125 426.289062 202.742188 C 425.644531 200.417969 425.085938 198.074219 424.398438 195.757812 C 423.675781 193.230469 422.816406 190.683594 422.464844 188.042969 C 421.675781 181.816406 421.175781 175.015625 421.253906 168.71875 C 421.289062 165.09375 421.328125 161.464844 421.324219 157.84375 C 421.875 157.265625 422.484375 156.761719 423.089844 156.257812 C 425.011719 154.554688 425.851562 152.4375 426.789062 150.128906 C 427.742188 147.683594 428.734375 145.191406 429.78125 142.777344 C 430.140625 141.878906 428.800781 141.253906 428.28125 142.003906 C 426.671875 144.214844 425.203125 146.492188 423.695312 148.773438 C 423.007812 149.816406 422.394531 151.019531 421.609375 151.992188 C 421.5 152.097656 421.378906 152.164062 421.308594 152.261719 C 421.265625 145.554688 421.015625 138.925781 420.449219 132.222656 C 419.378906 120.378906 420.324219 108.296875 418.625 96.609375 C 416.90625 84.578125 415.242188 72.363281 411.964844 60.660156 C 408.910156 49.703125 405.277344 38.9375 400.828125 28.496094 C 400.453125 27.386719 400.039062 26.328125 399.660156 25.21875 C 398.183594 21.214844 396.75 17.203125 395.351562 13.140625 C 393.8125 8.796875 392.917969 4.378906 391.710938 -0.0664062 C 389.300781 -8.917969 384.578125 -17.042969 381.796875 -25.78125 C 381.484375 -26.773438 381.179688 -27.71875 380.816406 -28.742188 C 380.378906 -31.367188 380.03125 -34.007812 379.636719 -36.640625 C 379.820312 -43.304688 379.191406 -50.085938 379.332031 -56.742188 C 379.414062 -60.855469 379.847656 -64.949219 380.148438 -69.058594 C 380.484375 -72.960938 380.292969 -76.894531 380.855469 -80.75 C 381.789062 -87.636719 383.804688 -94.8125 386.34375 -101.296875 C 388.925781 -108.007812 392.992188 -114.507812 398.582031 -119.152344 C 399.300781 -119.761719 398.375 -120.769531 397.636719 -120.242188 C 394.917969 -118.351562 392.386719 -116.144531 390.171875 -113.644531 C 390.09375 -113.585938 390.066406 -113.496094 390.035156 -113.445312 C 382.316406 -105.097656 377.441406 -93.910156 375.402344 -83.023438 C 374.816406 -79.777344 374.632812 -76.472656 374.53125 -73.179688 L 374.070312 -75.714844 C 373.753906 -77.445312 373.488281 -79.140625 373.136719 -80.820312 C 370.34375 -94.664062 365.417969 -108.421875 365.394531 -122.679688 C 365.382812 -129.222656 366.382812 -135.730469 366.757812 -142.300781 C 367.027344 -147.058594 366.042969 -151.722656 365.703125 -156.457031 C 365.378906 -161.109375 365.929688 -165.75 365.046875 -170.34375 C 364.945312 -170.890625 364.789062 -171.515625 364.332031 -171.867188 C 363.503906 -172.546875 362.269531 -171.882812 361.371094 -171.285156 C 360.019531 -170.296875 358.660156 -169.347656 357.300781 -168.402344 C 356.332031 -167.703125 355.367188 -167 354.449219 -166.265625 C 352.453125 -164.722656 352.707031 -164.289062 353.023438 -162.082031 C 353.359375 -159.523438 353.160156 -156.785156 353.417969 -154.167969 C 353.644531 -151.507812 353.945312 -148.898438 353.90625 -146.230469 C 353.808594 -140.0625 352.695312 -133.925781 352.378906 -127.761719 C 351.71875 -114.597656 354.5 -102.019531 357.472656 -89.34375 C 358.867188 -83.40625 360.300781 -77.472656 360.890625 -71.386719 C 361.527344 -64.785156 361.605469 -58.125 362.421875 -51.511719 C 363.039062 -46.695312 364.875 -42.886719 366.667969 -38.808594 C 367.722656 -34.726562 369.066406 -30.738281 370.535156 -26.777344 C 371.410156 -22.703125 372.03125 -18.585938 372.90625 -14.515625 C 374.140625 -8.722656 375.648438 -2.628906 378.449219 2.617188 C 379.863281 5.328125 381.09375 7.5 381.773438 10.515625 C 382.535156 13.953125 382.738281 17.453125 383.445312 20.855469 C 383.726562 22.15625 384 23.414062 384.367188 24.699219 L 384.40625 24.910156 C 384.851562 26.617188 385.386719 28.351562 385.964844 30.078125 C 386.015625 30.113281 386.03125 30.199219 385.996094 30.25 C 389.085938 39.238281 393.289062 48.109375 395.914062 57.183594 C 396.929688 60.835938 398.117188 64.457031 399.355469 68.113281 C 399.234375 67.917969 399.066406 67.730469 398.9375 67.492188 C 398.707031 67.1875 398.515625 66.871094 398.277344 66.523438 C 396.316406 63.214844 394.285156 60.011719 391.964844 56.902344 C 387.527344 51.082031 382.644531 45.214844 376.652344 40.941406 C 370.800781 36.734375 364.355469 32.851562 357.824219 29.726562 C 356.96875 29.359375 356.253906 30.710938 357.039062 31.179688 C 368.289062 37.847656 377.253906 47.59375 385.554688 57.550781 C 386.566406 58.761719 387.523438 59.9375 388.484375 61.113281 C 390.902344 64.03125 392.773438 67.09375 394.796875 70.253906 C 396.816406 73.378906 399.191406 76.082031 400.773438 79.457031 C 402.417969 82.953125 403.734375 86.550781 405.261719 90.113281 C 405.414062 90.476562 405.628906 90.917969 405.796875 91.367188 C 406.035156 92.675781 406.285156 94.023438 406.4375 95.347656 C 407.121094 100.765625 405.542969 106.027344 405.347656 111.425781 C 405.148438 118.007812 405.753906 124.441406 404.941406 131 C 404.109375 137.957031 404.394531 145.019531 404.484375 151.980469 C 404.578125 159.203125 404.007812 166.375 404.355469 173.554688 C 404.738281 180.683594 406.984375 187.6875 408.925781 194.488281 C 410.152344 198.800781 408.539062 206.03125 412.878906 208.683594 C 414.453125 209.617188 416.394531 209.699219 418.21875 209.625 C 418.398438 209.636719 418.523438 209.613281 418.703125 209.625 C 420.273438 209.601562 421.871094 209.480469 423.472656 209.363281 C 424.417969 209.277344 425.402344 209.140625 426.121094 208.53125 Z M 426.121094 208.53125 " fill-opacity="1" fill-rule="nonzero"/><path fill="#7f4c38" d="M 395.914062 57.183594 C 393.289062 48.109375 389.085938 39.238281 385.996094 30.25 C 386.03125 30.199219 386.015625 30.113281 385.964844 30.078125 C 385.890625 29.4375 385.777344 28.804688 385.660156 28.171875 C 385.601562 28.09375 385.542969 28.019531 385.527344 27.933594 C 385.167969 26.910156 384.761719 25.894531 384.40625 24.910156 L 384.367188 24.699219 C 384 23.414062 383.726562 22.15625 383.445312 20.855469 C 382.738281 17.453125 382.535156 13.953125 381.773438 10.515625 C 381.09375 7.5 379.863281 5.324219 378.449219 2.617188 C 375.648438 -2.628906 374.140625 -8.722656 372.90625 -14.515625 C 372.03125 -18.585938 371.410156 -22.707031 370.535156 -26.777344 C 369.066406 -30.738281 367.722656 -34.726562 366.667969 -38.808594 C 364.875 -42.886719 363.039062 -46.695312 362.421875 -51.511719 C 361.605469 -58.125 361.527344 -64.785156 360.890625 -71.386719 C 360.300781 -77.472656 358.867188 -83.40625 357.472656 -89.34375 C 354.5 -102.019531 351.71875 -114.597656 352.378906 -127.761719 C 352.695312 -133.925781 353.808594 -140.0625 353.90625 -146.230469 C 353.945312 -148.898438 353.644531 -151.507812 353.417969 -154.171875 C 353.160156 -156.785156 353.359375 -159.523438 353.023438 -162.082031 C 352.707031 -164.292969 352.453125 -164.722656 354.449219 -166.265625 C 355.367188 -167.003906 356.332031 -167.703125 357.300781 -168.402344 C 359.09375 -162.1875 359.257812 -155.542969 359.890625 -149.203125 C 360.269531 -145.695312 360.535156 -142.078125 360.175781 -138.523438 C 359.792969 -134.875 358.742188 -131.28125 357.8125 -127.75 C 356.996094 -124.546875 356.238281 -121.269531 356.28125 -117.917969 C 356.347656 -114.441406 357.226562 -111.066406 358.183594 -107.753906 C 359.945312 -101.707031 361.210938 -95.742188 362.210938 -89.554688 C 362.152344 -90.59375 362.015625 -91.570312 361.773438 -92.660156 C 361.027344 -96.015625 360.84375 -99.425781 360.917969 -102.84375 C 361.128906 -110.078125 360.441406 -117.195312 360.210938 -124.4375 C 360.191406 -124.785156 360.757812 -124.800781 360.820312 -124.464844 C 361.558594 -117.3125 361.921875 -110.050781 363.050781 -102.925781 C 363.617188 -99.585938 364.074219 -96.136719 364.902344 -92.796875 C 365.675781 -89.753906 364.9375 -87.089844 365.230469 -84.042969 C 366.625 -70.429688 372.195312 -57.703125 374.34375 -44.269531 C 374.421875 -43.847656 373.886719 -43.660156 373.6875 -44.015625 C 372.085938 -47.039062 371.445312 -50.542969 370.582031 -53.832031 C 369.65625 -57.457031 368.441406 -60.988281 367.234375 -64.476562 C 366.484375 -66.648438 365.53125 -68.746094 364.742188 -70.910156 C 364.925781 -69.679688 365.054688 -68.484375 365.238281 -67.25 C 366.183594 -60.398438 365.457031 -53.59375 367.941406 -46.9375 C 370.253906 -40.773438 373.65625 -35.332031 374.902344 -28.753906 C 375.496094 -25.503906 375.703125 -22.226562 375.78125 -18.921875 C 375.878906 -15.976562 375.808594 -12.777344 376.679688 -9.925781 C 378.347656 -4.648438 382.183594 -0.421875 384.617188 4.5 C 384.523438 3.515625 384.464844 2.476562 384.402344 1.398438 C 383.929688 -4.535156 381.835938 -9.996094 380.066406 -15.605469 C 379.878906 -16.140625 380.789062 -16.4375 381.015625 -15.910156 C 383.144531 -10.5 385.554688 -5.222656 386.6875 0.5 C 387.773438 6.191406 387.769531 11.6875 390.152344 17.054688 C 392.558594 22.546875 394.789062 28.03125 396.871094 33.667969 C 398.796875 38.945312 400.636719 44.933594 400.886719 50.601562 C 400.90625 50.949219 400.382812 51.21875 400.222656 50.8125 C 399.015625 47.804688 398.292969 44.578125 397.207031 41.503906 C 396.214844 38.71875 395.234375 35.976562 394.164062 33.246094 C 392.476562 28.800781 390.625 24.429688 388.65625 20.121094 C 388.835938 22.3125 388.882812 24.484375 389.183594 26.613281 C 391.226562 33.699219 393.136719 40.808594 395.714844 47.710938 C 397.804688 53.390625 399.722656 59.105469 401.6875 64.808594 C 402.636719 67.601562 403.851562 70.433594 405.082031 73.085938 C 406.144531 75.292969 407.710938 77.40625 408.355469 79.730469 C 408.449219 80.238281 407.789062 80.707031 407.375 80.34375 C 405.308594 78.628906 403.976562 75.90625 402.4375 73.703125 C 400.976562 71.699219 399.835938 69.769531 398.9375 67.492188 C 399.066406 67.730469 399.234375 67.917969 399.355469 68.113281 C 398.117188 64.457031 396.929688 60.835938 395.914062 57.183594 Z M 417.996094 206.003906 C 417.957031 205.792969 417.867188 205.546875 417.828125 205.335938 C 417.425781 192.582031 413.0625 179.726562 415.234375 166.941406 C 416.28125 160.6875 416.089844 154.613281 415.902344 148.324219 C 415.796875 145.113281 415.996094 141.894531 415.933594 138.675781 C 415.886719 135.542969 415.324219 132.460938 415.152344 129.351562 C 415.117188 128.921875 414.378906 128.96875 414.40625 129.359375 C 414.621094 142.273438 413.671875 155.273438 411.53125 168.011719 C 410.832031 172.328125 411 176.832031 411.460938 181.285156 C 411.4375 181.160156 411.382812 181.082031 411.367188 180.996094 C 409.828125 175.214844 409.140625 169.539062 409.269531 163.539062 C 409.386719 157.714844 409.902344 151.90625 409.714844 146.09375 C 409.523438 140.023438 408.976562 134.144531 409.445312 128.085938 C 409.894531 122.15625 409.96875 116.339844 410.019531 110.398438 C 410.019531 105.121094 411.832031 98.988281 409.867188 93.980469 C 407.722656 88.484375 404.027344 83.835938 400.925781 78.863281 C 399.136719 76.007812 397.441406 73.21875 396.015625 70.207031 C 394.769531 67.46875 393.300781 64.945312 391.277344 62.742188 C 389.527344 60.835938 387.527344 59.238281 385.554688 57.550781 C 386.566406 58.761719 387.523438 59.9375 388.484375 61.113281 C 390.902344 64.03125 392.773438 67.09375 394.800781 70.253906 C 396.816406 73.378906 399.191406 76.082031 400.773438 79.457031 C 402.417969 82.953125 403.734375 86.550781 405.261719 90.109375 C 405.414062 90.476562 405.628906 90.917969 405.796875 91.367188 C 406.035156 92.675781 406.285156 94.023438 406.4375 95.347656 C 407.121094 100.765625 405.542969 106.027344 405.347656 111.425781 C 405.148438 118.007812 405.753906 124.441406 404.941406 131 C 404.109375 137.957031 404.394531 145.015625 404.484375 151.980469 C 404.578125 159.203125 404.007812 166.375 404.355469 173.554688 C 404.738281 180.683594 406.984375 187.6875 408.925781 194.488281 C 410.152344 198.800781 408.539062 206.03125 412.878906 208.683594 C 414.453125 209.617188 416.394531 209.699219 418.21875 209.625 C 418.398438 209.636719 418.523438 209.613281 418.703125 209.625 C 418.433594 208.410156 418.253906 207.175781 417.996094 206.003906 Z M 375.402344 -83.023438 C 374.816406 -79.777344 374.632812 -76.472656 374.53125 -73.179688 L 374.070312 -75.714844 C 374.078125 -75.671875 374.050781 -75.582031 374.058594 -75.539062 C 373.988281 -72.558594 374.261719 -69.378906 374.71875 -66.410156 C 374.855469 -65.433594 376.277344 -65.5625 376.410156 -66.5 C 376.773438 -69.316406 375.875 -72.074219 376.015625 -74.890625 C 376.164062 -77.667969 377.585938 -80.195312 378.222656 -82.929688 C 379.441406 -88.257812 379.730469 -93.851562 382.09375 -98.90625 C 383.328125 -101.488281 385.101562 -103.773438 386.386719 -106.320312 C 387.613281 -108.726562 388.617188 -111.136719 390.035156 -113.445312 C 382.316406 -105.097656 377.441406 -93.910156 375.402344 -83.023438 Z M 375.402344 -83.023438 " fill-opacity="1" fill-rule="nonzero"/></g></g></g></g><g clip-path="url(#1c3db37ad8)"><g clip-path="url(#6d5815a3bd)"><g clip-path="url(#35e80dfdcc)"><g clip-path="url(#3e995aab57)"><path fill="#5f926a" d="M 363.445312 46.324219 C 361.023438 48.421875 357.730469 49.332031 354.539062 49.347656 C 351.308594 49.414062 348.144531 48.640625 345.070312 47.632812 C 344.835938 47.542969 344.609375 47.5 344.40625 47.359375 C 344.257812 47.257812 344.105469 47.15625 344.027344 46.953125 C 343.761719 46.476562 343.96875 45.914062 344.230469 45.429688 C 345.59375 42.824219 347.726562 40.605469 350.3125 39.171875 C 352.226562 38.121094 354.226562 37.609375 356.265625 37.335938 C 353.234375 36.144531 350.886719 33.765625 348.894531 31.1875 C 344.960938 26.191406 341.929688 20.15625 341.855469 13.757812 C 341.839844 13.195312 341.9375 12.523438 342.253906 12.113281 C 342.402344 11.957031 342.511719 11.847656 342.71875 11.769531 C 343.042969 11.621094 343.394531 11.644531 343.757812 11.707031 C 347.015625 12.03125 350.355469 12.335938 353.5 13.242188 C 356.683594 14.144531 359.769531 15.675781 362.042969 18.050781 C 364.367188 20.460938 365.738281 23.65625 366.511719 26.917969 C 366.980469 29.011719 367.203125 31.195312 367.378906 33.347656 C 367.414062 34.257812 367.921875 36.082031 367.441406 37.042969 C 367.414062 37.136719 367.386719 37.226562 367.3125 37.285156 C 367.238281 37.371094 367.078125 37.402344 366.976562 37.472656 C 368.871094 37.71875 368.621094 38.453125 367.59375 40.503906 C 366.5 42.667969 365.304688 44.761719 363.445312 46.324219 Z M 418.109375 -124.683594 C 417.921875 -125 417.503906 -125.140625 417.175781 -125.253906 C 415.746094 -125.648438 414.351562 -126.089844 412.914062 -126.527344 C 410.734375 -127.175781 408.464844 -127.851562 406.152344 -127.820312 C 406.109375 -127.8125 406.109375 -127.8125 406.066406 -127.804688 C 403.269531 -127.773438 400.503906 -126.613281 398.542969 -124.640625 C 397.140625 -123.277344 396.171875 -121.464844 395.640625 -119.546875 C 395.957031 -121.480469 395.566406 -124.136719 395.304688 -125.097656 C 394.863281 -126.804688 394.078125 -128.449219 392.953125 -129.8125 C 392.605469 -130.273438 392.089844 -130.703125 391.546875 -130.558594 C 391.214844 -130.457031 391.007812 -130.15625 390.84375 -129.863281 C 390.640625 -129.523438 390.449219 -129.136719 390.292969 -128.804688 C 389.398438 -126.984375 389.015625 -124.992188 389.328125 -123.042969 C 389.535156 -121.6875 390.078125 -120.390625 390.972656 -119.332031 C 391.601562 -118.53125 393.0625 -117.007812 394.234375 -117.308594 C 394.90625 -117.46875 395.25 -118.097656 395.472656 -118.902344 C 395.46875 -118.851562 395.449219 -118.796875 395.457031 -118.753906 C 395.25 -117.976562 395.28125 -117.328125 396.3125 -117.429688 C 397.59375 -117.617188 398.597656 -118.105469 399.964844 -118.050781 C 401.601562 -117.957031 403.253906 -117.5625 404.898438 -117.425781 C 409.742188 -117.046875 414.765625 -119.273438 417.730469 -123.175781 C 418.050781 -123.582031 418.375 -124.210938 418.109375 -124.683594 Z M 429.28125 144.351562 C 429.742188 144.003906 430.277344 143.820312 430.8125 143.632812 C 432.863281 142.867188 435.121094 142.757812 437.089844 141.789062 C 439.347656 140.722656 441.023438 138.625 442.050781 136.34375 C 443.078125 134.0625 443.585938 131.570312 444.050781 129.085938 C 444.210938 128.273438 444.238281 127.21875 443.472656 126.878906 C 443.097656 126.730469 442.671875 126.808594 442.289062 126.878906 C 442.078125 126.917969 441.824219 126.964844 441.621094 127.042969 C 440.230469 127.34375 438.882812 127.632812 437.449219 127.9375 C 435.761719 128.289062 433.996094 128.699219 432.492188 129.585938 C 430.324219 130.898438 428.871094 133.257812 428.136719 135.703125 C 427.359375 138.15625 427.214844 140.714844 427.066406 143.269531 C 427.042969 143.84375 427.140625 144.871094 427.675781 145.167969 C 427.835938 145.3125 428.097656 145.308594 428.386719 145.210938 C 428.675781 145.113281 429.007812 144.53125 429.28125 144.351562 Z M 429.28125 144.351562 " fill-opacity="1" fill-rule="nonzero"/><path fill="#587e60" d="M 365.671875 39.0625 C 366.417969 38.691406 367.042969 38.191406 367.746094 37.757812 C 367.890625 37.671875 368.101562 37.820312 368.074219 37.984375 C 367.816406 39.480469 366.15625 40.015625 364.960938 40.617188 C 363.105469 41.550781 361.3125 42.585938 359.359375 43.320312 C 357.464844 44.03125 355.570312 44.394531 353.5625 44.589844 C 351.441406 44.796875 349.363281 45.035156 347.457031 46.058594 C 347.21875 46.1875 347.050781 45.820312 347.277344 45.691406 C 350.566406 43.777344 354.625 43.890625 358.160156 42.617188 C 360 41.957031 361.753906 41.078125 363.476562 40.164062 C 364.199219 39.777344 364.933594 39.429688 365.671875 39.0625 Z M 427.941406 143.996094 C 428.046875 144.050781 428.183594 144.058594 428.21875 143.917969 C 428.417969 143.125 428.59375 142.425781 429.003906 141.703125 C 429.398438 141.007812 429.851562 140.351562 430.246094 139.65625 C 431.179688 138.007812 432.230469 136.417969 433.789062 135.289062 C 435.390625 134.128906 437.136719 133.132812 438.816406 132.082031 C 440.34375 131.125 441.417969 129.941406 442.558594 128.566406 C 442.6875 128.410156 442.4375 128.183594 442.292969 128.328125 C 441.585938 129.03125 440.90625 129.773438 440.125 130.390625 C 439.292969 131.042969 438.316406 131.46875 437.378906 131.941406 C 435.609375 132.835938 433.625 133.769531 432.125 135.085938 C 430.949219 136.117188 430.195312 137.394531 429.453125 138.710938 C 429.453125 138.6875 429.460938 138.667969 429.464844 138.644531 C 429.464844 138.644531 429.464844 138.644531 429.457031 138.601562 C 429.757812 136.671875 429.777344 134.617188 430.78125 132.910156 C 431.972656 130.8125 434.316406 129.730469 436.628906 128.960938 C 437.664062 128.640625 438.742188 128.3125 439.761719 127.90625 C 440.417969 127.65625 441.015625 127.328125 441.621094 127.042969 C 440.230469 127.34375 438.882812 127.632812 437.449219 127.9375 C 435.761719 128.289062 433.996094 128.699219 432.492188 129.585938 C 430.324219 130.898438 428.871094 133.257812 428.136719 135.703125 C 427.359375 138.15625 427.214844 140.714844 427.066406 143.269531 C 427.042969 143.84375 427.140625 144.871094 427.675781 145.167969 C 427.734375 144.765625 427.839844 144.402344 427.941406 143.996094 Z M 395.472656 -118.902344 C 395.46875 -118.851562 395.449219 -118.796875 395.457031 -118.753906 C 395.449219 -118.726562 395.582031 -118.898438 395.761719 -119.132812 C 396.3125 -119.15625 396.78125 -119.417969 397.226562 -119.75 C 397.976562 -120.3125 398.621094 -120.921875 399.445312 -121.402344 C 401.074219 -122.347656 402.753906 -123.179688 404.589844 -123.648438 C 406.460938 -124.125 408.257812 -124.175781 410.167969 -123.957031 C 411.167969 -123.84375 412.171875 -123.742188 413.175781 -123.671875 C 414.101562 -123.605469 414.914062 -123.929688 415.820312 -123.976562 C 416.054688 -123.988281 416.03125 -124.371094 415.800781 -124.382812 C 414.800781 -124.433594 413.867188 -124.210938 412.851562 -124.363281 C 411.808594 -124.519531 410.78125 -124.695312 409.75 -124.925781 C 407.925781 -125.324219 406.179688 -125.320312 404.363281 -124.882812 C 402.824219 -124.507812 401.417969 -123.894531 400.0625 -123.109375 C 400.449219 -123.683594 400.792969 -124.300781 401.214844 -124.867188 C 402.332031 -126.425781 404.167969 -127.414062 406.066406 -127.804688 C 403.269531 -127.773438 400.503906 -126.613281 398.542969 -124.640625 C 397.171875 -123.304688 396.222656 -121.535156 395.683594 -119.65625 C 395.628906 -119.605469 395.574219 -119.554688 395.515625 -119.503906 C 395.488281 -119.480469 395.523438 -119.445312 395.515625 -119.417969 C 395.410156 -119.566406 395.292969 -119.710938 395.132812 -119.8125 C 394.78125 -120.273438 394.238281 -120.683594 393.933594 -121.078125 C 393.355469 -121.820312 392.90625 -122.648438 392.53125 -123.507812 C 391.726562 -125.355469 392.300781 -127.394531 391.921875 -129.320312 C 391.871094 -129.589844 391.464844 -129.511719 391.5 -129.242188 C 391.648438 -128.144531 391.492188 -127.058594 391.402344 -125.960938 C 391.316406 -124.945312 391.386719 -123.945312 391.691406 -122.964844 C 391.910156 -122.257812 392.28125 -121.597656 392.699219 -120.976562 C 391.609375 -121.726562 390.804688 -122.894531 390.398438 -124.15625 C 389.949219 -125.644531 390.003906 -127.269531 390.292969 -128.804688 C 389.398438 -126.984375 389.015625 -124.992188 389.328125 -123.042969 C 389.535156 -121.6875 390.078125 -120.390625 390.972656 -119.332031 C 391.601562 -118.53125 393.0625 -117.007812 394.234375 -117.308594 C 394.90625 -117.46875 395.25 -118.097656 395.472656 -118.902344 Z M 355.179688 23.839844 C 357.34375 25.695312 359.679688 27.433594 361.710938 29.429688 C 363.734375 31.414062 365.121094 33.933594 367.007812 36.035156 C 367.144531 36.1875 367.359375 36.027344 367.292969 35.851562 C 365.398438 30.667969 361.011719 27.335938 356.964844 23.902344 C 354.890625 22.144531 352.820312 20.414062 350.628906 18.804688 C 348.453125 17.203125 346.335938 15.59375 344.710938 13.414062 C 344.570312 13.230469 344.242188 13.4375 344.367188 13.636719 C 347.042969 17.839844 351.460938 20.636719 355.179688 23.839844 Z M 349.007812 41.851562 C 351.503906 40.175781 354.519531 39.667969 357.472656 39.300781 C 359.066406 39.140625 360.699219 38.972656 362.265625 38.6875 C 362.910156 38.613281 363.992188 38.546875 364.582031 38.175781 C 364.617188 38.152344 364.625 38.132812 364.65625 38.109375 C 365.757812 38.03125 366.847656 37.835938 367.3125 37.285156 C 367.386719 37.226562 367.414062 37.136719 367.441406 37.042969 C 363.589844 36.089844 360.214844 33.695312 356.980469 31.320312 C 352.324219 27.898438 347.511719 24.328125 344.664062 19.308594 C 343.429688 17.089844 342.582031 14.628906 342.253906 12.113281 C 341.9375 12.523438 341.839844 13.195312 341.855469 13.757812 C 341.929688 20.15625 344.960938 26.191406 348.894531 31.1875 C 350.886719 33.765625 353.234375 36.144531 356.265625 37.335938 C 354.226562 37.609375 352.226562 38.121094 350.3125 39.171875 C 347.726562 40.605469 345.59375 42.824219 344.230469 45.429688 C 343.96875 45.914062 343.761719 46.476562 344.027344 46.953125 C 344.105469 47.15625 344.257812 47.257812 344.40625 47.359375 C 345.585938 45.183594 347.023438 43.21875 349.007812 41.851562 Z M 349.007812 41.851562 " fill-opacity="1" fill-rule="nonzero"/></g></g></g></g></svg>