<svg xmlns="http://www.w3.org/2000/svg" xmlns:xlink="http://www.w3.org/1999/xlink" width="500" zoomAndPan="magnify" viewBox="0 0 375 374.999991" height="500" preserveAspectRatio="xMidYMid meet" version="1.0"><defs><clipPath id="3f8a8989f1"><path d="M 233 0 L 375 0 L 375 202 L 233 202 Z M 233 0 " clip-rule="nonzero"/></clipPath><clipPath id="e3a44dc2dd"><path d="M 420.128906 -79.660156 L 792.273438 185.160156 L 559.628906 512.085938 L 187.488281 247.265625 Z M 420.128906 -79.660156 " clip-rule="nonzero"/></clipPath><clipPath id="1c55906808"><path d="M 367.511719 -5.71875 L 552.667969 126.039062 L 372.640625 379.023438 L 187.488281 247.265625 Z M 367.511719 -5.71875 " clip-rule="nonzero"/></clipPath><clipPath id="14e43b9269"><path d="M 420.125 -79.652344 L 792.269531 185.167969 L 559.628906 512.089844 L 187.484375 247.269531 Z M 420.125 -79.652344 " clip-rule="nonzero"/></clipPath><clipPath id="a47747ea14"><path d="M 257 0 L 375 0 L 375 375 L 257 375 Z M 257 0 " clip-rule="nonzero"/></clipPath><clipPath id="aa138b0d67"><path d="M 420.128906 -79.660156 L 792.273438 185.160156 L 559.628906 512.085938 L 187.488281 247.265625 Z M 420.128906 -79.660156 " clip-rule="nonzero"/></clipPath><clipPath id="84ede0eb26"><path d="M 367.511719 -5.71875 L 552.667969 126.039062 L 372.640625 379.023438 L 187.488281 247.265625 Z M 367.511719 -5.71875 " clip-rule="nonzero"/></clipPath><clipPath id="c655e0d63f"><path d="M 420.125 -79.652344 L 792.269531 185.167969 L 559.628906 512.089844 L 187.484375 247.269531 Z M 420.125 -79.652344 " clip-rule="nonzero"/></clipPath><clipPath id="1ccced7c0e"><path d="M 322 47 L 375 47 L 375 375 L 322 375 Z M 322 47 " clip-rule="nonzero"/></clipPath><clipPath id="adfe6ff5a0"><path d="M 420.128906 -79.660156 L 792.273438 185.160156 L 559.628906 512.085938 L 187.488281 247.265625 Z M 420.128906 -79.660156 " clip-rule="nonzero"/></clipPath><clipPath id="59f8c370e0"><path d="M 367.511719 -5.71875 L 552.667969 126.039062 L 372.640625 379.023438 L 187.488281 247.265625 Z M 367.511719 -5.71875 " clip-rule="nonzero"/></clipPath><clipPath id="6f12ea0614"><path d="M 420.125 -79.652344 L 792.269531 185.167969 L 559.628906 512.089844 L 187.484375 247.269531 Z M 420.125 -79.652344 " clip-rule="nonzero"/></clipPath><clipPath id="c25e028475"><path d="M 297 173 L 375 173 L 375 342 L 297 342 Z M 297 173 " clip-rule="nonzero"/></clipPath><clipPath id="70b2c81834"><path d="M 420.128906 -79.660156 L 792.273438 185.160156 L 559.628906 512.085938 L 187.488281 247.265625 Z M 420.128906 -79.660156 " clip-rule="nonzero"/></clipPath><clipPath id="8e1f120f24"><path d="M 367.511719 -5.71875 L 552.667969 126.039062 L 372.640625 379.023438 L 187.488281 247.265625 Z M 367.511719 -5.71875 " clip-rule="nonzero"/></clipPath><clipPath id="89dcdb9280"><path d="M 420.125 -79.652344 L 792.269531 185.167969 L 559.628906 512.089844 L 187.484375 247.269531 Z M 420.125 -79.652344 " clip-rule="nonzero"/></clipPath><clipPath id="175f206fea"><path d="M 243 175 L 375 175 L 375 325 L 243 325 Z M 243 175 " clip-rule="nonzero"/></clipPath><clipPath id="c382850883"><path d="M 420.128906 -79.660156 L 792.273438 185.160156 L 559.628906 512.085938 L 187.488281 247.265625 Z M 420.128906 -79.660156 " clip-rule="nonzero"/></clipPath><clipPath id="7b125a3af0"><path d="M 367.511719 -5.71875 L 552.667969 126.039062 L 372.640625 379.023438 L 187.488281 247.265625 Z M 367.511719 -5.71875 " clip-rule="nonzero"/></clipPath><clipPath id="3c250cb500"><path d="M 420.125 -79.652344 L 792.269531 185.167969 L 559.628906 512.089844 L 187.484375 247.269531 Z M 420.125 -79.652344 " clip-rule="nonzero"/></clipPath></defs><g clip-path="url(#3f8a8989f1)"><g clip-path="url(#e3a44dc2dd)"><g clip-path="url(#1c55906808)"><g clip-path="url(#14e43b9269)"><path fill="#ea9dc2" d="M 265.539062 194.789062 C 262.527344 195.101562 259.496094 195.621094 256.703125 196.835938 C 254.113281 197.960938 251.789062 199.652344 249.15625 200.675781 C 246.453125 201.726562 243.464844 201.996094 240.609375 201.527344 C 239.152344 201.285156 237.722656 200.851562 236.386719 200.230469 C 235.339844 199.742188 233.660156 199.625 233.550781 198.179688 C 233.488281 197.335938 233.925781 196.539062 234.347656 195.800781 C 236.382812 192.25 238.566406 188.570312 242.015625 186.367188 C 242.757812 185.890625 243.554688 185.523438 244.371094 185.207031 C 242.164062 182.445312 240.511719 179.238281 239.585938 175.824219 C 239.386719 175.078125 239.289062 174.121094 239.925781 173.683594 C 240.171875 173.511719 240.476562 173.464844 240.773438 173.425781 C 243.238281 173.09375 245.753906 173.03125 248.21875 173.308594 C 248.054688 172.175781 248.039062 171.019531 248.148438 169.878906 C 248.371094 167.582031 249.0625 165.355469 249.894531 163.203125 C 250.652344 161.242188 252.152344 158.976562 254.484375 160.273438 C 258.015625 162.238281 261.171875 165.394531 261.894531 169.371094 C 262.222656 171.183594 262.035156 173.085938 262.574219 174.84375 C 263.207031 176.910156 264.746094 178.671875 266.136719 180.273438 C 267.480469 181.820312 270.691406 183.898438 270.457031 186.25 C 270.335938 187.449219 269.652344 188.296875 268.742188 188.855469 C 269.601562 189.558594 270.386719 190.382812 270.605469 191.453125 C 271.273438 194.738281 267.582031 194.574219 265.539062 194.789062 Z M 350.621094 182.128906 C 351.722656 181.644531 352.015625 179.351562 352.453125 177.988281 C 353.074219 176.058594 354 174.246094 354.386719 172.242188 C 355.292969 167.566406 353.015625 162.4375 348.933594 159.972656 C 347.71875 161.339844 347.1875 163.167969 346.742188 164.941406 C 346.421875 166.203125 346.128906 167.480469 345.910156 168.769531 C 345.800781 168.578125 345.730469 168.363281 345.617188 168.175781 C 344.160156 165.792969 342.222656 163.699219 339.910156 162.121094 C 339.390625 161.765625 338.722656 161.425781 338.160156 161.707031 C 337.835938 161.867188 337.636719 162.195312 337.46875 162.511719 C 335.523438 166.144531 335.394531 170.691406 337.128906 174.429688 C 337.21875 174.621094 337.375 174.769531 337.472656 174.953125 C 336.386719 174.988281 335.316406 175.15625 334.335938 175.617188 C 332.554688 176.449219 331.140625 178.246094 331.183594 180.214844 C 333.039062 180.125 334.867188 180.53125 336.621094 181.113281 C 339.71875 182.140625 342.625 183.75 345.820312 184.492188 C 346.953125 184.757812 349.042969 185.316406 350.09375 184.578125 C 350.984375 183.953125 350.953125 183.007812 350.621094 182.128906 Z M 395.367188 43.023438 C 395.03125 42.8125 394.683594 42.609375 394.34375 42.394531 C 394.804688 42.363281 395.210938 42.183594 395.492188 41.738281 C 396.226562 40.574219 394.816406 37.746094 394.558594 36.542969 C 393.582031 31.953125 392.394531 27.46875 389.875 23.449219 C 386.761719 18.480469 381.59375 14.507812 375.746094 14.082031 C 375.328125 14.050781 374.851562 14.0625 374.574219 14.375 C 374.277344 14.714844 374.359375 15.234375 374.464844 15.675781 C 375.898438 21.863281 377.445312 28.289062 381.457031 33.214844 C 381.652344 33.457031 381.882812 33.664062 382.089844 33.898438 C 379.488281 32.90625 376.78125 32.195312 374.023438 31.824219 C 371.082031 31.425781 368.089844 31.394531 365.144531 31.753906 C 366.855469 34.878906 369.296875 37.550781 372.160156 39.660156 C 369.730469 40.515625 367.300781 41.371094 364.871094 42.226562 C 363.835938 42.59375 362.554688 43.453125 362.988281 44.464844 C 363.171875 44.894531 363.625 45.140625 364.050781 45.34375 C 366.785156 46.664062 369.683594 47.648438 372.648438 48.296875 C 377.921875 49.449219 383.429688 49.535156 388.734375 48.542969 C 391.199219 48.082031 393.648438 47.542969 396.082031 47.089844 C 398.96875 46.554688 396.976562 44.039062 395.367188 43.023438 Z M 503.050781 -10.265625 C 502.953125 -11.542969 501.875 -12.503906 500.835938 -13.246094 C 496.820312 -16.109375 492.015625 -17.925781 487.089844 -18.121094 C 486.324219 -18.148438 485.5625 -18.066406 484.796875 -18.015625 C 486.035156 -21.835938 486.128906 -26.035156 484.835938 -29.839844 C 484.433594 -31.027344 483.839844 -32.25 482.742188 -32.863281 C 481.613281 -33.496094 480.226562 -33.328125 478.945312 -33.140625 C 476.34375 -32.765625 473.746094 -32.390625 471.144531 -32.011719 C 468.722656 -31.660156 466.167969 -31.226562 464.101562 -30.019531 C 463.796875 -30.339844 463.507812 -30.679688 463.195312 -30.984375 C 460.445312 -33.640625 457.265625 -35.800781 454.105469 -37.949219 C 453.539062 -38.332031 452.84375 -38.734375 452.203125 -38.480469 C 451.699219 -38.277344 451.433594 -37.730469 451.226562 -37.222656 C 448.796875 -31.230469 448.347656 -24.457031 449.964844 -18.195312 C 451.042969 -14.011719 453.042969 -10.070312 455.753906 -6.703125 C 457.332031 -4.742188 461.191406 0.796875 464.308594 -0.59375 C 464.308594 -0.582031 464.304688 -0.570312 464.304688 -0.558594 C 464.511719 1.8125 466.738281 3.613281 469.070312 4.089844 C 471.402344 4.566406 473.808594 4 476.101562 3.367188 L 474.335938 3.609375 C 482.269531 1.78125 489.09375 -4.585938 497.257812 -6.230469 C 498.53125 -6.484375 499.851562 -6.632812 501.007812 -7.21875 C 502.167969 -7.804688 503.152344 -8.972656 503.050781 -10.265625 Z M 503.050781 -10.265625 " fill-opacity="1" fill-rule="nonzero"/></g></g></g></g><g clip-path="url(#a47747ea14)"><g clip-path="url(#aa138b0d67)"><g clip-path="url(#84ede0eb26)"><g clip-path="url(#c655e0d63f)"><path fill="#a47052" d="M 431.957031 173.21875 L 431.945312 173.1875 C 431.945312 173.167969 431.945312 173.148438 431.945312 173.128906 C 431.949219 173.160156 431.953125 173.1875 431.957031 173.21875 Z M 431.949219 173.230469 C 431.949219 173.21875 431.949219 173.203125 431.945312 173.1875 C 431.9375 173.164062 431.929688 173.140625 431.921875 173.113281 C 431.925781 173.125 431.925781 173.140625 431.925781 173.152344 C 431.933594 173.179688 431.941406 173.207031 431.949219 173.230469 Z M 431.617188 171.664062 C 431.65625 171.785156 431.679688 171.898438 431.714844 172.015625 C 431.738281 172.097656 431.773438 172.175781 431.796875 172.257812 C 431.738281 172.058594 431.679688 171.863281 431.617188 171.664062 Z M 561.839844 506.074219 C 561.601562 505.074219 561.296875 504.082031 560.894531 503.144531 C 559.949219 500.628906 558.625 498.320312 557.464844 495.773438 C 555.871094 492.082031 555.003906 487.957031 554.0625 484.019531 C 552.074219 475.710938 550.625 467.308594 548.675781 459.027344 C 544.773438 442.21875 537.417969 427.003906 528.875 412.125 C 524.449219 404.398438 520.113281 396.796875 516.75 388.578125 C 513.628906 380.945312 511.15625 373.066406 508.816406 365.160156 C 507.652344 361.121094 506.484375 357.082031 505.617188 352.957031 C 504.777344 348.792969 504.519531 344.566406 503.542969 340.425781 C 502.699219 336.855469 502.179688 333.15625 501.796875 329.4375 C 502.285156 324.078125 502.703125 318.730469 502.710938 313.207031 C 502.660156 299.5 505.410156 286.121094 508.878906 272.898438 C 510.710938 266.058594 512.761719 259.253906 515.074219 252.582031 C 517.253906 246.347656 520.007812 240.222656 521.855469 233.867188 C 525.21875 222.296875 524.488281 210.125 522.78125 198.332031 C 521.832031 191.652344 520.746094 184.996094 520.375 178.25 C 519.964844 171.480469 520.59375 164.917969 521.523438 158.265625 C 521.714844 156.914062 519.789062 156.613281 519.285156 157.742188 C 517.765625 161.296875 516.871094 165.058594 516.441406 168.914062 C 516.453125 168.984375 516.425781 169.023438 516.425781 169.023438 C 515.554688 176.84375 516.328125 184.941406 516.6875 192.449219 C 517.230469 204.546875 518.535156 217.242188 515.964844 229.203125 C 514.601562 235.542969 511.878906 241.628906 509.820312 247.773438 C 507.542969 254.652344 505.300781 261.554688 503.421875 268.539062 C 502.421875 272.285156 501.527344 276.046875 500.710938 279.863281 C 500.5 278.824219 500.25 277.753906 500 276.6875 C 499.339844 273.777344 498.539062 270.890625 497.859375 268.089844 C 495.84375 260.234375 494.164062 252.324219 491.117188 244.746094 C 490.898438 244.203125 490.628906 243.679688 490.394531 243.140625 C 490.394531 243.140625 490.394531 243.140625 490.398438 243.140625 C 490.949219 241.753906 491.15625 240.171875 491.273438 238.691406 C 491.394531 237.144531 491.355469 235.507812 491.300781 233.957031 C 491.246094 232.527344 491.183594 230.972656 490.777344 229.59375 C 490.453125 228.5 489.898438 227.394531 489.992188 226.226562 C 490.09375 224.960938 488.355469 224.621094 487.871094 225.753906 C 487.339844 226.992188 487.417969 228.234375 487.457031 229.546875 C 487.492188 230.867188 487.480469 232.351562 487.4375 233.730469 C 487.402344 234.820312 487.40625 235.925781 487.441406 237.03125 C 485.050781 232.53125 482.320312 228.226562 479.253906 224.179688 C 471.949219 214.40625 463.359375 205.019531 459.15625 193.472656 C 459.320312 190.738281 459.671875 188.074219 459.914062 185.394531 C 461.023438 174.652344 460.414062 163.816406 461.417969 153.058594 C 462.546875 141.203125 466.636719 130.859375 472.289062 120.496094 C 477.542969 110.859375 481.613281 101.214844 484.554688 90.648438 C 485.023438 88.90625 485.429688 87.167969 485.898438 85.425781 C 486.160156 84.71875 486.386719 83.988281 486.582031 83.296875 C 487.070312 81.859375 487.59375 80.449219 488.230469 79.058594 C 489.316406 76.445312 490.363281 73.800781 491.53125 71.246094 C 494.078125 65.746094 499.875 62.859375 502.894531 57.695312 C 503.460938 56.734375 502.214844 55.3125 501.328125 56.222656 C 497.722656 59.957031 493.109375 63.097656 490.226562 67.402344 C 491.308594 62.707031 492.5 58.027344 493.839844 53.390625 C 494.050781 52.589844 492.894531 52.125 492.617188 52.9375 C 488.675781 63.984375 485.800781 75.371094 482.273438 86.589844 C 480.097656 93.660156 477.316406 100.238281 474.203125 106.703125 C 474.097656 105.261719 473.996094 103.820312 473.824219 102.390625 C 473.535156 100.460938 473.011719 98.605469 472.820312 96.621094 C 472.613281 94.574219 472.714844 92.507812 472.953125 90.417969 C 473.472656 86.269531 474.425781 82.253906 474.808594 78.128906 C 474.898438 77 473.316406 76.886719 473.082031 77.96875 C 472.382812 81.871094 471.152344 85.6875 470.453125 89.589844 C 469.730469 93.53125 469.832031 97.230469 470.421875 101.160156 C 470.882812 104.101562 471.128906 107.011719 470.972656 109.988281 L 470.945312 110.027344 C 470.980469 110.648438 470.90625 111.25 470.835938 111.851562 C 470.699219 112.707031 470.527344 113.535156 470.355469 114.363281 C 469.570312 115.886719 468.8125 117.367188 467.984375 118.859375 C 462.476562 129.027344 458.265625 139.285156 457.050781 150.84375 C 456.445312 156.117188 456.296875 161.421875 456.214844 166.714844 C 456.15625 165.125 456.097656 163.539062 455.933594 161.933594 C 455.847656 161.21875 455.789062 160.464844 455.703125 159.75 L 455.667969 159.546875 C 454.8125 151.984375 453.472656 144.433594 452.035156 136.933594 C 450.152344 127.390625 448 117.890625 445.882812 108.421875 C 444.5625 102.429688 443.144531 96.488281 441.171875 90.746094 C 442.6875 84.273438 443.464844 77.339844 444.105469 70.839844 C 444.882812 63.070312 446.269531 55.441406 449.277344 48.128906 C 452.515625 40.152344 455.808594 32.273438 458.304688 24.003906 C 458.859375 22.15625 459.238281 20.253906 459.574219 18.34375 C 460.125 17.132812 460.648438 15.914062 461.339844 14.773438 C 462.664062 12.582031 465.152344 10.96875 467.167969 9.425781 C 469.261719 7.828125 471.71875 7.015625 473.988281 5.71875 C 476.488281 4.292969 478.867188 2.714844 481.324219 1.21875 C 482.367188 0.582031 482.035156 -1.136719 480.667969 -0.9375 C 477.789062 -0.511719 474.816406 0.511719 472.054688 1.425781 C 470.207031 2.039062 468.445312 2.839844 466.742188 3.761719 C 467.035156 3.359375 467.316406 2.945312 467.632812 2.5625 C 468.203125 1.871094 468.855469 1.25 469.441406 0.570312 C 469.964844 -0.0390625 470.3125 -0.710938 470.761719 -1.371094 C 471.65625 -2.679688 473.238281 -3.71875 474.621094 -4.453125 C 475.542969 -4.941406 475.191406 -6.523438 474.0625 -6.285156 C 472.21875 -5.894531 470.648438 -5.054688 468.914062 -4.382812 C 468.058594 -4.050781 467.164062 -3.898438 466.363281 -3.433594 C 465.886719 -3.15625 465.507812 -2.777344 465.082031 -2.460938 C 465.234375 -3.824219 465.308594 -5.195312 465.375 -6.566406 C 465.414062 -7.367188 465.367188 -8.101562 465.246094 -8.894531 C 465.171875 -9.390625 464.992188 -9.945312 465.179688 -10.421875 C 465.589844 -11.476562 464.296875 -12.261719 463.457031 -11.648438 C 461.316406 -10.089844 461.035156 -7.363281 460.480469 -5.023438 C 460.328125 -4.398438 460.242188 -3.761719 460.113281 -3.136719 C 459.542969 -4.351562 459.035156 -5.59375 458.117188 -6.597656 C 457.246094 -7.542969 456.65625 -8.476562 455.996094 -9.574219 C 455.339844 -10.660156 454.269531 -11.503906 453.726562 -12.644531 C 453.3125 -13.515625 451.96875 -13.117188 452.109375 -12.152344 C 452.277344 -11.027344 452.835938 -10.167969 453.332031 -9.171875 C 453.90625 -8.035156 454.078125 -6.757812 454.617188 -5.609375 C 455.664062 -3.378906 456.347656 -1.007812 456.933594 1.386719 C 457.496094 3.667969 458.128906 5.910156 458.296875 8.261719 C 458.382812 9.457031 458.578125 10.648438 458.433594 11.847656 C 458.394531 12.148438 458.347656 12.4375 458.300781 12.726562 C 457.851562 13.878906 457.496094 15.097656 457.140625 16.269531 C 456.832031 17.289062 456.4375 18.585938 456.671875 19.683594 C 456.460938 20.464844 456.277344 21.25 456.027344 22.027344 C 453.292969 30.542969 449.3125 38.644531 445.835938 46.871094 C 442.808594 54.046875 441.273438 61.632812 440.378906 69.316406 C 439.929688 73.457031 439.359375 77.507812 438.699219 81.613281 C 438.542969 82.335938 438.425781 83.085938 438.308594 83.832031 C 434.597656 76.019531 428.90625 69.238281 422.761719 63.261719 C 419.011719 59.625 415.183594 56.089844 411.144531 52.832031 C 410.769531 52.054688 409.953125 51.535156 409.238281 51.097656 C 408.855469 50.859375 408.449219 50.660156 408.046875 50.445312 C 406.847656 49.558594 405.652344 48.671875 404.398438 47.855469 C 404.390625 47.777344 404.453125 47.71875 404.425781 47.640625 C 404.144531 46.847656 403.640625 46.390625 403.046875 45.824219 C 402.625 45.425781 402.273438 44.957031 401.886719 44.527344 C 400.984375 43.523438 399.96875 42.617188 399.0625 41.613281 C 398.179688 40.628906 397.5 39.476562 396.714844 38.421875 C 396.066406 37.550781 395.066406 36.882812 394.703125 35.832031 C 394.351562 34.839844 392.90625 35.390625 393.015625 36.347656 C 393.152344 37.5625 393.929688 38.480469 394.441406 39.550781 C 394.546875 39.765625 394.59375 39.992188 394.675781 40.214844 C 394.625 40.191406 394.578125 40.160156 394.523438 40.136719 C 393.625 39.726562 392.746094 39.339844 391.808594 39.027344 C 391.273438 38.847656 390.78125 38.667969 390.210938 38.679688 C 389.671875 38.695312 389.179688 38.589844 388.652344 38.488281 C 387.523438 38.265625 386.945312 39.988281 387.878906 40.578125 C 388.214844 40.789062 388.570312 40.980469 388.859375 41.226562 C 389.195312 41.519531 389.445312 41.800781 389.859375 42.007812 C 390.039062 42.097656 390.226562 42.183594 390.410156 42.273438 C 390.746094 42.433594 391.082031 42.585938 391.417969 42.746094 C 391.398438 42.75 391.378906 42.746094 391.359375 42.75 C 390.742188 42.894531 390.140625 43.0625 389.515625 43.175781 C 388.300781 43.398438 387.058594 43.445312 385.84375 43.675781 C 384.792969 43.871094 384.761719 45.628906 385.917969 45.625 C 387.085938 45.617188 388.246094 45.792969 389.414062 45.816406 C 390.019531 45.828125 390.582031 45.878906 391.175781 46.003906 C 391.570312 46.082031 391.957031 46.105469 392.347656 46.144531 C 391.304688 46.613281 390.292969 47.175781 389.261719 47.683594 C 388.632812 47.988281 388.699219 49.132812 389.503906 49.125 C 390.46875 49.113281 391.433594 49.117188 392.398438 49.160156 C 393.414062 49.207031 394.359375 49.054688 395.367188 49.027344 C 396.097656 49.007812 396.785156 49.125 397.476562 49.332031 C 398.484375 49.636719 399.402344 49.589844 400.421875 49.722656 C 402.179688 49.953125 403.996094 50.867188 405.558594 51.667969 C 406.164062 51.980469 406.777344 52.296875 407.386719 52.613281 C 411.761719 56.179688 415.769531 60.21875 419.175781 64.628906 C 424.1875 71.109375 428.886719 77.367188 432.296875 84.847656 C 435.613281 91.960938 437.5 99.664062 439.203125 107.292969 C 440.976562 115.152344 442.816406 123 444.59375 130.863281 C 446.53125 139.492188 448.375 148.175781 449.542969 156.972656 C 450.617188 165.226562 450.546875 173.257812 450.792969 181.515625 C 450.988281 187.421875 452.441406 192.972656 454.617188 198.265625 C 454.707031 199.222656 454.761719 200.152344 454.921875 201.097656 C 455.015625 201.460938 455.113281 201.828125 455.167969 202.164062 C 454.007812 201.042969 452.792969 199.996094 451.617188 198.808594 C 451.550781 198.816406 451.550781 198.816406 451.578125 198.777344 C 451.171875 198.429688 450.808594 198.109375 450.429688 197.722656 C 443.386719 190.875 438.539062 182.097656 432 174.828125 C 432.015625 174.757812 432.0625 174.695312 432.0625 174.621094 C 432.0625 174.445312 432.0625 174.269531 432.058594 174.089844 C 432.054688 173.761719 432.011719 173.5 431.949219 173.230469 C 431.953125 173.371094 431.960938 173.511719 431.964844 173.65625 C 431.976562 173.480469 431.941406 173.320312 431.925781 173.152344 C 431.890625 173.015625 431.859375 172.882812 431.804688 172.726562 C 431.84375 172.855469 431.882812 172.984375 431.921875 173.113281 C 431.886719 172.742188 431.820312 172.375 431.714844 172.015625 C 431.59375 171.609375 431.480469 171.203125 431.300781 170.8125 C 431.164062 170.515625 431.050781 170.207031 430.953125 169.898438 C 430.789062 169.246094 430.664062 168.585938 430.394531 167.96875 C 430.226562 167.59375 429.917969 167.167969 429.640625 166.84375 C 429.015625 166.101562 427.769531 165.699219 426.953125 166.425781 C 426.734375 166.621094 426.550781 166.824219 426.414062 167.085938 C 426.253906 167.390625 426.195312 167.699219 426.121094 168.035156 C 426.160156 167.867188 426.199219 167.695312 426.238281 167.523438 C 426.152344 167.894531 425.996094 168.300781 425.96875 168.667969 C 425.953125 168.851562 425.964844 169.035156 425.96875 169.214844 C 422.089844 166.339844 417.648438 164.304688 414.027344 161.121094 C 409.855469 157.378906 407.359375 152.039062 403.359375 148.058594 C 398.9375 143.664062 395.734375 139.484375 393.171875 133.738281 C 390.933594 128.695312 388.773438 123.714844 385.488281 119.234375 C 384.996094 118.585938 383.859375 119.265625 384.253906 119.960938 C 389.277344 128.351562 390.703125 138.457031 396.832031 146.207031 C 398.460938 148.261719 400.453125 149.972656 402.109375 151.984375 C 403.339844 153.511719 404.375 155.144531 405.441406 156.734375 C 405.441406 156.734375 405.441406 156.734375 405.484375 156.761719 C 405.90625 157.421875 406.328125 158.078125 406.78125 158.695312 C 410.058594 163.527344 413.980469 166.613281 418.785156 169.796875 C 428.859375 176.429688 433.890625 186.726562 441.65625 195.523438 C 449.472656 204.410156 459.769531 210.730469 466.949219 220.179688 C 471.015625 225.570312 474.78125 231.21875 478.476562 236.878906 C 480.128906 239.484375 481.8125 242.046875 483.425781 244.621094 C 485.808594 250.121094 487.960938 255.695312 489.492188 261.480469 C 491.660156 269.621094 494.417969 277.765625 495.34375 286.152344 C 496.183594 293.820312 492.742188 301 493.164062 308.671875 C 493.402344 312.761719 494.3125 316.742188 494.617188 320.820312 C 494.902344 325.183594 495.058594 329.636719 494.925781 334 C 494.808594 337.835938 494.195312 341.621094 494.429688 345.472656 C 494.660156 349.738281 495.203125 353.984375 496.175781 358.128906 C 496.675781 360.265625 497.203125 362.363281 497.824219 364.410156 L 497.835938 364.480469 C 497.960938 365.222656 498.128906 365.816406 498.351562 366.511719 C 498.351562 366.511719 498.390625 366.539062 498.402344 366.605469 C 499.121094 369.433594 499.925781 372.148438 500.765625 374.886719 C 500.535156 374.542969 500.265625 374.171875 499.9375 373.882812 C 499.929688 373.8125 499.886719 373.785156 499.886719 373.785156 C 499.347656 373.042969 498.777344 372.339844 498.179688 371.675781 C 493.746094 366.800781 488.636719 362.628906 483.730469 358.246094 C 479.183594 354.117188 476.832031 348.820312 473.835938 343.597656 C 468.445312 334.054688 461.800781 324.691406 454.519531 316.300781 C 453.40625 313.605469 452.363281 310.898438 451.085938 308.269531 C 448.78125 303.242188 445.953125 298.613281 442.886719 293.992188 C 439.453125 288.875 435.929688 283.8125 432.71875 278.554688 C 432.261719 277.800781 431.847656 277.027344 431.425781 276.261719 C 431.394531 274.480469 430.570312 272.875 429.957031 271.195312 C 429.277344 269.328125 428.917969 267.402344 428.660156 265.4375 C 428.375 263.277344 428.125 261.097656 428.003906 258.921875 C 427.882812 256.710938 427.59375 254.527344 427.429688 252.320312 C 427.351562 251.269531 425.617188 251.101562 425.355469 252.128906 C 424.765625 254.441406 424.328125 256.667969 424.375 259.0625 C 424.40625 260.722656 424.535156 262.367188 424.734375 264.003906 C 420.140625 256.777344 413.742188 251.675781 407.164062 246.582031 C 405.242188 244.855469 403.167969 243.261719 401.023438 241.855469 C 391.671875 234.367188 384.292969 224.78125 376.402344 215.832031 C 368.941406 207.378906 363.242188 197.496094 355.53125 189.292969 C 355.390625 188.949219 355.179688 188.636719 354.96875 188.289062 C 354.710938 187.875 354.5 187.429688 354.265625 187.003906 C 353.75 186.054688 353.355469 185.03125 353.09375 183.984375 C 352.554688 181.820312 352.105469 179.726562 352.34375 177.484375 C 352.425781 176.734375 351.234375 176.429688 351.027344 177.1875 C 350.71875 178.332031 350.539062 179.503906 350.492188 180.6875 C 350.464844 181.398438 350.476562 182.125 350.53125 182.84375 C 350.394531 182.644531 350.257812 182.449219 350.113281 182.257812 C 349.601562 181.585938 348.984375 180.980469 348.5625 180.25 C 348.128906 179.496094 347.707031 178.757812 347.011719 178.222656 C 346.292969 177.667969 345.277344 178.71875 345.90625 179.398438 C 346.453125 179.984375 346.597656 180.777344 346.964844 181.46875 C 347.230469 181.972656 347.582031 182.425781 347.917969 182.890625 C 347.375 182.746094 346.835938 182.628906 346.226562 182.457031 C 345.488281 182.25 344.75 182.058594 344.058594 181.722656 C 343.441406 181.417969 342.75 182.367188 343.253906 182.851562 C 343.820312 183.390625 344.410156 183.925781 345.089844 184.3125 C 345.757812 184.695312 346.457031 185.074219 347.164062 185.378906 C 347.832031 185.664062 348.535156 185.863281 349.199219 186.152344 C 349.378906 186.230469 349.554688 186.3125 349.730469 186.394531 C 349.878906 186.46875 349.902344 186.480469 349.804688 186.429688 C 349.890625 186.472656 349.976562 186.523438 350.058594 186.570312 C 350.285156 186.695312 350.53125 186.785156 350.769531 186.894531 C 351.367188 187.484375 351.964844 188.070312 352.542969 188.679688 C 352.761719 188.996094 352.960938 189.324219 353.230469 189.609375 C 353.5 189.898438 353.773438 190.167969 354.078125 190.363281 C 360.894531 198.09375 365.902344 207.273438 372.195312 215.398438 C 377.367188 221.988281 382.679688 228.800781 388.398438 235.128906 C 384.117188 233.210938 379.71875 231.628906 375.203125 230.375 C 369.78125 228.894531 364.242188 228.164062 358.839844 226.816406 C 349.015625 224.339844 340.746094 219.347656 332.125 214.34375 C 323.230469 209.140625 313.980469 204.523438 304.523438 200.527344 C 298.890625 198.125 293.0625 195.808594 287.125 193.871094 C 285.882812 192.929688 284.324219 192.378906 282.929688 191.683594 C 281.773438 191.109375 280.625 190.507812 279.523438 189.832031 C 278.226562 189.03125 276.878906 188.4375 275.554688 187.703125 C 273.210938 186.40625 270.800781 184.472656 269.082031 182.410156 C 268.300781 181.46875 267.664062 180.460938 266.722656 179.660156 C 265.832031 178.90625 264.757812 178.375 263.753906 177.792969 C 262.773438 177.226562 261.914062 178.464844 262.742188 179.210938 C 263.640625 180.015625 264.566406 180.800781 265.359375 181.710938 C 266.179688 182.648438 266.632812 183.777344 267.199219 184.867188 C 267.546875 185.53125 267.890625 186.15625 268.234375 186.789062 C 266.957031 186.398438 265.65625 185.863281 264.644531 185.3125 C 264.027344 184.976562 263.371094 184.578125 262.648438 184.164062 C 261.890625 183.730469 261.066406 183.488281 260.253906 183.179688 C 259.601562 182.933594 258.816406 183.1875 258.414062 183.75 C 257.976562 184.363281 258.09375 185.078125 258.476562 185.675781 C 258.960938 186.429688 259.40625 187.167969 260.089844 187.757812 C 260.664062 188.253906 261.285156 188.734375 261.925781 189.136719 C 263.378906 190.046875 265.011719 190.757812 266.65625 191.25 C 267.011719 191.355469 267.382812 191.417969 267.746094 191.5 C 267.390625 191.796875 267.027344 192.082031 266.671875 192.382812 C 266.625 192.421875 266.574219 192.464844 266.523438 192.503906 C 266.648438 192.417969 266.613281 192.425781 266.417969 192.527344 C 266.238281 192.589844 266.066406 192.667969 265.890625 192.734375 C 265.570312 192.859375 265.992188 192.734375 265.632812 192.8125 C 265.457031 192.851562 265.28125 192.894531 265.105469 192.925781 C 264.761719 192.988281 264.40625 193.035156 264.054688 193.050781 C 264.339844 193.035156 263.839844 193.042969 263.808594 193.042969 C 263.632812 193.042969 263.457031 193.03125 263.28125 193.023438 C 262.609375 192.992188 261.941406 192.929688 261.273438 192.824219 C 260.523438 192.703125 259.886719 192.789062 259.0625 192.78125 C 258.082031 192.769531 257.355469 194.125 258.339844 194.734375 C 258.992188 195.136719 259.675781 195.660156 260.40625 195.898438 C 261.179688 196.148438 261.996094 196.34375 262.796875 196.464844 C 264.421875 196.710938 266.105469 196.492188 267.648438 195.957031 C 267.738281 195.925781 268.113281 195.765625 268.050781 195.789062 C 268.03125 195.796875 268.507812 195.648438 268.617188 195.613281 C 269.117188 195.460938 269.625 195.296875 270.101562 195.074219 C 270.90625 194.695312 271.640625 194.203125 272.472656 193.863281 C 272.546875 193.832031 272.535156 193.832031 272.566406 193.816406 C 272.597656 193.808594 272.585938 193.816406 272.648438 193.796875 C 272.34375 193.890625 273.960938 193.460938 273.195312 193.625 C 273.6875 193.519531 274.183594 193.414062 274.660156 193.253906 C 274.832031 193.195312 274.996094 193.109375 275.167969 193.042969 C 275.578125 193.210938 275.980469 193.445312 276.40625 193.53125 C 276.558594 193.5625 276.710938 193.570312 276.859375 193.59375 C 294.371094 199.773438 311.761719 205.9375 327.671875 215.929688 C 333.21875 219.402344 338.613281 223.179688 344.429688 226.191406 C 341.359375 226.085938 338.292969 226.21875 335.195312 226.394531 C 329.066406 226.785156 322.929688 226.148438 316.804688 225.890625 C 316.445312 225.675781 316.082031 225.457031 315.6875 225.28125 C 314.039062 224.539062 312.40625 223.785156 310.726562 223.109375 C 308.386719 222.164062 305.589844 221.910156 303.695312 223.890625 C 302.992188 224.625 303.832031 225.703125 304.699219 225.125 C 305.144531 224.824219 305.554688 224.832031 306.082031 224.851562 C 306.152344 224.855469 306.164062 224.847656 306.164062 224.839844 C 306.191406 224.851562 306.191406 224.851562 306.242188 224.867188 C 306.386719 224.914062 306.527344 224.984375 306.675781 225.027344 C 306.925781 225.105469 307.179688 225.160156 307.425781 225.242188 C 308.378906 225.574219 309.070312 225.933594 309.808594 226.328125 C 309.164062 226.351562 308.519531 226.371094 307.875 226.4375 C 306.894531 226.535156 305.984375 226.84375 305.019531 227.035156 C 304.292969 227.175781 304.34375 228.207031 305.066406 228.308594 C 306.011719 228.4375 306.871094 228.785156 307.820312 228.863281 C 308.695312 228.9375 309.566406 228.921875 310.441406 228.980469 C 310.820312 229.003906 311.179688 229.113281 311.546875 229.183594 C 309.703125 229.839844 307.804688 230.308594 305.929688 230.875 C 304.679688 231.253906 304.9375 232.980469 306.269531 232.890625 C 307.464844 232.808594 308.664062 232.820312 309.859375 232.75 C 311.105469 232.675781 312.242188 232.359375 313.402344 231.902344 C 314.328125 231.535156 315.21875 231.027344 316.175781 230.734375 C 317.105469 230.453125 318.105469 230.351562 319.074219 230.304688 C 321.042969 230.207031 322.980469 230.503906 324.847656 229.722656 C 325.292969 229.535156 325.539062 229.226562 325.867188 228.941406 C 328.601562 229.136719 331.332031 229.292969 334.074219 229.222656 C 337.355469 229.121094 340.613281 228.882812 343.875 229.0625 C 345.550781 229.128906 347.183594 229.335938 348.855469 229.578125 C 350.3125 229.78125 351.929688 230.101562 353.4375 229.984375 C 353.464844 229.945312 353.492188 229.90625 353.492188 229.90625 C 362.769531 232.820312 372.523438 233.640625 381.679688 236.886719 C 386.78125 238.734375 392.019531 240.976562 396.960938 243.71875 C 404.28125 250.296875 412.6875 255.683594 418.707031 263.59375 C 422.222656 268.171875 424.328125 273.476562 427.171875 278.414062 C 430.007812 283.28125 433.085938 287.972656 436.265625 292.609375 C 439.011719 296.765625 441.757812 300.917969 444.191406 305.265625 C 444.242188 305.359375 444.28125 305.386719 444.320312 305.417969 C 444.421875 305.609375 444.566406 305.828125 444.667969 306.019531 C 437.085938 299.136719 428.617188 293.171875 420.097656 287.523438 C 407.273438 278.992188 394.347656 270.6875 381.410156 262.3125 C 380.753906 261.902344 380.105469 262.8125 380.710938 263.300781 C 389.617188 270.234375 398.921875 276.617188 408.054688 283.234375 C 420.875 292.359375 433.375 301.847656 444.136719 313.605469 C 453 323.363281 461.15625 334.277344 467.738281 345.738281 C 470.492188 350.550781 472.695312 355.800781 476.425781 360 C 480.589844 364.75 485.972656 368.460938 490.441406 372.949219 C 495.300781 377.890625 499.226562 383.480469 503.316406 389.003906 C 504.710938 390.886719 506.226562 392.679688 507.839844 394.421875 C 509.523438 398.234375 511.304688 401.996094 513.300781 405.617188 C 522.484375 422.4375 532.710938 438.628906 537.429688 457.382812 C 539.710938 466.613281 541.128906 476.0625 543.738281 485.171875 C 544.988281 489.507812 546.390625 494.132812 548.878906 497.984375 C 551.359375 501.765625 555.148438 504.285156 557.835938 507.863281 C 559.175781 509.648438 562.347656 508.28125 561.839844 506.074219 Z M 561.839844 506.074219 " fill-opacity="1" fill-rule="nonzero"/></g></g></g></g><g clip-path="url(#1ccced7c0e)"><g clip-path="url(#adfe6ff5a0)"><g clip-path="url(#59f8c370e0)"><g clip-path="url(#6f12ea0614)"><path fill="#7f4c38" d="M 432.296875 84.847656 C 428.886719 77.367188 424.1875 71.109375 419.171875 64.628906 C 413.890625 57.777344 407.210938 51.71875 399.867188 47.089844 C 403.550781 47.925781 405.886719 50.242188 408.449219 52.898438 C 412.253906 56.734375 416.230469 60.335938 419.910156 64.261719 C 426.765625 71.578125 433.585938 80.117188 437.667969 89.324219 C 439.617188 93.679688 440.476562 98.152344 441.230469 102.851562 C 442.230469 108.796875 443.828125 114.566406 445.152344 120.386719 C 446.425781 125.867188 447.421875 131.390625 449.019531 136.746094 C 449.851562 139.835938 450.699219 142.816406 450.527344 145.902344 C 450.640625 146.992188 450.753906 148.085938 450.867188 149.175781 C 451.25 152.066406 451.402344 155.023438 451.675781 157.894531 C 452.238281 163.703125 452.816406 169.402344 453.578125 175.179688 C 453.871094 177.40625 454.1875 179.664062 454.441406 181.914062 C 454.628906 180.316406 454.921875 178.746094 454.867188 177.121094 C 454.808594 175.488281 454.707031 173.894531 455.074219 172.285156 C 455.199219 171.734375 456.101562 171.957031 456.023438 172.496094 C 455.78125 174.214844 456.117188 175.914062 456.222656 177.628906 C 456.324219 179.378906 456.140625 181.132812 456.054688 182.875 C 455.960938 184.828125 455.992188 186.78125 455.902344 188.730469 C 455.859375 189.652344 455.835938 190.570312 455.753906 191.488281 C 455.695312 192.113281 455.65625 192.859375 455.40625 193.472656 C 455.726562 195.304688 456.15625 197.183594 456.820312 198.761719 C 457.847656 201.160156 460.292969 202.480469 460.773438 205.144531 C 460.96875 206.292969 459.742188 206.847656 458.898438 206.363281 C 456.664062 205.074219 454.066406 203.046875 452.667969 200.921875 C 452.246094 200.261719 451.890625 199.59375 451.617188 198.808594 C 452.792969 199.996094 454.007812 201.042969 455.167969 202.164062 C 455.113281 201.828125 455.015625 201.460938 454.921875 201.097656 C 454.761719 200.152344 454.707031 199.222656 454.617188 198.265625 C 452.441406 192.972656 450.988281 187.421875 450.792969 181.515625 C 450.546875 173.257812 450.617188 165.226562 449.542969 156.96875 C 448.375 148.175781 446.53125 139.492188 444.589844 130.863281 C 442.816406 123 440.976562 115.152344 439.199219 107.292969 C 437.5 99.664062 435.613281 91.960938 432.296875 84.847656 Z M 460.214844 210.273438 C 454.5625 205.359375 449.558594 199.777344 444.007812 194.640625 C 438.167969 189.234375 434.179688 182.234375 428.753906 176.414062 C 424.265625 171.617188 418.453125 168.011719 413.605469 163.554688 C 410.976562 161.148438 408.183594 158.980469 405.484375 156.761719 C 405.90625 157.421875 406.328125 158.078125 406.78125 158.695312 C 410.058594 163.527344 413.980469 166.613281 418.785156 169.796875 C 428.859375 176.429688 433.890625 186.726562 441.65625 195.523438 C 449.472656 204.410156 459.769531 210.730469 466.949219 220.179688 C 471.015625 225.570312 474.78125 231.21875 478.476562 236.878906 C 480.128906 239.484375 481.8125 242.046875 483.425781 244.621094 C 485.808594 250.121094 487.960938 255.695312 489.492188 261.480469 C 491.660156 269.621094 494.417969 277.765625 495.34375 286.152344 C 496.183594 293.820312 492.742188 301 493.164062 308.671875 C 493.402344 312.761719 494.3125 316.742188 494.617188 320.820312 C 494.902344 325.183594 495.0625 329.636719 494.925781 333.996094 C 494.808594 337.835938 494.195312 341.621094 494.429688 345.46875 C 494.660156 349.738281 495.199219 353.984375 496.175781 358.128906 C 496.675781 360.265625 497.203125 362.363281 497.824219 364.410156 L 497.835938 364.476562 C 497.875 364.507812 497.875 364.507812 497.914062 364.535156 C 498.179688 365.082031 498.390625 365.703125 498.394531 366.363281 C 498.40625 366.429688 498.378906 366.46875 498.351562 366.511719 C 498.351562 366.511719 498.390625 366.539062 498.402344 366.605469 C 498.347656 367.515625 498.0625 368.503906 498.164062 369.527344 C 498.289062 371.101562 499.042969 372.46875 499.886719 373.785156 C 499.886719 373.785156 499.925781 373.8125 499.9375 373.878906 C 500.542969 374.785156 501.214844 375.679688 501.816406 376.585938 C 502.371094 377.394531 502.675781 378.382812 503.171875 379.273438 C 503.71875 380.257812 504.53125 380.953125 505.203125 381.847656 C 505.84375 382.78125 506.488281 383.710938 506.941406 384.746094 C 507.191406 385.398438 507.660156 386.746094 508.519531 386.703125 C 510.628906 386.660156 508.296875 383.511719 507.855469 382.960938 C 506.40625 381.15625 505.53125 379.046875 504.65625 376.941406 C 504.496094 376.554688 504.429688 376.25 504.367188 375.9375 C 504.789062 377.386719 505.4375 378.730469 506.53125 379.601562 C 506.816406 379.832031 507.210938 379.535156 507.167969 379.203125 C 506.96875 377.6875 506.265625 376.234375 505.902344 374.75 C 505.523438 373.199219 505.441406 371.648438 505.335938 370.0625 C 505.121094 366.78125 504.46875 363.5625 503.839844 360.34375 C 503.1875 356.988281 502.4375 353.652344 501.796875 350.292969 C 501.132812 346.804688 501.25 343.332031 501.164062 339.800781 C 501.152344 339.363281 500.503906 339.277344 500.464844 339.738281 C 500.179688 343.21875 499.867188 346.507812 500.402344 349.984375 C 500.960938 353.617188 501.585938 357.25 502.203125 360.875 C 502.238281 361.089844 502.273438 361.304688 502.308594 361.519531 C 502.238281 361.402344 502.175781 361.269531 502.101562 361.15625 C 499.960938 352.558594 496.414062 344.269531 498.234375 335.28125 C 498.769531 332.511719 499.101562 329.953125 499.097656 327.363281 C 499.535156 325.679688 499.777344 323.902344 499.964844 322.402344 C 500.367188 319.164062 500.171875 315.894531 499.824219 312.660156 C 499.476562 309.457031 498.753906 306.214844 498.726562 302.992188 C 498.714844 301.277344 499.242188 299.789062 499.648438 298.144531 C 500.058594 296.480469 500.324219 294.785156 500.695312 293.113281 C 500.789062 292.691406 500.101562 292.554688 499.964844 292.949219 C 499.378906 294.613281 498.910156 296.3125 498.367188 297.988281 C 497.917969 299.375 497.289062 300.703125 497.0625 302.15625 C 496.617188 305.035156 497.351562 308.226562 497.699219 311.085938 C 498.089844 314.28125 498.394531 317.503906 498.238281 320.722656 C 497.125 316.121094 496.003906 311.738281 496.066406 306.929688 C 496.152344 297.125 500.175781 288.042969 497.492188 278.289062 C 496.230469 273.882812 495.660156 269.257812 494.332031 264.863281 C 493.664062 262.546875 492.449219 260.496094 491.617188 258.238281 C 491.609375 258.171875 491.636719 258.132812 491.597656 258.105469 C 491.855469 257.574219 491.953125 256.933594 491.851562 256.324219 C 490.695312 250.566406 488.464844 245.691406 485.644531 241.1875 C 485.414062 240.738281 485.175781 240.28125 484.957031 239.835938 C 483.335938 236.523438 481.339844 233.441406 479.242188 230.414062 C 474.859375 224.09375 470.699219 217.632812 465.203125 212.199219 C 464.804688 211.804688 464.128906 212.320312 464.515625 212.757812 C 468.558594 217.390625 471.789062 222.53125 475.089844 227.660156 C 474.5 226.996094 473.921875 226.335938 473.324219 225.664062 C 468.820312 220.558594 465.410156 214.742188 460.214844 210.273438 Z M 436.265625 292.609375 C 439.011719 296.761719 441.757812 300.917969 444.191406 305.265625 C 444.242188 305.359375 444.28125 305.386719 444.320312 305.417969 C 444.554688 305.757812 444.839844 306.023438 445.167969 306.316406 C 445.710938 307.472656 448.066406 306.832031 447.5 305.125 C 445.980469 300.832031 441.882812 297.320312 439.226562 293.707031 C 435.535156 288.703125 432.667969 282.800781 429.253906 277.578125 C 425.992188 272.640625 423.996094 266.347656 420.003906 262.019531 C 416.042969 257.652344 411.097656 253.660156 406.734375 249.605469 C 402.136719 245.382812 397.210938 242.53125 391.484375 240.058594 C 386.433594 237.890625 381.714844 234.414062 376.121094 234.179688 C 369.894531 233.910156 364.652344 232.257812 358.78125 230.574219 C 358.492188 230.3125 358.148438 230.128906 357.707031 229.992188 C 356.589844 229.730469 355.535156 229.457031 354.496094 229.25 C 352.921875 228.785156 351.367188 228.214844 349.734375 228.003906 C 347.609375 227.738281 345.578125 228.253906 343.457031 228.648438 C 341.296875 229.011719 339.296875 228.480469 337.140625 228.253906 C 334.625 227.949219 332.292969 228.132812 329.773438 228.421875 C 327.386719 228.683594 324.925781 228.714844 322.496094 228.710938 C 326.371094 229.027344 330.203125 229.320312 334.074219 229.222656 C 337.355469 229.121094 340.613281 228.882812 343.875 229.0625 C 345.550781 229.125 347.183594 229.335938 348.855469 229.578125 C 350.3125 229.78125 351.929688 230.101562 353.4375 229.984375 C 353.464844 229.945312 353.492188 229.90625 353.492188 229.90625 C 362.769531 232.820312 372.523438 233.640625 381.679688 236.886719 C 386.78125 238.734375 392.019531 240.976562 396.960938 243.71875 C 404.28125 250.296875 412.6875 255.683594 418.707031 263.59375 C 422.222656 268.171875 424.328125 273.476562 427.171875 278.414062 C 430.007812 283.28125 433.085938 287.972656 436.265625 292.609375 Z M 561.839844 506.074219 C 561.601562 505.074219 561.296875 504.082031 560.894531 503.144531 C 559.75 502.746094 558.578125 502.390625 557.722656 501.421875 C 554.914062 498.355469 552.257812 495.15625 550.453125 491.433594 C 548.695312 487.804688 548.042969 484.132812 546.921875 480.363281 C 546.472656 478.738281 546.066406 477.140625 545.648438 475.472656 C 545.636719 475.40625 545.691406 475.328125 545.707031 475.21875 C 545.875 472.890625 545.109375 470.71875 545.03125 468.480469 C 545.65625 471.5625 546.121094 474.6875 547.308594 477.625 C 548.863281 481.476562 550.085938 486.769531 553.546875 489.429688 C 553.917969 489.714844 554.363281 489.277344 554.210938 488.886719 C 553.324219 486.609375 551.976562 484.5 551.066406 482.21875 C 550.273438 480.234375 549.523438 478.1875 548.796875 476.179688 C 547.230469 471.859375 547.1875 467.082031 545.445312 462.828125 C 545.386719 462.691406 545.308594 462.566406 545.25 462.433594 C 545.25 461.707031 545.296875 460.988281 545.199219 460.238281 C 544.9375 458.265625 544.15625 455.273438 542.707031 453.054688 C 542.398438 451.59375 541.890625 450.121094 541.277344 448.664062 C 540.433594 444.507812 539.6875 440.386719 538.214844 436.375 C 538.078125 436.003906 537.457031 436.191406 537.550781 436.578125 C 538.148438 439.070312 538.625 441.5625 539.058594 444.066406 C 537.667969 441.441406 536.21875 438.929688 535.269531 436.707031 C 533.460938 432.566406 532.929688 427.96875 530.957031 423.890625 C 528.6875 419.066406 525.195312 414.621094 522.257812 410.148438 C 519.296875 405.546875 516.675781 400.710938 513.5625 396.234375 C 510.640625 392.074219 507.15625 388.289062 503.804688 384.480469 C 500.417969 380.640625 497.316406 376.648438 493.59375 373.109375 C 492.15625 371.789062 490.585938 370.078125 488.804688 368.988281 C 486.632812 366.613281 484.179688 364.628906 481.863281 362.207031 C 481.128906 361.417969 480.484375 360.546875 479.84375 359.664062 C 483.890625 363.582031 488.695312 366.695312 492.863281 370.597656 C 493.277344 370.984375 493.964844 370.476562 493.566406 370.023438 C 488.421875 364.140625 481.574219 360.164062 477.085938 353.660156 C 474.84375 350.40625 472.5625 347.171875 470.519531 343.792969 C 469.671875 342.390625 468.605469 341.183594 467.644531 339.863281 C 466.871094 338.804688 466.261719 337.609375 465.511719 336.527344 C 462.398438 331.414062 459.160156 326.394531 455.007812 321.878906 C 447.222656 313.363281 439.21875 305.410156 430.054688 298.414062 C 423.082031 293.097656 415.878906 287.4375 408.054688 283.234375 C 420.875 292.359375 433.375 301.847656 444.136719 313.605469 C 453 323.363281 461.15625 334.277344 467.738281 345.738281 C 470.492188 350.550781 472.695312 355.800781 476.421875 360 C 480.589844 364.75 485.972656 368.460938 490.441406 372.949219 C 495.300781 377.890625 499.226562 383.480469 503.316406 389.003906 C 504.710938 390.886719 506.226562 392.679688 507.839844 394.421875 C 509.523438 398.234375 511.304688 401.996094 513.300781 405.621094 C 522.484375 422.4375 532.710938 438.628906 537.429688 457.382812 C 539.710938 466.613281 541.128906 476.0625 543.738281 485.171875 C 544.988281 489.507812 546.390625 494.132812 548.878906 497.984375 C 551.359375 501.765625 555.148438 504.289062 557.835938 507.863281 C 559.175781 509.648438 562.347656 508.28125 561.839844 506.074219 Z M 515.964844 229.203125 C 514.601562 235.542969 511.875 241.628906 509.820312 247.773438 C 507.542969 254.652344 505.300781 261.554688 503.421875 268.539062 C 502.421875 272.285156 501.527344 276.046875 500.710938 279.863281 C 500.5 278.824219 500.25 277.753906 500 276.683594 C 499.804688 277.378906 499.609375 278.070312 499.628906 278.796875 C 499.632812 279.457031 499.707031 280.101562 499.851562 280.738281 C 500.003906 281.441406 500.207031 281.824219 500.296875 282.363281 C 500.429688 282.933594 500.492188 283.511719 500.582031 284.050781 C 500.65625 284.699219 500.621094 285.332031 500.726562 285.9375 C 500.90625 287.019531 502.496094 286.960938 502.621094 285.859375 C 502.707031 285.328125 502.75 284.761719 502.980469 284.273438 C 503.214844 283.609375 503.460938 283.011719 503.523438 282.339844 C 503.625 281.699219 503.578125 281.011719 503.542969 280.394531 L 503.40625 279.582031 C 503.34375 279.421875 503.320312 279.285156 503.324219 279.109375 C 503.3125 279.042969 503.320312 278.867188 503.28125 278.839844 C 503.246094 278.636719 503.308594 278.382812 503.339844 278.171875 C 503.371094 278.132812 503.402344 277.917969 503.402344 277.917969 L 503.4375 277.703125 C 503.585938 277.15625 503.816406 276.667969 503.980469 276.1875 C 504.289062 275.335938 504.410156 274.414062 504.425781 273.472656 C 504.527344 273.25 504.628906 273.023438 504.726562 272.796875 C 505.546875 271.0625 506.0625 269.171875 506.578125 267.277344 C 507.3125 265.246094 508.113281 263.199219 509.03125 261.238281 C 510.082031 259.011719 511.199219 256.777344 511.503906 254.261719 C 511.648438 253.054688 511.832031 251.878906 512.042969 250.664062 C 514.441406 246.542969 514.425781 242.136719 515.386719 237.527344 C 515.816406 235.335938 516.425781 232.980469 517.21875 230.867188 C 517.636719 229.859375 518.042969 228.957031 518.308594 228.078125 C 519.332031 225.058594 519.921875 221.972656 519.996094 218.695312 C 520.113281 210.933594 520.089844 203.367188 519.558594 195.679688 C 519.34375 192.140625 518.804688 188.726562 518.144531 185.226562 C 517.828125 183.332031 517.460938 181.765625 517.761719 179.839844 C 518.023438 178.300781 518.117188 177 517.855469 175.449219 C 517.558594 173.277344 516.992188 171.148438 516.425781 169.023438 C 515.554688 176.84375 516.328125 184.941406 516.6875 192.449219 C 517.230469 204.546875 518.535156 217.242188 515.964844 229.203125 Z M 470.355469 114.363281 C 469.570312 115.886719 468.8125 117.367188 467.984375 118.859375 C 462.476562 129.027344 458.265625 139.285156 457.050781 150.84375 C 456.445312 156.117188 456.296875 161.421875 456.214844 166.710938 C 456.15625 165.125 456.097656 163.539062 455.933594 161.933594 C 455.847656 161.21875 455.789062 160.464844 455.703125 159.75 C 455.742188 160.195312 455.753906 160.679688 455.796875 161.125 C 455.859375 162.121094 455.800781 163.207031 455.863281 164.203125 C 455.902344 165.0625 456.078125 165.902344 456.050781 166.773438 C 456.019531 167.40625 455.75 168.285156 456.285156 168.785156 C 456.375 168.90625 456.550781 168.914062 456.597656 168.765625 C 456.976562 168.148438 457.027344 167.410156 457.476562 166.777344 C 457.914062 166.078125 458.070312 165.359375 458.042969 164.5625 C 457.953125 162.601562 458.136719 160.589844 458.25 158.59375 C 458.359375 156.769531 459.015625 155.09375 459.234375 153.289062 C 459.421875 151.519531 459.464844 149.707031 460.148438 147.996094 L 460.136719 147.925781 C 460.640625 146.800781 460.933594 145.640625 461.183594 144.453125 C 461.429688 143.023438 461.664062 141.523438 461.761719 140.050781 C 461.800781 139.660156 461.839844 139.273438 461.878906 138.882812 C 461.921875 138.738281 461.929688 138.5625 461.972656 138.417969 L 462.039062 137.988281 C 462.054688 137.882812 462.101562 137.734375 462.128906 137.695312 C 462.164062 137.480469 462.234375 137.296875 462.308594 137.109375 C 462.5 136.589844 462.59375 136.125 462.648438 135.628906 C 462.664062 135.519531 462.625 135.492188 462.613281 135.425781 C 462.855469 135.003906 463.085938 134.511719 463.25 134.035156 C 464.285156 131.324219 465.019531 128.457031 466.09375 125.777344 C 467.136719 123.308594 468.5625 121.054688 469.726562 118.671875 C 470.929688 116.140625 471.550781 113.847656 471.421875 111.023438 C 471.382812 110.578125 471.179688 110.199219 470.941406 110.027344 C 470.976562 110.648438 470.90625 111.25 470.832031 111.851562 C 470.699219 112.707031 470.527344 113.535156 470.355469 114.363281 Z M 470.355469 114.363281 " fill-opacity="1" fill-rule="nonzero"/></g></g></g></g><g clip-path="url(#c25e028475)"><g clip-path="url(#70b2c81834)"><g clip-path="url(#8e1f120f24)"><g clip-path="url(#89dcdb9280)"><path fill="#ea9dc2" d="M 312.457031 231.332031 C 311.320312 231.550781 310.238281 232.152344 309.101562 232.441406 C 306.742188 233.042969 304.261719 233.175781 301.851562 232.832031 C 300.488281 232.640625 299.144531 232.292969 297.859375 231.792969 C 297.683594 231.726562 297.492188 231.640625 297.414062 231.464844 C 297.308594 231.21875 297.488281 230.949219 297.671875 230.75 C 297.871094 230.53125 298.128906 230.378906 298.351562 230.1875 C 298.125 230.039062 297.882812 229.925781 297.691406 229.734375 C 297.460938 229.5 297.246094 229.175781 297.34375 228.863281 C 297.390625 228.707031 297.507812 228.558594 297.65625 228.417969 C 297.597656 228.351562 297.523438 228.308594 297.472656 228.238281 C 297.382812 228.117188 297.296875 227.976562 297.308594 227.824219 C 297.320312 227.660156 297.453125 227.527344 297.574219 227.414062 C 299.511719 225.636719 301.792969 224.140625 304.367188 223.617188 C 305.386719 223.40625 306.445312 223.371094 307.476562 223.519531 C 309.042969 223.742188 310.625 224.480469 311.949219 225.34375 C 312.9375 225.988281 313.132812 227.40625 312.660156 228.472656 C 312.765625 228.585938 312.898438 228.675781 312.996094 228.796875 C 313.707031 229.707031 313.808594 231.070312 312.457031 231.332031 Z M 476.144531 204.328125 C 475.550781 203.695312 474.855469 203.0625 474.101562 202.441406 C 472.003906 200.714844 469.457031 199.101562 467.296875 197.972656 C 464.207031 196.355469 460.601562 195.523438 457.203125 196.238281 C 459.667969 192.902344 461.371094 188.890625 460.828125 185.015625 C 460.488281 182.585938 459.589844 180.277344 458.695312 177.992188 C 457.675781 175.386719 455.648438 172.253906 452.699219 174.171875 C 451.972656 174.644531 451.222656 175.214844 450.480469 175.84375 C 448.402344 177.597656 446.355469 179.816406 444.855469 181.738281 C 443.640625 183.289062 442.664062 185.058594 442.03125 186.921875 C 440.144531 184.21875 437.691406 181.980469 434.714844 181.078125 C 432.367188 180.363281 429.894531 180.210938 427.445312 180.0625 C 424.652344 179.890625 420.957031 180.410156 421.453125 183.894531 C 421.578125 184.753906 421.777344 185.671875 422.035156 186.609375 C 422.75 189.230469 423.902344 192.023438 425.011719 194.191406 C 426.109375 196.335938 427.648438 198.285156 429.523438 199.769531 C 427.253906 200.730469 425.238281 202.109375 423.863281 204.027344 C 422.433594 206.019531 421.488281 208.3125 420.558594 210.582031 C 419.496094 213.171875 418.800781 216.839844 422.253906 217.488281 C 423.109375 217.648438 424.042969 217.753906 425.015625 217.8125 C 427.726562 217.976562 430.738281 217.785156 433.152344 217.433594 C 435.21875 217.128906 437.253906 216.453125 439.074219 215.445312 C 438.878906 218.1875 439.242188 220.894531 440.539062 223.167969 C 441.753906 225.296875 443.449219 227.105469 445.125 228.894531 C 447.035156 230.9375 450.082031 233.09375 452.109375 230.21875 C 452.613281 229.511719 453.09375 228.703125 453.554688 227.84375 C 454.832031 225.445312 455.910156 222.625 456.589844 220.285156 C 457.222656 218.117188 457.441406 215.804688 457.191406 213.574219 C 460.40625 214.804688 463.859375 215.300781 466.941406 214.277344 C 469.269531 213.507812 471.378906 212.203125 473.464844 210.914062 C 475.84375 209.441406 478.5625 206.878906 476.144531 204.328125 Z M 461.945312 337.664062 C 459.496094 337.554688 457.019531 337.4375 454.664062 336.761719 C 451.542969 335.867188 448.972656 333.507812 447.015625 330.675781 C 445.960938 332.660156 444.476562 334.445312 442.734375 335.878906 C 440.847656 337.429688 438.367188 339.148438 435.960938 340.40625 C 435.097656 340.859375 434.242188 341.25 433.429688 341.554688 C 430.132812 342.785156 428.835938 339.28125 428.410156 336.515625 C 428.035156 334.09375 427.660156 331.644531 427.855469 329.199219 C 428.066406 326.589844 429.296875 324.152344 431.003906 321.996094 C 428.933594 321.800781 426.875 321.210938 424.996094 320.292969 C 422.804688 319.226562 420.210938 317.683594 418.066406 316.015625 C 417.296875 315.417969 416.585938 314.804688 415.96875 314.191406 C 413.484375 311.707031 416.128906 309.070312 418.464844 307.53125 C 420.515625 306.183594 422.585938 304.820312 424.890625 303.984375 C 427.109375 303.175781 429.550781 303.175781 431.964844 303.660156 C 431.257812 301.375 431.089844 298.898438 431.390625 296.511719 C 431.699219 294.089844 432.324219 291.136719 433.210938 288.570312 C 433.53125 287.648438 433.882812 286.777344 434.265625 285.996094 C 435.820312 282.84375 439.167969 284.496094 441.375 286.214844 C 443.3125 287.71875 445.265625 289.242188 446.800781 291.15625 C 448.746094 293.582031 449.511719 296.816406 449.539062 300.113281 C 451.117188 298.929688 452.917969 298.023438 454.796875 297.425781 C 457.121094 296.683594 460.0625 296.007812 462.765625 295.730469 C 463.734375 295.632812 464.671875 295.585938 465.542969 295.605469 C 469.058594 295.6875 468.960938 299.417969 468.335938 302.144531 C 467.78125 304.535156 467.222656 306.949219 466.132812 309.148438 C 464.394531 312.652344 460.722656 315.007812 456.808594 316.367188 C 460.015625 317.695312 462.519531 320.417969 464.15625 323.496094 C 465.304688 325.648438 466.496094 328.421875 467.253906 331.03125 C 467.527344 331.964844 467.742188 332.878906 467.878906 333.738281 C 468.429688 337.210938 464.742188 337.792969 461.945312 337.664062 Z M 461.945312 337.664062 " fill-opacity="1" fill-rule="nonzero"/></g></g></g></g><g clip-path="url(#175f206fea)"><g clip-path="url(#c382850883)"><g clip-path="url(#7b125a3af0)"><g clip-path="url(#3c250cb500)"><path fill="#e56a6a" d="M 459.871094 205.3125 C 459.582031 205.703125 459.066406 205.855469 458.582031 205.910156 C 457.59375 206.019531 456.601562 205.824219 455.605469 205.804688 C 454.613281 205.785156 453.539062 205.980469 452.855469 206.703125 C 452.222656 207.371094 452.054688 208.351562 452.042969 209.269531 C 452.03125 210.1875 452.144531 211.121094 451.957031 212.019531 C 451.769531 212.917969 451.183594 213.816406 450.285156 214.027344 C 449.148438 214.289062 448.082031 213.371094 447.417969 212.410156 C 446.757812 211.449219 446.207031 210.320312 445.167969 209.785156 C 444.242188 209.304688 443.125 209.417969 442.109375 209.660156 C 441.09375 209.902344 440.089844 210.265625 439.046875 210.253906 C 438.429688 210.246094 437.765625 210.074219 437.375 209.59375 C 436.78125 208.867188 437.046875 207.773438 437.464844 206.929688 C 437.878906 206.085938 438.429688 205.222656 438.316406 204.289062 C 438.183594 203.195312 437.203125 202.4375 436.332031 201.761719 C 435.390625 201.027344 434.453125 200.1875 434.058594 199.0625 C 433.664062 197.933594 434.023438 196.460938 435.117188 195.980469 C 436.550781 195.347656 438.386719 196.644531 439.714844 195.8125 C 440.535156 195.296875 440.789062 194.117188 441.699219 193.734375 C 442.664062 193.328125 443.492188 194.179688 444.445312 194.179688 C 445.191406 194.179688 445.695312 193.71875 446.199219 193.222656 C 447.101562 192.328125 447.972656 191.539062 449.167969 191.046875 C 449.71875 190.820312 450.386719 190.671875 450.882812 191.003906 C 451.410156 191.363281 451.492188 192.105469 451.460938 192.746094 C 451.414062 193.710938 451.234375 194.671875 451.234375 195.636719 C 451.234375 196.605469 451.445312 197.621094 452.074219 198.351562 C 452.742188 199.128906 453.761719 199.476562 454.703125 199.882812 C 456.292969 200.578125 457.765625 201.539062 459.039062 202.71875 C 459.40625 203.058594 459.761719 203.425781 459.960938 203.886719 C 460.160156 204.34375 460.171875 204.914062 459.871094 205.3125 Z M 451.789062 318.089844 C 453.113281 317.648438 453.5625 315.832031 452.941406 314.582031 C 452.488281 313.679688 451.65625 313.039062 450.925781 312.339844 C 449.195312 310.679688 449.722656 309.582031 450.070312 307.5 C 450.5625 304.585938 447.714844 305.375 445.84375 305.59375 C 444.414062 305.761719 442.972656 305.832031 441.640625 305.207031 C 440.347656 304.597656 438.738281 304.160156 438.644531 306.25 C 438.609375 307.011719 438.871094 307.75 438.957031 308.507812 C 439.042969 309.265625 438.902344 310.136719 438.28125 310.574219 C 437.714844 310.976562 436.953125 310.890625 436.28125 311.070312 C 434.878906 311.445312 434.035156 313.195312 434.617188 314.527344 C 435.089844 315.613281 436.332031 316.488281 436.105469 317.648438 C 435.960938 318.371094 435.265625 318.878906 435.089844 319.59375 C 434.851562 320.5625 435.6875 321.519531 436.636719 321.820312 C 437.585938 322.121094 438.609375 321.964844 439.601562 321.902344 C 440.597656 321.835938 441.679688 321.894531 442.445312 322.53125 C 442.859375 322.875 443.136719 323.351562 443.535156 323.707031 C 444.175781 324.277344 445.121094 324.488281 445.941406 324.238281 C 446.761719 323.988281 447.433594 323.289062 447.648438 322.460938 C 447.992188 321.140625 447.347656 319.414062 448.421875 318.566406 C 449.324219 317.851562 450.695312 318.457031 451.789062 318.089844 Z M 253.164062 176.605469 C 252.222656 176.097656 251.242188 175.574219 250.175781 175.523438 C 248.394531 175.441406 246.839844 176.660156 245.125 177.140625 C 244.515625 177.3125 243.804688 177.4375 243.46875 177.976562 C 243.214844 178.375 243.257812 178.90625 243.457031 179.335938 C 243.65625 179.765625 243.988281 180.113281 244.316406 180.457031 C 244.984375 181.148438 245.648438 181.839844 246.3125 182.53125 C 246.703125 182.933594 247.101562 183.34375 247.605469 183.582031 C 248.113281 183.816406 248.753906 183.839844 249.191406 183.496094 C 250.023438 182.835938 249.585938 181.488281 249.929688 180.480469 C 250.15625 179.824219 250.734375 179.332031 251.367188 179.050781 C 252.027344 178.757812 253.246094 178.875 253.773438 178.398438 C 254.539062 177.707031 253.832031 176.96875 253.164062 176.605469 Z M 253.164062 176.605469 " fill-opacity="1" fill-rule="nonzero"/></g></g></g></g></svg>