<svg xmlns="http://www.w3.org/2000/svg" xmlns:xlink="http://www.w3.org/1999/xlink" width="500" zoomAndPan="magnify" viewBox="0 0 375 374.999991" height="500" preserveAspectRatio="xMidYMid meet" version="1.0"><defs><clipPath id="4b35b5b239"><path d="M 0 46.863281 L 161 46.863281 L 161 156 L 0 156 Z M 0 46.863281 " clip-rule="nonzero"/></clipPath></defs><g clip-path="url(#4b35b5b239)"><path fill="#ea9dc2" d="M -151.0625 80.03125 C -153.066406 77.757812 -155.246094 75.589844 -157.855469 74.019531 C -160.273438 72.558594 -163 71.648438 -165.359375 70.097656 C -167.78125 68.5 -169.734375 66.226562 -171.007812 63.625 C -171.65625 62.300781 -172.132812 60.886719 -172.402344 59.433594 C -172.609375 58.296875 -173.488281 56.863281 -172.375 55.9375 C -171.722656 55.394531 -170.820312 55.285156 -169.972656 55.203125 C -165.898438 54.804688 -161.636719 54.449219 -157.839844 55.984375 C -157.023438 56.3125 -156.261719 56.75 -155.53125 57.230469 C -154.558594 53.828125 -152.90625 50.625 -150.660156 47.890625 C -150.167969 47.292969 -149.445312 46.660156 -148.71875 46.925781 C -148.4375 47.027344 -148.222656 47.25 -148.019531 47.46875 C -146.320312 49.285156 -144.808594 51.292969 -143.605469 53.464844 C -142.777344 52.675781 -141.84375 51.992188 -140.851562 51.421875 C -138.851562 50.269531 -136.636719 49.539062 -134.398438 48.972656 C -132.363281 48.453125 -129.648438 48.363281 -129.351562 51.011719 C -128.90625 55.03125 -129.644531 59.429688 -132.46875 62.328125 C -133.753906 63.644531 -135.410156 64.59375 -136.535156 66.054688 C -137.851562 67.761719 -138.390625 70.039062 -138.890625 72.101562 C -139.371094 74.09375 -139.203125 77.914062 -141.257812 79.085938 C -142.304688 79.683594 -143.386719 79.617188 -144.371094 79.203125 C -144.449219 80.3125 -144.664062 81.425781 -145.410156 82.226562 C -147.699219 84.675781 -149.707031 81.570312 -151.0625 80.03125 Z M -91.417969 142.011719 C -90.386719 142.628906 -88.351562 141.539062 -86.984375 141.105469 C -85.050781 140.492188 -83.039062 140.195312 -81.179688 139.351562 C -76.84375 137.375 -73.988281 132.546875 -74.347656 127.792969 C -76.164062 127.59375 -77.960938 128.222656 -79.664062 128.886719 C -80.878906 129.359375 -82.089844 129.859375 -83.265625 130.429688 C -83.171875 130.230469 -83.039062 130.050781 -82.953125 129.847656 C -81.855469 127.277344 -81.273438 124.484375 -81.328125 121.6875 C -81.339844 121.058594 -81.449219 120.316406 -82.007812 120.019531 C -82.324219 119.847656 -82.707031 119.875 -83.0625 119.921875 C -87.148438 120.441406 -90.929688 122.976562 -92.96875 126.554688 C -93.074219 126.738281 -93.101562 126.953125 -93.195312 127.140625 C -93.851562 126.273438 -94.613281 125.503906 -95.554688 124.96875 C -97.265625 124 -99.554688 123.890625 -101.128906 125.066406 C -99.984375 126.527344 -99.253906 128.253906 -98.710938 130.015625 C -97.75 133.136719 -97.378906 136.4375 -96.128906 139.46875 C -95.6875 140.550781 -94.933594 142.574219 -93.722656 143.003906 C -92.695312 143.367188 -91.941406 142.792969 -91.417969 142.011719 Z M 47.863281 97.816406 C 47.839844 97.421875 47.804688 97.019531 47.78125 96.621094 C 48.074219 96.976562 48.457031 97.203125 48.980469 97.175781 C 50.355469 97.097656 51.84375 94.308594 52.675781 93.402344 C 55.847656 89.945312 58.808594 86.378906 60.625 81.996094 C 62.867188 76.578125 63.109375 70.066406 60.066406 65.050781 C 59.847656 64.695312 59.5625 64.3125 59.148438 64.269531 C 58.699219 64.222656 58.324219 64.589844 58.023438 64.929688 C 53.8125 69.6875 49.476562 74.671875 47.789062 80.796875 C 47.703125 81.097656 47.667969 81.40625 47.601562 81.710938 C 46.898438 79.015625 45.90625 76.398438 44.613281 73.933594 C 43.230469 71.308594 41.523438 68.851562 39.523438 66.660156 C 37.964844 69.867188 37.207031 73.40625 37.144531 76.960938 C 35.039062 75.476562 32.933594 73.992188 30.828125 72.511719 C 29.929688 71.875 28.488281 71.332031 27.914062 72.273438 C 27.671875 72.671875 27.734375 73.183594 27.8125 73.648438 C 28.324219 76.640625 29.199219 79.574219 30.394531 82.367188 C 32.511719 87.332031 35.632812 91.867188 39.519531 95.617188 C 41.324219 97.355469 43.183594 99.035156 44.964844 100.757812 C 47.074219 102.800781 47.964844 99.71875 47.863281 97.816406 Z M 153.714844 154.65625 C 154.695312 153.835938 154.855469 152.40625 154.855469 151.125 C 154.863281 146.195312 153.554688 141.226562 150.859375 137.097656 C 150.441406 136.457031 149.929688 135.886719 149.445312 135.292969 C 153.273438 134.085938 156.75 131.726562 159.101562 128.46875 C 159.835938 127.449219 160.488281 126.257812 160.351562 125.007812 C 160.210938 123.722656 159.269531 122.6875 158.375 121.753906 C 156.5625 119.851562 154.746094 117.953125 152.933594 116.054688 C 151.246094 114.285156 149.40625 112.453125 147.222656 111.46875 C 147.308594 111.035156 147.417969 110.605469 147.484375 110.171875 C 148.058594 106.394531 147.976562 102.550781 147.890625 98.726562 C 147.875 98.042969 147.800781 97.242188 147.222656 96.871094 C 146.761719 96.578125 146.160156 96.679688 145.628906 96.804688 C 139.339844 98.300781 133.558594 101.863281 129.398438 106.808594 C 126.613281 110.113281 124.5625 114.027344 123.390625 118.1875 C 122.707031 120.613281 120.429688 126.964844 123.371094 128.699219 C 123.363281 128.707031 123.351562 128.710938 123.339844 128.71875 C 121.527344 130.261719 121.351562 133.117188 122.316406 135.292969 C 123.28125 137.46875 125.132812 139.105469 126.980469 140.605469 L 125.757812 139.304688 C 131.851562 144.710938 140.992188 146.578125 147.066406 152.28125 C 148.011719 153.167969 148.898438 154.160156 150.046875 154.761719 C 151.195312 155.367188 152.71875 155.488281 153.714844 154.65625 Z M 153.714844 154.65625 " fill-opacity="1" fill-rule="nonzero"/></g><path fill="#a47052" d="M -37.003906 203.113281 L -36.984375 203.089844 C -36.96875 203.078125 -36.953125 203.066406 -36.9375 203.054688 C -36.957031 203.074219 -36.980469 203.09375 -37.003906 203.113281 Z M -37.015625 203.117188 C -37.007812 203.109375 -36.996094 203.101562 -36.984375 203.089844 C -36.96875 203.070312 -36.953125 203.050781 -36.9375 203.027344 C -36.945312 203.035156 -36.957031 203.046875 -36.96875 203.054688 C -36.984375 203.074219 -37 203.097656 -37.015625 203.117188 Z M -35.933594 201.941406 C -36.007812 202.039062 -36.085938 202.125 -36.160156 202.222656 C -36.214844 202.289062 -36.257812 202.359375 -36.308594 202.429688 C -36.183594 202.265625 -36.058594 202.101562 -35.933594 201.941406 Z M -232.898438 501.925781 C -232.21875 501.152344 -231.589844 500.328125 -231.058594 499.457031 C -229.554688 497.230469 -228.441406 494.8125 -227.039062 492.390625 C -224.957031 488.953125 -222.097656 485.855469 -219.433594 482.804688 C -213.816406 476.367188 -207.8125 470.316406 -202.195312 463.925781 C -190.765625 451 -182.628906 436.183594 -175.460938 420.597656 C -171.734375 412.511719 -168.054688 404.574219 -163.308594 397.070312 C -158.898438 390.097656 -153.910156 383.515625 -148.828125 377.027344 C -146.210938 373.734375 -143.597656 370.441406 -140.738281 367.34375 C -137.832031 364.246094 -134.539062 361.582031 -131.730469 358.386719 C -129.3125 355.628906 -126.597656 353.0625 -123.789062 350.59375 C -119.140625 347.882812 -114.539062 345.125 -110.035156 341.929688 C -98.898438 333.941406 -86.402344 328.421875 -73.617188 323.582031 C -66.984375 321.113281 -60.253906 318.835938 -53.472656 316.851562 C -47.128906 315.011719 -40.542969 313.703125 -34.296875 311.527344 C -22.914062 307.554688 -13.421875 299.90625 -4.804688 291.675781 C 0.0898438 287.03125 4.882812 282.285156 10.160156 278.074219 C 15.441406 273.8125 21.152344 270.523438 27.109375 267.425781 C 28.320312 266.792969 27.449219 265.050781 26.238281 265.292969 C 22.460938 266.117188 18.878906 267.570312 15.488281 269.457031 C 15.441406 269.503906 15.390625 269.503906 15.390625 269.503906 C 8.515625 273.332031 2.363281 278.65625 -3.542969 283.304688 C -13.085938 290.757812 -22.671875 299.179688 -33.90625 304.023438 C -39.863281 306.589844 -46.402344 307.894531 -52.601562 309.785156 C -59.527344 311.914062 -66.453125 314.09375 -73.230469 316.609375 C -76.863281 317.964844 -80.445312 319.417969 -84.03125 320.964844 C -83.304688 320.191406 -82.578125 319.371094 -81.851562 318.546875 C -79.867188 316.320312 -77.976562 313.996094 -76.089844 311.816406 C -70.859375 305.621094 -65.386719 299.664062 -60.980469 292.792969 C -60.664062 292.292969 -60.394531 291.773438 -60.089844 291.269531 C -58.636719 290.917969 -57.230469 290.171875 -55.957031 289.40625 C -54.625 288.609375 -53.3125 287.628906 -52.082031 286.679688 C -50.949219 285.808594 -49.71875 284.859375 -48.832031 283.726562 C -48.125 282.828125 -47.546875 281.738281 -46.542969 281.136719 C -45.449219 280.484375 -46.183594 278.871094 -47.386719 279.132812 C -48.707031 279.417969 -49.671875 280.203125 -50.71875 280.996094 C -51.773438 281.789062 -52.988281 282.636719 -54.140625 283.402344 C -55.046875 284.007812 -55.945312 284.648438 -56.824219 285.320312 C -54.546875 280.765625 -52.621094 276.042969 -51.101562 271.199219 C -47.371094 259.582031 -44.707031 247.140625 -37.734375 237.023438 C -35.410156 235.570312 -33.035156 234.308594 -30.710938 232.953125 C -21.316406 227.628906 -12.84375 220.851562 -3.496094 215.429688 C 6.820312 209.476562 17.617188 206.8125 29.339844 205.410156 C 40.234375 204.101562 50.453125 201.828125 60.769531 198.097656 C 62.460938 197.46875 64.109375 196.792969 65.804688 196.164062 C 66.53125 195.96875 67.257812 195.726562 67.933594 195.484375 C 69.386719 195.050781 70.839844 194.660156 72.34375 194.371094 C 75.101562 193.742188 77.863281 193.0625 80.621094 192.53125 C 86.578125 191.417969 92.292969 194.46875 98.25 193.9375 C 99.363281 193.839844 99.800781 192 98.542969 191.804688 C 93.40625 191.03125 88.179688 189.09375 82.996094 189.238281 C 87.453125 187.402344 91.957031 185.65625 96.507812 184.058594 C 97.28125 183.769531 96.992188 182.558594 96.167969 182.800781 C 84.886719 185.996094 73.941406 190.257812 62.753906 193.886719 C 55.730469 196.210938 48.757812 197.761719 41.6875 198.96875 C 42.800781 198.050781 43.914062 197.132812 44.980469 196.164062 C 46.386719 194.808594 47.59375 193.304688 49.097656 192 C 50.644531 190.644531 52.390625 189.53125 54.230469 188.511719 C 57.910156 186.527344 61.734375 184.980469 65.320312 182.898438 C 66.289062 182.316406 65.464844 180.960938 64.449219 181.398438 C 60.863281 183.089844 57.039062 184.300781 53.457031 185.996094 C 49.824219 187.691406 46.867188 189.917969 44.011719 192.675781 C 41.882812 194.757812 39.652344 196.648438 37.136719 198.246094 L 37.085938 198.246094 C 36.601562 198.632812 36.070312 198.921875 35.539062 199.210938 C 34.761719 199.601562 33.988281 199.9375 33.210938 200.277344 C 31.519531 200.519531 29.871094 200.761719 28.175781 200.957031 C 16.699219 202.359375 5.898438 204.875 -4.222656 210.589844 C -8.871094 213.15625 -13.277344 216.109375 -17.636719 219.109375 C -16.378906 218.140625 -15.117188 217.171875 -13.90625 216.109375 C -13.375 215.625 -12.792969 215.140625 -12.261719 214.65625 L -12.117188 214.511719 C -6.449219 209.425781 -1.074219 203.957031 4.203125 198.4375 C 10.886719 191.371094 17.375 184.109375 23.867188 176.894531 C 27.984375 172.34375 32 167.746094 35.539062 162.808594 C 41.6875 160.289062 47.789062 156.902344 53.457031 153.65625 C 60.234375 149.785156 67.257812 146.492188 74.957031 144.703125 C 83.335938 142.71875 91.664062 140.828125 99.847656 138.070312 C 101.675781 137.453125 103.445312 136.65625 105.199219 135.824219 C 106.503906 135.566406 107.796875 135.289062 109.128906 135.191406 C 111.683594 135 114.4375 136.089844 116.863281 136.839844 C 119.378906 137.617188 121.46875 139.148438 123.839844 140.246094 C 126.453125 141.457031 129.113281 142.480469 131.761719 143.613281 C 132.882812 144.09375 134.09375 142.828125 133.136719 141.832031 C 131.117188 139.730469 128.5625 137.902344 126.214844 136.183594 C 124.648438 135.03125 122.972656 134.0625 121.234375 133.207031 C 121.734375 133.214844 122.230469 133.199219 122.726562 133.238281 C 123.621094 133.300781 124.503906 133.472656 125.398438 133.554688 C 126.199219 133.632812 126.945312 133.523438 127.746094 133.507812 C 129.332031 133.476562 131.097656 134.164062 132.492188 134.863281 C 133.425781 135.332031 134.511719 134.128906 133.664062 133.347656 C 132.277344 132.074219 130.679688 131.28125 129.128906 130.257812 C 128.363281 129.75 127.71875 129.113281 126.875 128.726562 C 126.371094 128.5 125.84375 128.410156 125.339844 128.246094 C 126.539062 127.582031 127.699219 126.84375 128.855469 126.105469 C 129.53125 125.675781 130.101562 125.207031 130.679688 124.652344 C 131.039062 124.300781 131.386719 123.835938 131.882812 123.710938 C 132.980469 123.433594 132.871094 121.921875 131.882812 121.59375 C 129.375 120.757812 126.988281 122.109375 124.761719 123.011719 C 124.164062 123.253906 123.59375 123.546875 123.011719 123.808594 C 123.667969 122.636719 124.390625 121.503906 124.671875 120.175781 C 124.941406 118.917969 125.359375 117.894531 125.867188 116.71875 C 126.375 115.554688 126.4375 114.195312 127.054688 113.089844 C 127.523438 112.246094 126.417969 111.382812 125.714844 112.058594 C 124.898438 112.847656 124.519531 113.800781 123.996094 114.785156 C 123.402344 115.910156 122.460938 116.792969 121.839844 117.898438 C 120.628906 120.042969 119.09375 121.972656 117.480469 123.839844 C 115.949219 125.621094 114.488281 127.433594 112.671875 128.9375 C 111.746094 129.699219 110.886719 130.550781 109.828125 131.125 C 109.558594 131.273438 109.296875 131.398438 109.035156 131.527344 C 107.835938 131.832031 106.636719 132.246094 105.476562 132.636719 C 104.464844 132.976562 103.179688 133.410156 102.421875 134.234375 C 101.664062 134.515625 100.917969 134.824219 100.140625 135.066406 C 91.617188 137.777344 82.707031 139.230469 73.988281 141.167969 C 66.386719 142.863281 59.316406 146.007812 52.535156 149.734375 C 48.902344 151.769531 45.269531 153.65625 41.542969 155.496094 C 40.863281 155.789062 40.1875 156.125 39.507812 156.464844 C 43.722656 148.914062 45.949219 140.34375 47.257812 131.871094 C 48.046875 126.707031 48.707031 121.539062 49.015625 116.359375 C 49.433594 115.605469 49.382812 114.636719 49.328125 113.800781 C 49.296875 113.351562 49.222656 112.902344 49.167969 112.453125 C 49.195312 110.960938 49.222656 109.472656 49.164062 107.980469 C 49.21875 107.925781 49.300781 107.941406 49.351562 107.875 C 49.835938 107.1875 49.917969 106.511719 50.03125 105.695312 C 50.113281 105.125 50.289062 104.566406 50.414062 104.003906 C 50.710938 102.683594 50.859375 101.332031 51.15625 100.011719 C 51.441406 98.71875 51.988281 97.5 52.390625 96.246094 C 52.726562 95.214844 52.691406 94.015625 53.335938 93.105469 C 53.941406 92.246094 52.652344 91.386719 51.9375 92.027344 C 51.027344 92.847656 50.726562 94.011719 50.15625 95.050781 C 50.039062 95.257812 49.882812 95.429688 49.75 95.625 C 49.738281 95.570312 49.738281 95.511719 49.726562 95.457031 C 49.539062 94.488281 49.339844 93.546875 49.054688 92.601562 C 48.890625 92.0625 48.75 91.558594 48.410156 91.101562 C 48.085938 90.667969 47.886719 90.207031 47.664062 89.714844 C 47.1875 88.671875 45.449219 89.195312 45.511719 90.296875 C 45.535156 90.691406 45.585938 91.09375 45.550781 91.472656 C 45.507812 91.917969 45.425781 92.285156 45.496094 92.742188 C 45.527344 92.941406 45.566406 93.144531 45.597656 93.34375 C 45.660156 93.710938 45.734375 94.074219 45.796875 94.441406 C 45.785156 94.425781 45.777344 94.40625 45.761719 94.394531 C 45.285156 93.972656 44.800781 93.585938 44.34375 93.140625 C 43.460938 92.277344 42.703125 91.292969 41.808594 90.4375 C 41.039062 89.695312 39.589844 90.6875 40.265625 91.628906 C 40.945312 92.578125 41.476562 93.621094 42.132812 94.585938 C 42.476562 95.089844 42.757812 95.574219 43.003906 96.132812 C 43.167969 96.5 43.371094 96.828125 43.566406 97.164062 C 42.582031 96.585938 41.539062 96.09375 40.523438 95.542969 C 39.910156 95.210938 39.015625 95.929688 39.488281 96.578125 C 40.058594 97.359375 40.617188 98.144531 41.136719 98.957031 C 41.691406 99.8125 42.363281 100.496094 42.96875 101.300781 C 43.410156 101.882812 43.710938 102.511719 43.945312 103.195312 C 44.28125 104.191406 44.851562 104.914062 45.332031 105.820312 C 46.167969 107.386719 46.472656 109.398438 46.726562 111.132812 C 46.824219 111.808594 46.921875 112.492188 47.015625 113.171875 C 46.648438 118.804688 45.683594 124.414062 44.058594 129.742188 C 41.6875 137.585938 39.316406 145.039062 35.199219 152.15625 C 31.324219 158.984375 26.140625 164.984375 20.914062 170.796875 C 15.535156 176.796875 10.210938 182.851562 4.835938 188.851562 C -1.074219 195.4375 -7.078125 201.972656 -13.570312 208.023438 C -19.671875 213.6875 -26.257812 218.285156 -32.84375 223.273438 C -37.539062 226.855469 -41.21875 231.261719 -44.269531 236.101562 C -45 236.730469 -45.722656 237.3125 -46.402344 237.988281 C -46.644531 238.28125 -46.886719 238.570312 -47.128906 238.8125 C -46.886719 237.214844 -46.742188 235.617188 -46.449219 233.972656 C -46.5 233.921875 -46.5 233.921875 -46.449219 233.921875 C -46.402344 233.390625 -46.355469 232.90625 -46.257812 232.375 C -44.757812 222.664062 -40.421875 213.628906 -38.289062 204.085938 C -38.222656 204.054688 -38.144531 204.058594 -38.082031 204.015625 C -37.941406 203.914062 -37.796875 203.808594 -37.652344 203.707031 C -37.386719 203.511719 -37.199219 203.324219 -37.015625 203.117188 C -37.128906 203.203125 -37.242188 203.289062 -37.351562 203.375 C -37.203125 203.285156 -37.09375 203.160156 -36.96875 203.054688 C -36.875 202.945312 -36.785156 202.84375 -36.6875 202.707031 C -36.769531 202.8125 -36.851562 202.921875 -36.9375 203.027344 C -36.652344 202.785156 -36.394531 202.515625 -36.160156 202.222656 C -35.902344 201.886719 -35.636719 201.558594 -35.421875 201.1875 C -35.261719 200.902344 -35.074219 200.632812 -34.878906 200.371094 C -34.445312 199.863281 -33.976562 199.375 -33.632812 198.800781 C -33.421875 198.445312 -33.257812 197.945312 -33.148438 197.535156 C -32.910156 196.59375 -33.304688 195.347656 -34.367188 195.101562 C -34.65625 195.035156 -34.925781 195.003906 -35.21875 195.042969 C -35.5625 195.089844 -35.84375 195.222656 -36.160156 195.359375 C -36 195.289062 -35.839844 195.222656 -35.679688 195.152344 C -36.027344 195.300781 -36.453125 195.40625 -36.769531 195.597656 C -36.925781 195.691406 -37.066406 195.808594 -37.214844 195.917969 C -37.117188 191.089844 -38.035156 186.292969 -37.539062 181.492188 C -36.910156 175.925781 -34.003906 170.796875 -33.085938 165.226562 C -32.066406 159.078125 -30.519531 154.046875 -27.320312 148.621094 C -24.511719 143.878906 -21.703125 139.230469 -19.960938 133.953125 C -19.71875 133.179688 -20.929688 132.648438 -21.269531 133.375 C -25.191406 142.328125 -32.601562 149.347656 -35.359375 158.835938 C -36.085938 161.355469 -36.328125 163.96875 -37.007812 166.488281 C -37.539062 168.375 -38.265625 170.164062 -38.945312 171.957031 C -38.945312 171.957031 -38.945312 171.957031 -38.945312 172.003906 C -39.234375 172.730469 -39.527344 173.457031 -39.769531 174.183594 C -41.800781 179.65625 -42.042969 184.640625 -41.851562 190.402344 C -41.414062 202.457031 -46.886719 212.527344 -49.550781 223.949219 C -52.261719 235.472656 -51.4375 247.527344 -54.972656 258.855469 C -57.007812 265.292969 -59.429688 271.636719 -61.898438 277.929688 C -63.0625 280.785156 -64.175781 283.640625 -65.335938 286.449219 C -68.4375 291.582031 -71.730469 296.566406 -75.554688 301.167969 C -80.929688 307.652344 -85.96875 314.625 -92.261719 320.238281 C -98.027344 325.371094 -105.871094 326.726562 -111.875 331.519531 C -115.074219 334.085938 -117.785156 337.136719 -120.933594 339.75 C -124.324219 342.507812 -127.859375 345.21875 -131.488281 347.640625 C -134.6875 349.769531 -138.125 351.464844 -141.125 353.886719 C -144.46875 356.546875 -147.617188 359.453125 -150.425781 362.648438 C -151.878906 364.292969 -153.28125 365.941406 -154.589844 367.636719 L -154.636719 367.683594 C -155.171875 368.214844 -155.558594 368.699219 -155.996094 369.28125 C -155.996094 369.28125 -155.996094 369.328125 -156.042969 369.378906 C -157.929688 371.605469 -159.675781 373.832031 -161.417969 376.105469 C -161.273438 375.71875 -161.128906 375.285156 -161.078125 374.847656 C -161.03125 374.800781 -161.03125 374.75 -161.03125 374.75 C -160.742188 373.878906 -160.5 373.007812 -160.304688 372.136719 C -158.898438 365.699219 -158.464844 359.113281 -157.738281 352.578125 C -157.011719 346.480469 -154.058594 341.492188 -151.539062 336.023438 C -146.890625 326.097656 -143.113281 315.253906 -140.496094 304.457031 C -138.949219 301.988281 -137.347656 299.570312 -135.945312 297.003906 C -133.183594 292.210938 -131.054688 287.222656 -129.070312 282.042969 C -126.890625 276.28125 -124.808594 270.472656 -122.386719 264.808594 C -122.035156 264.003906 -121.644531 263.21875 -121.265625 262.425781 C -119.832031 261.367188 -119 259.765625 -117.988281 258.292969 C -116.863281 256.65625 -115.5 255.246094 -114.050781 253.898438 C -112.453125 252.414062 -110.824219 250.949219 -109.121094 249.585938 C -107.390625 248.203125 -105.78125 246.707031 -104.078125 245.289062 C -103.265625 244.617188 -104.132812 243.105469 -105.125 243.488281 C -107.351562 244.347656 -109.417969 245.285156 -111.339844 246.710938 C -112.675781 247.699219 -113.9375 248.757812 -115.160156 249.867188 C -111.933594 241.933594 -111.488281 233.765625 -111.148438 225.453125 C -110.859375 222.886719 -110.761719 220.269531 -110.859375 217.707031 C -110.183594 205.746094 -106.648438 194.179688 -103.933594 182.558594 C -101.371094 171.578125 -96.621094 161.207031 -94.410156 150.167969 C -94.210938 149.855469 -94.078125 149.5 -93.917969 149.125 C -93.730469 148.675781 -93.492188 148.246094 -93.277344 147.808594 C -92.800781 146.835938 -92.199219 145.925781 -91.496094 145.101562 C -90.046875 143.410156 -88.601562 141.832031 -86.636719 140.722656 C -85.980469 140.355469 -86.421875 139.207031 -87.160156 139.480469 C -88.269531 139.890625 -89.328125 140.425781 -90.320312 141.074219 C -90.917969 141.460938 -91.5 141.890625 -92.054688 142.355469 C -91.972656 142.128906 -91.890625 141.902344 -91.820312 141.671875 C -91.570312 140.867188 -91.433594 140.011719 -91.082031 139.246094 C -90.71875 138.457031 -90.363281 137.683594 -90.328125 136.804688 C -90.292969 135.902344 -91.742188 135.683594 -91.929688 136.589844 C -92.089844 137.371094 -92.652344 137.953125 -93.003906 138.648438 C -93.257812 139.160156 -93.421875 139.710938 -93.609375 140.25 C -93.800781 139.726562 -94.023438 139.21875 -94.234375 138.621094 C -94.492188 137.898438 -94.765625 137.191406 -94.890625 136.429688 C -95.003906 135.75 -96.175781 135.738281 -96.277344 136.429688 C -96.390625 137.203125 -96.484375 137.992188 -96.40625 138.773438 C -96.328125 139.539062 -96.234375 140.328125 -96.070312 141.082031 C -95.917969 141.789062 -95.671875 142.476562 -95.519531 143.1875 C -95.480469 143.378906 -95.449219 143.566406 -95.414062 143.757812 C -95.386719 143.921875 -95.382812 143.949219 -95.398438 143.839844 C -95.382812 143.9375 -95.375 144.035156 -95.363281 144.128906 C -95.335938 144.386719 -95.265625 144.640625 -95.214844 144.894531 C -95.351562 145.722656 -95.480469 146.554688 -95.644531 147.375 C -95.773438 147.738281 -95.925781 148.09375 -96.003906 148.476562 C -96.078125 148.863281 -96.144531 149.242188 -96.125 149.605469 C -98.472656 159.640625 -103.046875 169.042969 -106.015625 178.878906 C -108.390625 186.914062 -110.859375 195.195312 -112.699219 203.519531 C -113.621094 198.921875 -114.878906 194.417969 -116.476562 190.015625 C -118.414062 184.738281 -121.03125 179.800781 -123.0625 174.621094 C -126.742188 165.179688 -127.46875 155.546875 -128.390625 145.621094 C -129.308594 135.359375 -130.910156 125.144531 -133.136719 115.121094 C -134.445312 109.140625 -135.9375 103.046875 -137.800781 97.085938 C -137.757812 95.527344 -138.210938 93.9375 -138.453125 92.398438 C -138.65625 91.125 -138.832031 89.839844 -138.917969 88.550781 C -139.015625 87.03125 -139.316406 85.589844 -139.488281 84.082031 C -139.785156 81.421875 -139.609375 78.335938 -138.921875 75.742188 C -138.609375 74.558594 -138.15625 73.457031 -138.054688 72.222656 C -137.953125 71.058594 -138.144531 69.878906 -138.253906 68.722656 C -138.359375 67.59375 -139.867188 67.613281 -139.992188 68.722656 C -140.128906 69.917969 -140.230469 71.128906 -140.511719 72.304688 C -140.800781 73.515625 -141.460938 74.535156 -142.019531 75.632812 C -142.359375 76.296875 -142.667969 76.941406 -142.984375 77.589844 C -143.40625 76.324219 -143.726562 74.953125 -143.863281 73.808594 C -143.945312 73.109375 -144.003906 72.347656 -144.085938 71.515625 C -144.167969 70.648438 -144.449219 69.835938 -144.671875 68.992188 C -144.847656 68.320312 -145.511719 67.828125 -146.203125 67.828125 C -146.957031 67.828125 -147.46875 68.335938 -147.734375 68.992188 C -148.070312 69.824219 -148.410156 70.617188 -148.496094 71.515625 C -148.566406 72.269531 -148.597656 73.054688 -148.554688 73.808594 C -148.453125 75.523438 -148.085938 77.265625 -147.535156 78.886719 C -147.414062 79.242188 -147.246094 79.578125 -147.101562 79.921875 C -147.550781 79.804688 -147.996094 79.671875 -148.445312 79.558594 C -148.507812 79.542969 -148.570312 79.523438 -148.632812 79.507812 C -148.488281 79.558594 -148.515625 79.535156 -148.714844 79.4375 C -148.867188 79.328125 -149.03125 79.230469 -149.1875 79.128906 C -149.472656 78.9375 -149.128906 79.207031 -149.402344 78.960938 C -149.535156 78.839844 -149.671875 78.722656 -149.800781 78.597656 C -150.050781 78.355469 -150.292969 78.09375 -150.507812 77.816406 C -150.332031 78.039062 -150.628906 77.636719 -150.648438 77.609375 C -150.746094 77.464844 -150.839844 77.316406 -150.933594 77.167969 C -151.300781 76.601562 -151.636719 76.023438 -151.9375 75.414062 C -152.273438 74.738281 -152.714844 74.269531 -153.183594 73.589844 C -153.742188 72.78125 -155.269531 72.980469 -155.191406 74.132812 C -155.144531 74.898438 -155.175781 75.757812 -154.945312 76.492188 C -154.699219 77.265625 -154.386719 78.042969 -154.019531 78.769531 C -153.28125 80.238281 -152.125 81.480469 -150.792969 82.425781 C -150.714844 82.480469 -150.367188 82.695312 -150.421875 82.660156 C -150.441406 82.648438 -150.042969 82.945312 -149.953125 83.015625 C -149.539062 83.335938 -149.109375 83.65625 -148.652344 83.914062 C -147.878906 84.351562 -147.050781 84.664062 -146.289062 85.140625 C -146.222656 85.183594 -146.230469 85.179688 -146.199219 85.195312 C -146.171875 85.214844 -146.1875 85.210938 -146.132812 85.25 C -146.386719 85.050781 -145.097656 86.125 -145.679688 85.59375 C -145.308594 85.933594 -144.933594 86.277344 -144.527344 86.574219 C -144.378906 86.679688 -144.214844 86.761719 -144.0625 86.863281 C -143.960938 87.296875 -143.914062 87.757812 -143.738281 88.15625 C -143.675781 88.296875 -143.59375 88.425781 -143.527344 88.5625 C -138.410156 106.410156 -133.351562 124.15625 -132.265625 142.910156 C -131.878906 149.445312 -131.828125 156.03125 -130.910156 162.515625 C -132.605469 159.953125 -134.492188 157.53125 -136.429688 155.109375 C -140.300781 150.339844 -143.339844 144.972656 -146.679688 139.835938 C -146.71875 139.414062 -146.746094 138.996094 -146.832031 138.570312 C -147.183594 136.796875 -147.515625 135.027344 -147.9375 133.269531 C -148.523438 130.8125 -149.941406 128.386719 -152.652344 127.992188 C -153.660156 127.847656 -154.046875 129.15625 -153.078125 129.523438 C -152.570312 129.714844 -152.339844 130.054688 -152.054688 130.496094 C -152.011719 130.554688 -152 130.558594 -151.996094 130.554688 C -151.988281 130.582031 -151.988281 130.582031 -151.972656 130.636719 C -151.925781 130.78125 -151.902344 130.933594 -151.851562 131.082031 C -151.769531 131.328125 -151.667969 131.566406 -151.59375 131.816406 C -151.308594 132.785156 -151.199219 133.558594 -151.097656 134.386719 C -151.488281 133.875 -151.875 133.363281 -152.304688 132.875 C -152.953125 132.132812 -153.730469 131.570312 -154.445312 130.894531 C -154.984375 130.386719 -155.792969 131.023438 -155.457031 131.671875 C -155.015625 132.515625 -154.800781 133.417969 -154.3125 134.238281 C -153.867188 134.992188 -153.347656 135.691406 -152.890625 136.4375 C -152.691406 136.761719 -152.570312 137.117188 -152.414062 137.460938 C -154.015625 136.339844 -155.5 135.0625 -157.046875 133.863281 C -158.082031 133.0625 -159.339844 134.273438 -158.492188 135.308594 C -157.734375 136.234375 -157.050781 137.21875 -156.296875 138.152344 C -155.515625 139.125 -154.597656 139.867188 -153.550781 140.542969 C -152.714844 141.089844 -151.785156 141.519531 -150.996094 142.128906 C -150.226562 142.722656 -149.5625 143.480469 -148.964844 144.242188 C -147.742188 145.789062 -146.859375 147.539062 -145.136719 148.609375 C -144.726562 148.863281 -144.335938 148.886719 -143.914062 148.988281 C -142.488281 151.328125 -141.03125 153.640625 -139.382812 155.835938 C -137.398438 158.449219 -135.316406 160.96875 -133.570312 163.726562 C -132.652344 165.132812 -131.878906 166.582031 -131.101562 168.085938 C -130.425781 169.390625 -129.746094 170.890625 -128.777344 172.054688 C -128.730469 172.054688 -128.679688 172.054688 -128.679688 172.054688 C -125.679688 181.300781 -120.691406 189.722656 -118.027344 199.066406 C -116.574219 204.296875 -115.363281 209.863281 -114.734375 215.476562 C -115.847656 225.257812 -115.363281 235.230469 -118.316406 244.71875 C -120.011719 250.238281 -123.109375 255.03125 -125.484375 260.210938 C -127.808594 265.34375 -129.84375 270.570312 -131.78125 275.847656 C -133.570312 280.496094 -135.363281 285.140625 -137.496094 289.644531 C -137.542969 289.742188 -137.542969 289.789062 -137.542969 289.839844 C -137.640625 290.03125 -137.738281 290.273438 -137.832031 290.46875 C -136.621094 280.300781 -136.671875 269.941406 -137.011719 259.726562 C -137.496094 244.332031 -138.222656 228.984375 -138.898438 213.589844 C -138.949219 212.816406 -140.0625 212.816406 -140.109375 213.589844 C -140.59375 224.871094 -140.398438 236.148438 -140.496094 247.429688 C -140.496094 263.164062 -140.980469 278.847656 -144.324219 294.4375 C -147.132812 307.316406 -151.296875 320.289062 -156.816406 332.292969 C -159.140625 337.328125 -162.144531 342.171875 -163.402344 347.640625 C -164.855469 353.789062 -164.757812 360.324219 -165.824219 366.570312 C -167.035156 373.394531 -169.3125 379.835938 -171.441406 386.371094 C -172.167969 388.597656 -172.75 390.871094 -173.234375 393.195312 C -175.363281 396.777344 -177.398438 400.410156 -179.191406 404.136719 C -187.570312 421.371094 -194.832031 439.089844 -207.375 453.808594 C -213.574219 461.019531 -220.453125 467.652344 -226.359375 475.058594 C -229.167969 478.59375 -232.121094 482.417969 -233.816406 486.679688 C -235.464844 490.890625 -235.320312 495.441406 -236.675781 499.699219 C -237.351562 501.832031 -234.398438 503.621094 -232.898438 501.925781 Z M -232.898438 501.925781 " fill-opacity="1" fill-rule="nonzero"/><path fill="#7f4c38" d="M 35.199219 152.15625 C 39.3125 145.039062 41.6875 137.585938 44.058594 129.742188 C 46.578125 121.464844 47.644531 112.507812 47.160156 103.84375 C 48.613281 107.328125 48.078125 110.570312 47.402344 114.203125 C 46.480469 119.527344 45.851562 124.851562 44.785156 130.128906 C 42.800781 139.957031 39.796875 150.460938 34.664062 159.128906 C 32.242188 163.242188 29.097656 166.535156 25.707031 169.875 C 21.445312 174.136719 17.667969 178.78125 13.695312 183.238281 C 9.96875 187.449219 6.046875 191.464844 2.605469 195.871094 C 0.570312 198.339844 -1.363281 200.761719 -3.980469 202.40625 C -4.804688 203.132812 -5.625 203.859375 -6.449219 204.585938 C -8.582031 206.570312 -10.90625 208.410156 -13.085938 210.296875 C -17.492188 214.121094 -21.800781 217.898438 -26.0625 221.867188 C -27.707031 223.398438 -29.363281 224.964844 -31.050781 226.476562 C -29.640625 225.703125 -28.191406 225.03125 -26.898438 224.046875 C -25.601562 223.050781 -24.363281 222.042969 -22.839844 221.40625 C -22.316406 221.191406 -21.972656 222.054688 -22.457031 222.308594 C -24 223.105469 -25.191406 224.367188 -26.527344 225.445312 C -27.894531 226.542969 -29.429688 227.40625 -30.898438 228.347656 C -32.542969 229.402344 -34.117188 230.5625 -35.757812 231.621094 C -36.53125 232.117188 -37.292969 232.632812 -38.089844 233.097656 C -38.632812 233.414062 -39.261719 233.8125 -39.90625 233.964844 C -41.214844 235.289062 -42.5 236.726562 -43.398438 238.183594 C -44.753906 240.410156 -44.417969 243.167969 -46.304688 245.105469 C -47.128906 245.929688 -48.292969 245.25 -48.386719 244.28125 C -48.628906 241.71875 -48.484375 238.425781 -47.5625 236.054688 C -47.273438 235.328125 -46.933594 234.648438 -46.449219 233.972656 C -46.742188 235.617188 -46.886719 237.214844 -47.128906 238.8125 C -46.886719 238.570312 -46.644531 238.28125 -46.402344 237.988281 C -45.726562 237.3125 -45 236.730469 -44.273438 236.101562 C -41.21875 231.261719 -37.539062 226.855469 -32.84375 223.273438 C -26.257812 218.285156 -19.671875 213.6875 -13.570312 208.023438 C -7.078125 201.972656 -1.074219 195.4375 4.832031 188.851562 C 10.210938 182.847656 15.535156 176.796875 20.914062 170.796875 C 26.140625 164.984375 31.324219 158.984375 35.199219 152.15625 Z M -50.808594 247.625 C -50.082031 240.167969 -48.4375 232.859375 -47.46875 225.355469 C -46.449219 217.464844 -43.0625 210.152344 -41.460938 202.359375 C -40.15625 195.921875 -40.589844 189.09375 -39.769531 182.558594 C -39.332031 179.023438 -39.1875 175.492188 -38.945312 172.003906 C -39.234375 172.730469 -39.527344 173.457031 -39.769531 174.183594 C -41.800781 179.652344 -42.042969 184.640625 -41.851562 190.402344 C -41.414062 202.457031 -46.886719 212.523438 -49.550781 223.949219 C -52.261719 235.472656 -51.4375 247.527344 -54.972656 258.855469 C -57.007812 265.292969 -59.429688 271.636719 -61.898438 277.929688 C -63.0625 280.785156 -64.175781 283.640625 -65.335938 286.449219 C -68.4375 291.582031 -71.730469 296.566406 -75.554688 301.167969 C -80.929688 307.652344 -85.96875 314.625 -92.261719 320.242188 C -98.027344 325.371094 -105.871094 326.726562 -111.875 331.519531 C -115.074219 334.085938 -117.785156 337.136719 -120.933594 339.75 C -124.324219 342.507812 -127.859375 345.21875 -131.488281 347.640625 C -134.6875 349.769531 -138.125 351.464844 -141.125 353.886719 C -144.46875 356.546875 -147.617188 359.453125 -150.425781 362.648438 C -151.878906 364.292969 -153.28125 365.941406 -154.589844 367.632812 L -154.636719 367.683594 C -154.636719 367.730469 -154.636719 367.730469 -154.636719 367.78125 C -154.929688 368.3125 -155.316406 368.84375 -155.847656 369.230469 C -155.898438 369.28125 -155.945312 369.28125 -155.996094 369.28125 C -155.996094 369.28125 -155.996094 369.328125 -156.042969 369.378906 C -156.816406 369.863281 -157.785156 370.199219 -158.5625 370.878906 C -159.769531 371.894531 -160.449219 373.296875 -161.03125 374.75 C -161.03125 374.75 -161.03125 374.800781 -161.078125 374.847656 C -161.464844 375.863281 -161.804688 376.929688 -162.191406 377.945312 C -162.53125 378.867188 -163.160156 379.6875 -163.597656 380.609375 C -164.082031 381.625 -164.179688 382.691406 -164.515625 383.753906 C -164.90625 384.820312 -165.292969 385.886719 -165.875 386.855469 C -166.261719 387.433594 -167.085938 388.597656 -166.550781 389.273438 C -165.292969 390.96875 -164.082031 387.242188 -163.886719 386.5625 C -163.257812 384.335938 -162.046875 382.398438 -160.835938 380.464844 C -160.613281 380.109375 -160.40625 379.882812 -160.1875 379.648438 C -161.125 380.832031 -161.84375 382.140625 -161.917969 383.535156 C -161.9375 383.902344 -161.46875 384.050781 -161.226562 383.824219 C -160.105469 382.78125 -159.328125 381.367188 -158.328125 380.210938 C -157.285156 379.003906 -156.070312 378.035156 -154.839844 377.03125 C -152.292969 374.953125 -150.046875 372.558594 -147.785156 370.179688 C -145.433594 367.699219 -143.148438 365.152344 -140.78125 362.6875 C -138.328125 360.125 -135.429688 358.203125 -132.601562 356.085938 C -132.253906 355.824219 -132.558594 355.246094 -132.957031 355.480469 C -135.953125 357.265625 -138.816406 358.917969 -141.339844 361.371094 C -143.972656 363.929688 -146.574219 366.550781 -149.171875 369.152344 C -149.324219 369.304688 -149.480469 369.457031 -149.632812 369.613281 C -149.578125 369.484375 -149.503906 369.359375 -149.457031 369.230469 C -143.695312 362.503906 -138.996094 354.804688 -130.617188 351.078125 C -128.050781 349.910156 -125.773438 348.695312 -123.667969 347.191406 C -122.042969 346.574219 -120.453125 345.738281 -119.121094 345.023438 C -116.246094 343.472656 -113.699219 341.417969 -111.265625 339.257812 C -108.859375 337.121094 -106.632812 334.648438 -104.023438 332.761719 C -102.632812 331.753906 -101.117188 331.320312 -99.539062 330.699219 C -97.945312 330.070312 -96.410156 329.304688 -94.832031 328.636719 C -94.433594 328.46875 -94.722656 327.828125 -95.125 327.945312 C -96.820312 328.433594 -98.476562 329.035156 -100.15625 329.566406 C -101.546875 330.003906 -102.992188 330.261719 -104.304688 330.917969 C -106.914062 332.226562 -109.085938 334.671875 -111.214844 336.617188 C -113.59375 338.785156 -116.039062 340.902344 -118.753906 342.644531 C -115.648438 339.066406 -112.730469 335.613281 -108.777344 332.875 C -100.738281 327.257812 -91.003906 325.273438 -84.613281 317.433594 C -81.753906 313.847656 -78.316406 310.703125 -75.507812 307.070312 C -74.007812 305.183594 -73.039062 303.003906 -71.683594 301.019531 C -71.632812 300.972656 -71.585938 300.972656 -71.585938 300.925781 C -71.003906 300.828125 -70.421875 300.535156 -69.988281 300.101562 C -65.964844 295.820312 -63.285156 291.175781 -61.253906 286.265625 C -61.019531 285.816406 -60.785156 285.359375 -60.550781 284.925781 C -58.792969 281.679688 -57.4375 278.269531 -56.1875 274.800781 C -53.578125 267.566406 -50.726562 260.433594 -49.484375 252.804688 C -49.394531 252.253906 -50.207031 252 -50.34375 252.566406 C -51.769531 258.550781 -54.085938 264.160156 -56.351562 269.824219 C -56.152344 268.960938 -55.949219 268.105469 -55.75 267.230469 C -54.199219 260.597656 -51.4375 254.449219 -50.808594 247.625 Z M -131.78125 275.847656 C -133.570312 280.496094 -135.363281 285.140625 -137.496094 289.644531 C -137.542969 289.742188 -137.542969 289.789062 -137.542969 289.839844 C -137.6875 290.226562 -137.738281 290.613281 -137.785156 291.046875 C -138.414062 292.160156 -136.527344 293.710938 -135.460938 292.257812 C -132.847656 288.53125 -132.363281 283.15625 -130.957031 278.898438 C -129.019531 272.992188 -125.871094 267.230469 -123.597656 261.421875 C -121.464844 255.902344 -117.496094 250.625 -116.285156 244.863281 C -115.023438 239.101562 -114.636719 232.761719 -113.863281 226.855469 C -113.085938 220.660156 -113.621094 214.996094 -114.925781 208.894531 C -116.089844 203.519531 -115.992188 197.664062 -119.042969 192.96875 C -122.433594 187.738281 -124.128906 182.511719 -126.164062 176.75 C -126.113281 176.363281 -126.164062 175.976562 -126.308594 175.539062 C -126.742188 174.472656 -127.132812 173.457031 -127.566406 172.488281 C -128.101562 170.941406 -128.535156 169.34375 -129.3125 167.890625 C -130.328125 166.003906 -131.925781 164.648438 -133.476562 163.144531 C -135.023438 161.597656 -135.75 159.660156 -136.816406 157.773438 C -138.027344 155.546875 -139.527344 153.753906 -141.222656 151.867188 C -142.820312 150.074219 -144.273438 148.089844 -145.679688 146.105469 C -143.695312 149.445312 -141.707031 152.738281 -139.382812 155.835938 C -137.398438 158.449219 -135.316406 160.96875 -133.570312 163.726562 C -132.652344 165.128906 -131.878906 166.582031 -131.101562 168.082031 C -130.425781 169.390625 -129.746094 170.890625 -128.777344 172.054688 C -128.730469 172.054688 -128.679688 172.054688 -128.679688 172.054688 C -125.679688 181.300781 -120.691406 189.722656 -118.027344 199.066406 C -116.574219 204.296875 -115.363281 209.863281 -114.734375 215.476562 C -115.847656 225.257812 -115.363281 235.230469 -118.316406 244.71875 C -120.011719 250.238281 -123.113281 255.03125 -125.484375 260.210938 C -127.808594 265.339844 -129.84375 270.570312 -131.78125 275.847656 Z M -232.898438 501.925781 C -232.21875 501.152344 -231.589844 500.328125 -231.058594 499.457031 C -231.394531 498.296875 -231.785156 497.132812 -231.492188 495.875 C -230.621094 491.808594 -229.554688 487.792969 -227.570312 484.160156 C -225.632812 480.625 -223.019531 477.964844 -220.597656 474.867188 C -219.53125 473.558594 -218.464844 472.300781 -217.351562 470.992188 C -217.304688 470.945312 -217.207031 470.945312 -217.109375 470.894531 C -215.113281 469.679688 -213.792969 467.796875 -212.011719 466.4375 C -214.164062 468.730469 -216.4375 470.925781 -218.140625 473.59375 C -220.378906 477.09375 -223.980469 481.15625 -224.140625 485.523438 C -224.160156 485.984375 -223.542969 486.097656 -223.3125 485.746094 C -221.972656 483.703125 -221.035156 481.382812 -219.707031 479.320312 C -218.550781 477.523438 -217.316406 475.722656 -216.101562 473.96875 C -213.488281 470.1875 -209.621094 467.382812 -207.167969 463.496094 C -207.085938 463.371094 -207.03125 463.234375 -206.957031 463.105469 C -206.363281 462.6875 -205.753906 462.308594 -205.195312 461.792969 C -203.742188 460.4375 -201.757812 458.066406 -200.789062 455.597656 C -199.777344 454.5 -198.875 453.234375 -198.039062 451.886719 C -195.144531 448.789062 -192.21875 445.792969 -189.804688 442.269531 C -189.582031 441.941406 -190.09375 441.542969 -190.355469 441.84375 C -192.039062 443.777344 -193.792969 445.609375 -195.582031 447.414062 C -194.25 444.757812 -193.042969 442.121094 -191.78125 440.058594 C -189.457031 436.183594 -186.019531 433.085938 -183.839844 429.117188 C -181.226562 424.46875 -179.628906 419.046875 -177.691406 414.0625 C -175.65625 408.976562 -173.234375 404.039062 -171.394531 398.910156 C -169.699219 394.117188 -168.632812 389.082031 -167.472656 384.144531 C -166.308594 379.15625 -164.855469 374.316406 -164.128906 369.230469 C -163.886719 367.296875 -163.402344 365.019531 -163.550781 362.9375 C -162.871094 359.792969 -162.675781 356.644531 -162.046875 353.351562 C -161.832031 352.296875 -161.496094 351.265625 -161.144531 350.234375 C -161.992188 355.800781 -161.742188 361.523438 -162.503906 367.179688 C -162.582031 367.738281 -161.769531 368.007812 -161.628906 367.421875 C -159.820312 359.816406 -160.546875 351.933594 -157.851562 344.503906 C -156.503906 340.792969 -155.191406 337.058594 -153.621094 333.433594 C -152.96875 331.925781 -152.605469 330.359375 -152.085938 328.8125 C -151.671875 327.566406 -151.050781 326.378906 -150.601562 325.140625 C -148.242188 319.640625 -146.03125 314.089844 -144.757812 308.089844 C -142.335938 296.808594 -140.496094 285.675781 -140.109375 274.152344 C -139.820312 265.390625 -139.382812 256.242188 -140.496094 247.429688 C -140.496094 263.164062 -140.980469 278.847656 -144.324219 294.4375 C -147.132812 307.316406 -151.296875 320.289062 -156.816406 332.292969 C -159.140625 337.328125 -162.144531 342.171875 -163.402344 347.640625 C -164.855469 353.789062 -164.757812 360.324219 -165.824219 366.570312 C -167.035156 373.394531 -169.3125 379.835938 -171.441406 386.371094 C -172.167969 388.597656 -172.75 390.871094 -173.234375 393.195312 C -175.367188 396.777344 -177.398438 400.410156 -179.191406 404.136719 C -187.570312 421.371094 -194.832031 439.089844 -207.375 453.804688 C -213.574219 461.019531 -220.453125 467.652344 -226.359375 475.058594 C -229.167969 478.59375 -232.121094 482.417969 -233.816406 486.679688 C -235.464844 490.890625 -235.320312 495.441406 -236.675781 499.699219 C -237.351562 501.832031 -234.398438 503.621094 -232.898438 501.925781 Z M -33.90625 304.023438 C -39.863281 306.589844 -46.402344 307.894531 -52.601562 309.78125 C -59.527344 311.914062 -66.453125 314.09375 -73.230469 316.609375 C -76.863281 317.964844 -80.445312 319.417969 -84.03125 320.964844 C -83.304688 320.191406 -82.578125 319.367188 -81.851562 318.546875 C -82.53125 318.789062 -83.207031 319.03125 -83.789062 319.464844 C -84.320312 319.851562 -84.804688 320.289062 -85.242188 320.773438 C -85.726562 321.304688 -85.917969 321.691406 -86.308594 322.078125 C -86.695312 322.515625 -87.128906 322.902344 -87.515625 323.289062 C -88 323.726562 -88.535156 324.066406 -88.96875 324.5 C -89.746094 325.273438 -88.777344 326.535156 -87.808594 326 C -87.324219 325.757812 -86.839844 325.46875 -86.308594 325.371094 C -85.628906 325.179688 -85 325.03125 -84.417969 324.695312 C -83.835938 324.402344 -83.304688 323.96875 -82.820312 323.582031 L -82.238281 323 C -82.140625 322.855469 -82.046875 322.757812 -81.898438 322.660156 C -81.851562 322.613281 -81.707031 322.515625 -81.707031 322.46875 C -81.5625 322.320312 -81.320312 322.226562 -81.125 322.128906 C -81.078125 322.128906 -80.882812 322.03125 -80.882812 322.03125 L -80.6875 321.933594 C -80.15625 321.742188 -79.625 321.644531 -79.140625 321.5 C -78.269531 321.257812 -77.445312 320.820312 -76.667969 320.289062 C -76.425781 320.242188 -76.183594 320.191406 -75.941406 320.144531 C -74.054688 319.804688 -72.214844 319.125 -70.375 318.449219 C -68.292969 317.867188 -66.160156 317.335938 -64.03125 316.949219 C -61.609375 316.511719 -59.140625 316.125 -56.910156 314.914062 C -55.847656 314.335938 -54.78125 313.800781 -53.667969 313.269531 C -48.921875 312.832031 -45.335938 310.269531 -41.027344 308.378906 C -38.992188 307.460938 -36.71875 306.589844 -34.539062 306.007812 C -33.472656 305.765625 -32.503906 305.570312 -31.632812 305.28125 C -28.582031 304.363281 -25.722656 303.054688 -23.011719 301.214844 C -16.621094 296.808594 -10.46875 292.402344 -4.511719 287.515625 C -1.75 285.289062 0.71875 282.867188 3.1875 280.300781 C 4.542969 278.945312 5.609375 277.734375 7.351562 276.863281 C 8.757812 276.1875 9.871094 275.507812 10.984375 274.394531 C 12.582031 272.894531 13.988281 271.199219 15.390625 269.503906 C 8.515625 273.328125 2.363281 278.65625 -3.542969 283.300781 C -13.085938 290.757812 -22.671875 299.179688 -33.90625 304.023438 Z M 33.210938 200.277344 C 31.519531 200.519531 29.871094 200.761719 28.175781 200.957031 C 16.699219 202.359375 5.898438 204.875 -4.222656 210.589844 C -8.871094 213.15625 -13.277344 216.109375 -17.636719 219.109375 C -16.378906 218.140625 -15.117188 217.171875 -13.90625 216.109375 C -13.375 215.625 -12.792969 215.140625 -12.261719 214.65625 C -12.601562 214.945312 -12.988281 215.238281 -13.328125 215.527344 C -14.101562 216.15625 -15.019531 216.738281 -15.796875 217.367188 C -16.472656 217.898438 -17.054688 218.527344 -17.78125 219.011719 C -18.3125 219.351562 -19.1875 219.640625 -19.28125 220.367188 C -19.332031 220.511719 -19.234375 220.660156 -19.089844 220.609375 C -18.363281 220.5625 -17.734375 220.175781 -16.957031 220.175781 C -16.136719 220.125 -15.457031 219.835938 -14.828125 219.351562 C -13.277344 218.140625 -11.535156 217.125 -9.839844 216.058594 C -8.289062 215.089844 -6.546875 214.65625 -4.949219 213.785156 C -3.398438 212.914062 -1.898438 211.894531 -0.105469 211.460938 L -0.0585938 211.414062 C 1.152344 211.167969 2.265625 210.734375 3.382812 210.25 C 4.6875 209.621094 6.046875 208.941406 7.304688 208.167969 C 7.644531 207.976562 7.980469 207.78125 8.320312 207.585938 C 8.464844 207.539062 8.609375 207.441406 8.757812 207.394531 L 9.144531 207.199219 C 9.242188 207.152344 9.386719 207.105469 9.433594 207.105469 C 9.628906 207.007812 9.820312 206.957031 10.015625 206.910156 C 10.546875 206.765625 10.984375 206.570312 11.417969 206.328125 C 11.515625 206.28125 11.515625 206.230469 11.566406 206.183594 C 12.050781 206.136719 12.582031 206.039062 13.066406 205.894531 C 15.875 205.167969 18.636719 204.101562 21.445312 203.425781 C 24.058594 202.84375 26.722656 202.699219 29.339844 202.261719 C 32.097656 201.777344 34.328125 200.957031 36.554688 199.210938 C 36.894531 198.921875 37.085938 198.535156 37.085938 198.242188 C 36.601562 198.632812 36.070312 198.921875 35.535156 199.210938 C 34.761719 199.597656 33.988281 199.9375 33.210938 200.277344 Z M 33.210938 200.277344 " fill-opacity="1" fill-rule="nonzero"/></svg>