<svg xmlns="http://www.w3.org/2000/svg" xmlns:xlink="http://www.w3.org/1999/xlink" width="500" zoomAndPan="magnify" viewBox="0 0 375 374.999991" height="500" preserveAspectRatio="xMidYMid meet" version="1.0"><defs><clipPath id="201f024a8a"><path d="M 309 87 L 375 87 L 375 183 L 309 183 Z M 309 87 " clip-rule="nonzero"/></clipPath><clipPath id="06e3eede29"><path d="M 635.433594 37.503906 L 726.960938 484.988281 L 333.851562 565.394531 L 242.320312 117.910156 Z M 635.433594 37.503906 " clip-rule="nonzero"/></clipPath><clipPath id="cf78bb23a2"><path d="M 392.953125 87.101562 L 448.863281 360.441406 L 298.230469 391.25 L 242.320312 117.910156 Z M 392.953125 87.101562 " clip-rule="nonzero"/></clipPath><clipPath id="97e762d598"><path d="M 635.417969 37.503906 L 726.945312 484.992188 L 333.835938 565.398438 L 242.308594 117.914062 Z M 635.417969 37.503906 " clip-rule="nonzero"/></clipPath><clipPath id="76d3679400"><path d="M 329 102 L 375 102 L 375 375 L 329 375 Z M 329 102 " clip-rule="nonzero"/></clipPath><clipPath id="6ad8d43795"><path d="M 635.433594 37.503906 L 726.960938 484.988281 L 333.851562 565.394531 L 242.320312 117.910156 Z M 635.433594 37.503906 " clip-rule="nonzero"/></clipPath><clipPath id="d357fb3d85"><path d="M 392.953125 87.101562 L 448.863281 360.441406 L 298.230469 391.25 L 242.320312 117.910156 Z M 392.953125 87.101562 " clip-rule="nonzero"/></clipPath><clipPath id="8d5a0e01cc"><path d="M 635.417969 37.503906 L 726.945312 484.992188 L 333.835938 565.398438 L 242.308594 117.914062 Z M 635.417969 37.503906 " clip-rule="nonzero"/></clipPath><clipPath id="7704c42317"><path d="M 335 116 L 375 116 L 375 375 L 335 375 Z M 335 116 " clip-rule="nonzero"/></clipPath><clipPath id="b612a84ea3"><path d="M 635.433594 37.503906 L 726.960938 484.988281 L 333.851562 565.394531 L 242.320312 117.910156 Z M 635.433594 37.503906 " clip-rule="nonzero"/></clipPath><clipPath id="851a4daf76"><path d="M 392.953125 87.101562 L 448.863281 360.441406 L 298.230469 391.25 L 242.320312 117.910156 Z M 392.953125 87.101562 " clip-rule="nonzero"/></clipPath><clipPath id="fd9c67ed83"><path d="M 635.417969 37.503906 L 726.945312 484.992188 L 333.835938 565.398438 L 242.308594 117.914062 Z M 635.417969 37.503906 " clip-rule="nonzero"/></clipPath><clipPath id="b013024d15"><path d="M 333 178 L 375 178 L 375 374 L 333 374 Z M 333 178 " clip-rule="nonzero"/></clipPath><clipPath id="0a1bdf38c4"><path d="M 635.433594 37.503906 L 726.960938 484.988281 L 333.851562 565.394531 L 242.320312 117.910156 Z M 635.433594 37.503906 " clip-rule="nonzero"/></clipPath><clipPath id="c886f57354"><path d="M 392.953125 87.101562 L 448.863281 360.441406 L 298.230469 391.25 L 242.320312 117.910156 Z M 392.953125 87.101562 " clip-rule="nonzero"/></clipPath><clipPath id="22e0e0f863"><path d="M 635.417969 37.503906 L 726.945312 484.992188 L 333.835938 565.398438 L 242.308594 117.914062 Z M 635.417969 37.503906 " clip-rule="nonzero"/></clipPath><clipPath id="be1f4b4a10"><path d="M 329 105 L 375 105 L 375 351 L 329 351 Z M 329 105 " clip-rule="nonzero"/></clipPath><clipPath id="60ababed6b"><path d="M 635.433594 37.503906 L 726.960938 484.988281 L 333.851562 565.394531 L 242.320312 117.910156 Z M 635.433594 37.503906 " clip-rule="nonzero"/></clipPath><clipPath id="fd29a8b74b"><path d="M 392.953125 87.101562 L 448.863281 360.441406 L 298.230469 391.25 L 242.320312 117.910156 Z M 392.953125 87.101562 " clip-rule="nonzero"/></clipPath><clipPath id="d7f32730f4"><path d="M 635.417969 37.503906 L 726.945312 484.992188 L 333.835938 565.398438 L 242.308594 117.914062 Z M 635.417969 37.503906 " clip-rule="nonzero"/></clipPath></defs><g clip-path="url(#201f024a8a)"><g clip-path="url(#06e3eede29)"><g clip-path="url(#cf78bb23a2)"><g clip-path="url(#97e762d598)"><path fill="#ea9dc2" d="M 335.183594 132.773438 C 332.765625 130.945312 330.199219 129.257812 327.324219 128.242188 C 324.664062 127.296875 321.808594 126.949219 319.1875 125.902344 C 316.496094 124.824219 314.125 122.988281 312.355469 120.695312 C 311.453125 119.527344 310.707031 118.234375 310.152344 116.867188 C 309.71875 115.796875 308.574219 114.566406 309.476562 113.4375 C 310.007812 112.773438 310.871094 112.488281 311.683594 112.238281 C 315.59375 111.03125 319.699219 109.828125 323.726562 110.570312 C 324.589844 110.726562 325.425781 111.003906 326.242188 111.328125 C 326.507812 107.800781 327.488281 104.332031 329.140625 101.203125 C 329.5 100.519531 330.082031 99.753906 330.847656 99.867188 C 331.140625 99.910156 331.398438 100.085938 331.644531 100.257812 C 333.671875 101.695312 335.554688 103.363281 337.167969 105.25 C 337.820312 104.3125 338.597656 103.453125 339.453125 102.695312 C 341.183594 101.164062 343.210938 100.007812 345.285156 99 C 347.175781 98.085938 349.820312 97.453125 350.640625 99.988281 C 351.882812 103.835938 352.039062 108.296875 349.855469 111.699219 C 348.859375 113.25 347.425781 114.511719 346.617188 116.164062 C 345.671875 118.105469 345.597656 120.441406 345.519531 122.5625 C 345.449219 124.609375 346.378906 128.320312 344.601562 129.878906 C 343.695312 130.675781 342.621094 130.828125 341.574219 130.617188 C 341.722656 131.71875 341.734375 132.855469 341.160156 133.789062 C 339.410156 136.648438 336.824219 134.007812 335.183594 132.773438 Z M 406.042969 181.542969 C 407.175781 181.9375 408.949219 180.464844 410.203125 179.765625 C 411.972656 178.777344 413.886719 178.082031 415.535156 176.882812 C 419.390625 174.078125 421.21875 168.773438 419.917969 164.191406 C 418.097656 164.359375 416.460938 165.335938 414.925781 166.328125 C 413.828125 167.035156 412.742188 167.769531 411.707031 168.5625 C 411.757812 168.347656 411.851562 168.144531 411.894531 167.925781 C 412.457031 165.191406 412.464844 162.335938 411.851562 159.609375 C 411.714844 158.992188 411.460938 158.289062 410.855469 158.109375 C 410.507812 158.007812 410.140625 158.109375 409.800781 158.226562 C 405.898438 159.554688 402.703125 162.792969 401.425781 166.710938 C 401.359375 166.910156 401.375 167.125 401.320312 167.328125 C 400.5 166.613281 399.601562 166.007812 398.570312 165.671875 C 396.703125 165.066406 394.4375 165.417969 393.132812 166.886719 C 394.546875 168.085938 395.605469 169.632812 396.492188 171.25 C 398.058594 174.117188 399.082031 177.273438 400.914062 179.996094 C 401.566406 180.964844 402.710938 182.796875 403.984375 182.976562 C 405.0625 183.125 405.683594 182.414062 406.042969 181.542969 Z M 533.640625 110.332031 C 533.539062 109.949219 533.421875 109.5625 533.320312 109.179688 C 533.679688 109.464844 534.097656 109.613281 534.609375 109.480469 C 535.9375 109.128906 536.835938 106.097656 537.46875 105.042969 C 539.882812 101.019531 542.074219 96.933594 542.972656 92.273438 C 544.082031 86.515625 543.015625 80.089844 539.03125 75.785156 C 538.746094 75.480469 538.386719 75.164062 537.972656 75.203125 C 537.523438 75.246094 537.230469 75.683594 537.003906 76.078125 C 533.832031 81.582031 530.582031 87.335938 530.15625 93.671875 C 530.132812 93.984375 530.164062 94.292969 530.15625 94.605469 C 528.925781 92.105469 527.433594 89.738281 525.667969 87.585938 C 523.789062 85.289062 521.625 83.226562 519.222656 81.480469 C 518.34375 84.933594 518.308594 88.550781 518.960938 92.046875 C 516.601562 91.015625 514.242188 89.984375 511.882812 88.953125 C 510.875 88.511719 509.351562 88.269531 508.976562 89.304688 C 508.820312 89.746094 508.984375 90.234375 509.152344 90.671875 C 510.253906 93.503906 511.699219 96.199219 513.429688 98.695312 C 516.5 103.132812 520.46875 106.953125 525.023438 109.847656 C 527.140625 111.191406 529.300781 112.464844 531.390625 113.796875 C 533.863281 115.371094 534.125 112.175781 533.640625 110.332031 Z M 648.734375 144.808594 C 649.53125 143.808594 649.402344 142.371094 649.148438 141.117188 C 648.164062 136.285156 645.890625 131.679688 642.417969 128.175781 C 641.878906 127.632812 641.265625 127.175781 640.671875 126.691406 C 644.183594 124.742188 647.113281 121.734375 648.761719 118.070312 C 649.277344 116.925781 649.679688 115.628906 649.296875 114.429688 C 648.902344 113.199219 647.769531 112.375 646.707031 111.636719 C 644.550781 110.140625 642.390625 108.640625 640.234375 107.144531 C 638.222656 105.75 636.058594 104.324219 633.722656 103.796875 C 633.71875 103.355469 633.742188 102.910156 633.71875 102.472656 C 633.523438 98.65625 632.667969 94.90625 631.820312 91.179688 C 631.667969 90.511719 631.433594 89.742188 630.792969 89.496094 C 630.285156 89.296875 629.71875 89.519531 629.222656 89.75 C 623.359375 92.472656 618.410156 97.121094 615.320312 102.800781 C 613.257812 106.597656 612.03125 110.847656 611.714844 115.15625 C 611.53125 117.667969 610.578125 124.347656 613.804688 125.457031 C 613.796875 125.46875 613.785156 125.472656 613.777344 125.480469 C 612.3125 127.355469 612.714844 130.191406 614.09375 132.128906 C 615.472656 134.066406 617.617188 135.296875 619.726562 136.398438 L 618.269531 135.371094 C 625.324219 139.445312 634.652344 139.445312 641.746094 143.808594 C 642.851562 144.492188 643.917969 145.285156 645.164062 145.644531 C 646.410156 146.007812 647.925781 145.824219 648.734375 144.808594 Z M 648.734375 144.808594 " fill-opacity="1" fill-rule="nonzero"/></g></g></g></g><g clip-path="url(#76d3679400)"><g clip-path="url(#6ad8d43795)"><g clip-path="url(#d357fb3d85)"><g clip-path="url(#8d5a0e01cc)"><path fill="#a47052" d="M 471.597656 230.5 L 471.609375 230.472656 C 471.625 230.460938 471.636719 230.445312 471.648438 230.429688 C 471.632812 230.453125 471.613281 230.476562 471.597656 230.5 Z M 471.582031 230.503906 C 471.59375 230.496094 471.601562 230.484375 471.609375 230.472656 C 471.621094 230.449219 471.632812 230.425781 471.644531 230.402344 C 471.636719 230.414062 471.628906 230.425781 471.621094 230.433594 C 471.609375 230.457031 471.59375 230.484375 471.582031 230.503906 Z M 472.410156 229.136719 C 472.355469 229.246094 472.296875 229.347656 472.242188 229.457031 C 472.203125 229.535156 472.175781 229.613281 472.136719 229.691406 C 472.230469 229.503906 472.320312 229.320312 472.410156 229.136719 Z M 339.554688 562.507812 C 340.066406 561.613281 340.515625 560.679688 340.863281 559.722656 C 341.890625 557.238281 342.496094 554.644531 343.386719 551.992188 C 344.738281 548.207031 346.914062 544.597656 348.914062 541.078125 C 353.128906 533.640625 357.796875 526.511719 362.019531 519.125 C 370.628906 504.171875 375.628906 488.027344 379.527344 471.316406 C 381.5625 462.648438 383.574219 454.132812 386.722656 445.832031 C 389.640625 438.117188 393.210938 430.667969 396.890625 423.292969 C 398.792969 419.542969 400.695312 415.796875 402.875 412.1875 C 405.101562 408.570312 407.792969 405.300781 409.90625 401.609375 C 411.722656 398.417969 413.867188 395.363281 416.125 392.378906 C 420.136719 388.792969 424.089844 385.167969 427.863281 381.132812 C 437.175781 371.078125 448.308594 363.164062 459.863281 355.859375 C 465.871094 352.113281 472.007812 348.535156 478.253906 345.230469 C 484.101562 342.15625 490.289062 339.558594 495.972656 336.171875 C 506.328125 330 514.09375 320.605469 520.890625 310.816406 C 524.75 305.28125 528.496094 299.671875 532.824219 294.488281 C 537.144531 289.257812 542.082031 284.886719 547.296875 280.65625 C 548.355469 279.796875 547.152344 278.265625 546.015625 278.746094 C 542.480469 280.308594 539.261719 282.449219 536.316406 284.980469 C 536.28125 285.035156 536.234375 285.046875 536.234375 285.046875 C 530.261719 290.171875 525.304688 296.621094 520.445312 302.359375 C 512.59375 311.574219 504.886719 321.746094 494.851562 328.742188 C 489.527344 332.449219 483.386719 335.039062 477.691406 338.132812 C 471.332031 341.605469 464.984375 345.128906 458.847656 348.953125 C 455.558594 351.007812 452.339844 353.152344 449.140625 355.386719 C 449.695312 354.480469 450.242188 353.53125 450.789062 352.578125 C 452.289062 350 453.671875 347.34375 455.085938 344.832031 C 458.96875 337.710938 463.136719 330.78125 466.078125 323.164062 C 466.285156 322.613281 466.445312 322.050781 466.640625 321.496094 C 466.644531 321.496094 466.644531 321.496094 466.644531 321.496094 C 467.996094 320.859375 469.226562 319.84375 470.320312 318.84375 C 471.464844 317.792969 472.550781 316.566406 473.570312 315.394531 C 474.503906 314.3125 475.519531 313.132812 476.160156 311.851562 C 476.671875 310.828125 477.023438 309.640625 477.886719 308.851562 C 478.824219 307.992188 477.78125 306.5625 476.65625 307.058594 C 475.421875 307.601562 474.632812 308.5625 473.765625 309.550781 C 472.894531 310.539062 471.871094 311.613281 470.898438 312.597656 C 470.128906 313.367188 469.378906 314.179688 468.652344 315.011719 C 469.96875 310.09375 470.910156 305.078125 471.429688 300.03125 C 472.753906 287.898438 472.871094 275.175781 477.675781 263.867188 C 479.660156 261.976562 481.734375 260.269531 483.738281 258.476562 C 491.878906 251.375 498.820312 243.035156 506.890625 235.851562 C 515.804688 227.953125 525.851562 223.179688 537.050781 219.453125 C 547.464844 215.992188 557.019531 211.714844 566.378906 205.996094 C 567.914062 205.039062 569.390625 204.042969 570.925781 203.089844 C 571.597656 202.753906 572.261719 202.371094 572.878906 201.996094 C 574.214844 201.277344 575.558594 200.609375 576.972656 200.023438 C 579.550781 198.855469 582.117188 197.636719 584.714844 196.5625 C 590.328125 194.277344 596.539062 196.121094 602.265625 194.40625 C 603.339844 194.085938 603.398438 192.195312 602.125 192.257812 C 596.941406 192.527344 591.429688 191.679688 586.382812 192.859375 C 590.378906 190.164062 594.441406 187.554688 598.582031 185.078125 C 599.28125 184.636719 598.753906 183.511719 597.996094 183.914062 C 587.582031 189.304688 577.710938 195.671875 567.480469 201.46875 C 561.066406 205.152344 554.546875 208.070312 547.859375 210.671875 C 548.765625 209.546875 549.675781 208.421875 550.523438 207.261719 C 551.628906 205.652344 552.511719 203.9375 553.722656 202.355469 C 554.96875 200.71875 556.453125 199.277344 558.054688 197.914062 C 561.261719 195.230469 564.699219 192.945312 567.792969 190.191406 C 568.625 189.425781 567.546875 188.261719 566.636719 188.894531 C 563.46875 191.273438 559.960938 193.222656 556.789062 195.601562 C 553.570312 197.992188 551.121094 200.765625 548.875 204.039062 C 547.207031 206.507812 545.402344 208.804688 543.253906 210.871094 L 543.207031 210.882812 C 542.8125 211.359375 542.347656 211.75 541.882812 212.140625 C 541.203125 212.675781 540.511719 213.164062 539.820312 213.652344 C 538.207031 214.226562 536.644531 214.792969 535.019531 215.324219 C 524.058594 219 513.980469 223.628906 505.210938 231.253906 C 501.171875 234.699219 497.445312 238.476562 493.777344 242.289062 C 494.816406 241.089844 495.855469 239.886719 496.828125 238.601562 C 497.253906 238.023438 497.726562 237.429688 498.148438 236.851562 L 498.261719 236.679688 C 502.796875 230.5625 506.964844 224.125 511.03125 217.660156 C 516.164062 209.398438 521.0625 200.984375 525.976562 192.617188 C 529.097656 187.332031 532.113281 182.019531 534.589844 176.476562 C 540.109375 172.777344 545.410156 168.234375 550.308594 163.921875 C 556.175781 158.765625 562.394531 154.136719 569.582031 150.835938 C 577.390625 147.214844 585.171875 143.695312 592.636719 139.351562 C 594.304688 138.378906 595.878906 137.246094 597.429688 136.078125 C 598.65625 135.566406 599.867188 135.035156 601.152344 134.671875 C 603.617188 133.972656 606.535156 134.488281 609.0625 134.738281 C 611.683594 134.992188 614.035156 136.078125 616.578125 136.675781 C 619.382812 137.339844 622.195312 137.808594 625.011719 138.386719 C 626.210938 138.632812 627.140625 137.152344 626.003906 136.367188 C 623.605469 134.714844 620.734375 133.433594 618.089844 132.21875 C 616.324219 131.40625 614.488281 130.789062 612.613281 130.300781 C 613.105469 130.207031 613.589844 130.09375 614.082031 130.03125 C 614.972656 129.917969 615.871094 129.90625 616.761719 129.808594 C 617.5625 129.722656 618.273438 129.46875 619.054688 129.292969 C 620.601562 128.941406 622.46875 129.261719 623.976562 129.667969 C 624.984375 129.9375 625.808594 128.542969 624.820312 127.949219 C 623.207031 126.976562 621.484375 126.519531 619.757812 125.828125 C 618.90625 125.484375 618.148438 124.988281 617.246094 124.78125 C 616.707031 124.660156 616.171875 124.679688 615.644531 124.617188 C 616.6875 123.726562 617.675781 122.773438 618.660156 121.820312 C 619.234375 121.257812 619.699219 120.6875 620.152344 120.027344 C 620.4375 119.613281 620.683594 119.085938 621.144531 118.863281 C 622.167969 118.371094 621.753906 116.914062 620.722656 116.792969 C 618.09375 116.476562 616.027344 118.273438 614.027344 119.605469 C 613.488281 119.960938 612.992188 120.367188 612.472656 120.738281 C 612.882812 119.460938 613.359375 118.203125 613.371094 116.84375 C 613.382812 115.558594 613.585938 114.472656 613.851562 113.21875 C 614.113281 111.976562 613.902344 110.632812 614.285156 109.429688 C 614.578125 108.507812 613.320312 107.882812 612.769531 108.6875 C 612.125 109.621094 611.945312 110.632812 611.632812 111.699219 C 611.273438 112.921875 610.53125 113.972656 610.140625 115.179688 C 609.382812 117.523438 608.265625 119.726562 607.0625 121.878906 C 605.914062 123.925781 604.851562 126 603.371094 127.832031 C 602.617188 128.765625 601.945312 129.773438 601.023438 130.546875 C 600.789062 130.746094 600.558594 130.921875 600.328125 131.101562 C 599.214844 131.636719 598.121094 132.285156 597.0625 132.902344 C 596.140625 133.4375 594.96875 134.117188 594.390625 135.078125 C 593.703125 135.507812 593.03125 135.957031 592.320312 136.351562 C 584.515625 140.714844 576.074219 143.925781 567.921875 147.566406 C 560.8125 150.75 554.515625 155.253906 548.621094 160.261719 C 545.472656 162.984375 542.289062 165.558594 539.007812 168.109375 C 538.398438 168.53125 537.804688 168.996094 537.207031 169.464844 C 539.820312 161.222656 540.289062 152.382812 539.871094 143.820312 C 539.609375 138.601562 539.222656 133.40625 538.484375 128.269531 C 538.742188 127.445312 538.5 126.503906 538.277344 125.699219 C 538.15625 125.265625 537.996094 124.839844 537.851562 124.410156 C 537.578125 122.945312 537.308594 121.480469 536.949219 120.027344 C 536.996094 119.964844 537.078125 119.964844 537.113281 119.886719 C 537.449219 119.117188 537.394531 118.4375 537.34375 117.617188 C 537.308594 117.039062 537.371094 116.460938 537.382812 115.878906 C 537.40625 114.53125 537.28125 113.175781 537.304688 111.824219 C 537.328125 110.5 537.617188 109.195312 537.761719 107.886719 C 537.882812 106.808594 537.609375 105.640625 538.054688 104.621094 C 538.480469 103.65625 537.046875 103.074219 536.472656 103.847656 C 535.742188 104.828125 535.683594 106.03125 535.332031 107.164062 C 535.261719 107.390625 535.140625 107.589844 535.050781 107.808594 C 535.027344 107.753906 535.015625 107.699219 534.992188 107.648438 C 534.613281 106.734375 534.234375 105.851562 533.761719 104.984375 C 533.496094 104.488281 533.257812 104.019531 532.832031 103.640625 C 532.425781 103.285156 532.136719 102.871094 531.820312 102.4375 C 531.148438 101.507812 529.550781 102.371094 529.832031 103.4375 C 529.933594 103.820312 530.0625 104.203125 530.105469 104.582031 C 530.152344 105.027344 530.144531 105.398438 530.304688 105.835938 C 530.375 106.023438 530.453125 106.214844 530.527344 106.402344 C 530.660156 106.75 530.804688 107.09375 530.941406 107.4375 C 530.925781 107.425781 530.910156 107.410156 530.894531 107.398438 C 530.34375 107.082031 529.789062 106.800781 529.257812 106.457031 C 528.214844 105.785156 527.277344 104.976562 526.230469 104.316406 C 525.328125 103.742188 524.109375 105.003906 524.957031 105.792969 C 525.8125 106.585938 526.542969 107.503906 527.378906 108.316406 C 527.816406 108.738281 528.191406 109.160156 528.542969 109.652344 C 528.777344 109.980469 529.042969 110.265625 529.300781 110.554688 C 528.21875 110.1875 527.097656 109.910156 525.996094 109.574219 C 525.328125 109.371094 524.59375 110.253906 525.1875 110.796875 C 525.902344 111.449219 526.605469 112.109375 527.28125 112.796875 C 527.992188 113.527344 528.789062 114.058594 529.542969 114.726562 C 530.09375 115.210938 530.511719 115.761719 530.878906 116.386719 C 531.410156 117.296875 532.109375 117.890625 532.765625 118.679688 C 533.894531 120.046875 534.601562 121.957031 535.195312 123.605469 C 535.425781 124.25 535.660156 124.898438 535.886719 125.546875 C 536.65625 131.136719 536.832031 136.824219 536.3125 142.371094 C 535.558594 150.53125 534.726562 158.3125 532.121094 166.109375 C 529.695312 173.570312 525.820312 180.492188 521.859375 187.230469 C 517.796875 194.191406 513.789062 201.1875 509.726562 208.144531 C 505.257812 215.777344 500.683594 223.386719 495.539062 230.613281 C 490.695312 237.386719 485.164062 243.210938 479.710938 249.417969 C 475.828125 253.867188 473.105469 258.921875 471.085938 264.277344 C 470.5 265.039062 469.90625 265.753906 469.375 266.550781 C 469.199219 266.886719 469.019531 267.21875 468.828125 267.503906 C 468.746094 265.890625 468.570312 264.296875 468.523438 262.625 C 468.46875 262.585938 468.46875 262.585938 468.515625 262.578125 C 468.457031 262.046875 468.40625 261.5625 468.394531 261.019531 C 467.914062 251.210938 470.355469 241.484375 470.53125 231.710938 C 470.589844 231.667969 470.667969 231.65625 470.71875 231.601562 C 470.839844 231.472656 470.960938 231.339844 471.078125 231.210938 C 471.296875 230.964844 471.449219 230.746094 471.582031 230.503906 C 471.492188 230.613281 471.398438 230.71875 471.304688 230.828125 C 471.433594 230.710938 471.515625 230.566406 471.621094 230.433594 C 471.6875 230.308594 471.753906 230.191406 471.824219 230.039062 C 471.765625 230.160156 471.703125 230.28125 471.644531 230.402344 C 471.871094 230.105469 472.074219 229.792969 472.242188 229.457031 C 472.429688 229.074219 472.625 228.703125 472.757812 228.296875 C 472.859375 227.984375 472.988281 227.683594 473.128906 227.386719 C 473.453125 226.800781 473.8125 226.230469 474.035156 225.597656 C 474.171875 225.207031 474.230469 224.6875 474.253906 224.261719 C 474.300781 223.292969 473.664062 222.148438 472.574219 222.121094 C 472.277344 222.117188 472.003906 222.140625 471.726562 222.238281 C 471.398438 222.351562 471.148438 222.535156 470.867188 222.734375 C 471.011719 222.632812 471.15625 222.535156 471.300781 222.4375 C 470.984375 222.648438 470.59375 222.839844 470.320312 223.089844 C 470.1875 223.214844 470.070312 223.355469 469.949219 223.492188 C 469.074219 218.742188 467.214844 214.226562 466.738281 209.425781 C 466.238281 203.847656 468.058594 198.238281 467.84375 192.597656 C 467.609375 186.371094 468.117188 181.128906 470.160156 175.175781 C 471.960938 169.964844 473.78125 164.847656 474.433594 159.328125 C 474.515625 158.519531 473.222656 158.242188 473.035156 159.019531 C 470.988281 168.582031 465.136719 176.945312 464.332031 186.792969 C 464.125 189.40625 464.414062 192.015625 464.253906 194.617188 C 464.109375 196.574219 463.757812 198.472656 463.449219 200.363281 C 463.449219 200.363281 463.449219 200.363281 463.460938 200.410156 C 463.320312 201.179688 463.183594 201.953125 463.089844 202.710938 C 462.195312 208.476562 462.957031 213.410156 464.300781 219.015625 C 467.144531 230.738281 463.800781 241.703125 463.480469 253.429688 C 463.132812 265.261719 466.351562 276.90625 465.160156 288.710938 C 464.457031 295.425781 463.355469 302.125 462.199219 308.785156 C 461.632812 311.816406 461.113281 314.839844 460.535156 317.824219 C 458.527344 323.472656 456.300781 329.015625 453.476562 334.289062 C 449.507812 341.722656 445.972656 349.5625 440.929688 356.324219 C 436.3125 362.507812 428.894531 365.40625 423.972656 371.304688 C 421.355469 374.460938 419.3125 377.992188 416.75 381.183594 C 413.980469 384.566406 411.0625 387.929688 407.988281 391.03125 C 405.285156 393.757812 402.253906 396.105469 399.796875 399.078125 C 397.058594 402.359375 394.554688 405.835938 392.445312 409.527344 C 391.351562 411.429688 390.304688 413.324219 389.363281 415.246094 L 389.328125 415.304688 C 388.910156 415.933594 388.628906 416.484375 388.316406 417.140625 C 388.316406 417.140625 388.328125 417.1875 388.289062 417.246094 C 386.886719 419.804688 385.625 422.335938 384.371094 424.914062 C 384.4375 424.507812 384.492188 424.050781 384.453125 423.613281 C 384.488281 423.558594 384.480469 423.511719 384.480469 423.511719 C 384.589844 422.597656 384.652344 421.695312 384.667969 420.804688 C 384.753906 414.214844 383.859375 407.675781 383.261719 401.128906 C 382.753906 395.007812 384.648438 389.527344 386.019531 383.664062 C 388.585938 373.011719 390.113281 361.628906 390.511719 350.527344 C 391.535156 347.800781 392.613281 345.105469 393.476562 342.3125 C 395.21875 337.0625 396.308594 331.75 397.214844 326.277344 C 398.195312 320.199219 399.074219 314.089844 400.308594 308.054688 C 400.488281 307.195312 400.714844 306.347656 400.929688 305.496094 C 402.121094 304.171875 402.613281 302.433594 403.3125 300.789062 C 404.085938 298.960938 405.140625 297.308594 406.289062 295.695312 C 407.554688 293.917969 408.859375 292.15625 410.253906 290.480469 C 411.671875 288.78125 412.949219 286.988281 414.335938 285.261719 C 414.996094 284.441406 413.839844 283.132812 412.945312 283.707031 C 410.9375 284.996094 409.101562 286.324219 407.503906 288.109375 C 406.394531 289.34375 405.367188 290.632812 404.394531 291.96875 C 405.96875 283.550781 404.765625 275.457031 403.429688 267.242188 C 403.199219 264.671875 402.769531 262.089844 402.164062 259.597656 C 400.429688 247.746094 401.574219 235.703125 401.902344 223.773438 C 402.214844 212.503906 404.789062 201.390625 404.742188 190.132812 C 404.878906 189.785156 404.9375 189.410156 405.015625 189.011719 C 405.109375 188.535156 405.257812 188.066406 405.378906 187.59375 C 405.652344 186.546875 406.058594 185.53125 406.582031 184.585938 C 407.664062 182.636719 408.765625 180.800781 410.46875 179.320312 C 411.035156 178.828125 410.375 177.792969 409.703125 178.207031 C 408.699219 178.832031 407.769531 179.570312 406.929688 180.402344 C 406.421875 180.902344 405.9375 181.441406 405.488281 182.003906 C 405.519531 181.765625 405.554688 181.527344 405.578125 181.289062 C 405.664062 180.449219 405.625 179.585938 405.816406 178.761719 C 406.011719 177.917969 406.207031 177.089844 406.0625 176.222656 C 405.917969 175.332031 404.457031 175.40625 404.453125 176.332031 C 404.453125 177.128906 404.015625 177.8125 403.816406 178.566406 C 403.667969 179.117188 403.613281 179.6875 403.542969 180.253906 C 403.246094 179.78125 402.929688 179.328125 402.601562 178.785156 C 402.203125 178.128906 401.792969 177.488281 401.519531 176.769531 C 401.273438 176.125 400.121094 176.347656 400.160156 177.046875 C 400.203125 177.828125 400.273438 178.621094 400.503906 179.367188 C 400.734375 180.105469 400.984375 180.855469 401.292969 181.5625 C 401.585938 182.226562 401.964844 182.847656 402.257812 183.515625 C 402.335938 183.695312 402.40625 183.875 402.476562 184.054688 C 402.535156 184.210938 402.542969 184.234375 402.507812 184.128906 C 402.539062 184.222656 402.570312 184.316406 402.597656 184.410156 C 402.679688 184.65625 402.800781 184.886719 402.898438 185.128906 C 402.933594 185.96875 402.96875 186.808594 402.976562 187.644531 C 402.921875 188.023438 402.84375 188.402344 402.84375 188.792969 C 402.847656 189.1875 402.859375 189.570312 402.953125 189.921875 C 402.664062 200.226562 400.0625 210.355469 399.125 220.585938 C 398.410156 228.9375 397.652344 237.542969 397.515625 246.070312 C 395.695312 241.746094 393.558594 237.589844 391.109375 233.59375 C 388.152344 228.8125 384.601562 224.496094 381.570312 219.828125 C 376.074219 211.320312 373.433594 202.027344 370.542969 192.488281 C 367.582031 182.617188 363.972656 172.929688 359.78125 163.558594 C 357.296875 157.960938 354.617188 152.289062 351.597656 146.824219 C 351.328125 145.289062 350.5625 143.820312 350.015625 142.363281 C 349.566406 141.15625 349.132812 139.929688 348.792969 138.683594 C 348.390625 137.214844 347.808594 135.863281 347.339844 134.421875 C 346.511719 131.875 346.066406 128.816406 346.21875 126.136719 C 346.289062 124.914062 346.511719 123.742188 346.367188 122.515625 C 346.230469 121.355469 345.808594 120.238281 345.46875 119.125 C 345.140625 118.042969 343.664062 118.359375 343.761719 119.472656 C 343.871094 120.671875 344.011719 121.878906 343.972656 123.085938 C 343.933594 124.328125 343.492188 125.464844 343.164062 126.648438 C 342.964844 127.371094 342.789062 128.0625 342.613281 128.757812 C 341.945312 127.605469 341.355469 126.328125 340.992188 125.230469 C 340.769531 124.5625 340.5625 123.828125 340.316406 123.03125 C 340.058594 122.195312 339.621094 121.457031 339.234375 120.675781 C 338.925781 120.050781 338.179688 119.703125 337.5 119.839844 C 336.765625 119.992188 336.359375 120.59375 336.234375 121.289062 C 336.074219 122.171875 335.898438 123.015625 335.996094 123.914062 C 336.074219 124.667969 336.203125 125.441406 336.394531 126.171875 C 336.835938 127.832031 337.546875 129.464844 338.414062 130.945312 C 338.601562 131.265625 338.832031 131.5625 339.042969 131.871094 C 338.578125 131.847656 338.117188 131.804688 337.65625 131.785156 C 337.589844 131.78125 337.527344 131.777344 337.460938 131.769531 C 337.613281 131.792969 337.582031 131.773438 337.367188 131.71875 C 337.195312 131.640625 337.015625 131.582031 336.839844 131.511719 C 336.523438 131.378906 336.914062 131.578125 336.597656 131.390625 C 336.441406 131.296875 336.285156 131.210938 336.136719 131.113281 C 335.839844 130.925781 335.550781 130.714844 335.285156 130.488281 C 335.503906 130.675781 335.132812 130.339844 335.105469 130.316406 C 334.980469 130.191406 334.859375 130.066406 334.738281 129.941406 C 334.265625 129.457031 333.820312 128.957031 333.40625 128.425781 C 332.941406 127.828125 332.414062 127.457031 331.816406 126.882812 C 331.109375 126.207031 329.652344 126.707031 329.957031 127.820312 C 330.160156 128.558594 330.300781 129.410156 330.671875 130.082031 C 331.070312 130.792969 331.53125 131.492188 332.035156 132.128906 C 333.054688 133.417969 334.4375 134.402344 335.929688 135.0625 C 336.015625 135.101562 336.398438 135.242188 336.339844 135.21875 C 336.320312 135.207031 336.769531 135.421875 336.871094 135.472656 C 337.34375 135.703125 337.828125 135.929688 338.324219 136.09375 C 339.171875 136.367188 340.042969 136.507812 340.882812 136.820312 C 340.960938 136.851562 340.953125 136.84375 340.984375 136.855469 C 341.015625 136.871094 341 136.867188 341.058594 136.894531 C 340.773438 136.753906 342.25 137.546875 341.574219 137.144531 C 342.007812 137.402344 342.441406 137.664062 342.902344 137.871094 C 343.066406 137.945312 343.246094 137.996094 343.414062 138.0625 C 343.601562 138.46875 343.734375 138.910156 343.988281 139.265625 C 344.078125 139.390625 344.183594 139.5 344.277344 139.621094 C 352.871094 156.078125 361.382812 172.449219 366.203125 190.609375 C 367.890625 196.933594 369.257812 203.375 371.460938 209.542969 C 369.285156 207.371094 366.949219 205.378906 364.566406 203.394531 C 359.816406 199.5 355.765625 194.847656 351.460938 190.484375 C 351.34375 190.082031 351.230469 189.671875 351.0625 189.273438 C 350.359375 187.605469 349.679688 185.941406 348.914062 184.300781 C 347.847656 182.015625 345.972656 179.921875 343.238281 180.078125 C 342.222656 180.136719 342.105469 181.496094 343.128906 181.664062 C 343.664062 181.75 343.957031 182.035156 344.328125 182.410156 C 344.378906 182.460938 344.390625 182.460938 344.394531 182.453125 C 344.410156 182.484375 344.40625 182.484375 344.433594 182.53125 C 344.507812 182.664062 344.566406 182.808594 344.640625 182.945312 C 344.773438 183.167969 344.921875 183.378906 345.042969 183.609375 C 345.515625 184.503906 345.777344 185.238281 346.046875 186.03125 C 345.558594 185.609375 345.074219 185.183594 344.558594 184.789062 C 343.773438 184.195312 342.898438 183.800781 342.0625 183.28125 C 341.433594 182.890625 340.769531 183.679688 341.230469 184.246094 C 341.832031 184.984375 342.222656 185.824219 342.863281 186.53125 C 343.453125 187.175781 344.101562 187.761719 344.699219 188.398438 C 344.960938 188.675781 345.148438 189.003906 345.371094 189.304688 C 343.574219 188.527344 341.867188 187.574219 340.109375 186.710938 C 338.9375 186.132812 337.949219 187.570312 338.984375 188.414062 C 339.914062 189.171875 340.78125 190 341.703125 190.761719 C 342.664062 191.558594 343.714844 192.101562 344.871094 192.554688 C 345.800781 192.921875 346.800781 193.15625 347.695312 193.597656 C 348.566406 194.023438 349.371094 194.632812 350.109375 195.257812 C 351.613281 196.53125 352.832031 198.066406 354.730469 198.769531 C 355.183594 198.9375 355.574219 198.882812 356.007812 198.894531 C 357.875 200.902344 359.765625 202.875 361.820312 204.699219 C 364.289062 206.859375 366.832031 208.910156 369.09375 211.265625 C 370.277344 212.457031 371.328125 213.722656 372.386719 215.039062 C 373.3125 216.183594 374.277344 217.515625 375.457031 218.460938 C 375.507812 218.453125 375.554688 218.441406 375.554688 218.441406 C 380.347656 226.898438 386.921875 234.152344 391.40625 242.773438 C 393.875 247.601562 396.179688 252.816406 397.921875 258.191406 C 398.789062 267.996094 401.261719 277.667969 400.269531 287.554688 C 399.714844 293.304688 397.636719 298.617188 396.351562 304.171875 C 395.101562 309.664062 394.15625 315.191406 393.316406 320.75 C 392.492188 325.664062 391.667969 330.574219 390.484375 335.414062 C 390.457031 335.519531 390.464844 335.566406 390.472656 335.613281 C 390.417969 335.820312 390.371094 336.078125 390.316406 336.289062 C 389.464844 326.085938 387.339844 315.945312 384.960938 306.003906 C 381.402344 291.019531 377.617188 276.128906 373.867188 261.183594 C 373.664062 260.433594 372.574219 260.65625 372.679688 261.425781 C 374.464844 272.574219 376.917969 283.585938 379.082031 294.65625 C 382.234375 310.070312 384.902344 325.535156 384.753906 341.476562 C 384.582031 354.65625 383.101562 368.203125 380.097656 381.070312 C 378.832031 386.46875 376.859375 391.8125 376.722656 397.425781 C 376.53125 403.738281 377.933594 410.125 378.144531 416.457031 C 378.324219 423.386719 377.386719 430.148438 376.605469 436.980469 C 376.34375 439.308594 376.230469 441.652344 376.21875 444.027344 C 374.851562 447.964844 373.585938 451.929688 372.578125 455.9375 C 367.820312 474.503906 364.253906 493.316406 354.917969 510.25 C 350.289062 518.558594 344.882812 526.433594 340.578125 534.875 C 338.535156 538.898438 336.40625 543.238281 335.597656 547.753906 C 334.828125 552.207031 335.882812 556.636719 335.410156 561.082031 C 335.171875 563.304688 338.425781 564.46875 339.554688 562.507812 Z M 339.554688 562.507812 " fill-opacity="1" fill-rule="nonzero"/></g></g></g></g><g clip-path="url(#7704c42317)"><g clip-path="url(#b612a84ea3)"><g clip-path="url(#851a4daf76)"><g clip-path="url(#fd9c67ed83)"><path fill="#7f4c38" d="M 532.121094 166.109375 C 534.726562 158.3125 535.558594 150.53125 536.3125 142.371094 C 537.121094 133.757812 536.371094 124.769531 534.160156 116.375 C 536.28125 119.5 536.410156 122.785156 536.472656 126.476562 C 536.636719 131.878906 537.089844 137.222656 537.101562 142.605469 C 537.125 152.632812 536.289062 163.527344 532.996094 173.042969 C 531.449219 177.5625 529.023438 181.417969 526.375 185.371094 C 523.050781 190.398438 520.28125 195.707031 517.285156 200.867188 C 514.476562 205.738281 511.4375 210.460938 508.949219 215.46875 C 507.453125 218.292969 506.039062 221.054688 503.808594 223.191406 C 503.148438 224.066406 502.484375 224.941406 501.824219 225.820312 C 500.136719 228.191406 498.226562 230.460938 496.46875 232.746094 C 492.917969 237.375 489.453125 241.9375 486.074219 246.683594 C 484.769531 248.511719 483.460938 250.378906 482.109375 252.199219 C 483.335938 251.15625 484.621094 250.207031 485.6875 248.984375 C 486.761719 247.75 487.773438 246.511719 489.140625 245.585938 C 489.605469 245.269531 490.117188 246.046875 489.691406 246.390625 C 488.339844 247.480469 487.429688 248.953125 486.332031 250.277344 C 485.21875 251.628906 483.886719 252.78125 482.632812 254 C 481.234375 255.363281 479.925781 256.816406 478.527344 258.179688 C 477.871094 258.824219 477.226562 259.476562 476.539062 260.09375 C 476.070312 260.511719 475.535156 261.027344 474.933594 261.308594 C 473.917969 262.867188 472.949219 264.535156 472.355469 266.140625 C 471.476562 268.59375 472.359375 271.230469 470.898438 273.503906 C 470.257812 274.476562 468.980469 274.046875 468.691406 273.117188 C 467.941406 270.652344 467.425781 267.394531 467.851562 264.886719 C 467.988281 264.117188 468.183594 263.386719 468.523438 262.625 C 468.570312 264.296875 468.746094 265.890625 468.828125 267.503906 C 469.019531 267.21875 469.199219 266.886719 469.375 266.550781 C 469.90625 265.753906 470.5 265.039062 471.085938 264.277344 C 473.105469 258.921875 475.828125 253.867188 479.710938 249.417969 C 485.164062 243.210938 490.695312 237.386719 495.539062 230.613281 C 500.683594 223.386719 505.257812 215.777344 509.726562 208.144531 C 513.789062 201.1875 517.796875 194.191406 521.859375 187.230469 C 525.820312 180.492188 529.695312 173.570312 532.121094 166.109375 Z M 466.988281 276.875 C 466.207031 269.425781 466.355469 261.933594 465.800781 254.386719 C 465.214844 246.453125 467.074219 238.609375 467.074219 230.652344 C 467.066406 224.085938 465.273438 217.484375 464.769531 210.917969 C 464.488281 207.367188 463.921875 203.875 463.460938 200.410156 C 463.320312 201.179688 463.183594 201.949219 463.089844 202.710938 C 462.195312 208.476562 462.957031 213.410156 464.300781 219.015625 C 467.144531 230.738281 463.800781 241.703125 463.480469 253.429688 C 463.132812 265.261719 466.351562 276.90625 465.160156 288.710938 C 464.457031 295.425781 463.355469 302.125 462.199219 308.785156 C 461.632812 311.816406 461.113281 314.839844 460.535156 317.824219 C 458.527344 323.472656 456.300781 329.015625 453.472656 334.289062 C 449.507812 341.722656 445.972656 349.5625 440.929688 356.324219 C 436.3125 362.507812 428.894531 365.40625 423.972656 371.304688 C 421.355469 374.460938 419.3125 377.992188 416.75 381.183594 C 413.980469 384.566406 411.0625 387.929688 407.988281 391.03125 C 405.285156 393.757812 402.253906 396.105469 399.796875 399.078125 C 397.058594 402.359375 394.554688 405.835938 392.445312 409.527344 C 391.351562 411.429688 390.304688 413.324219 389.363281 415.246094 L 389.328125 415.304688 C 389.335938 415.351562 389.335938 415.351562 389.347656 415.398438 C 389.167969 415.980469 388.894531 416.578125 388.449219 417.066406 C 388.414062 417.121094 388.363281 417.132812 388.316406 417.140625 C 388.316406 417.140625 388.328125 417.1875 388.289062 417.246094 C 387.628906 417.875 386.746094 418.402344 386.125 419.222656 C 385.140625 420.460938 384.757812 421.96875 384.480469 423.511719 C 384.480469 423.511719 384.488281 423.558594 384.453125 423.613281 C 384.277344 424.6875 384.15625 425.800781 383.980469 426.875 C 383.832031 427.84375 383.382812 428.773438 383.140625 429.761719 C 382.867188 430.855469 382.988281 431.917969 382.867188 433.03125 C 382.703125 434.152344 382.535156 435.273438 382.160156 436.335938 C 381.898438 436.984375 381.324219 438.289062 381.980469 438.84375 C 383.554688 440.253906 383.992188 436.359375 384.046875 435.65625 C 384.21875 433.347656 385.015625 431.207031 385.8125 429.066406 C 385.960938 428.679688 386.121094 428.410156 386.285156 428.140625 C 385.605469 429.488281 385.164062 430.914062 385.371094 432.292969 C 385.421875 432.660156 385.914062 432.707031 386.105469 432.4375 C 386.996094 431.191406 387.472656 429.652344 388.222656 428.316406 C 389 426.925781 389.996094 425.734375 391.003906 424.503906 C 393.082031 421.957031 394.800781 419.160156 396.539062 416.375 C 398.347656 413.476562 400.078125 410.523438 401.898438 407.632812 C 403.792969 404.628906 406.246094 402.167969 408.589844 399.527344 C 408.878906 399.199219 408.464844 398.695312 408.121094 399.003906 C 405.542969 401.355469 403.070312 403.546875 401.089844 406.453125 C 399.023438 409.492188 397 412.578125 394.976562 415.648438 C 394.859375 415.828125 394.734375 416.011719 394.617188 416.191406 C 394.644531 416.058594 394.691406 415.917969 394.714844 415.785156 C 399.011719 408.035156 402.070312 399.554688 409.53125 394.222656 C 411.8125 392.5625 413.796875 390.917969 415.5625 389.019531 C 417.03125 388.089844 418.421875 386.957031 419.582031 385.984375 C 422.085938 383.890625 424.171875 381.367188 426.121094 378.765625 C 428.054688 376.1875 429.734375 373.320312 431.917969 370.945312 C 433.078125 369.683594 434.476562 368.957031 435.894531 368.03125 C 437.332031 367.09375 438.679688 366.035156 440.09375 365.066406 C 440.449219 364.820312 440.039062 364.25 439.667969 364.445312 C 438.105469 365.265625 436.605469 366.1875 435.0625 367.042969 C 433.789062 367.75 432.421875 368.292969 431.269531 369.199219 C 428.976562 371.003906 427.339844 373.835938 425.644531 376.167969 C 423.75 378.769531 421.773438 381.332031 419.464844 383.582031 C 421.792969 379.457031 423.957031 375.488281 427.28125 372.011719 C 434.03125 364.898438 443.171875 361.003906 447.863281 352.039062 C 449.945312 347.957031 452.683594 344.1875 454.707031 340.066406 C 455.796875 337.914062 456.308594 335.585938 457.242188 333.371094 C 457.277344 333.3125 457.328125 333.304688 457.316406 333.257812 C 457.867188 333.046875 458.378906 332.644531 458.71875 332.128906 C 461.796875 327.128906 463.496094 322.042969 464.5 316.828125 C 464.640625 316.339844 464.777344 315.84375 464.921875 315.371094 C 465.996094 311.839844 466.636719 308.226562 467.167969 304.578125 C 468.273438 296.96875 469.636719 289.410156 469.324219 281.683594 C 469.304688 281.125 468.457031 281.042969 468.4375 281.625 C 468.238281 287.769531 467.09375 293.730469 466.007812 299.734375 C 466.03125 298.847656 466.058594 297.96875 466.078125 297.070312 C 466.269531 290.265625 467.742188 283.6875 466.988281 276.875 Z M 393.316406 320.75 C 392.492188 325.664062 391.667969 330.574219 390.484375 335.414062 C 390.453125 335.519531 390.464844 335.566406 390.472656 335.613281 C 390.410156 336.019531 390.441406 336.410156 390.480469 336.847656 C 390.085938 338.0625 392.246094 339.203125 393 337.566406 C 394.816406 333.390625 394.210938 328.027344 394.734375 323.574219 C 395.449219 317.398438 397.378906 311.125 398.445312 304.976562 C 399.425781 299.144531 402.257812 293.175781 402.289062 287.289062 C 402.371094 281.394531 401.476562 275.101562 401.054688 269.160156 C 400.570312 262.9375 398.914062 257.492188 396.410156 251.777344 C 394.195312 246.746094 393.117188 240.988281 389.1875 237 C 384.816406 232.558594 382.109375 227.773438 378.960938 222.539062 C 378.933594 222.148438 378.808594 221.777344 378.578125 221.382812 C 377.9375 220.425781 377.351562 219.507812 376.734375 218.644531 C 375.898438 217.234375 375.152344 215.757812 374.101562 214.488281 C 372.726562 212.84375 370.890625 211.835938 369.070312 210.675781 C 367.242188 209.46875 366.144531 207.71875 364.722656 206.082031 C 363.089844 204.140625 361.257812 202.6875 359.21875 201.175781 C 357.296875 199.742188 355.472656 198.089844 353.699219 196.425781 C 356.316406 199.300781 358.921875 202.128906 361.820312 204.699219 C 364.289062 206.863281 366.832031 208.910156 369.09375 211.265625 C 370.277344 212.453125 371.328125 213.722656 372.386719 215.039062 C 373.3125 216.183594 374.277344 217.515625 375.457031 218.460938 C 375.507812 218.453125 375.554688 218.441406 375.554688 218.441406 C 380.347656 226.898438 386.921875 234.152344 391.40625 242.773438 C 393.875 247.601562 396.179688 252.816406 397.921875 258.191406 C 398.789062 267.996094 401.261719 277.667969 400.269531 287.554688 C 399.714844 293.300781 397.636719 298.621094 396.351562 304.167969 C 395.101562 309.664062 394.15625 315.191406 393.316406 320.75 Z M 339.554688 562.507812 C 340.066406 561.613281 340.515625 560.679688 340.863281 559.722656 C 340.300781 558.648438 339.6875 557.589844 339.71875 556.296875 C 339.757812 552.140625 339.996094 547.988281 341.214844 544.035156 C 342.40625 540.183594 344.433594 537.050781 346.183594 533.53125 C 346.964844 532.035156 347.757812 530.589844 348.585938 529.085938 C 348.625 529.027344 348.71875 529.007812 348.804688 528.941406 C 350.515625 527.351562 351.433594 525.242188 352.90625 523.550781 C 351.257812 526.230469 349.46875 528.835938 348.335938 531.789062 C 346.84375 535.667969 344.128906 540.371094 344.847656 544.683594 C 344.921875 545.140625 345.546875 545.125 345.703125 544.734375 C 346.609375 542.464844 347.058594 540.003906 347.949219 537.714844 C 348.722656 535.722656 349.570312 533.714844 350.410156 531.75 C 352.210938 527.523438 355.4375 524 357.0625 519.699219 C 357.117188 519.5625 357.144531 519.417969 357.191406 519.277344 C 357.6875 518.746094 358.210938 518.253906 358.652344 517.636719 C 359.804688 516.019531 361.273438 513.296875 361.726562 510.683594 C 362.5 509.40625 363.132812 507.984375 363.679688 506.5 C 365.894531 502.882812 368.160156 499.359375 369.820312 495.421875 C 369.972656 495.058594 369.390625 494.773438 369.195312 495.117188 C 367.933594 497.347656 366.582031 499.496094 365.191406 501.621094 C 365.964844 498.753906 366.617188 495.929688 367.4375 493.65625 C 368.941406 489.394531 371.6875 485.671875 373.027344 481.34375 C 374.65625 476.265625 375.136719 470.632812 376.035156 465.359375 C 377.011719 459.972656 378.394531 454.652344 379.167969 449.253906 C 379.867188 444.21875 379.902344 439.074219 380.050781 434.003906 C 380.191406 428.882812 380.644531 423.851562 380.335938 418.722656 C 380.1875 416.777344 380.203125 414.453125 379.644531 412.441406 C 379.679688 409.222656 379.238281 406.101562 379.195312 402.75 C 379.195312 401.671875 379.320312 400.59375 379.453125 399.511719 C 379.738281 405.136719 381.128906 410.691406 381.515625 416.386719 C 381.554688 416.949219 382.40625 417.050781 382.421875 416.449219 C 382.671875 408.636719 380.378906 401.058594 381.53125 393.238281 C 382.109375 389.332031 382.648438 385.410156 383.457031 381.546875 C 383.796875 379.941406 383.839844 378.332031 384.035156 376.710938 C 384.195312 375.40625 384.5625 374.117188 384.753906 372.816406 C 385.964844 366.953125 387.019531 361.074219 387.0625 354.941406 C 387.175781 343.402344 386.746094 332.125 384.816406 320.761719 C 383.34375 312.117188 381.9375 303.066406 379.082031 294.65625 C 382.234375 310.070312 384.902344 325.535156 384.753906 341.476562 C 384.582031 354.65625 383.101562 368.203125 380.097656 381.070312 C 378.832031 386.46875 376.859375 391.8125 376.722656 397.425781 C 376.53125 403.742188 377.933594 410.125 378.144531 416.457031 C 378.324219 423.386719 377.386719 430.148438 376.605469 436.980469 C 376.34375 439.308594 376.230469 441.652344 376.21875 444.027344 C 374.851562 447.964844 373.585938 451.929688 372.578125 455.9375 C 367.820312 474.503906 364.253906 493.316406 354.917969 510.25 C 350.289062 518.558594 344.882812 526.433594 340.578125 534.875 C 338.535156 538.898438 336.40625 543.238281 335.597656 547.753906 C 334.828125 552.210938 335.882812 556.636719 335.410156 561.082031 C 335.171875 563.304688 338.425781 564.46875 339.554688 562.507812 Z M 494.851562 328.742188 C 489.527344 332.449219 483.386719 335.039062 477.691406 338.132812 C 471.332031 341.605469 464.984375 345.128906 458.847656 348.953125 C 455.558594 351.007812 452.339844 353.152344 449.140625 355.386719 C 449.695312 354.480469 450.242188 353.53125 450.789062 352.578125 C 450.175781 352.953125 449.558594 353.324219 449.074219 353.867188 C 448.632812 354.355469 448.246094 354.878906 447.914062 355.4375 C 447.546875 356.058594 447.433594 356.476562 447.132812 356.933594 C 446.839844 357.4375 446.492188 357.90625 446.1875 358.363281 C 445.800781 358.886719 445.347656 359.324219 445.007812 359.839844 C 444.40625 360.753906 445.605469 361.792969 446.449219 361.074219 C 446.875 360.742188 447.289062 360.359375 447.792969 360.160156 C 448.417969 359.832031 449.003906 359.566406 449.507812 359.117188 C 450.019531 358.714844 450.453125 358.179688 450.847656 357.703125 L 451.300781 357.019531 C 451.367188 356.855469 451.445312 356.742188 451.566406 356.621094 C 451.605469 356.5625 451.726562 356.4375 451.71875 356.390625 C 451.832031 356.21875 452.046875 356.074219 452.21875 355.941406 C 452.265625 355.933594 452.4375 355.796875 452.4375 355.796875 L 452.609375 355.664062 C 453.089844 355.367188 453.59375 355.167969 454.039062 354.929688 C 454.84375 354.515625 455.5625 353.925781 456.214844 353.246094 C 456.441406 353.152344 456.671875 353.054688 456.898438 352.957031 C 458.679688 352.25 460.347656 351.214844 462.015625 350.183594 C 463.9375 349.195312 465.917969 348.246094 467.929688 347.441406 C 470.214844 346.53125 472.554688 345.65625 474.496094 344.023438 C 475.421875 343.242188 476.359375 342.503906 477.34375 341.761719 C 481.90625 340.382812 484.902344 337.152344 488.75 334.4375 C 490.558594 333.128906 492.613281 331.820312 494.632812 330.8125 C 495.625 330.363281 496.535156 329.976562 497.332031 329.519531 C 500.136719 328.007812 502.675781 326.152344 504.960938 323.808594 C 510.34375 318.210938 515.484375 312.660156 520.339844 306.679688 C 522.601562 303.941406 524.535156 301.078125 526.441406 298.066406 C 527.496094 296.46875 528.296875 295.070312 529.832031 293.867188 C 531.070312 292.921875 532.027344 292.03125 532.894531 290.71875 C 534.160156 288.929688 535.195312 286.988281 536.230469 285.046875 C 530.261719 290.171875 525.304688 296.621094 520.445312 302.355469 C 512.59375 311.574219 504.886719 321.746094 494.851562 328.742188 Z M 539.820312 213.648438 C 538.207031 214.226562 536.644531 214.792969 535.019531 215.324219 C 524.058594 219 513.980469 223.628906 505.210938 231.253906 C 501.171875 234.699219 497.445312 238.476562 493.777344 242.289062 C 494.816406 241.089844 495.855469 239.886719 496.828125 238.601562 C 497.253906 238.023438 497.726562 237.429688 498.148438 236.851562 C 497.875 237.203125 497.554688 237.5625 497.28125 237.917969 C 496.648438 238.6875 495.863281 239.441406 495.230469 240.214844 C 494.671875 240.871094 494.230469 241.605469 493.613281 242.222656 C 493.160156 242.664062 492.363281 243.121094 492.414062 243.851562 C 492.394531 244.003906 492.519531 244.128906 492.652344 244.050781 C 493.355469 243.859375 493.894531 243.351562 494.652344 243.199219 C 495.449219 242.984375 496.054688 242.566406 496.578125 241.964844 C 497.851562 240.46875 499.355469 239.125 500.804688 237.738281 C 502.128906 236.480469 503.746094 235.703125 505.140625 234.53125 C 506.484375 233.367188 507.75 232.070312 509.417969 231.285156 L 509.457031 231.226562 C 510.59375 230.746094 511.597656 230.097656 512.589844 229.398438 C 513.746094 228.519531 514.941406 227.585938 516.015625 226.574219 C 516.3125 226.316406 516.605469 226.058594 516.898438 225.800781 C 517.03125 225.722656 517.152344 225.601562 517.285156 225.523438 L 517.625 225.257812 C 517.710938 225.1875 517.84375 225.113281 517.890625 225.101562 C 518.0625 224.96875 518.242188 224.882812 518.421875 224.796875 C 518.914062 224.546875 519.304688 224.269531 519.679688 223.945312 C 519.765625 223.878906 519.757812 223.832031 519.792969 223.773438 C 520.257812 223.628906 520.761719 223.429688 521.207031 223.191406 C 523.8125 221.914062 526.304688 220.320312 528.921875 219.09375 C 531.367188 218 533.945312 217.324219 536.421875 216.371094 C 539.027344 215.34375 541.046875 214.089844 542.878906 211.9375 C 543.152344 211.585938 543.265625 211.167969 543.207031 210.882812 C 542.8125 211.359375 542.347656 211.75 541.882812 212.140625 C 541.203125 212.675781 540.511719 213.164062 539.820312 213.648438 Z M 539.820312 213.648438 " fill-opacity="1" fill-rule="nonzero"/></g></g></g></g><g clip-path="url(#b013024d15)"><g clip-path="url(#0a1bdf38c4)"><g clip-path="url(#c886f57354)"><g clip-path="url(#22e0e0f863)"><path fill="#ea9dc2" d="M 344.574219 191.496094 C 343.589844 190.882812 342.386719 190.582031 341.359375 190.019531 C 339.226562 188.847656 337.320312 187.253906 335.792969 185.359375 C 334.925781 184.289062 334.179688 183.121094 333.582031 181.878906 C 333.496094 181.707031 333.417969 181.511719 333.480469 181.335938 C 333.570312 181.082031 333.886719 181.007812 334.15625 180.984375 C 334.449219 180.960938 334.742188 181.027344 335.035156 181.039062 C 334.972656 180.777344 334.871094 180.523438 334.863281 180.257812 C 334.851562 179.925781 334.917969 179.542969 335.203125 179.378906 C 335.34375 179.300781 335.527344 179.273438 335.734375 179.269531 C 335.738281 179.183594 335.710938 179.097656 335.722656 179.011719 C 335.738281 178.863281 335.773438 178.703125 335.882812 178.601562 C 336.007812 178.488281 336.191406 178.480469 336.359375 178.480469 C 338.984375 178.5 341.675781 178.964844 343.917969 180.335938 C 344.804688 180.878906 345.601562 181.574219 346.257812 182.382812 C 347.25 183.613281 347.90625 185.238281 348.285156 186.769531 C 348.566406 187.914062 347.742188 189.089844 346.671875 189.542969 C 346.671875 189.699219 346.707031 189.851562 346.691406 190.007812 C 346.589844 191.160156 345.738281 192.226562 344.574219 191.496094 Z M 482.695312 283.390625 C 482.691406 282.523438 482.617188 281.585938 482.488281 280.621094 C 482.132812 277.925781 481.367188 275.007812 480.558594 272.707031 C 479.402344 269.417969 477.335938 266.351562 474.359375 264.554688 C 478.4375 263.800781 482.421875 262.027344 484.667969 258.820312 C 486.074219 256.8125 486.992188 254.511719 487.894531 252.230469 C 488.925781 249.632812 489.582031 245.953125 486.117188 245.347656 C 485.261719 245.195312 484.328125 245.101562 483.351562 245.054688 C 480.640625 244.921875 477.628906 245.148438 475.21875 245.53125 C 473.273438 245.835938 471.351562 246.464844 469.617188 247.394531 C 470.085938 244.132812 469.8125 240.820312 468.253906 238.128906 C 467.023438 236.007812 465.320312 234.207031 463.632812 232.429688 C 461.707031 230.398438 458.648438 228.261719 456.636719 231.144531 C 456.140625 231.859375 455.660156 232.667969 455.207031 233.527344 C 453.941406 235.933594 452.882812 238.757812 452.214844 241.105469 C 451.554688 243.417969 451.351562 245.894531 451.707031 248.257812 C 449.390625 247.414062 446.980469 247.050781 444.664062 247.511719 C 442.257812 247.996094 440.003906 249.027344 437.777344 250.050781 C 435.234375 251.222656 432.222656 253.429688 434.308594 256.261719 C 434.824219 256.960938 435.433594 257.675781 436.105469 258.378906 C 437.976562 260.351562 440.3125 262.265625 442.316406 263.652344 C 444.035156 264.839844 445.980469 265.734375 448 266.238281 C 445.988281 268.113281 444.40625 270.335938 443.804688 272.882812 C 443.242188 275.269531 443.246094 277.746094 443.253906 280.199219 C 443.257812 282.996094 444.015625 286.652344 447.457031 285.933594 C 448.308594 285.757812 449.210938 285.496094 450.132812 285.179688 C 452.707031 284.300781 455.417969 282.972656 457.511719 281.722656 C 459.453125 280.570312 461.1875 279.03125 462.527344 277.226562 C 464.039062 280.320312 466.226562 283.039062 469.175781 284.390625 C 471.40625 285.414062 473.835938 285.902344 476.242188 286.378906 C 478.984375 286.925781 482.722656 286.90625 482.695312 283.390625 Z M 381.367188 371.214844 C 379.652344 369.464844 377.921875 367.691406 376.660156 365.589844 C 374.988281 362.808594 374.71875 359.328125 375.214844 355.921875 C 373.09375 356.65625 370.789062 356.949219 368.535156 356.808594 C 366.101562 356.65625 363.113281 356.21875 360.496094 355.5 C 359.554688 355.238281 358.664062 354.945312 357.859375 354.609375 C 354.613281 353.261719 356.050781 349.816406 357.625 347.503906 C 359.003906 345.476562 360.402344 343.429688 362.214844 341.773438 C 364.144531 340.011719 366.707031 339.066406 369.425781 338.65625 C 368.042969 337.097656 366.941406 335.261719 366.195312 333.3125 C 365.320312 331.035156 364.476562 328.140625 364.042969 325.457031 C 363.886719 324.496094 363.789062 323.5625 363.757812 322.691406 C 363.632812 319.179688 367.367188 319.054688 370.125 319.523438 C 372.542969 319.933594 374.984375 320.351562 377.242188 321.3125 C 379.414062 322.234375 381.203125 323.898438 382.636719 325.902344 C 383.675781 323.75 385.242188 321.820312 387.09375 320.28125 C 388.96875 318.722656 391.4375 316.988281 393.839844 315.714844 C 394.703125 315.257812 395.554688 314.863281 396.367188 314.554688 C 399.652344 313.304688 400.972656 316.800781 401.417969 319.5625 C 401.804688 321.980469 402.195312 324.429688 402.011719 326.875 C 401.78125 329.976562 400.136719 332.863281 397.910156 335.292969 C 399.867188 335.503906 401.804688 336.070312 403.585938 336.914062 C 405.789062 337.957031 408.402344 339.46875 410.566406 341.109375 C 411.34375 341.699219 412.0625 342.304688 412.683594 342.910156 C 415.199219 345.367188 412.585938 348.035156 410.265625 349.597656 C 408.234375 350.96875 406.175781 352.355469 403.878906 353.21875 C 400.21875 354.597656 395.929688 353.8125 392.136719 352.136719 C 393.578125 355.296875 393.550781 358.996094 392.648438 362.363281 C 392.019531 364.71875 391.003906 367.5625 389.777344 369.984375 C 389.335938 370.855469 388.871094 371.671875 388.382812 372.390625 C 386.417969 375.308594 383.324219 373.214844 381.367188 371.214844 Z M 381.367188 371.214844 " fill-opacity="1" fill-rule="nonzero"/></g></g></g></g><g clip-path="url(#be1f4b4a10)"><g clip-path="url(#60ababed6b)"><g clip-path="url(#fd29a8b74b)"><g clip-path="url(#d7f32730f4)"><path fill="#e56a6a" d="M 470.121094 273.011719 C 469.640625 273.101562 469.164062 272.859375 468.769531 272.570312 C 467.972656 271.976562 467.378906 271.15625 466.667969 270.464844 C 465.953125 269.773438 465.035156 269.183594 464.042969 269.242188 C 463.125 269.300781 462.335938 269.902344 461.699219 270.566406 C 461.0625 271.230469 460.511719 271.992188 459.757812 272.519531 C 459.007812 273.046875 457.96875 273.304688 457.171875 272.847656 C 456.15625 272.265625 456.003906 270.867188 456.175781 269.710938 C 456.34375 268.554688 456.714844 267.351562 456.320312 266.253906 C 455.96875 265.273438 455.074219 264.589844 454.167969 264.078125 C 453.261719 263.5625 452.277344 263.144531 451.523438 262.421875 C 451.078125 261.996094 450.710938 261.417969 450.75 260.800781 C 450.8125 259.863281 451.753906 259.246094 452.632812 258.914062 C 453.511719 258.578125 454.503906 258.320312 455.058594 257.5625 C 455.707031 256.671875 455.503906 255.449219 455.328125 254.359375 C 455.140625 253.183594 455.027344 251.925781 455.507812 250.835938 C 455.992188 249.742188 457.257812 248.910156 458.382812 249.300781 C 459.863281 249.816406 460.320312 252.019531 461.859375 252.316406 C 462.8125 252.5 463.804688 251.808594 464.730469 252.148438 C 465.710938 252.511719 465.734375 253.699219 466.433594 254.347656 C 466.980469 254.855469 467.660156 254.867188 468.371094 254.847656 C 469.640625 254.808594 470.816406 254.824219 472.023438 255.28125 C 472.582031 255.492188 473.171875 255.835938 473.308594 256.417969 C 473.449219 257.039062 473.003906 257.636719 472.542969 258.085938 C 471.851562 258.761719 471.0625 259.335938 470.402344 260.046875 C 469.746094 260.753906 469.207031 261.636719 469.167969 262.605469 C 469.125 263.628906 469.636719 264.578125 470.042969 265.515625 C 470.734375 267.109375 471.15625 268.816406 471.28125 270.546875 C 471.316406 271.046875 471.328125 271.558594 471.160156 272.03125 C 470.992188 272.5 470.613281 272.925781 470.121094 273.011719 Z M 387.292969 349.972656 C 388.558594 350.554688 390.128906 349.53125 390.527344 348.195312 C 390.8125 347.226562 390.640625 346.191406 390.582031 345.179688 C 390.445312 342.785156 391.585938 342.34375 393.257812 341.058594 C 395.601562 339.261719 392.984375 337.898438 391.464844 336.78125 C 390.308594 335.925781 389.203125 334.996094 388.660156 333.628906 C 388.128906 332.304688 387.246094 330.886719 385.753906 332.351562 C 385.210938 332.882812 384.894531 333.601562 384.441406 334.214844 C 383.988281 334.824219 383.292969 335.367188 382.539062 335.265625 C 381.851562 335.171875 381.351562 334.589844 380.742188 334.265625 C 379.457031 333.582031 377.644531 334.285156 377.160156 335.65625 C 376.769531 336.773438 377.082031 338.261719 376.121094 338.953125 C 375.527344 339.386719 374.667969 339.28125 374.050781 339.683594 C 373.21875 340.230469 373.179688 341.5 373.667969 342.367188 C 374.15625 343.234375 375.011719 343.820312 375.78125 344.449219 C 376.550781 345.078125 377.304688 345.863281 377.429688 346.851562 C 377.5 347.382812 377.375 347.921875 377.425781 348.453125 C 377.503906 349.308594 378.050781 350.105469 378.824219 350.480469 C 379.59375 350.859375 380.558594 350.808594 381.285156 350.347656 C 382.4375 349.613281 383.140625 347.914062 384.503906 348.027344 C 385.652344 348.121094 386.242188 349.496094 387.292969 349.972656 Z M 338.535156 111.035156 C 338.195312 110.019531 337.835938 108.96875 337.085938 108.203125 C 335.84375 106.929688 333.871094 106.761719 332.289062 105.941406 C 331.726562 105.652344 331.125 105.257812 330.511719 105.421875 C 330.050781 105.542969 329.722656 105.960938 329.574219 106.410156 C 329.425781 106.859375 329.433594 107.34375 329.441406 107.816406 C 329.453125 108.777344 329.46875 109.734375 329.484375 110.695312 C 329.492188 111.253906 329.503906 111.828125 329.710938 112.34375 C 329.921875 112.859375 330.375 113.316406 330.933594 113.363281 C 331.992188 113.449219 332.589844 112.164062 333.527344 111.664062 C 334.140625 111.335938 334.898438 111.371094 335.554688 111.597656 C 336.234375 111.832031 337.050781 112.75 337.757812 112.761719 C 338.789062 112.777344 338.777344 111.753906 338.535156 111.035156 Z M 338.535156 111.035156 " fill-opacity="1" fill-rule="nonzero"/></g></g></g></g></svg>