<svg xmlns="http://www.w3.org/2000/svg" xmlns:xlink="http://www.w3.org/1999/xlink" width="500" zoomAndPan="magnify" viewBox="0 0 375 374.999991" height="500" preserveAspectRatio="xMidYMid meet" version="1.0"><defs><clipPath id="6d1e780b3b"><path d="M 172 21.273438 L 375 21.273438 L 375 375 L 172 375 Z M 172 21.273438 " clip-rule="nonzero"/></clipPath></defs><g clip-path="url(#6d1e780b3b)"><path fill="#a47052" d="M 574.003906 415.855469 C 570.8125 413.832031 568.699219 409.921875 565.640625 407.535156 C 562.222656 404.882812 558.535156 402.589844 554.621094 400.613281 C 547.070312 396.746094 538.972656 394.003906 531.242188 390.359375 C 527.644531 388.695312 524.226562 386.71875 520.898438 384.515625 C 518.785156 382.128906 516.175781 380.015625 514.0625 377.8125 C 511.09375 374.667969 508.980469 370.621094 506.777344 366.886719 C 502.328125 359.421875 499.402344 350.878906 497.648438 342.335938 C 496.839844 338.421875 496.121094 334.375 496.167969 330.375 C 496.210938 325.15625 497.558594 320.03125 497.289062 314.859375 C 497.019531 309.238281 495.222656 303.707031 493.0625 298.582031 C 491.175781 294.085938 488.925781 287.027344 483.753906 285.632812 C 482.902344 285.40625 481.957031 285.453125 481.148438 285.8125 C 479.933594 286.261719 478.898438 287.25 478.628906 288.554688 C 477.503906 293.546875 481.910156 298.988281 483.621094 303.574219 C 485.644531 308.835938 487.082031 313.78125 486.769531 319.402344 C 486.5 324.574219 486.09375 329.476562 486.722656 334.644531 C 487.082031 337.570312 487.621094 340.402344 488.253906 343.28125 C 488.296875 343.640625 488.386719 344 488.476562 344.359375 C 485.867188 341.074219 482.945312 338.109375 479.886719 335.277344 C 472.648438 328.484375 465.140625 321.964844 458.933594 314.1875 C 452.773438 306.496094 446.882812 298.851562 440.046875 291.746094 C 433.480469 284.867188 426.917969 277.898438 419.8125 271.558594 C 412.617188 265.128906 404.390625 260.359375 396.160156 255.460938 C 387.839844 250.46875 380.554688 244.578125 373.453125 238.058594 C 370.078125 234.953125 366.4375 231.941406 363.425781 228.480469 C 360.367188 224.925781 358.65625 220.519531 356.542969 216.382812 C 354.609375 212.652344 352.046875 209.683594 349.214844 206.582031 C 346.066406 203.164062 344.71875 199.386719 343.007812 195.160156 C 339.863281 187.378906 332.757812 182.613281 326.820312 177.171875 C 320.121094 171.058594 313.824219 164.625 305.957031 159.949219 C 302.269531 157.746094 298.355469 155.859375 294.445312 154.058594 C 290.351562 152.214844 286.035156 150.550781 282.527344 147.628906 C 276.097656 142.277344 272.589844 135.351562 269.261719 127.84375 C 265.53125 119.480469 261.035156 112.105469 254.648438 105.496094 C 248.578125 99.246094 241.699219 93.847656 235.671875 87.554688 C 224.433594 75.773438 215.976562 58.414062 219.621094 41.867188 C 220.113281 39.617188 220.835938 37.28125 220.429688 35.03125 C 220.070312 32.828125 218.179688 30.535156 215.886719 30.894531 C 215.796875 35.617188 218.136719 42.09375 211.707031 43.351562 C 206.941406 44.296875 198.980469 41.910156 195.203125 39.035156 C 191.742188 36.335938 188.90625 32.875 185.984375 29.589844 C 183.195312 26.445312 179.464844 21.945312 175.011719 21.316406 C 174.160156 21.183594 173.4375 21.496094 173.078125 22.082031 C 172.628906 22.621094 172.539062 23.296875 172.898438 24.015625 C 173.980469 26.039062 175.867188 27.882812 177.304688 29.636719 C 178.789062 31.523438 180.363281 33.277344 181.894531 35.121094 C 184.996094 38.945312 188.144531 42.675781 192.144531 45.597656 C 196.371094 48.65625 201.140625 48.972656 206.039062 50.1875 C 208.0625 50.679688 210.355469 52.03125 212.695312 52.929688 C 212.652344 55.042969 212.921875 57.109375 213.371094 59.3125 C 215.078125 67.679688 218.542969 76.132812 223.261719 83.238281 C 232.210938 96.773438 247.003906 104.957031 256.132812 118.265625 C 260.585938 124.785156 264.226562 132.070312 268.050781 138.996094 C 272.140625 146.371094 276.90625 152.574219 283.652344 157.613281 C 287.25 160.308594 291.34375 162.199219 295.300781 164.222656 C 299.75 166.515625 303.976562 169.167969 308.070312 172.136719 C 309.105469 172.855469 310.09375 173.621094 311.128906 174.429688 C 314.320312 176.8125 317.421875 179.332031 320.4375 181.894531 C 323.132812 184.1875 325.742188 186.480469 328.351562 188.773438 C 331.316406 191.382812 332.847656 193.898438 334.195312 197.585938 C 335.949219 202.308594 337.296875 206.941406 340.582031 210.898438 C 343.277344 214.136719 346.382812 216.699219 348.449219 220.476562 C 350.5625 224.386719 352.226562 228.523438 354.835938 232.121094 C 355.644531 233.246094 356.542969 234.324219 357.445312 235.359375 C 356.902344 235.042969 356.363281 234.683594 355.824219 234.414062 C 355.824219 234.371094 355.78125 234.371094 355.78125 234.371094 C 352.585938 232.390625 349.257812 230.59375 345.753906 229.019531 C 341.433594 227.128906 337.207031 225.734375 332.441406 225.78125 C 327.898438 225.871094 323.492188 227.175781 318.996094 227.445312 C 310.046875 228.074219 302.898438 222.949219 294.714844 220.386719 C 290.578125 219.082031 285.855469 218.855469 282.214844 216.203125 C 278.390625 213.460938 276.324219 209.097656 271.601562 207.703125 C 270.296875 207.300781 269.082031 209.144531 270.207031 210.085938 C 272.816406 212.246094 274.390625 215.257812 276.457031 217.820312 C 276.457031 217.820312 276.503906 217.867188 276.546875 217.867188 C 276.953125 218.363281 277.359375 218.902344 277.851562 219.351562 C 280.550781 222.003906 283.699219 223.488281 287.339844 224.433594 C 291.523438 225.554688 295.480469 226.769531 299.4375 228.613281 C 302.945312 230.234375 306.449219 231.988281 310.226562 232.976562 C 314.636719 234.101562 319.085938 234.144531 323.539062 233.964844 C 327.855469 233.785156 332.128906 233.246094 336.308594 234.414062 C 341.164062 235.765625 345.707031 238.507812 350.070312 240.933594 C 354.519531 243.363281 358.882812 245.972656 363.199219 248.578125 C 369 252.132812 375.429688 254.378906 381.679688 256.941406 C 387.839844 261.304688 394.316406 265.082031 400.703125 269.175781 C 409.019531 274.433594 415.945312 280.910156 422.824219 287.878906 C 429.796875 294.851562 436.855469 301.953125 442.789062 309.824219 C 448.769531 317.738281 454.167969 325.699219 461.316406 332.667969 C 468.015625 339.144531 476.5625 345.078125 481.550781 352.992188 C 484.113281 356.996094 485.824219 361.445312 487.9375 365.671875 C 490.183594 370.078125 492.929688 374.082031 496.167969 377.769531 C 502.550781 385.007812 510.914062 391.484375 519.277344 396.296875 C 527.597656 401.0625 536.726562 404.074219 545.359375 408.078125 C 549.855469 410.144531 554.308594 412.4375 558.265625 415.363281 C 562.132812 418.238281 564.472656 422.601562 568.5625 425.121094 C 572.566406 427.59375 576.296875 424.21875 576.523438 420.621094 C 576.65625 418.867188 575.9375 417.070312 574.003906 415.855469 Z M 574.003906 415.855469 " fill-opacity="1" fill-rule="nonzero"/></g><path fill="#7f4c38" d="M 283.652344 157.613281 C 287.25 160.308594 291.34375 162.199219 295.300781 164.222656 C 299.75 166.515625 303.976562 169.167969 308.070312 172.136719 C 309.105469 172.855469 310.09375 173.621094 311.128906 174.429688 C 312.433594 175.148438 313.691406 175.867188 314.949219 176.675781 C 317.152344 178.070312 318.90625 179.871094 320.4375 181.894531 C 323.132812 184.1875 325.742188 186.480469 328.351562 188.773438 C 331.316406 191.382812 332.847656 193.898438 334.195312 197.585938 C 335.949219 202.308594 337.296875 206.941406 340.582031 210.898438 C 343.277344 214.136719 346.382812 216.699219 348.449219 220.476562 C 350.5625 224.386719 352.226562 228.523438 354.835938 232.121094 C 355.644531 233.246094 356.542969 234.324219 357.445312 235.359375 C 356.902344 235.042969 356.363281 234.683594 355.824219 234.414062 L 356.5 235.089844 C 358.34375 236.796875 360.589844 237.789062 362.792969 238.910156 C 362.875 238.957031 362.953125 238.941406 363.035156 238.957031 C 363.183594 239.074219 363.296875 239.238281 363.453125 239.34375 C 364.691406 240.199219 366.058594 240.84375 367.429688 241.453125 C 368.988281 242.144531 370.511719 242.933594 371.898438 243.9375 C 372.421875 244.3125 373.078125 243.460938 372.589844 243.039062 C 371.371094 241.984375 369.996094 241.167969 368.683594 240.242188 C 367.445312 239.367188 366.234375 238.445312 364.984375 237.589844 C 363.851562 236.816406 363.15625 235.660156 362.335938 234.589844 C 361.820312 233.90625 361.234375 233.28125 360.683594 232.628906 C 360.078125 231.910156 359.550781 231.109375 358.824219 230.511719 C 358.722656 230.433594 358.617188 230.441406 358.519531 230.460938 C 358.21875 229.539062 357.933594 228.617188 357.539062 227.71875 C 356.394531 225.132812 354.925781 222.667969 353.363281 220.316406 C 351.832031 218.007812 350.113281 215.851562 348.503906 213.605469 C 347.515625 212.226562 346.367188 210.785156 345.433594 209.273438 C 345.078125 208.125 344.671875 206.996094 344.132812 205.90625 C 342.066406 201.769531 338.871094 197.902344 335.90625 194.304688 C 330.957031 188.367188 327.675781 181.039062 321.875 175.777344 C 321.117188 175.089844 320.324219 174.453125 319.507812 173.84375 C 318.765625 172.832031 317.972656 171.867188 317.238281 171.015625 C 314.914062 168.324219 311.902344 165.996094 308.847656 164.183594 C 307.289062 163.257812 305.675781 162.398438 303.988281 161.726562 C 302.066406 160.960938 300.074219 160.414062 298.210938 159.484375 C 296.445312 158.597656 294.871094 157.402344 293.195312 156.363281 C 291.472656 155.292969 289.6875 154.332031 287.984375 153.238281 C 287.582031 152.980469 287.074219 153.605469 287.460938 153.914062 C 288.769531 154.953125 290.136719 155.90625 291.496094 156.875 C 293.054688 157.988281 294.378906 159.394531 295.96875 160.457031 C 299.015625 162.496094 302.648438 163.371094 305.859375 165.089844 C 308.347656 166.421875 310.570312 168.097656 312.8125 169.773438 C 308.125 167.382812 303.125 165.476562 298.535156 163.140625 C 293.726562 160.667969 289.363281 157.523438 284.867188 154.597656 C 282.617188 153.113281 280.054688 151.855469 278.167969 149.878906 C 276.953125 148.617188 275.964844 147.222656 274.929688 145.785156 C 273.492188 143.085938 272.1875 140.34375 270.566406 137.734375 C 268.679688 134.769531 266.609375 131.9375 264.765625 128.921875 C 260.808594 122.539062 257.347656 115.925781 253.253906 109.675781 C 253.199219 109.59375 253.132812 109.527344 253.078125 109.441406 C 254.90625 111.667969 256.636719 113.972656 258.144531 116.40625 C 259.230469 118.160156 260.070312 120.054688 261.203125 121.777344 C 261.6875 122.515625 262.136719 123.308594 262.707031 123.988281 C 263.335938 124.742188 264.097656 125.304688 264.546875 126.207031 C 264.683594 126.484375 265.136719 126.292969 265.042969 126 C 264.5625 124.46875 263.238281 123.203125 262.441406 121.8125 C 261.402344 120 260.683594 118.074219 259.765625 116.199219 C 257.84375 112.253906 255.007812 109.121094 252.132812 105.84375 C 250.761719 104.28125 249.265625 102.785156 247.835938 101.265625 C 246.476562 99.816406 245.199219 98.074219 243.601562 96.890625 C 241.632812 95.433594 239.785156 93.785156 238.023438 92.082031 C 236.382812 90.5 234.578125 89.039062 233.027344 87.367188 C 232.800781 87.117188 232.375 87.441406 232.558594 87.726562 C 233.644531 89.40625 235.128906 90.667969 236.523438 92.085938 C 238.152344 93.742188 239.808594 95.425781 241.570312 96.949219 C 243.167969 98.324219 244.527344 99.699219 245.925781 101.285156 C 246.496094 101.929688 247.066406 102.550781 247.625 103.191406 C 245.503906 101.234375 243.230469 99.425781 240.980469 97.445312 C 238.730469 95.46875 236.933594 93.175781 234.773438 91.195312 C 232.96875 89.597656 231.0625 88.171875 229.285156 86.582031 C 228.484375 85.539062 227.644531 84.511719 226.882812 83.457031 C 225.746094 81.875 224.59375 80.324219 223.429688 78.769531 C 222.339844 77.3125 221.59375 75.632812 220.664062 74.074219 C 220.277344 73.421875 219.910156 72.765625 219.53125 72.117188 C 219.558594 72.078125 219.582031 72.03125 219.554688 71.960938 C 218.847656 69.859375 217.789062 67.898438 217.164062 65.742188 C 216.484375 63.410156 216.859375 61.070312 216.492188 58.699219 C 216.101562 56.191406 215.046875 53.878906 214.984375 51.316406 C 214.925781 48.886719 214.890625 46.828125 213.800781 44.59375 C 213.601562 44.183594 212.902344 44.378906 212.933594 44.828125 C 213.011719 46.019531 213.347656 47.179688 213.378906 48.371094 C 213.398438 48.941406 213.359375 49.503906 213.328125 50.070312 C 210.835938 47.25 206.277344 46.292969 202.800781 44.835938 C 200.414062 43.847656 198.101562 42.855469 195.832031 41.820312 C 195.441406 41.308594 194.921875 40.886719 194.421875 40.492188 C 193.726562 39.949219 193.007812 39.433594 192.277344 38.941406 C 190.820312 37.957031 189.382812 36.929688 188.117188 35.710938 C 185.375 33.078125 183.074219 29.972656 181.15625 26.703125 C 180.875 26.226562 180.203125 26.644531 180.425781 27.128906 C 182.046875 30.613281 184.210938 33.988281 186.847656 36.800781 C 186.921875 36.882812 187.011719 36.945312 187.089844 37.023438 C 185.699219 36.074219 184.332031 35.070312 183.015625 33.90625 C 180.453125 31.660156 178.070312 29.277344 175.957031 26.578125 C 174.878906 25.183594 174.070312 23.566406 173.078125 22.082031 C 172.628906 22.621094 172.539062 23.296875 172.898438 24.015625 C 173.980469 26.039062 175.867188 27.882812 177.304688 29.636719 C 178.789062 31.523438 180.363281 33.277344 181.894531 35.121094 C 184.996094 38.945312 188.144531 42.675781 192.144531 45.597656 C 196.371094 48.65625 201.140625 48.972656 206.039062 50.1875 C 208.0625 50.679688 210.355469 52.03125 212.695312 52.929688 C 212.652344 55.042969 212.921875 57.109375 213.371094 59.3125 C 215.078125 67.679688 218.542969 76.132812 223.261719 83.238281 C 232.210938 96.773438 247.003906 104.957031 256.132812 118.265625 C 260.585938 124.785156 264.226562 132.070312 268.050781 138.996094 C 272.140625 146.371094 276.90625 152.574219 283.652344 157.613281 Z M 351.4375 220.863281 C 351.988281 221.707031 352.433594 222.609375 352.945312 223.472656 C 351.410156 221.976562 349.847656 220.5 348.71875 218.585938 C 347.785156 217.019531 347.214844 215.320312 346.703125 213.59375 C 348.175781 216.09375 349.855469 218.433594 351.4375 220.863281 Z M 576.523438 420.621094 C 576.296875 424.21875 572.566406 427.59375 568.5625 425.117188 C 564.472656 422.601562 562.132812 418.238281 558.265625 415.359375 C 554.308594 412.4375 549.855469 410.144531 545.359375 408.078125 C 536.726562 404.074219 527.597656 401.0625 519.277344 396.296875 C 510.914062 391.484375 502.550781 385.007812 496.167969 377.769531 C 492.929688 374.082031 490.183594 370.078125 487.9375 365.671875 C 485.824219 361.445312 484.113281 356.996094 481.550781 352.992188 C 476.5625 345.078125 468.015625 339.144531 461.316406 332.667969 C 454.167969 325.699219 448.769531 317.738281 442.789062 309.824219 C 436.855469 301.953125 429.796875 294.851562 422.824219 287.878906 C 415.945312 280.910156 409.019531 274.433594 400.703125 269.175781 C 394.316406 265.082031 387.839844 261.304688 381.679688 256.941406 C 375.429688 254.378906 369 252.132812 363.199219 248.578125 C 358.882812 245.972656 354.519531 243.363281 350.070312 240.933594 C 345.707031 238.507812 341.164062 235.765625 336.308594 234.414062 C 332.128906 233.246094 327.855469 233.785156 323.539062 233.964844 C 319.085938 234.144531 314.636719 234.101562 310.226562 232.976562 C 306.449219 231.988281 302.945312 230.234375 299.4375 228.613281 C 295.480469 226.769531 291.523438 225.554688 287.339844 224.433594 C 283.699219 223.488281 280.550781 222.003906 277.851562 219.351562 C 277.359375 218.902344 276.953125 218.363281 276.546875 217.867188 C 277.539062 218.8125 278.480469 219.84375 279.515625 220.699219 C 281.585938 222.410156 284.28125 222.679688 286.890625 222.949219 C 289.363281 223.171875 291.792969 223.488281 294.308594 223.894531 C 296.648438 224.253906 299.03125 224.386719 301.234375 225.464844 C 303.484375 226.546875 305.328125 228.164062 307.710938 228.972656 C 310.984375 230.078125 314.519531 230.28125 318.019531 230.332031 C 320.414062 229.972656 322.808594 229.765625 325.25 229.671875 C 328.34375 229.550781 331.363281 229.238281 334.457031 229.632812 C 337.515625 230.019531 340.1875 231.140625 343.070312 232.140625 C 344.785156 232.738281 346.558594 233.1875 348.238281 233.886719 C 349.917969 234.582031 351.519531 235.425781 353.226562 236.058594 C 353.75 236.253906 353.539062 237.078125 352.996094 236.90625 C 349.761719 235.882812 346.628906 234.570312 343.394531 233.53125 C 340.316406 232.542969 337.554688 231.457031 334.332031 231.238281 C 334.933594 231.367188 335.539062 231.457031 336.128906 231.625 C 340.671875 232.929688 343.910156 236.167969 348.136719 237.921875 C 353.035156 239.945312 358.117188 241.429688 363.019531 243.632812 C 367.695312 245.746094 372.507812 247.410156 377.363281 249.253906 C 381.609375 250.894531 384.875 253.039062 388.21875 255.988281 C 388.65625 256.171875 389.09375 256.355469 389.523438 256.5625 C 390.933594 257.230469 392.1875 258.078125 393.496094 258.917969 C 394.824219 259.773438 396.261719 260.484375 397.515625 261.457031 C 398.746094 262.40625 399.941406 263.433594 401.101562 264.46875 C 403.339844 266.457031 405.84375 268.191406 407.988281 270.277344 C 408.464844 270.738281 407.761719 271.421875 407.269531 270.996094 C 404.863281 268.910156 401.953125 267.320312 399.371094 265.441406 C 398.957031 265.140625 398.511719 264.898438 398.085938 264.621094 C 398.285156 264.804688 398.472656 265 398.679688 265.171875 C 402.90625 268.90625 407.804688 272.050781 412.304688 275.515625 C 416.214844 278.480469 420.171875 281.316406 424.039062 284.328125 C 427.863281 287.339844 431.414062 290.667969 435.144531 293.816406 C 442.789062 300.292969 447.601562 308.925781 453.988281 316.523438 C 457.269531 320.4375 460.6875 324.214844 463.835938 328.214844 C 466.804688 332.039062 469.277344 336.265625 472.46875 339.953125 C 473.816406 341.527344 475.347656 342.964844 476.875 344.449219 C 477.59375 344.796875 478.328125 345.136719 479.058594 345.5 C 478.457031 344.582031 477.863281 343.664062 477.273438 342.761719 C 475.882812 340.648438 474.617188 338.554688 473.027344 336.578125 C 471.894531 335.164062 470.894531 333.769531 470.238281 332.066406 C 470.113281 331.746094 470.625 331.546875 470.785156 331.835938 C 471.945312 333.945312 473.640625 335.308594 475.402344 336.875 C 477.125 338.410156 478.835938 340.105469 480.332031 341.859375 C 483.308594 345.355469 485.695312 349.28125 488.800781 352.675781 C 491.855469 356.019531 494.484375 359.710938 496.761719 363.628906 C 497.898438 365.585938 499.1875 367.414062 500.367188 369.34375 C 501.535156 371.25 503.382812 372.363281 504.710938 374.09375 C 504.933594 374.382812 504.519531 374.683594 504.253906 374.550781 C 500.300781 372.554688 497.8125 368.816406 495.339844 365.28125 C 493.875 363.179688 492.371094 361.003906 490.648438 359.109375 C 490.054688 358.453125 489.398438 357.867188 488.75 357.273438 C 490.742188 362.382812 492.714844 366.726562 496.390625 370.890625 C 497.921875 372.644531 499.492188 374.398438 500.84375 376.332031 C 502.101562 378.128906 503 380.0625 504.441406 381.726562 C 507.496094 385.367188 511.816406 387.347656 516.222656 389.101562 C 521.394531 391.167969 526.519531 393.371094 531.644531 395.664062 C 536.589844 397.871094 541.628906 399.847656 546.527344 402.1875 C 549.949219 403.769531 552.824219 405.796875 555.550781 408.148438 C 554.695312 407.167969 553.84375 406.191406 552.863281 405.320312 C 550.285156 403.035156 547.316406 401.222656 544.410156 399.394531 C 543.996094 399.136719 544.269531 398.378906 544.753906 398.574219 C 547.761719 399.808594 550.8125 401.015625 553.578125 402.753906 C 556.3125 404.46875 558.496094 406.699219 560.445312 409.257812 C 562.40625 411.824219 563.808594 414.859375 566.433594 416.859375 C 568.953125 418.785156 572.429688 418.753906 574.839844 420.746094 C 574.859375 420.761719 574.859375 420.792969 574.878906 420.8125 C 575.425781 420.753906 575.976562 420.707031 576.523438 420.621094 Z M 483.621094 303.574219 C 481.910156 298.988281 477.503906 293.546875 478.628906 288.554688 C 478.898438 287.25 479.933594 286.261719 481.148438 285.8125 C 481.777344 287.96875 482.902344 290.21875 483.710938 292.152344 C 484.835938 294.984375 485.777344 297.90625 486.949219 300.742188 C 489.332031 306.316406 491.9375 311.578125 491.265625 317.785156 C 490.90625 320.886719 490.277344 323.945312 490.410156 327.046875 C 490.546875 329.835938 491.265625 332.441406 491.625 335.183594 C 491.984375 338.109375 492.253906 340.894531 493.289062 343.730469 C 493.699219 344.878906 494.074219 346.066406 494.378906 347.269531 C 494.867188 348.242188 495.375 349.207031 495.785156 350.210938 C 496.871094 352.863281 497.222656 355.90625 499.011719 358.238281 C 499.457031 358.816406 498.546875 359.351562 498.074219 358.960938 C 496.90625 358.003906 496.109375 356.742188 495.421875 355.421875 C 494.753906 354.148438 494.34375 352.789062 493.761719 351.484375 C 491.160156 349.132812 489.484375 346.316406 488.253906 343.28125 C 487.621094 340.402344 487.082031 337.570312 486.722656 334.644531 C 486.09375 329.476562 486.5 324.574219 486.769531 319.402344 C 487.082031 313.78125 485.644531 308.835938 483.621094 303.574219 Z M 483.621094 303.574219 " fill-opacity="1" fill-rule="nonzero"/></svg>