<svg xmlns="http://www.w3.org/2000/svg" xmlns:xlink="http://www.w3.org/1999/xlink" width="500" zoomAndPan="magnify" viewBox="0 0 375 374.999991" height="500" preserveAspectRatio="xMidYMid meet" version="1.0"><path fill="#232e13" d="M 464.726562 319.871094 C 428.738281 283.9375 402.976562 242.832031 388.132812 197.667969 C 376.230469 161.457031 371.328125 122.726562 373.570312 82.316406 C 377.210938 13.527344 400.453125 -36.667969 400.734375 -37.226562 L 404.9375 -35.269531 C 404.65625 -34.710938 381.832031 14.785156 378.191406 82.738281 C 374.828125 145.238281 387.851562 236.539062 468.085938 316.65625 Z M 464.726562 319.871094 " fill-opacity="1" fill-rule="nonzero"/><path fill="#232e13" d="M 407.875 244.089844 C 375.25 191.9375 329.882812 168.445312 297.675781 157.960938 C 262.527344 146.632812 234.800781 147.613281 234.523438 147.613281 L 234.382812 143 C 235.503906 143 263.089844 141.878906 298.933594 153.484375 C 331.980469 164.113281 378.46875 188.160156 411.9375 241.570312 Z M 407.875 244.089844 " fill-opacity="1" fill-rule="nonzero"/><path fill="#232e13" d="M 291.511719 156.003906 C 244.042969 136.148438 232.5625 92.804688 232.140625 90.988281 L 236.621094 89.867188 C 236.761719 90.289062 248.105469 132.792969 293.332031 151.808594 Z M 291.511719 156.003906 " fill-opacity="1" fill-rule="nonzero"/><path fill="#232e13" d="M 274.992188 185.226562 L 271.070312 182.707031 C 271.769531 181.730469 287.734375 157.679688 332.402344 167.46875 L 331.421875 171.941406 C 290.113281 162.992188 275.550781 184.386719 274.992188 185.226562 Z M 274.992188 185.226562 " fill-opacity="1" fill-rule="nonzero"/><path fill="#639e23" d="M 219.679688 172.921875 C 220.519531 172.640625 221.359375 172.222656 222.058594 171.941406 C 222.898438 171.523438 223.601562 171.101562 224.300781 170.542969 C 225 169.984375 225.699219 169.566406 226.402344 168.867188 C 227.101562 168.304688 227.660156 167.605469 228.363281 166.910156 C 229.621094 165.648438 230.742188 163.972656 232.003906 162.574219 C 233.121094 161.035156 234.242188 159.359375 235.363281 157.960938 C 236.484375 156.421875 237.464844 154.882812 238.304688 153.484375 C 239.285156 152.085938 239.984375 150.828125 240.683594 149.710938 C 242.085938 147.472656 242.925781 145.933594 242.925781 145.933594 C 242.925781 145.933594 242.503906 144.398438 241.242188 142.019531 C 240.683594 140.761719 239.84375 139.363281 238.863281 137.964844 C 237.882812 136.425781 236.621094 135.03125 235.082031 133.351562 C 233.542969 131.8125 231.722656 130.414062 229.621094 129.015625 C 227.519531 127.617188 225.140625 126.640625 222.621094 125.800781 C 221.359375 125.382812 219.960938 125.101562 218.558594 124.824219 C 217.160156 124.683594 215.617188 124.402344 214.21875 124.402344 C 212.679688 124.402344 211.136719 124.542969 209.597656 124.683594 C 208.058594 124.824219 206.378906 125.382812 204.835938 125.800781 C 198.394531 127.898438 192.515625 132.09375 188.035156 137.125 C 183.550781 142.300781 180.472656 148.171875 178.652344 153.625 C 177.8125 156.421875 177.113281 158.9375 176.691406 161.316406 C 176.269531 163.691406 176.132812 165.789062 176.132812 167.46875 C 175.992188 170.964844 176.269531 173.058594 176.269531 173.058594 C 176.269531 173.058594 178.371094 172.921875 181.730469 172.78125 C 183.414062 172.640625 185.371094 172.78125 187.472656 172.640625 C 189.574219 172.640625 191.953125 172.78125 194.195312 172.78125 C 198.957031 173.058594 203.714844 173.480469 208.199219 173.621094 C 212.398438 174.039062 216.320312 174.039062 219.679688 172.921875 Z M 219.679688 172.921875 " fill-opacity="1" fill-rule="nonzero"/><path fill="#8fc53f" d="M 194.894531 162.992188 C 194.894531 162.992188 195.316406 162.714844 195.875 162.292969 C 196.574219 161.875 197.554688 161.316406 198.816406 160.757812 C 201.335938 159.636719 204.976562 158.796875 208.757812 159.359375 C 208.757812 159.359375 208.335938 159.496094 207.496094 159.777344 C 206.65625 160.058594 205.535156 160.335938 204.136719 160.757812 C 202.875 161.175781 201.195312 161.59375 199.65625 162.015625 C 198.117188 162.433594 196.433594 162.714844 194.894531 162.992188 Z M 194.894531 162.992188 " fill-opacity="1" fill-rule="nonzero"/><path fill="#8fc53f" d="M 197.695312 131.675781 C 197.695312 131.675781 197.976562 131.535156 198.394531 131.253906 C 198.816406 130.976562 199.375 130.695312 200.214844 130.277344 C 201.054688 129.855469 201.894531 129.4375 203.015625 129.015625 C 204.136719 128.597656 205.398438 128.179688 206.796875 127.898438 C 212.257812 126.5 219.679688 125.941406 225.980469 129.015625 C 225.980469 129.015625 225.140625 128.878906 223.460938 128.597656 C 221.921875 128.316406 219.679688 128.179688 216.878906 128.179688 C 211.417969 128.179688 204.277344 129.015625 197.695312 131.675781 Z M 197.695312 131.675781 " fill-opacity="1" fill-rule="nonzero"/><path fill="#8fc53f" d="M 196.15625 168.304688 C 196.15625 168.304688 197.695312 168.027344 199.515625 167.609375 C 200.496094 167.46875 201.476562 167.1875 202.457031 166.910156 C 203.4375 166.628906 204.417969 166.347656 205.257812 165.929688 C 205.257812 165.929688 204.558594 165.929688 203.15625 166.210938 C 201.757812 166.488281 199.375 166.910156 196.15625 168.304688 Z M 196.15625 168.304688 " fill-opacity="1" fill-rule="nonzero"/><path fill="#8fc53f" d="M 183.414062 157.679688 C 183.414062 157.679688 183.691406 157.261719 184.113281 156.5625 C 184.53125 155.863281 185.234375 154.882812 186.074219 153.765625 C 186.914062 152.648438 187.894531 151.527344 189.015625 150.410156 C 190.132812 149.429688 191.253906 148.453125 192.515625 147.613281 C 192.515625 147.613281 191.953125 148.3125 190.554688 149.988281 C 189.855469 150.6875 188.875 151.808594 187.753906 153.066406 C 187.191406 153.625 186.492188 154.324219 185.792969 155.164062 C 184.953125 155.863281 184.253906 156.703125 183.414062 157.679688 Z M 183.414062 157.679688 " fill-opacity="1" fill-rule="nonzero"/><path fill="#8fc53f" d="M 199.515625 140.0625 C 199.515625 140.0625 199.796875 139.921875 200.074219 139.644531 C 200.496094 139.363281 201.054688 138.945312 201.617188 138.664062 C 202.875 137.964844 204.695312 137.40625 206.238281 137.40625 C 206.238281 137.40625 205.816406 137.6875 204.835938 138.105469 C 204.277344 138.386719 203.578125 138.664062 202.738281 138.945312 C 202.316406 139.085938 201.757812 139.222656 201.335938 139.363281 C 200.777344 139.644531 200.074219 139.921875 199.515625 140.0625 Z M 199.515625 140.0625 " fill-opacity="1" fill-rule="nonzero"/><path fill="#8fc53f" d="M 194.335938 165.929688 C 194.335938 165.929688 194.054688 165.929688 193.773438 166.070312 C 193.355469 166.210938 192.933594 166.210938 192.234375 166.347656 C 190.972656 166.488281 189.433594 166.488281 188.035156 166.070312 C 188.035156 166.070312 188.453125 165.929688 189.433594 165.789062 C 190.414062 165.789062 191.953125 165.648438 194.335938 165.929688 Z M 194.335938 165.929688 " fill-opacity="1" fill-rule="nonzero"/><path fill="#8fc53f" d="M 215.339844 161.175781 C 215.339844 161.175781 216.039062 160.617188 217.019531 160.195312 C 218 159.777344 219.257812 159.359375 220.519531 159.636719 C 220.519531 159.636719 220.238281 159.917969 219.398438 160.058594 C 218.558594 160.335938 217.300781 160.757812 215.339844 161.175781 Z M 215.339844 161.175781 " fill-opacity="1" fill-rule="nonzero"/><path fill="#8fc53f" d="M 190.835938 154.183594 C 190.835938 154.183594 190.972656 154.046875 191.113281 153.90625 C 191.394531 153.765625 191.675781 153.484375 192.09375 153.207031 C 192.933594 152.648438 194.054688 151.808594 195.453125 150.96875 C 196.855469 150.128906 198.394531 149.292969 200.074219 148.59375 C 201.757812 147.894531 203.4375 147.332031 204.976562 146.914062 C 204.976562 146.914062 204.695312 147.054688 204.277344 147.332031 C 203.714844 147.613281 203.015625 148.03125 201.894531 148.59375 C 201.335938 148.871094 200.636719 149.152344 199.9375 149.570312 C 199.234375 149.988281 198.394531 150.410156 197.554688 150.828125 C 195.453125 151.527344 193.355469 152.785156 190.835938 154.183594 Z M 190.835938 154.183594 " fill-opacity="1" fill-rule="nonzero"/><path fill="#8fc53f" d="M 242.925781 145.933594 C 242.925781 145.933594 242.222656 147.332031 240.964844 149.292969 C 239.703125 151.386719 238.023438 154.046875 236.0625 156.980469 C 231.722656 163.132812 228.363281 166.628906 224.859375 168.726562 C 221.5 170.824219 218 171.242188 214.359375 171.242188 C 210.859375 171.242188 207.355469 170.683594 204.558594 170.125 C 203.15625 169.84375 202.035156 169.703125 201.195312 169.425781 C 200.355469 169.285156 199.9375 169.144531 199.9375 169.144531 C 201.757812 169.285156 203.578125 169.566406 204.976562 169.566406 C 206.515625 169.566406 207.777344 169.703125 208.898438 169.566406 C 210.019531 169.425781 211.136719 169.425781 211.976562 169.144531 C 212.398438 169.003906 212.816406 168.867188 213.238281 168.867188 C 213.660156 168.726562 214.078125 168.585938 214.359375 168.445312 C 215.757812 167.886719 216.738281 167.1875 217.578125 166.628906 C 218.28125 166.070312 218.839844 165.511719 218.980469 165.230469 C 217.859375 165.371094 216.878906 165.511719 216.039062 165.648438 C 215.199219 165.789062 214.359375 165.929688 213.660156 165.929688 C 212.257812 165.929688 211.136719 165.929688 210.296875 165.929688 C 208.617188 165.789062 208.058594 165.230469 208.058594 165.230469 C 212.957031 164.390625 216.597656 163.832031 219.398438 162.714844 C 220.800781 162.292969 221.921875 161.59375 223.039062 161.035156 C 224.019531 160.476562 224.859375 159.777344 225.699219 159.078125 C 227.101562 157.820312 228.082031 156.421875 228.640625 155.441406 C 229.203125 154.464844 229.339844 153.625 229.339844 153.625 C 225.839844 156.5625 221.640625 156.980469 218 157.121094 C 216.179688 157.121094 214.5 157.121094 213.238281 156.980469 C 211.976562 156.839844 211.277344 156.703125 211.277344 156.703125 C 215.617188 155.164062 219.257812 152.785156 222.058594 150.828125 C 223.460938 149.851562 224.582031 148.871094 225.28125 148.3125 C 226.121094 147.613281 226.539062 147.332031 226.539062 147.332031 C 225.839844 147.613281 225 147.894531 224.160156 148.03125 C 223.320312 148.3125 222.480469 148.59375 221.640625 148.730469 C 219.820312 149.152344 218 149.710938 216.039062 150.128906 C 212.257812 151.109375 208.199219 151.949219 204.417969 153.066406 C 203.4375 153.347656 202.597656 153.625 201.757812 153.765625 C 200.917969 154.046875 200.074219 154.324219 199.234375 154.605469 C 197.554688 155.023438 196.15625 155.582031 195.035156 156.003906 C 193.773438 156.421875 192.792969 156.703125 192.234375 156.980469 C 191.535156 157.261719 191.253906 157.402344 191.253906 157.402344 L 192.792969 156.5625 L 194.335938 155.722656 C 195.316406 155.164062 196.433594 154.605469 197.414062 154.042969 C 199.515625 152.925781 201.476562 151.808594 203.578125 150.96875 C 205.535156 149.988281 207.636719 149.152344 209.457031 148.3125 C 211.417969 147.472656 213.238281 146.773438 214.917969 146.074219 C 216.597656 145.515625 218.28125 144.816406 219.679688 144.398438 C 221.078125 143.976562 222.339844 143.558594 223.460938 143.140625 C 225.5625 142.578125 226.820312 142.160156 226.820312 142.160156 C 225.421875 142.300781 224.019531 142.300781 222.761719 142.441406 L 218.699219 142.859375 L 214.636719 143.558594 C 213.238281 143.839844 211.976562 144.117188 210.578125 144.539062 C 215.480469 142.300781 220.800781 140.621094 226.121094 139.363281 C 225.28125 139.085938 224.441406 138.945312 223.460938 138.804688 C 222.621094 138.664062 221.640625 138.664062 220.800781 138.664062 C 219.960938 138.664062 218.980469 138.664062 218.140625 138.664062 C 217.300781 138.664062 216.320312 138.804688 215.480469 138.945312 C 214.636719 139.085938 213.660156 139.222656 212.816406 139.363281 C 211.976562 139.503906 211.136719 139.785156 210.296875 140.0625 C 209.457031 140.34375 208.617188 140.621094 207.917969 140.902344 C 207.078125 141.179688 206.378906 141.460938 205.675781 141.878906 C 202.738281 143.140625 200.496094 144.539062 198.816406 145.65625 C 197.273438 146.773438 196.296875 147.472656 196.296875 147.472656 C 197.976562 145.65625 200.074219 143.976562 202.457031 142.441406 C 204.835938 140.902344 207.355469 139.503906 209.738281 138.523438 C 212.117188 137.40625 214.21875 136.707031 215.757812 136.289062 C 217.300781 135.730469 218.28125 135.589844 218.28125 135.589844 C 216.320312 134.890625 214.21875 134.75 212.117188 134.890625 C 210.019531 134.890625 207.917969 135.308594 205.957031 135.867188 C 203.996094 136.566406 202.035156 137.265625 200.355469 138.246094 C 198.675781 139.222656 196.996094 140.34375 195.59375 141.460938 C 194.195312 142.578125 192.933594 143.699219 191.8125 144.816406 C 190.695312 145.933594 189.855469 147.054688 189.152344 147.894531 C 188.453125 148.730469 187.894531 149.570312 187.613281 150.128906 C 187.332031 150.6875 187.054688 150.96875 187.054688 150.96875 C 187.054688 150.96875 187.191406 150.6875 187.472656 150.128906 C 187.753906 149.570312 188.035156 148.730469 188.59375 147.753906 C 189.152344 146.773438 189.855469 145.65625 190.695312 144.257812 C 191.535156 143 192.65625 141.601562 193.914062 140.203125 C 196.433594 137.40625 199.9375 134.75 204.136719 132.652344 C 206.238281 131.671875 208.476562 130.835938 210.859375 130.277344 C 213.238281 129.855469 215.757812 129.4375 218.28125 129.714844 C 219.679688 129.855469 221.078125 129.996094 222.339844 130.136719 C 223.601562 130.414062 224.859375 130.695312 225.980469 130.976562 C 226.539062 131.113281 227.101562 131.253906 227.660156 131.394531 C 228.222656 131.535156 228.78125 131.8125 229.203125 131.953125 C 230.183594 132.371094 231.160156 132.792969 232.003906 133.210938 C 233.824219 134.050781 235.222656 135.167969 236.484375 136.148438 C 237.742188 137.125 238.722656 138.105469 239.5625 139.085938 C 240.824219 141.042969 241.664062 142.71875 242.085938 143.976562 C 242.644531 145.238281 242.925781 145.933594 242.925781 145.933594 Z M 242.925781 145.933594 " fill-opacity="1" fill-rule="nonzero"/><path fill="#232e13" d="M 376.511719 149.011719 C 365.027344 90.847656 308.457031 55.191406 307.898438 54.914062 L 309.996094 50.71875 C 310.558594 50.996094 368.949219 86.652344 380.992188 148.03125 Z M 376.511719 149.011719 " fill-opacity="1" fill-rule="nonzero"/><path fill="#639e23" d="M 213.796875 71.972656 C 213.9375 73.507812 214.21875 75.046875 214.5 76.585938 C 214.917969 77.984375 215.199219 79.382812 215.757812 80.78125 C 216.179688 82.039062 216.738281 83.296875 217.300781 84.554688 C 217.859375 85.671875 218.417969 86.792969 219.121094 87.910156 C 220.378906 90.007812 221.78125 91.824219 223.320312 93.363281 C 224.71875 94.902344 226.121094 96.160156 227.660156 97.136719 C 229.0625 98.117188 230.460938 98.957031 231.722656 99.65625 C 232.980469 100.355469 234.101562 100.773438 235.082031 101.054688 C 236.902344 101.753906 238.023438 101.890625 238.023438 101.890625 C 238.023438 101.890625 238.582031 100.773438 239.285156 98.957031 C 239.5625 97.976562 239.984375 97 240.402344 95.742188 C 240.824219 94.480469 241.242188 93.082031 241.664062 91.546875 C 241.945312 90.007812 242.503906 88.328125 242.785156 86.652344 C 243.0625 84.972656 243.484375 83.15625 243.625 81.199219 C 243.765625 80.21875 243.765625 79.242188 243.90625 78.261719 C 244.042969 77.285156 243.90625 76.304688 244.042969 75.1875 C 244.042969 74.207031 244.042969 73.089844 243.90625 71.972656 C 243.765625 70.851562 243.765625 69.734375 243.625 68.617188 C 243.0625 64 242.085938 59.246094 240.964844 54.492188 C 239.84375 49.738281 238.722656 44.984375 237.882812 40.511719 C 237.464844 38.273438 237.042969 36.175781 236.761719 34.359375 C 236.484375 32.402344 236.0625 30.722656 235.921875 29.324219 C 235.503906 26.390625 235.222656 24.570312 235.222656 24.570312 C 235.222656 24.570312 233.824219 25.691406 231.582031 27.648438 C 230.460938 28.628906 229.203125 30.023438 227.800781 31.5625 C 226.402344 33.101562 225 35.058594 223.460938 37.15625 C 220.660156 41.492188 217.859375 46.804688 216.039062 52.816406 C 213.9375 58.96875 213.097656 65.679688 213.796875 71.972656 Z M 213.796875 71.972656 " fill-opacity="1" fill-rule="nonzero"/><path fill="#8fc53f" d="M 226.121094 46.382812 C 226.121094 46.382812 225.980469 46.941406 225.980469 47.78125 C 225.839844 48.761719 225.699219 50.019531 225.421875 51.558594 C 224.859375 54.632812 224.300781 58.828125 223.179688 62.882812 C 223.179688 62.882812 223.179688 62.183594 223.179688 61.203125 C 223.179688 60.085938 223.320312 58.6875 223.460938 57.011719 C 223.742188 55.332031 223.878906 53.375 224.441406 51.558594 C 224.859375 49.878906 225.421875 47.921875 226.121094 46.382812 Z M 226.121094 46.382812 " fill-opacity="1" fill-rule="nonzero"/><path fill="#8fc53f" d="M 241.105469 62.882812 C 241.105469 62.882812 241.105469 63.023438 241.242188 63.441406 C 241.242188 63.722656 241.382812 64.28125 241.523438 64.839844 C 241.664062 65.398438 241.664062 66.238281 241.804688 67.078125 C 241.945312 67.917969 242.085938 68.894531 242.085938 69.875 C 242.503906 73.929688 242.785156 78.960938 241.945312 83.996094 C 241.945312 83.996094 241.945312 83.296875 241.804688 82.039062 C 241.664062 80.917969 241.664062 79.101562 241.523438 77.144531 C 241.382812 73.089844 241.242188 67.917969 241.105469 62.882812 Z M 241.105469 62.882812 " fill-opacity="1" fill-rule="nonzero"/><path fill="#8fc53f" d="M 223.460938 43.585938 C 223.460938 43.585938 222.761719 45.265625 222.058594 47.503906 C 221.78125 48.621094 221.359375 50.019531 221.078125 51.417969 C 220.800781 52.816406 220.660156 54.214844 220.519531 55.472656 C 220.519531 55.472656 220.660156 54.632812 221.078125 52.816406 C 221.640625 50.859375 222.199219 47.921875 223.460938 43.585938 Z M 223.460938 43.585938 " fill-opacity="1" fill-rule="nonzero"/><path fill="#8fc53f" d="M 233.683594 41.210938 C 233.683594 41.210938 233.824219 43.027344 233.824219 45.40625 C 233.960938 46.664062 233.960938 47.921875 233.960938 49.320312 C 233.960938 50.71875 234.101562 52.117188 233.960938 53.234375 C 233.960938 53.234375 233.824219 52.535156 233.683594 50.578125 C 233.542969 49.601562 233.542969 48.339844 233.542969 46.804688 C 233.542969 45.964844 233.542969 45.125 233.542969 44.148438 C 233.542969 43.308594 233.683594 42.328125 233.683594 41.210938 Z M 233.683594 41.210938 " fill-opacity="1" fill-rule="nonzero"/><path fill="#8fc53f" d="M 235.921875 61.765625 C 235.921875 61.765625 235.921875 62.042969 236.0625 62.324219 C 236.0625 62.742188 236.203125 63.164062 236.203125 63.863281 C 236.34375 65.121094 236.484375 66.519531 236.203125 67.777344 C 236.203125 67.777344 236.0625 67.355469 235.921875 66.378906 C 235.921875 65.957031 235.78125 65.257812 235.78125 64.558594 C 235.78125 64.140625 235.78125 63.722656 235.78125 63.300781 C 235.921875 62.882812 235.921875 62.324219 235.921875 61.765625 Z M 235.921875 61.765625 " fill-opacity="1" fill-rule="nonzero"/><path fill="#8fc53f" d="M 225.140625 43.585938 C 225.140625 43.585938 225.28125 43.308594 225.421875 42.886719 C 225.5625 42.46875 225.839844 41.910156 226.121094 41.351562 C 226.679688 40.230469 227.519531 38.832031 228.5 38.132812 C 228.5 38.132812 228.363281 38.554688 227.800781 39.394531 C 227.382812 40.371094 226.539062 41.769531 225.140625 43.585938 Z M 225.140625 43.585938 " fill-opacity="1" fill-rule="nonzero"/><path fill="#8fc53f" d="M 221.359375 70.433594 C 221.359375 70.433594 221.640625 71.410156 221.921875 72.949219 C 222.199219 74.347656 222.480469 76.164062 222.339844 77.5625 C 222.339844 77.5625 222.199219 77.144531 221.921875 76.027344 C 221.640625 74.90625 221.5 73.089844 221.359375 70.433594 Z M 221.359375 70.433594 " fill-opacity="1" fill-rule="nonzero"/><path fill="#8fc53f" d="M 231.582031 48.621094 C 231.582031 48.621094 231.582031 48.761719 231.582031 49.039062 C 231.582031 49.320312 231.582031 49.738281 231.582031 50.160156 C 231.582031 51.136719 231.441406 52.535156 231.441406 53.933594 C 231.441406 55.472656 231.300781 57.148438 231.300781 58.96875 C 231.300781 60.644531 231.160156 62.464844 231.160156 64 C 231.160156 64 231.160156 63.722656 231.023438 63.164062 C 231.023438 62.601562 230.882812 61.765625 230.882812 60.503906 C 230.882812 59.945312 230.882812 59.246094 230.882812 58.410156 C 230.882812 57.570312 231.023438 56.730469 231.023438 55.75 C 230.882812 53.792969 231.160156 51.417969 231.582031 48.621094 Z M 231.582031 48.621094 " fill-opacity="1" fill-rule="nonzero"/><path fill="#8fc53f" d="M 238.023438 101.890625 C 238.023438 101.890625 237.042969 101.753906 235.363281 101.191406 C 233.683594 100.632812 231.300781 99.65625 228.640625 97.835938 C 223.039062 93.78125 219.121094 88.050781 217.160156 82.039062 C 215.058594 76.027344 214.777344 69.734375 215.339844 64.421875 C 216.039062 59.109375 217.4375 54.632812 218.839844 51.558594 C 219.539062 50.019531 220.101562 48.902344 220.519531 48.0625 C 220.941406 47.222656 221.21875 46.804688 221.21875 46.804688 C 217.300781 54.632812 216.738281 61.34375 216.878906 65.957031 C 217.019531 68.335938 217.300781 70.152344 217.71875 71.410156 C 218.140625 72.808594 218.417969 73.648438 218.558594 73.929688 C 218.417969 72.25 218.417969 70.851562 218.28125 69.59375 C 218.28125 68.335938 218.28125 67.21875 218.417969 66.238281 C 218.558594 64.28125 218.839844 62.882812 218.980469 61.902344 C 219.398438 59.945312 219.820312 59.527344 219.820312 59.527344 C 218.839844 66.097656 219.398438 71.550781 220.101562 75.605469 C 220.519531 77.703125 220.941406 79.382812 221.5 80.917969 C 222.058594 82.457031 222.621094 83.714844 223.179688 84.695312 C 224.300781 86.652344 225.5625 87.910156 226.261719 88.46875 C 227.101562 89.167969 227.519531 89.308594 227.519531 89.308594 C 224.71875 85.394531 223.460938 79.660156 223.460938 75.046875 C 223.320312 72.808594 223.601562 70.710938 223.742188 69.3125 C 223.878906 67.917969 224.160156 67.078125 224.160156 67.078125 C 224.582031 72.671875 226.261719 77.425781 227.800781 80.640625 C 228.640625 82.316406 229.339844 83.574219 229.902344 84.414062 C 230.460938 85.253906 230.882812 85.671875 230.882812 85.671875 C 230.601562 84.835938 230.183594 84.136719 229.902344 83.15625 C 229.621094 82.316406 229.339844 81.339844 229.0625 80.359375 C 228.5 78.402344 228.222656 76.304688 227.800781 74.207031 C 227.242188 69.875 227.101562 65.398438 227.382812 61.34375 C 227.519531 60.367188 227.519531 59.386719 227.660156 58.410156 C 227.800781 57.429688 227.941406 56.589844 228.082031 55.613281 C 228.222656 53.933594 228.640625 52.394531 228.921875 50.996094 C 229.203125 49.738281 229.339844 48.621094 229.621094 47.921875 C 229.761719 47.222656 229.902344 46.804688 229.902344 46.804688 L 229.339844 50.4375 C 229.203125 51.695312 229.0625 52.816406 228.921875 54.074219 C 228.78125 56.449219 228.640625 58.828125 228.78125 61.203125 C 228.78125 63.582031 229.0625 65.679688 229.339844 67.917969 C 229.621094 70.011719 230.042969 71.972656 230.320312 73.789062 C 230.742188 75.605469 231.160156 77.285156 231.582031 78.683594 C 232.003906 80.082031 232.421875 81.339844 232.703125 82.457031 C 233.402344 84.554688 233.960938 85.671875 233.960938 85.671875 C 233.683594 84.414062 233.261719 83.015625 233.121094 81.757812 L 232.421875 77.84375 L 232.140625 73.789062 C 232.003906 72.53125 231.863281 71.132812 231.863281 69.734375 C 232.703125 74.90625 234.101562 79.800781 235.921875 84.695312 C 235.644531 78.542969 234.664062 71.550781 234.101562 65.957031 C 233.683594 63.164062 233.542969 60.785156 233.402344 58.96875 C 233.261719 57.289062 233.121094 56.171875 233.121094 56.171875 C 233.542969 58.269531 233.960938 60.644531 234.242188 63.164062 C 234.664062 65.539062 235.082031 68.054688 235.503906 70.152344 C 235.921875 72.390625 236.34375 74.207031 236.621094 75.605469 C 236.902344 77.003906 237.183594 77.84375 237.183594 77.84375 C 237.464844 76.164062 237.601562 74.488281 237.601562 72.808594 C 237.601562 71.132812 237.601562 69.453125 237.464844 67.777344 C 237.464844 66.097656 237.183594 64.421875 237.042969 62.882812 C 236.902344 61.203125 236.621094 59.667969 236.484375 58.269531 C 236.34375 56.730469 236.0625 55.332031 235.921875 54.074219 C 235.78125 52.816406 235.644531 51.695312 235.363281 50.71875 C 235.222656 49.738281 235.082031 49.039062 234.941406 48.480469 C 234.800781 47.921875 234.800781 47.640625 234.800781 47.640625 C 234.800781 47.640625 235.082031 48.761719 235.644531 50.4375 C 235.921875 51.277344 236.203125 52.394531 236.484375 53.515625 C 236.761719 54.632812 237.183594 56.03125 237.464844 57.429688 C 238.863281 63.164062 240.402344 70.292969 240.683594 77.984375 C 240.824219 86.792969 240.683594 92.804688 239.984375 96.71875 C 239.003906 99.933594 238.023438 101.890625 238.023438 101.890625 Z M 238.023438 101.890625 " fill-opacity="1" fill-rule="nonzero"/><path fill="#639e23" d="M 277.230469 205.777344 C 279.191406 202.5625 279.890625 199.625 280.03125 196.96875 C 280.171875 194.3125 279.890625 191.796875 279.609375 189.558594 C 279.332031 187.183594 279.050781 185.085938 278.910156 183.40625 C 278.769531 181.730469 278.632812 180.75 278.632812 180.75 C 278.632812 180.75 277.789062 180.191406 276.109375 179.773438 C 274.429688 179.351562 272.050781 178.933594 269.109375 179.210938 C 266.167969 179.492188 262.808594 180.609375 259.726562 182.566406 C 256.648438 184.527344 253.984375 187.183594 252.027344 190.257812 C 248.105469 196.691406 246.984375 205.777344 247.40625 213.1875 C 247.546875 216.824219 248.105469 220.039062 248.664062 222.277344 C 249.226562 224.515625 249.644531 225.773438 249.644531 225.773438 C 249.644531 225.773438 250.90625 225.214844 252.867188 224.09375 C 254.828125 222.976562 257.628906 221.578125 260.566406 219.898438 C 266.449219 216.40625 273.308594 212.070312 277.230469 205.777344 Z M 277.230469 205.777344 " fill-opacity="1" fill-rule="nonzero"/><path fill="#8fc53f" d="M 259.027344 213.046875 C 259.027344 213.046875 259.585938 211.789062 260.847656 210.113281 C 262.109375 208.433594 263.929688 206.335938 266.308594 204.800781 C 266.308594 204.800781 265.328125 206.199219 264.066406 207.875 C 262.527344 209.554688 260.707031 211.652344 259.027344 213.046875 Z M 259.027344 213.046875 " fill-opacity="1" fill-rule="nonzero"/><path fill="#8fc53f" d="M 251.046875 195.292969 C 251.046875 195.292969 251.886719 193.054688 253.707031 190.398438 C 254.546875 189.140625 255.808594 187.601562 257.207031 186.0625 C 258.746094 184.664062 260.566406 183.128906 262.667969 182.148438 C 262.667969 182.148438 262.109375 182.566406 261.269531 183.265625 C 260.425781 183.964844 259.308594 184.945312 258.1875 186.203125 C 255.808594 188.71875 253.144531 191.796875 251.046875 195.292969 Z M 251.046875 195.292969 " fill-opacity="1" fill-rule="nonzero"/><path fill="#8fc53f" d="M 260.847656 215.984375 C 260.847656 215.984375 261.6875 215.285156 262.808594 214.167969 C 263.929688 213.046875 265.1875 211.652344 266.027344 210.390625 C 266.027344 210.390625 265.609375 210.671875 264.769531 211.511719 C 263.929688 212.351562 262.667969 213.746094 260.847656 215.984375 Z M 260.847656 215.984375 " fill-opacity="1" fill-rule="nonzero"/><path fill="#8fc53f" d="M 251.046875 213.886719 C 251.046875 213.886719 251.1875 212.488281 251.605469 210.8125 C 252.027344 208.992188 252.585938 206.898438 253.566406 205.21875 C 253.566406 205.21875 253.425781 205.777344 253.144531 207.175781 C 252.726562 208.574219 252.027344 210.8125 251.046875 213.886719 Z M 251.046875 213.886719 " fill-opacity="1" fill-rule="nonzero"/><path fill="#8fc53f" d="M 254.828125 198.789062 C 254.828125 198.789062 255.667969 196.128906 257.207031 194.871094 C 257.207031 194.871094 256.785156 195.992188 254.828125 198.789062 Z M 254.828125 198.789062 " fill-opacity="1" fill-rule="nonzero"/><path fill="#8fc53f" d="M 259.308594 215.285156 C 259.308594 215.285156 257.347656 217.242188 255.527344 217.664062 C 255.527344 217.523438 256.367188 216.683594 259.308594 215.285156 Z M 259.308594 215.285156 " fill-opacity="1" fill-rule="nonzero"/><path fill="#8fc53f" d="M 270.507812 202.144531 C 270.507812 202.144531 271.351562 199.484375 272.890625 198.367188 C 272.890625 198.367188 272.609375 199.484375 270.507812 202.144531 Z M 270.507812 202.144531 " fill-opacity="1" fill-rule="nonzero"/><path fill="#8fc53f" d="M 254.40625 209.414062 C 254.40625 209.414062 255.105469 207.875 256.085938 205.917969 C 257.066406 203.960938 258.46875 201.722656 259.867188 200.046875 C 259.867188 200.046875 259.585938 200.746094 258.746094 202.144531 C 257.90625 203.679688 256.507812 206.058594 254.40625 209.414062 Z M 254.40625 209.414062 " fill-opacity="1" fill-rule="nonzero"/><path fill="#8fc53f" d="M 278.632812 180.75 C 278.632812 180.75 278.769531 181.730469 278.910156 183.128906 C 279.050781 184.664062 279.332031 186.621094 279.609375 188.71875 C 280.171875 193.335938 280.171875 196.691406 278.910156 199.90625 C 278.351562 201.445312 277.511719 203.121094 276.53125 204.519531 C 275.550781 205.917969 274.429688 207.316406 273.171875 208.292969 C 270.929688 210.53125 268.410156 212.070312 266.589844 213.1875 C 264.769531 214.308594 263.507812 214.726562 263.507812 214.726562 C 268.410156 211.789062 271.070312 208.992188 272.46875 206.617188 C 273.871094 204.238281 274.148438 202.421875 274.289062 202.003906 C 271.910156 205.21875 270.230469 206.757812 269.25 207.597656 C 268.128906 208.433594 267.707031 208.433594 267.707031 208.433594 C 270.507812 205.359375 272.46875 202.703125 273.589844 200.464844 C 274.851562 198.226562 275.269531 196.410156 275.550781 195.011719 C 275.691406 193.613281 275.550781 192.496094 275.410156 191.796875 C 275.269531 191.097656 274.992188 190.675781 274.992188 190.675781 C 274.570312 193.753906 272.609375 196.410156 270.648438 198.648438 C 268.6875 200.746094 266.730469 202.144531 266.730469 202.144531 C 268.6875 199.066406 269.53125 195.851562 270.089844 193.472656 C 270.648438 191.097656 270.789062 189.558594 270.789062 189.558594 C 268.828125 193.613281 265.1875 199.066406 261.6875 203.402344 C 258.328125 207.734375 255.386719 211.230469 255.386719 211.230469 C 258.886719 205.636719 262.246094 199.625 264.488281 195.011719 C 265.609375 192.773438 266.589844 190.675781 267.429688 189.417969 C 268.128906 188.019531 268.550781 187.183594 268.550781 187.183594 C 266.027344 190.257812 263.789062 193.335938 261.6875 196.410156 C 263.367188 193.195312 264.910156 189.839844 267.007812 186.484375 C 265.046875 187.882812 263.226562 189.839844 261.828125 191.65625 C 260.425781 193.613281 259.167969 195.570312 258.1875 197.390625 C 256.226562 201.023438 255.246094 203.960938 255.246094 203.960938 C 255.945312 200.882812 257.488281 197.109375 258.886719 194.171875 C 260.289062 191.238281 261.6875 189 261.6875 189 C 259.308594 190.398438 257.628906 192.355469 256.226562 194.453125 C 254.828125 196.550781 253.707031 198.925781 253.007812 201.023438 C 251.464844 205.359375 251.1875 208.992188 251.1875 208.992188 C 251.1875 208.992188 250.90625 205.5 251.746094 200.882812 C 252.164062 198.648438 252.867188 196.128906 254.125 193.613281 C 255.246094 191.097656 256.785156 188.71875 259.308594 186.484375 C 262.109375 183.828125 264.910156 182.007812 267.429688 180.890625 C 269.949219 179.773438 272.191406 179.351562 274.011719 179.351562 C 275.550781 179.632812 276.671875 179.910156 277.371094 180.332031 C 278.210938 180.472656 278.632812 180.75 278.632812 180.75 Z M 278.632812 180.75 " fill-opacity="1" fill-rule="nonzero"/><path fill="#639e23" d="M 281.570312 138.386719 C 283.53125 143.558594 286.472656 147.894531 289.691406 151.25 C 292.914062 154.605469 296.554688 156.703125 299.636719 157.960938 C 302.855469 159.21875 305.515625 159.636719 307.476562 159.777344 C 309.4375 159.917969 310.558594 159.777344 310.558594 159.777344 C 310.558594 159.777344 310.835938 158.660156 310.976562 156.839844 C 311.257812 155.023438 311.539062 152.507812 311.816406 149.570312 C 312.097656 146.632812 312.238281 143.417969 311.957031 139.785156 C 311.675781 136.289062 310.976562 132.371094 309.4375 128.039062 C 306.078125 119.230469 299.773438 110.421875 294.3125 103.570312 C 291.652344 100.074219 289.132812 97.136719 287.3125 94.902344 C 285.492188 92.804688 284.371094 91.546875 284.371094 91.546875 C 284.371094 91.546875 283.671875 93.082031 282.832031 95.742188 C 281.851562 98.398438 280.730469 102.3125 279.890625 106.785156 C 278.070312 116.015625 277.652344 128.039062 281.570312 138.386719 Z M 281.570312 138.386719 " fill-opacity="1" fill-rule="nonzero"/><path fill="#8fc53f" d="M 286.050781 113.078125 C 286.050781 113.078125 286.613281 114.894531 287.171875 117.832031 C 287.734375 120.628906 288.433594 124.402344 288.433594 128.316406 C 288.433594 128.316406 287.734375 126.082031 287.171875 123.144531 C 286.613281 119.929688 285.914062 116.152344 286.050781 113.078125 Z M 286.050781 113.078125 " fill-opacity="1" fill-rule="nonzero"/><path fill="#8fc53f" d="M 305.65625 123.003906 C 305.65625 123.003906 307.054688 125.800781 308.316406 129.578125 C 309.578125 133.351562 310.835938 138.105469 310.976562 142.71875 C 310.976562 142.71875 310.277344 140.203125 309.4375 136.566406 C 308.457031 132.792969 307.195312 127.898438 305.65625 123.003906 Z M 305.65625 123.003906 " fill-opacity="1" fill-rule="nonzero"/><path fill="#8fc53f" d="M 282.550781 111.820312 C 282.550781 111.820312 282.550781 113.496094 282.691406 115.59375 C 282.832031 117.691406 283.253906 120.488281 283.8125 122.585938 C 283.8125 122.585938 283.8125 121.886719 283.53125 120.207031 C 283.390625 118.390625 283.113281 115.734375 282.550781 111.820312 Z M 282.550781 111.820312 " fill-opacity="1" fill-rule="nonzero"/><path fill="#8fc53f" d="M 290.953125 105.667969 C 290.953125 105.667969 291.792969 107.207031 292.773438 109.300781 C 293.753906 111.398438 295.015625 114.054688 295.855469 116.292969 C 295.855469 116.292969 295.433594 115.59375 294.59375 114.054688 C 293.753906 112.238281 292.492188 109.722656 290.953125 105.667969 Z M 290.953125 105.667969 " fill-opacity="1" fill-rule="nonzero"/><path fill="#8fc53f" d="M 300.335938 123.285156 C 300.335938 123.285156 302.15625 126.5 302.296875 128.878906 C 302.296875 129.015625 301.457031 127.617188 300.335938 123.285156 Z M 300.335938 123.285156 " fill-opacity="1" fill-rule="nonzero"/><path fill="#8fc53f" d="M 284.230469 111.121094 C 284.230469 111.121094 284.09375 107.34375 285.074219 105.246094 C 285.074219 105.246094 285.074219 106.925781 284.230469 111.121094 Z M 284.230469 111.121094 " fill-opacity="1" fill-rule="nonzero"/><path fill="#8fc53f" d="M 288.433594 135.167969 C 288.433594 135.167969 290.394531 138.523438 290.8125 141.179688 C 290.8125 141.179688 290.535156 140.761719 290.113281 139.921875 C 289.691406 138.945312 288.992188 137.40625 288.433594 135.167969 Z M 288.433594 135.167969 " fill-opacity="1" fill-rule="nonzero"/><path fill="#8fc53f" d="M 291.933594 112.9375 C 291.933594 112.9375 292.632812 115.035156 293.613281 117.832031 C 294.453125 120.628906 295.574219 124.125 296.273438 126.921875 C 296.273438 126.921875 295.855469 126.082031 295.152344 123.84375 C 294.3125 121.605469 293.195312 118.113281 291.933594 112.9375 Z M 291.933594 112.9375 " fill-opacity="1" fill-rule="nonzero"/><path fill="#8fc53f" d="M 310.417969 159.777344 C 310.417969 159.777344 309.4375 159.917969 307.757812 159.917969 C 306.078125 159.777344 303.554688 159.496094 300.617188 158.519531 C 294.3125 156.140625 289.554688 151.386719 286.613281 146.355469 C 283.53125 141.320312 281.992188 136.148438 281.292969 131.535156 C 280.589844 126.921875 280.730469 122.863281 281.011719 119.929688 C 281.292969 116.992188 281.710938 115.175781 281.710938 115.175781 C 280.871094 123.003906 281.851562 128.738281 283.253906 132.511719 C 284.511719 136.289062 286.191406 138.386719 286.613281 138.945312 C 284.792969 133.351562 284.511719 130.277344 284.371094 128.316406 C 284.371094 126.5 284.652344 126.082031 284.652344 126.082031 C 286.613281 137.6875 290.394531 144.257812 293.332031 147.332031 C 294.875 148.871094 296.132812 149.710938 296.976562 150.128906 C 297.816406 150.550781 298.375 150.550781 298.375 150.550781 C 294.875 147.472656 292.773438 142.578125 291.792969 138.523438 C 290.8125 134.46875 290.671875 131.394531 290.671875 131.394531 C 292.355469 136.148438 294.875 140.0625 296.976562 142.71875 C 299.074219 145.375 300.753906 146.632812 300.753906 146.632812 C 298.933594 144.117188 297.253906 140.621094 295.855469 136.847656 C 294.453125 133.070312 293.332031 129.015625 292.492188 125.382812 C 290.671875 117.972656 290.113281 111.960938 290.113281 111.960938 C 292.074219 120.769531 295.433594 129.578125 298.375 135.867188 C 299.914062 139.085938 301.316406 141.601562 302.296875 143.277344 C 303.414062 144.957031 303.976562 145.933594 303.976562 145.933594 C 301.734375 141.460938 300.054688 136.707031 298.515625 131.953125 C 300.476562 136.425781 302.714844 140.761719 305.234375 144.816406 C 303.976562 139.222656 301.59375 132.933594 299.636719 127.898438 C 297.675781 122.863281 295.855469 119.230469 295.855469 119.230469 C 297.953125 122.726562 300.195312 127.617188 302.015625 131.394531 C 303.835938 135.167969 305.234375 138.105469 305.234375 138.105469 C 305.097656 134.890625 304.394531 131.671875 303.414062 128.597656 C 302.4375 125.523438 301.035156 122.445312 299.773438 119.789062 C 297.113281 114.476562 294.59375 110.699219 294.59375 110.699219 C 294.59375 110.699219 297.394531 113.777344 300.617188 118.671875 C 302.15625 121.046875 303.835938 123.984375 305.375 127.199219 C 306.777344 130.414062 308.035156 133.769531 308.878906 137.265625 C 309.855469 141.320312 310.417969 144.675781 310.835938 147.472656 C 311.257812 150.269531 311.398438 152.648438 311.539062 154.464844 C 311.398438 156.003906 311.117188 157.261719 310.976562 158.238281 C 310.558594 159.359375 310.417969 159.777344 310.417969 159.777344 Z M 310.417969 159.777344 " fill-opacity="1" fill-rule="nonzero"/><path fill="#36441a" d="M 361.105469 54.074219 C 360.546875 59.386719 359.425781 64.140625 357.886719 68.476562 C 356.347656 72.671875 354.527344 76.445312 352.707031 79.382812 C 350.886719 82.316406 349.066406 84.695312 347.664062 86.234375 C 346.265625 87.769531 345.425781 88.46875 345.425781 88.46875 C 345.425781 88.46875 344.445312 87.769531 343.042969 86.234375 C 341.644531 84.695312 339.683594 82.597656 337.863281 79.519531 C 336.042969 76.445312 334.082031 72.671875 332.820312 67.917969 C 331.5625 63.164062 330.859375 57.429688 331.5625 50.859375 C 332.261719 44.285156 334.503906 37.4375 337.582031 31.421875 C 339.121094 28.347656 340.941406 25.550781 342.902344 23.035156 C 344.863281 20.515625 346.824219 18.140625 348.925781 16.183594 C 352.984375 12.269531 357.046875 9.613281 359.988281 8.074219 C 361.386719 7.234375 362.648438 6.816406 363.488281 6.394531 C 364.328125 6.117188 364.746094 5.835938 364.746094 5.835938 C 364.746094 5.835938 364.609375 6.257812 364.46875 7.09375 C 364.328125 7.933594 364.046875 9.191406 363.769531 10.730469 C 363.207031 13.804688 362.648438 18 362.367188 22.753906 C 362.226562 25.132812 362.085938 27.648438 362.085938 30.164062 C 362.085938 32.683594 362.085938 35.339844 361.949219 37.996094 C 361.667969 43.449219 361.667969 48.761719 361.105469 54.074219 Z M 361.105469 54.074219 " fill-opacity="1" fill-rule="nonzero"/><path fill="#466d21" d="M 354.804688 28.488281 C 354.804688 28.488281 353.964844 30.445312 353.265625 33.660156 C 352.566406 36.738281 352.003906 41.070312 352.425781 45.265625 C 352.425781 45.265625 352.84375 42.75 353.265625 39.394531 C 353.6875 36.175781 354.386719 31.984375 354.804688 28.488281 Z M 354.804688 28.488281 " fill-opacity="1" fill-rule="nonzero"/><path fill="#466d21" d="M 334.640625 42.75 C 334.640625 42.75 333.523438 46.804688 333.101562 52.394531 C 332.679688 57.988281 332.960938 64.980469 335.203125 70.851562 C 335.203125 70.851562 334.5 67.355469 334.082031 62.183594 C 333.523438 56.871094 333.382812 49.878906 334.640625 42.75 Z M 334.640625 42.75 " fill-opacity="1" fill-rule="nonzero"/><path fill="#466d21" d="M 358.445312 27.507812 C 358.445312 27.507812 358.167969 29.1875 357.746094 31.421875 C 357.328125 33.660156 356.90625 36.457031 356.484375 38.832031 C 356.484375 38.832031 356.484375 38.132812 356.625 36.316406 C 356.90625 34.359375 357.328125 31.5625 358.445312 27.507812 Z M 358.445312 27.507812 " fill-opacity="1" fill-rule="nonzero"/><path fill="#466d21" d="M 351.445312 19.398438 C 351.445312 19.398438 350.046875 21.078125 348.503906 23.59375 C 346.964844 26.109375 345.285156 29.324219 344.304688 32.261719 C 344.304688 32.261719 344.445312 31.984375 344.722656 31.5625 C 345.003906 31.144531 345.285156 30.304688 345.84375 29.324219 C 346.964844 27.230469 348.644531 24.011719 351.445312 19.398438 Z M 351.445312 19.398438 " fill-opacity="1" fill-rule="nonzero"/><path fill="#466d21" d="M 339.964844 41.910156 C 339.964844 41.910156 339.542969 43.027344 339.261719 44.566406 C 338.984375 46.105469 338.703125 47.921875 338.84375 49.601562 C 338.84375 49.601562 338.984375 49.179688 339.261719 47.921875 C 339.261719 46.664062 339.542969 44.847656 339.964844 41.910156 Z M 339.964844 41.910156 " fill-opacity="1" fill-rule="nonzero"/><path fill="#466d21" d="M 356.90625 26.53125 C 356.90625 26.53125 356.90625 26.25 357.046875 25.832031 C 357.1875 25.410156 357.1875 24.851562 357.328125 24.152344 C 357.464844 22.894531 357.605469 21.214844 357.464844 20.097656 C 357.464844 20.097656 357.328125 20.515625 357.1875 21.636719 C 356.90625 22.613281 356.765625 24.292969 356.90625 26.53125 Z M 356.90625 26.53125 " fill-opacity="1" fill-rule="nonzero"/><path fill="#466d21" d="M 353.6875 52.675781 C 353.6875 52.675781 353.40625 53.65625 353.125 55.054688 C 352.84375 56.449219 352.707031 58.128906 352.984375 59.527344 C 352.984375 59.527344 353.125 59.109375 353.265625 57.988281 C 353.40625 56.871094 353.546875 55.191406 353.6875 52.675781 Z M 353.6875 52.675781 " fill-opacity="1" fill-rule="nonzero"/><path fill="#466d21" d="M 348.785156 28.066406 C 348.785156 28.066406 347.664062 30.585938 346.683594 33.941406 C 345.5625 37.296875 344.722656 41.769531 344.445312 45.265625 C 344.445312 45.265625 344.722656 44.148438 345.285156 41.351562 C 345.84375 38.695312 346.824219 34.359375 348.785156 28.066406 Z M 348.785156 28.066406 " fill-opacity="1" fill-rule="nonzero"/><path fill="#466d21" d="M 345.5625 88.46875 C 345.5625 88.46875 348.785156 85.671875 352.144531 80.359375 C 355.785156 74.488281 357.605469 68.476562 358.726562 62.882812 C 359.707031 57.289062 359.988281 52.117188 359.847656 47.503906 C 359.847656 42.886719 359.566406 38.832031 359.285156 35.898438 C 359.007812 32.960938 358.867188 31.144531 358.867188 31.144531 C 359.007812 39.113281 358.867188 44.707031 358.167969 48.761719 C 357.605469 52.816406 356.625 55.191406 356.347656 55.890625 C 356.625 50.019531 356.625 46.664062 356.484375 44.707031 C 356.347656 42.75 356.066406 42.328125 356.066406 42.328125 C 355.644531 48.480469 355.367188 53.375 354.804688 57.289062 C 354.386719 61.203125 353.6875 64.140625 352.984375 66.378906 C 352.285156 68.476562 351.585938 69.875 350.886719 70.710938 C 350.324219 71.550781 349.90625 71.832031 349.90625 71.832031 C 351.445312 67.078125 351.445312 61.484375 351.304688 57.011719 C 351.164062 52.535156 350.746094 49.039062 350.746094 49.039062 C 349.90625 54.632812 348.785156 59.667969 347.804688 63.300781 C 346.824219 66.9375 345.984375 69.175781 345.984375 69.175781 C 346.402344 65.539062 346.683594 61.203125 346.964844 56.589844 C 347.246094 51.976562 347.664062 47.082031 348.085938 42.75 C 348.644531 38.414062 349.34375 34.359375 349.90625 31.5625 C 350.464844 28.765625 350.886719 26.949219 350.886719 26.949219 C 349.203125 32.121094 347.804688 37.296875 346.683594 42.328125 C 345.703125 47.363281 344.863281 52.117188 344.304688 56.3125 C 343.742188 60.503906 343.464844 63.863281 343.183594 66.378906 C 342.902344 68.753906 342.761719 70.292969 342.761719 70.292969 C 342.625 64.28125 342.625 58.128906 343.183594 51.976562 C 342.203125 57.847656 341.503906 63.863281 341.082031 69.734375 C 339.683594 62.742188 339.964844 54.074219 341.222656 47.363281 C 341.785156 44.007812 342.625 41.070312 343.183594 39.113281 C 343.882812 37.15625 344.304688 35.898438 344.304688 35.898438 C 343.183594 38.273438 342.203125 41.070312 341.363281 43.867188 C 340.523438 46.804688 339.964844 49.738281 339.402344 52.394531 C 338.5625 57.710938 338.28125 61.902344 338.28125 61.902344 C 337.300781 57.988281 337.164062 53.65625 337.582031 49.320312 C 338.003906 44.984375 339.121094 40.792969 340.382812 37.15625 C 341.644531 33.519531 343.183594 30.585938 344.445312 28.488281 C 345.003906 27.507812 345.5625 26.667969 345.984375 26.109375 C 346.402344 25.550781 346.542969 25.269531 346.542969 25.269531 C 346.542969 25.269531 346.265625 25.550781 345.984375 25.96875 C 345.5625 26.390625 345.003906 27.089844 344.445312 28.066406 C 343.042969 29.886719 341.363281 32.542969 339.683594 36.039062 C 338.003906 39.53125 336.601562 43.726562 335.621094 48.339844 C 334.640625 52.957031 334.363281 57.988281 334.921875 62.882812 C 335.621094 68.476562 336.742188 72.949219 337.863281 76.304688 C 339.121094 79.800781 340.382812 82.316406 341.503906 84.136719 C 343.742188 87.070312 345.5625 88.46875 345.5625 88.46875 Z M 345.5625 88.46875 " fill-opacity="1" fill-rule="nonzero"/><path fill="#36441a" d="M 288.011719 27.789062 C 294.175781 28.90625 299.355469 31.421875 303.277344 34.5 C 307.195312 37.574219 309.71875 41.210938 311.257812 44.285156 C 312.796875 47.503906 313.359375 50.300781 313.496094 52.257812 C 313.636719 54.214844 313.496094 55.332031 313.496094 55.332031 C 313.496094 55.332031 312.378906 55.613281 310.558594 55.75 C 308.738281 56.03125 306.078125 56.3125 303.277344 56.730469 C 300.335938 57.011719 297.253906 57.429688 293.894531 57.570312 C 290.535156 57.710938 286.894531 57.570312 282.832031 56.871094 C 278.769531 56.171875 274.429688 54.914062 269.808594 53.515625 C 265.1875 52.117188 260.566406 50.578125 256.226562 49.039062 C 252.027344 47.503906 248.246094 46.105469 245.585938 45.125 C 242.925781 44.007812 241.382812 43.308594 241.382812 43.308594 C 241.382812 43.308594 242.785156 42.1875 245.023438 40.511719 C 247.40625 38.832031 250.765625 36.597656 254.828125 34.359375 C 259.027344 32.121094 264.066406 29.886719 269.667969 28.488281 C 272.46875 27.789062 275.550781 27.367188 278.632812 27.089844 C 281.710938 27.089844 284.933594 27.230469 288.011719 27.789062 Z M 288.011719 27.789062 " fill-opacity="1" fill-rule="nonzero"/><path fill="#466d21" d="M 262.949219 38.414062 C 262.949219 38.414062 264.910156 38.414062 267.988281 38.132812 C 270.929688 37.855469 274.851562 37.4375 278.910156 36.597656 C 278.910156 36.597656 276.390625 36.457031 273.171875 36.597656 C 269.949219 36.875 265.886719 37.4375 262.949219 38.414062 Z M 262.949219 38.414062 " fill-opacity="1" fill-rule="nonzero"/><path fill="#466d21" d="M 277.652344 54.492188 C 277.652344 54.492188 278.351562 54.632812 279.472656 54.914062 C 280.589844 55.191406 282.132812 55.472656 283.953125 55.75 C 287.59375 56.3125 292.074219 56.871094 296.554688 56.589844 C 296.554688 56.589844 294.175781 56.171875 290.535156 55.75 C 287.03125 55.191406 282.273438 54.914062 277.652344 54.492188 Z M 277.652344 54.492188 " fill-opacity="1" fill-rule="nonzero"/><path fill="#466d21" d="M 260.425781 35.476562 C 260.425781 35.476562 261.96875 34.917969 264.207031 34.5 C 266.449219 34.078125 269.25 33.519531 271.628906 33.519531 C 271.628906 33.519531 270.929688 33.660156 269.109375 33.941406 C 267.429688 34.359375 264.628906 34.777344 260.425781 35.476562 Z M 260.425781 35.476562 " fill-opacity="1" fill-rule="nonzero"/><path fill="#466d21" d="M 257.207031 45.40625 C 257.207031 45.40625 258.886719 45.683594 261.269531 46.105469 C 263.648438 46.382812 266.449219 46.804688 268.828125 46.941406 C 268.828125 46.941406 268.128906 46.664062 266.308594 46.382812 C 264.488281 45.964844 261.546875 45.683594 257.207031 45.40625 Z M 257.207031 45.40625 " fill-opacity="1" fill-rule="nonzero"/><path fill="#466d21" d="M 276.8125 49.320312 C 276.8125 49.320312 277.652344 49.601562 278.769531 49.738281 C 279.890625 49.878906 281.292969 50.160156 282.410156 50.019531 C 282.410156 50.019531 281.992188 49.878906 281.152344 49.738281 C 280.3125 49.460938 278.910156 49.320312 276.8125 49.320312 Z M 276.8125 49.320312 " fill-opacity="1" fill-rule="nonzero"/><path fill="#466d21" d="M 260.425781 37.296875 C 260.425781 37.296875 259.449219 37.574219 258.328125 37.996094 C 257.207031 38.414062 255.808594 39.113281 254.964844 39.953125 C 254.964844 39.953125 255.386719 39.8125 256.226562 39.394531 C 257.207031 38.972656 258.46875 38.414062 260.425781 37.296875 Z M 260.425781 37.296875 " fill-opacity="1" fill-rule="nonzero"/><path fill="#466d21" d="M 286.050781 35.199219 C 286.050781 35.199219 286.332031 35.339844 286.753906 35.476562 C 287.171875 35.617188 287.734375 35.757812 288.433594 35.898438 C 289.832031 36.175781 291.511719 36.597656 292.914062 36.738281 C 292.914062 36.738281 292.492188 36.597656 291.375 36.175781 C 290.253906 35.757812 288.574219 35.476562 286.050781 35.199219 Z M 286.050781 35.199219 " fill-opacity="1" fill-rule="nonzero"/><path fill="#466d21" d="M 264.488281 44.148438 C 264.488281 44.148438 266.730469 44.148438 269.667969 44.285156 C 272.609375 44.425781 276.25 44.566406 279.191406 44.566406 C 279.191406 44.566406 278.210938 44.425781 275.96875 44.148438 C 273.730469 43.867188 269.949219 43.726562 264.488281 44.148438 Z M 264.488281 44.148438 " fill-opacity="1" fill-rule="nonzero"/><path fill="#466d21" d="M 313.496094 55.472656 C 313.496094 55.472656 313.636719 54.492188 313.496094 52.675781 C 313.359375 50.859375 312.9375 48.480469 311.816406 45.40625 C 309.015625 39.113281 303.414062 34.359375 297.675781 31.84375 C 291.792969 29.1875 285.632812 28.488281 280.453125 28.90625 C 275.269531 29.1875 271.070312 30.445312 268.128906 31.5625 C 265.1875 32.683594 263.648438 33.660156 263.648438 33.660156 C 271.070312 30.445312 277.511719 30.023438 281.992188 30.585938 C 286.472656 31.144531 288.992188 32.402344 289.691406 32.820312 C 286.472656 32.261719 284.09375 32.261719 282.132812 32.261719 C 280.171875 32.261719 278.910156 32.402344 277.929688 32.683594 C 275.96875 33.101562 275.550781 33.519531 275.550781 33.519531 C 281.851562 32.960938 287.171875 33.660156 291.09375 34.777344 C 295.015625 35.898438 297.816406 37.296875 299.636719 38.695312 C 301.457031 40.09375 302.4375 41.351562 302.996094 42.1875 C 303.554688 43.027344 303.554688 43.585938 303.554688 43.585938 C 301.875 41.910156 299.636719 40.652344 297.253906 39.8125 C 294.875 38.972656 292.492188 38.414062 290.253906 38.273438 C 288.011719 37.996094 286.191406 38.132812 284.792969 38.132812 C 283.390625 38.273438 282.550781 38.414062 282.550781 38.414062 C 287.871094 39.113281 292.355469 41.210938 295.292969 43.027344 C 296.695312 44.007812 297.816406 44.847656 298.65625 45.40625 C 299.355469 46.105469 299.773438 46.382812 299.773438 46.382812 C 296.976562 44.707031 293.332031 43.308594 289.273438 42.46875 C 285.210938 41.628906 280.871094 41.351562 277.089844 41.351562 C 273.171875 41.351562 269.808594 41.769531 267.289062 42.050781 C 264.769531 42.328125 263.226562 42.75 263.226562 42.75 C 267.847656 42.328125 272.46875 42.328125 276.8125 42.75 C 281.152344 43.167969 285.210938 44.007812 288.574219 44.984375 C 291.933594 45.964844 294.59375 47.082031 296.554688 48.0625 C 297.535156 48.480469 298.234375 48.902344 298.65625 49.179688 C 299.074219 49.460938 299.355469 49.601562 299.355469 49.601562 C 294.734375 47.78125 289.691406 46.523438 284.792969 45.964844 C 289.554688 47.082031 294.175781 48.761719 298.375 51 C 292.632812 50.160156 286.332031 48.761719 281.152344 47.921875 C 275.832031 47.082031 271.910156 46.382812 271.910156 46.382812 C 273.871094 46.941406 276.109375 47.503906 278.492188 47.921875 C 280.730469 48.480469 282.972656 49.039062 284.933594 49.601562 C 288.851562 50.71875 291.792969 51.695312 291.792969 51.695312 C 288.714844 51.976562 285.632812 51.695312 282.550781 51.417969 C 279.472656 51 276.390625 50.4375 273.589844 49.878906 C 270.789062 49.320312 268.269531 48.761719 266.449219 48.339844 C 264.628906 47.921875 263.507812 47.640625 263.507812 47.640625 C 263.507812 47.640625 264.488281 48.0625 266.167969 48.761719 C 267.847656 49.320312 270.089844 50.300781 272.890625 51.136719 C 278.351562 52.816406 284.792969 54.773438 291.652344 55.472656 C 295.574219 55.890625 298.796875 56.171875 301.59375 56.449219 C 304.394531 56.730469 306.636719 56.871094 308.597656 56.871094 C 310.136719 56.589844 311.398438 56.449219 312.378906 56.3125 C 312.9375 55.613281 313.496094 55.472656 313.496094 55.472656 Z M 313.496094 55.472656 " fill-opacity="1" fill-rule="nonzero"/><path fill="#36441a" d="M 343.742188 90.148438 C 345.285156 90.425781 346.824219 90.707031 348.222656 91.125 C 349.625 91.546875 351.023438 92.105469 352.285156 92.664062 C 353.546875 93.222656 354.664062 93.921875 355.785156 94.621094 C 356.90625 95.320312 357.886719 96.019531 358.867188 96.859375 C 360.6875 98.535156 362.367188 100.214844 363.628906 102.03125 C 364.886719 103.851562 365.867188 105.527344 366.566406 107.34375 C 367.269531 109.164062 367.828125 110.699219 368.109375 112.238281 C 368.386719 113.777344 368.667969 115.175781 368.667969 116.292969 C 368.808594 118.53125 368.667969 119.929688 368.667969 119.929688 C 368.667969 119.929688 367.410156 120.628906 365.449219 121.605469 C 364.46875 122.167969 363.207031 122.726562 361.945312 123.285156 C 360.6875 123.84375 359.148438 124.542969 357.605469 125.101562 C 356.066406 125.660156 354.527344 126.359375 352.84375 126.921875 C 351.164062 127.480469 349.484375 128.039062 347.804688 128.457031 C 346.964844 128.597656 346.125 128.878906 345.285156 129.015625 C 344.445312 129.15625 343.605469 129.296875 342.761719 129.296875 C 341.921875 129.4375 340.941406 129.4375 340.101562 129.296875 C 339.261719 129.15625 338.28125 129.15625 337.441406 129.015625 C 333.800781 128.457031 330.019531 126.921875 326.101562 125.242188 C 322.179688 123.5625 318.117188 121.605469 314.058594 119.929688 C 312.097656 119.230469 310.136719 118.390625 308.316406 117.691406 C 306.496094 117.132812 304.816406 116.433594 303.414062 116.015625 C 300.617188 115.035156 298.796875 114.476562 298.796875 114.476562 C 298.796875 114.476562 299.636719 112.796875 301.316406 110.140625 C 302.15625 108.742188 303.277344 107.34375 304.675781 105.667969 C 306.078125 103.988281 307.757812 102.3125 309.71875 100.632812 C 313.636719 97.277344 318.820312 94.0625 324.699219 91.824219 C 330.859375 90.007812 337.582031 89.167969 343.742188 90.148438 Z M 343.742188 90.148438 " fill-opacity="1" fill-rule="nonzero"/><path fill="#466d21" d="M 318.679688 105.527344 C 318.679688 105.527344 319.238281 105.527344 320.078125 105.386719 C 320.917969 105.246094 322.179688 105.109375 323.578125 104.96875 C 326.519531 104.410156 330.300781 103.851562 334.363281 102.453125 C 334.363281 102.453125 333.800781 102.453125 332.679688 102.453125 C 331.703125 102.453125 330.300781 102.453125 328.621094 102.730469 C 327.082031 103.011719 325.261719 103.152344 323.578125 103.710938 C 321.898438 104.128906 320.21875 104.6875 318.679688 105.527344 Z M 318.679688 105.527344 " fill-opacity="1" fill-rule="nonzero"/><path fill="#466d21" d="M 333.101562 126.222656 C 333.101562 126.222656 333.242188 126.222656 333.523438 126.359375 C 333.800781 126.5 334.222656 126.5 334.640625 126.640625 C 335.203125 126.78125 335.761719 126.921875 336.460938 126.921875 C 337.164062 127.058594 337.863281 127.199219 338.703125 127.339844 C 342.0625 127.757812 346.265625 127.757812 350.746094 126.5 C 350.746094 126.5 350.183594 126.5 349.066406 126.5 C 348.085938 126.5 346.542969 126.5 344.863281 126.5 C 341.503906 126.5 337.164062 126.5 333.101562 126.222656 Z M 333.101562 126.222656 " fill-opacity="1" fill-rule="nonzero"/><path fill="#466d21" d="M 315.878906 101.753906 C 315.878906 101.753906 317.417969 101.054688 319.660156 100.214844 C 320.777344 99.796875 322.039062 99.515625 323.300781 99.234375 C 324.558594 98.957031 325.960938 98.675781 327.082031 98.675781 C 327.082031 98.675781 326.941406 98.675781 326.519531 98.816406 C 326.101562 98.957031 325.539062 99.097656 324.558594 99.375 C 322.878906 99.933594 320.078125 100.492188 315.878906 101.753906 Z M 315.878906 101.753906 " fill-opacity="1" fill-rule="nonzero"/><path fill="#466d21" d="M 314.339844 115.175781 C 314.339844 115.175781 314.757812 115.316406 315.457031 115.316406 C 316.160156 115.453125 317.136719 115.59375 318.117188 115.734375 C 319.238281 115.875 320.359375 116.152344 321.621094 116.152344 C 322.878906 116.292969 324 116.433594 325.121094 116.433594 C 325.121094 116.433594 324.421875 116.152344 322.738281 115.875 C 321.898438 115.59375 320.777344 115.453125 319.378906 115.316406 C 318.679688 115.316406 317.839844 115.175781 317 115.175781 C 316.296875 115.175781 315.316406 115.175781 314.339844 115.175781 Z M 314.339844 115.175781 " fill-opacity="1" fill-rule="nonzero"/><path fill="#466d21" d="M 332.402344 119.507812 C 332.402344 119.507812 332.542969 119.507812 332.960938 119.648438 C 333.242188 119.789062 333.800781 119.789062 334.222656 119.929688 C 335.203125 120.207031 336.460938 120.347656 337.582031 119.929688 C 337.582031 119.929688 337.300781 119.789062 336.460938 119.648438 C 336.042969 119.507812 335.480469 119.507812 334.921875 119.507812 C 334.640625 119.507812 334.222656 119.507812 333.800781 119.507812 C 333.382812 119.371094 332.820312 119.371094 332.402344 119.507812 Z M 332.402344 119.507812 " fill-opacity="1" fill-rule="nonzero"/><path fill="#466d21" d="M 316.019531 104.128906 C 316.019531 104.128906 315.738281 104.269531 315.457031 104.410156 C 315.039062 104.550781 314.617188 104.828125 314.058594 105.246094 C 312.9375 105.945312 311.816406 106.925781 311.117188 108.042969 C 311.117188 108.042969 311.539062 107.90625 312.238281 107.34375 C 313.078125 106.785156 314.339844 105.667969 316.019531 104.128906 Z M 316.019531 104.128906 " fill-opacity="1" fill-rule="nonzero"/><path fill="#466d21" d="M 341.503906 100.074219 C 341.503906 100.074219 342.484375 100.492188 343.742188 100.773438 C 345.003906 101.054688 346.683594 101.472656 348.085938 101.332031 C 348.085938 101.332031 347.664062 101.054688 346.683594 100.773438 C 345.703125 100.492188 344.023438 100.214844 341.503906 100.074219 Z M 341.503906 100.074219 " fill-opacity="1" fill-rule="nonzero"/><path fill="#466d21" d="M 320.917969 112.9375 C 320.917969 112.9375 321.058594 112.9375 321.339844 112.9375 C 321.621094 112.9375 321.898438 112.9375 322.320312 112.9375 C 323.160156 112.9375 324.421875 112.9375 325.820312 112.9375 C 327.21875 112.9375 328.761719 112.9375 330.300781 112.9375 C 331.839844 112.9375 333.382812 112.9375 334.78125 112.796875 C 334.78125 112.796875 334.5 112.796875 334.082031 112.660156 C 333.523438 112.660156 332.820312 112.519531 331.703125 112.378906 C 331.140625 112.378906 330.582031 112.238281 329.882812 112.238281 C 329.179688 112.238281 328.339844 112.238281 327.5 112.238281 C 325.539062 112.378906 323.441406 112.660156 320.917969 112.9375 Z M 320.917969 112.9375 " fill-opacity="1" fill-rule="nonzero"/><path fill="#466d21" d="M 368.808594 120.070312 C 368.808594 120.070312 368.949219 118.808594 368.808594 116.851562 C 368.667969 114.894531 368.25 111.960938 366.988281 108.742188 C 364.1875 101.890625 359.007812 97 353.265625 94.480469 C 347.523438 91.824219 341.363281 91.40625 336.042969 92.105469 C 330.722656 92.804688 326.378906 94.621094 323.441406 96.160156 C 322.039062 97 320.917969 97.699219 320.078125 98.257812 C 319.378906 98.816406 318.957031 99.097656 318.957031 99.097656 C 320.777344 97.835938 322.601562 97 324.421875 96.300781 C 326.101562 95.601562 327.921875 95.179688 329.460938 94.761719 C 331 94.34375 332.542969 94.203125 333.941406 94.203125 C 334.640625 94.203125 335.34375 94.203125 335.902344 94.203125 C 336.460938 94.203125 337.164062 94.34375 337.722656 94.34375 C 339.964844 94.621094 341.785156 95.042969 343.042969 95.601562 C 344.304688 96.160156 345.144531 96.578125 345.425781 96.71875 C 343.882812 96.578125 342.484375 96.4375 341.222656 96.4375 C 339.964844 96.4375 338.84375 96.4375 337.863281 96.578125 C 335.902344 96.71875 334.503906 97 333.523438 97.277344 C 331.5625 97.835938 331.140625 98.398438 331.140625 98.398438 C 337.582031 97.417969 342.761719 97.976562 346.683594 98.957031 C 348.644531 99.515625 350.324219 100.074219 351.726562 100.773438 C 353.125 101.472656 354.246094 102.171875 355.085938 102.871094 C 356.90625 104.410156 357.746094 105.808594 358.304688 106.785156 C 358.726562 107.765625 358.867188 108.464844 358.867188 108.464844 C 355.507812 104.96875 350.183594 103.570312 345.84375 103.570312 C 343.742188 103.570312 341.785156 103.710938 340.382812 103.851562 C 338.984375 104.128906 338.28125 104.269531 338.28125 104.269531 C 343.464844 104.828125 347.804688 106.925781 350.605469 109.023438 C 352.003906 110 353.125 110.839844 353.824219 111.539062 C 354.527344 112.238281 354.804688 112.660156 354.804688 112.660156 C 354.105469 112.238281 353.40625 111.820312 352.707031 111.539062 C 351.867188 111.261719 351.023438 110.839844 350.183594 110.5625 C 348.503906 109.863281 346.542969 109.582031 344.582031 109.164062 C 340.664062 108.464844 336.460938 108.324219 332.820312 108.605469 C 331.839844 108.605469 331 108.742188 330.160156 108.742188 C 329.320312 108.882812 328.480469 109.023438 327.640625 109.164062 C 326.101562 109.300781 324.699219 109.722656 323.441406 110 C 322.320312 110.28125 321.339844 110.421875 320.640625 110.699219 C 319.9375 110.839844 319.660156 110.980469 319.660156 110.980469 L 321.339844 110.699219 L 323.019531 110.5625 C 324.140625 110.421875 325.261719 110.28125 326.242188 110.28125 C 328.480469 110.28125 330.582031 110.28125 332.679688 110.421875 C 334.78125 110.5625 336.742188 110.839844 338.703125 111.261719 C 340.523438 111.679688 342.34375 112.097656 344.023438 112.519531 C 345.5625 113.078125 347.105469 113.496094 348.363281 114.054688 C 349.625 114.617188 350.746094 115.035156 351.585938 115.453125 C 353.40625 116.292969 354.386719 116.851562 354.386719 116.851562 C 353.265625 116.574219 352.144531 116.152344 350.886719 115.875 L 347.382812 115.035156 L 343.882812 114.476562 C 342.761719 114.335938 341.503906 114.195312 340.382812 114.054688 C 344.863281 115.175781 349.203125 116.851562 353.40625 118.808594 C 347.664062 118.808594 341.785156 117.832031 336.882812 116.992188 C 331.980469 116.152344 328.339844 115.453125 328.339844 115.453125 C 330.160156 116.015625 332.261719 116.714844 334.363281 117.273438 C 336.460938 117.972656 338.5625 118.390625 340.382812 118.949219 C 342.203125 119.507812 343.882812 120.070312 345.003906 120.347656 C 346.125 120.628906 346.824219 120.90625 346.824219 120.90625 C 345.285156 121.328125 343.742188 121.605469 342.34375 121.605469 C 340.941406 121.746094 339.402344 121.746094 338.003906 121.46875 C 336.601562 121.328125 335.203125 121.1875 333.800781 120.90625 C 332.402344 120.628906 331.140625 120.347656 329.882812 120.070312 C 328.621094 119.789062 327.359375 119.371094 326.378906 119.089844 C 325.261719 118.808594 324.28125 118.53125 323.441406 118.25 C 322.601562 117.972656 321.898438 117.691406 321.480469 117.550781 C 321.058594 117.414062 320.78125 117.273438 320.78125 117.273438 C 320.78125 117.273438 321.058594 117.414062 321.480469 117.691406 C 321.898438 117.972656 322.460938 118.25 323.300781 118.671875 C 324 119.089844 324.980469 119.507812 325.960938 119.929688 C 326.941406 120.347656 328.0625 121.046875 329.320312 121.46875 C 331.703125 122.445312 334.363281 123.5625 337.300781 124.261719 C 338.703125 124.683594 340.242188 124.960938 341.785156 125.101562 C 343.324219 125.382812 344.863281 125.382812 346.542969 125.382812 C 354.105469 125.101562 359.847656 124.261719 363.90625 123.003906 C 365.589844 122.304688 366.988281 121.46875 367.96875 121.046875 C 368.25 120.488281 368.808594 120.070312 368.808594 120.070312 Z M 368.808594 120.070312 " fill-opacity="1" fill-rule="nonzero"/><path fill="#36441a" d="M 373.988281 222.554688 C 382.109375 223.394531 388.972656 226.191406 394.433594 229.546875 C 399.894531 233.042969 403.957031 237.097656 407.035156 241.152344 C 409.976562 245.066406 411.9375 248.84375 413.058594 251.640625 C 414.175781 254.433594 414.597656 256.113281 414.597656 256.113281 C 414.597656 256.113281 413.195312 257.371094 410.816406 259.050781 C 408.4375 260.726562 404.9375 262.964844 400.734375 265.0625 C 396.535156 267.160156 391.773438 269.117188 386.3125 270.515625 C 380.992188 271.773438 375.109375 272.472656 368.667969 271.773438 C 366.988281 271.632812 365.449219 271.351562 363.769531 271.074219 C 362.085938 270.792969 360.546875 270.375 359.007812 269.957031 C 355.925781 269.117188 352.984375 268.136719 350.046875 267.019531 C 347.105469 266.039062 344.304688 264.921875 341.503906 263.804688 C 338.703125 262.824219 336.042969 261.847656 333.382812 261.148438 C 328.0625 259.609375 323.019531 258.910156 318.957031 258.910156 C 317.980469 258.910156 317 258.910156 316.296875 259.050781 C 315.457031 259.1875 314.757812 259.1875 314.199219 259.328125 C 313.078125 259.46875 312.378906 259.46875 312.378906 259.46875 C 312.378906 259.46875 312.519531 258.910156 312.796875 257.652344 C 312.9375 257.09375 313.078125 256.394531 313.359375 255.554688 C 313.636719 254.714844 313.917969 253.875 314.339844 252.757812 C 314.757812 251.640625 315.316406 250.660156 316.019531 249.402344 C 316.71875 248.144531 317.417969 246.886719 318.398438 245.625 C 320.21875 242.96875 322.738281 240.3125 325.679688 237.65625 C 328.621094 235 332.121094 232.625 336.042969 230.527344 C 339.824219 228.429688 344.023438 226.75 348.363281 225.351562 C 352.707031 224.09375 357.046875 223.117188 361.386719 222.695312 C 363.628906 222.417969 365.589844 222.417969 367.6875 222.277344 C 369.929688 222.277344 371.890625 222.277344 373.988281 222.554688 Z M 373.988281 222.554688 " fill-opacity="1" fill-rule="nonzero"/><path fill="#466d21" d="M 339.121094 242.132812 C 339.121094 242.132812 339.824219 242.132812 341.082031 241.851562 C 342.34375 241.710938 344.164062 241.433594 346.265625 241.152344 C 350.464844 240.453125 356.207031 239.613281 361.808594 238.078125 C 361.808594 238.078125 358.304688 237.9375 353.6875 238.496094 C 349.203125 238.914062 343.464844 240.171875 339.121094 242.132812 Z M 339.121094 242.132812 " fill-opacity="1" fill-rule="nonzero"/><path fill="#466d21" d="M 360.546875 267.996094 C 360.546875 267.996094 360.828125 267.996094 361.246094 268.136719 C 361.667969 268.277344 362.367188 268.417969 363.207031 268.558594 C 364.886719 268.835938 367.410156 269.257812 370.207031 269.394531 C 375.808594 269.816406 383.089844 269.816406 389.953125 267.578125 C 389.953125 267.578125 386.03125 267.859375 380.429688 267.996094 C 374.96875 268.136719 367.546875 268.417969 360.546875 267.996094 Z M 360.546875 267.996094 " fill-opacity="1" fill-rule="nonzero"/><path fill="#466d21" d="M 334.921875 237.796875 C 334.921875 237.796875 335.480469 237.515625 336.460938 237.097656 C 337.441406 236.679688 338.84375 236.117188 340.523438 235.558594 C 343.742188 234.582031 348.085938 233.601562 351.585938 233.460938 C 351.585938 233.460938 350.464844 233.742188 347.945312 234.300781 C 345.285156 235 341.082031 235.839844 334.921875 237.796875 Z M 334.921875 237.796875 " fill-opacity="1" fill-rule="nonzero"/><path fill="#466d21" d="M 333.101562 254.714844 C 333.101562 254.714844 335.480469 254.855469 338.421875 255.132812 C 341.503906 255.414062 345.285156 255.832031 348.503906 255.832031 C 348.503906 255.832031 348.226562 255.832031 347.664062 255.554688 C 347.105469 255.414062 346.265625 255.273438 345.003906 254.996094 C 344.445312 254.855469 343.742188 254.855469 342.902344 254.714844 C 342.0625 254.714844 341.222656 254.574219 340.242188 254.433594 C 339.261719 254.433594 338.144531 254.433594 336.882812 254.433594 C 335.761719 254.574219 334.363281 254.574219 333.101562 254.714844 Z M 333.101562 254.714844 " fill-opacity="1" fill-rule="nonzero"/><path fill="#466d21" d="M 359.425781 259.46875 C 359.425781 259.46875 359.707031 259.609375 360.265625 259.609375 C 360.828125 259.75 361.386719 259.886719 362.226562 260.027344 C 363.90625 260.308594 366.007812 260.449219 367.6875 260.027344 C 367.6875 260.027344 367.128906 259.886719 365.867188 259.609375 C 365.167969 259.46875 364.328125 259.46875 363.347656 259.328125 C 362.085938 259.328125 360.828125 259.328125 359.425781 259.46875 Z M 359.425781 259.46875 " fill-opacity="1" fill-rule="nonzero"/><path fill="#466d21" d="M 335.203125 240.59375 C 335.203125 240.59375 334.921875 240.734375 334.363281 241.011719 C 333.800781 241.292969 333.101562 241.710938 332.261719 242.269531 C 330.722656 243.25 328.902344 244.789062 328.0625 246.324219 C 328.0625 246.324219 328.621094 246.046875 329.742188 245.207031 C 330.859375 244.226562 332.542969 242.832031 335.203125 240.59375 Z M 335.203125 240.59375 " fill-opacity="1" fill-rule="nonzero"/><path fill="#466d21" d="M 371.75 235 C 371.75 235 373.148438 235.417969 374.96875 235.839844 C 376.789062 236.257812 379.171875 236.539062 380.992188 236.257812 C 380.992188 236.257812 380.429688 235.980469 378.890625 235.699219 C 377.492188 235.417969 375.109375 235 371.75 235 Z M 371.75 235 " fill-opacity="1" fill-rule="nonzero"/><path fill="#466d21" d="M 342.34375 251.359375 C 342.34375 251.359375 345.285156 251.21875 349.34375 251.21875 C 353.40625 251.21875 358.445312 251.359375 362.648438 251.078125 C 362.648438 251.078125 361.246094 250.800781 358.027344 250.660156 C 354.804688 250.519531 349.625 250.378906 342.34375 251.359375 Z M 342.34375 251.359375 " fill-opacity="1" fill-rule="nonzero"/><path fill="#466d21" d="M 414.457031 256.253906 C 414.457031 256.253906 414.039062 254.714844 413.058594 252.199219 C 412.078125 249.679688 410.398438 246.324219 407.875 242.550781 C 402.136719 234.722656 394.433594 229.828125 386.59375 227.171875 C 378.75 224.652344 370.769531 224.375 363.769531 225.214844 C 356.625 226.050781 350.324219 228.289062 345.984375 230.386719 C 341.644531 232.484375 339.261719 234.300781 339.261719 234.300781 C 344.863281 231.226562 350.046875 229.546875 354.527344 228.707031 C 359.007812 227.871094 362.925781 227.730469 365.867188 228.007812 C 371.890625 228.429688 375.25 230.246094 376.230469 230.664062 C 367.828125 230.246094 363.066406 230.945312 360.265625 231.644531 C 357.464844 232.34375 356.90625 233.042969 356.90625 233.042969 C 359.148438 232.761719 361.246094 232.625 363.347656 232.484375 C 365.308594 232.34375 367.128906 232.34375 368.949219 232.484375 C 372.449219 232.625 375.53125 232.902344 378.191406 233.460938 C 383.652344 234.441406 387.433594 235.980469 390.09375 237.515625 C 392.753906 239.054688 394.292969 240.734375 395.273438 241.851562 C 396.113281 242.96875 396.394531 243.808594 396.394531 243.808594 C 390.933594 240.035156 383.511719 238.914062 377.492188 239.195312 C 374.550781 239.195312 371.890625 239.613281 369.929688 239.894531 C 368.109375 240.171875 366.988281 240.453125 366.988281 240.453125 C 374.410156 241.152344 380.710938 243.390625 385.050781 245.625 C 389.394531 247.863281 391.773438 249.679688 391.773438 249.679688 C 387.574219 248.144531 382.109375 247.023438 376.371094 246.324219 C 370.628906 245.765625 364.609375 245.625 359.148438 245.90625 C 353.6875 246.1875 348.785156 246.886719 345.425781 247.722656 C 342.0625 248.5625 339.964844 249.121094 339.964844 249.121094 C 352.566406 246.746094 366.007812 248.703125 375.808594 250.660156 C 380.710938 251.640625 384.773438 252.757812 387.574219 253.597656 C 390.371094 254.433594 392.054688 254.996094 392.054688 254.996094 C 384.910156 253.875 377.628906 253.039062 370.488281 252.757812 C 377.351562 254.015625 384.210938 255.695312 390.933594 257.652344 C 382.390625 258.488281 372.871094 257.371094 365.308594 256.394531 C 361.527344 255.832031 358.304688 255.414062 355.925781 254.996094 C 353.6875 254.714844 352.285156 254.433594 352.285156 254.433594 C 355.085938 255.273438 358.167969 255.972656 361.386719 256.671875 C 364.609375 257.371094 367.96875 258.070312 370.910156 258.769531 C 376.789062 260.027344 381.410156 261.007812 381.410156 261.007812 C 376.789062 262.265625 372.167969 262.40625 367.546875 262.125 C 365.308594 261.984375 362.925781 261.707031 360.828125 261.425781 C 358.726562 261.148438 356.625 260.726562 354.804688 260.308594 C 351.023438 259.46875 347.664062 258.628906 345.285156 258.070312 C 344.023438 257.792969 343.183594 257.511719 342.484375 257.371094 C 341.785156 257.230469 341.503906 257.09375 341.503906 257.09375 C 341.503906 257.09375 341.785156 257.230469 342.484375 257.511719 C 343.042969 257.792969 344.023438 258.210938 345.003906 258.628906 C 347.246094 259.46875 350.324219 260.867188 353.824219 262.125 C 357.464844 263.382812 361.667969 264.78125 366.566406 265.761719 C 371.328125 266.738281 376.511719 267.296875 381.972656 266.878906 C 394.292969 266.039062 402.695312 263.804688 408.015625 261.425781 C 410.117188 260.027344 411.796875 258.910156 412.917969 257.929688 C 413.898438 256.8125 414.457031 256.253906 414.457031 256.253906 Z M 414.457031 256.253906 " fill-opacity="1" fill-rule="nonzero"/></svg>