<svg xmlns="http://www.w3.org/2000/svg" xmlns:xlink="http://www.w3.org/1999/xlink" width="500" zoomAndPan="magnify" viewBox="0 0 375 374.999991" height="500" preserveAspectRatio="xMidYMid meet" version="1.0"><defs><clipPath id="35bcf85fa2"><path d="M 41 207 L 131.617188 207 L 131.617188 294 L 41 294 Z M 41 207 " clip-rule="nonzero"/></clipPath></defs><path fill="#232e13" d="M -99.136719 301.191406 C -99.835938 299.652344 -115.238281 262.320312 -17.777344 204.15625 C 34.589844 172.976562 38.933594 152.140625 38.933594 152.003906 L 43.554688 152.839844 C 43.414062 153.820312 39.210938 175.632812 -15.398438 208.210938 C -108.65625 263.859375 -95.074219 299.09375 -94.933594 299.371094 Z M -99.136719 301.191406 " fill-opacity="1" fill-rule="nonzero"/><path fill="#232e13" d="M 102.925781 235.753906 C 63.855469 212.683594 25.210938 212.125 -0.414062 215.621094 C -28.28125 219.394531 -47.042969 228.761719 -47.183594 228.902344 L -49.285156 224.707031 C -48.445312 224.289062 -29.679688 214.921875 -1.117188 211.007812 C 25.210938 207.371094 65.117188 208.070312 105.304688 231.839844 Z M 102.925781 235.753906 " fill-opacity="1" fill-rule="nonzero"/><path fill="#639e23" d="M 13.167969 148.507812 C 12.1875 149.625 11.347656 150.882812 10.507812 152.140625 C 9.667969 153.261719 8.824219 154.519531 8.265625 155.777344 C 7.566406 157.035156 6.867188 158.152344 6.304688 159.414062 C 5.746094 160.671875 5.183594 161.929688 4.625 163.046875 C 3.644531 165.425781 2.804688 167.941406 2.105469 170.320312 C 1.40625 172.695312 0.84375 175.210938 0.285156 177.308594 C -0.277344 179.546875 -0.554688 181.785156 -0.976562 183.601562 C -1.394531 185.558594 -1.535156 187.238281 -1.816406 188.773438 C -2.234375 191.710938 -2.234375 193.527344 -2.234375 193.527344 C -2.234375 193.527344 -0.695312 194.367188 2.246094 195.347656 C 3.644531 195.765625 5.464844 196.324219 7.566406 196.746094 C 9.667969 197.164062 11.90625 197.304688 14.566406 197.445312 C 17.226562 197.582031 20.027344 197.304688 23.109375 196.746094 C 26.191406 196.324219 29.269531 195.347656 32.628906 193.949219 C 34.3125 193.25 35.851562 192.550781 37.53125 191.570312 C 39.210938 190.59375 40.890625 189.613281 42.433594 188.496094 C 43.972656 187.238281 45.652344 185.976562 47.195312 184.582031 C 48.734375 183.183594 50.132812 181.503906 51.675781 179.828125 C 57.414062 172.835938 61.476562 164.167969 63.71875 155.636719 C 65.957031 146.96875 66.378906 138.300781 65.816406 130.890625 C 65.675781 129.070312 65.398438 127.253906 65.257812 125.578125 C 64.976562 123.898438 64.835938 122.359375 64.417969 120.824219 C 63.71875 117.886719 63.15625 115.230469 62.316406 113.132812 C 60.917969 108.9375 59.796875 106.5625 59.796875 106.5625 C 59.796875 106.5625 57.835938 108.378906 54.753906 111.316406 C 53.214844 112.714844 51.253906 114.53125 49.292969 116.347656 C 48.3125 117.328125 47.195312 118.304688 46.074219 119.285156 C 44.953125 120.261719 43.832031 121.242188 42.574219 122.359375 C 37.671875 126.414062 32.351562 130.75 27.308594 135.085938 C 21.988281 139.558594 17.085938 143.753906 13.167969 148.507812 Z M 13.167969 148.507812 " fill-opacity="1" fill-rule="nonzero"/><path fill="#8fc53f" d="M 45.375 134.664062 C 45.375 134.664062 45.09375 135.363281 44.671875 136.34375 C 44.113281 137.460938 43.273438 138.859375 42.152344 140.675781 C 39.914062 144.171875 36.410156 148.226562 31.929688 151.304688 C 31.929688 151.304688 32.351562 150.742188 33.191406 149.625 C 34.03125 148.507812 35.152344 147.109375 36.410156 145.429688 C 37.671875 143.753906 39.210938 141.933594 40.753906 139.976562 C 42.292969 138.160156 43.832031 136.34375 45.375 134.664062 Z M 45.375 134.664062 " fill-opacity="1" fill-rule="nonzero"/><path fill="#8fc53f" d="M 55.875 169.058594 C 55.875 169.058594 55.734375 169.339844 55.457031 169.898438 C 55.175781 170.457031 54.613281 171.296875 54.054688 172.277344 C 53.355469 173.253906 52.65625 174.375 51.675781 175.769531 C 50.695312 177.03125 49.574219 178.429688 48.3125 179.828125 C 43.273438 185.558594 35.570312 191.851562 27.03125 194.085938 C 27.03125 194.085938 28.148438 193.527344 29.96875 192.410156 C 31.929688 191.429688 34.449219 189.753906 37.390625 187.65625 C 43.273438 183.320312 50.554688 176.75 55.875 169.058594 Z M 55.875 169.058594 " fill-opacity="1" fill-rule="nonzero"/><path fill="#8fc53f" d="M 42.011719 129.910156 C 42.011719 129.910156 40.472656 131.589844 38.792969 133.824219 C 37.8125 134.945312 36.832031 136.203125 35.851562 137.460938 C 35.292969 138.160156 34.871094 138.71875 34.449219 139.417969 C 34.03125 140.117188 33.472656 140.675781 33.191406 141.234375 C 33.191406 141.234375 33.332031 141.097656 33.75 140.675781 C 34.171875 140.257812 34.730469 139.699219 35.429688 138.859375 C 36.132812 138.019531 37.113281 136.902344 38.230469 135.363281 C 38.511719 134.945312 38.792969 134.664062 39.070312 134.246094 C 39.351562 133.824219 39.632812 133.40625 39.914062 132.847656 C 40.472656 132.007812 41.171875 131.027344 42.011719 129.910156 Z M 42.011719 129.910156 " fill-opacity="1" fill-rule="nonzero"/><path fill="#8fc53f" d="M 59.097656 130.75 C 59.097656 130.75 58.957031 131.449219 58.957031 132.566406 C 58.816406 133.6875 58.675781 135.363281 58.253906 137.179688 C 57.835938 139 57.414062 141.097656 56.714844 143.195312 C 56.015625 145.152344 55.175781 147.25 54.335938 148.925781 C 54.335938 148.925781 54.613281 147.667969 55.457031 144.871094 C 55.59375 144.171875 55.875 143.332031 56.15625 142.355469 C 56.433594 141.375 56.714844 140.398438 56.996094 139.140625 C 57.277344 138.019531 57.695312 136.761719 57.976562 135.363281 C 58.253906 133.964844 58.675781 132.425781 59.097656 130.75 Z M 59.097656 130.75 " fill-opacity="1" fill-rule="nonzero"/><path fill="#8fc53f" d="M 50.273438 162.347656 C 50.273438 162.347656 50.132812 162.628906 49.855469 163.328125 C 49.574219 163.886719 49.152344 164.726562 48.59375 165.566406 C 47.472656 167.242188 45.933594 169.339844 44.253906 170.597656 C 44.253906 170.597656 44.53125 170.039062 45.375 168.640625 C 45.792969 167.941406 46.492188 167.101562 47.195312 166.125 C 47.613281 165.566406 48.035156 165.003906 48.59375 164.445312 C 49.152344 163.746094 49.714844 163.046875 50.273438 162.347656 Z M 50.273438 162.347656 " fill-opacity="1" fill-rule="nonzero"/><path fill="#8fc53f" d="M 44.8125 130.75 C 44.8125 130.75 45.09375 130.46875 45.375 130.050781 C 45.652344 129.632812 46.214844 129.070312 46.773438 128.371094 C 47.894531 127.113281 49.574219 125.714844 51.113281 124.878906 C 51.113281 124.878906 50.972656 125.015625 50.835938 125.296875 C 50.695312 125.578125 50.273438 125.855469 49.855469 126.414062 C 48.875 127.535156 47.332031 129.070312 44.8125 130.75 Z M 44.8125 130.75 " fill-opacity="1" fill-rule="nonzero"/><path fill="#8fc53f" d="M 23.527344 155.917969 C 23.527344 155.917969 22.96875 157.035156 21.988281 158.433594 C 21.007812 159.832031 19.609375 161.371094 18.066406 162.207031 C 18.066406 162.207031 18.347656 161.648438 19.1875 160.671875 C 20.027344 159.691406 21.289062 158.152344 23.527344 155.917969 Z M 23.527344 155.917969 " fill-opacity="1" fill-rule="nonzero"/><path fill="#8fc53f" d="M 53.214844 140.675781 C 53.214844 140.675781 53.074219 140.816406 52.933594 141.234375 C 52.792969 141.65625 52.515625 142.074219 52.234375 142.773438 C 51.675781 144.03125 50.835938 145.851562 49.855469 147.949219 C 48.734375 149.90625 47.472656 152.140625 46.074219 154.378906 C 44.53125 156.476562 43.132812 158.574219 41.453125 160.25 C 41.453125 160.25 41.734375 159.972656 42.152344 159.273438 C 42.574219 158.574219 43.273438 157.457031 44.253906 155.917969 C 44.671875 155.21875 45.234375 154.238281 45.933594 153.261719 C 46.492188 152.28125 47.195312 151.164062 47.894531 149.90625 C 49.433594 147.527344 51.113281 144.3125 53.214844 140.675781 Z M 53.214844 140.675781 " fill-opacity="1" fill-rule="nonzero"/><path fill="#8fc53f" d="M -2.234375 193.667969 C -2.234375 193.667969 -2.234375 191.992188 -1.816406 189.332031 C -1.535156 186.675781 -0.835938 183.042969 0.00390625 178.847656 C 2.105469 169.898438 5.046875 163.46875 8.6875 158.015625 C 12.1875 152.5625 16.527344 148.367188 20.867188 144.730469 C 25.070312 141.097656 29.410156 138.160156 32.492188 135.921875 C 34.03125 134.804688 35.429688 133.964844 36.410156 133.40625 C 37.390625 132.847656 37.953125 132.425781 37.953125 132.425781 C 29.550781 138.859375 24.648438 143.613281 21.707031 147.527344 C 21.007812 148.507812 20.308594 149.484375 19.886719 150.324219 C 19.46875 151.164062 18.90625 151.863281 18.628906 152.5625 C 17.929688 153.960938 17.648438 154.9375 17.507812 155.359375 C 18.769531 154.097656 19.886719 152.980469 20.867188 152.003906 C 21.847656 151.023438 22.6875 150.183594 23.527344 149.34375 C 24.371094 148.648438 25.070312 147.949219 25.769531 147.527344 C 26.328125 146.96875 26.890625 146.550781 27.449219 146.269531 C 29.410156 144.871094 30.25 144.871094 30.25 144.871094 C 24.929688 150.464844 20.867188 154.796875 17.929688 158.433594 C 16.386719 160.25 15.265625 161.929688 14.289062 163.46875 C 13.308594 165.003906 12.46875 166.402344 11.90625 167.660156 C 10.648438 170.179688 10.226562 172.136719 10.085938 173.535156 C 9.945312 174.933594 10.085938 175.769531 10.085938 175.769531 C 12.886719 170.179688 17.929688 165.703125 22.269531 162.210938 C 24.507812 160.53125 26.46875 158.992188 27.871094 158.015625 C 28.570312 157.457031 29.128906 157.035156 29.550781 156.757812 C 29.96875 156.476562 30.25 156.335938 30.25 156.335938 C 29.691406 157.035156 29.269531 157.734375 28.710938 158.433594 C 28.148438 159.132812 27.730469 159.832031 27.167969 160.53125 C 26.191406 161.929688 25.347656 163.328125 24.507812 164.585938 C 22.828125 167.101562 21.570312 169.621094 20.308594 171.714844 C 19.1875 173.8125 18.347656 175.632812 17.648438 176.890625 C 17.085938 178.148438 16.667969 178.847656 16.667969 178.847656 C 17.367188 178.007812 18.207031 177.03125 19.046875 176.191406 C 19.886719 175.210938 20.730469 174.234375 21.707031 173.253906 C 23.667969 171.296875 25.488281 169.199219 27.589844 167.101562 C 31.511719 162.769531 35.710938 158.292969 39.210938 153.960938 C 40.050781 152.839844 41.03125 151.863281 41.871094 150.742188 C 42.710938 149.625 43.414062 148.648438 44.113281 147.667969 C 45.652344 145.710938 46.914062 143.894531 47.894531 142.496094 C 49.015625 140.957031 49.855469 139.839844 50.414062 138.859375 C 50.972656 138.019531 51.253906 137.460938 51.253906 137.460938 L 50.132812 139.699219 L 48.875 141.933594 C 48.035156 143.472656 47.195312 145.011719 46.355469 146.410156 C 44.53125 149.34375 42.992188 152.28125 41.171875 154.9375 C 39.492188 157.734375 37.53125 160.25 35.851562 162.769531 C 35.011719 164.027344 34.03125 165.144531 33.191406 166.402344 C 32.351562 167.523438 31.511719 168.640625 30.671875 169.757812 C 28.988281 171.855469 27.449219 173.8125 26.050781 175.492188 C 24.648438 177.167969 23.390625 178.566406 22.269531 179.828125 C 20.027344 182.203125 18.910156 183.460938 18.910156 183.460938 C 20.449219 182.203125 22.128906 181.085938 23.527344 179.6875 L 28.011719 175.773438 L 32.210938 171.578125 C 33.609375 170.179688 34.871094 168.640625 36.273438 167.242188 C 35.152344 168.78125 34.03125 170.457031 32.769531 171.996094 L 29.128906 176.609375 C 26.609375 179.546875 23.949219 182.484375 21.148438 185.277344 C 22.269531 184.71875 23.25 184.160156 24.371094 183.601562 C 25.488281 183.042969 26.46875 182.203125 27.449219 181.503906 C 28.429688 180.804688 29.550781 179.964844 30.53125 179.265625 C 31.511719 178.429688 32.492188 177.589844 33.332031 176.75 C 34.3125 175.910156 35.152344 174.933594 35.992188 174.09375 C 36.832031 173.113281 37.671875 172.277344 38.511719 171.296875 C 39.351562 170.320312 40.050781 169.480469 40.753906 168.5 C 41.453125 167.523438 42.152344 166.683594 42.710938 165.703125 C 45.234375 162.070312 47.054688 158.714844 48.3125 156.195312 C 48.875 154.9375 49.292969 153.960938 49.714844 153.261719 C 49.996094 152.5625 50.132812 152.140625 50.132812 152.140625 C 49.292969 155.359375 47.613281 158.851562 45.933594 162.347656 C 44.113281 165.703125 42.011719 169.199219 39.914062 172.136719 C 37.953125 175.074219 35.851562 177.589844 34.3125 179.265625 C 32.910156 181.085938 31.929688 182.0625 31.929688 182.0625 C 34.453125 180.945312 36.832031 179.40625 39.070312 177.589844 C 41.3125 175.773438 43.273438 173.675781 45.234375 171.578125 C 47.054688 169.339844 48.734375 167.101562 50.132812 164.726562 C 51.535156 162.347656 52.792969 159.972656 53.636719 157.59375 C 54.613281 155.21875 55.316406 153.121094 56.015625 151.023438 C 56.574219 148.925781 56.996094 147.109375 57.414062 145.710938 C 57.554688 145.011719 57.695312 144.3125 57.835938 143.613281 C 57.976562 143.054688 57.976562 142.496094 58.117188 142.074219 C 58.253906 141.234375 58.253906 140.816406 58.253906 140.816406 C 58.253906 140.816406 58.253906 141.234375 58.253906 142.074219 C 58.253906 142.914062 58.253906 144.03125 58.117188 145.570312 C 57.976562 146.96875 57.835938 148.785156 57.414062 150.882812 C 57.136719 152.980469 56.574219 155.078125 55.875 157.59375 C 54.476562 162.488281 52.09375 167.800781 48.734375 173.113281 C 47.894531 174.511719 46.914062 175.632812 45.933594 177.03125 C 44.953125 178.289062 43.832031 179.546875 42.710938 180.804688 C 40.332031 183.183594 37.8125 185.417969 34.871094 187.238281 C 33.191406 188.355469 31.652344 189.335938 30.109375 190.171875 C 28.570312 191.011719 27.03125 191.710938 25.628906 192.410156 C 24.929688 192.691406 24.230469 193.109375 23.527344 193.390625 C 22.828125 193.667969 22.128906 193.949219 21.429688 194.089844 C 20.027344 194.507812 18.769531 194.925781 17.507812 195.347656 C 16.246094 195.765625 15.128906 195.90625 14.007812 196.183594 C 12.886719 196.324219 11.765625 196.464844 10.785156 196.605469 C 8.828125 196.746094 7.007812 196.882812 5.464844 196.746094 C 2.804688 196.183594 0.84375 195.484375 -0.554688 194.925781 C -1.535156 194.085938 -2.234375 193.667969 -2.234375 193.667969 Z M -2.234375 193.667969 " fill-opacity="1" fill-rule="nonzero"/><g clip-path="url(#35bcf85fa2)"><path fill="#639e23" d="M 100.683594 217.296875 C 92.421875 211.703125 84.160156 208.910156 76.878906 207.789062 C 69.457031 206.671875 63.015625 207.371094 57.695312 208.488281 C 52.375 209.746094 48.3125 211.425781 45.511719 212.964844 C 42.710938 214.363281 41.171875 215.480469 41.171875 215.480469 C 41.171875 215.480469 41.734375 217.296875 42.851562 220.234375 C 43.972656 223.171875 45.933594 227.085938 48.453125 231.417969 C 50.972656 235.753906 54.335938 240.507812 58.253906 245.121094 C 62.316406 249.734375 66.9375 254.070312 72.679688 257.984375 C 78.417969 261.898438 84.582031 265.117188 90.882812 268.332031 C 93.960938 270.007812 97.183594 271.6875 100.265625 273.367188 C 103.34375 275.042969 106.285156 276.859375 109.226562 278.539062 C 114.828125 282.035156 119.726562 285.667969 123.226562 288.605469 C 124.070312 289.304688 124.910156 290.003906 125.609375 290.5625 C 126.308594 291.121094 126.867188 291.683594 127.289062 292.101562 C 128.269531 292.941406 128.828125 293.359375 128.828125 293.359375 C 128.828125 293.359375 129.109375 292.660156 129.390625 291.402344 C 129.53125 290.84375 129.808594 290.003906 129.949219 289.023438 C 130.089844 288.046875 130.371094 287.066406 130.507812 285.808594 C 131.351562 281.054688 131.769531 274.066406 130.507812 265.816406 C 129.808594 261.761719 128.828125 257.285156 127.289062 252.8125 C 125.75 248.335938 123.648438 243.863281 121.128906 239.390625 C 116.085938 231 108.804688 222.890625 100.683594 217.296875 Z M 100.683594 217.296875 " fill-opacity="1" fill-rule="nonzero"/></g><path fill="#8fc53f" d="M 116.785156 259.242188 C 116.785156 259.242188 116.226562 258.542969 115.386719 257.425781 C 114.546875 256.308594 113.285156 254.628906 111.746094 252.8125 C 108.804688 248.898438 104.746094 243.863281 101.105469 238.269531 C 101.105469 238.269531 101.804688 238.96875 103.0625 240.089844 C 104.183594 241.207031 105.863281 242.886719 107.683594 244.980469 C 111.046875 248.898438 114.828125 254.351562 116.785156 259.242188 Z M 116.785156 259.242188 " fill-opacity="1" fill-rule="nonzero"/><path fill="#8fc53f" d="M 81.5 260.78125 C 81.5 260.78125 81.21875 260.640625 80.800781 260.363281 C 80.378906 260.082031 79.679688 259.664062 78.980469 259.242188 C 77.441406 258.265625 75.339844 256.867188 72.820312 255.050781 C 67.917969 251.554688 61.617188 246.660156 56.714844 240.367188 C 56.714844 240.367188 60.074219 243.164062 64.976562 247.078125 C 69.878906 250.996094 75.757812 256.167969 81.5 260.78125 Z M 81.5 260.78125 " fill-opacity="1" fill-rule="nonzero"/><path fill="#8fc53f" d="M 123.226562 259.242188 C 123.226562 259.242188 122.109375 256.585938 120.289062 253.230469 C 118.46875 249.875 115.667969 245.820312 112.867188 242.886719 C 112.867188 242.886719 113.566406 244.003906 115.246094 246.519531 C 116.925781 249.035156 119.585938 253.089844 123.226562 259.242188 Z M 123.226562 259.242188 " fill-opacity="1" fill-rule="nonzero"/><path fill="#8fc53f" d="M 113.425781 273.644531 C 113.425781 273.644531 112.867188 273.226562 112.027344 272.386719 C 111.1875 271.6875 110.066406 270.570312 108.664062 269.449219 C 106.003906 267.074219 102.503906 264.136719 99.984375 261.621094 C 99.984375 261.621094 100.265625 261.761719 100.824219 262.179688 C 101.382812 262.597656 102.222656 263.019531 103.34375 263.996094 C 105.445312 265.535156 109.085938 268.472656 113.425781 273.644531 Z M 113.425781 273.644531 " fill-opacity="1" fill-rule="nonzero"/><path fill="#8fc53f" d="M 88.363281 255.609375 C 88.363281 255.609375 88.082031 255.46875 87.519531 255.1875 C 86.960938 254.910156 86.402344 254.488281 85.5625 253.929688 C 84.019531 252.953125 82.199219 251.554688 81.082031 250.015625 C 81.082031 250.015625 81.640625 250.296875 82.902344 250.996094 C 83.460938 251.414062 84.300781 251.972656 85.140625 252.671875 C 85.5625 253.089844 86.121094 253.511719 86.679688 253.929688 C 87.242188 254.488281 87.800781 255.050781 88.363281 255.609375 Z M 88.363281 255.609375 " fill-opacity="1" fill-rule="nonzero"/><path fill="#8fc53f" d="M 120.988281 261.199219 C 120.988281 261.199219 121.128906 261.621094 121.40625 262.179688 C 121.6875 262.878906 121.96875 263.71875 122.25 264.695312 C 122.808594 266.652344 123.226562 269.171875 122.949219 270.988281 C 122.949219 270.988281 122.667969 270.289062 122.386719 268.75 C 122.109375 267.351562 121.546875 264.835938 120.988281 261.199219 Z M 120.988281 261.199219 " fill-opacity="1" fill-rule="nonzero"/><path fill="#8fc53f" d="M 94.382812 228.203125 C 94.382812 228.203125 93.960938 228.0625 93.402344 227.644531 C 92.84375 227.363281 91.863281 226.804688 91.023438 226.386719 C 89.0625 225.265625 86.820312 223.871094 85.140625 222.191406 C 85.140625 222.191406 85.839844 222.472656 87.382812 223.308594 C 88.78125 224.289062 91.164062 225.6875 94.382812 228.203125 Z M 94.382812 228.203125 " fill-opacity="1" fill-rule="nonzero"/><path fill="#8fc53f" d="M 107.824219 263.4375 C 107.824219 263.4375 107.683594 263.296875 107.40625 263.019531 C 107.125 262.738281 106.707031 262.320312 106.285156 261.761719 C 105.304688 260.640625 103.90625 259.242188 102.222656 257.566406 C 99.003906 254.210938 94.664062 250.433594 91.300781 247.078125 C 91.300781 247.078125 92.5625 247.917969 95.503906 250.296875 C 98.304688 252.671875 102.644531 256.585938 107.824219 263.4375 Z M 107.824219 263.4375 " fill-opacity="1" fill-rule="nonzero"/><path fill="#8fc53f" d="M 41.171875 215.621094 C 41.171875 215.621094 42.574219 214.640625 44.953125 213.242188 C 47.472656 211.84375 51.113281 210.308594 55.875 209.046875 C 66.238281 206.53125 76.460938 207.789062 85.5625 211.425781 C 90.042969 213.242188 94.242188 215.621094 98.023438 218.277344 C 101.804688 221.074219 105.164062 224.148438 107.964844 227.226562 C 113.707031 233.65625 117.347656 240.226562 119.308594 245.121094 C 121.269531 250.015625 121.96875 253.230469 121.96875 253.230469 C 119.726562 246.660156 116.785156 241.207031 113.566406 237.011719 C 110.484375 232.816406 107.125 229.601562 104.324219 227.503906 C 98.582031 223.03125 94.242188 221.910156 92.984375 221.351562 C 97.042969 224.289062 99.984375 226.945312 102.222656 229.183594 C 104.464844 231.417969 105.863281 233.238281 106.707031 234.496094 C 107.683594 235.894531 108.105469 236.734375 108.246094 237.292969 C 108.527344 237.851562 108.527344 238.128906 108.527344 238.128906 C 105.164062 234.074219 101.664062 230.859375 98.445312 228.203125 C 95.222656 225.546875 92.140625 223.449219 89.34375 221.910156 C 83.742188 218.695312 79.121094 217.296875 75.621094 216.597656 C 72.117188 216.039062 69.597656 216.179688 68.058594 216.457031 C 66.515625 216.738281 65.816406 217.296875 65.816406 217.296875 C 69.457031 217.578125 73.378906 218.835938 76.878906 220.652344 C 80.378906 222.472656 83.742188 224.570312 86.402344 226.804688 C 89.0625 229.042969 91.300781 231.28125 92.703125 232.957031 C 94.101562 234.636719 94.941406 235.753906 94.941406 235.753906 C 87.941406 230.582031 80.660156 227.925781 75.339844 226.527344 C 72.679688 225.828125 70.4375 225.546875 68.898438 225.265625 C 67.359375 225.128906 66.515625 224.988281 66.515625 224.988281 C 71.417969 226.527344 77.160156 229.460938 82.621094 233.097656 C 88.222656 236.734375 93.542969 241.207031 97.882812 245.679688 C 102.363281 250.15625 105.726562 254.628906 107.964844 257.984375 C 109.085938 259.664062 109.925781 261.0625 110.484375 262.039062 C 111.046875 263.019531 111.324219 263.578125 111.324219 263.578125 C 107.125 257.566406 101.804688 252.113281 96.34375 247.636719 C 90.882812 243.164062 85.28125 239.527344 80.238281 236.871094 C 75.199219 234.074219 70.859375 232.257812 67.777344 231 C 66.238281 230.441406 64.976562 229.882812 64.136719 229.601562 C 63.296875 229.320312 62.875 229.183594 62.875 229.183594 C 70.15625 233.097656 77.300781 237.433594 83.742188 242.464844 C 76.878906 238.410156 69.738281 235.054688 62.316406 232.117188 C 65.957031 235.335938 70.15625 238.269531 74.21875 241.066406 C 78.28125 243.863281 82.199219 246.519531 85.839844 249.035156 C 89.339844 251.414062 92.28125 253.652344 94.523438 255.1875 C 96.625 256.726562 97.882812 257.707031 97.882812 257.707031 C 95.082031 256.167969 92.003906 254.210938 88.78125 252.253906 C 85.5625 250.296875 82.339844 248.476562 79.398438 246.800781 C 73.519531 243.582031 68.898438 241.207031 68.898438 241.207031 C 72.117188 245.261719 76.179688 248.757812 80.101562 251.832031 C 84.160156 254.910156 88.222656 257.566406 91.863281 260.082031 C 95.644531 262.460938 98.863281 264.695312 101.242188 266.234375 C 102.503906 266.933594 103.484375 267.632812 104.042969 268.050781 C 104.746094 268.472656 105.164062 268.75 105.164062 268.75 C 105.164062 268.75 104.746094 268.613281 104.042969 268.332031 C 103.34375 268.050781 102.363281 267.492188 101.105469 266.933594 C 98.722656 265.816406 95.222656 264.136719 91.300781 262.179688 C 87.382812 260.222656 83.039062 257.984375 78.558594 255.328125 C 74.078125 252.671875 69.316406 249.597656 64.835938 245.542969 C 59.65625 241.066406 55.316406 237.152344 51.953125 233.515625 C 48.59375 230.019531 46.074219 226.804688 44.253906 224.148438 C 43.132812 221.773438 42.292969 219.675781 41.734375 218.277344 C 41.3125 216.320312 41.171875 215.621094 41.171875 215.621094 Z M 41.171875 215.621094 " fill-opacity="1" fill-rule="nonzero"/><path fill="#36441a" d="M 14.707031 291.121094 C 11.347656 295.738281 7.003906 299.929688 2.105469 303.148438 C -2.65625 306.363281 -7.976562 308.738281 -12.738281 310 C -15.117188 310.695312 -17.359375 310.976562 -19.320312 311.257812 C -21.28125 311.535156 -23.101562 311.535156 -24.640625 311.535156 C -27.582031 311.394531 -29.261719 311.117188 -29.261719 311.117188 C -29.261719 311.117188 -29.820312 309.4375 -30.523438 306.640625 C -30.800781 305.246094 -31.222656 303.566406 -31.640625 301.75 C -32.0625 299.929688 -32.480469 297.832031 -32.761719 295.738281 C -33.460938 291.402344 -33.882812 286.367188 -33.042969 280.914062 C -32.203125 275.460938 -30.242188 269.171875 -25.480469 262.460938 C -23.101562 259.105469 -20.160156 255.886719 -16.660156 252.953125 C -13.15625 250.015625 -9.097656 247.359375 -4.898438 245.402344 C 3.503906 241.347656 11.625 240.226562 18.488281 239.949219 C 25.347656 239.808594 30.949219 240.648438 35.011719 241.347656 C 39.070312 242.046875 41.453125 242.746094 41.453125 242.746094 C 41.453125 242.746094 40.332031 244.980469 38.230469 248.476562 C 36.132812 251.832031 33.332031 256.585938 30.109375 261.898438 C 27.03125 267.074219 24.089844 272.527344 21.988281 277.421875 C 21.007812 279.796875 20.027344 282.175781 18.90625 284.410156 C 17.789062 286.507812 16.386719 288.886719 14.707031 291.121094 Z M 14.707031 291.121094 " fill-opacity="1" fill-rule="nonzero"/><path fill="#466d21" d="M 18.347656 259.941406 C 18.347656 259.941406 17.789062 260.222656 16.949219 260.921875 C 16.109375 261.480469 14.847656 262.460938 13.585938 263.71875 C 10.925781 266.234375 8.125 270.007812 6.726562 274.761719 C 6.726562 274.761719 8.40625 272.527344 10.648438 269.589844 C 12.746094 266.652344 15.96875 263.160156 18.347656 259.941406 Z M 18.347656 259.941406 " fill-opacity="1" fill-rule="nonzero"/><path fill="#466d21" d="M 23.390625 262.738281 C 23.390625 262.738281 22.128906 264.277344 20.449219 266.234375 C 18.769531 268.191406 16.949219 270.570312 15.265625 272.246094 C 15.265625 272.246094 15.546875 271.546875 16.667969 270.007812 C 17.789062 268.332031 19.75 265.953125 23.390625 262.738281 Z M 23.390625 262.738281 " fill-opacity="1" fill-rule="nonzero"/><path fill="#466d21" d="M 19.75 246.242188 C 19.75 246.242188 17.226562 246.660156 13.867188 247.777344 C 10.507812 248.898438 6.445312 250.714844 3.363281 253.089844 C 3.363281 253.089844 4.484375 252.671875 7.003906 251.414062 C 9.667969 250.296875 13.726562 248.335938 19.75 246.242188 Z M 19.75 246.242188 " fill-opacity="1" fill-rule="nonzero"/><path fill="#466d21" d="M 21.988281 260.082031 C 21.988281 260.082031 22.828125 259.242188 23.808594 257.984375 C 24.789062 256.726562 25.910156 255.050781 26.328125 253.371094 C 26.328125 253.371094 25.910156 253.789062 25.070312 254.769531 C 24.371094 255.886719 23.25 257.566406 21.988281 260.082031 Z M 21.988281 260.082031 " fill-opacity="1" fill-rule="nonzero"/><path fill="#466d21" d="M 4.90625 283.292969 C 4.90625 283.292969 4.066406 283.992188 2.945312 285.25 C 1.964844 286.367188 0.84375 288.046875 0.425781 289.722656 C 0.425781 289.722656 0.84375 289.304688 1.542969 288.324219 C 2.386719 287.347656 3.503906 285.667969 4.90625 283.292969 Z M 4.90625 283.292969 " fill-opacity="1" fill-rule="nonzero"/><path fill="#466d21" d="M 11.347656 252.953125 C 11.347656 252.953125 10.648438 253.371094 9.527344 254.070312 C 8.40625 254.769531 6.867188 255.886719 5.183594 257.144531 C 1.824219 259.804688 -2.097656 263.71875 -4.335938 267.351562 C -4.335938 267.351562 -4.054688 267.074219 -3.496094 266.515625 C -2.9375 265.953125 -2.234375 265.117188 -0.976562 263.859375 C 1.265625 261.621094 5.046875 257.707031 11.347656 252.953125 Z M 11.347656 252.953125 " fill-opacity="1" fill-rule="nonzero"/><path fill="#466d21" d="M -29.121094 311.117188 C -29.121094 311.117188 -27.582031 311.394531 -24.921875 311.535156 C -23.519531 311.535156 -21.980469 311.535156 -20.160156 311.394531 C -18.339844 311.257812 -16.238281 310.976562 -14.136719 310.417969 C -9.378906 309.160156 -5.316406 307.339844 -1.957031 305.105469 C 1.542969 302.867188 4.34375 300.492188 6.726562 297.972656 C 11.488281 293.078125 14.148438 288.046875 15.96875 283.710938 C 17.789062 279.378906 18.90625 275.460938 20.027344 272.386719 C 20.589844 270.707031 21.007812 269.449219 21.289062 268.472656 C 21.570312 267.492188 21.707031 266.933594 21.707031 266.933594 C 19.75 271.269531 18.347656 274.34375 16.949219 277 C 16.667969 277.699219 16.246094 278.257812 15.96875 278.816406 C 15.6875 279.378906 15.265625 279.9375 14.988281 280.496094 C 14.289062 281.613281 13.585938 282.453125 13.027344 283.292969 C 10.367188 286.648438 7.847656 288.1875 7.003906 288.746094 C 10.367188 283.011719 11.765625 279.9375 12.328125 277.839844 C 13.027344 275.882812 12.746094 275.183594 12.746094 275.183594 C 9.386719 280.777344 6.726562 285.390625 3.925781 289.023438 C 1.125 292.660156 -1.394531 295.175781 -3.777344 296.855469 C -6.015625 298.53125 -7.976562 299.230469 -9.378906 299.652344 C -10.777344 299.929688 -11.476562 299.929688 -11.476562 299.929688 C -6.296875 296.574219 -2.9375 290.5625 -0.835938 285.808594 C 0.285156 283.433594 0.984375 281.195312 1.542969 279.65625 C 2.105469 278.121094 2.386719 277.140625 2.386719 277.140625 C -1.535156 282.175781 -5.875 286.367188 -9.378906 289.304688 C -12.878906 292.242188 -15.539062 293.640625 -15.539062 293.640625 C -9.796875 287.347656 -4.195312 276.441406 1.964844 268.191406 C 2.804688 267.214844 3.503906 266.09375 4.207031 265.257812 C 4.90625 264.277344 5.746094 263.4375 6.445312 262.597656 C 7.984375 260.921875 9.246094 259.382812 10.507812 258.265625 C 12.886719 255.886719 14.425781 254.351562 14.425781 254.351562 C 11.90625 256.167969 9.386719 258.125 7.003906 260.222656 C 4.625 262.320312 2.386719 264.417969 0.285156 266.652344 C -3.917969 270.988281 -7.417969 275.460938 -10.359375 279.238281 C -13.296875 283.011719 -15.820312 286.230469 -17.640625 288.464844 C -19.460938 290.703125 -20.441406 291.960938 -20.441406 291.960938 C -16.9375 285.949219 -13.578125 279.65625 -9.65625 273.644531 C -14.277344 279.097656 -18.339844 284.691406 -22.398438 290.003906 C -21.28125 285.949219 -19.597656 281.894531 -17.359375 277.980469 C -15.257812 274.066406 -12.597656 270.289062 -9.796875 267.214844 C -7.136719 263.996094 -4.335938 261.621094 -2.375 259.941406 C -1.394531 259.105469 -0.554688 258.542969 0.144531 258.125 C 0.703125 257.707031 0.984375 257.425781 0.984375 257.425781 C -4.757812 260.363281 -10.917969 266.234375 -15.117188 271.269531 C -17.21875 273.785156 -18.898438 276.023438 -20.160156 277.558594 C -21.28125 279.097656 -21.980469 280.078125 -21.980469 280.078125 C -21.28125 275.324219 -19.179688 270.570312 -16.097656 266.234375 C -13.15625 261.898438 -9.097656 257.984375 -5.035156 255.1875 C -0.976562 252.253906 2.945312 250.433594 5.746094 249.316406 C 8.546875 248.335938 10.367188 247.917969 10.367188 247.917969 C 10.367188 247.917969 8.6875 248.058594 5.886719 248.617188 C 3.085938 249.316406 -0.976562 250.433594 -5.316406 252.953125 C -9.796875 255.328125 -14.417969 258.964844 -18.339844 263.296875 C -22.261719 267.632812 -25.339844 272.667969 -27.300781 277.980469 C -29.402344 284.132812 -30.382812 289.023438 -30.800781 293.078125 C -31.222656 297.273438 -31.222656 300.628906 -31.082031 303.425781 C -30.523438 305.804688 -30.101562 307.761719 -29.679688 309.160156 C -29.402344 310.277344 -29.121094 311.117188 -29.121094 311.117188 Z M -29.121094 311.117188 " fill-opacity="1" fill-rule="nonzero"/></svg>