<svg xmlns="http://www.w3.org/2000/svg" xmlns:xlink="http://www.w3.org/1999/xlink" width="500" zoomAndPan="magnify" viewBox="0 0 375 374.999991" height="500" preserveAspectRatio="xMidYMid meet" version="1.0"><defs><clipPath id="2819cea87e"><path d="M 32 73.824219 L 88 73.824219 L 88 222 L 32 222 Z M 32 73.824219 " clip-rule="nonzero"/></clipPath></defs><path fill="#36441a" d="M -49.773438 454.636719 L -52.878906 454.015625 C -43.4375 403.980469 -0.820312 367.722656 33.226562 346.117188 C 70.003906 322.773438 105.164062 310.980469 105.539062 310.855469 L 106.53125 313.835938 C 106.160156 313.960938 71.371094 325.632812 34.839844 348.726562 C 1.417969 370.207031 -40.578125 405.839844 -49.773438 454.636719 Z M -49.773438 454.636719 " fill-opacity="1" fill-rule="nonzero"/><path fill="#466d21" d="M 134.238281 319.796875 C 126.910156 319.296875 120.449219 318.925781 114.730469 318.675781 C 109.140625 318.429688 104.296875 318.304688 100.320312 318.304688 C 99.324219 318.304688 98.332031 318.304688 97.460938 318.304688 C 96.59375 318.304688 95.722656 318.304688 94.976562 318.429688 C 94.230469 318.429688 93.484375 318.429688 92.863281 318.429688 C 92.242188 318.429688 91.621094 318.429688 91.125 318.554688 C 89.011719 318.679688 87.769531 318.554688 87.769531 318.554688 C 87.769531 318.554688 88.640625 317.808594 90.378906 316.441406 C 90.875 316.070312 91.375 315.699219 91.871094 315.324219 C 92.492188 314.953125 93.113281 314.582031 93.734375 314.207031 C 94.480469 313.835938 95.226562 313.339844 96.09375 312.964844 C 96.964844 312.59375 97.835938 312.097656 98.828125 311.722656 C 102.679688 309.984375 107.773438 308.246094 113.988281 307.253906 C 120.074219 306.136719 127.28125 305.765625 135.109375 306.261719 C 142.9375 306.757812 150.765625 308.125 157.972656 309.738281 C 165.175781 311.351562 171.886719 313.089844 177.726562 314.703125 C 189.40625 317.933594 197.234375 320.664062 197.234375 320.664062 C 197.234375 320.664062 188.910156 321.285156 176.855469 321.410156 C 170.769531 321.535156 163.8125 321.410156 156.480469 321.160156 C 149.273438 320.664062 141.695312 320.167969 134.238281 319.796875 Z M 134.238281 319.796875 " fill-opacity="1" fill-rule="nonzero"/><path fill="#3a5a1a" d="M 125.417969 318.429688 C 121.441406 317.4375 114.109375 316.320312 106.90625 316.320312 C 114.730469 316.070312 121.9375 316.566406 127.28125 317.0625 C 129.890625 317.3125 132.128906 317.558594 133.617188 317.683594 C 135.109375 317.808594 135.980469 317.933594 135.980469 317.933594 C 132.5 317.0625 124.050781 315.574219 115.230469 315.199219 C 119.828125 315.199219 124.421875 315.449219 128.773438 315.699219 C 133.121094 316.070312 137.097656 316.441406 140.574219 316.9375 C 144.054688 317.3125 146.914062 317.808594 149.023438 318.058594 C 151.011719 318.304688 152.253906 318.554688 152.253906 318.554688 C 145.171875 316.816406 131.503906 314.332031 118.582031 314.082031 C 128.898438 313.960938 139.457031 314.953125 147.410156 315.945312 C 151.386719 316.441406 154.742188 316.816406 156.976562 317.1875 C 159.335938 317.4375 160.703125 317.683594 160.703125 317.683594 C 153.746094 316.320312 145.546875 314.828125 136.972656 313.960938 C 148.652344 314.828125 160.828125 316.441406 171.761719 317.1875 C 171.761719 317.1875 166.296875 316.441406 157.847656 315.199219 C 149.398438 314.082031 137.71875 312.34375 125.542969 312.222656 C 138.835938 312.097656 153.125 313.585938 163.933594 314.207031 C 163.933594 314.207031 162.445312 313.960938 159.835938 313.710938 C 157.226562 313.339844 153.621094 312.964844 149.273438 312.46875 C 140.574219 311.476562 129.019531 310.605469 117.839844 311.351562 C 131.257812 310.109375 145.792969 310.980469 153.25 310.980469 C 153.25 310.980469 152.007812 310.855469 150.019531 310.730469 C 147.90625 310.484375 144.925781 310.234375 141.320312 310.109375 C 137.71875 309.863281 133.492188 309.738281 129.019531 309.738281 C 124.546875 309.738281 119.703125 309.984375 114.980469 310.605469 C 124.175781 309.242188 133.121094 308.746094 136.847656 308.496094 C 136.847656 308.496094 135.980469 308.496094 134.363281 308.371094 C 132.75 308.371094 130.511719 308.371094 127.652344 308.496094 C 122.0625 308.621094 114.234375 309.367188 106.285156 311.351562 C 113.613281 309.242188 121.441406 307.875 125.667969 307.007812 C 125.667969 307.007812 125.417969 307.007812 125.042969 307.007812 C 124.671875 307.007812 123.925781 307.128906 123.179688 307.253906 C 121.566406 307.503906 119.328125 307.75 116.597656 308.125 C 111.253906 308.992188 104.542969 310.605469 98.703125 312.964844 C 100.566406 312.097656 102.679688 311.226562 104.667969 310.484375 C 106.65625 309.738281 108.519531 309.117188 110.011719 308.496094 C 110.011719 308.496094 109.761719 308.496094 109.265625 308.621094 C 108.769531 308.746094 108.148438 308.867188 107.402344 309.117188 C 106.65625 309.367188 105.660156 309.613281 104.667969 309.984375 C 103.675781 310.359375 102.429688 310.730469 101.3125 311.226562 C 100.070312 311.601562 98.953125 312.222656 97.710938 312.71875 C 96.46875 313.214844 95.226562 313.835938 94.105469 314.582031 C 91.746094 315.820312 89.757812 317.4375 88.144531 318.675781 C 90.253906 318.675781 92.617188 318.429688 95.226562 318.429688 C 96.46875 318.304688 97.710938 318.304688 99.078125 318.304688 C 100.320312 318.304688 101.5625 318.179688 102.804688 318.179688 C 103.921875 318.179688 105.039062 318.179688 106.160156 318.179688 C 107.152344 318.179688 108.023438 318.179688 108.890625 318.179688 C 109.636719 318.179688 110.257812 318.179688 110.632812 318.179688 C 111.003906 318.179688 111.253906 318.179688 111.253906 318.179688 C 109.761719 317.933594 108.023438 317.808594 106.035156 317.558594 C 104.171875 317.4375 102.058594 317.3125 100.070312 317.4375 C 106.035156 317.0625 112.496094 317.1875 117.464844 317.683594 C 121.9375 317.933594 125.417969 318.429688 125.417969 318.429688 Z M 125.417969 318.429688 " fill-opacity="1" fill-rule="nonzero"/><path fill="#466d21" d="M 97.335938 358.039062 C 88.265625 355.183594 80.8125 352.824219 74.226562 351.332031 C 67.765625 349.71875 61.679688 348.851562 56.460938 348.230469 C 51.242188 347.609375 46.890625 347.359375 43.910156 346.988281 C 42.417969 346.863281 41.300781 346.738281 40.429688 346.738281 C 39.6875 346.613281 39.1875 346.613281 39.1875 346.613281 C 39.1875 346.613281 39.4375 346.242188 39.933594 345.621094 C 40.429688 345 41.175781 344.132812 42.296875 343.015625 C 44.53125 340.777344 48.011719 337.800781 53.351562 334.820312 C 55.960938 333.328125 59.191406 331.964844 62.796875 330.722656 C 66.398438 329.480469 70.625 328.609375 75.222656 328.238281 C 79.816406 327.742188 84.789062 327.867188 89.882812 328.488281 C 94.976562 329.109375 100.195312 330.226562 105.289062 331.839844 C 115.601562 335.066406 124.921875 339.539062 133.371094 343.386719 C 141.695312 347.234375 149.644531 350.464844 156.851562 352.328125 C 164.058594 354.3125 170.394531 354.808594 175.117188 354.683594 C 177.476562 354.5625 179.339844 354.4375 180.585938 354.1875 C 181.949219 354.066406 182.570312 353.941406 182.570312 353.941406 C 182.570312 353.941406 182.074219 354.4375 181.082031 355.304688 C 180.085938 356.175781 178.472656 357.417969 176.359375 358.78125 C 174.246094 360.148438 171.390625 361.636719 168.035156 362.878906 C 164.679688 364.121094 160.703125 365.238281 156.355469 365.984375 C 147.535156 367.472656 137.222656 367.226562 126.785156 365.488281 C 116.472656 363.875 106.40625 360.894531 97.335938 358.039062 Z M 97.335938 358.039062 " fill-opacity="1" fill-rule="nonzero"/><path fill="#3a5a1a" d="M 86.902344 353.320312 C 82.550781 350.464844 74.101562 346.613281 64.785156 345.496094 C 69.753906 345.871094 74.476562 346.613281 78.699219 347.730469 C 82.925781 348.726562 86.777344 349.96875 90.007812 351.085938 C 93.238281 352.203125 95.847656 353.195312 97.710938 353.941406 C 99.574219 354.683594 100.566406 355.058594 100.566406 355.058594 C 98.578125 353.691406 95.101562 351.828125 90.753906 349.84375 C 86.402344 347.980469 81.183594 345.992188 75.59375 344.753906 C 87.148438 346.492188 98.457031 350.960938 107.152344 354.3125 C 111.5 356.050781 115.230469 357.542969 117.839844 358.535156 C 120.449219 359.527344 121.9375 360.148438 121.9375 360.148438 C 117.464844 357.789062 111.003906 354.5625 103.796875 351.332031 C 96.59375 348.105469 88.390625 344.875 80.066406 343.261719 C 93.363281 345.371094 106.40625 350.585938 116.597656 354.1875 C 121.691406 356.050781 125.914062 357.417969 129.019531 358.410156 C 132.128906 359.28125 133.867188 359.777344 133.867188 359.777344 C 124.671875 356.300781 114.484375 351.582031 103.921875 347.609375 C 111.378906 349.96875 118.957031 352.699219 126.535156 354.808594 C 130.386719 355.925781 134.238281 356.796875 137.964844 357.542969 C 141.820312 358.285156 145.546875 358.660156 149.148438 358.90625 C 149.148438 358.90625 147.285156 358.660156 144.054688 358.039062 C 140.824219 357.417969 136.226562 356.300781 130.882812 354.5625 C 125.417969 352.824219 119.082031 350.585938 112.121094 348.105469 C 105.164062 345.621094 97.585938 343.015625 89.507812 341.277344 C 98.332031 342.890625 107.152344 345.621094 115.601562 347.980469 C 119.828125 349.222656 123.925781 350.339844 127.902344 351.207031 C 131.878906 352.078125 135.605469 352.824219 139.085938 353.195312 C 139.085938 353.195312 137.222656 352.824219 133.992188 351.953125 C 130.761719 351.085938 126.164062 349.71875 120.695312 347.855469 C 115.230469 345.992188 108.769531 343.882812 101.808594 341.894531 C 98.332031 340.902344 94.726562 340.035156 91 339.289062 C 87.273438 338.542969 83.421875 338.046875 79.695312 337.675781 C 88.886719 337.921875 98.332031 339.785156 106.53125 341.523438 C 114.730469 343.386719 121.8125 345 126.660156 345.621094 C 126.660156 345.621094 120.570312 343.882812 111.5 341.152344 C 106.90625 339.785156 101.4375 338.296875 95.347656 337.179688 C 89.261719 336.0625 82.675781 335.191406 75.964844 335.316406 C 82.425781 334.820312 88.886719 335.191406 94.230469 335.5625 C 99.574219 336.0625 103.921875 336.558594 106.40625 336.679688 C 106.40625 336.679688 105.164062 336.433594 103.050781 335.8125 C 100.941406 335.316406 97.835938 334.695312 93.984375 334.074219 C 90.128906 333.453125 85.410156 332.957031 80.191406 332.957031 C 74.972656 332.957031 69.257812 333.578125 63.664062 334.941406 C 66.273438 334.199219 68.882812 333.453125 71.492188 332.957031 C 72.859375 332.707031 74.101562 332.460938 75.46875 332.210938 C 76.089844 332.085938 76.710938 331.964844 77.457031 331.839844 C 78.078125 331.714844 78.699219 331.714844 79.320312 331.589844 C 84.292969 330.96875 88.765625 330.722656 91.871094 330.472656 C 91.871094 330.472656 91.496094 330.472656 90.875 330.472656 C 90.253906 330.472656 89.386719 330.347656 88.144531 330.347656 C 87.023438 330.347656 85.535156 330.226562 83.917969 330.347656 C 83.171875 330.347656 82.304688 330.347656 81.433594 330.347656 C 80.5625 330.347656 79.570312 330.472656 78.574219 330.472656 C 74.722656 330.722656 70.25 331.34375 65.777344 332.585938 C 61.304688 333.703125 56.957031 335.316406 52.980469 337.300781 C 55.589844 335.8125 58.324219 334.445312 61.054688 333.203125 C 63.789062 331.964844 66.398438 330.96875 68.761719 330.101562 C 68.761719 330.101562 67.269531 330.347656 65.03125 330.96875 C 62.671875 331.589844 59.566406 332.585938 56.335938 334.074219 C 53.105469 335.5625 49.625 337.425781 46.644531 339.660156 C 43.660156 341.894531 41.050781 344.253906 39.1875 346.613281 C 42.171875 346.988281 45.527344 347.113281 49.003906 347.234375 C 52.484375 347.359375 55.839844 347.609375 58.945312 347.980469 C 62.050781 348.230469 64.660156 348.726562 66.523438 348.972656 C 68.386719 349.347656 69.503906 349.46875 69.503906 349.46875 C 65.902344 347.980469 60.558594 346.738281 55.21875 346.242188 C 59.191406 346.367188 63.167969 346.613281 66.894531 347.234375 C 70.625 347.855469 73.976562 348.726562 76.960938 349.59375 C 77.707031 349.84375 78.453125 350.089844 79.074219 350.214844 C 79.695312 350.464844 80.441406 350.710938 80.9375 350.835938 C 82.179688 351.207031 83.171875 351.707031 84.042969 351.953125 C 84.914062 352.328125 85.65625 352.574219 86.03125 352.824219 C 86.652344 353.195312 86.902344 353.320312 86.902344 353.320312 Z M 86.902344 353.320312 " fill-opacity="1" fill-rule="nonzero"/><path fill="#466d21" d="M 80.8125 306.386719 C 78.203125 312.84375 74.847656 318.179688 71.246094 322.277344 C 67.640625 326.5 64.039062 329.605469 60.808594 331.839844 C 57.578125 334.074219 54.71875 335.441406 52.609375 336.308594 C 50.621094 337.179688 49.378906 337.425781 49.378906 337.425781 C 49.378906 337.425781 49.128906 336.183594 49.003906 333.949219 C 48.878906 331.839844 48.757812 328.609375 49.003906 324.886719 C 49.253906 321.160156 49.625 316.691406 50.742188 311.847656 C 51.738281 307.007812 53.230469 301.667969 55.589844 295.957031 C 57.949219 290.242188 60.808594 284.65625 63.789062 279.316406 C 65.28125 276.710938 66.773438 274.101562 68.261719 271.496094 C 69.753906 269.011719 71.121094 266.777344 72.363281 264.667969 C 74.847656 260.570312 76.339844 256.84375 76.960938 253.863281 C 77.207031 252.375 77.332031 251.132812 77.332031 250.261719 C 77.332031 249.394531 77.332031 248.898438 77.332031 248.898438 C 77.332031 248.898438 77.707031 249.144531 78.453125 249.765625 C 79.074219 250.386719 80.066406 251.378906 81.0625 252.871094 C 82.054688 254.359375 83.171875 256.347656 83.917969 258.707031 C 84.789062 261.066406 85.410156 263.921875 85.78125 266.902344 C 86.15625 269.882812 86.277344 273.109375 86.277344 276.214844 C 86.277344 279.316406 86.15625 282.671875 85.78125 286.023438 C 84.914062 292.976562 83.421875 299.929688 80.8125 306.386719 Z M 80.8125 306.386719 " fill-opacity="1" fill-rule="nonzero"/><path fill="#3a5a1a" d="M 75.71875 313.339844 C 72.613281 315.945312 67.515625 321.035156 62.546875 325.753906 C 67.394531 320.417969 71.246094 314.828125 73.855469 310.605469 C 76.464844 306.386719 77.832031 303.53125 77.832031 303.53125 C 75.46875 306.136719 70.746094 312.46875 65.652344 318.800781 C 70.25 311.972656 74.226562 304.523438 76.835938 298.8125 C 78.203125 295.957031 79.195312 293.472656 79.941406 291.859375 C 80.5625 290.121094 81.0625 289.125 81.0625 289.125 C 79.195312 291.980469 76.835938 296.078125 74.226562 300.796875 C 71.492188 305.390625 68.511719 310.484375 65.40625 315.324219 C 67.640625 311.351562 69.628906 307.253906 71.371094 303.28125 C 73.109375 299.308594 74.601562 295.582031 75.84375 292.230469 C 77.085938 288.878906 77.953125 286.148438 78.574219 284.160156 C 78.949219 283.167969 79.074219 282.421875 79.320312 281.925781 C 79.445312 281.429688 79.570312 281.054688 79.570312 281.054688 C 76.835938 286.765625 73.855469 293.347656 70.625 300.054688 C 74.351562 290.617188 77.085938 280.3125 78.203125 270.875 C 78.203125 270.875 77.953125 271.992188 77.332031 273.976562 C 76.710938 275.964844 75.84375 278.945312 74.722656 282.421875 C 72.363281 289.375 68.882812 298.6875 64.535156 308.246094 C 68.761719 297.695312 71.867188 285.773438 72.734375 276.585938 C 72.734375 276.585938 72.363281 277.828125 71.742188 279.9375 C 71.121094 282.050781 70.25 285.027344 69.132812 288.503906 C 68.015625 291.980469 66.648438 296.078125 65.03125 300.300781 C 63.417969 304.523438 61.679688 308.992188 59.9375 313.339844 C 61.800781 308 63.292969 302.289062 64.410156 297.195312 C 65.53125 292.105469 66.152344 287.511719 66.273438 284.285156 C 66.273438 284.285156 66.027344 285.277344 65.53125 286.890625 C 65.03125 288.503906 64.410156 290.988281 63.542969 293.71875 C 61.925781 299.433594 59.566406 306.882812 56.957031 314.457031 C 58.820312 306.882812 59.9375 299.554688 59.691406 296.328125 C 59.691406 296.328125 58.945312 299.058594 57.703125 303.53125 C 56.460938 308 54.84375 313.960938 53.230469 320.664062 C 54.222656 314.207031 54.71875 307.503906 54.472656 303.777344 C 54.472656 303.777344 53.972656 306.757812 53.230469 311.105469 C 52.484375 315.574219 51.488281 321.285156 50.621094 326.5 C 50.742188 324.636719 50.867188 322.652344 50.867188 320.789062 C 50.867188 318.925781 50.867188 317.1875 50.742188 315.699219 C 50.742188 315.699219 50.621094 316.566406 50.371094 317.933594 C 50.121094 319.296875 49.875 321.160156 49.625 323.394531 C 49.128906 327.742188 48.632812 333.082031 49.378906 337.550781 C 53.601562 336.308594 58.324219 333.328125 61.925781 330.347656 C 63.664062 328.859375 65.28125 327.492188 66.273438 326.5 C 67.269531 325.507812 67.890625 324.761719 67.890625 324.761719 C 66.523438 325.628906 65.03125 326.625 63.417969 327.742188 C 61.800781 328.859375 60.1875 329.976562 58.570312 331.09375 C 62.921875 327.492188 67.269531 323.023438 70.375 319.546875 C 71.992188 317.808594 73.234375 316.195312 74.101562 315.078125 C 75.097656 314.082031 75.71875 313.339844 75.71875 313.339844 Z M 75.71875 313.339844 " fill-opacity="1" fill-rule="nonzero"/><path fill="#466d21" d="M 6.261719 354.808594 C 3.15625 367.597656 -2.683594 376.664062 -7.652344 382.621094 C -12.625 388.457031 -16.847656 391.191406 -16.847656 391.191406 C -16.847656 391.191406 -19.332031 386.84375 -20.949219 379.269531 C -22.5625 371.820312 -23.433594 361.140625 -20.449219 348.601562 C -18.960938 342.394531 -16.847656 336.558594 -14.734375 331.09375 C -12.625 325.632812 -10.636719 320.414062 -9.019531 315.820312 C -7.527344 311.105469 -6.410156 306.882812 -5.789062 303.777344 C -5.417969 302.164062 -5.292969 300.921875 -5.167969 300.054688 C -5.042969 299.183594 -4.917969 298.6875 -4.917969 298.6875 C -4.917969 298.6875 -4.546875 299.058594 -4.050781 299.679688 C -3.429688 300.300781 -2.558594 301.417969 -1.6875 302.785156 C 0.300781 305.515625 2.785156 309.738281 4.648438 315.324219 C 6.511719 320.789062 7.878906 327.492188 8.125 334.445312 C 8.375 341.277344 7.753906 348.351562 6.261719 354.808594 Z M 6.261719 354.808594 " fill-opacity="1" fill-rule="nonzero"/><path fill="#3a5a1a" d="M 2.410156 362.136719 C -0.199219 365.113281 -4.050781 370.828125 -7.652344 376.414062 C -4.296875 370.207031 -1.6875 364.246094 0.0507812 359.777344 C 1.914062 355.429688 2.785156 352.449219 2.785156 352.449219 C 0.796875 355.183594 -2.808594 362.011719 -6.285156 369.089844 C -3.304688 361.515625 -0.570312 353.941406 1.167969 347.980469 C 2.039062 345 2.785156 342.515625 3.15625 340.65625 C 3.527344 338.917969 3.777344 337.800781 3.777344 337.800781 C 2.410156 340.902344 0.546875 345.25 -1.316406 350.214844 C -3.304688 355.058594 -5.417969 360.519531 -7.527344 365.734375 C -6.285156 361.515625 -4.917969 357.167969 -3.800781 353.070312 C -2.683594 348.972656 -1.6875 345 -0.945312 341.648438 C -0.199219 338.296875 0.296875 335.316406 0.546875 333.328125 C 0.796875 331.21875 1.042969 330.101562 1.042969 330.101562 C -0.695312 336.183594 -2.808594 343.136719 -5.042969 350.089844 C -2.808594 340.28125 -1.316406 329.726562 -2.1875 320.292969 C -2.1875 320.292969 -2.1875 320.539062 -2.308594 321.160156 C -2.308594 321.65625 -2.433594 322.527344 -2.558594 323.519531 C -2.808594 325.632812 -3.054688 328.609375 -3.800781 332.210938 C -5.042969 339.414062 -7.28125 348.972656 -9.890625 359.15625 C -7.652344 348.105469 -5.914062 335.9375 -6.660156 326.871094 C -6.660156 326.871094 -7.03125 331.714844 -8.273438 338.917969 C -8.894531 342.515625 -9.640625 346.738281 -10.636719 351.085938 C -11.503906 355.554688 -12.5 360.273438 -13.367188 364.867188 C -12.746094 359.15625 -12 353.320312 -11.628906 348.105469 C -11.257812 342.890625 -11.257812 338.296875 -11.628906 335.191406 C -11.628906 335.191406 -11.753906 336.183594 -12 337.800781 C -12.25 339.539062 -12.5 341.894531 -12.871094 344.875 C -13.617188 350.710938 -14.984375 358.78125 -15.855469 366.730469 C -15.730469 358.90625 -15.605469 351.332031 -16.226562 348.105469 C -16.226562 348.105469 -16.597656 350.960938 -17.097656 355.679688 C -17.59375 360.398438 -17.964844 366.730469 -17.964844 373.808594 C -18.585938 367.226562 -19.332031 360.398438 -20.203125 356.671875 C -20.203125 356.671875 -20.203125 369.335938 -18.835938 380.261719 C -19.582031 376.539062 -20.574219 372.566406 -21.445312 369.585938 C -21.445312 369.585938 -20.824219 383.242188 -16.722656 391.066406 C -9.515625 386.097656 -2.433594 374.304688 -2.433594 374.304688 C -4.546875 376.539062 -7.28125 379.640625 -9.765625 382.5 C -3.554688 373.433594 2.410156 362.136719 2.410156 362.136719 Z M 2.410156 362.136719 " fill-opacity="1" fill-rule="nonzero"/><path fill="#466d21" d="M 36.953125 403.980469 C 33.722656 403.109375 30.988281 402.242188 28.75 401.496094 C 26.515625 400.75 24.652344 400.128906 23.035156 399.757812 C 20.179688 399.011719 16.699219 398.765625 12.972656 399.011719 C 9.246094 399.136719 5.269531 399.632812 1.789062 400.003906 C -1.8125 400.378906 -5.042969 400.875 -8.027344 401.246094 C -14.113281 402.117188 -18.835938 402.738281 -22.066406 403.109375 C -23.679688 403.359375 -25.046875 403.480469 -25.917969 403.605469 C -26.789062 403.730469 -27.285156 403.730469 -27.285156 403.730469 C -27.285156 403.730469 -27.035156 403.359375 -26.539062 402.613281 C -26.042969 401.867188 -25.296875 400.75 -24.300781 399.507812 C -22.191406 396.777344 -18.835938 393.050781 -13.617188 388.832031 C -11.007812 386.71875 -8.027344 384.609375 -4.421875 382.5 C -0.820312 380.386719 3.03125 378.402344 8.003906 376.539062 C 10.488281 375.667969 13.21875 374.925781 16.328125 374.304688 C 19.433594 373.808594 22.789062 373.558594 26.390625 373.808594 C 33.472656 374.304688 39.4375 376.414062 44.035156 377.53125 C 45.152344 377.902344 46.269531 378.027344 47.390625 378.402344 C 48.507812 378.648438 49.625 378.898438 50.742188 379.023438 C 53.105469 379.394531 55.464844 379.765625 57.824219 380.015625 C 62.671875 380.511719 67.890625 380.636719 73.109375 380.636719 C 78.328125 380.636719 83.667969 380.511719 88.765625 380.511719 C 93.859375 380.511719 98.703125 380.511719 103.300781 380.386719 C 112.371094 380.386719 120.074219 380.386719 125.542969 380.511719 C 131.007812 380.511719 134.113281 380.636719 134.113281 380.636719 C 134.113281 380.636719 131.382812 382.25 126.410156 384.609375 C 121.566406 387.09375 114.484375 390.320312 105.785156 393.796875 C 101.4375 395.535156 96.839844 397.273438 91.746094 398.886719 C 86.777344 400.503906 81.433594 402.117188 75.71875 403.480469 C 70.003906 404.847656 63.789062 405.839844 57.203125 406.089844 C 53.972656 406.214844 50.496094 406.089844 47.140625 405.71875 C 45.402344 405.59375 43.660156 405.34375 41.921875 404.972656 C 40.308594 404.722656 38.566406 404.476562 36.953125 403.980469 Z M 36.953125 403.980469 " fill-opacity="1" fill-rule="nonzero"/><path fill="#36441a" d="M -50.644531 463.824219 L -53.75 463.578125 C -53.75 463.082031 -49.898438 409.566406 -28.402344 344.007812 C -15.855469 305.515625 0.296875 270.503906 19.433594 239.832031 C 43.414062 201.464844 72.238281 169.929688 105.164062 146.089844 L 107.027344 148.574219 C 33.101562 202.085938 -5.789062 284.90625 -25.421875 345 C -46.667969 410.0625 -50.519531 463.328125 -50.644531 463.824219 Z M -50.644531 463.824219 " fill-opacity="1" fill-rule="nonzero"/><path fill="#639e23" d="M 136.722656 141.246094 C 125.042969 145.46875 115.476562 148.074219 108.769531 149.566406 C 105.414062 150.3125 102.679688 150.808594 100.941406 151.054688 C 99.078125 151.304688 98.082031 151.429688 98.082031 151.429688 C 98.082031 151.429688 98.703125 150.683594 99.945312 149.195312 C 101.1875 147.828125 103.054688 145.839844 105.785156 143.480469 C 111.128906 138.886719 119.703125 132.929688 132.128906 128.457031 C 138.339844 126.222656 144.800781 124.609375 151.011719 123.492188 C 157.101562 122.375 162.816406 121.628906 167.785156 120.882812 C 172.757812 120.140625 176.855469 119.394531 179.714844 118.648438 C 181.207031 118.277344 182.324219 118.027344 183.070312 117.78125 C 183.816406 117.53125 184.3125 117.53125 184.3125 117.53125 C 184.3125 117.53125 183.9375 117.78125 183.316406 118.402344 C 182.695312 118.898438 181.828125 119.765625 180.585938 120.636719 C 178.097656 122.5 174.496094 124.980469 169.898438 127.339844 C 165.300781 129.824219 159.835938 132.183594 154.121094 134.542969 C 148.402344 136.777344 142.5625 139.136719 136.722656 141.246094 Z M 136.722656 141.246094 " fill-opacity="1" fill-rule="nonzero"/><path fill="#466d21" d="M 129.269531 143.109375 C 125.789062 143.480469 119.578125 144.847656 113.613281 146.460938 C 119.949219 144.351562 125.914062 142.488281 130.261719 141.246094 C 134.613281 139.882812 137.34375 139.136719 137.34375 139.136719 C 134.363281 139.507812 127.28125 141.121094 120.074219 143.359375 C 127.40625 140.75 134.859375 138.265625 140.453125 136.652344 C 146.042969 135.039062 149.894531 133.921875 149.894531 133.921875 C 143.804688 134.789062 132.625 137.644531 122.3125 141.246094 C 130.386719 138.019531 138.835938 135.164062 145.171875 133.175781 C 148.402344 132.183594 151.011719 131.4375 153 130.941406 C 154.863281 130.445312 155.984375 130.070312 155.984375 130.070312 C 150.144531 131.191406 143.308594 132.804688 136.476562 135.039062 C 141.074219 133.425781 145.792969 131.808594 150.515625 130.320312 C 155.238281 128.832031 159.835938 127.339844 164.183594 125.726562 C 164.183594 125.726562 163.066406 126.097656 161.078125 126.59375 C 159.089844 127.09375 156.230469 127.960938 152.753906 128.832031 C 145.792969 130.691406 136.476562 133.546875 126.910156 137.398438 C 132.003906 135.164062 137.46875 133.050781 142.5625 131.066406 C 147.78125 129.078125 152.753906 127.339844 156.976562 125.726562 C 156.976562 125.726562 155.734375 126.097656 153.746094 126.71875 C 151.632812 127.339844 148.652344 128.210938 145.171875 129.328125 C 138.089844 131.5625 129.019531 134.914062 120.570312 138.886719 C 130.636719 133.796875 141.820312 129.078125 147.65625 126.472656 C 147.65625 126.472656 143.804688 127.714844 138.214844 129.824219 C 132.625 131.933594 125.167969 135.164062 118.085938 138.886719 C 124.796875 135.039062 131.382812 131.5625 133.992188 129.949219 C 133.992188 129.949219 131.257812 131.066406 126.910156 133.050781 C 122.683594 135.039062 116.96875 138.019531 111.253906 141.742188 C 116.472656 138.144531 121.9375 134.542969 124.796875 132.429688 C 124.796875 132.429688 122.0625 133.921875 118.210938 136.28125 C 114.484375 138.640625 109.636719 141.742188 105.539062 144.972656 C 108.269531 142.738281 111.128906 140.253906 113.117188 138.515625 C 113.117188 138.515625 110.257812 140.378906 107.027344 142.859375 C 103.675781 145.46875 99.945312 148.820312 97.835938 151.675781 C 101.4375 151.429688 106.160156 150.1875 110.136719 149.195312 C 114.109375 148.199219 117.21875 147.332031 117.21875 147.332031 C 114.609375 147.703125 111.003906 148.324219 107.648438 149.070312 C 112.621094 147.703125 117.960938 146.214844 122.0625 145.097656 C 126.410156 143.855469 129.269531 143.109375 129.269531 143.109375 Z M 129.269531 143.109375 " fill-opacity="1" fill-rule="nonzero"/><path fill="#639e23" d="M 135.605469 185.699219 C 123.800781 186.9375 113.242188 187.933594 103.921875 188.429688 C 101.5625 188.675781 99.324219 188.800781 97.214844 188.925781 C 96.09375 188.925781 95.101562 189.050781 93.984375 189.050781 C 92.988281 189.050781 91.871094 189.175781 90.875 189.175781 C 88.886719 189.296875 86.902344 189.296875 85.160156 189.421875 C 84.292969 189.421875 83.296875 189.421875 82.425781 189.421875 C 81.558594 189.421875 80.6875 189.421875 79.816406 189.546875 C 76.464844 189.671875 73.480469 189.671875 70.871094 189.546875 C 68.261719 189.546875 66.152344 189.546875 64.285156 189.421875 C 60.683594 189.296875 58.820312 189.050781 58.820312 189.050781 C 58.820312 189.050781 60.1875 187.683594 62.921875 185.449219 C 64.285156 184.332031 66.152344 182.964844 68.261719 181.351562 C 70.5 179.863281 72.984375 178.246094 75.964844 176.507812 C 76.710938 176.011719 77.457031 175.640625 78.328125 175.144531 C 79.074219 174.769531 79.941406 174.273438 80.8125 173.902344 C 82.550781 173.03125 84.292969 172.164062 86.277344 171.171875 C 87.273438 170.675781 88.265625 170.300781 89.261719 169.804688 C 90.253906 169.433594 91.375 168.9375 92.367188 168.5625 C 94.480469 167.695312 96.714844 166.824219 99.078125 165.957031 C 108.519531 162.851562 119.703125 159.871094 132.625 158.628906 C 145.421875 157.265625 158.714844 157.636719 171.015625 159.003906 C 183.316406 160.367188 194.75 162.976562 204.441406 165.707031 C 214.132812 168.5625 221.960938 171.542969 227.425781 173.777344 C 232.894531 176.136719 235.875 177.628906 235.875 177.628906 C 235.875 177.628906 232.394531 177.875 226.679688 178 C 220.839844 178.246094 212.640625 178.621094 203.074219 179.242188 C 193.382812 179.984375 182.449219 180.855469 170.894531 182.097656 C 159.460938 183.089844 147.410156 184.582031 135.605469 185.699219 Z M 135.605469 185.699219 " fill-opacity="1" fill-rule="nonzero"/><path fill="#466d21" d="M 121.070312 185.699219 C 119.453125 185.449219 117.464844 185.324219 115.105469 185.078125 C 112.867188 184.953125 110.382812 184.953125 107.648438 184.828125 C 106.285156 184.828125 104.917969 184.828125 103.550781 184.703125 C 102.183594 184.703125 100.691406 184.828125 99.199219 184.828125 C 97.710938 184.828125 96.21875 184.953125 94.726562 184.953125 L 92.492188 185.078125 L 90.253906 185.199219 C 103.054688 183.835938 114.855469 182.84375 123.554688 182.34375 C 125.667969 182.097656 127.652344 182.097656 129.394531 181.972656 C 131.132812 181.847656 132.625 181.847656 133.867188 181.722656 C 136.351562 181.601562 137.71875 181.476562 137.71875 181.476562 C 136.226562 181.226562 134.363281 181.105469 132.003906 180.980469 C 129.640625 180.855469 126.910156 180.730469 123.925781 180.730469 C 120.945312 180.730469 117.714844 180.855469 114.234375 180.855469 C 110.757812 181.105469 107.152344 181.226562 103.550781 181.476562 C 118.460938 179.488281 133.492188 178.371094 144.675781 178.125 C 147.535156 178 150.144531 178 152.378906 178 C 154.617188 178 156.726562 178 158.34375 177.875 C 161.699219 177.875 163.5625 178 163.5625 178 C 152.007812 176.386719 129.640625 175.890625 108.644531 178.496094 C 125.167969 175.890625 142.316406 174.523438 155.113281 174.152344 C 158.34375 174.027344 161.324219 174.027344 163.933594 174.027344 C 166.542969 174.027344 168.90625 173.902344 170.769531 174.027344 C 174.496094 174.152344 176.734375 174.152344 176.734375 174.152344 C 173.875 173.902344 170.894531 173.53125 167.785156 173.28125 C 164.679688 173.15625 161.574219 172.910156 158.21875 172.785156 C 154.988281 172.785156 151.632812 172.785156 148.28125 172.660156 C 144.925781 172.660156 141.445312 172.910156 137.96875 173.03125 C 156.851562 171.292969 176.734375 170.675781 194.5 171.171875 C 194.5 171.171875 194.003906 171.171875 192.886719 171.046875 C 191.890625 170.921875 190.277344 170.796875 188.289062 170.675781 C 186.300781 170.550781 183.9375 170.300781 181.082031 170.175781 C 178.222656 170.054688 175.117188 169.929688 171.636719 169.804688 C 164.679688 169.554688 156.480469 169.679688 147.535156 170.054688 C 145.296875 170.175781 143.0625 170.425781 140.699219 170.550781 C 138.339844 170.796875 135.980469 170.796875 133.617188 171.171875 C 128.898438 171.667969 123.925781 172.164062 119.082031 173.03125 C 124.421875 172.039062 129.890625 171.292969 135.234375 170.425781 C 140.699219 169.804688 146.167969 169.058594 151.511719 168.5625 C 154.242188 168.316406 156.851562 167.941406 159.460938 167.816406 C 162.070312 167.570312 164.679688 167.445312 167.164062 167.320312 C 167.785156 167.320312 168.40625 167.199219 169.027344 167.199219 C 169.648438 167.199219 170.273438 167.199219 170.894531 167.074219 C 172.136719 167.074219 173.378906 166.949219 174.496094 166.949219 C 176.855469 166.824219 179.21875 166.699219 181.453125 166.578125 C 181.453125 166.578125 181.328125 166.578125 180.957031 166.578125 C 180.707031 166.578125 180.210938 166.578125 179.714844 166.578125 C 178.597656 166.578125 176.855469 166.578125 174.746094 166.453125 C 173.625 166.453125 172.507812 166.453125 171.265625 166.453125 C 170.023438 166.453125 168.65625 166.453125 167.164062 166.453125 C 164.183594 166.578125 160.953125 166.578125 157.351562 166.699219 C 153.746094 166.949219 149.894531 167.074219 145.917969 167.445312 C 143.929688 167.695312 141.820312 167.816406 139.707031 168.066406 C 137.59375 168.316406 135.480469 168.4375 133.246094 168.8125 C 128.898438 169.433594 124.421875 169.929688 119.949219 170.796875 C 117.714844 171.171875 115.476562 171.542969 113.242188 171.914062 C 111.003906 172.414062 108.769531 172.910156 106.53125 173.28125 C 107.898438 172.910156 109.140625 172.660156 110.507812 172.289062 C 111.875 171.914062 113.242188 171.667969 114.484375 171.292969 C 117.21875 170.675781 119.828125 170.054688 122.558594 169.554688 C 125.292969 168.9375 127.902344 168.5625 130.511719 167.941406 C 131.878906 167.695312 133.121094 167.445312 134.363281 167.199219 C 135.605469 166.949219 136.972656 166.824219 138.214844 166.578125 C 140.699219 166.203125 143.183594 165.707031 145.546875 165.335938 C 147.90625 164.960938 150.144531 164.589844 152.253906 164.339844 C 154.367188 163.96875 156.355469 163.722656 158.21875 163.472656 C 160.082031 163.222656 161.824219 162.976562 163.3125 162.726562 C 163.3125 162.726562 161.324219 162.851562 157.847656 162.976562 C 156.105469 163.101562 153.996094 163.222656 151.632812 163.472656 C 149.273438 163.71875 146.539062 163.84375 143.683594 164.21875 C 132.003906 165.460938 116.472656 168.066406 101.5625 172.164062 C 105.164062 171.046875 108.769531 169.929688 112.125 168.9375 C 115.601562 167.941406 118.832031 167.074219 121.816406 166.203125 C 124.796875 165.335938 127.652344 164.714844 130.015625 163.96875 C 132.375 163.347656 134.363281 162.726562 135.855469 162.230469 C 135.855469 162.230469 134.363281 162.355469 131.878906 162.851562 C 130.636719 163.101562 129.019531 163.347656 127.15625 163.71875 C 125.292969 164.09375 123.304688 164.339844 121.070312 164.960938 C 112.125 166.824219 99.945312 170.175781 87.644531 175.019531 L 89.757812 174.027344 L 91.871094 173.15625 C 93.238281 172.535156 94.726562 171.914062 96.09375 171.417969 C 97.460938 170.796875 98.828125 170.175781 100.195312 169.679688 C 101.5625 169.183594 102.929688 168.5625 104.171875 168.066406 C 106.78125 167.074219 109.265625 165.957031 111.5 165.085938 C 113.738281 164.21875 115.726562 163.472656 117.339844 162.726562 C 117.339844 162.726562 115.851562 163.101562 113.367188 163.84375 C 112.746094 163.96875 112 164.21875 111.253906 164.464844 C 110.507812 164.714844 109.761719 164.960938 108.894531 165.210938 C 107.152344 165.832031 105.289062 166.453125 103.175781 167.074219 C 102.183594 167.445312 101.066406 167.816406 99.945312 168.191406 C 98.828125 168.5625 97.710938 169.058594 96.59375 169.433594 C 94.355469 170.300781 91.996094 171.292969 89.632812 172.164062 C 87.273438 173.15625 84.914062 174.273438 82.550781 175.390625 C 81.308594 175.890625 80.191406 176.507812 79.074219 177.007812 C 77.953125 177.628906 76.710938 178.125 75.59375 178.746094 C 78.574219 176.882812 81.683594 175.269531 84.539062 173.652344 C 86.03125 172.785156 87.398438 172.039062 88.765625 171.292969 C 90.132812 170.550781 91.375 169.804688 92.617188 169.183594 C 92.617188 169.183594 91.125 169.804688 88.640625 170.796875 C 86.15625 171.914062 82.925781 173.40625 79.195312 175.269531 C 75.59375 177.128906 71.617188 179.488281 68.015625 181.722656 C 64.410156 184.207031 61.058594 186.691406 58.570312 189.050781 C 62.050781 189.421875 66.152344 189.421875 70.375 189.296875 C 74.601562 189.296875 78.949219 189.050781 82.925781 188.800781 C 86.902344 188.675781 90.378906 188.429688 92.863281 188.304688 C 95.347656 188.179688 96.964844 188.058594 96.964844 188.058594 C 95.722656 187.933594 94.355469 187.808594 92.863281 187.683594 C 91.375 187.683594 89.882812 187.558594 88.265625 187.558594 C 85.035156 187.558594 81.558594 187.4375 78.203125 187.558594 C 79.445312 187.4375 80.6875 187.3125 81.929688 187.1875 C 83.171875 187.0625 84.414062 187.0625 85.65625 186.9375 C 88.144531 186.816406 90.628906 186.566406 93.113281 186.441406 C 95.597656 186.320312 97.957031 186.195312 100.320312 186.070312 C 101.4375 185.945312 102.554688 185.945312 103.675781 185.820312 C 104.792969 185.820312 105.785156 185.820312 106.90625 185.699219 C 108.890625 185.574219 110.878906 185.574219 112.496094 185.574219 C 113.367188 185.574219 114.109375 185.574219 114.855469 185.449219 C 115.601562 185.449219 116.222656 185.449219 116.84375 185.449219 C 119.578125 185.699219 121.070312 185.699219 121.070312 185.699219 Z M 121.070312 185.699219 " fill-opacity="1" fill-rule="nonzero"/><g clip-path="url(#2819cea87e)"><path fill="#639e23" d="M 73.480469 166.203125 C 68.386719 176.261719 62.921875 184.207031 58.074219 190.914062 C 53.230469 197.617188 48.757812 203.082031 45.152344 207.550781 C 43.289062 209.785156 41.671875 211.773438 40.183594 213.511719 C 38.691406 215.25 37.449219 216.738281 36.457031 217.980469 C 34.34375 220.339844 33.101562 221.707031 33.101562 221.707031 C 33.101562 221.707031 32.726562 220.089844 32.355469 216.738281 C 32.230469 215.125 32.105469 213.136719 32.105469 210.65625 C 32.105469 208.296875 32.230469 205.441406 32.605469 202.460938 C 33.226562 196.25 34.839844 188.800781 37.699219 180.484375 C 40.429688 172.164062 44.40625 163.222656 49.253906 153.789062 C 51.613281 149.070312 54.097656 144.476562 56.582031 140.003906 C 58.945312 135.535156 61.179688 131.066406 63.292969 126.59375 C 67.515625 117.78125 70.871094 109.335938 72.984375 101.515625 C 75.097656 93.816406 75.84375 86.863281 75.964844 81.773438 C 75.964844 80.53125 76.089844 79.414062 75.964844 78.417969 C 75.964844 77.425781 75.84375 76.558594 75.84375 75.9375 C 75.84375 74.570312 75.71875 73.824219 75.71875 73.824219 C 75.71875 73.824219 76.089844 74.445312 76.960938 75.5625 C 77.332031 76.183594 77.832031 76.929688 78.328125 77.800781 C 78.824219 78.667969 79.445312 79.785156 80.066406 80.902344 C 82.550781 85.621094 85.285156 92.945312 86.527344 102.257812 C 87.769531 111.570312 87.398438 122.621094 85.160156 133.796875 C 84.042969 139.382812 82.425781 144.972656 80.4375 150.433594 C 78.328125 155.898438 75.964844 161.113281 73.480469 166.203125 Z M 73.480469 166.203125 " fill-opacity="1" fill-rule="nonzero"/></g><path fill="#466d21" d="M 65.53125 177.128906 C 61.179688 181.476562 53.972656 189.671875 47.636719 198.113281 C 53.972656 188.800781 59.9375 179.984375 64.285156 173.28125 C 68.636719 166.578125 71.121094 162.105469 71.121094 162.105469 C 69.382812 164.21875 66.648438 167.816406 63.292969 172.164062 C 60.0625 176.507812 56.210938 181.601562 52.609375 186.9375 C 59.566406 175.640625 66.894531 164.09375 71.742188 154.90625 C 72.984375 152.671875 74.101562 150.433594 74.972656 148.574219 C 75.84375 146.585938 76.710938 144.972656 77.332031 143.480469 C 78.574219 140.625 79.195312 139.011719 79.195312 139.011719 C 76.464844 143.855469 72.613281 150.808594 67.890625 158.257812 C 63.292969 165.707031 57.949219 173.777344 52.980469 181.722656 C 56.582031 175.269531 60.433594 168.6875 63.789062 162.480469 C 67.144531 156.148438 70.25 150.1875 72.488281 144.722656 C 73.730469 141.992188 74.601562 139.507812 75.46875 137.273438 C 76.214844 135.039062 77.085938 133.050781 77.582031 131.4375 C 78.078125 129.824219 78.574219 128.457031 78.824219 127.589844 C 79.074219 126.71875 79.195312 126.222656 79.195312 126.222656 C 77.332031 131.066406 75.097656 136.28125 72.488281 141.621094 C 69.878906 146.957031 67.019531 152.296875 64.039062 157.636719 C 65.902344 153.910156 67.640625 149.9375 69.382812 146.089844 C 70.996094 142.117188 72.613281 138.144531 73.855469 134.046875 C 75.222656 129.949219 76.214844 125.851562 77.085938 121.878906 C 77.832031 117.78125 78.453125 113.804688 78.699219 109.832031 C 78.699219 109.832031 78.574219 110.328125 78.453125 111.199219 C 78.328125 112.066406 77.953125 113.433594 77.707031 115.171875 C 77.332031 116.910156 76.835938 118.898438 76.214844 121.378906 C 75.46875 123.738281 74.722656 126.472656 73.730469 129.328125 C 71.742188 135.164062 69.132812 141.867188 65.652344 148.945312 C 62.300781 156.023438 58.324219 163.597656 54.097656 171.292969 C 58.324219 162.851562 62.546875 153.910156 65.902344 145.21875 C 69.132812 136.527344 71.492188 127.960938 72.613281 120.511719 C 72.613281 120.511719 72.488281 121.007812 72.238281 122 C 71.992188 122.871094 71.617188 124.238281 71.121094 125.976562 C 70.125 129.453125 68.511719 134.292969 66.273438 139.882812 C 64.039062 145.59375 61.054688 152.050781 57.703125 158.878906 C 54.347656 165.707031 50.742188 172.910156 47.265625 179.984375 C 51.117188 171.171875 55.09375 162.230469 58.199219 154.035156 C 61.304688 145.964844 63.417969 138.761719 64.410156 133.671875 C 64.410156 133.671875 63.914062 135.164062 62.921875 137.894531 C 62.421875 139.261719 61.800781 140.875 61.054688 142.738281 C 60.3125 144.597656 59.566406 146.710938 58.570312 148.945312 C 54.84375 158.007812 48.878906 170.175781 43.660156 182.59375 C 45.898438 176.386719 48.132812 170.425781 49.875 165.335938 C 51.613281 160.242188 52.855469 156.023438 53.476562 153.539062 C 53.476562 153.539062 51.488281 158.007812 48.507812 165.210938 C 45.527344 172.414062 41.175781 182.46875 37.820312 193.769531 C 40.429688 183.089844 43.539062 172.414062 44.65625 166.328125 C 44.65625 166.328125 42.917969 171.171875 40.554688 178.371094 C 38.195312 185.574219 35.460938 195.132812 33.96875 204.074219 C 34.589844 197.988281 35.585938 191.410156 36.207031 186.691406 C 36.207031 186.691406 35.835938 188.058594 35.210938 190.292969 C 34.589844 192.652344 33.847656 195.753906 33.226562 199.355469 C 32.851562 201.09375 32.605469 203.082031 32.355469 205.066406 C 32.105469 207.054688 31.980469 209.039062 31.980469 210.902344 C 31.980469 212.890625 31.980469 214.753906 32.105469 216.613281 C 32.230469 218.476562 32.480469 220.089844 32.851562 221.582031 C 33.96875 220.464844 35.089844 219.222656 36.207031 217.855469 C 37.324219 216.492188 38.566406 215.125 39.6875 213.632812 C 40.929688 212.144531 42.046875 210.65625 43.164062 209.289062 C 44.28125 207.800781 45.402344 206.433594 46.394531 205.066406 C 48.507812 202.335938 50.371094 199.976562 51.738281 198.113281 C 53.105469 196.375 53.851562 195.257812 53.851562 195.257812 C 50.621094 198.363281 46.394531 202.957031 42.667969 207.550781 C 47.636719 200.472656 53.351562 193.023438 57.824219 187.1875 C 62.300781 181.351562 65.53125 177.128906 65.53125 177.128906 Z M 65.53125 177.128906 " fill-opacity="1" fill-rule="nonzero"/><path fill="#639e23" d="M 52.109375 275.59375 C 43.414062 278.324219 35.335938 281.800781 27.882812 285.152344 C 20.425781 288.503906 13.46875 291.484375 7.628906 293.84375 C 1.789062 296.203125 -3.179688 297.816406 -6.535156 298.8125 C -9.890625 299.804688 -11.878906 300.175781 -11.878906 300.175781 C -11.878906 300.175781 -11.378906 298.316406 -10.261719 294.960938 C -9.019531 291.609375 -7.15625 286.890625 -3.800781 281.054688 C -0.445312 275.34375 4.152344 268.515625 11.234375 261.4375 C 14.835938 257.960938 18.9375 254.484375 24.03125 251.257812 C 29.125 248.027344 34.964844 245.046875 41.671875 242.9375 C 48.382812 240.828125 55.464844 239.710938 62.175781 239.460938 C 68.882812 239.210938 75.34375 239.832031 81.433594 240.828125 C 93.484375 242.8125 103.796875 246.414062 112.496094 249.640625 C 116.84375 251.257812 120.820312 252.746094 124.300781 254.113281 C 127.902344 255.476562 130.882812 256.59375 133.492188 257.464844 C 136.101562 258.332031 138.089844 258.953125 139.582031 259.203125 C 141.074219 259.574219 141.820312 259.699219 141.820312 259.699219 C 141.820312 259.699219 141.074219 260.070312 139.707031 260.691406 C 138.339844 261.3125 136.101562 262.058594 133.371094 262.804688 C 130.511719 263.546875 127.15625 264.167969 123.304688 264.789062 C 119.453125 265.410156 115.105469 266.03125 110.507812 266.527344 C 101.1875 267.644531 90.628906 268.390625 80.4375 269.632812 C 75.34375 270.253906 70.25 271 65.53125 271.992188 C 60.933594 272.984375 56.460938 274.226562 52.109375 275.59375 Z M 52.109375 275.59375 " fill-opacity="1" fill-rule="nonzero"/><path fill="#466d21" d="M 40.554688 277.703125 C 39.066406 277.703125 37.449219 278.074219 35.460938 278.324219 C 34.46875 278.449219 33.472656 278.820312 32.355469 279.070312 C 31.859375 279.195312 31.238281 279.316406 30.738281 279.441406 C 30.242188 279.566406 29.621094 279.8125 29 279.9375 C 24.402344 281.304688 19.183594 283.289062 14.214844 285.648438 C 19.433594 282.792969 24.402344 280.1875 29 278.074219 C 33.597656 275.964844 37.820312 274.351562 41.300781 273.234375 C 43.039062 272.738281 44.65625 272.117188 46.023438 271.742188 C 47.390625 271.371094 48.632812 271 49.625 270.875 C 51.613281 270.503906 52.730469 270.253906 52.730469 270.253906 C 50.246094 270.128906 46.148438 270.378906 41.050781 271.496094 C 35.957031 272.613281 29.996094 274.722656 23.90625 277.578125 C 29.871094 274.226562 35.957031 271.496094 41.796875 269.382812 C 47.636719 267.398438 53.105469 266.15625 57.824219 265.535156 C 62.546875 264.914062 66.773438 264.789062 69.628906 264.789062 C 71.121094 264.789062 72.238281 264.789062 72.984375 264.789062 C 73.730469 264.789062 74.226562 264.789062 74.226562 264.789062 C 72.984375 264.542969 71.492188 264.292969 70.003906 264.167969 C 68.386719 264.046875 66.773438 263.921875 65.03125 263.671875 C 64.164062 263.671875 63.167969 263.671875 62.300781 263.671875 C 61.800781 263.671875 61.304688 263.671875 60.808594 263.671875 C 60.3125 263.671875 59.8125 263.671875 59.316406 263.671875 C 58.324219 263.671875 57.328125 263.796875 56.335938 263.796875 C 55.339844 263.921875 54.347656 264.046875 53.230469 264.167969 C 44.78125 265.164062 35.460938 268.265625 26.886719 272.738281 C 33.597656 268.886719 40.554688 265.660156 47.390625 263.546875 C 54.222656 261.4375 60.808594 260.570312 66.648438 260.070312 C 72.488281 259.699219 77.332031 259.824219 80.8125 259.949219 C 82.550781 259.949219 83.917969 260.070312 84.914062 260.195312 C 85.90625 260.195312 86.402344 260.320312 86.402344 260.320312 C 81.183594 259.328125 75.46875 258.582031 69.503906 258.457031 C 63.542969 258.332031 57.203125 258.707031 51.117188 260.070312 C 55.339844 258.953125 59.691406 258.085938 64.039062 257.589844 C 68.386719 257.09375 72.859375 256.71875 77.332031 256.59375 C 86.15625 256.347656 94.976562 256.84375 103.425781 257.09375 C 103.425781 257.09375 101.3125 256.84375 97.710938 256.347656 C 93.984375 255.851562 88.640625 255.230469 82.179688 254.855469 C 75.71875 254.484375 67.890625 254.359375 59.566406 255.601562 C 58.570312 255.726562 57.453125 255.976562 56.460938 256.097656 C 55.960938 256.222656 55.339844 256.222656 54.84375 256.347656 C 54.347656 256.472656 53.726562 256.59375 53.230469 256.71875 C 52.109375 256.96875 51.117188 257.214844 50 257.464844 C 48.878906 257.835938 47.886719 258.085938 46.769531 258.457031 C 42.417969 259.824219 38.070312 261.5625 33.96875 263.671875 C 42.792969 258.707031 53.105469 255.105469 63.167969 253.492188 C 73.234375 251.753906 83.171875 251.378906 91.496094 251.132812 C 91.496094 251.132812 89.261719 250.882812 85.160156 250.761719 C 81.183594 250.636719 75.34375 250.386719 68.511719 250.882812 C 61.679688 251.378906 53.601562 252.621094 45.527344 255.476562 C 44.53125 255.851562 43.539062 256.222656 42.542969 256.59375 C 41.550781 256.96875 40.554688 257.339844 39.5625 257.835938 C 37.574219 258.707031 35.585938 259.574219 33.722656 260.691406 C 29.871094 262.679688 26.144531 265.039062 22.539062 267.523438 C 26.640625 264.292969 31.113281 261.3125 35.710938 258.707031 C 40.308594 255.976562 45.152344 253.863281 50 252 C 51.242188 251.628906 52.359375 251.132812 53.476562 250.761719 C 54.59375 250.386719 55.839844 250.015625 56.957031 249.765625 C 57.578125 249.640625 58.074219 249.394531 58.695312 249.269531 C 59.316406 249.144531 59.8125 249.023438 60.3125 248.898438 C 61.429688 248.648438 62.421875 248.402344 63.542969 248.027344 C 65.652344 247.53125 67.640625 247.160156 69.382812 246.785156 C 71.246094 246.414062 72.859375 246.042969 74.476562 245.792969 C 74.476562 245.792969 73.976562 245.792969 73.109375 245.917969 C 72.238281 246.042969 70.871094 246.042969 69.132812 246.164062 C 65.777344 246.539062 60.808594 247.035156 55.09375 248.523438 C 49.253906 249.890625 42.667969 252.25 36.207031 255.601562 C 29.746094 258.953125 23.410156 263.175781 17.570312 268.019531 C 22.914062 263.050781 28.628906 258.457031 33.847656 254.980469 C 39.066406 251.378906 43.910156 248.898438 46.644531 247.160156 C 46.644531 247.160156 45.152344 247.65625 42.667969 248.648438 C 41.425781 249.144531 39.933594 249.890625 38.195312 250.636719 C 36.457031 251.503906 34.589844 252.5 32.601562 253.617188 C 28.628906 255.976562 24.03125 259.078125 19.558594 262.804688 C 15.085938 266.527344 10.613281 270.875 6.386719 275.71875 C 9.988281 271 13.964844 266.40625 17.816406 262.183594 C 18.316406 261.6875 18.8125 261.191406 19.183594 260.691406 C 19.679688 260.195312 20.179688 259.699219 20.550781 259.203125 C 21.546875 258.210938 22.414062 257.339844 23.285156 256.472656 C 25.023438 254.734375 26.640625 253.117188 28.007812 251.878906 C 28.007812 251.878906 26.640625 252.746094 24.527344 254.484375 C 23.410156 255.355469 22.167969 256.347656 20.800781 257.589844 C 20.179688 258.210938 19.433594 258.832031 18.6875 259.453125 C 17.941406 260.070312 17.195312 260.816406 16.449219 261.5625 C 10.113281 267.523438 3.28125 275.964844 -2.0625 284.035156 C 1.167969 278.324219 4.894531 272.242188 7.753906 267.644531 C 7.753906 267.644531 7.503906 267.894531 7.007812 268.515625 C 6.511719 269.011719 5.890625 269.882812 5.019531 270.875 C 3.40625 272.859375 1.292969 275.71875 -0.945312 279.070312 C -5.292969 285.648438 -9.640625 293.96875 -11.378906 300.550781 C -4.546875 299.183594 3.902344 295.457031 10.613281 292.355469 C 17.195312 289.375 22.414062 287.015625 22.414062 287.015625 C 17.816406 288.007812 11.480469 290.242188 5.640625 292.726562 C 13.964844 288.503906 22.910156 284.285156 29.746094 281.675781 C 30.617188 281.304688 31.359375 281.054688 32.230469 280.808594 C 32.976562 280.558594 33.722656 280.3125 34.46875 280.0625 C 35.832031 279.566406 37.078125 279.195312 38.070312 278.945312 C 39.4375 277.953125 40.554688 277.703125 40.554688 277.703125 Z M 40.554688 277.703125 " fill-opacity="1" fill-rule="nonzero"/><path fill="#639e23" d="M 8.125 197.742188 C 11.855469 209.289062 13.222656 219.96875 13.34375 229.402344 C 13.46875 238.714844 12.351562 246.785156 10.859375 253.117188 C 9.367188 259.453125 7.503906 264.292969 6.015625 267.398438 C 4.523438 270.625 3.53125 272.117188 3.53125 272.117188 C 3.53125 272.117188 2.410156 270.503906 0.671875 267.644531 C -1.066406 264.667969 -3.429688 260.320312 -6.164062 254.855469 C -8.894531 249.269531 -11.878906 242.566406 -14.984375 234.867188 C -18.089844 227.042969 -21.320312 218.230469 -24.425781 208.171875 C -26.042969 203.203125 -27.53125 198.113281 -29.023438 192.773438 C -30.515625 187.4375 -32.007812 181.972656 -33.25 176.507812 C -34.492188 170.921875 -35.484375 165.335938 -35.980469 159.871094 C -36.601562 154.285156 -36.601562 149.316406 -36.601562 144.847656 C -36.601562 140.378906 -36.480469 136.40625 -36.726562 132.929688 C -36.851562 129.453125 -37.101562 126.347656 -37.597656 123.863281 C -37.84375 122.621094 -38.09375 121.503906 -38.34375 120.386719 C -38.589844 119.394531 -38.839844 118.523438 -39.089844 117.902344 C -39.585938 116.539062 -39.832031 115.792969 -39.832031 115.792969 C -39.832031 115.792969 -39.210938 116.164062 -37.96875 117.035156 C -37.347656 117.40625 -36.601562 118.027344 -35.734375 118.773438 C -34.863281 119.519531 -33.992188 120.386719 -33 121.378906 C -31.011719 123.492188 -28.777344 126.222656 -26.539062 129.574219 C -24.300781 132.929688 -22.191406 136.777344 -20.078125 140.875 C -17.964844 144.972656 -15.855469 149.195312 -13.617188 153.289062 C -11.378906 157.511719 -8.769531 161.859375 -6.285156 166.453125 C -3.675781 171.046875 -1.066406 176.011719 1.542969 181.226562 C 3.902344 186.195312 6.261719 191.90625 8.125 197.742188 Z M 8.125 197.742188 " fill-opacity="1" fill-rule="nonzero"/><path fill="#466d21" d="M 9.867188 212.394531 C 9.617188 215.746094 9.367188 220.464844 9.121094 225.804688 C 8.871094 231.140625 8.375 236.976562 7.878906 242.6875 C 8.25 230.398438 7.132812 218.726562 5.640625 210.40625 C 4.894531 206.183594 4.152344 202.832031 3.652344 200.472656 C 3.03125 198.113281 2.785156 196.75 2.785156 196.75 C 2.90625 199.726562 3.40625 204.445312 3.902344 210.28125 C 4.398438 216.117188 4.894531 222.945312 5.144531 229.898438 C 4.398438 222.824219 3.28125 215.746094 1.914062 209.039062 C 0.546875 202.460938 -1.066406 196.25 -2.683594 191.035156 C -4.296875 185.820312 -5.664062 181.601562 -6.660156 178.746094 C -7.652344 175.890625 -8.273438 174.152344 -8.273438 174.152344 C -7.40625 179.613281 -5.417969 187.3125 -3.429688 196.375 C -2.433594 200.847656 -1.441406 205.6875 -0.695312 210.53125 C 0.175781 215.371094 0.921875 220.339844 1.542969 225.304688 C 0.175781 217.609375 -1.566406 209.910156 -3.675781 202.707031 C -5.789062 195.507812 -8.148438 188.925781 -10.136719 183.339844 C -12.25 177.75 -13.988281 173.15625 -15.230469 169.929688 C -16.351562 166.699219 -17.097656 164.839844 -17.097656 164.839844 C -14.859375 175.019531 -10.757812 186.816406 -7.40625 199.109375 C -10.136719 190.789062 -13.742188 182.59375 -17.097656 174.523438 C -20.574219 166.453125 -23.804688 158.628906 -26.539062 150.933594 C -26.539062 150.933594 -26.167969 152.917969 -25.171875 156.394531 C -24.179688 159.871094 -22.6875 164.960938 -20.574219 170.921875 C -18.460938 176.882812 -15.855469 183.960938 -13.121094 191.535156 C -10.386719 199.230469 -7.777344 207.550781 -5.539062 216.367188 C -8.273438 206.929688 -11.878906 197.492188 -15.976562 188.675781 C -19.953125 179.863281 -24.179688 171.542969 -27.78125 164.09375 C -27.78125 164.09375 -27.035156 166.203125 -25.667969 169.929688 C -24.300781 173.53125 -22.316406 178.621094 -19.953125 184.582031 C -17.46875 190.539062 -14.859375 197.371094 -12.25 204.695312 C -9.765625 212.019531 -7.40625 219.96875 -5.417969 227.789062 C -8.273438 218.476562 -11.878906 209.039062 -15.730469 201.09375 C -19.582031 193.023438 -23.558594 186.195312 -26.539062 181.351562 C -26.539062 181.351562 -23.804688 187.683594 -19.582031 197.246094 C -15.605469 206.558594 -10.882812 219.222656 -7.03125 232.257812 C -11.628906 219.84375 -17.34375 208.667969 -20.574219 204.445312 C -20.574219 204.445312 -20.078125 205.5625 -19.332031 207.675781 C -18.460938 209.785156 -17.34375 212.640625 -15.855469 216.242188 C -12.996094 223.566406 -9.269531 233.5 -5.539062 244.675781 C -7.652344 239.585938 -10.015625 234.617188 -12.25 230.273438 C -14.609375 225.925781 -16.847656 222.328125 -18.585938 219.84375 C -18.585938 219.84375 -18.089844 220.960938 -17.097656 222.945312 C -16.597656 223.941406 -16.101562 225.183594 -15.480469 226.546875 C -14.859375 227.914062 -14.113281 229.527344 -13.367188 231.140625 C -10.386719 237.847656 -6.660156 246.910156 -3.429688 255.355469 C -6.039062 249.765625 -9.269531 244.054688 -11.878906 240.082031 C -11.878906 240.082031 -11.378906 241.324219 -10.511719 243.433594 C -9.640625 245.546875 -8.273438 248.523438 -6.90625 251.753906 C -3.925781 258.332031 -0.445312 266.527344 3.40625 272.117188 C 6.882812 266.28125 9.492188 257.339844 10.734375 249.765625 C 11.355469 245.917969 11.730469 242.566406 11.976562 240.082031 C 12.226562 237.597656 12.226562 236.109375 12.226562 236.109375 C 11.109375 241.074219 9.742188 247.902344 8.125 254.238281 C 9.742188 244.925781 10.238281 234.371094 10.238281 226.300781 C 10.238281 224.3125 10.113281 222.449219 10.113281 220.710938 C 9.988281 218.972656 9.988281 217.609375 9.867188 216.367188 C 9.992188 213.757812 9.867188 212.394531 9.867188 212.394531 Z M 9.867188 212.394531 " fill-opacity="1" fill-rule="nonzero"/><path fill="#639e23" d="M 4.027344 366.109375 C -1.9375 371.324219 -7.527344 375.421875 -12.625 378.898438 C -15.230469 380.636719 -17.59375 382.125 -19.953125 383.617188 C -22.191406 385.105469 -24.425781 386.347656 -26.414062 387.464844 C -27.410156 388.085938 -28.402344 388.582031 -29.398438 389.078125 C -30.265625 389.574219 -31.136719 390.070312 -32.007812 390.570312 C -32.875 391.066406 -33.621094 391.4375 -34.367188 391.808594 C -35.113281 392.183594 -35.734375 392.554688 -36.355469 392.929688 C -38.839844 394.292969 -40.332031 394.914062 -40.332031 394.914062 C -40.332031 394.914062 -40.828125 393.425781 -41.199219 390.570312 C -41.324219 389.824219 -41.324219 389.078125 -41.449219 388.210938 C -41.449219 387.339844 -41.449219 386.347656 -41.449219 385.355469 C -41.449219 384.359375 -41.449219 383.242188 -41.324219 382 C -41.199219 380.761719 -41.074219 379.519531 -40.828125 378.277344 C -40.453125 375.542969 -39.710938 372.8125 -38.714844 369.585938 C -37.597656 366.605469 -36.230469 363.253906 -34.492188 360.023438 C -30.886719 353.445312 -25.667969 346.613281 -18.710938 340.53125 C -11.753906 334.445312 -3.925781 329.605469 3.652344 325.753906 C 11.355469 321.90625 18.8125 319.050781 25.398438 316.566406 C 38.691406 311.847656 48.507812 309.738281 48.507812 309.738281 C 48.507812 309.738281 43.785156 318.675781 35.710938 330.226562 C 31.609375 335.9375 26.640625 342.394531 21.171875 348.601562 C 15.953125 354.808594 9.992188 360.769531 4.027344 366.109375 Z M 4.027344 366.109375 " fill-opacity="1" fill-rule="nonzero"/><path fill="#466d21" d="M -4.671875 370.828125 C -9.269531 372.191406 -16.972656 375.667969 -23.804688 380.261719 C -16.972656 374.800781 -10.511719 370.207031 -5.789062 366.730469 C -0.945312 363.375 2.039062 361.140625 2.039062 361.140625 C -1.9375 362.507812 -10.386719 366.851562 -18.460938 372.6875 C -10.757812 365.984375 -2.683594 359.898438 3.777344 355.429688 C 7.007812 353.195312 9.617188 351.332031 11.480469 349.96875 C 13.34375 348.601562 14.464844 347.855469 14.464844 347.855469 C 6.757812 351.085938 -6.660156 358.90625 -17.71875 368.21875 C -9.515625 360.273438 -0.324219 352.945312 6.757812 347.484375 C 10.238281 344.753906 13.34375 342.515625 15.457031 340.902344 C 17.570312 339.289062 18.8125 338.417969 18.8125 338.417969 C 11.730469 342.269531 3.652344 347.234375 -3.925781 352.945312 C 5.890625 344.378906 16.699219 335.6875 25.769531 327.121094 C 25.769531 327.121094 20.675781 330.597656 12.847656 336.308594 C 5.019531 342.019531 -5.539062 349.84375 -15.480469 359.402344 C -5.167969 348.351562 7.007812 337.675781 15.582031 328.734375 C 15.582031 328.734375 14.214844 329.726562 11.976562 331.589844 C 9.617188 333.328125 6.386719 335.9375 2.535156 339.039062 C -5.167969 345.375 -15.109375 354.066406 -23.183594 363.875 C -14.113281 351.332031 -2.558594 339.414062 2.785156 332.460938 C 2.785156 332.460938 1.789062 333.328125 -0.0742188 334.941406 C -1.8125 336.558594 -4.421875 338.792969 -7.40625 341.648438 C -13.367188 347.359375 -21.070312 355.429688 -27.285156 364.617188 C -21.816406 355.183594 -15.730469 346.738281 -13.617188 342.640625 C -13.617188 342.640625 -14.363281 343.386719 -15.605469 344.753906 C -16.847656 346.117188 -18.710938 348.105469 -20.699219 350.710938 C -24.800781 355.804688 -30.140625 363.253906 -34.242188 372.191406 C -31.136719 363.625 -26.910156 354.933594 -24.921875 349.84375 C -24.921875 349.84375 -25.546875 350.835938 -26.539062 352.449219 C -27.035156 353.320312 -27.65625 354.3125 -28.277344 355.429688 C -28.898438 356.546875 -29.644531 357.914062 -30.390625 359.28125 C -33.371094 364.992188 -36.851562 372.6875 -38.589844 380.140625 C -37.84375 374.925781 -36.480469 369.335938 -35.609375 365.238281 C -35.609375 365.238281 -36.105469 366.355469 -36.851562 368.21875 C -37.597656 370.082031 -38.46875 372.8125 -39.335938 375.792969 C -40.082031 378.898438 -40.703125 382.25 -40.828125 385.601562 C -40.828125 386.472656 -40.953125 387.214844 -40.953125 388.085938 C -40.953125 388.953125 -40.828125 389.699219 -40.828125 390.570312 C -40.703125 392.183594 -40.453125 393.671875 -40.082031 395.039062 C -38.714844 394.417969 -37.472656 393.796875 -36.105469 392.929688 C -34.863281 392.183594 -33.496094 391.3125 -32.128906 390.570312 C -29.519531 388.953125 -26.910156 387.339844 -24.675781 385.851562 C -22.316406 384.484375 -20.449219 383.117188 -18.960938 382.25 C -17.46875 381.378906 -16.722656 380.761719 -16.722656 380.761719 C -20.203125 382 -24.800781 384.113281 -28.777344 386.59375 C -23.308594 382.5 -17.21875 378.523438 -12.5 375.667969 C -11.257812 374.925781 -10.261719 374.304688 -9.269531 373.683594 C -8.273438 373.0625 -7.40625 372.566406 -6.660156 372.191406 C -5.539062 371.324219 -4.671875 370.828125 -4.671875 370.828125 Z M -4.671875 370.828125 " fill-opacity="1" fill-rule="nonzero"/></svg>