<svg xmlns="http://www.w3.org/2000/svg" xmlns:xlink="http://www.w3.org/1999/xlink" width="500" zoomAndPan="magnify" viewBox="0 0 375 374.999991" height="500" preserveAspectRatio="xMidYMid meet" version="1.0"><defs><clipPath id="aad9aeac93"><path d="M 35 0 L 375 0 L 375 121 L 35 121 Z M 35 0 " clip-rule="nonzero"/></clipPath><clipPath id="de2b83fd26"><path d="M 0.00390625 77.359375 L 195.273438 -309.667969 L 605.738281 -102.574219 L 410.46875 284.457031 Z M 0.00390625 77.359375 " clip-rule="nonzero"/></clipPath><clipPath id="3863dbdc4f"><path d="M 0.00390625 77.359375 L 107.4375 -135.574219 L 517.902344 71.523438 L 410.46875 284.457031 Z M 0.00390625 77.359375 " clip-rule="nonzero"/></clipPath><clipPath id="1beaadf282"><path d="M 0.00390625 77.359375 L 195.273438 -309.667969 L 605.738281 -102.574219 L 410.46875 284.457031 Z M 0.00390625 77.359375 " clip-rule="nonzero"/></clipPath><clipPath id="1cdd9a8e88"><path d="M 106 0 L 375 0 L 375 109 L 106 109 Z M 106 0 " clip-rule="nonzero"/></clipPath><clipPath id="44857f6e6a"><path d="M 0.00390625 77.359375 L 195.273438 -309.667969 L 605.738281 -102.574219 L 410.46875 284.457031 Z M 0.00390625 77.359375 " clip-rule="nonzero"/></clipPath><clipPath id="099c11287d"><path d="M 0.00390625 77.359375 L 107.4375 -135.574219 L 517.902344 71.523438 L 410.46875 284.457031 Z M 0.00390625 77.359375 " clip-rule="nonzero"/></clipPath><clipPath id="7d3730b5b1"><path d="M 0.00390625 77.359375 L 195.273438 -309.667969 L 605.738281 -102.574219 L 410.46875 284.457031 Z M 0.00390625 77.359375 " clip-rule="nonzero"/></clipPath><clipPath id="50f73e1217"><path d="M 4 0 L 375 0 L 375 151 L 4 151 Z M 4 0 " clip-rule="nonzero"/></clipPath><clipPath id="b54cdb9c3e"><path d="M 0.00390625 77.359375 L 195.273438 -309.667969 L 605.738281 -102.574219 L 410.46875 284.457031 Z M 0.00390625 77.359375 " clip-rule="nonzero"/></clipPath><clipPath id="a72a437092"><path d="M 0.00390625 77.359375 L 107.4375 -135.574219 L 517.902344 71.523438 L 410.46875 284.457031 Z M 0.00390625 77.359375 " clip-rule="nonzero"/></clipPath><clipPath id="f7bf1d71dc"><path d="M 0.00390625 77.359375 L 195.273438 -309.667969 L 605.738281 -102.574219 L 410.46875 284.457031 Z M 0.00390625 77.359375 " clip-rule="nonzero"/></clipPath><clipPath id="41ba0ae6b1"><path d="M 8 0 L 375 0 L 375 151 L 8 151 Z M 8 0 " clip-rule="nonzero"/></clipPath><clipPath id="e529e6c7e8"><path d="M 0.00390625 77.359375 L 195.273438 -309.667969 L 605.738281 -102.574219 L 410.46875 284.457031 Z M 0.00390625 77.359375 " clip-rule="nonzero"/></clipPath><clipPath id="d3ead50470"><path d="M 0.00390625 77.359375 L 107.4375 -135.574219 L 517.902344 71.523438 L 410.46875 284.457031 Z M 0.00390625 77.359375 " clip-rule="nonzero"/></clipPath><clipPath id="8976e84a65"><path d="M 0.00390625 77.359375 L 195.273438 -309.667969 L 605.738281 -102.574219 L 410.46875 284.457031 Z M 0.00390625 77.359375 " clip-rule="nonzero"/></clipPath></defs><g clip-path="url(#aad9aeac93)"><g clip-path="url(#de2b83fd26)"><g clip-path="url(#3863dbdc4f)"><g clip-path="url(#1beaadf282)"><path fill="#a47052" d="M 595.855469 -104.214844 C 593.847656 -101.996094 590.527344 -101.199219 587.8125 -100.476562 C 583.707031 -99.375 579.472656 -98.660156 575.363281 -97.6875 C 566.871094 -95.695312 559.410156 -91.597656 551.542969 -88.082031 C 542.867188 -84.21875 534.320312 -81.492188 524.816406 -80.640625 C 513.3125 -79.597656 501.753906 -78.582031 490.25 -77.664062 C 484.546875 -77.179688 478.894531 -76.796875 473.21875 -76.363281 C 469.726562 -76.730469 466.28125 -77.199219 462.835938 -77.796875 C 450.835938 -80.046875 438.96875 -84.195312 427.683594 -88.621094 C 405.492188 -97.34375 385.882812 -112.691406 361.929688 -116.53125 C 349.421875 -118.53125 336.671875 -116.53125 324.136719 -118.226562 C 322.488281 -118.484375 321.949219 -116.03125 323.644531 -115.621094 C 327.417969 -114.796875 331.140625 -114.25 334.914062 -113.804688 L 334.964844 -113.777344 C 342.15625 -112.9375 349.425781 -112.503906 356.542969 -111.261719 C 368.136719 -109.214844 378.683594 -103.449219 388.875 -97.863281 C 394.1875 -94.933594 399.417969 -91.847656 404.859375 -89.167969 C 410.648438 -86.308594 416.75 -84.308594 422.773438 -82.03125 C 429.957031 -79.292969 437.421875 -76.605469 444.863281 -74.371094 L 444.914062 -74.347656 C 445.015625 -74.296875 445.191406 -74.269531 445.292969 -74.21875 C 438.425781 -73.6875 431.632812 -73.183594 424.765625 -72.527344 C 404.390625 -70.632812 384.566406 -66.8125 364.789062 -61.699219 C 360.046875 -60.476562 355.457031 -59.050781 350.839844 -57.574219 C 346.25 -56.023438 341.609375 -54.875 337.09375 -53.347656 C 327.660156 -50.121094 319.9375 -43.363281 311.40625 -38.40625 C 309.984375 -37.601562 308.640625 -36.695312 307.269531 -35.867188 C 303.417969 -35.527344 299.515625 -35.339844 295.664062 -35.507812 C 289.8125 -35.734375 284.066406 -36.921875 278.265625 -37.753906 C 273.175781 -38.484375 268.085938 -39.085938 262.894531 -39.484375 L 262.84375 -39.511719 C 261.527344 -39.667969 260.109375 -39.75 258.765625 -39.855469 C 258.765625 -39.855469 258.714844 -39.882812 258.664062 -39.90625 C 250.089844 -44.296875 242.179688 -50 234.75 -56.15625 C 226.566406 -62.949219 220.640625 -71.585938 213.292969 -79.160156 C 210.996094 -81.523438 208.546875 -83.710938 206.042969 -85.796875 C 199.828125 -90.960938 193.128906 -95.546875 187.117188 -100.863281 C 186.03125 -101.855469 184.582031 -100.238281 185.59375 -99.222656 C 194.179688 -90.832031 204.316406 -84.007812 211.960938 -74.632812 C 218.847656 -66.148438 224.34375 -57.035156 232.601562 -49.757812 C 236.492188 -46.402344 240.613281 -43.246094 244.984375 -40.46875 C 233.992188 -40.5625 222.917969 -40.25 212.183594 -42.496094 C 197.195312 -45.746094 183.566406 -53.953125 169.015625 -58.570312 C 153.882812 -63.414062 137.6875 -61.628906 122.527344 -66.296875 C 121.640625 -66.554688 121.078125 -65.0625 121.988281 -64.730469 C 135.550781 -59.664062 150.222656 -59.933594 164.015625 -56.082031 C 169.457031 -54.539062 174.796875 -52.542969 180.085938 -50.320312 C 190.078125 -46.230469 199.816406 -41.378906 209.835938 -37.59375 C 216.972656 -34.878906 224.390625 -32.851562 231.988281 -32.0625 C 239.710938 -31.269531 247.515625 -31.644531 255.316406 -31.132812 C 260.28125 -30.785156 265.296875 -30.15625 270.234375 -29.503906 C 270.6875 -29.402344 271.070312 -29.273438 271.523438 -29.171875 C 274.460938 -28.574219 278.539062 -27.851562 281.984375 -28.140625 C 285.835938 -27.722656 289.683594 -27.425781 293.558594 -27.3125 C 293 -26.957031 292.46875 -26.65625 291.960938 -26.277344 L 291.933594 -26.230469 C 289.140625 -24.46875 286.398438 -22.679688 283.65625 -20.894531 C 275.457031 -15.582031 267.105469 -10.601562 259.082031 -5.011719 C 241.964844 6.898438 228.15625 22.824219 210.964844 34.632812 C 206.878906 37.453125 202.410156 39.640625 198.222656 42.28125 C 194.160156 44.921875 190.425781 47.921875 186.390625 50.515625 C 178.113281 55.851562 168.960938 58.019531 159.328125 59.625 C 149.492188 61.257812 138.976562 61.089844 129.464844 64.34375 C 125.179688 65.796875 121.625 68.316406 117.84375 70.78125 C 115.582031 72.242188 113.097656 73.015625 110.585938 73.464844 C 107.824219 73.527344 105.039062 73.515625 102.175781 73.023438 C 96.65625 72.140625 91.421875 69.941406 86.257812 67.71875 C 80.746094 65.316406 76.347656 62.210938 71.570312 58.597656 C 67.121094 55.210938 62.113281 52.8125 57.054688 50.511719 C 56.144531 50.050781 55.480469 51.367188 56.367188 51.878906 C 62.082031 55.015625 67.566406 58.351562 72.390625 62.753906 C 76.6875 66.695312 81.539062 70.15625 86.851562 72.457031 C 87.789062 72.867188 88.773438 73.175781 89.6875 73.507812 C 71.90625 72.019531 54.234375 67.921875 36.242188 69.75 C 35.378906 69.824219 35.425781 71.242188 36.363281 71.144531 C 53.976562 69.820312 71.265625 73.914062 88.640625 75.832031 C 90.917969 76.09375 93.222656 76.304688 95.503906 76.441406 C 99.023438 76.632812 102.570312 76.902344 106.015625 76.738281 C 106.066406 76.761719 106.09375 76.710938 106.144531 76.738281 C 108.601562 76.644531 111.082031 76.378906 113.441406 75.855469 C 113.773438 75.832031 114.125 75.757812 114.480469 75.679688 C 116.609375 75.105469 118.691406 74.382812 120.695312 73.300781 C 124.882812 71.039062 128.691406 68.648438 133.484375 67.832031 C 138.199219 67.039062 143.011719 67.183594 147.773438 66.796875 C 155.683594 66.222656 163.867188 65.089844 171.652344 63.117188 C 171.144531 63.75 170.636719 64.378906 170.152344 64.960938 C 169.339844 65.945312 168.449219 66.828125 167.484375 67.609375 C 163.164062 71.265625 158.871094 75.121094 154.300781 78.394531 C 150.640625 80.988281 147.644531 83.660156 145.222656 87.449219 C 142.472656 91.644531 140.710938 96.652344 136.871094 100.105469 C 132.757812 103.863281 127.304688 105.488281 121.878906 106.300781 C 120.5625 106.523438 120.628906 108.523438 122.023438 108.402344 C 123.542969 108.28125 125.089844 108.113281 126.585938 107.914062 C 126.613281 107.863281 126.664062 107.890625 126.664062 107.890625 C 133.203125 106.878906 139.644531 104.546875 144.273438 99.652344 C 147.578125 96.246094 149.113281 91.570312 152.191406 87.984375 C 155.699219 83.921875 160.777344 81.15625 164.839844 77.628906 C 168.929688 74.046875 172.945312 70.746094 176.304688 66.480469 C 177.882812 64.484375 179.457031 62.363281 181.617188 60.980469 C 183.699219 59.621094 186.210938 58.921875 188.519531 57.992188 C 190.371094 57.214844 192.144531 56.464844 193.722656 55.226562 C 195.804688 53.488281 197.101562 51.292969 199.589844 50.007812 C 203.929688 47.695312 207.914062 45.839844 211.800781 42.664062 C 215.359375 39.640625 218.40625 36.484375 221.433594 33.128906 C 222.601562 32.449219 223.691406 31.796875 224.761719 31.066406 C 233.546875 25.226562 241.34375 18.316406 249.652344 11.917969 C 257.675781 5.695312 266.410156 0.714844 275.269531 -4.261719 C 276.054688 -4.691406 276.867188 -5.167969 277.652344 -5.59375 C 277.679688 -5.644531 277.703125 -5.695312 277.832031 -5.695312 C 280.75 -7.332031 283.667969 -9.09375 286.613281 -10.777344 C 286.640625 -10.828125 286.664062 -10.878906 286.714844 -10.851562 C 292.046875 -13.996094 297.351562 -17.21875 302.65625 -20.4375 C 311.667969 -25.847656 321.414062 -30.570312 329.695312 -37.042969 C 333.378906 -39.941406 336.757812 -43.246094 340.667969 -45.839844 C 345.113281 -48.859375 349.957031 -50.792969 355.054688 -52.46875 C 374.558594 -58.796875 395.164062 -60.894531 415.585938 -62.128906 C 437.480469 -63.511719 459.347656 -63.960938 481.242188 -65.59375 C 489.097656 -66.195312 496.953125 -66.925781 504.808594 -67.652344 C 504.226562 -67.25 503.640625 -66.847656 503.058594 -66.445312 C 502.574219 -66.117188 502.117188 -65.839844 501.6875 -65.488281 C 497.824219 -62.742188 493.941406 -60.199219 490.5625 -56.898438 C 483.367188 -49.808594 476.554688 -42.46875 469.613281 -35.125 C 463.078125 -28.214844 456.140625 -21.503906 448.394531 -15.964844 C 440.371094 -10.246094 431.3125 -6.636719 422.910156 -1.554688 C 419.8125 0.308594 416.792969 2.398438 413.769531 4.488281 C 410.324219 4.902344 406.949219 6.5625 403.878906 7.992188 C 398.980469 10.277344 394.613281 13.527344 389.386719 15.203125 C 382.871094 17.304688 376.300781 19 370.011719 21.789062 C 363.742188 24.523438 358.359375 28.65625 352.242188 31.59375 C 340.265625 37.472656 326.527344 39.292969 313.402344 40.277344 C 307.472656 40.710938 301.542969 41.015625 295.8125 42.5625 C 290.054688 44.160156 284.75 47.003906 279.296875 49.261719 C 268.007812 53.902344 254.96875 59.117188 247.941406 69.648438 C 247.253906 70.632812 248.972656 71.882812 249.734375 70.871094 C 256.757812 61.476562 269.339844 56.792969 279.894531 52.730469 C 281.695312 52.054688 283.570312 51.355469 285.449219 50.777344 C 288.972656 49.578125 292.648438 48.578125 296.402344 48.1875 C 302.152344 47.601562 308.054688 47.855469 313.859375 47.800781 C 326.425781 47.800781 339.425781 45.800781 351.171875 41.261719 C 357.160156 38.957031 362.238281 35.429688 367.796875 32.464844 C 373.683594 29.347656 380.101562 27.449219 386.1875 24.8125 C 387.558594 24.238281 388.953125 23.609375 390.222656 22.980469 C 389.792969 23.332031 389.335938 23.738281 388.902344 24.089844 C 384.226562 27.945312 379.605469 31.953125 375.382812 36.167969 C 368.242188 43.28125 364.210938 52.277344 360.453125 61.480469 C 356.648438 70.785156 352.972656 79.582031 346.28125 87.304688 C 332.625 103.179688 312.757812 112.117188 293.40625 119.03125 C 292.390625 119.40625 292.917969 121.003906 293.980469 120.652344 C 304.226562 117.578125 314.324219 113.921875 323.765625 108.917969 C 323.789062 108.867188 323.839844 108.894531 323.839844 108.894531 C 330.335938 105.449219 336.507812 101.398438 342.121094 96.558594 C 349.109375 90.507812 354.757812 83.339844 359.242188 75.328125 C 364.238281 66.433594 368.347656 56.777344 374.710938 48.699219 C 381.273438 40.46875 390.136719 34.222656 398.265625 27.546875 C 406.113281 21.042969 414.089844 14.542969 422.875 9.335938 C 431.734375 4.101562 441.726562 1.152344 450.382812 -4.308594 C 452.515625 -5.640625 454.621094 -7.050781 456.65625 -8.5625 C 456.070312 -7.78125 455.457031 -6.945312 454.875 -6.164062 C 451.769531 -1.898438 448.992188 2.601562 446.898438 7.378906 C 443.632812 14.859375 444.160156 22.863281 442.589844 30.757812 C 440.863281 39.335938 435.949219 47.191406 432.402344 55.105469 C 431.585938 56.847656 434.0625 58.101562 435.03125 56.433594 C 435.441406 55.75 435.847656 55.066406 436.253906 54.386719 C 440.382812 47.464844 445.269531 40.796875 448.003906 33.238281 C 449.332031 29.59375 449.878906 25.75 450.726562 21.929688 C 451.601562 17.675781 453.085938 13.984375 455.097656 10.121094 C 459.023438 2.714844 464.59375 -3.542969 468.796875 -10.742188 C 470.734375 -14.078125 472.316406 -17.71875 473.546875 -21.410156 C 473.902344 -22.371094 474.285156 -23.507812 474.621094 -24.671875 C 481.917969 -32.46875 488.152344 -41.179688 495.296875 -49.179688 C 498.882812 -53.140625 502.289062 -56.75 506.507812 -60.074219 C 509.554688 -62.46875 512.527344 -65.21875 514.691406 -68.5 C 516.492188 -68.671875 518.265625 -68.792969 519.988281 -68.9375 C 531.648438 -70.03125 542.167969 -71.886719 552.925781 -76.605469 C 561.804688 -80.496094 570.15625 -85.222656 579.738281 -87.492188 C 587.371094 -89.285156 597.636719 -91.269531 602.601562 -98.085938 C 604.585938 -100.890625 603.179688 -104.136719 600.851562 -105.3125 C 599.332031 -106.078125 597.433594 -105.957031 595.855469 -104.214844 Z M 595.855469 -104.214844 " fill-opacity="1" fill-rule="nonzero"/></g></g></g></g><g clip-path="url(#1cdd9a8e88)"><g clip-path="url(#44857f6e6a)"><g clip-path="url(#099c11287d)"><g clip-path="url(#7d3730b5b1)"><path fill="#7f4c38" d="M 221.433594 33.128906 C 222.601562 32.449219 223.691406 31.796875 224.761719 31.066406 C 233.546875 25.226562 241.34375 18.316406 249.652344 11.917969 C 257.675781 5.695312 266.410156 0.714844 275.269531 -4.261719 C 276.054688 -4.691406 276.867188 -5.167969 277.652344 -5.59375 C 277.679688 -5.644531 277.703125 -5.695312 277.832031 -5.695312 C 280.421875 -7.433594 283.136719 -9.042969 285.953125 -10.476562 C 286.132812 -10.578125 286.386719 -10.703125 286.613281 -10.777344 C 286.640625 -10.828125 286.664062 -10.878906 286.714844 -10.851562 C 292.046875 -13.996094 297.351562 -17.21875 302.65625 -20.4375 C 311.667969 -25.847656 321.414062 -30.570312 329.695312 -37.042969 C 333.378906 -39.941406 336.757812 -43.246094 340.667969 -45.839844 C 345.113281 -48.859375 349.957031 -50.792969 355.054688 -52.46875 C 374.558594 -58.796875 395.164062 -60.894531 415.585938 -62.128906 C 437.480469 -63.511719 459.347656 -63.960938 481.242188 -65.59375 C 489.097656 -66.195312 496.953125 -66.925781 504.808594 -67.652344 C 504.226562 -67.25 503.640625 -66.847656 503.058594 -66.445312 C 504.351562 -66.871094 506.609375 -67.824219 506.535156 -69.191406 C 506.539062 -69.445312 506.359375 -69.597656 506.183594 -69.625 C 505.476562 -69.855469 504.636719 -69.328125 503.953125 -69.101562 C 503.089844 -68.902344 502.203125 -68.777344 501.316406 -68.78125 C 500.402344 -68.734375 499.492188 -68.8125 498.605469 -68.945312 C 497.542969 -69.101562 496.503906 -69.054688 495.464844 -69.132812 C 493.347656 -69.238281 491.320312 -69.175781 489.253906 -69.132812 C 492.296875 -70.136719 495.308594 -71.21875 498.480469 -71.847656 C 498.6875 -71.890625 498.613281 -72.21875 498.410156 -72.203125 C 494.527344 -71.933594 490.851562 -70.527344 487.0625 -69.726562 C 484.726562 -69.230469 482.527344 -68.832031 480.140625 -69.226562 C 478.167969 -69.550781 476.234375 -69.878906 474.234375 -69.992188 C 470.34375 -70.214844 466.417969 -70.164062 462.632812 -69.199219 C 460.484375 -68.652344 458.539062 -68.363281 456.328125 -68.484375 C 454.125 -68.605469 451.773438 -68.480469 449.628906 -68.992188 C 449.289062 -69.070312 449.082031 -68.523438 449.425781 -68.402344 C 451.199219 -67.765625 453.023438 -67.6875 454.875 -67.433594 C 456.777344 -67.171875 458.644531 -66.910156 460.566406 -67.054688 C 462.667969 -67.210938 464.707031 -67.789062 466.804688 -67.929688 C 469.058594 -68.082031 471.34375 -68.042969 473.601562 -68.015625 C 473.769531 -68.011719 473.933594 -67.992188 474.101562 -67.988281 C 468.308594 -67.367188 462.636719 -65.515625 456.792969 -65.816406 C 454.132812 -65.953125 451.574219 -66.167969 448.941406 -65.976562 C 446.480469 -65.757812 443.996094 -65.488281 441.539062 -65.648438 C 441.136719 -65.726562 440.730469 -65.804688 440.273438 -65.90625 C 439.363281 -66.113281 438.425781 -66.269531 437.539062 -66.398438 C 436.480469 -66.652344 435.441406 -66.800781 434.386719 -66.863281 C 434.800781 -66.910156 435.214844 -66.980469 435.628906 -67.019531 C 437.914062 -67.21875 440.21875 -67.019531 442.476562 -67.457031 C 442.921875 -67.542969 442.777344 -68.300781 442.324219 -68.242188 C 440.082031 -67.949219 437.808594 -68.292969 435.554688 -68.257812 C 432.804688 -68.214844 430.042969 -67.878906 427.308594 -67.609375 C 426.464844 -67.523438 425.636719 -67.378906 424.808594 -67.242188 C 421.539062 -67.261719 418.292969 -67.046875 414.96875 -66.3125 C 414.046875 -66.101562 413.105469 -65.960938 412.175781 -65.777344 C 409.980469 -65.859375 407.78125 -65.941406 405.585938 -65.863281 C 403.207031 -65.78125 400.984375 -65.125 398.644531 -64.828125 C 396.121094 -64.503906 393.589844 -64.890625 391.0625 -64.789062 C 388.632812 -64.691406 386.230469 -64.277344 383.796875 -64.226562 C 383.601562 -64.21875 383.585938 -63.925781 383.773438 -63.886719 C 385.984375 -63.40625 388.09375 -63.738281 390.332031 -63.8125 C 392.871094 -63.898438 395.390625 -63.328125 397.921875 -63.410156 C 400.136719 -63.484375 402.289062 -64.074219 404.492188 -64.296875 C 401.679688 -63.800781 398.871094 -63.304688 396.105469 -62.636719 C 393.1875 -61.890625 390.347656 -60.914062 387.359375 -60.519531 C 384.644531 -60.175781 381.910156 -60.160156 379.171875 -59.765625 C 376.5625 -59.371094 373.925781 -59.054688 371.339844 -58.457031 C 370.171875 -58.15625 368.980469 -57.933594 367.816406 -57.507812 C 363.460938 -58.4375 358.589844 -56.453125 354.507812 -55.40625 C 349.285156 -54.109375 344.417969 -53.394531 339.898438 -50.222656 C 335.402344 -47.101562 332.195312 -42.757812 328.308594 -38.949219 C 326.351562 -37.082031 324.140625 -35.722656 321.65625 -34.570312 C 321.300781 -34.367188 320.894531 -34.191406 320.539062 -33.992188 C 320.453125 -34.050781 320.359375 -34.070312 320.273438 -34.109375 C 320.789062 -34.488281 321.339844 -34.761719 321.835938 -35.191406 C 324.804688 -37.78125 326.648438 -41.382812 329.566406 -44.070312 C 329.875 -44.351562 329.398438 -44.765625 329.09375 -44.5 C 326.304688 -42.066406 324.078125 -39.054688 321.265625 -36.679688 C 318.171875 -34.066406 314.773438 -32.574219 311.074219 -31.046875 C 307.851562 -29.722656 304.824219 -27.742188 301.902344 -25.859375 C 299.105469 -24.058594 296.550781 -21.910156 293.730469 -20.167969 C 293.578125 -20.074219 293.695312 -19.835938 293.863281 -19.890625 C 295.242188 -20.339844 296.425781 -21.207031 297.597656 -22.046875 C 299.066406 -23.101562 300.628906 -23.925781 302.183594 -24.847656 C 304.460938 -26.191406 306.804688 -27.46875 309.199219 -28.625 C 308.617188 -28.253906 308.019531 -27.910156 307.445312 -27.535156 C 303.507812 -25.019531 299.925781 -21.941406 295.664062 -20.035156 C 287.75 -16.546875 280.210938 -12.929688 273.050781 -8.046875 C 265.941406 -3.261719 259.3125 2.082031 253.007812 7.90625 C 249.519531 11.074219 245.789062 13.429688 241.859375 15.925781 C 244.929688 13.367188 247.910156 10.699219 250.375 7.675781 C 250.5625 7.441406 250.230469 7.140625 250.027344 7.363281 C 247.398438 10.246094 244.082031 12.511719 241.003906 14.878906 C 238.355469 16.917969 235.863281 19.140625 233.226562 21.191406 C 230.714844 23.148438 228.277344 25.144531 225.894531 27.257812 C 223.121094 29.71875 219.964844 31.578125 216.984375 33.761719 C 214.726562 35.410156 212.859375 37.5625 210.546875 39.121094 C 208.1875 40.707031 205.375 41.34375 203.046875 42.988281 C 200.660156 44.667969 198.742188 46.960938 196.273438 48.53125 C 193.34375 50.390625 189.941406 51.585938 186.863281 53.195312 C 186.539062 53.363281 186.851562 53.820312 187.171875 53.667969 C 190.054688 52.28125 193.152344 51.253906 195.972656 49.746094 C 194.679688 50.769531 193.40625 51.828125 192.058594 52.742188 C 189.949219 54.148438 187.664062 55.152344 185.582031 56.511719 C 182.894531 57.441406 180.359375 58.570312 178.070312 60.460938 C 170.882812 66.15625 166.167969 74.617188 158.398438 79.703125 C 155.429688 81.691406 152.355469 83.628906 149.941406 86.28125 C 149.433594 86.851562 149.039062 87.480469 148.636719 88.101562 C 148.261719 88.507812 147.875 88.917969 147.503906 89.296875 C 146.253906 90.558594 144.9375 91.738281 143.96875 93.242188 C 142.886719 94.925781 142.296875 96.867188 141.058594 98.460938 C 139.933594 99.910156 138.339844 100.90625 137.277344 102.410156 C 137.078125 102.6875 137.425781 103.027344 137.679688 102.773438 C 138.925781 101.515625 140.453125 100.574219 141.625 99.234375 C 142.910156 97.765625 143.761719 96.082031 144.796875 94.445312 C 145.25 93.722656 145.808594 93.097656 146.386719 92.492188 C 145.742188 94.050781 145.132812 95.636719 144.382812 97.171875 C 142.035156 101.949219 137.796875 104.058594 132.953125 105.738281 C 130.972656 106.386719 128.96875 107.089844 126.992188 107.738281 C 126.839844 107.789062 126.765625 107.8125 126.664062 107.890625 C 133.203125 106.878906 139.644531 104.546875 144.273438 99.652344 C 147.578125 96.246094 149.113281 91.570312 152.191406 87.984375 C 155.699219 83.921875 160.777344 81.15625 164.839844 77.628906 C 168.933594 74.046875 172.945312 70.746094 176.304688 66.480469 C 177.882812 64.484375 179.457031 62.363281 181.617188 60.980469 C 183.699219 59.621094 186.210938 58.921875 188.519531 57.992188 C 190.371094 57.214844 192.144531 56.464844 193.722656 55.230469 C 195.804688 53.488281 197.101562 51.292969 199.589844 50.011719 C 203.929688 47.695312 207.914062 45.839844 211.800781 42.664062 C 215.359375 39.640625 218.40625 36.484375 221.433594 33.128906 Z M 205.28125 44.765625 C 203.3125 46.140625 201.164062 46.511719 199.109375 47.597656 C 200.613281 46.359375 202.039062 45.027344 203.71875 44.027344 C 205.480469 42.980469 207.394531 42.285156 209.242188 41.441406 C 207.988281 42.617188 206.707031 43.765625 205.28125 44.765625 Z M 600.851562 -105.3125 C 603.179688 -104.136719 604.585938 -100.890625 602.601562 -98.085938 C 597.636719 -91.269531 587.371094 -89.285156 579.738281 -87.492188 C 570.15625 -85.222656 561.804688 -80.496094 552.925781 -76.605469 C 542.167969 -71.886719 531.644531 -70.03125 519.988281 -68.9375 C 518.265625 -68.792969 516.492188 -68.671875 514.691406 -68.5 C 512.527344 -65.21875 509.554688 -62.46875 506.507812 -60.078125 C 502.289062 -56.75 498.882812 -53.140625 495.296875 -49.179688 C 488.152344 -41.179688 481.917969 -32.46875 474.621094 -24.671875 C 474.285156 -23.507812 473.902344 -22.371094 473.546875 -21.410156 C 472.316406 -17.71875 470.734375 -14.078125 468.796875 -10.742188 C 464.59375 -3.542969 459.023438 2.714844 455.097656 10.121094 C 453.082031 13.984375 451.601562 17.675781 450.726562 21.929688 C 449.878906 25.75 449.332031 29.59375 448.003906 33.238281 C 445.269531 40.796875 440.382812 47.464844 436.253906 54.386719 C 438.5625 45.910156 445.195312 39.304688 447.757812 30.832031 C 448.988281 26.757812 449.789062 22.152344 450.335938 17.925781 C 450.777344 13.773438 450.5625 10.050781 452.601562 6.261719 C 454.667969 2.546875 457.515625 -0.582031 460.386719 -3.636719 C 463.71875 -7.21875 466.039062 -11.058594 467.242188 -15.839844 C 467.800781 -18.121094 468.203125 -20.582031 469.199219 -22.746094 C 468.058594 -22 467.046875 -21.144531 466.023438 -20.1875 C 465.765625 -19.949219 465.371094 -20.289062 465.613281 -20.5625 C 466.570312 -21.640625 467.34375 -22.890625 468.457031 -23.828125 C 469.761719 -24.925781 471.109375 -25.886719 472.3125 -27.117188 C 474.546875 -29.398438 476.332031 -32.128906 478.199219 -34.710938 C 480.226562 -37.507812 482.40625 -40.125 484.527344 -42.851562 C 485.535156 -44.144531 486.433594 -45.296875 487.699219 -46.347656 C 488.878906 -47.328125 489.839844 -48.601562 491.179688 -49.363281 C 491.359375 -49.464844 491.554688 -49.246094 491.414062 -49.089844 C 490.371094 -47.882812 489.660156 -46.449219 488.640625 -45.238281 C 487.589844 -43.992188 486.496094 -42.816406 485.476562 -41.523438 C 485.175781 -41.144531 484.878906 -40.765625 484.578125 -40.386719 C 487.257812 -43.234375 490.15625 -45.726562 493.167969 -48.351562 C 497.050781 -51.726562 499.828125 -55.765625 502.882812 -59.8125 C 502.359375 -59.382812 501.820312 -58.980469 501.304688 -58.539062 C 499.359375 -56.882812 497.683594 -54.917969 495.597656 -53.425781 C 495.363281 -53.257812 495.046875 -53.625 495.265625 -53.820312 C 497.199219 -55.566406 498.679688 -57.742188 500.53125 -59.578125 C 502.25 -61.28125 504.019531 -62.882812 505.902344 -64.402344 C 508.023438 -66.117188 510.179688 -67.777344 512.179688 -69.632812 C 513 -70.390625 513.789062 -71.183594 514.644531 -71.902344 C 515.550781 -72.660156 516.554688 -73.273438 517.4375 -74.0625 C 517.789062 -74.375 518.296875 -74.042969 518.113281 -73.597656 C 517.867188 -72.984375 517.4375 -72.503906 516.972656 -72.054688 C 517.625 -72.246094 518.328125 -72.390625 519.113281 -72.484375 C 520.734375 -72.679688 522.332031 -72.574219 523.878906 -72.746094 C 526.082031 -72.964844 528.1875 -73.742188 530.367188 -74.035156 C 535.058594 -74.777344 539.496094 -76.152344 543.960938 -77.703125 C 548.652344 -79.332031 553.671875 -80.605469 558.085938 -82.816406 C 560.203125 -83.898438 562.152344 -85.246094 564.132812 -86.523438 C 562.300781 -86.183594 560.449219 -85.894531 558.714844 -85.191406 C 556.707031 -84.378906 554.945312 -83.066406 552.925781 -82.277344 C 548.609375 -80.597656 543.5 -80.550781 538.941406 -80.140625 C 538.566406 -80.105469 538.542969 -80.664062 538.90625 -80.714844 C 543.542969 -81.367188 549.054688 -81.980469 553.117188 -84.472656 C 554.730469 -85.464844 556.257812 -86.570312 558.019531 -87.296875 C 559.835938 -88.042969 561.777344 -88.375 563.707031 -88.691406 C 566.03125 -89.070312 568.28125 -89.355469 570.386719 -90.488281 C 572.34375 -91.542969 574.109375 -92.925781 576.082031 -93.953125 C 577.535156 -94.707031 579.101562 -95.109375 580.6875 -95.472656 C 582.765625 -95.949219 584.40625 -96.683594 586.226562 -97.785156 C 586.5 -97.949219 586.738281 -97.621094 586.570312 -97.382812 C 584.335938 -94.285156 579.515625 -94.167969 576.4375 -92.277344 C 575.828125 -91.902344 575.246094 -91.480469 574.660156 -91.070312 C 576.6875 -91.5625 578.75 -91.929688 580.820312 -92.273438 C 585.332031 -93.039062 589.0625 -94.644531 592.820312 -97.316406 C 595.992188 -99.582031 598.207031 -102.585938 600.851562 -105.3125 Z M 398.265625 27.546875 C 390.136719 34.222656 381.273438 40.46875 374.710938 48.699219 C 368.347656 56.777344 364.238281 66.433594 359.242188 75.328125 C 354.757812 83.339844 349.109375 90.507812 342.121094 96.558594 C 336.507812 101.398438 330.335938 105.449219 323.839844 108.894531 C 324.246094 108.464844 324.652344 108.035156 325.109375 107.632812 C 329.632812 103.828125 334.9375 101.492188 339.535156 97.914062 C 345.222656 93.558594 349.851562 88.789062 353.59375 82.625 C 357.109375 76.789062 360.246094 70.824219 363.105469 64.65625 C 364.996094 60.457031 367.203125 56.480469 369.601562 52.59375 C 368.117188 54.511719 366.621094 56.414062 365.175781 58.375 C 362.429688 62.097656 360.828125 66.214844 358.703125 70.257812 C 358.585938 70.480469 358.265625 70.3125 358.355469 70.085938 C 360.101562 65.835938 361.578125 61.511719 364.015625 57.578125 C 366.339844 53.824219 369.1875 50.347656 371.703125 46.722656 C 374.394531 42.851562 377.886719 39.9375 380.898438 36.375 C 383.71875 33.042969 386.96875 29.785156 390.585938 27.320312 C 390.8125 27.164062 391.09375 27.488281 390.898438 27.6875 C 387.792969 30.84375 384.652344 33.808594 381.980469 37.355469 C 381.742188 37.671875 381.457031 37.9375 381.203125 38.234375 C 382.851562 36.695312 384.539062 35.175781 386.3125 33.625 C 391.164062 29.417969 396.320312 25.742188 401.398438 21.835938 C 404.371094 19.59375 407.316406 17.402344 410.390625 15.464844 C 412.675781 13.828125 414.757812 11.960938 416.96875 10.222656 C 419.332031 8.308594 422.074219 6.773438 424.5625 5.113281 C 425.351562 4.582031 426.195312 4.066406 427.039062 3.558594 C 424.628906 4.640625 422.199219 5.691406 419.8125 6.824219 C 417.882812 7.738281 416.183594 8.757812 414.496094 10.054688 C 413.089844 11.136719 411.691406 12.125 410.035156 12.792969 C 409.714844 12.917969 409.472656 12.410156 409.773438 12.246094 C 411.667969 11.203125 413.171875 9.699219 414.816406 8.320312 C 416.273438 7.101562 417.859375 6.253906 419.535156 5.378906 C 423.28125 3.425781 427.203125 1.835938 430.90625 -0.1875 C 434.640625 -2.230469 438.519531 -3.917969 442.265625 -5.929688 C 444.035156 -6.882812 445.851562 -7.746094 447.59375 -8.746094 C 449.113281 -9.621094 450.695312 -10.742188 452.441406 -11.089844 C 452.707031 -11.140625 452.925781 -10.796875 452.660156 -10.632812 C 449.136719 -8.488281 445.683594 -6.246094 442.109375 -4.175781 C 440.261719 -3.105469 438.3125 -2.277344 436.414062 -1.308594 C 434.890625 -0.53125 433.429688 0.367188 431.925781 1.195312 C 434.214844 0.472656 436.726562 0.414062 438.996094 -0.605469 C 441.785156 -1.859375 444.527344 -3.648438 447.246094 -5.128906 C 449.832031 -6.613281 452.878906 -7.996094 455.039062 -10.011719 C 456.765625 -11.675781 458.140625 -13.898438 460.449219 -14.828125 C 460.933594 -15.027344 461.5625 -14.519531 461.410156 -13.964844 C 460.4375 -10.777344 457.71875 -8.28125 454.871094 -6.164062 C 455.457031 -6.945312 456.070312 -7.78125 456.65625 -8.5625 C 454.621094 -7.050781 452.515625 -5.640625 450.382812 -4.308594 C 441.726562 1.152344 431.734375 4.101562 422.875 9.335938 C 414.089844 14.542969 406.113281 21.042969 398.265625 27.546875 Z M 388.902344 24.089844 C 389.335938 23.738281 389.792969 23.332031 390.222656 22.980469 C 388.953125 23.609375 387.558594 24.238281 386.1875 24.8125 C 380.101562 27.449219 373.683594 29.347656 367.796875 32.464844 C 362.238281 35.429688 357.160156 38.957031 351.171875 41.261719 C 339.425781 45.800781 326.425781 47.800781 313.859375 47.800781 C 308.054688 47.855469 302.152344 47.601562 296.402344 48.1875 C 292.648438 48.578125 288.972656 49.578125 285.449219 50.777344 C 288.570312 49.371094 291.867188 48.371094 295.339844 47.90625 C 303.703125 46.671875 312.191406 46.324219 320.53125 45.015625 C 324.710938 44.398438 329.070312 44.0625 333.179688 43.21875 C 333.851562 43.078125 334.472656 42.773438 335.125 42.574219 C 333.386719 43.035156 331.648438 43.515625 329.859375 43.699219 C 327.03125 43.992188 324.113281 43.414062 321.285156 43.292969 C 318.539062 43.179688 315.828125 43.03125 313.113281 42.582031 C 312.761719 42.523438 312.878906 42.015625 313.21875 42.050781 C 316.28125 42.355469 319.367188 42.285156 322.445312 42.34375 C 325.316406 42.402344 328.160156 42.921875 330.980469 42.199219 C 333.234375 41.621094 335.542969 40.902344 337.75 40.171875 C 340.261719 39.339844 342.894531 39.273438 345.257812 38.039062 C 347.519531 36.855469 349.992188 35.960938 352.195312 34.71875 C 354.238281 33.566406 356.03125 32.300781 358.21875 31.410156 C 363.101562 29.421875 368.089844 27.722656 372.953125 25.699219 C 373.136719 25.625 373.246094 25.894531 373.097656 25.996094 C 370.992188 27.441406 368.53125 28.226562 366.167969 29.144531 C 363.46875 30.195312 360.867188 31.488281 358.246094 32.714844 C 356.703125 33.4375 355.355469 34.457031 353.957031 35.402344 C 354.464844 35.222656 354.972656 35.070312 355.476562 34.871094 C 359.253906 33.417969 362.984375 32.066406 366.964844 31.222656 C 367.320312 31.148438 367.699219 31.148438 368.003906 31.300781 C 368.5625 30.949219 369.121094 30.597656 369.703125 30.195312 C 372.472656 28.230469 375.210938 26.820312 378.433594 25.71875 C 380.109375 25.167969 381.476562 24.464844 382.976562 23.507812 C 384.246094 22.753906 385.667969 21.824219 387.113281 21.476562 C 388.582031 21.074219 389.949219 21.257812 391.269531 20.402344 C 391.742188 20.085938 392.308594 19.722656 392.886719 19.542969 C 393.023438 19.40625 393.152344 19.261719 393.300781 19.140625 C 393.78125 18.75 394.3125 18.460938 394.875 18.207031 C 395.457031 17.945312 396.074219 17.855469 396.675781 17.65625 C 397.859375 17.273438 398.859375 16.519531 399.886719 15.847656 C 400.894531 15.183594 401.933594 14.574219 403.09375 14.226562 C 403.527344 14.09375 403.730469 14.722656 403.3125 14.886719 C 402.074219 15.371094 401.035156 16.191406 399.992188 16.996094 C 398.984375 17.777344 397.960938 18.46875 396.855469 19.097656 C 396.285156 19.421875 395.703125 19.734375 395.144531 20.074219 C 394.96875 20.179688 394.804688 20.296875 394.640625 20.414062 C 394.632812 20.445312 394.65625 20.484375 394.640625 20.515625 C 394.15625 21.476562 392.886719 22.359375 391.996094 22.988281 C 391.082031 23.667969 389.992188 23.816406 388.902344 24.089844 Z M 356.542969 -111.261719 C 349.425781 -112.503906 342.15625 -112.9375 334.964844 -113.777344 C 336.332031 -113.847656 337.652344 -114.070312 339.042969 -114.066406 C 342.3125 -114 345.65625 -114.34375 348.898438 -114.101562 C 356.042969 -113.542969 362.925781 -111.589844 369.480469 -108.984375 C 373.148438 -107.449219 377.074219 -106.671875 380.765625 -105.191406 C 384.460938 -103.707031 388.128906 -102.046875 391.59375 -100.109375 C 394.929688 -98.296875 398.089844 -96.132812 401.480469 -94.421875 C 404.609375 -92.902344 407.664062 -91.761719 410.4375 -89.8125 C 401.855469 -95.792969 394.066406 -103.546875 383.804688 -106.203125 C 383.5 -106.28125 383.589844 -106.730469 383.898438 -106.679688 C 389.050781 -105.828125 394.539062 -103.402344 398.902344 -100.554688 C 403.996094 -97.226562 408.316406 -92.871094 413.429688 -89.550781 C 418.535156 -86.238281 423.902344 -85.585938 429.5625 -83.808594 C 434.550781 -82.246094 439.417969 -80.277344 444.425781 -78.855469 C 444.722656 -78.773438 444.730469 -78.277344 444.386719 -78.285156 C 442.101562 -78.351562 440.222656 -79.050781 438.089844 -79.789062 C 435.625 -80.640625 433.03125 -81.054688 430.554688 -81.875 C 428.050781 -82.703125 425.4375 -83.25 422.863281 -83.910156 C 423.367188 -83.667969 423.859375 -83.40625 424.371094 -83.191406 C 426.648438 -82.292969 429.003906 -82.183594 431.382812 -81.617188 C 433.257812 -81.179688 435.128906 -80.488281 436.925781 -79.773438 C 439.128906 -78.980469 441.378906 -78.285156 443.480469 -77.289062 C 444.550781 -76.75 445.703125 -76.277344 446.664062 -75.589844 C 447.097656 -75.4375 447.53125 -75.28125 447.960938 -75.121094 C 450.171875 -74.304688 452.492188 -73.6875 454.855469 -74.148438 C 455.253906 -74.226562 455.46875 -73.664062 455.058594 -73.527344 C 452.722656 -72.75 450.230469 -73.027344 447.925781 -73.789062 C 447.878906 -73.804688 447.832031 -73.832031 447.785156 -73.847656 C 447.742188 -73.832031 447.726562 -73.773438 447.675781 -73.777344 C 446.660156 -73.785156 445.902344 -74.167969 444.914062 -74.347656 L 444.863281 -74.371094 C 437.421875 -76.605469 429.957031 -79.292969 422.773438 -82.03125 C 416.75 -84.308594 410.648438 -86.308594 404.859375 -89.167969 C 399.421875 -91.847656 394.1875 -94.933594 388.875 -97.863281 C 378.683594 -103.449219 368.136719 -109.214844 356.542969 -111.261719 Z M 209.835938 -37.59375 C 199.816406 -41.378906 190.078125 -46.230469 180.085938 -50.320312 C 186.085938 -49.003906 192.261719 -47.15625 197.621094 -44.578125 C 201.289062 -42.792969 204.882812 -40.726562 208.472656 -38.789062 C 212.191406 -36.847656 215.457031 -36.152344 219.609375 -36.085938 C 219.886719 -36.082031 220.160156 -36.050781 220.433594 -36.042969 C 217.808594 -37.128906 215.253906 -38.394531 212.527344 -39.21875 C 212.097656 -39.347656 212.214844 -40.011719 212.664062 -39.914062 C 216.632812 -39.054688 220.257812 -37.246094 224.144531 -36.140625 C 224.980469 -35.902344 225.804688 -35.773438 226.632812 -35.664062 C 227.117188 -35.621094 227.605469 -35.570312 228.09375 -35.523438 C 230.808594 -35.355469 233.511719 -35.652344 236.304688 -35.964844 C 244.621094 -36.890625 253.460938 -36.519531 261.710938 -35.121094 C 261.945312 -35.082031 261.90625 -34.738281 261.683594 -34.71875 C 257.136719 -34.269531 252.378906 -34.972656 247.8125 -35.035156 C 244.476562 -35.078125 241.171875 -34.917969 237.863281 -34.625 C 239.53125 -34.503906 241.195312 -34.394531 242.863281 -34.375 C 246.332031 -34.335938 249.804688 -34.296875 253.25 -33.824219 C 256.132812 -33.382812 259.300781 -33.625 262.164062 -33.003906 C 262.746094 -33.15625 263.304688 -33.253906 263.886719 -33.402344 C 267.691406 -34.148438 271.386719 -33.929688 275.1875 -33.285156 C 279.261719 -32.558594 283.058594 -31.152344 287.007812 -30.046875 C 288.628906 -29.609375 290.273438 -29.351562 291.917969 -29.21875 C 292.867188 -29.15625 293.882812 -29.191406 294.84375 -29.054688 C 295.09375 -29.113281 295.335938 -29.191406 295.59375 -29.238281 C 296.765625 -29.457031 297.929688 -29.722656 299.109375 -29.871094 C 301.4375 -30.164062 303.648438 -30.921875 305.910156 -31.488281 C 306.265625 -31.578125 306.445312 -31.066406 306.089844 -30.941406 C 303.878906 -30.160156 301.738281 -29.171875 299.445312 -28.632812 C 298.257812 -28.351562 297.058594 -28.101562 295.863281 -27.839844 C 295.804688 -27.828125 295.746094 -27.832031 295.6875 -27.820312 C 294.941406 -26.796875 293.5 -26.382812 291.960938 -26.277344 C 292.46875 -26.65625 293 -26.957031 293.558594 -27.3125 C 289.683594 -27.425781 285.832031 -27.722656 281.984375 -28.140625 C 278.539062 -27.851562 274.460938 -28.574219 271.523438 -29.171875 C 271.070312 -29.273438 270.6875 -29.402344 270.234375 -29.503906 C 265.296875 -30.15625 260.28125 -30.785156 255.316406 -31.132812 C 247.515625 -31.644531 239.710938 -31.269531 231.988281 -32.0625 C 224.390625 -32.851562 216.972656 -34.878906 209.835938 -37.59375 Z M 262.84375 -39.511719 C 257.136719 -38.015625 252.539062 -41.222656 247.300781 -43.800781 C 240.980469 -46.863281 236.355469 -50.910156 231.226562 -55.714844 C 225.925781 -60.675781 222.421875 -66.941406 217.78125 -72.457031 C 214.046875 -77.003906 209.675781 -81.175781 206.042969 -85.796875 C 208.542969 -83.710938 210.996094 -81.523438 213.292969 -79.160156 C 220.640625 -71.585938 226.566406 -62.949219 234.75 -56.15625 C 242.179688 -50 250.089844 -44.296875 258.664062 -39.90625 C 258.714844 -39.882812 258.765625 -39.855469 258.765625 -39.855469 C 260.109375 -39.75 261.527344 -39.667969 262.84375 -39.511719 Z M 113.441406 75.855469 C 111.082031 76.378906 108.601562 76.644531 106.144531 76.738281 C 108.855469 76.265625 111.464844 75.617188 114.128906 74.742188 C 117.425781 73.742188 120.699219 73.046875 123.542969 71.058594 C 126.132812 69.195312 128.570312 67.507812 131.585938 66.429688 C 138.207031 64.125 145.09375 65.445312 151.9375 64.964844 C 155.738281 64.726562 159.3125 63.550781 162.964844 62.601562 C 165.90625 61.804688 169.046875 61.742188 171.863281 60.433594 C 172.242188 60.277344 172.554688 60.402344 172.808594 60.617188 C 173.003906 60.515625 173.195312 60.414062 173.386719 60.308594 C 174.738281 59.589844 176.105469 58.914062 177.496094 58.277344 C 177.875 58.105469 178.140625 58.710938 177.804688 58.921875 C 176.511719 59.742188 175.257812 60.613281 173.941406 61.398438 C 173.710938 61.535156 173.464844 61.648438 173.234375 61.78125 C 173.21875 61.875 173.238281 61.972656 173.203125 62.0625 C 172.539062 63.628906 171.472656 64.484375 170.152344 64.960938 C 170.636719 64.378906 171.144531 63.75 171.652344 63.117188 C 163.867188 65.089844 155.683594 66.222656 147.773438 66.796875 C 143.011719 67.183594 138.199219 67.039062 133.484375 67.832031 C 128.691406 68.648438 124.882812 71.039062 120.695312 73.300781 C 118.691406 74.382812 116.609375 75.105469 114.480469 75.679688 C 114.125 75.757812 113.773438 75.832031 113.441406 75.855469 Z M 113.441406 75.855469 " fill-opacity="1" fill-rule="nonzero"/></g></g></g></g><g clip-path="url(#50f73e1217)"><g clip-path="url(#b54cdb9c3e)"><g clip-path="url(#a72a437092)"><g clip-path="url(#f7bf1d71dc)"><path fill="#5f926a" d="M 5.117188 70.851562 C 4.585938 70.644531 4.007812 70.289062 4.082031 69.757812 C 4.1875 69.429688 4.542969 69.226562 4.871094 69.074219 C 7.230469 68.046875 9.617188 66.96875 11.976562 65.9375 C 14.664062 64.757812 17.457031 63.503906 20.371094 63.261719 C 23.5625 62.972656 26.804688 63.84375 29.738281 65.070312 C 31.105469 65.632812 32.445312 66.246094 33.683594 66.9375 C 34.265625 67.164062 34.824219 67.445312 35.378906 67.726562 C 36.898438 68.492188 38.488281 69.488281 40.210938 69.722656 C 40.617188 69.800781 41.277344 69.625 41.453125 70.15625 C 41.675781 70.84375 40.558594 71.546875 40.128906 71.898438 C 37.585938 73.914062 34.996094 75.90625 32.003906 77.3125 C 28.90625 78.792969 25.332031 79.589844 21.992188 78.792969 C 21.003906 78.609375 20.042969 78.253906 19.132812 77.792969 C 17.359375 77.027344 15.691406 75.929688 14.023438 74.960938 C 11.164062 73.328125 8.179688 71.949219 5.117188 70.851562 Z M 61.265625 53.648438 C 60.660156 52.835938 59.75 52.25 59.171875 51.386719 C 57.859375 49.582031 56.980469 47.554688 56.175781 45.5 C 54.894531 42.378906 53.742188 39.132812 51.59375 36.59375 C 50.308594 35.121094 48.742188 33.949219 46.96875 33.054688 C 45.378906 32.1875 43.707031 31.597656 41.933594 31.210938 C 38.289062 30.386719 34.464844 30.421875 30.738281 30.636719 C 30.382812 30.710938 30.003906 30.710938 29.75 30.960938 C 29.546875 31.238281 29.519531 31.671875 29.671875 32 C 29.871094 32.355469 30.125 32.609375 30.375 32.863281 C 34.113281 36.398438 35.746094 41.597656 39.277344 45.28125 C 41.953125 48.027344 45.523438 49.761719 49.191406 51.042969 C 49.242188 51.070312 49.242188 51.070312 49.242188 51.070312 C 50.152344 51.402344 51.140625 51.710938 52.074219 51.992188 C 54.859375 52.890625 57.59375 53.632812 60.378906 54.40625 C 61.3125 54.6875 61.847656 54.386719 61.265625 53.648438 Z M 69.511719 34.535156 C 69.414062 33.851562 69.316406 33.167969 69.242188 32.433594 C 69.167969 31.445312 68.945312 30.253906 68.035156 30.050781 C 67.527344 29.921875 67.019531 30.171875 66.6875 30.574219 C 66.332031 30.902344 66.15625 31.382812 65.925781 31.839844 C 64.75 34.671875 63.574219 37.5 62.882812 40.511719 C 62.164062 43.449219 61.972656 46.585938 62.699219 49.550781 C 63.175781 51.503906 64.105469 53.433594 65.492188 54.957031 C 65.621094 55.085938 65.773438 55.285156 65.898438 55.414062 C 66.351562 55.898438 66.804688 56.378906 67.234375 57.039062 C 67.664062 57.699219 68.066406 58.15625 68.851562 58.363281 C 67.972656 56.335938 68.816406 54.160156 69.859375 52.339844 C 70.957031 50.546875 72.355469 48.78125 72.640625 46.703125 C 73.003906 44.097656 71.667969 41.585938 70.738281 39.148438 C 70.160156 37.65625 69.785156 36.132812 69.511719 34.535156 Z M 124.28125 105.984375 C 122.808594 105.878906 121.417969 105.621094 120.023438 105.363281 C 118.40625 105.050781 116.757812 104.664062 115.113281 104.40625 C 111.136719 103.730469 106.78125 103.5625 103.277344 105.597656 C 100.332031 107.285156 98.421875 110.316406 96.589844 113.195312 C 94.859375 116 93.125 118.804688 91.316406 121.632812 C 91.140625 121.984375 90.882812 122.363281 91.011719 122.746094 C 91.035156 122.820312 91.085938 122.972656 91.1875 123.023438 C 91.539062 123.332031 92.070312 123.40625 92.527344 123.386719 C 94.984375 123.292969 97.417969 123.253906 99.851562 123.210938 C 102.484375 123.144531 105.144531 123.027344 107.582031 122.101562 C 110.980469 120.773438 113.472656 117.972656 116.191406 115.601562 C 117.191406 114.722656 118.265625 113.921875 119.34375 113.128906 C 118.546875 114.398438 117.832031 115.722656 117.273438 117.101562 C 115.640625 121.222656 114.917969 125.675781 114.292969 130.054688 C 114.136719 131.242188 114.183594 132.789062 115.320312 133.171875 C 115.980469 133.378906 116.664062 133.027344 117.222656 132.675781 L 117.300781 132.648438 C 119.839844 131.265625 122.375 129.882812 124.511719 127.917969 C 126.695312 125.976562 128.453125 123.375 128.816406 120.515625 C 129.308594 117.273438 128.054688 113.976562 128.367188 110.710938 C 128.5 109.445312 128.78125 108.003906 127.949219 107.011719 C 127.757812 106.769531 127.453125 106.664062 127.175781 106.527344 C 126.503906 105.933594 124.964844 106.074219 124.28125 105.984375 Z M 124.382812 -63.273438 C 124.964844 -63.296875 125.523438 -63.394531 126.03125 -63.644531 C 126.554688 -63.914062 126.964844 -64.5625 126.832031 -65.152344 C 126.835938 -65.144531 126.839844 -65.140625 126.847656 -65.136719 C 128.460938 -63.433594 130.585938 -61.980469 131.207031 -65.472656 C 131.59375 -67.625 132.003906 -69.320312 133.074219 -71.316406 C 133.964844 -72.957031 134.960938 -74.675781 134.992188 -76.625 C 135.050781 -78.753906 133.941406 -80.707031 132.65625 -82.433594 C 131.796875 -83.628906 130.914062 -84.769531 130.234375 -86.066406 C 129.882812 -86.625 129.605469 -87.207031 129.378906 -87.890625 C 129.152344 -88.574219 128.851562 -89.488281 128.09375 -89.617188 C 127.382812 -89.722656 126.851562 -89.042969 126.441406 -88.484375 C 125.347656 -86.820312 124.175781 -85.125 123.386719 -83.308594 C 121.902344 -79.867188 121.6875 -75.917969 122.664062 -72.320312 C 123.265625 -70.113281 124.347656 -68.109375 125.785156 -66.304688 C 125.929688 -66.152344 126.09375 -65.972656 126.246094 -65.800781 C 125.777344 -66.054688 125.011719 -66.125 124.546875 -66.359375 C 122.546875 -67.304688 120.929688 -69.136719 119.492188 -70.8125 C 118.15625 -72.4375 116.894531 -74.089844 115.300781 -75.464844 C 114.722656 -75.945312 114.140625 -76.429688 113.457031 -76.835938 C 110.703125 -78.546875 107.28125 -78.9375 104.113281 -78.570312 C 100.871094 -78.179688 97.75 -77.152344 94.734375 -76.074219 C 94.277344 -75.925781 93.71875 -75.699219 93.566406 -75.269531 C 93.285156 -74.460938 94.292969 -73.824219 95.105469 -73.542969 C 97.054688 -72.75 98.824219 -71.601562 100.414062 -70.230469 C 102.789062 -68.144531 104.628906 -65.375 107.359375 -63.871094 L 107.511719 -63.792969 C 110.925781 -62.007812 115.03125 -62.347656 118.832031 -62.710938 C 120.707031 -62.90625 122.558594 -63.050781 124.382812 -63.273438 Z M 432.476562 52.984375 C 431.539062 53.585938 430.699219 54.496094 429.9375 55.125 C 427.902344 56.765625 425.847656 58.453125 424.089844 60.421875 C 420.835938 64.105469 418.921875 68.78125 418.117188 73.640625 C 417.34375 78.449219 417.683594 83.441406 418.679688 88.253906 C 418.777344 88.8125 418.902344 89.445312 419.257812 89.878906 C 419.535156 90.335938 420.0625 90.664062 420.648438 90.644531 C 420.699219 90.667969 420.722656 90.617188 420.773438 90.644531 C 421.507812 90.445312 421.839844 89.660156 422.25 88.976562 C 423.980469 85.792969 427.761719 84.339844 430.253906 81.664062 C 433.277344 78.4375 434.105469 73.78125 434.371094 69.347656 C 434.640625 64.667969 434.582031 60.132812 436.117188 55.582031 C 436.578125 54.039062 437.089844 52.140625 434.835938 52.082031 C 433.949219 52.078125 433.1875 52.453125 432.476562 52.984375 Z M 194.882812 -122.25 C 195.695312 -122.601562 196.578125 -121.839844 197.109375 -121.128906 C 197.816406 -120.261719 198.570312 -119.375 199.203125 -118.484375 C 199.253906 -118.460938 199.253906 -118.460938 199.226562 -118.410156 C 199.933594 -117.417969 200.539062 -116.351562 201.039062 -115.210938 C 202.046875 -113.054688 202.445312 -110.570312 201.855469 -108.269531 C 200.570312 -103.464844 195.113281 -100.699219 193.578125 -95.894531 C 193.449219 -95.5 193.246094 -95.15625 193.011719 -94.875 C 193.601562 -94.636719 194.214844 -94.382812 194.664062 -93.890625 C 196.074219 -92.542969 194.78125 -91.734375 193.3125 -91.714844 C 189.054688 -91.582031 185.371094 -87.925781 181.191406 -88.066406 C 180.960938 -87.992188 180.835938 -87.992188 180.65625 -88.019531 C 178.605469 -88.230469 176.761719 -89.351562 175.015625 -90.421875 C 173.753906 -91.1875 172.511719 -92 171.25 -92.765625 C 170.871094 -93.019531 170.492188 -93.273438 170.316406 -93.679688 C 170.140625 -94.339844 170.773438 -94.972656 171.332031 -95.324219 C 174.507812 -97.589844 178.386719 -98.738281 182.289062 -98.546875 C 184.648438 -98.46875 186.722656 -97.8125 188.753906 -96.886719 C 188.519531 -97.0625 188.285156 -97.234375 188.035156 -97.359375 C 186.671875 -98.175781 184.972656 -98.460938 183.480469 -98.769531 C 182.265625 -99.003906 181.050781 -99.234375 179.859375 -99.519531 C 179.808594 -99.542969 179.707031 -99.59375 179.632812 -99.570312 C 179 -99.699219 178.390625 -99.878906 177.785156 -100.058594 L 177.734375 -100.085938 C 177.605469 -100.085938 177.503906 -100.136719 177.351562 -100.210938 C 176.367188 -100.519531 175.40625 -101.003906 174.519531 -101.640625 C 172.929688 -102.761719 171.769531 -104.363281 170.734375 -105.960938 C 168.617188 -109.3125 167.007812 -112.914062 165.882812 -116.71875 C 165.65625 -117.402344 165.53125 -118.289062 166.089844 -118.769531 C 166.597656 -119.273438 167.484375 -119.015625 168.117188 -118.761719 C 171.632812 -117.429688 175.101562 -116.125 178.566406 -114.820312 C 178.820312 -114.691406 179.046875 -114.640625 179.300781 -114.511719 C 181.300781 -113.820312 183.222656 -112.976562 184.6875 -111.476562 C 188.453125 -107.6875 188.113281 -101.539062 190.523438 -96.964844 C 190.464844 -97.636719 190.429688 -98.328125 190.246094 -98.972656 C 189.242188 -102.140625 189.226562 -105.507812 189.820312 -108.824219 C 190.542969 -113.023438 192.230469 -116.992188 193.839844 -120.9375 C 194.09375 -121.441406 194.324219 -122.023438 194.882812 -122.25 Z M 190.082031 -96.246094 C 190.273438 -96.148438 190.460938 -96.042969 190.652344 -95.941406 C 190.648438 -95.953125 190.640625 -95.96875 190.640625 -95.980469 C 190.613281 -96.101562 190.613281 -96.238281 190.59375 -96.363281 C 190.417969 -96.296875 190.242188 -96.238281 190.082031 -96.246094 Z M 252.480469 65.339844 C 252.40625 65.367188 252.429688 65.441406 252.429688 65.441406 L 252.253906 65.796875 C 252.152344 65.957031 252.035156 66.101562 251.929688 66.261719 C 251.753906 66.027344 251.507812 65.867188 251.164062 65.945312 C 250.757812 66.121094 250.371094 67.132812 250.042969 67.40625 C 248.671875 68.746094 246.515625 69.621094 244.789062 70.527344 C 244.535156 70.652344 244.332031 70.804688 244.078125 70.929688 C 241.183594 72.640625 238.1875 74.425781 236.277344 77.203125 C 233.960938 80.664062 233.746094 85.121094 233.855469 89.300781 C 233.996094 93.808594 234.484375 98.496094 237.132812 102.050781 C 237.714844 102.914062 238.574219 103.726562 239.585938 103.730469 C 239.664062 103.707031 239.710938 103.730469 239.789062 103.707031 C 240.5 103.683594 241.160156 103.257812 241.691406 102.828125 C 244.867188 100.308594 246.578125 96.289062 247.273438 92.265625 C 247.789062 89.214844 247.832031 86.078125 247.964844 82.960938 C 248.953125 88.5625 251.910156 93.753906 255.921875 97.769531 C 256.324219 98.097656 256.703125 98.480469 257.160156 98.710938 C 257.335938 98.863281 257.539062 98.964844 257.792969 99.09375 C 258.476562 99.375 259.363281 99.378906 259.921875 98.898438 C 260.453125 98.46875 260.609375 97.785156 260.8125 97.128906 C 261.429688 94.777344 262.019531 92.472656 262.683594 90.148438 C 263.148438 88.222656 263.6875 86.277344 263.390625 84.351562 C 263.09375 82.171875 261.882812 80.292969 260.542969 78.667969 C 259.15625 77.015625 257.566406 75.515625 256.355469 73.761719 C 255.070312 72.035156 254.164062 69.929688 254.296875 67.78125 C 254.300781 67.273438 254.402344 66.816406 254.351562 66.285156 C 254.277344 65.675781 253.902344 64.917969 253.21875 64.886719 C 252.761719 64.910156 252.609375 65.089844 252.480469 65.339844 Z M 299.941406 117.265625 C 299.023438 117.074219 297.519531 117.191406 296.847656 117.148438 C 294.339844 116.960938 291.960938 116.269531 289.632812 115.476562 C 289.027344 115.296875 288.394531 115.039062 287.785156 114.859375 C 284.925781 113.859375 282.042969 112.914062 279.027344 112.851562 C 274.644531 112.859375 270.535156 114.84375 267.128906 117.5625 C 263.777344 120.3125 261.078125 123.769531 258.382812 127.230469 C 258.027344 127.683594 257.621094 128.238281 257.695312 128.847656 C 257.816406 129.859375 259.082031 130.246094 260.09375 130.375 C 264.703125 130.925781 269.289062 131.527344 273.921875 132.152344 C 274.277344 132.203125 274.582031 132.230469 274.933594 132.28125 C 277.441406 132.597656 279.949219 132.785156 282.308594 132.007812 C 284.691406 131.308594 286.648438 129.695312 288.578125 128.132812 C 290.695312 126.417969 292.789062 124.707031 294.882812 123 C 293.453125 124.933594 292.300781 127.0625 291.515625 129.359375 C 289.953125 133.707031 289.382812 138.367188 289.113281 143.050781 C 288.980469 144.695312 288.921875 146.441406 289.222656 148.113281 C 289.371094 148.953125 289.648438 149.914062 290.429688 150.246094 C 290.910156 150.425781 291.445312 150.378906 291.875 150.152344 C 292.15625 150.101562 292.382812 149.898438 292.585938 149.75 C 293.121094 149.195312 293.476562 148.484375 293.859375 147.855469 C 295.210938 145.554688 297.089844 143.585938 298.820312 141.542969 C 300.574219 139.449219 302.152344 137.199219 302.769531 134.59375 C 304.078125 129.359375 301.386719 123.878906 302.214844 118.589844 C 302.460938 116.796875 301.289062 116.378906 299.941406 117.265625 Z M 313.238281 -142.5 C 312.578125 -142.449219 312.476562 -141.488281 312.574219 -140.804688 C 313.394531 -136.140625 314.191406 -131.429688 316.074219 -127.117188 C 316.816406 -125.421875 317.804688 -123.820312 318.925781 -122.328125 C 318.664062 -122.519531 318.402344 -122.714844 318.140625 -122.90625 C 314.902344 -125.296875 311.007812 -127.390625 307.054688 -126.847656 C 304.648438 -126.476562 302.488281 -125.21875 300.457031 -123.835938 C 297.308594 -121.617188 294.335938 -119.125 292.171875 -115.964844 C 291.84375 -115.4375 291.484375 -114.730469 291.761719 -114.144531 C 292.265625 -113.257812 293.535156 -113.632812 294.445312 -113.933594 C 297.539062 -114.90625 300.828125 -113.628906 303.738281 -112.222656 L 304.347656 -111.917969 C 306.976562 -110.589844 309.785156 -109.109375 312.695312 -109.097656 C 316.625 -109.082031 319.976562 -111.578125 323.425781 -113.132812 C 324.0625 -113.425781 325.464844 -113.722656 326.722656 -114.097656 C 325.53125 -112.863281 324.664062 -111.140625 324 -109.738281 C 322.648438 -106.933594 321.574219 -104.050781 320.804688 -101.015625 C 319.878906 -97.550781 319.335938 -93.703125 320.84375 -90.40625 C 321.09375 -89.898438 321.449219 -89.339844 322.003906 -89.3125 C 322.105469 -89.261719 322.15625 -89.234375 322.234375 -89.257812 C 322.640625 -89.308594 322.917969 -89.613281 323.199219 -89.914062 C 325.054688 -91.957031 326.910156 -94 328.765625 -96.046875 C 330.164062 -97.558594 331.589844 -99.125 332.203125 -101.097656 C 333.457031 -104.964844 331.367188 -108.875 331.128906 -112.800781 C 331.039062 -114.515625 330.988281 -116.113281 328.957031 -115.527344 C 328.988281 -115.664062 328.9375 -115.773438 328.910156 -115.894531 C 329.277344 -115.871094 329.632812 -115.914062 329.898438 -116.148438 C 330.277344 -116.398438 330.355469 -116.929688 330.484375 -117.4375 C 331.285156 -121.789062 331.933594 -126.597656 329.691406 -130.457031 C 328.558594 -132.359375 326.738281 -133.785156 324.84375 -135.058594 C 324.4375 -135.390625 323.957031 -135.695312 323.527344 -135.976562 C 320.34375 -138.089844 317.183594 -140.128906 314.046875 -142.214844 C 313.820312 -142.394531 313.515625 -142.546875 313.238281 -142.5 Z M 313.238281 -142.5 " fill-opacity="1" fill-rule="nonzero"/></g></g></g></g><g clip-path="url(#41ba0ae6b1)"><g clip-path="url(#e529e6c7e8)"><g clip-path="url(#d3ead50470)"><g clip-path="url(#8976e84a65)"><path fill="#587e60" d="M 250.984375 70.535156 C 251.09375 70.324219 251.367188 70.324219 251.5 70.507812 C 251.957031 71.128906 251.933594 72.09375 251.921875 72.832031 C 251.90625 73.636719 251.863281 74.441406 251.8125 75.242188 C 251.695312 76.972656 251.570312 78.742188 251.894531 80.457031 C 252.242188 82.300781 253.132812 84.003906 253.929688 85.683594 C 254.742188 87.394531 255.347656 89.34375 256.527344 90.84375 C 256.746094 91.121094 256.308594 91.480469 256.058594 91.242188 C 254.707031 89.945312 254.058594 87.976562 253.191406 86.34375 C 252.285156 84.640625 251.339844 82.859375 250.894531 80.96875 C 250.488281 79.222656 250.484375 77.4375 250.550781 75.660156 C 250.582031 74.742188 250.652344 73.824219 250.679688 72.910156 C 250.703125 72.15625 250.628906 71.21875 250.984375 70.535156 Z M 127.136719 -66.121094 C 127.054688 -65.867188 126.957031 -65.621094 126.898438 -65.363281 C 126.871094 -65.3125 126.871094 -65.1875 126.847656 -65.136719 C 128.460938 -63.433594 130.585938 -61.980469 131.207031 -65.472656 C 131.59375 -67.625 132.003906 -69.320312 133.074219 -71.316406 C 133.964844 -72.957031 134.960938 -74.675781 134.992188 -76.625 C 135.050781 -78.753906 133.941406 -80.707031 132.65625 -82.433594 C 131.796875 -83.628906 130.914062 -84.769531 130.234375 -86.066406 C 130.234375 -85.9375 130.234375 -85.8125 130.257812 -85.734375 C 130.679688 -82.921875 132.039062 -80.207031 131.851562 -77.324219 C 131.640625 -73.878906 129.253906 -71.003906 127.789062 -67.820312 C 127.351562 -68.425781 126.914062 -69.035156 126.695312 -69.730469 C 126.191406 -71.355469 126.300781 -73.105469 126.097656 -74.777344 C 125.695312 -78.136719 126.222656 -81.699219 127.515625 -84.820312 C 127.660156 -85.164062 127.167969 -85.421875 126.992188 -85.082031 C 125.328125 -81.863281 124.496094 -78.191406 124.789062 -74.574219 C 124.929688 -72.820312 124.871094 -71 125.382812 -69.296875 C 125.695312 -68.261719 126.339844 -67.070312 127.136719 -66.121094 Z M 432.476562 52.984375 C 432.449219 53.289062 432.449219 53.539062 432.449219 53.792969 C 432.453125 54.355469 432.4375 54.917969 432.429688 55.480469 C 430.730469 57.484375 430.035156 60.363281 428.710938 62.585938 C 427.027344 65.414062 424.914062 67.933594 423.363281 70.851562 C 420.394531 76.433594 419.023438 82.691406 419.890625 88.992188 C 419.945312 89.402344 420.554688 89.375 420.542969 88.953125 C 420.34375 82.234375 421.648438 76.113281 425.226562 70.378906 C 426.871094 67.75 428.878906 65.363281 430.417969 62.664062 C 431.152344 61.375 431.644531 60.027344 432.230469 58.671875 C 432.257812 58.609375 432.300781 58.542969 432.332031 58.476562 C 431.933594 65.8125 430.351562 73.117188 426.738281 79.449219 C 424.574219 83.113281 421.800781 86.597656 420.648438 90.644531 C 420.699219 90.667969 420.722656 90.617188 420.773438 90.644531 C 421.507812 90.445312 421.839844 89.660156 422.25 88.976562 C 423.980469 85.792969 427.761719 84.339844 430.253906 81.664062 C 433.277344 78.4375 434.105469 73.78125 434.375 69.347656 C 434.640625 64.667969 434.582031 60.132812 436.117188 55.582031 C 436.578125 54.039062 437.089844 52.140625 434.835938 52.082031 C 433.949219 52.078125 433.1875 52.453125 432.476562 52.984375 Z M 326.828125 -130.820312 C 327.652344 -127.296875 326.550781 -123.605469 326.515625 -120.007812 C 326.5 -119.449219 326.523438 -118.886719 326.589844 -118.332031 C 326.148438 -118.957031 325.738281 -119.613281 325.371094 -120.257812 C 324.136719 -122.421875 323.191406 -124.757812 322.421875 -127.121094 C 321.691406 -129.367188 320.742188 -131.503906 319.636719 -133.589844 C 319.121094 -134.5625 318.644531 -135.574219 317.902344 -136.402344 C 317.085938 -137.3125 315.96875 -137.898438 315.269531 -138.917969 C 314.96875 -139.355469 314.324219 -138.929688 314.582031 -138.472656 C 315.09375 -137.570312 315.867188 -136.933594 316.585938 -136.199219 C 317.566406 -135.199219 318.082031 -133.933594 318.660156 -132.679688 C 319.75 -130.324219 320.4375 -127.957031 321.101562 -125.460938 C 321.726562 -123.125 322.617188 -120.886719 323.78125 -118.765625 C 324.015625 -118.328125 324.355469 -117.78125 324.746094 -117.21875 C 324.445312 -117.164062 324.144531 -117.101562 323.851562 -117.066406 C 322.507812 -116.898438 321.160156 -116.964844 319.820312 -117.128906 C 316.785156 -117.492188 313.9375 -118.382812 310.996094 -119.140625 C 308.390625 -119.8125 305.945312 -120.601562 303.265625 -120.03125 C 300.613281 -119.464844 298.332031 -118.8125 295.945312 -117.519531 C 295.5625 -117.3125 295.878906 -116.765625 296.257812 -116.867188 C 298.9375 -117.578125 301.488281 -118.5 304.300781 -118.578125 C 305.859375 -118.625 307.285156 -117.808594 308.699219 -117.25 C 310.023438 -116.726562 311.34375 -116.214844 312.691406 -115.753906 C 313.5625 -115.457031 314.433594 -115.246094 315.304688 -115.015625 C 315.257812 -114.988281 315.195312 -114.996094 315.148438 -114.964844 C 314.617188 -114.664062 314.234375 -114.15625 313.777344 -113.753906 C 311.769531 -111.914062 308.804688 -111.316406 306.09375 -111.609375 C 305.484375 -111.660156 304.953125 -111.738281 304.347656 -111.917969 C 306.976562 -110.589844 309.785156 -109.109375 312.695312 -109.097656 C 316.625 -109.082031 319.976562 -111.578125 323.425781 -113.132812 C 324.3125 -113.539062 326.652344 -113.949219 328.023438 -114.585938 C 328.042969 -114.582031 328.0625 -114.5625 328.082031 -114.558594 C 326.324219 -111.226562 326.363281 -107.699219 326.210938 -103.964844 C 326.113281 -101.554688 325.046875 -99.847656 323.933594 -97.785156 C 322.957031 -95.96875 322.355469 -93.96875 322.128906 -91.921875 C 322.097656 -91.640625 322.511719 -91.546875 322.5625 -91.832031 C 323.023438 -94.230469 324.03125 -96.316406 325.414062 -98.3125 C 326.5625 -99.980469 327.324219 -101.53125 327.488281 -103.574219 C 327.65625 -105.632812 327.570312 -107.695312 327.855469 -109.753906 C 327.953125 -110.46875 328.121094 -111.164062 328.335938 -111.84375 C 328.394531 -111.117188 328.460938 -110.386719 328.609375 -109.695312 C 328.984375 -107.792969 329.507812 -105.816406 329.425781 -103.894531 C 329.316406 -100.90625 327.835938 -98.101562 326.128906 -95.601562 C 324.753906 -93.503906 323.179688 -91.507812 322.003906 -89.3125 C 322.105469 -89.261719 322.15625 -89.234375 322.234375 -89.257812 C 322.640625 -89.308594 322.917969 -89.613281 323.199219 -89.914062 C 325.054688 -91.957031 326.910156 -94 328.765625 -96.046875 C 330.164062 -97.558594 331.589844 -99.125 332.203125 -101.097656 C 333.457031 -104.964844 331.367188 -108.875 331.128906 -112.800781 C 331.039062 -114.480469 330.992188 -116.050781 329.078125 -115.558594 C 329.015625 -115.699219 328.898438 -115.796875 328.808594 -115.914062 C 329.210938 -115.871094 329.605469 -115.890625 329.898438 -116.148438 C 330.277344 -116.398438 330.355469 -116.929688 330.484375 -117.4375 C 331.285156 -121.789062 331.933594 -126.597656 329.691406 -130.457031 C 328.558594 -132.359375 326.738281 -133.785156 324.84375 -135.058594 C 325.777344 -133.761719 326.453125 -132.34375 326.828125 -130.820312 Z M 199.910156 -110.203125 C 198.988281 -107.371094 196.648438 -105.25 194.589844 -103.054688 C 193.980469 -102.441406 193.40625 -101.773438 192.863281 -101.074219 C 192.863281 -101.09375 192.855469 -101.113281 192.855469 -101.128906 C 192.789062 -102.652344 192.9375 -104.175781 193.171875 -105.675781 C 193.453125 -107.484375 194.066406 -109.21875 194.386719 -111.019531 C 194.703125 -112.796875 194.863281 -114.578125 195.726562 -116.199219 C 195.902344 -116.527344 195.402344 -116.773438 195.214844 -116.457031 C 194.308594 -114.945312 193.957031 -113.195312 193.550781 -111.5 C 193.078125 -109.523438 192.410156 -107.597656 192.023438 -105.597656 C 191.722656 -104.054688 191.546875 -102.488281 191.59375 -100.914062 C 191.609375 -100.40625 191.652344 -99.863281 191.71875 -99.324219 C 191.234375 -98.4375 190.894531 -97.496094 190.75 -96.5 C 188.0625 -101.113281 188.578125 -107.5625 184.6875 -111.476562 C 183.222656 -112.976562 181.300781 -113.820312 179.300781 -114.511719 C 179.476562 -114.359375 179.578125 -114.183594 179.679688 -114.003906 C 180.511719 -112.761719 181.269531 -111.492188 181.796875 -110.148438 C 182.449219 -108.546875 182.796875 -106.851562 182.894531 -105.152344 C 182.980469 -104.214844 182.886719 -103.257812 182.476562 -102.414062 C 182.148438 -102.617188 181.800781 -102.804688 181.492188 -103.023438 C 180.011719 -104.066406 178.550781 -105.191406 177.230469 -106.433594 C 175.882812 -107.703125 174.757812 -109.1875 173.445312 -110.5 C 172.171875 -111.773438 170.8125 -112.957031 169.832031 -114.492188 C 169.648438 -114.777344 169.238281 -114.5 169.394531 -114.207031 C 170.230469 -112.652344 171.441406 -111.378906 172.59375 -110.054688 C 173.890625 -108.570312 175.023438 -106.941406 176.417969 -105.535156 C 177.777344 -104.164062 179.34375 -102.941406 180.917969 -101.824219 C 181.144531 -101.664062 181.382812 -101.5 181.617188 -101.332031 C 181.128906 -100.941406 180.566406 -100.625 179.964844 -100.480469 C 179.101562 -100.28125 178.242188 -100.207031 177.351562 -100.210938 C 177.277344 -100.1875 177.175781 -100.238281 177.101562 -100.214844 C 177.328125 -100.160156 177.503906 -100.136719 177.734375 -100.085938 L 177.785156 -100.058594 C 178.417969 -99.929688 179.050781 -99.800781 179.632812 -99.570312 C 179.707031 -99.59375 179.808594 -99.542969 179.859375 -99.519531 C 181.050781 -99.234375 182.265625 -99.003906 183.480469 -98.769531 C 184.972656 -98.460938 186.671875 -98.175781 188.035156 -97.359375 C 188.925781 -96.910156 189.628906 -95.851562 190.730469 -96.398438 C 190.710938 -96.253906 190.652344 -96.125 190.640625 -95.980469 C 190.664062 -95.777344 190.742188 -95.550781 190.816406 -95.324219 C 190.878906 -95.183594 190.960938 -95.164062 191.03125 -95.054688 C 190.546875 -95.003906 190.074219 -94.886719 189.605469 -94.738281 C 188.746094 -94.898438 187.851562 -94.9375 187 -94.996094 C 185.421875 -95.105469 183.847656 -95.136719 182.269531 -95.082031 C 179.121094 -94.964844 176.101562 -94.457031 173.085938 -93.550781 C 172.792969 -93.460938 172.875 -92.957031 173.191406 -93.011719 C 176.199219 -93.5 179.316406 -93.648438 182.359375 -93.59375 C 183.890625 -93.570312 185.425781 -93.488281 186.949219 -93.367188 C 186.953125 -93.367188 186.957031 -93.367188 186.957031 -93.367188 C 186.730469 -93.195312 186.484375 -93.046875 186.273438 -92.859375 C 184.953125 -91.625 183.933594 -90.109375 182.585938 -88.949219 C 182.128906 -88.546875 181.722656 -88.242188 181.191406 -88.066406 C 185.371094 -87.925781 189.054688 -91.582031 193.3125 -91.71875 C 194.78125 -91.734375 196.074219 -92.542969 194.664062 -93.890625 C 194.214844 -94.382812 193.601562 -94.636719 193.011719 -94.875 C 193.246094 -95.15625 193.449219 -95.5 193.578125 -95.894531 C 195.113281 -100.699219 200.570312 -103.464844 201.855469 -108.269531 C 202.445312 -110.570312 202.046875 -113.054688 201.039062 -115.210938 C 200.539062 -116.351562 199.933594 -117.417969 199.226562 -118.410156 C 199.554688 -117.546875 199.804688 -116.660156 200.003906 -115.796875 C 200.402344 -113.949219 200.449219 -112.023438 199.910156 -110.203125 Z M 124.382812 -63.273438 C 124.964844 -63.296875 125.523438 -63.394531 126.03125 -63.644531 C 126.714844 -63.996094 127.226562 -65.007812 126.542969 -65.667969 C 126.191406 -66.101562 125.101562 -66.078125 124.546875 -66.359375 C 122.546875 -67.304688 120.929688 -69.136719 119.492188 -70.8125 C 118.15625 -72.4375 116.894531 -74.089844 115.300781 -75.464844 C 115.90625 -73.257812 116.492188 -71.128906 117.117188 -68.976562 C 115.269531 -70.125 113.382812 -71.277344 111.4375 -72.25 C 109.46875 -73.230469 107.347656 -73.957031 105.167969 -74.269531 C 102.902344 -74.589844 100.605469 -74.4375 98.371094 -74.96875 C 98.085938 -75.039062 97.917969 -74.585938 98.199219 -74.472656 C 100.359375 -73.625 102.644531 -73.40625 104.898438 -72.921875 C 107.332031 -72.398438 109.613281 -71.5 111.773438 -70.261719 C 113.550781 -69.242188 115.300781 -68.167969 117.039062 -67.082031 C 116.828125 -66.800781 116.519531 -66.570312 116.183594 -66.394531 C 113.519531 -64.886719 110.574219 -63.328125 107.511719 -63.792969 C 110.925781 -62.007812 115.03125 -62.347656 118.832031 -62.710938 C 120.707031 -62.90625 122.558594 -63.050781 124.382812 -63.273438 Z M 68.988281 40.613281 C 69.183594 42.488281 70.113281 44.289062 69.980469 46.1875 C 69.851562 48.601562 68.203125 50.582031 67.007812 52.71875 C 66.722656 52.054688 66.378906 51.40625 66.128906 50.765625 C 65.421875 48.957031 65.386719 46.875 65.695312 44.96875 C 66.015625 42.988281 66.621094 41.042969 67.042969 39.082031 C 67.261719 38.074219 67.503906 37.078125 67.597656 36.054688 C 67.695312 35.027344 67.734375 33.996094 67.929688 32.984375 C 67.984375 32.6875 67.523438 32.503906 67.410156 32.804688 C 66.703125 34.667969 66.558594 36.761719 66.082031 38.695312 C 65.554688 40.816406 64.828125 42.917969 64.445312 45.070312 C 64.125 46.871094 63.976562 48.75 64.445312 50.539062 C 64.789062 51.855469 65.386719 53.339844 66.144531 54.574219 C 66.050781 54.855469 65.949219 55.132812 65.898438 55.414062 C 66.351562 55.898438 66.804688 56.378906 67.234375 57.039062 C 67.664062 57.699219 68.066406 58.15625 68.851562 58.363281 C 67.972656 56.335938 68.816406 54.160156 69.859375 52.339844 C 70.957031 50.546875 72.355469 48.78125 72.640625 46.703125 C 73.003906 44.097656 71.667969 41.585938 70.738281 39.148438 C 70.160156 37.652344 69.785156 36.132812 69.511719 34.535156 C 69.253906 36.5625 68.742188 38.585938 68.988281 40.613281 Z M 61.265625 53.648438 C 60.660156 52.835938 59.75 52.25 59.171875 51.386719 C 57.859375 49.582031 56.980469 47.554688 56.175781 45.5 C 54.894531 42.378906 53.742188 39.132812 51.59375 36.59375 C 50.308594 35.121094 48.742188 33.949219 46.96875 33.054688 C 49.367188 35.722656 51.183594 38.921875 52.234375 42.371094 C 53.035156 44.910156 53.449219 47.601562 54.464844 50.03125 C 53.078125 49.21875 51.667969 48.4375 50.445312 47.390625 C 48.601562 45.8125 47.1875 43.816406 45.570312 42.023438 C 44.003906 40.285156 42.542969 38.335938 40.761719 36.808594 C 38.816406 35.136719 36.515625 33.960938 34.175781 32.957031 C 33.871094 32.828125 33.664062 33.242188 33.945312 33.410156 C 36.332031 34.832031 38.757812 36.320312 40.699219 38.335938 C 42.402344 40.109375 43.984375 42.128906 45.523438 44.042969 C 47.800781 46.882812 50.320312 49.621094 53.5 51.355469 C 52.089844 51.160156 50.671875 51.019531 49.242188 51.070312 C 50.152344 51.402344 51.140625 51.710938 52.074219 51.992188 C 54.859375 52.890625 57.59375 53.632812 60.378906 54.40625 C 61.3125 54.6875 61.847656 54.386719 61.265625 53.648438 Z M 32.003906 77.3125 C 34.996094 75.90625 37.585938 73.914062 40.128906 71.898438 C 40.558594 71.546875 41.675781 70.84375 41.453125 70.15625 C 41.277344 69.625 40.617188 69.800781 40.210938 69.722656 C 38.488281 69.488281 36.898438 68.492188 35.378906 67.726562 C 34.824219 67.445312 34.265625 67.164062 33.683594 66.9375 C 33.734375 67.46875 33.933594 68.078125 33.957031 68.660156 C 34.101562 69.691406 33.839844 70.734375 33.367188 71.683594 C 32.09375 71.914062 30.828125 72.25 29.539062 72.390625 C 27.230469 72.640625 24.765625 72.03125 22.507812 71.582031 C 20.160156 71.117188 17.824219 70.371094 15.429688 70.1875 C 13.3125 70.023438 11.125 70.757812 9.082031 69.945312 C 8.753906 69.816406 8.503906 70.28125 8.828125 70.449219 C 10.605469 71.367188 12.46875 71.253906 14.40625 71.335938 C 17.046875 71.445312 19.652344 72.449219 22.214844 73.027344 C 24.417969 73.523438 26.757812 74.128906 29.027344 74.082031 C 29.929688 74.0625 30.890625 73.882812 31.839844 73.707031 C 30.597656 74.855469 29.03125 75.640625 27.445312 76.28125 C 25.644531 76.957031 23.71875 77.507812 21.765625 77.726562 C 20.90625 77.800781 19.992188 77.847656 19.132812 77.792969 C 20.042969 78.253906 21.003906 78.609375 21.992188 78.792969 C 25.332031 79.589844 28.90625 78.792969 32.003906 77.3125 Z M 124.28125 105.984375 C 122.808594 105.878906 121.417969 105.621094 120.023438 105.363281 C 119.691406 106.144531 119.4375 107.03125 119.003906 107.761719 C 118.816406 108.0625 118.570312 108.308594 118.328125 108.558594 C 116.414062 108.261719 114.246094 108.589844 112.484375 108.917969 C 110.109375 109.359375 107.765625 110.082031 105.574219 111.097656 C 100.890625 113.273438 97.523438 116.8125 94.136719 120.589844 C 93.851562 120.910156 94.316406 121.300781 94.621094 121.027344 C 98.210938 117.847656 101.839844 114.617188 106.304688 112.734375 C 108.355469 111.871094 110.476562 111.25 112.660156 110.8125 C 113.746094 110.597656 114.835938 110.457031 115.929688 110.300781 C 115.339844 110.632812 114.746094 110.953125 114.179688 111.289062 C 111.5625 112.949219 109.554688 115.425781 107.140625 117.3125 C 102.621094 120.867188 96.8125 122.058594 91.1875 123.023438 C 91.539062 123.332031 92.070312 123.40625 92.527344 123.386719 C 94.984375 123.292969 97.417969 123.253906 99.851562 123.210938 C 102.484375 123.144531 105.144531 123.027344 107.582031 122.101562 C 110.980469 120.773438 113.472656 117.972656 116.191406 115.601562 C 118.34375 113.714844 120.707031 112.066406 123.191406 110.621094 C 121.863281 113.902344 122.347656 117.5625 121.613281 121.027344 C 121.234375 122.804688 120.230469 124.214844 119.351562 125.765625 C 118.5 127.265625 117.707031 128.957031 116.253906 129.976562 C 115.925781 130.207031 116.246094 130.679688 116.59375 130.496094 C 118.054688 129.714844 119.105469 128.324219 120.015625 126.976562 C 121.058594 125.425781 122.382812 123.886719 123.03125 122.113281 C 123.726562 120.199219 123.960938 117.855469 124 115.828125 C 124.023438 114.660156 123.867188 113.527344 124.023438 112.359375 C 124.125 111.570312 124.1875 110.816406 124.140625 110.042969 C 124.359375 109.925781 124.554688 109.773438 124.773438 109.660156 C 124.785156 109.652344 124.804688 109.644531 124.816406 109.636719 C 125.339844 113.179688 125.917969 116.722656 125.246094 120.171875 C 124.652344 123.234375 123.074219 125.988281 121.214844 128.410156 C 119.996094 129.949219 118.671875 131.3125 117.300781 132.648438 C 119.839844 131.265625 122.375 129.882812 124.511719 127.917969 C 126.695312 125.976562 128.453125 123.375 128.816406 120.515625 C 129.308594 117.273438 128.054688 113.976562 128.367188 110.710938 C 128.5 109.445312 128.78125 108.003906 127.949219 107.011719 C 127.757812 106.769531 127.453125 106.664062 127.175781 106.527344 C 126.503906 105.933594 124.964844 106.074219 124.28125 105.984375 Z M 252.480469 65.339844 C 252.40625 65.367188 252.429688 65.441406 252.429688 65.441406 C 252.015625 67.898438 252.136719 70.429688 252.835938 72.8125 C 254.441406 78.3125 258.933594 82.863281 259.5 88.539062 C 259.816406 92.0625 258.664062 95.476562 257.160156 98.710938 C 257.335938 98.863281 257.539062 98.964844 257.792969 99.09375 C 258.476562 99.375 259.363281 99.378906 259.921875 98.898438 C 260.453125 98.46875 260.609375 97.785156 260.8125 97.128906 C 261.429688 94.777344 262.019531 92.472656 262.683594 90.148438 C 263.148438 88.222656 263.6875 86.277344 263.390625 84.351562 C 263.09375 82.171875 261.882812 80.292969 260.542969 78.667969 C 259.15625 77.015625 257.566406 75.515625 256.355469 73.761719 C 255.070312 72.035156 254.164062 69.929688 254.296875 67.78125 C 254.300781 67.273438 254.402344 66.816406 254.351562 66.285156 C 254.277344 65.675781 253.902344 64.917969 253.21875 64.886719 C 252.761719 64.910156 252.609375 65.089844 252.480469 65.339844 Z M 239.789062 103.707031 C 240.5 103.683594 241.160156 103.257812 241.691406 102.828125 C 244.867188 100.308594 246.578125 96.289062 247.273438 92.265625 C 247.945312 88.292969 247.808594 84.164062 248.125 80.136719 C 248.394531 76.085938 249.214844 71.9375 251.484375 68.578125 C 251.738281 68.199219 252.066406 67.796875 252.171875 67.339844 C 252.300781 66.707031 251.949219 65.769531 251.164062 65.945312 C 250.757812 66.121094 250.371094 67.132812 250.042969 67.40625 C 248.671875 68.746094 246.515625 69.621094 244.789062 70.527344 C 245.015625 70.707031 245.167969 70.910156 245.292969 71.164062 C 245.8125 72.078125 245.964844 73.132812 245.921875 74.1875 C 245.09375 75.140625 244.433594 76.289062 243.855469 77.316406 C 242.503906 79.726562 241.371094 82.171875 240.570312 84.824219 C 239.253906 89.175781 238.019531 94.710938 239.910156 99.085938 C 240.023438 99.355469 240.484375 99.398438 240.527344 99.050781 C 240.558594 98.742188 240.605469 98.4375 240.671875 98.132812 C 240.695312 98.011719 240.515625 97.941406 240.457031 98.058594 C 240.242188 96.066406 240.15625 94.152344 240.441406 92.113281 C 240.746094 89.910156 241.335938 87.746094 241.988281 85.625 C 242.28125 84.679688 242.644531 83.765625 243.023438 82.863281 C 242.089844 86.429688 242.277344 90.273438 242.152344 93.992188 C 242.117188 97.332031 241.570312 100.929688 239.789062 103.707031 Z M 299.941406 117.265625 C 299.023438 117.074219 297.519531 117.191406 296.847656 117.148438 C 294.339844 116.960938 291.960938 116.269531 289.632812 115.476562 C 289.027344 115.296875 288.394531 115.039062 287.785156 114.859375 C 288.1875 115.949219 289.070312 116.964844 289.574219 117.980469 C 290.171875 119.183594 290.214844 120.546875 289.945312 121.867188 C 289.9375 121.867188 289.933594 121.871094 289.921875 121.871094 C 286.675781 122.179688 283.421875 121.761719 280.171875 121.726562 C 273.980469 121.652344 268.5 124.023438 263.472656 127.46875 C 263.21875 127.644531 263.464844 128.019531 263.730469 127.871094 C 266.539062 126.292969 269.578125 124.960938 272.699219 124.132812 C 276.019531 123.25 279.28125 123.28125 282.675781 123.597656 C 284.847656 123.800781 287.042969 124.011719 289.226562 123.925781 C 289.132812 124.101562 289.074219 124.292969 288.972656 124.460938 C 287.773438 126.332031 285.871094 127.71875 283.964844 128.847656 C 281.121094 130.457031 278.078125 131.585938 274.933594 132.28125 C 277.441406 132.597656 279.949219 132.785156 282.308594 132.007812 C 284.691406 131.308594 286.648438 129.695312 288.578125 128.132812 C 290.871094 126.273438 293.140625 124.421875 295.410156 122.566406 C 295.769531 122.425781 296.128906 122.300781 296.484375 122.152344 C 296.871094 121.988281 297.285156 121.820312 297.6875 121.632812 C 296.242188 123.199219 295.386719 125.328125 294.523438 127.246094 C 293.671875 129.125 292.824219 131.136719 292.441406 133.167969 C 292.0625 135.171875 292.074219 137.21875 291.898438 139.242188 C 291.734375 141.164062 291.457031 143.058594 291.8125 144.976562 C 291.878906 145.335938 292.445312 145.324219 292.398438 144.941406 C 292.164062 142.960938 292.59375 141.011719 292.820312 139.054688 C 293.042969 137.164062 293.101562 135.246094 293.59375 133.402344 C 294.136719 131.359375 295.230469 129.460938 296.199219 127.59375 C 296.644531 126.734375 297.152344 125.871094 297.605469 124.984375 C 297.316406 129.101562 297.257812 133.269531 296.226562 137.253906 C 295.097656 141.503906 292.878906 145.394531 291.980469 149.695312 C 291.976562 149.824219 291.902344 149.972656 291.875 150.152344 C 292.15625 150.101562 292.382812 149.898438 292.585938 149.75 C 293.121094 149.195312 293.476562 148.484375 293.859375 147.855469 C 295.210938 145.554688 297.089844 143.585938 298.820312 141.542969 C 300.574219 139.449219 302.152344 137.203125 302.769531 134.59375 C 304.078125 129.359375 301.386719 123.878906 302.214844 118.589844 C 302.460938 116.796875 301.289062 116.378906 299.941406 117.265625 Z M 299.941406 117.265625 " fill-opacity="1" fill-rule="nonzero"/></g></g></g></g></svg>