<svg xmlns="http://www.w3.org/2000/svg" xmlns:xlink="http://www.w3.org/1999/xlink" width="500" zoomAndPan="magnify" viewBox="0 0 375 374.999991" height="500" preserveAspectRatio="xMidYMid meet" version="1.0"><defs><clipPath id="0cf19a987d"><path d="M 374 226 L 375 226 L 375 306 L 374 306 Z M 374 226 " clip-rule="nonzero"/></clipPath><clipPath id="387d463556"><path d="M 84.136719 172.105469 L 420.375 -100.324219 L 665.890625 202.695312 L 329.652344 475.125 Z M 84.136719 172.105469 " clip-rule="nonzero"/></clipPath><clipPath id="0d4484cd11"><path d="M 84.136719 172.105469 L 344.035156 -38.472656 L 558.863281 226.671875 L 298.964844 437.246094 Z M 84.136719 172.105469 " clip-rule="nonzero"/></clipPath><clipPath id="4a9014b319"><path d="M 84.136719 172.105469 L 420.375 -100.324219 L 665.890625 202.695312 L 329.652344 475.125 Z M 84.136719 172.105469 " clip-rule="nonzero"/></clipPath><clipPath id="ef5a39b89b"><path d="M 353 38 L 375 38 L 375 375 L 353 375 Z M 353 38 " clip-rule="nonzero"/></clipPath><clipPath id="e126a5e8e5"><path d="M 84.136719 172.105469 L 420.375 -100.324219 L 665.890625 202.695312 L 329.652344 475.125 Z M 84.136719 172.105469 " clip-rule="nonzero"/></clipPath><clipPath id="3a264683dd"><path d="M 84.136719 172.105469 L 344.035156 -38.472656 L 558.863281 226.671875 L 298.964844 437.246094 Z M 84.136719 172.105469 " clip-rule="nonzero"/></clipPath><clipPath id="c1ed53ae7c"><path d="M 84.136719 172.105469 L 420.375 -100.324219 L 665.890625 202.695312 L 329.652344 475.125 Z M 84.136719 172.105469 " clip-rule="nonzero"/></clipPath><clipPath id="471752f3d4"><path d="M 361 0 L 375 0 L 375 47 L 361 47 Z M 361 0 " clip-rule="nonzero"/></clipPath><clipPath id="c08b0e8649"><path d="M 84.136719 172.105469 L 420.375 -100.324219 L 665.890625 202.695312 L 329.652344 475.125 Z M 84.136719 172.105469 " clip-rule="nonzero"/></clipPath><clipPath id="ed91d29671"><path d="M 84.136719 172.105469 L 344.035156 -38.472656 L 558.863281 226.671875 L 298.964844 437.246094 Z M 84.136719 172.105469 " clip-rule="nonzero"/></clipPath><clipPath id="73753b3ec9"><path d="M 84.136719 172.105469 L 420.375 -100.324219 L 665.890625 202.695312 L 329.652344 475.125 Z M 84.136719 172.105469 " clip-rule="nonzero"/></clipPath><clipPath id="add2a54fd0"><path d="M 361 0 L 375 0 L 375 48 L 361 48 Z M 361 0 " clip-rule="nonzero"/></clipPath><clipPath id="4e52eb38c7"><path d="M 84.136719 172.105469 L 420.375 -100.324219 L 665.890625 202.695312 L 329.652344 475.125 Z M 84.136719 172.105469 " clip-rule="nonzero"/></clipPath><clipPath id="0a23e8be2f"><path d="M 84.136719 172.105469 L 344.035156 -38.472656 L 558.863281 226.671875 L 298.964844 437.246094 Z M 84.136719 172.105469 " clip-rule="nonzero"/></clipPath><clipPath id="2f090c9120"><path d="M 84.136719 172.105469 L 420.375 -100.324219 L 665.890625 202.695312 L 329.652344 475.125 Z M 84.136719 172.105469 " clip-rule="nonzero"/></clipPath><clipPath id="158b7c3e98"><path d="M 355 0 L 375 0 L 375 101 L 355 101 Z M 355 0 " clip-rule="nonzero"/></clipPath><clipPath id="55ace2a39e"><path d="M 84.136719 172.105469 L 420.375 -100.324219 L 665.890625 202.695312 L 329.652344 475.125 Z M 84.136719 172.105469 " clip-rule="nonzero"/></clipPath><clipPath id="56a242a3f9"><path d="M 84.136719 172.105469 L 344.035156 -38.472656 L 558.863281 226.671875 L 298.964844 437.246094 Z M 84.136719 172.105469 " clip-rule="nonzero"/></clipPath><clipPath id="84d603a0fb"><path d="M 84.136719 172.105469 L 420.375 -100.324219 L 665.890625 202.695312 L 329.652344 475.125 Z M 84.136719 172.105469 " clip-rule="nonzero"/></clipPath><clipPath id="65af0da8c4"><path d="M 354 1 L 375 1 L 375 102 L 354 102 Z M 354 1 " clip-rule="nonzero"/></clipPath><clipPath id="edef3cd54a"><path d="M 84.136719 172.105469 L 420.375 -100.324219 L 665.890625 202.695312 L 329.652344 475.125 Z M 84.136719 172.105469 " clip-rule="nonzero"/></clipPath><clipPath id="f7ecc45eab"><path d="M 84.136719 172.105469 L 344.035156 -38.472656 L 558.863281 226.671875 L 298.964844 437.246094 Z M 84.136719 172.105469 " clip-rule="nonzero"/></clipPath><clipPath id="2fd313acc0"><path d="M 84.136719 172.105469 L 420.375 -100.324219 L 665.890625 202.695312 L 329.652344 475.125 Z M 84.136719 172.105469 " clip-rule="nonzero"/></clipPath><clipPath id="2ad139fe08"><path d="M 295 0 L 357 0 L 357 143 L 295 143 Z M 295 0 " clip-rule="nonzero"/></clipPath><clipPath id="29a39551ed"><path d="M 84.136719 172.105469 L 420.375 -100.324219 L 665.890625 202.695312 L 329.652344 475.125 Z M 84.136719 172.105469 " clip-rule="nonzero"/></clipPath><clipPath id="f82b23dbc2"><path d="M 84.136719 172.105469 L 344.035156 -38.472656 L 558.863281 226.671875 L 298.964844 437.246094 Z M 84.136719 172.105469 " clip-rule="nonzero"/></clipPath><clipPath id="dd92b368e3"><path d="M 84.136719 172.105469 L 420.375 -100.324219 L 665.890625 202.695312 L 329.652344 475.125 Z M 84.136719 172.105469 " clip-rule="nonzero"/></clipPath><clipPath id="0ac3c181d2"><path d="M 320 26 L 356 26 L 356 143 L 320 143 Z M 320 26 " clip-rule="nonzero"/></clipPath><clipPath id="14c59f6611"><path d="M 84.136719 172.105469 L 420.375 -100.324219 L 665.890625 202.695312 L 329.652344 475.125 Z M 84.136719 172.105469 " clip-rule="nonzero"/></clipPath><clipPath id="e05b7a73a3"><path d="M 84.136719 172.105469 L 344.035156 -38.472656 L 558.863281 226.671875 L 298.964844 437.246094 Z M 84.136719 172.105469 " clip-rule="nonzero"/></clipPath><clipPath id="bf95fb1c03"><path d="M 84.136719 172.105469 L 420.375 -100.324219 L 665.890625 202.695312 L 329.652344 475.125 Z M 84.136719 172.105469 " clip-rule="nonzero"/></clipPath><clipPath id="6d2ec39d89"><path d="M 363 103 L 375 103 L 375 232 L 363 232 Z M 363 103 " clip-rule="nonzero"/></clipPath><clipPath id="07c059f36b"><path d="M 84.136719 172.105469 L 420.375 -100.324219 L 665.890625 202.695312 L 329.652344 475.125 Z M 84.136719 172.105469 " clip-rule="nonzero"/></clipPath><clipPath id="77b146b20a"><path d="M 84.136719 172.105469 L 344.035156 -38.472656 L 558.863281 226.671875 L 298.964844 437.246094 Z M 84.136719 172.105469 " clip-rule="nonzero"/></clipPath><clipPath id="20f4163030"><path d="M 84.136719 172.105469 L 420.375 -100.324219 L 665.890625 202.695312 L 329.652344 475.125 Z M 84.136719 172.105469 " clip-rule="nonzero"/></clipPath><clipPath id="b157b93efd"><path d="M 364 125 L 375 125 L 375 232 L 364 232 Z M 364 125 " clip-rule="nonzero"/></clipPath><clipPath id="b95be18c55"><path d="M 84.136719 172.105469 L 420.375 -100.324219 L 665.890625 202.695312 L 329.652344 475.125 Z M 84.136719 172.105469 " clip-rule="nonzero"/></clipPath><clipPath id="72500be6e0"><path d="M 84.136719 172.105469 L 344.035156 -38.472656 L 558.863281 226.671875 L 298.964844 437.246094 Z M 84.136719 172.105469 " clip-rule="nonzero"/></clipPath><clipPath id="c7d386394a"><path d="M 84.136719 172.105469 L 420.375 -100.324219 L 665.890625 202.695312 L 329.652344 475.125 Z M 84.136719 172.105469 " clip-rule="nonzero"/></clipPath><clipPath id="bb3edb0feb"><path d="M 232 105 L 365 105 L 365 201 L 232 201 Z M 232 105 " clip-rule="nonzero"/></clipPath><clipPath id="87015b665d"><path d="M 84.136719 172.105469 L 420.375 -100.324219 L 665.890625 202.695312 L 329.652344 475.125 Z M 84.136719 172.105469 " clip-rule="nonzero"/></clipPath><clipPath id="6866f29e14"><path d="M 84.136719 172.105469 L 344.035156 -38.472656 L 558.863281 226.671875 L 298.964844 437.246094 Z M 84.136719 172.105469 " clip-rule="nonzero"/></clipPath><clipPath id="f8a2297d59"><path d="M 84.136719 172.105469 L 420.375 -100.324219 L 665.890625 202.695312 L 329.652344 475.125 Z M 84.136719 172.105469 " clip-rule="nonzero"/></clipPath><clipPath id="3e221c2a8e"><path d="M 264 125 L 365 125 L 365 201 L 264 201 Z M 264 125 " clip-rule="nonzero"/></clipPath><clipPath id="eb3589a844"><path d="M 84.136719 172.105469 L 420.375 -100.324219 L 665.890625 202.695312 L 329.652344 475.125 Z M 84.136719 172.105469 " clip-rule="nonzero"/></clipPath><clipPath id="d37746aa53"><path d="M 84.136719 172.105469 L 344.035156 -38.472656 L 558.863281 226.671875 L 298.964844 437.246094 Z M 84.136719 172.105469 " clip-rule="nonzero"/></clipPath><clipPath id="9fcab17e6b"><path d="M 84.136719 172.105469 L 420.375 -100.324219 L 665.890625 202.695312 L 329.652344 475.125 Z M 84.136719 172.105469 " clip-rule="nonzero"/></clipPath><clipPath id="a6afde8d73"><path d="M 260 219 L 375 219 L 375 289 L 260 289 Z M 260 219 " clip-rule="nonzero"/></clipPath><clipPath id="f57d390834"><path d="M 84.136719 172.105469 L 420.375 -100.324219 L 665.890625 202.695312 L 329.652344 475.125 Z M 84.136719 172.105469 " clip-rule="nonzero"/></clipPath><clipPath id="9fa583ca53"><path d="M 84.136719 172.105469 L 344.035156 -38.472656 L 558.863281 226.671875 L 298.964844 437.246094 Z M 84.136719 172.105469 " clip-rule="nonzero"/></clipPath><clipPath id="e092069b56"><path d="M 84.136719 172.105469 L 420.375 -100.324219 L 665.890625 202.695312 L 329.652344 475.125 Z M 84.136719 172.105469 " clip-rule="nonzero"/></clipPath><clipPath id="b3d6764b59"><path d="M 292 231 L 375 231 L 375 289 L 292 289 Z M 292 231 " clip-rule="nonzero"/></clipPath><clipPath id="be26f26dfb"><path d="M 84.136719 172.105469 L 420.375 -100.324219 L 665.890625 202.695312 L 329.652344 475.125 Z M 84.136719 172.105469 " clip-rule="nonzero"/></clipPath><clipPath id="094a28b3c4"><path d="M 84.136719 172.105469 L 344.035156 -38.472656 L 558.863281 226.671875 L 298.964844 437.246094 Z M 84.136719 172.105469 " clip-rule="nonzero"/></clipPath><clipPath id="31ef42a196"><path d="M 84.136719 172.105469 L 420.375 -100.324219 L 665.890625 202.695312 L 329.652344 475.125 Z M 84.136719 172.105469 " clip-rule="nonzero"/></clipPath><clipPath id="bfcf49a8ce"><path d="M 258 262 L 375 262 L 375 375 L 258 375 Z M 258 262 " clip-rule="nonzero"/></clipPath><clipPath id="f2fa8aa607"><path d="M 84.136719 172.105469 L 420.375 -100.324219 L 665.890625 202.695312 L 329.652344 475.125 Z M 84.136719 172.105469 " clip-rule="nonzero"/></clipPath><clipPath id="97ab80fcdb"><path d="M 84.136719 172.105469 L 344.035156 -38.472656 L 558.863281 226.671875 L 298.964844 437.246094 Z M 84.136719 172.105469 " clip-rule="nonzero"/></clipPath><clipPath id="a88309eff8"><path d="M 84.136719 172.105469 L 420.375 -100.324219 L 665.890625 202.695312 L 329.652344 475.125 Z M 84.136719 172.105469 " clip-rule="nonzero"/></clipPath><clipPath id="ac1ac0257e"><path d="M 203 248 L 268 248 L 268 277 L 203 277 Z M 203 248 " clip-rule="nonzero"/></clipPath><clipPath id="53baa5111e"><path d="M 84.136719 172.105469 L 420.375 -100.324219 L 665.890625 202.695312 L 329.652344 475.125 Z M 84.136719 172.105469 " clip-rule="nonzero"/></clipPath><clipPath id="0d519785db"><path d="M 84.136719 172.105469 L 344.035156 -38.472656 L 558.863281 226.671875 L 298.964844 437.246094 Z M 84.136719 172.105469 " clip-rule="nonzero"/></clipPath><clipPath id="c7e7353d9d"><path d="M 84.136719 172.105469 L 420.375 -100.324219 L 665.890625 202.695312 L 329.652344 475.125 Z M 84.136719 172.105469 " clip-rule="nonzero"/></clipPath><clipPath id="94956e297e"><path d="M 218 250 L 268 250 L 268 275 L 218 275 Z M 218 250 " clip-rule="nonzero"/></clipPath><clipPath id="37a6ed1902"><path d="M 84.136719 172.105469 L 420.375 -100.324219 L 665.890625 202.695312 L 329.652344 475.125 Z M 84.136719 172.105469 " clip-rule="nonzero"/></clipPath><clipPath id="21a168361d"><path d="M 84.136719 172.105469 L 344.035156 -38.472656 L 558.863281 226.671875 L 298.964844 437.246094 Z M 84.136719 172.105469 " clip-rule="nonzero"/></clipPath><clipPath id="bcfeec6b95"><path d="M 84.136719 172.105469 L 420.375 -100.324219 L 665.890625 202.695312 L 329.652344 475.125 Z M 84.136719 172.105469 " clip-rule="nonzero"/></clipPath><clipPath id="a433067b13"><path d="M 220 286 L 338 286 L 338 340 L 220 340 Z M 220 286 " clip-rule="nonzero"/></clipPath><clipPath id="fa1b765946"><path d="M 84.136719 172.105469 L 420.375 -100.324219 L 665.890625 202.695312 L 329.652344 475.125 Z M 84.136719 172.105469 " clip-rule="nonzero"/></clipPath><clipPath id="a6b213224d"><path d="M 84.136719 172.105469 L 344.035156 -38.472656 L 558.863281 226.671875 L 298.964844 437.246094 Z M 84.136719 172.105469 " clip-rule="nonzero"/></clipPath><clipPath id="883a908c76"><path d="M 84.136719 172.105469 L 420.375 -100.324219 L 665.890625 202.695312 L 329.652344 475.125 Z M 84.136719 172.105469 " clip-rule="nonzero"/></clipPath><clipPath id="467dcdfed7"><path d="M 244 287 L 337 287 L 337 323 L 244 323 Z M 244 287 " clip-rule="nonzero"/></clipPath><clipPath id="a78a165310"><path d="M 84.136719 172.105469 L 420.375 -100.324219 L 665.890625 202.695312 L 329.652344 475.125 Z M 84.136719 172.105469 " clip-rule="nonzero"/></clipPath><clipPath id="58e5a8b0d0"><path d="M 84.136719 172.105469 L 344.035156 -38.472656 L 558.863281 226.671875 L 298.964844 437.246094 Z M 84.136719 172.105469 " clip-rule="nonzero"/></clipPath><clipPath id="1ee5d35445"><path d="M 84.136719 172.105469 L 420.375 -100.324219 L 665.890625 202.695312 L 329.652344 475.125 Z M 84.136719 172.105469 " clip-rule="nonzero"/></clipPath><clipPath id="0795d349fb"><path d="M 264 188 L 303 188 L 303 275 L 264 275 Z M 264 188 " clip-rule="nonzero"/></clipPath><clipPath id="5085150875"><path d="M 84.136719 172.105469 L 420.375 -100.324219 L 665.890625 202.695312 L 329.652344 475.125 Z M 84.136719 172.105469 " clip-rule="nonzero"/></clipPath><clipPath id="e4f2a73fbe"><path d="M 84.136719 172.105469 L 344.035156 -38.472656 L 558.863281 226.671875 L 298.964844 437.246094 Z M 84.136719 172.105469 " clip-rule="nonzero"/></clipPath><clipPath id="e74d4dd46f"><path d="M 84.136719 172.105469 L 420.375 -100.324219 L 665.890625 202.695312 L 329.652344 475.125 Z M 84.136719 172.105469 " clip-rule="nonzero"/></clipPath><clipPath id="4269a57a50"><path d="M 269 210 L 303 210 L 303 275 L 269 275 Z M 269 210 " clip-rule="nonzero"/></clipPath><clipPath id="f7b3d999eb"><path d="M 84.136719 172.105469 L 420.375 -100.324219 L 665.890625 202.695312 L 329.652344 475.125 Z M 84.136719 172.105469 " clip-rule="nonzero"/></clipPath><clipPath id="d89f6bfe15"><path d="M 84.136719 172.105469 L 344.035156 -38.472656 L 558.863281 226.671875 L 298.964844 437.246094 Z M 84.136719 172.105469 " clip-rule="nonzero"/></clipPath><clipPath id="7fe5e99665"><path d="M 84.136719 172.105469 L 420.375 -100.324219 L 665.890625 202.695312 L 329.652344 475.125 Z M 84.136719 172.105469 " clip-rule="nonzero"/></clipPath><clipPath id="3fb2b426f6"><path d="M 331 245 L 371 245 L 371 316 L 331 316 Z M 331 245 " clip-rule="nonzero"/></clipPath><clipPath id="cb2accea89"><path d="M 84.136719 172.105469 L 420.375 -100.324219 L 665.890625 202.695312 L 329.652344 475.125 Z M 84.136719 172.105469 " clip-rule="nonzero"/></clipPath><clipPath id="631357f3a4"><path d="M 84.136719 172.105469 L 344.035156 -38.472656 L 558.863281 226.671875 L 298.964844 437.246094 Z M 84.136719 172.105469 " clip-rule="nonzero"/></clipPath><clipPath id="cd67f0b4aa"><path d="M 84.136719 172.105469 L 420.375 -100.324219 L 665.890625 202.695312 L 329.652344 475.125 Z M 84.136719 172.105469 " clip-rule="nonzero"/></clipPath><clipPath id="506e7a3317"><path d="M 337 263 L 371 263 L 371 315 L 337 315 Z M 337 263 " clip-rule="nonzero"/></clipPath><clipPath id="c8530ae74d"><path d="M 84.136719 172.105469 L 420.375 -100.324219 L 665.890625 202.695312 L 329.652344 475.125 Z M 84.136719 172.105469 " clip-rule="nonzero"/></clipPath><clipPath id="a5b1595c6e"><path d="M 84.136719 172.105469 L 344.035156 -38.472656 L 558.863281 226.671875 L 298.964844 437.246094 Z M 84.136719 172.105469 " clip-rule="nonzero"/></clipPath><clipPath id="a4ae0d5f55"><path d="M 84.136719 172.105469 L 420.375 -100.324219 L 665.890625 202.695312 L 329.652344 475.125 Z M 84.136719 172.105469 " clip-rule="nonzero"/></clipPath><clipPath id="8c6f463555"><path d="M 274 329 L 375 329 L 375 371 L 274 371 Z M 274 329 " clip-rule="nonzero"/></clipPath><clipPath id="0bacff97f1"><path d="M 84.136719 172.105469 L 420.375 -100.324219 L 665.890625 202.695312 L 329.652344 475.125 Z M 84.136719 172.105469 " clip-rule="nonzero"/></clipPath><clipPath id="474fc0e8c2"><path d="M 84.136719 172.105469 L 344.035156 -38.472656 L 558.863281 226.671875 L 298.964844 437.246094 Z M 84.136719 172.105469 " clip-rule="nonzero"/></clipPath><clipPath id="44d1659d32"><path d="M 84.136719 172.105469 L 420.375 -100.324219 L 665.890625 202.695312 L 329.652344 475.125 Z M 84.136719 172.105469 " clip-rule="nonzero"/></clipPath><clipPath id="6366f1d9ea"><path d="M 305 330 L 375 330 L 375 362 L 305 362 Z M 305 330 " clip-rule="nonzero"/></clipPath><clipPath id="826e3bfb2d"><path d="M 84.136719 172.105469 L 420.375 -100.324219 L 665.890625 202.695312 L 329.652344 475.125 Z M 84.136719 172.105469 " clip-rule="nonzero"/></clipPath><clipPath id="10bfaae4e3"><path d="M 84.136719 172.105469 L 344.035156 -38.472656 L 558.863281 226.671875 L 298.964844 437.246094 Z M 84.136719 172.105469 " clip-rule="nonzero"/></clipPath><clipPath id="69a4266247"><path d="M 84.136719 172.105469 L 420.375 -100.324219 L 665.890625 202.695312 L 329.652344 475.125 Z M 84.136719 172.105469 " clip-rule="nonzero"/></clipPath></defs><g clip-path="url(#0cf19a987d)"><g clip-path="url(#387d463556)"><g clip-path="url(#0d4484cd11)"><g clip-path="url(#4a9014b319)"><path fill="#466d21" d="M 418.523438 262.8125 C 424.160156 274.703125 425.332031 285.421875 425.21875 293.183594 C 425.03125 300.84375 423.46875 305.628906 423.46875 305.628906 C 423.46875 305.628906 418.804688 303.816406 412.78125 298.945312 C 406.835938 294.175781 399.4375 286.425781 393.859375 274.804688 C 391.109375 269.042969 389.078125 263.179688 387.28125 257.605469 C 385.480469 252.03125 383.742188 246.726562 382.105469 242.140625 C 380.292969 237.535156 378.503906 233.550781 377.035156 230.75 C 376.308594 229.261719 375.621094 228.21875 375.171875 227.464844 C 374.722656 226.710938 374.503906 226.246094 374.503906 226.246094 C 374.503906 226.246094 375.027344 226.300781 375.804688 226.46875 C 376.679688 226.5625 378.058594 226.882812 379.59375 227.394531 C 382.859375 228.265625 387.445312 229.980469 392.414062 233.148438 C 397.300781 236.222656 402.582031 240.570312 407.152344 245.816406 C 411.644531 250.964844 415.617188 256.855469 418.523438 262.8125 Z M 418.523438 262.8125 " fill-opacity="1" fill-rule="nonzero"/></g></g></g></g><g clip-path="url(#ef5a39b89b)"><g clip-path="url(#e126a5e8e5)"><g clip-path="url(#3a264683dd)"><g clip-path="url(#c1ed53ae7c)"><path fill="#36441a" d="M 442.9375 383.339844 L 440.367188 385.101562 C 440.054688 384.714844 409.359375 340.710938 384.789062 276.242188 C 370.308594 238.433594 360.816406 201.0625 356.375 165.1875 C 350.855469 120.28125 353.398438 77.628906 363.972656 38.378906 L 366.984375 39.136719 C 343.234375 127.253906 365.152344 216.085938 387.730469 275.136719 C 412.183594 339.0625 442.722656 382.875 442.9375 383.339844 Z M 442.9375 383.339844 " fill-opacity="1" fill-rule="nonzero"/></g></g></g></g><g clip-path="url(#471752f3d4)"><g clip-path="url(#c08b0e8649)"><g clip-path="url(#ed91d29671)"><g clip-path="url(#73753b3ec9)"><path fill="#639e23" d="M 385.445312 14.75 C 379.03125 25.382812 373.238281 33.429688 368.960938 38.8125 C 366.824219 41.503906 365.011719 43.609375 363.816406 44.898438 C 362.527344 46.265625 361.832031 46.984375 361.832031 46.984375 C 361.832031 46.984375 361.847656 46.015625 361.875 44.074219 C 361.980469 42.234375 362.175781 39.515625 362.816406 35.960938 C 364.074219 29.027344 366.984375 19 373.824219 7.707031 C 377.242188 2.058594 381.246094 -3.261719 385.371094 -8.042969 C 389.398438 -12.742188 393.371094 -16.917969 396.761719 -20.625 C 400.15625 -24.335938 402.871094 -27.496094 404.621094 -29.871094 C 405.546875 -31.101562 406.257812 -31.996094 406.683594 -32.660156 C 407.105469 -33.320312 407.492188 -33.632812 407.492188 -33.632812 C 407.492188 -33.632812 407.359375 -33.207031 407.265625 -32.332031 C 407.097656 -31.558594 406.96875 -30.332031 406.550781 -28.875 C 405.792969 -25.863281 404.554688 -21.667969 402.46875 -16.941406 C 400.460938 -12.117188 397.695312 -6.84375 394.742188 -1.410156 C 391.707031 3.921875 388.65625 9.433594 385.445312 14.75 Z M 385.445312 14.75 " fill-opacity="1" fill-rule="nonzero"/></g></g></g></g><g clip-path="url(#add2a54fd0)"><g clip-path="url(#4e52eb38c7)"><g clip-path="url(#0a23e8be2f)"><g clip-path="url(#2f090c9120)"><path fill="#466d21" d="M 380.828125 20.890625 C 378.359375 23.367188 374.390625 28.339844 370.773438 33.351562 C 374.367188 27.71875 377.828125 22.519531 380.425781 18.816406 C 382.945312 15.019531 384.601562 12.71875 384.601562 12.71875 C 382.519531 14.886719 378.03125 20.597656 373.839844 26.871094 C 377.894531 20.230469 382.121094 13.605469 385.449219 8.832031 C 388.777344 4.058594 391.066406 0.765625 391.066406 0.765625 C 386.882812 5.273438 379.992188 14.53125 374.246094 23.824219 C 378.492188 16.230469 383.257812 8.691406 386.929688 3.160156 C 388.816406 0.355469 390.375 -1.867188 391.605469 -3.503906 C 392.742188 -5.0625 393.375 -6.058594 393.375 -6.058594 C 389.542969 -1.511719 385.246094 4.042969 381.34375 10.082031 C 383.902344 5.933594 386.554688 1.707031 389.285156 -2.421875 C 392.015625 -6.550781 394.648438 -10.605469 397.011719 -14.597656 C 397.011719 -14.597656 396.375 -13.601562 395.144531 -11.964844 C 393.914062 -10.328125 392.238281 -7.851562 390.082031 -4.988281 C 385.851562 0.839844 380.40625 8.925781 375.398438 17.9375 C 377.949219 12.996094 380.867188 7.914062 383.574219 3.164062 C 386.378906 -1.667969 389.144531 -6.144531 391.410156 -10.058594 C 391.410156 -10.058594 390.679688 -8.988281 389.527344 -7.253906 C 388.277344 -5.441406 386.507812 -2.890625 384.507812 0.167969 C 380.410156 6.363281 375.472656 14.679688 371.410156 23.085938 C 376.027344 12.792969 381.746094 2.089844 384.640625 -3.613281 C 384.640625 -3.613281 382.429688 -0.226562 379.414062 4.933594 C 376.398438 10.09375 372.636719 17.296875 369.480469 24.648438 C 372.269531 17.433594 375.199219 10.585938 376.210938 7.691406 C 376.210938 7.691406 374.789062 10.28125 372.660156 14.5625 C 370.628906 18.765625 368.0625 24.679688 365.96875 31.171875 C 367.757812 25.085938 369.738281 18.847656 370.628906 15.410156 C 370.628906 15.410156 369.441406 18.289062 367.933594 22.546875 C 366.523438 26.722656 364.714844 32.1875 363.558594 37.277344 C 364.277344 33.820312 364.933594 30.089844 365.382812 27.488281 C 365.382812 27.488281 364.335938 30.734375 363.390625 34.699219 C 362.425781 38.835938 361.640625 43.785156 361.796875 47.335938 C 364.4375 44.875 367.324219 40.9375 369.789062 37.664062 C 372.253906 34.386719 374.121094 31.757812 374.121094 31.757812 C 372.328125 33.6875 369.917969 36.441406 367.78125 39.128906 C 370.78125 34.941406 373.996094 30.417969 376.476562 26.96875 C 379.074219 23.265625 380.828125 20.890625 380.828125 20.890625 Z M 380.828125 20.890625 " fill-opacity="1" fill-rule="nonzero"/></g></g></g></g><g clip-path="url(#158b7c3e98)"><g clip-path="url(#55ace2a39e)"><g clip-path="url(#56a242a3f9)"><g clip-path="url(#84d603a0fb)"><path fill="#639e23" d="M 412.5625 49.992188 C 404.171875 58.386719 396.589844 65.804688 389.664062 72.058594 C 387.984375 73.738281 386.324219 75.242188 384.761719 76.667969 C 383.894531 77.371094 383.199219 78.09375 382.332031 78.796875 C 381.558594 79.425781 380.765625 80.226562 379.996094 80.851562 C 378.527344 82.199219 376.984375 83.449219 375.710938 84.640625 C 375.035156 85.1875 374.261719 85.816406 373.585938 86.363281 C 372.910156 86.910156 372.234375 87.457031 371.636719 88.101562 C 369.109375 90.308594 366.792969 92.1875 364.6875 93.734375 C 362.660156 95.375 361.019531 96.707031 359.492188 97.78125 C 356.613281 99.953125 355.011719 100.933594 355.011719 100.933594 C 355.011719 100.933594 355.210938 99.011719 355.929688 95.554688 C 356.289062 93.828125 356.875 91.59375 357.5 89.007812 C 358.300781 86.441406 359.214844 83.625 360.4375 80.394531 C 360.703125 79.542969 361.050781 78.78125 361.414062 77.847656 C 361.757812 77.089844 362.121094 76.15625 362.5625 75.320312 C 363.367188 73.550781 364.171875 71.777344 365.089844 69.757812 C 365.550781 68.746094 366.085938 67.828125 366.546875 66.816406 C 367.085938 65.902344 367.640625 64.8125 368.179688 63.898438 C 369.273438 61.890625 370.460938 59.808594 371.75 57.648438 C 377.132812 49.292969 383.945312 39.9375 393.203125 30.835938 C 402.289062 21.71875 412.851562 13.640625 423.269531 6.957031 C 433.6875 0.273438 444.207031 -4.894531 453.457031 -8.875 C 462.785156 -12.757812 470.746094 -15.367188 476.398438 -17.074219 C 482.132812 -18.683594 485.386719 -19.402344 485.386719 -19.402344 C 485.386719 -19.402344 482.839844 -17.019531 478.476562 -13.324219 C 474.097656 -9.457031 467.960938 -4.003906 460.917969 2.5 C 453.855469 9.179688 445.90625 16.738281 437.710938 24.980469 C 429.453125 32.945312 421.027344 41.691406 412.5625 49.992188 Z M 412.5625 49.992188 " fill-opacity="1" fill-rule="nonzero"/></g></g></g></g><g clip-path="url(#65af0da8c4)"><g clip-path="url(#edef3cd54a)"><g clip-path="url(#f7ecc45eab)"><g clip-path="url(#2fd313acc0)"><path fill="#466d21" d="M 401.265625 59.140625 C 399.855469 59.964844 398.230469 61.121094 396.242188 62.414062 C 394.425781 63.726562 392.496094 65.289062 390.292969 66.914062 C 389.230469 67.773438 388.167969 68.636719 387.027344 69.398438 C 385.964844 70.257812 384.886719 71.292969 383.726562 72.234375 C 382.570312 73.171875 381.488281 74.207031 380.332031 75.144531 L 378.671875 76.648438 L 377.011719 78.15625 C 386.09375 69.035156 394.640625 60.835938 401.085938 54.972656 C 402.570312 53.449219 404.117188 52.199219 405.390625 51.007812 C 406.664062 49.816406 407.820312 48.878906 408.707031 48 C 410.558594 46.335938 411.542969 45.378906 411.542969 45.378906 C 410.230469 46.125 408.703125 47.203125 406.789062 48.59375 C 404.878906 49.984375 402.675781 51.605469 400.359375 53.484375 C 398.042969 55.363281 395.609375 57.492188 392.90625 59.683594 C 390.359375 62.066406 387.640625 64.429688 384.996094 66.890625 C 395.328125 55.960938 406.308594 45.628906 414.839844 38.394531 C 416.980469 36.5 419.007812 34.859375 420.746094 33.449219 C 422.484375 32.042969 424.125 30.710938 425.304688 29.597656 C 427.910156 27.488281 429.4375 26.410156 429.4375 26.410156 C 419.441406 32.429688 401.75 46.125 387.078125 61.367188 C 398.277344 48.941406 410.738281 37.085938 420.449219 28.738281 C 422.878906 26.609375 425.195312 24.730469 427.222656 23.089844 C 429.25 21.445312 431.007812 19.863281 432.535156 18.785156 C 435.507812 16.535156 437.246094 15.128906 437.246094 15.128906 C 434.867188 16.734375 432.316406 18.324219 429.746094 20.085938 C 427.257812 21.945312 424.6875 23.707031 422 25.722656 C 419.492188 27.753906 416.886719 29.867188 414.199219 31.882812 C 411.59375 33.996094 409.046875 36.378906 406.421875 38.664062 C 420 25.425781 435.058594 12.425781 449.175781 1.628906 C 449.175781 1.628906 448.789062 1.941406 447.839844 2.546875 C 446.992188 3.078125 445.65625 3.996094 444.035156 5.152344 C 442.414062 6.308594 440.421875 7.601562 438.125 9.304688 C 435.824219 11.007812 433.332031 12.863281 430.550781 14.957031 C 424.988281 19.144531 418.695312 24.40625 411.980469 30.324219 C 410.320312 31.832031 408.738281 33.429688 406.984375 35.015625 C 405.304688 36.691406 403.46875 38.179688 401.871094 39.953125 C 398.515625 43.3125 394.964844 46.828125 391.75 50.554688 C 395.273438 46.417969 399.054688 42.398438 402.65625 38.359375 C 406.511719 34.433594 410.292969 30.414062 414.128906 26.664062 C 416.097656 24.75 417.890625 22.820312 419.839844 21.082031 C 421.710938 19.246094 423.660156 17.507812 425.511719 15.84375 C 425.996094 15.453125 426.398438 14.964844 426.882812 14.574219 C 427.367188 14.183594 427.847656 13.792969 428.253906 13.304688 C 429.21875 12.523438 430.105469 11.644531 430.972656 10.941406 C 432.730469 9.359375 434.488281 7.777344 436.144531 6.269531 C 436.144531 6.269531 436.050781 6.347656 435.761719 6.585938 C 435.566406 6.742188 435.179688 7.054688 434.792969 7.367188 C 433.925781 8.070312 432.574219 9.164062 430.855469 10.398438 C 429.984375 11.101562 429.117188 11.804688 428.152344 12.589844 C 427.1875 13.371094 426.125 14.230469 424.964844 15.167969 C 422.726562 17.144531 420.21875 19.175781 417.496094 21.542969 C 414.851562 24.003906 411.9375 26.523438 409.082031 29.316406 C 407.695312 30.761719 406.132812 32.1875 404.648438 33.710938 C 403.164062 35.234375 401.597656 36.660156 400.097656 38.355469 C 397.109375 41.578125 393.945312 44.777344 391.015625 48.269531 C 389.515625 49.964844 388.011719 51.664062 386.507812 53.363281 C 385.082031 55.15625 383.65625 56.949219 382.152344 58.644531 C 382.980469 57.496094 383.789062 56.519531 384.617188 55.371094 C 385.445312 54.222656 386.351562 53.167969 387.082031 52.097656 C 388.816406 49.894531 390.453125 47.769531 392.261719 45.660156 C 393.996094 43.457031 395.789062 41.527344 397.425781 39.402344 C 398.332031 38.347656 399.140625 37.375 399.949219 36.398438 C 400.757812 35.421875 401.742188 34.464844 402.550781 33.492188 C 404.246094 31.636719 405.863281 29.6875 407.464844 27.910156 C 409.066406 26.136719 410.566406 24.4375 412.050781 22.914062 C 413.460938 21.296875 414.847656 19.851562 416.140625 18.484375 C 417.429688 17.121094 418.625 15.832031 419.628906 14.699219 C 419.628906 14.699219 418.160156 16.046875 415.535156 18.335938 C 414.261719 19.527344 412.699219 20.953125 411.023438 22.632812 C 409.34375 24.3125 407.300781 26.128906 405.3125 28.214844 C 397.019531 36.535156 386.59375 48.335938 377.589844 60.90625 C 379.683594 57.769531 381.78125 54.632812 383.761719 51.75 C 385.839844 48.789062 387.804688 46.078125 389.574219 43.527344 C 391.34375 40.972656 393.171875 38.691406 394.539062 36.628906 C 395.980469 34.660156 397.132812 32.925781 397.980469 31.601562 C 397.980469 31.601562 396.898438 32.636719 395.28125 34.585938 C 394.472656 35.5625 393.375 36.769531 392.160156 38.234375 C 390.945312 39.695312 389.558594 41.140625 388.210938 43.03125 C 382.433594 50.109375 375.082031 60.378906 368.574219 71.886719 L 369.589844 69.785156 L 370.683594 67.78125 C 371.355469 66.4375 372.125 65.015625 372.871094 63.769531 C 373.542969 62.425781 374.214844 61.082031 374.964844 59.835938 C 375.714844 58.589844 376.382812 57.25 377.035156 56.082031 C 378.4375 53.667969 379.667969 51.234375 380.855469 49.148438 C 382.046875 47.066406 383.121094 45.238281 383.910156 43.640625 C 383.910156 43.640625 382.984375 44.867188 381.523438 47.011719 C 381.117188 47.5 380.695312 48.164062 380.273438 48.824219 C 379.851562 49.488281 379.425781 50.148438 378.90625 50.890625 C 377.945312 52.46875 376.890625 54.121094 375.640625 55.933594 C 375.101562 56.851562 374.46875 57.84375 373.832031 58.835938 C 373.199219 59.828125 372.640625 60.917969 372.007812 61.914062 C 370.816406 63.996094 369.609375 66.253906 368.320312 68.414062 C 367.113281 70.671875 365.980469 73.027344 364.851562 75.382812 C 364.199219 76.550781 363.71875 77.738281 363.164062 78.828125 C 362.6875 80.011719 362.035156 81.179688 361.554688 82.367188 C 362.699219 79.042969 364.097656 75.832031 365.300781 72.78125 C 365.914062 71.167969 366.503906 69.726562 367.097656 68.289062 C 367.691406 66.847656 368.1875 65.488281 368.761719 64.222656 C 368.761719 64.222656 367.996094 65.644531 366.6875 67.980469 C 365.460938 70.414062 363.890625 73.605469 362.167969 77.398438 C 360.539062 81.113281 358.933594 85.449219 357.542969 89.453125 C 356.304688 93.652344 355.261719 97.691406 354.816406 101.089844 C 357.753906 99.191406 360.941406 96.609375 364.144531 93.851562 C 367.425781 91.195312 370.648438 88.261719 373.582031 85.566406 C 376.59375 82.96875 379.140625 80.585938 380.992188 78.921875 C 382.84375 77.261719 384.023438 76.148438 384.023438 76.148438 C 382.980469 76.835938 381.839844 77.597656 380.601562 78.441406 C 379.445312 79.378906 378.207031 80.222656 376.953125 81.238281 C 374.441406 83.273438 371.660156 85.367188 369.132812 87.574219 C 370.019531 86.695312 370.90625 85.816406 371.792969 84.9375 C 372.679688 84.058594 373.644531 83.277344 374.535156 82.398438 C 376.386719 80.738281 378.160156 78.980469 380.011719 77.320312 C 381.867188 75.660156 383.621094 74.078125 385.378906 72.492188 C 386.167969 71.695312 387.039062 70.988281 387.828125 70.1875 C 388.695312 69.484375 389.46875 68.859375 390.261719 68.058594 C 391.726562 66.710938 393.269531 65.460938 394.527344 64.441406 C 395.203125 63.894531 395.78125 63.425781 396.28125 62.859375 C 396.863281 62.390625 397.34375 62 397.828125 61.609375 C 400.105469 60.082031 401.265625 59.140625 401.265625 59.140625 Z M 401.265625 59.140625 " fill-opacity="1" fill-rule="nonzero"/></g></g></g></g><g clip-path="url(#2ad139fe08)"><g clip-path="url(#29a39551ed)"><g clip-path="url(#f82b23dbc2)"><g clip-path="url(#dd92b368e3)"><path fill="#639e23" d="M 352.019531 73.953125 C 354.390625 84.976562 355.148438 94.589844 355.601562 102.851562 C 356.058594 111.109375 356.023438 118.171875 356.039062 123.914062 C 355.996094 126.824219 355.992188 129.382812 355.925781 131.671875 C 355.863281 133.960938 355.835938 135.902344 355.84375 137.492188 C 355.6875 140.65625 355.582031 142.496094 355.582031 142.496094 C 355.582031 142.496094 354.277344 141.476562 351.878906 139.109375 C 350.765625 137.933594 349.417969 136.46875 347.855469 134.539062 C 346.371094 132.703125 344.667969 130.40625 343.082031 127.855469 C 339.65625 122.640625 336.222656 115.835938 333.203125 107.574219 C 330.09375 99.390625 327.554688 89.941406 325.378906 79.558594 C 324.242188 74.40625 323.28125 69.273438 322.398438 64.234375 C 321.417969 59.277344 320.339844 54.394531 319.167969 49.59375 C 316.902344 40.082031 314.191406 31.410156 310.910156 24.003906 C 307.703125 16.691406 303.90625 10.820312 300.796875 6.789062 C 300.015625 5.824219 299.410156 4.875 298.6875 4.183594 C 298.0625 3.410156 297.417969 2.8125 297.027344 2.332031 C 296.167969 1.269531 295.601562 0.769531 295.601562 0.769531 C 295.601562 0.769531 296.28125 1.015625 297.660156 1.339844 C 298.34375 1.585938 299.199219 1.851562 300.132812 2.214844 C 301.0625 2.578125 302.25 3.054688 303.4375 3.53125 C 308.335938 5.632812 315.074219 9.605469 321.902344 16.058594 C 328.730469 22.511719 335.394531 31.332031 340.691406 41.421875 C 343.339844 46.464844 345.605469 51.824219 347.5 57.320312 C 349.296875 62.894531 350.746094 68.433594 352.019531 73.953125 Z M 352.019531 73.953125 " fill-opacity="1" fill-rule="nonzero"/></g></g></g></g><g clip-path="url(#0ac3c181d2)"><g clip-path="url(#14c59f6611)"><g clip-path="url(#e05b7a73a3)"><g clip-path="url(#bf95fb1c03)"><path fill="#466d21" d="M 352.71875 87.449219 C 352.078125 93.5625 351.636719 104.46875 352.027344 115.015625 C 351.089844 103.792969 350.171875 93.1875 349.332031 85.242188 C 348.488281 77.292969 347.605469 72.257812 347.605469 72.257812 C 347.582031 74.992188 347.726562 79.507812 347.855469 84.996094 C 348.082031 90.410156 348.292969 96.789062 348.855469 103.203125 C 347.148438 90.046875 345.574219 76.457031 343.554688 66.269531 C 343.113281 63.75 342.574219 61.308594 342.078125 59.316406 C 341.503906 57.222656 341.164062 55.421875 340.707031 53.875 C 339.875 50.871094 339.34375 49.226562 339.34375 49.226562 C 340.265625 54.710938 341.652344 62.539062 342.671875 71.300781 C 343.789062 79.980469 344.71875 89.617188 345.859375 98.917969 C 344.597656 91.632812 343.445312 84.097656 342.144531 77.160156 C 340.765625 70.128906 339.425781 63.542969 337.722656 57.890625 C 336.96875 54.984375 336.082031 52.507812 335.351562 50.222656 C 334.523438 48.019531 333.949219 45.925781 333.320312 44.359375 C 332.6875 42.792969 332.214844 41.417969 331.859375 40.585938 C 331.507812 39.753906 331.289062 39.292969 331.289062 39.292969 C 332.890625 44.226562 334.4375 49.6875 335.769531 55.476562 C 337.105469 61.269531 338.246094 67.214844 339.289062 73.242188 C 338.390625 69.175781 337.242188 64.992188 336.171875 60.90625 C 334.925781 56.800781 333.679688 52.699219 332.0625 48.730469 C 330.546875 44.6875 328.738281 40.878906 326.914062 37.246094 C 324.914062 33.589844 322.894531 30.113281 320.585938 26.871094 C 320.585938 26.871094 320.804688 27.332031 321.253906 28.085938 C 321.703125 28.839844 322.273438 30.136719 323.175781 31.644531 C 323.980469 33.230469 324.84375 35.085938 325.925781 37.40625 C 326.832031 39.707031 327.972656 42.300781 328.996094 45.144531 C 331.125 50.929688 333.320312 57.78125 335.074219 65.472656 C 336.921875 73.082031 338.601562 81.46875 340.164062 90.109375 C 338.132812 80.890625 335.785156 71.285156 332.921875 62.421875 C 329.957031 53.632812 326.398438 45.492188 322.578125 39 C 322.578125 39 322.792969 39.464844 323.226562 40.390625 C 323.582031 41.222656 324.152344 42.519531 324.859375 44.183594 C 326.277344 47.507812 328.070312 52.289062 329.847656 58.039062 C 331.707031 63.882812 333.453125 70.777344 335.148438 78.195312 C 336.839844 85.613281 338.574219 93.476562 340.324219 101.164062 C 337.769531 91.890625 335.230469 82.441406 332.484375 74.121094 C 329.816406 65.894531 326.925781 58.96875 324.492188 54.386719 C 324.492188 54.386719 325.042969 55.859375 325.992188 58.605469 C 326.464844 59.980469 327 61.625 327.59375 63.542969 C 328.183594 65.457031 328.933594 67.566406 329.570312 69.929688 C 332.378906 79.320312 335.40625 92.527344 339.167969 105.460938 C 336.996094 99.230469 334.984375 93.191406 333.128906 88.140625 C 331.277344 83.089844 329.585938 79.027344 328.503906 76.707031 C 328.503906 76.707031 329.773438 81.429688 331.988281 88.902344 C 334.207031 96.375 337.160156 106.929688 341.664062 117.820312 C 336.96875 107.878906 332.660156 97.628906 329.699219 92.195312 C 329.699219 92.195312 331.398438 97.054688 334.097656 104.136719 C 336.796875 111.21875 340.691406 120.367188 345.160156 128.25 C 341.8125 123.132812 338.441406 117.394531 335.953125 113.335938 C 335.953125 113.335938 336.523438 114.632812 337.449219 116.761719 C 338.453125 118.984375 339.828125 121.867188 341.609375 125.054688 C 342.414062 126.640625 343.472656 128.339844 344.53125 130.039062 C 345.589844 131.738281 346.742188 133.363281 347.914062 134.808594 C 349.164062 136.351562 350.335938 137.800781 351.605469 139.167969 C 352.875 140.535156 354.085938 141.632812 355.3125 142.558594 C 355.476562 140.984375 355.566406 139.316406 355.574219 137.550781 C 355.582031 135.785156 355.6875 133.941406 355.621094 132.082031 C 355.648438 130.140625 355.578125 128.28125 355.585938 126.515625 C 355.519531 124.652344 355.527344 122.886719 355.4375 121.199219 C 355.359375 117.75 355.324219 114.742188 355.214844 112.433594 C 355.179688 110.222656 355.058594 108.886719 355.058594 108.886719 C 354.5 113.332031 354.109375 119.5625 354.105469 125.476562 C 353.511719 116.847656 353.261719 107.460938 353.066406 100.113281 C 352.867188 92.761719 352.71875 87.449219 352.71875 87.449219 Z M 352.71875 87.449219 " fill-opacity="1" fill-rule="nonzero"/></g></g></g></g><g clip-path="url(#6d2ec39d89)"><g clip-path="url(#07c059f36b)"><g clip-path="url(#77b146b20a)"><g clip-path="url(#20f4163030)"><path fill="#639e23" d="M 404.277344 172.398438 C 399.238281 179.996094 395.152344 187.78125 391.472656 195.082031 C 387.789062 202.378906 384.257812 209.074219 381.207031 214.582031 C 378.15625 220.09375 375.308594 224.476562 373.328125 227.359375 C 371.347656 230.242188 370.035156 231.785156 370.035156 231.785156 C 370.035156 231.785156 369.25 230.023438 368.007812 226.714844 C 366.863281 223.328125 365.339844 218.488281 364.273438 211.84375 C 363.285156 205.292969 362.558594 197.09375 363.605469 187.136719 C 364.214844 182.164062 365.214844 176.882812 367.140625 171.167969 C 369.066406 165.453125 371.726562 159.460938 375.609375 153.597656 C 379.496094 147.734375 384.292969 142.40625 389.351562 137.992188 C 394.410156 133.574219 399.820312 129.988281 405.175781 126.925781 C 415.789062 120.882812 426.070312 117.191406 434.859375 114.222656 C 439.253906 112.738281 443.28125 111.394531 446.84375 110.265625 C 450.503906 109.058594 453.523438 108.050781 456.097656 107.082031 C 458.671875 106.113281 460.609375 105.34375 461.921875 104.597656 C 463.316406 103.949219 463.972656 103.578125 463.972656 103.578125 C 463.972656 103.578125 463.628906 104.335938 462.957031 105.679688 C 462.285156 107.023438 461.019531 109.007812 459.363281 111.308594 C 457.613281 113.6875 455.394531 116.28125 452.792969 119.1875 C 450.191406 122.09375 447.203125 125.316406 443.945312 128.59375 C 437.40625 135.328125 429.671875 142.554688 422.535156 149.933594 C 418.96875 153.625 415.480469 157.410156 412.4375 161.15625 C 409.492188 164.820312 406.796875 168.601562 404.277344 172.398438 Z M 404.277344 172.398438 " fill-opacity="1" fill-rule="nonzero"/></g></g></g></g><g clip-path="url(#b157b93efd)"><g clip-path="url(#b95be18c55)"><g clip-path="url(#72500be6e0)"><g clip-path="url(#c7d386394a)"><path fill="#466d21" d="M 396.628906 181.3125 C 395.46875 182.253906 394.449219 183.558594 393.0625 185.003906 C 392.367188 185.726562 391.828125 186.640625 391.117188 187.539062 C 390.808594 187.945312 390.402344 188.433594 390.097656 188.84375 C 389.789062 189.253906 389.460938 189.835938 389.058594 190.324219 C 386.34375 194.28125 383.542969 199.109375 381.164062 204.070312 C 383.421875 198.566406 385.640625 193.410156 387.886719 188.878906 C 390.128906 184.34375 392.394531 180.429688 394.394531 177.371094 C 395.433594 175.890625 396.296875 174.390625 397.125 173.242188 C 397.953125 172.09375 398.683594 171.019531 399.375 170.296875 C 400.6875 168.757812 401.398438 167.859375 401.398438 167.859375 C 399.390625 169.328125 396.359375 172.101562 393.105469 176.175781 C 389.851562 180.253906 386.546875 185.648438 383.613281 191.699219 C 386.136719 185.339844 389.148438 179.382812 392.355469 174.066406 C 395.644531 168.847656 399.109375 164.441406 402.386719 160.988281 C 405.664062 157.53125 408.867188 154.777344 411.089844 152.976562 C 412.246094 152.039062 413.117188 151.335938 413.695312 150.867188 C 414.273438 150.394531 414.660156 150.082031 414.660156 150.082031 C 413.539062 150.671875 412.226562 151.417969 410.988281 152.261719 C 409.65625 153.179688 408.320312 154.101562 406.8125 155.003906 C 406.136719 155.550781 405.367188 156.175781 404.691406 156.722656 C 404.304688 157.039062 403.917969 157.351562 403.53125 157.664062 C 403.144531 157.976562 402.757812 158.289062 402.375 158.601562 C 401.601562 159.226562 400.90625 159.949219 400.132812 160.574219 C 399.441406 161.296875 398.746094 162.019531 397.957031 162.820312 C 392.015625 168.910156 386.730469 177.1875 382.882812 186.058594 C 385.671875 178.84375 389.046875 171.957031 393.027344 166.015625 C 397.007812 160.070312 401.578125 155.25 405.800781 151.1875 C 410.105469 147.222656 413.949219 144.269531 416.730469 142.175781 C 418.082031 141.082031 419.222656 140.316406 420.070312 139.789062 C 420.84375 139.160156 421.308594 138.945312 421.308594 138.945312 C 416.628906 141.457031 411.71875 144.476562 407.007812 148.136719 C 402.292969 151.792969 397.605469 156.074219 393.734375 160.964844 C 396.3125 157.4375 399.144531 154.027344 402.210938 150.902344 C 405.277344 147.777344 408.519531 144.671875 411.914062 141.761719 C 418.613281 136.015625 425.78125 130.847656 432.5 125.722656 C 432.5 125.722656 430.703125 126.859375 427.59375 128.738281 C 424.382812 130.699219 419.839844 133.582031 414.585938 137.359375 C 409.332031 141.136719 403.171875 145.96875 397.484375 152.175781 C 396.792969 152.898438 396.078125 153.792969 395.386719 154.515625 C 395.078125 154.925781 394.59375 155.316406 394.285156 155.726562 C 393.976562 156.136719 393.574219 156.621094 393.265625 157.03125 C 392.554688 157.929688 391.9375 158.746094 391.222656 159.644531 C 390.589844 160.636719 389.972656 161.457031 389.339844 162.449219 C 386.820312 166.25 384.535156 170.335938 382.679688 174.558594 C 386.40625 165.144531 392.152344 155.855469 398.957031 148.265625 C 405.683594 140.578125 413.171875 134.03125 419.480469 128.597656 C 419.480469 128.597656 417.589844 129.8125 414.324219 132.300781 C 411.15625 134.707031 406.464844 138.1875 401.464844 142.875 C 396.46875 147.566406 390.976562 153.613281 386.5 160.917969 C 385.960938 161.832031 385.421875 162.746094 384.886719 163.660156 C 384.347656 164.578125 383.808594 165.492188 383.351562 166.503906 C 382.351562 168.429688 381.355469 170.359375 380.609375 172.398438 C 378.867188 176.367188 377.457031 180.546875 376.222656 184.746094 C 377.375 179.65625 378.972656 174.523438 380.902344 169.605469 C 382.757812 164.585938 385.191406 159.898438 387.785156 155.398438 C 388.515625 154.328125 389.074219 153.238281 389.707031 152.246094 C 390.339844 151.25 391.070312 150.179688 391.785156 149.28125 C 392.1875 148.796875 392.417969 148.289062 392.824219 147.800781 C 393.226562 147.3125 393.535156 146.90625 393.84375 146.496094 C 394.554688 145.597656 395.171875 144.78125 395.808594 143.785156 C 397.136719 142.070312 398.445312 140.53125 399.5625 139.144531 C 400.777344 137.683594 401.796875 136.375 402.894531 135.167969 C 402.894531 135.167969 402.507812 135.480469 401.910156 136.125 C 401.3125 136.769531 400.253906 137.628906 398.980469 138.820312 C 396.605469 141.222656 393.058594 144.734375 389.554688 149.492188 C 385.878906 154.230469 382.246094 160.207031 379.335938 166.878906 C 376.425781 173.550781 374.160156 180.820312 372.671875 188.257812 C 373.695312 181.039062 375.246094 173.871094 377.109375 167.882812 C 378.898438 161.800781 381.101562 156.820312 382.128906 153.75 C 382.128906 153.75 381.285156 155.074219 379.980469 157.410156 C 379.328125 158.578125 378.636719 160.09375 377.753906 161.769531 C 376.949219 163.539062 376.128906 165.484375 375.285156 167.605469 C 373.683594 171.941406 372.0625 177.246094 370.933594 182.957031 C 369.804688 188.667969 369.0625 194.859375 368.828125 201.28125 C 368.660156 195.347656 368.855469 189.273438 369.191406 183.570312 C 369.265625 182.871094 369.339844 182.171875 369.316406 181.550781 C 369.390625 180.851562 369.460938 180.152344 369.4375 179.53125 C 369.585938 178.136719 369.714844 176.914062 369.84375 175.6875 C 370.101562 173.242188 370.339844 170.972656 370.621094 169.148438 C 370.621094 169.148438 370.105469 170.683594 369.558594 173.363281 C 369.238281 174.742188 368.894531 176.296875 368.617188 178.121094 C 368.523438 178.996094 368.335938 179.945312 368.148438 180.898438 C 367.957031 181.851562 367.847656 182.898438 367.738281 183.945312 C 366.566406 192.566406 366.574219 203.429688 367.503906 213.0625 C 366.417969 206.589844 365.484375 199.519531 364.8125 194.148438 C 364.8125 194.148438 364.773438 194.5 364.777344 195.292969 C 364.707031 195.992188 364.769531 197.058594 364.71875 198.378906 C 364.714844 200.9375 364.871094 204.488281 365.246094 208.5 C 366.007812 216.351562 367.867188 225.550781 370.65625 231.761719 C 375.105469 226.398438 379.328125 218.183594 382.585938 211.546875 C 385.828125 205.085938 388.394531 199.96875 388.394531 199.96875 C 385.449219 203.636719 381.933594 209.359375 378.957031 214.964844 C 382.769531 206.445312 387.0625 197.535156 390.730469 191.207031 C 391.171875 190.371094 391.59375 189.707031 392.113281 188.964844 C 392.539062 188.304688 392.960938 187.640625 393.382812 186.980469 C 394.132812 185.734375 394.863281 184.660156 395.480469 183.84375 C 395.914062 182.210938 396.628906 181.3125 396.628906 181.3125 Z M 396.628906 181.3125 " fill-opacity="1" fill-rule="nonzero"/></g></g></g></g><g clip-path="url(#bb3edb0feb)"><g clip-path="url(#87015b665d)"><g clip-path="url(#6866f29e14)"><g clip-path="url(#f8a2297d59)"><path fill="#639e23" d="M 321.09375 139.601562 C 331.257812 146.226562 339.042969 153.660156 345.082031 160.914062 C 351.039062 168.074219 355.25 175.046875 358.078125 180.90625 C 360.90625 186.765625 362.507812 191.699219 363.304688 195.050781 C 364.175781 198.5 364.34375 200.28125 364.34375 200.28125 C 364.34375 200.28125 362.457031 199.730469 359.308594 198.609375 C 356.082031 197.386719 351.511719 195.496094 345.949219 192.972656 C 340.304688 190.351562 333.769531 187.019531 326.507812 182.996094 C 319.171875 178.871094 311.109375 174.054688 302.367188 168.195312 C 297.984375 165.355469 293.621094 162.339844 289.101562 159.128906 C 284.582031 155.917969 279.984375 152.613281 275.582031 149.148438 C 271.097656 145.589844 266.808594 141.875 262.980469 137.945312 C 258.980469 133.992188 255.855469 130.132812 253.042969 126.660156 C 250.226562 123.1875 247.824219 120.023438 245.441406 117.476562 C 243.15625 114.855469 241.007812 112.601562 239.058594 110.984375 C 238.085938 110.175781 237.1875 109.464844 236.292969 108.75 C 235.472656 108.136719 234.734375 107.617188 234.148438 107.292969 C 232.902344 106.542969 232.242188 106.121094 232.242188 106.121094 C 232.242188 106.121094 232.957031 106.019531 234.46875 105.910156 C 235.1875 105.808594 236.15625 105.824219 237.300781 105.855469 C 238.449219 105.886719 239.671875 106.011719 241.066406 106.160156 C 243.941406 106.546875 247.398438 107.261719 251.246094 108.460938 C 255.09375 109.65625 259.160156 111.316406 263.378906 113.171875 C 267.601562 115.023438 271.898438 116.976562 276.214844 118.75 C 280.613281 120.625 285.375 122.355469 290.199219 124.363281 C 295.117188 126.289062 300.269531 128.503906 305.582031 130.914062 C 310.542969 133.289062 315.972656 136.238281 321.09375 139.601562 Z M 321.09375 139.601562 " fill-opacity="1" fill-rule="nonzero"/></g></g></g></g><g clip-path="url(#3e221c2a8e)"><g clip-path="url(#eb3589a844)"><g clip-path="url(#d37746aa53)"><g clip-path="url(#9fcab17e6b)"><path fill="#466d21" d="M 331.667969 149.890625 C 333.585938 152.648438 336.363281 156.472656 339.53125 160.777344 C 342.699219 165.082031 345.988281 169.929688 349.195312 174.679688 C 341.746094 164.894531 333.53125 156.53125 327.136719 151.003906 C 323.898438 148.195312 321.210938 146.058594 319.339844 144.539062 C 317.371094 143.097656 316.316406 142.191406 316.316406 142.191406 C 318.289062 144.429688 321.644531 147.78125 325.707031 152.003906 C 329.765625 156.226562 334.449219 161.21875 339.019531 166.464844 C 333.988281 161.433594 328.664062 156.640625 323.378906 152.289062 C 318.175781 148.039062 313.011719 144.230469 308.472656 141.195312 C 303.9375 138.160156 300.214844 135.742188 297.644531 134.148438 C 295.078125 132.554688 293.5 131.59375 293.5 131.59375 C 297.613281 135.292969 304.003906 140.023438 311.253906 145.8125 C 314.84375 148.660156 318.664062 151.796875 322.289062 155.089844 C 326.015625 158.304688 329.71875 161.695312 333.328125 165.164062 C 327.421875 160.042969 321.222656 155.15625 315.050781 150.890625 C 308.875 146.625 302.898438 142.996094 297.835938 139.90625 C 292.675781 136.894531 288.433594 134.421875 285.433594 132.695312 C 282.535156 130.890625 280.78125 129.914062 280.78125 129.914062 C 288.929688 136.417969 299.542969 143 309.886719 150.4375 C 302.523438 145.695312 294.566406 141.597656 286.878906 137.4375 C 279.09375 133.359375 271.660156 129.3125 264.691406 125.054688 C 264.691406 125.054688 266.230469 126.363281 269.191406 128.4375 C 272.152344 130.511719 276.515625 133.53125 281.910156 136.832031 C 287.300781 140.132812 293.785156 143.988281 300.675781 148.152344 C 307.648438 152.414062 314.910156 157.234375 322.199219 162.675781 C 314.136719 157.0625 305.394531 152 296.660156 147.730469 C 288.019531 143.386719 279.5 139.582031 272.011719 136.0625 C 272.011719 136.0625 273.917969 137.230469 277.328125 139.265625 C 280.65625 141.203125 285.40625 143.90625 290.992188 147.050781 C 296.671875 150.117188 303 153.78125 309.636719 157.832031 C 316.179688 161.957031 323.019531 166.644531 329.488281 171.472656 C 321.402344 166.035156 312.664062 160.972656 304.667969 157.222656 C 296.59375 153.378906 289.207031 150.574219 283.839844 148.6875 C 283.839844 148.6875 289.953125 151.886719 299.253906 156.65625 C 308.203125 161.390625 319.847656 168.257812 331.046875 175.960938 C 319.65625 169.210938 308.183594 164.125 303.015625 162.878906 C 303.015625 162.878906 304.105469 163.433594 306.011719 164.605469 C 308.015625 165.695312 310.683594 167.210938 314.109375 169.070312 C 320.941406 172.964844 330.089844 178.335938 340.019531 184.671875 C 335.175781 182.046875 330.214844 179.671875 325.742188 177.703125 C 321.171875 175.8125 317.167969 174.421875 314.25 173.589844 C 314.25 173.589844 315.339844 174.144531 317.363281 175.0625 C 318.375 175.523438 319.542969 176.171875 320.886719 176.84375 C 322.226562 177.511719 323.824219 178.296875 325.417969 179.082031 C 331.957031 182.414062 340.558594 187.113281 348.382812 191.636719 C 342.839844 188.9375 336.734375 186.535156 332.207031 185.089844 C 332.207031 185.089844 333.371094 185.742188 335.378906 186.835938 C 337.382812 187.925781 340.320312 189.382812 343.414062 191.03125 C 349.875 194.265625 357.734375 198.441406 364.246094 200.359375 C 363.273438 193.636719 359.675781 185.046875 355.871094 178.378906 C 353.933594 175 352.109375 172.160156 350.742188 170.074219 C 349.371094 167.988281 348.433594 166.828125 348.433594 166.828125 C 350.691406 171.390625 353.925781 177.558594 356.660156 183.496094 C 352.050781 175.242188 345.792969 166.730469 340.710938 160.460938 C 339.460938 158.914062 338.191406 157.546875 337.097656 156.195312 C 335.90625 154.925781 335.046875 153.863281 334.171875 152.976562 C 332.625 150.871094 331.667969 149.890625 331.667969 149.890625 Z M 331.667969 149.890625 " fill-opacity="1" fill-rule="nonzero"/></g></g></g></g><g clip-path="url(#a6afde8d73)"><g clip-path="url(#f57d390834)"><g clip-path="url(#9fa583ca53)"><g clip-path="url(#e092069b56)"><path fill="#639e23" d="M 346.375 235.933594 C 355.988281 241.089844 363.824219 247.207031 369.71875 253.296875 C 372.664062 256.34375 375.261719 259.351562 377.433594 262.226562 C 379.507812 265.179688 381.421875 267.941406 382.914062 270.570312 C 383.65625 271.882812 384.324219 273.101562 384.992188 274.320312 C 385.5625 275.617188 386.070312 276.640625 386.484375 277.742188 C 386.898438 278.847656 387.332031 279.773438 387.667969 280.78125 C 388.003906 281.789062 388.28125 282.523438 388.457031 283.335938 C 389.371094 286.433594 389.710938 288.234375 389.710938 288.234375 C 389.710938 288.234375 387.960938 288.054688 384.855469 287.375 C 384.078125 287.207031 383.222656 286.941406 382.269531 286.75 C 381.320312 286.5625 380.289062 286.28125 379.257812 285.996094 C 378.230469 285.710938 377.023438 285.410156 375.742188 285.011719 C 374.539062 284.707031 373.253906 284.308594 371.894531 283.8125 C 369.25 282.917969 366.257812 281.988281 363.109375 280.863281 C 359.960938 279.738281 356.652344 278.421875 353.171875 277.089844 C 346.152344 274.148438 338.488281 270.609375 330.121094 266.203125 C 321.753906 261.796875 313.441406 256.863281 305.363281 252.222656 C 301.195312 249.847656 297.207031 247.484375 293.46875 245.242188 C 289.554688 242.976562 285.644531 240.714844 282 238.390625 C 274.796875 233.839844 268.929688 229.167969 265.4375 225.445312 C 264.558594 224.558594 263.757812 223.769531 263.132812 222.996094 C 262.507812 222.226562 261.863281 221.628906 261.570312 221.066406 C 260.710938 220.007812 260.242188 219.429688 260.242188 219.429688 C 260.242188 219.429688 260.9375 219.5 262.316406 219.820312 C 262.921875 219.972656 263.792969 220.0625 264.746094 220.25 C 265.699219 220.441406 266.746094 220.550781 267.96875 220.675781 C 272.746094 221.441406 279.421875 221.785156 287.335938 222.082031 C 291.296875 222.230469 295.683594 222.511719 300.417969 222.832031 C 305.054688 223.226562 310.277344 223.949219 315.464844 225.023438 C 326.011719 227.183594 336.761719 230.777344 346.375 235.933594 Z M 346.375 235.933594 " fill-opacity="1" fill-rule="nonzero"/></g></g></g></g><g clip-path="url(#b3d6764b59)"><g clip-path="url(#be26f26dfb)"><g clip-path="url(#094a28b3c4)"><g clip-path="url(#31ef42a196)"><path fill="#466d21" d="M 356.6875 244.519531 C 358.542969 247.007812 361.378906 250.304688 364.523438 253.988281 C 367.667969 257.675781 371.027344 261.824219 374.214844 265.953125 C 366.792969 257.582031 358.683594 250.730469 352.449219 246.195312 C 349.332031 243.925781 346.703125 242.0625 344.871094 240.988281 C 343.957031 240.449219 343.214844 239.929688 342.808594 239.625 C 342.300781 239.394531 342.066406 239.105469 342.066406 239.105469 C 345.910156 242.863281 355.421875 250.65625 364.378906 259.539062 C 354.574219 251.183594 343.589844 243.945312 334.910156 239.152344 C 330.570312 236.753906 326.871094 234.957031 324.363281 233.632812 C 321.753906 232.390625 320.238281 231.703125 320.238281 231.703125 C 324.621094 234.542969 330.910156 238.558594 337.84375 243.167969 C 344.777344 247.777344 352.238281 253.238281 359.234375 258.914062 C 347.835938 250.570312 334.972656 243.574219 324.9375 239.082031 C 319.878906 236.785156 315.640625 235.105469 312.664062 234 C 311.226562 233.410156 309.945312 233.011719 309.183594 232.667969 C 308.332031 232.398438 307.902344 232.265625 307.902344 232.265625 C 312.359375 234.410156 317.046875 236.84375 321.894531 239.46875 C 326.738281 242.09375 331.839844 244.835938 336.742188 247.730469 C 329.699219 244.171875 322.269531 240.921875 314.765625 238.371094 C 307.1875 235.726562 299.609375 233.875 292.421875 232.503906 C 292.421875 232.503906 294.210938 233.132812 297.28125 234.160156 C 298.820312 234.671875 300.683594 235.398438 302.902344 236.160156 C 305.019531 237 307.488281 237.875 310.210938 238.867188 C 320.90625 242.988281 335.046875 249.585938 348.910156 258.011719 C 341.144531 253.753906 332.800781 249.96875 324.632812 246.996094 C 316.46875 244.023438 308.40625 241.769531 301.394531 240.417969 C 301.394531 240.417969 303.183594 241.046875 306.429688 242.09375 C 307.964844 242.605469 309.910156 243.425781 312.125 244.1875 C 314.339844 244.949219 316.789062 246 319.417969 247.070312 C 324.667969 249.207031 330.734375 251.960938 337.039062 255.003906 C 343.34375 258.046875 349.84375 261.726562 356.074219 265.46875 C 348.289062 261.390625 340.023438 257.699219 332.363281 254.957031 C 324.78125 252.308594 317.902344 250.53125 313.128906 249.769531 C 313.128906 249.769531 314.488281 250.261719 317.132812 251.15625 C 319.679688 252.128906 323.253906 253.386719 327.398438 255.144531 C 335.875 258.503906 346.984375 263.726562 357.765625 269.53125 C 346.890625 264.597656 335.929688 261.335938 331.234375 260.667969 C 331.234375 260.667969 331.484375 260.78125 331.992188 261.011719 C 332.496094 261.242188 333.175781 261.488281 334.109375 261.851562 C 335.878906 262.652344 338.601562 263.644531 341.792969 265.214844 C 348.210938 268.003906 357.0625 272.019531 366.652344 276.554688 C 357.417969 272.851562 347.71875 270.160156 342.128906 269.578125 C 342.128906 269.578125 343.238281 269.957031 345.105469 270.683594 C 346.039062 271.042969 347.242188 271.347656 348.429688 271.824219 C 349.789062 272.320312 351.148438 272.816406 352.761719 273.425781 C 359.0625 275.671875 367.191406 278.996094 374.890625 282.183594 C 369.527344 280.296875 363.757812 278.902344 359.503906 278.191406 C 359.503906 278.191406 360.691406 278.667969 362.554688 279.394531 C 364.519531 280.039062 367.222656 281.207031 370.292969 282.234375 C 376.417969 284.460938 384.078125 287.207031 390.425781 288.132812 C 389.226562 281.914062 385.339844 274.355469 381.464844 268.386719 C 379.46875 265.53125 377.628906 262.867188 376.222656 261.128906 C 374.816406 259.394531 373.878906 258.234375 373.878906 258.234375 C 376.269531 262.371094 379.578125 267.839844 382.480469 273 C 377.765625 265.792969 371.550781 258.523438 366.378906 253.125 C 365.109375 251.753906 363.824219 250.5625 362.789062 249.480469 C 361.753906 248.402344 360.699219 247.496094 359.902344 246.707031 C 357.738281 245.421875 356.6875 244.519531 356.6875 244.519531 Z M 356.6875 244.519531 " fill-opacity="1" fill-rule="nonzero"/></g></g></g></g><g clip-path="url(#bfcf49a8ce)"><g clip-path="url(#f2fa8aa607)"><g clip-path="url(#97ab80fcdb)"><g clip-path="url(#a88309eff8)"><path fill="#36441a" d="M 442.28125 383.710938 L 439.867188 385.667969 C 397.828125 332.796875 350.898438 302.902344 318.914062 287.109375 C 284.242188 269.972656 259.210938 265.328125 258.859375 265.289062 L 259.445312 262.261719 C 259.695312 262.375 285.078125 267.058594 320.179688 284.324219 C 352.511719 300.15625 399.851562 330.355469 442.28125 383.710938 Z M 442.28125 383.710938 " fill-opacity="1" fill-rule="nonzero"/></g></g></g></g><g clip-path="url(#ac1ac0257e)"><g clip-path="url(#53baa5111e)"><g clip-path="url(#0d519785db)"><g clip-path="url(#c7e7353d9d)"><path fill="#466d21" d="M 240.390625 248.613281 C 245.496094 248.792969 249.945312 250.140625 253.542969 252.019531 C 257.144531 253.898438 259.992188 256.226562 262.042969 258.558594 C 263.074219 259.636719 263.917969 260.875 264.523438 261.820312 C 265.210938 262.863281 265.71875 263.886719 266.171875 264.640625 C 266.976562 266.226562 267.3125 267.234375 267.3125 267.234375 C 267.3125 267.234375 266.363281 267.839844 264.855469 268.742188 C 264.101562 269.195312 263.171875 269.628906 262.148438 270.136719 C 261.121094 270.648438 259.90625 271.316406 258.703125 271.808594 C 256.113281 272.953125 253.167969 274.058594 249.992188 274.871094 C 246.816406 275.6875 243.328125 276.117188 239.445312 276.066406 C 235.664062 275.9375 231.679688 275.167969 227.796875 274.320312 C 223.832031 273.375 219.96875 272.351562 216.449219 271.367188 C 212.757812 270.363281 209.570312 269.589844 207.335938 269.003906 C 205.007812 268.496094 203.644531 268 203.644531 268 C 203.644531 268 204.472656 266.847656 206.089844 264.898438 C 207.710938 262.949219 210.179688 260.46875 213.441406 257.984375 C 216.707031 255.5 220.863281 252.929688 225.546875 251.214844 C 230.132812 249.574219 235.289062 248.433594 240.390625 248.613281 Z M 240.390625 248.613281 " fill-opacity="1" fill-rule="nonzero"/></g></g></g></g><g clip-path="url(#94956e297e)"><g clip-path="url(#37a6ed1902)"><g clip-path="url(#21a168361d)"><g clip-path="url(#bcfeec6b95)"><path fill="#3a5a1a" d="M 246.417969 250.921875 C 248.953125 252.863281 253.394531 255.976562 257.484375 259.054688 C 252.910156 256.367188 248.324219 254.652344 244.882812 253.761719 C 243.171875 253.230469 241.695312 252.988281 240.746094 252.800781 C 239.792969 252.613281 239.191406 252.460938 239.191406 252.460938 C 241.429688 253.84375 246.953125 255.921875 252.167969 258.410156 C 246.625 256.507812 240.742188 255.363281 236.277344 254.984375 C 234.007812 254.746094 232.164062 254.640625 230.84375 254.59375 C 229.523438 254.542969 228.726562 254.546875 228.726562 254.546875 C 233.527344 255.933594 242.113281 257.449219 249.789062 260.015625 C 243.574219 258.660156 237.167969 258.257812 232.203125 258.445312 C 230.960938 258.492188 229.894531 258.554688 228.828125 258.621094 C 227.761719 258.6875 226.96875 258.691406 226.25 258.792969 C 224.816406 258.996094 224.019531 259 224.019531 259 C 228.386719 259.457031 233.550781 259.910156 238.597656 260.613281 C 231.632812 260.503906 224.191406 261.578125 218.113281 263.949219 C 218.113281 263.949219 218.289062 263.964844 218.65625 263.828125 C 219.101562 263.785156 219.546875 263.742188 220.265625 263.640625 C 220.980469 263.539062 221.875 263.457031 222.863281 263.296875 C 223.929688 263.230469 224.996094 263.164062 226.332031 263.039062 C 231.316406 262.679688 238.203125 262.691406 245.289062 263.34375 C 237.546875 263.0625 229.269531 264.496094 223.464844 266.800781 C 223.464844 266.800781 223.738281 266.742188 224.007812 266.683594 C 224.453125 266.640625 224.996094 266.519531 225.714844 266.417969 C 227.148438 266.214844 229.203125 265.988281 231.605469 265.796875 C 236.511719 265.339844 243.050781 265.316406 249.375 265.625 C 241.578125 265.871094 233.695312 267.78125 229.847656 269.941406 C 229.847656 269.941406 230.5625 269.839844 231.550781 269.679688 C 232.714844 269.535156 234.246094 269.253906 236.203125 269.105469 C 240.0625 268.535156 245.21875 268.191406 250.632812 267.964844 C 245.417969 268.832031 240.558594 270.53125 238.664062 271.746094 C 238.664062 271.746094 239.109375 271.703125 240.003906 271.621094 C 240.894531 271.539062 241.980469 271.296875 243.589844 271.113281 C 246.554688 270.628906 250.683594 270 255.351562 269.25 C 250.976562 270.558594 246.640625 272.316406 244.34375 274.015625 C 244.34375 274.015625 246.257812 273.421875 249.085938 272.570312 C 250.460938 272.097656 252.1875 271.65625 254.007812 271.140625 C 255.828125 270.625 257.742188 270.03125 259.640625 269.609375 C 258.347656 270.183594 257.050781 270.753906 255.753906 271.324219 C 255.191406 271.617188 254.535156 271.992188 253.972656 272.285156 C 253.414062 272.582031 252.929688 272.972656 252.464844 273.1875 C 252.464844 273.1875 253.007812 273.070312 253.917969 272.808594 C 254.828125 272.550781 256.105469 272.15625 257.578125 271.601562 C 259.050781 271.050781 260.695312 270.515625 262.457031 269.730469 C 264.121094 269.019531 265.804688 268.136719 267.40625 267.15625 C 266.796875 265.414062 265.835938 263.636719 264.664062 262.1875 C 263.507812 260.566406 262.238281 259.199219 260.953125 258.003906 C 259.664062 256.808594 258.4375 255.886719 257.539062 255.175781 C 256.644531 254.460938 256.058594 254.136719 256.058594 254.136719 C 256.9375 255.023438 257.875 256.179688 258.910156 257.261719 C 259.945312 258.339844 261.058594 259.515625 261.996094 260.671875 C 260.472656 259.191406 258.664062 257.941406 257.027344 256.710938 C 255.292969 255.558594 253.558594 254.40625 251.964844 253.621094 C 248.789062 251.875 246.417969 250.921875 246.417969 250.921875 Z M 246.417969 250.921875 " fill-opacity="1" fill-rule="nonzero"/></g></g></g></g><g clip-path="url(#a433067b13)"><g clip-path="url(#fa1b765946)"><g clip-path="url(#a6b213224d)"><g clip-path="url(#883a908c76)"><path fill="#466d21" d="M 279.308594 291.710938 C 288.195312 288.667969 296.449219 287.410156 303.820312 287.03125 C 311.09375 286.730469 317.285156 287.46875 322.296875 288.519531 C 324.804688 289.046875 327.039062 289.632812 328.828125 290.261719 C 330.789062 290.910156 332.226562 291.5 333.492188 292.074219 C 335.941406 293.125 337.265625 293.96875 337.265625 293.96875 C 337.265625 293.96875 336.109375 294.910156 333.828125 296.4375 C 332.6875 297.199219 331.277344 298.023438 329.671875 299.003906 C 328.070312 299.984375 326.097656 301.105469 324.027344 302.300781 C 319.8125 304.597656 314.6875 307.152344 308.667969 309.792969 C 302.730469 312.527344 295.835938 315.074219 288.132812 317.800781 C 280.347656 320.429688 272.3125 322.945312 264.566406 325.226562 C 256.820312 327.507812 249.40625 330.003906 242.839844 331.964844 C 236.335938 334.199219 230.757812 336 226.808594 337.441406 C 222.859375 338.886719 220.480469 339.695312 220.480469 339.695312 C 220.480469 339.695312 221.765625 337.535156 224.25 334.085938 C 226.730469 330.636719 230.503906 325.820312 235.574219 320.433594 C 240.628906 315.222656 246.976562 309.4375 254.472656 304.480469 C 261.910156 299.253906 270.421875 294.757812 279.308594 291.710938 Z M 279.308594 291.710938 " fill-opacity="1" fill-rule="nonzero"/></g></g></g></g><g clip-path="url(#467dcdfed7)"><g clip-path="url(#a78a165310)"><g clip-path="url(#58e5a8b0d0)"><g clip-path="url(#1ee5d35445)"><path fill="#3a5a1a" d="M 290.6875 290.164062 C 292.003906 290.210938 293.578125 290.375 295.34375 290.382812 C 297.1875 290.488281 299.03125 290.59375 301.144531 290.636719 C 302.117188 290.652344 303.261719 290.683594 304.308594 290.792969 C 305.355469 290.902344 306.5 290.933594 307.644531 290.964844 C 308.789062 290.996094 309.839844 291.105469 310.984375 291.136719 L 314.320312 291.308594 C 304.699219 291.273438 295.742188 292.457031 289.175781 293.625 C 285.9375 294.171875 283.304688 294.867188 281.484375 295.382812 C 279.582031 295.800781 278.578125 296.140625 278.578125 296.140625 C 279.644531 296.074219 281.15625 295.964844 283.035156 295.722656 C 284.820312 295.554688 286.875 295.328125 289.203125 295.042969 C 291.429688 294.832031 293.933594 294.5625 296.433594 294.296875 C 299.011719 294.125 301.6875 293.875 304.441406 293.71875 C 293.429688 295.128906 282.464844 297.78125 274.414062 300.472656 C 272.320312 301.046875 270.558594 301.835938 268.914062 302.371094 C 267.269531 302.90625 265.796875 303.457031 264.695312 303.871094 C 262.390625 304.777344 261.09375 305.351562 261.09375 305.351562 C 269.792969 303.257812 285.632812 298.730469 300.871094 296.613281 C 288.875 298.980469 277.066406 302.957031 268.296875 306.542969 C 266.089844 307.375 264.136719 308.316406 262.375 309.105469 C 260.617188 309.890625 259.046875 310.523438 257.832031 311.191406 C 255.316406 312.429688 253.921875 313.078125 253.921875 313.078125 C 261.742188 310.097656 271.09375 306.835938 280.484375 304.019531 C 267.632812 308.683594 254.847656 315.207031 244.609375 322.703125 C 244.609375 322.703125 244.976562 322.5625 245.632812 322.191406 C 246.292969 321.816406 247.316406 321.308594 248.535156 320.640625 C 249.753906 319.972656 251.339844 319.167969 253.023438 318.28125 C 254.800781 317.320312 256.832031 316.472656 258.980469 315.371094 C 263.527344 313.285156 268.808594 310.925781 274.695312 308.714844 C 276.164062 308.160156 277.636719 307.609375 279.28125 307.074219 C 280.832031 306.617188 282.320312 305.890625 284.042969 305.453125 C 287.238281 304.460938 290.628906 303.3125 293.902344 302.421875 C 290.339844 303.550781 286.660156 304.929688 282.980469 306.3125 C 279.460938 307.886719 275.859375 309.367188 272.515625 310.957031 C 270.832031 311.84375 269.167969 312.550781 267.5625 313.53125 C 266.054688 314.433594 264.371094 315.316406 262.863281 316.21875 C 261.277344 317.027344 259.847656 318.023438 258.515625 318.945312 C 257.183594 319.863281 255.769531 320.6875 254.535156 321.53125 C 254.535156 321.53125 254.632812 321.453125 254.726562 321.375 C 254.921875 321.21875 255.191406 321.160156 255.480469 320.921875 C 256.140625 320.550781 257.164062 320.039062 258.558594 319.390625 C 259.855469 318.820312 261.457031 317.839844 263.21875 317.050781 C 265.078125 316.1875 267.125 315.164062 269.351562 314.160156 C 278.347656 310.066406 290.484375 305.507812 302.589844 302.089844 C 300.847656 302.703125 298.929688 303.300781 297.265625 304.007812 C 295.425781 304.699219 293.761719 305.40625 291.925781 306.097656 C 290.164062 306.886719 288.5 307.59375 286.835938 308.304688 C 286.003906 308.660156 285.171875 309.015625 284.417969 309.464844 C 283.585938 309.820312 282.832031 310.269531 282 310.625 C 280.414062 311.429688 279 312.253906 277.511719 312.980469 C 276.101562 313.804688 274.785156 314.550781 273.472656 315.296875 C 272.15625 316.042969 271.015625 316.808594 269.972656 317.492188 C 268.929688 318.179688 267.964844 318.960938 267.113281 319.488281 C 267.113281 319.488281 268.234375 318.902344 270.382812 317.800781 C 271.40625 317.289062 272.703125 316.71875 274.191406 315.992188 C 275.683594 315.261719 277.269531 314.457031 279.105469 313.765625 C 286.34375 310.460938 296.117188 306.539062 306.183594 303.175781 C 303.785156 304.160156 301.464844 305.242188 299.238281 306.246094 C 297.09375 307.34375 295.042969 308.367188 293.085938 309.3125 C 291.210938 310.351562 289.609375 311.332031 288.195312 312.15625 C 286.785156 312.980469 285.644531 313.742188 284.777344 314.449219 C 284.777344 314.449219 285.703125 314.015625 287.273438 313.382812 C 288.839844 312.753906 291.160156 311.671875 293.929688 310.546875 C 299.484375 308.125 307.222656 305.046875 315.78125 301.792969 L 314.386719 302.441406 L 312.898438 303.167969 C 311.96875 303.601562 310.945312 304.113281 310.09375 304.640625 C 309.164062 305.074219 308.3125 305.605469 307.386719 306.035156 C 306.535156 306.566406 305.605469 307 304.753906 307.527344 C 303.152344 308.507812 301.644531 309.410156 300.230469 310.234375 C 298.898438 311.15625 297.664062 311.996094 296.792969 312.699219 C 296.792969 312.699219 297.722656 312.269531 299.132812 311.445312 C 300.640625 310.542969 302.867188 309.539062 305.382812 308.300781 C 306.039062 307.925781 306.773438 307.652344 307.429688 307.277344 C 308.167969 307 308.824219 306.628906 309.65625 306.273438 C 311.144531 305.546875 312.714844 304.914062 314.300781 304.109375 C 315.964844 303.402344 317.550781 302.59375 319.117188 301.964844 C 319.949219 301.609375 320.78125 301.253906 321.535156 300.804688 C 322.367188 300.449219 323.199219 300.09375 324.03125 299.742188 C 321.886719 300.839844 319.71875 302.117188 317.652344 303.3125 C 316.703125 303.917969 315.757812 304.527344 314.808594 305.132812 C 313.863281 305.742188 313.089844 306.367188 312.335938 306.820312 C 312.335938 306.820312 313.363281 306.308594 314.949219 305.503906 C 316.613281 304.792969 318.835938 303.789062 321.273438 302.453125 C 323.789062 301.214844 326.671875 299.839844 329.300781 298.347656 C 332.007812 296.953125 334.65625 295.289062 336.761719 293.742188 C 334.425781 292.4375 331.53125 291.429688 328.457031 290.402344 C 325.367188 289.546875 322.164062 288.949219 319.214844 288.464844 C 316.242188 288.152344 313.542969 287.78125 311.605469 287.757812 C 309.664062 287.730469 308.519531 287.699219 308.519531 287.699219 C 309.472656 287.886719 310.597656 288.09375 311.722656 288.300781 C 312.851562 288.503906 314.054688 288.808594 315.355469 289.03125 C 317.785156 289.460938 320.386719 289.910156 322.792969 290.515625 C 321.921875 290.425781 320.96875 290.238281 320 290.222656 C 319.125 290.132812 318.078125 290.023438 317.203125 289.929688 C 315.28125 289.730469 313.4375 289.625 311.59375 289.523438 C 309.65625 289.496094 307.890625 289.488281 306.125 289.480469 C 305.152344 289.46875 304.359375 289.472656 303.5625 289.476562 C 302.769531 289.484375 301.875 289.566406 301.082031 289.570312 C 297.976562 289.6875 295.144531 289.746094 293.265625 289.992188 C 291.753906 290.097656 290.6875 290.164062 290.6875 290.164062 Z M 290.6875 290.164062 " fill-opacity="1" fill-rule="nonzero"/></g></g></g></g><g clip-path="url(#0795d349fb)"><g clip-path="url(#5085150875)"><g clip-path="url(#e4f2a73fbe)"><g clip-path="url(#e74d4dd46f)"><path fill="#466d21" d="M 294.613281 235.207031 C 296.855469 240.738281 298.359375 245.753906 299.359375 250.535156 C 299.675781 251.71875 299.914062 252.800781 300.152344 253.886719 C 300.394531 254.972656 300.535156 256.132812 300.695312 257.121094 C 300.855469 258.109375 301.019531 259.097656 301.179688 260.085938 C 301.339844 261.074219 301.421875 261.96875 301.507812 262.859375 C 301.671875 264.640625 301.933594 266.347656 301.960938 267.761719 C 302.066406 269.277344 302.113281 270.515625 302.179688 271.582031 C 302.308594 273.714844 302.179688 274.9375 302.179688 274.9375 C 302.179688 274.9375 300.957031 274.8125 298.816406 274.144531 C 297.789062 273.863281 296.503906 273.464844 294.988281 272.773438 C 293.546875 272.183594 291.953125 271.398438 290.203125 270.421875 C 289.285156 269.882812 288.371094 269.347656 287.554688 268.730469 C 286.65625 268.019531 285.664062 267.386719 284.765625 266.671875 C 283.792969 265.863281 282.816406 265.058594 281.941406 264.171875 C 281.0625 263.285156 280.105469 262.300781 279.070312 261.222656 C 275.359375 257.035156 271.855469 251.726562 269.277344 245.1875 C 266.695312 238.648438 265.296875 231.789062 264.582031 225.179688 C 263.863281 218.570312 264.078125 212.324219 264.375 206.96875 C 264.773438 201.535156 265.425781 197.011719 266.027344 193.804688 C 266.628906 190.601562 267.003906 188.699219 267.003906 188.699219 C 267.003906 188.699219 268.253906 190.242188 270.191406 192.828125 C 272.128906 195.414062 274.824219 199.140625 277.625 203.582031 C 280.523438 207.949219 283.597656 213.125 286.65625 218.480469 C 289.601562 224.085938 292.367188 229.671875 294.613281 235.207031 Z M 294.613281 235.207031 " fill-opacity="1" fill-rule="nonzero"/></g></g></g></g><g clip-path="url(#4269a57a50)"><g clip-path="url(#f7b3d999eb)"><g clip-path="url(#d89f6bfe15)"><g clip-path="url(#7fe5e99665)"><path fill="#3a5a1a" d="M 295.683594 242.648438 C 295.296875 246.316406 295.859375 252.730469 297.136719 259.046875 C 295.257812 252.582031 293.574219 246.753906 292.347656 242.476562 C 291.769531 240.382812 291.257812 238.5625 290.9375 237.382812 C 290.742188 236.742188 290.601562 236.375 290.5625 235.929688 C 290.5 235.660156 290.441406 235.386719 290.441406 235.386719 C 290.355469 237.058594 290.621094 239.558594 291.085938 242.695312 C 291.367188 244.226562 291.628906 245.933594 291.96875 247.734375 C 292.40625 249.457031 292.824219 251.355469 293.261719 253.078125 C 290.582031 245.824219 288.269531 238.429688 286.742188 232.792969 C 285.890625 229.96875 285.332031 227.703125 284.898438 225.976562 C 284.460938 224.253906 284.203125 223.34375 284.203125 223.34375 C 284.335938 229.628906 286.402344 241.058594 290.265625 251.351562 C 286.765625 243.480469 283.765625 235.042969 281.789062 228.65625 C 280.800781 225.460938 279.929688 222.808594 279.339844 220.894531 C 278.746094 218.976562 278.503906 217.890625 278.503906 217.890625 C 279.199219 223.882812 280.675781 230.835938 282.773438 237.765625 C 279.148438 228.554688 275.679688 218.746094 272.269531 210 C 272.269531 210 272.511719 211.085938 272.988281 213.253906 C 273.484375 215.25 274.144531 218.230469 275.09375 221.773438 C 277 228.863281 279.886719 238.347656 284.367188 247.820312 C 283.699219 246.605469 282.953125 245.289062 282.382812 243.996094 C 281.8125 242.699219 281.070312 241.382812 280.5 240.089844 C 279.28125 237.402344 278.042969 234.886719 276.902344 232.296875 C 274.523438 227.191406 272.402344 222.199219 270.378906 217.925781 C 270.378906 217.925781 270.695312 219.105469 271.347656 221.296875 C 271.921875 223.386719 272.929688 226.40625 274.230469 229.984375 C 276.753906 237.046875 280.554688 246.277344 285.414062 254.644531 C 278.742188 245.027344 273.03125 233.832031 269.390625 228.15625 C 269.390625 228.15625 269.726562 229.160156 270.433594 230.824219 C 271.140625 232.488281 272.125 234.886719 273.402344 237.847656 C 275.980469 243.589844 279.882812 250.972656 284.734375 257.75 C 283.484375 256.207031 282.15625 254.566406 280.980469 253.121094 C 279.730469 251.578125 278.558594 250.128906 277.640625 248.796875 C 275.625 246.113281 273.75 243.800781 272.558594 242.527344 C 272.558594 242.527344 272.714844 242.71875 272.773438 242.992188 C 272.914062 243.359375 273.128906 243.824219 273.5 244.480469 C 274.167969 245.695312 275.128906 247.476562 276.5 249.5625 C 279.144531 253.8125 283.152344 259.351562 288.265625 264.476562 C 283.078125 260.050781 277.773438 255.082031 274.613281 252.367188 C 274.613281 252.367188 275.160156 253.042969 276.101562 254.199219 C 277.039062 255.355469 278.386719 256.824219 280.042969 258.675781 C 281.625 260.429688 283.714844 262.414062 285.800781 264.398438 C 286.855469 265.300781 287.984375 266.304688 289.210938 267.226562 C 289.777344 267.726562 290.363281 268.050781 290.929688 268.554688 C 291.492188 269.054688 292.078125 269.378906 292.738281 269.800781 C 290.988281 268.824219 289.332031 267.769531 287.675781 266.710938 C 286.761719 266.175781 286.023438 265.65625 285.183594 265.214844 C 284.445312 264.695312 283.609375 264.257812 282.945312 263.832031 C 282.945312 263.832031 283.589844 264.429688 284.722656 265.433594 C 285.851562 266.433594 287.566406 267.761719 289.457031 269.105469 C 291.347656 270.453125 293.683594 271.753906 295.859375 272.867188 C 298.136719 273.898438 300.527344 274.679688 302.703125 274.992188 C 302.84375 272.800781 302.578125 270.300781 302.292969 267.976562 C 302.105469 265.570312 301.644531 263.226562 301.242188 261.152344 C 300.941406 259.003906 300.601562 257.203125 300.28125 256.019531 C 300.0625 254.761719 299.882812 253.945312 299.882812 253.945312 C 299.808594 254.644531 299.8125 255.441406 299.816406 256.238281 C 299.824219 257.03125 299.90625 257.921875 299.988281 258.816406 C 300.152344 260.597656 300.222656 262.460938 300.46875 264.339844 C 300.269531 263.703125 300.070312 263.0625 300.046875 262.441406 C 299.851562 261.804688 299.75 261.085938 299.628906 260.542969 C 299.332031 259.1875 299.109375 257.929688 298.792969 256.746094 C 298.351562 254.230469 297.714844 251.867188 297.414062 249.714844 C 297.011719 247.644531 296.671875 245.839844 296.53125 244.679688 C 295.863281 243.460938 295.683594 242.648438 295.683594 242.648438 Z M 295.683594 242.648438 " fill-opacity="1" fill-rule="nonzero"/></g></g></g></g><g clip-path="url(#3fb2b426f6)"><g clip-path="url(#cb2accea89)"><g clip-path="url(#631357f3a4)"><g clip-path="url(#cd67f0b4aa)"><path fill="#466d21" d="M 362.664062 280.90625 C 365.035156 285.214844 366.804688 289.375 367.894531 293.285156 C 369.082031 297.117188 369.746094 300.894531 370.113281 304.113281 C 370.296875 305.722656 370.402344 307.234375 370.527344 308.570312 C 370.652344 309.910156 370.617188 311.054688 370.605469 312.023438 C 370.578125 313.964844 370.449219 315.1875 370.449219 315.1875 C 370.449219 315.1875 369.304688 315.15625 367.382812 314.953125 C 366.429688 314.765625 365.207031 314.640625 363.925781 314.242188 C 362.640625 313.839844 361.105469 313.328125 359.492188 312.71875 C 356.265625 311.496094 352.683594 309.445312 348.941406 306.40625 C 345.375 303.382812 341.722656 299.46875 338.839844 294.136719 C 335.9375 288.976562 334.082031 283.128906 333 277.453125 C 331.917969 271.777344 331.886719 266.210938 332.03125 261.457031 C 332.355469 256.722656 333.046875 252.644531 333.691406 249.886719 C 334.335938 247.128906 334.847656 245.589844 334.847656 245.589844 C 334.847656 245.589844 336.039062 246.863281 337.855469 248.90625 C 339.671875 250.953125 342.269531 253.960938 345.101562 257.257812 C 348.011719 260.652344 351.0625 264.417969 354.265625 268.371094 C 357.375 272.40625 360.289062 276.59375 362.664062 280.90625 Z M 362.664062 280.90625 " fill-opacity="1" fill-rule="nonzero"/></g></g></g></g><g clip-path="url(#506e7a3317)"><g clip-path="url(#c8530ae74d)"><g clip-path="url(#a5b1595c6e)"><g clip-path="url(#a4ae0d5f55)"><path fill="#3a5a1a" d="M 364.132812 287.0625 C 363.882812 290.304688 364.710938 295.867188 366.003906 301.210938 C 364.105469 295.714844 362.3125 290.9375 360.917969 287.433594 C 360.304688 285.691406 359.753906 284.222656 359.320312 283.292969 C 358.886719 282.367188 358.691406 281.726562 358.691406 281.726562 C 358.667969 284.460938 359.984375 290.425781 362.152344 296.660156 C 359.421875 290.722656 356.691406 284.785156 354.957031 280.277344 C 354.050781 277.976562 353.363281 276.136719 352.792969 274.839844 C 352.316406 273.464844 352.042969 272.730469 352.042969 272.730469 C 352.460938 277.984375 355.191406 287.277344 359.160156 295.726562 C 355.496094 289.429688 352.140625 282.71875 349.839844 277.710938 C 349.269531 276.414062 348.777344 275.214844 348.265625 274.191406 C 347.851562 273.089844 347.324219 272.238281 347.046875 271.503906 C 346.417969 269.9375 346.066406 269.105469 346.066406 269.105469 C 346.949219 274.140625 348.746094 279.714844 351.164062 285.265625 C 347.164062 277.960938 343.296875 270.226562 339.707031 263.230469 C 339.707031 263.230469 339.765625 263.5 339.902344 263.867188 C 339.945312 264.316406 340.222656 265.050781 340.496094 265.785156 C 340.753906 266.695312 341.089844 267.703125 341.503906 268.804688 C 341.917969 269.90625 342.390625 271.28125 342.945312 272.753906 C 345.167969 278.460938 348.511719 286.136719 353.210938 293.515625 C 347.675781 285.699219 342.425781 276.847656 338.097656 270.125 C 338.097656 270.125 338.15625 270.398438 338.375 270.863281 C 338.589844 271.324219 338.867188 272.0625 339.21875 272.894531 C 340.007812 274.652344 341.066406 277.148438 342.441406 280.027344 C 345.289062 285.714844 349.5625 292.960938 354.449219 299.386719 C 347.789062 292.15625 341.53125 283.644531 337.589844 279.167969 C 337.589844 279.167969 338.039062 279.921875 338.6875 281.316406 C 339.433594 282.628906 340.550781 284.601562 341.996094 286.78125 C 344.875 291.320312 349.042969 297.054688 353.804688 302.144531 C 348.539062 297.621094 343.742188 292.878906 341.363281 291.132812 C 341.363281 291.132812 341.65625 291.691406 342.441406 292.65625 C 343.222656 293.621094 344.140625 294.953125 345.566406 296.515625 C 348.320312 299.71875 352.300781 303.84375 357.210938 307.535156 C 352.324219 304.460938 347.125 301.003906 343.953125 299.261719 C 343.953125 299.261719 346.039062 301.246094 349.21875 303.785156 C 350.757812 305.09375 352.742188 306.359375 354.710938 307.804688 C 356.777344 309.167969 358.9375 310.453125 361.117188 311.5625 C 359.503906 310.953125 357.808594 310.246094 356.292969 309.558594 C 354.679688 308.949219 353.160156 308.257812 351.878906 307.859375 C 351.878906 307.859375 352.542969 308.28125 353.613281 309.011719 C 354.683594 309.742188 356.183594 310.605469 358.03125 311.503906 C 359.878906 312.40625 361.824219 313.226562 363.960938 313.890625 C 366.101562 314.554688 368.179688 314.949219 370.292969 314.992188 C 370.417969 312.976562 370.382812 310.765625 370.160156 308.710938 C 370.03125 306.578125 369.628906 304.503906 369.289062 302.703125 C 368.949219 300.902344 368.589844 299.273438 368.351562 298.191406 C 368.113281 297.105469 367.914062 296.464844 367.914062 296.464844 C 367.863281 297.785156 367.890625 299.203125 368.074219 300.808594 C 368.179688 302.324219 368.347656 304.105469 368.628906 305.636719 C 367.496094 301.28125 366.402344 296.574219 365.46875 292.855469 C 364.75 289.601562 364.132812 287.0625 364.132812 287.0625 Z M 364.132812 287.0625 " fill-opacity="1" fill-rule="nonzero"/></g></g></g></g><g clip-path="url(#8c6f463555)"><g clip-path="url(#0bacff97f1)"><g clip-path="url(#474fc0e8c2)"><g clip-path="url(#44d1659d32)"><path fill="#466d21" d="M 347.625 329.84375 C 352.914062 329.074219 358.054688 328.902344 362.808594 329.046875 C 367.542969 329.367188 371.992188 329.917969 376.03125 330.957031 C 384.132812 332.863281 390.609375 335.925781 395.496094 338.996094 C 396.742188 339.746094 397.816406 340.476562 398.886719 341.207031 C 399.957031 341.9375 400.855469 342.648438 401.75 343.359375 C 403.449219 344.863281 404.910156 346.074219 405.847656 347.230469 C 407.996094 349.488281 408.914062 350.820312 408.914062 350.820312 C 408.914062 350.820312 407.347656 351.449219 404.421875 352.382812 C 402.96875 352.757812 401.226562 353.371094 399.230469 353.871094 C 398.226562 354.207031 397.140625 354.445312 395.960938 354.765625 C 394.777344 355.082031 393.597656 355.402344 392.414062 355.71875 C 387.339844 356.953125 381.449219 358.371094 374.863281 359.710938 C 371.527344 360.335938 368.003906 361.113281 364.320312 361.703125 C 360.636719 362.289062 356.761719 363.03125 352.554688 363.5625 C 348.425781 364.191406 344.21875 364.722656 340.09375 365.351562 C 335.691406 366.039062 331.390625 366.648438 327.183594 367.183594 C 318.480469 368.480469 309.523438 369.664062 301.515625 370.238281 C 293.601562 370.738281 286.734375 370.550781 282.019531 370.058594 C 280.796875 369.929688 279.746094 369.820312 278.875 369.726562 C 277.921875 369.539062 277.222656 369.46875 276.523438 369.394531 C 275.222656 369.171875 274.621094 369.019531 274.621094 369.019531 C 274.621094 369.019531 275.179688 368.722656 276.320312 367.960938 C 276.882812 367.664062 277.460938 367.195312 278.3125 366.667969 C 279.066406 366.214844 279.933594 365.511719 280.882812 364.90625 C 284.6875 362.300781 289.847656 358.601562 295.96875 354.117188 C 302.171875 349.734375 309.339844 344.566406 317.945312 339.988281 C 322.257812 337.613281 326.898438 335.449219 331.933594 333.769531 C 337.0625 332.007812 342.332031 330.617188 347.625 329.84375 Z M 347.625 329.84375 " fill-opacity="1" fill-rule="nonzero"/></g></g></g></g><g clip-path="url(#6366f1d9ea)"><g clip-path="url(#826e3bfb2d)"><g clip-path="url(#10bfaae4e3)"><g clip-path="url(#69a4266247)"><path fill="#3a5a1a" d="M 360.839844 330.960938 C 362.300781 331.378906 364.007812 331.910156 365.972656 332.558594 C 367.003906 332.839844 367.9375 333.203125 368.964844 333.488281 C 369.996094 333.773438 371.105469 334.152344 372.210938 334.535156 C 376.738281 335.976562 381.601562 337.632812 386.167969 339.523438 C 375.925781 336.15625 365.8125 334.925781 358.417969 334.683594 C 356.574219 334.578125 354.808594 334.570312 353.394531 334.597656 C 351.882812 334.707031 350.5625 334.65625 349.496094 334.722656 C 348.429688 334.785156 347.539062 334.871094 347.089844 334.910156 C 346.46875 334.933594 346.199219 334.996094 346.199219 334.996094 C 347.5 335.21875 349.167969 335.304688 351.167969 335.601562 C 352.21875 335.710938 353.265625 335.820312 354.488281 335.949219 C 355.613281 336.15625 356.835938 336.28125 358.15625 336.332031 C 363.300781 336.957031 369.125 337.832031 374.992188 339.152344 C 362.820312 337.347656 350.136719 337.878906 340.714844 339.277344 C 336.042969 340.027344 332.167969 340.769531 329.457031 341.371094 C 328.101562 341.667969 327.09375 342.003906 326.375 342.105469 C 325.738281 342.304688 325.289062 342.347656 325.289062 342.347656 C 330.195312 341.886719 337.351562 341.046875 345.242188 340.722656 C 353.136719 340.398438 362.042969 340.535156 370.429688 341.410156 C 363.753906 341.066406 356.925781 341.324219 350.488281 342.066406 C 344.148438 342.726562 338.183594 344.046875 333.105469 345.28125 C 328.109375 346.613281 324.003906 347.863281 321.160156 348.890625 C 319.785156 349.367188 318.679688 349.78125 317.867188 349.960938 C 317.132812 350.238281 316.761719 350.375 316.761719 350.375 C 325.617188 348.472656 336.195312 346.136719 346.996094 345.054688 C 339.628906 346.230469 332.332031 348.46875 325.34375 351.09375 C 318.355469 353.71875 311.679688 356.730469 305.527344 359.796875 C 305.527344 359.796875 307.175781 359.261719 310.097656 358.332031 C 313.023438 357.402344 317.144531 355.976562 322.355469 354.316406 C 327.464844 352.730469 333.488281 350.886719 340.171875 349.464844 C 343.523438 348.667969 347.109375 348.160156 350.695312 347.652344 C 354.359375 347.238281 358.023438 346.828125 361.84375 346.609375 C 353.722656 347.4375 345.3125 349.296875 337.625 351.847656 C 329.941406 354.402344 322.878906 357.726562 316.980469 360.90625 C 316.980469 360.90625 318.722656 360.292969 321.664062 359.1875 C 324.683594 358.179688 328.90625 356.675781 334.019531 355.089844 C 339.035156 353.585938 345.019531 352.089844 351.316406 350.984375 C 357.617188 349.875 364.578125 349.1875 371.230469 348.914062 C 363.105469 349.742188 354.890625 351.445312 347.84375 353.796875 C 340.792969 356.152344 335.03125 358.90625 331.066406 361.316406 C 331.066406 361.316406 331.433594 361.179688 332.074219 360.980469 C 332.710938 360.785156 333.546875 360.429688 334.824219 360.03125 C 337.203125 359.222656 340.417969 358.054688 344.410156 357.058594 C 352.328125 354.796875 363.335938 352.59375 374.5625 351.644531 C 369.078125 352.574219 363.90625 353.886719 359.703125 355.214844 C 358.695312 355.550781 357.59375 355.964844 356.683594 356.222656 C 355.675781 356.558594 354.84375 356.914062 354.011719 357.269531 C 352.445312 357.898438 351.128906 358.644531 350.105469 359.15625 C 350.105469 359.15625 351.015625 358.898438 352.738281 358.460938 C 353.648438 358.203125 354.636719 358.042969 355.914062 357.644531 C 357.175781 357.421875 358.628906 357.046875 360.082031 356.667969 C 366.320312 355.289062 374.960938 353.71875 384.597656 352.78125 C 380.101562 353.550781 375.648438 354.761719 371.796875 356.125 C 370.789062 356.460938 369.957031 356.816406 369.046875 357.074219 C 368.214844 357.429688 367.382812 357.78125 366.550781 358.136719 C 364.980469 358.769531 363.667969 359.515625 362.546875 360.105469 C 362.546875 360.105469 363.550781 359.765625 365.277344 359.328125 C 366.1875 359.070312 367.195312 358.734375 368.375 358.417969 C 369.554688 358.097656 370.914062 357.800781 372.367188 357.421875 C 378.175781 355.910156 386.101562 354.441406 393.640625 353.285156 C 388.488281 354.425781 383.261719 356.261719 379.644531 357.917969 C 379.644531 357.917969 384.253906 356.898438 390.027344 355.734375 C 395.898438 354.492188 403.378906 353.066406 409.070312 351.011719 C 405.53125 346.050781 398.867188 341.382812 392.835938 338.277344 C 391.320312 337.589844 389.898438 336.824219 388.554688 336.152344 C 387.292969 335.578125 385.929688 335.085938 384.996094 334.722656 C 383.984375 334.261719 383.128906 333.996094 382.527344 333.84375 C 381.925781 333.695312 381.671875 333.578125 381.671875 333.578125 C 385.683594 335.765625 391.113281 338.714844 395.902344 341.867188 C 388.625 338.015625 379.855469 334.890625 372.960938 333.289062 C 371.230469 332.929688 369.601562 332.496094 368.125 332.253906 C 366.648438 332.007812 365.347656 331.785156 364.316406 331.5 C 363.191406 331.296875 362.316406 331.203125 361.792969 331.148438 C 361.113281 330.902344 360.839844 330.960938 360.839844 330.960938 Z M 360.839844 330.960938 " fill-opacity="1" fill-rule="nonzero"/></g></g></g></g></svg>