<svg xmlns="http://www.w3.org/2000/svg" xmlns:xlink="http://www.w3.org/1999/xlink" width="500" zoomAndPan="magnify" viewBox="0 0 375 374.999991" height="500" preserveAspectRatio="xMidYMid meet" version="1.0"><defs><clipPath id="141116be46"><path d="M 0 166 L 133 166 L 133 375 L 0 375 Z M 0 166 " clip-rule="nonzero"/></clipPath><clipPath id="68d38e0caf"><path d="M 152.265625 146.644531 L 187.527344 491.34375 L -177.320312 528.667969 L -212.582031 183.96875 Z M 152.265625 146.644531 " clip-rule="nonzero"/></clipPath><clipPath id="78a6c65666"><path d="M 152.265625 146.644531 L 177.757812 395.84375 L 3.914062 413.628906 L -21.578125 164.429688 Z M 152.265625 146.644531 " clip-rule="nonzero"/></clipPath><clipPath id="12ebafb64c"><path d="M 152.265625 146.644531 L 187.527344 491.34375 L -177.320312 528.667969 L -212.582031 183.96875 Z M 152.265625 146.644531 " clip-rule="nonzero"/></clipPath><clipPath id="d8464e6395"><path d="M 0 180 L 87 180 L 87 375 L 0 375 Z M 0 180 " clip-rule="nonzero"/></clipPath><clipPath id="4425b9e130"><path d="M 152.265625 146.644531 L 187.527344 491.34375 L -177.320312 528.667969 L -212.582031 183.96875 Z M 152.265625 146.644531 " clip-rule="nonzero"/></clipPath><clipPath id="f95ca7c74e"><path d="M 152.265625 146.644531 L 177.757812 395.84375 L 3.914062 413.628906 L -21.578125 164.429688 Z M 152.265625 146.644531 " clip-rule="nonzero"/></clipPath><clipPath id="fd836f04ac"><path d="M 152.265625 146.644531 L 187.527344 491.34375 L -177.320312 528.667969 L -212.582031 183.96875 Z M 152.265625 146.644531 " clip-rule="nonzero"/></clipPath><clipPath id="a5013ec306"><path d="M 0 153 L 156 153 L 156 375 L 0 375 Z M 0 153 " clip-rule="nonzero"/></clipPath><clipPath id="8b8ff67b26"><path d="M 152.265625 146.644531 L 187.527344 491.34375 L -177.320312 528.667969 L -212.582031 183.96875 Z M 152.265625 146.644531 " clip-rule="nonzero"/></clipPath><clipPath id="2405729759"><path d="M 152.265625 146.644531 L 177.757812 395.84375 L 3.914062 413.628906 L -21.578125 164.429688 Z M 152.265625 146.644531 " clip-rule="nonzero"/></clipPath><clipPath id="473067066a"><path d="M 152.265625 146.644531 L 187.527344 491.34375 L -177.320312 528.667969 L -212.582031 183.96875 Z M 152.265625 146.644531 " clip-rule="nonzero"/></clipPath><clipPath id="5df766d1ba"><path d="M 0 154 L 152 154 L 152 375 L 0 375 Z M 0 154 " clip-rule="nonzero"/></clipPath><clipPath id="d89a24325f"><path d="M 152.265625 146.644531 L 187.527344 491.34375 L -177.320312 528.667969 L -212.582031 183.96875 Z M 152.265625 146.644531 " clip-rule="nonzero"/></clipPath><clipPath id="4e28eb72b6"><path d="M 152.265625 146.644531 L 177.757812 395.84375 L 3.914062 413.628906 L -21.578125 164.429688 Z M 152.265625 146.644531 " clip-rule="nonzero"/></clipPath><clipPath id="efe668af8f"><path d="M 152.265625 146.644531 L 187.527344 491.34375 L -177.320312 528.667969 L -212.582031 183.96875 Z M 152.265625 146.644531 " clip-rule="nonzero"/></clipPath></defs><g clip-path="url(#141116be46)"><g clip-path="url(#68d38e0caf)"><g clip-path="url(#78a6c65666)"><g clip-path="url(#12ebafb64c)"><path fill="#a47052" d="M -169.96875 525.519531 C -169.574219 523.15625 -167.683594 521.191406 -166.171875 519.535156 C -163.882812 517.027344 -161.347656 514.71875 -159.007812 512.296875 C -154.15625 507.296875 -150.90625 501.324219 -147.132812 495.570312 C -142.96875 489.230469 -138.398438 483.714844 -132.378906 479.050781 C -125.097656 473.390625 -117.769531 467.730469 -110.4375 462.15625 C -106.8125 459.375 -103.179688 456.683594 -99.554688 453.949219 C -97.046875 452.691406 -94.53125 451.523438 -91.960938 450.441406 C -82.929688 446.789062 -73.171875 444.472656 -63.6875 442.59375 C -45.027344 438.910156 -25.253906 440.796875 -7.507812 433.070312 C 1.753906 429.027344 9.460938 422.191406 18.613281 417.933594 C 19.828125 417.398438 19.136719 415.511719 17.820312 415.964844 C 14.929688 417.035156 12.195312 418.269531 9.46875 419.597656 L 9.421875 419.601562 C 4.230469 422.132812 -0.839844 424.972656 -6.15625 427.199219 C -14.828125 430.816406 -24.390625 431.476562 -33.640625 432.101562 C -38.46875 432.414062 -43.3125 432.59375 -48.117188 433.128906 C -53.238281 433.699219 -58.199219 434.980469 -63.222656 436.039062 C -69.226562 437.289062 -75.398438 438.695312 -81.359375 440.394531 L -81.402344 440.402344 C -81.492188 440.410156 -81.625 440.46875 -81.714844 440.480469 C -77.328125 437.164062 -72.984375 433.898438 -68.652344 430.5 C -55.777344 420.449219 -44.101562 409.335938 -33.011719 397.375 C -30.351562 394.511719 -27.882812 391.574219 -25.414062 388.59375 C -23 385.570312 -20.375 382.800781 -18 379.828125 C -13.046875 373.589844 -10.765625 365.714844 -7.164062 358.707031 C -6.554688 357.550781 -6.042969 356.363281 -5.476562 355.210938 C -3.035156 353.324219 -0.496094 351.519531 2.164062 349.972656 C 6.191406 347.605469 10.5625 345.929688 14.816406 343.992188 C 18.550781 342.292969 22.230469 340.503906 25.890625 338.539062 L 25.9375 338.535156 C 26.886719 338.074219 27.875 337.515625 28.824219 337.011719 C 28.824219 337.011719 28.867188 337.003906 28.914062 337 C 36.5625 336.265625 44.328125 336.699219 51.96875 337.644531 C 60.390625 338.695312 68.082031 341.953125 76.277344 343.890625 C 78.839844 344.496094 81.425781 344.910156 84.003906 345.238281 C 90.398438 346.039062 96.871094 346.242188 103.199219 347.234375 C 104.355469 347.433594 104.632812 345.722656 103.515625 345.472656 C 94.140625 343.519531 84.394531 343.289062 75.226562 340.269531 C 66.949219 337.523438 59.339844 333.75 50.660156 332.410156 C 46.601562 331.824219 42.476562 331.472656 38.34375 331.488281 C 45.773438 326.816406 53.078125 321.835938 61.253906 318.726562 C 72.722656 314.460938 85.40625 314.117188 97.167969 310.957031 C 109.421875 307.703125 119.535156 299.527344 131.726562 296.140625 C 132.433594 295.933594 132.167969 294.6875 131.414062 294.855469 C 120.121094 297.285156 110.382812 303.785156 99.457031 307.132812 C 95.140625 308.4375 90.695312 309.390625 86.183594 310.171875 C 77.710938 311.722656 69.082031 312.648438 60.722656 314.414062 C 54.761719 315.660156 48.90625 317.488281 43.460938 320.226562 C 37.933594 323.023438 32.851562 326.636719 27.390625 329.652344 C 23.902344 331.554688 20.265625 333.292969 16.667969 334.980469 C 16.316406 335.105469 16.007812 335.183594 15.65625 335.308594 C 13.425781 336.175781 10.378906 337.441406 8.1875 339.121094 C 5.417969 340.496094 2.707031 341.957031 0.0507812 343.546875 C 0.277344 343.070312 0.503906 342.636719 0.683594 342.164062 L 0.679688 342.117188 C 1.796875 339.730469 2.871094 337.34375 3.945312 334.960938 C 7.167969 327.851562 10.636719 320.902344 13.625 313.683594 C 20 298.292969 22.429688 281.621094 28.902344 266.265625 C 30.433594 262.609375 32.496094 259.210938 34.175781 255.628906 C 35.765625 252.101562 36.984375 248.472656 38.582031 244.988281 C 41.847656 237.832031 47.066406 232.429688 52.847656 227.199219 C 58.75 221.863281 65.886719 217.449219 70.878906 211.164062 C 73.132812 208.339844 74.4375 205.113281 75.917969 201.820312 C 76.808594 199.867188 78.144531 198.273438 79.640625 196.890625 C 81.46875 195.660156 83.34375 194.464844 85.476562 193.566406 C 89.566406 191.78125 94.03125 191.007812 98.453125 190.28125 C 103.191406 189.523438 107.484375 189.722656 112.246094 190.101562 C 116.691406 190.464844 121.089844 189.921875 125.476562 189.292969 C 126.285156 189.210938 126.164062 188.039062 125.351562 188.078125 C 120.164062 188.425781 115.039062 188.539062 109.90625 187.65625 C 105.328125 186.851562 100.578125 186.609375 96.019531 187.347656 C 95.214844 187.476562 94.417969 187.691406 93.664062 187.859375 C 106.25 181.207031 119.882812 176.355469 131.183594 167.375 C 131.730469 166.953125 131.089844 166.019531 130.503906 166.488281 C 119.238281 174.964844 105.863281 179.652344 93.367188 185.84375 C 91.722656 186.648438 90.082031 187.5 88.492188 188.390625 C 86.042969 189.777344 83.546875 191.125 81.304688 192.71875 C 81.257812 192.722656 81.261719 192.769531 81.21875 192.773438 C 79.605469 193.894531 78.054688 195.144531 76.691406 196.511719 C 76.480469 196.667969 76.277344 196.871094 76.070312 197.074219 C 74.886719 198.378906 73.800781 199.765625 72.917969 201.355469 C 71.078125 204.683594 69.546875 207.933594 66.679688 210.546875 C 63.851562 213.109375 60.554688 215.085938 57.523438 217.394531 C 52.457031 221.1875 47.445312 225.476562 43.0625 230.15625 C 43.132812 229.511719 43.203125 228.867188 43.277344 228.269531 C 43.402344 227.257812 43.621094 226.277344 43.933594 225.335938 C 45.261719 221.015625 46.488281 216.570312 48.152344 212.394531 C 49.492188 209.074219 50.355469 205.984375 50.351562 202.390625 C 50.398438 198.382812 49.429688 194.25 50.523438 190.273438 C 51.671875 185.96875 54.636719 182.527344 57.929688 179.644531 C 58.71875 178.925781 57.8125 177.609375 56.929688 178.289062 C 55.960938 179.027344 54.992188 179.808594 54.074219 180.585938 C 54.078125 180.628906 54.035156 180.632812 54.035156 180.632812 C 50.074219 184.132812 46.75 188.476562 45.746094 193.765625 C 44.988281 197.480469 45.96875 201.292969 45.445312 205.03125 C 44.832031 209.277344 42.613281 213.328125 41.398438 217.453125 C 40.191406 221.625 38.914062 225.578125 38.492188 229.894531 C 38.289062 231.917969 38.144531 234.027344 37.289062 235.886719 C 36.472656 237.699219 35.089844 239.25 33.9375 240.871094 C 33.027344 242.191406 32.15625 243.464844 31.628906 244.972656 C 30.976562 247.039062 31.050781 249.082031 29.929688 251.015625 C 28.007812 254.441406 26.132812 257.40625 24.886719 261.21875 C 23.796875 264.789062 23.105469 268.226562 22.515625 271.789062 C 22.023438 272.746094 21.570312 273.660156 21.167969 274.609375 C 17.777344 282.324219 15.507812 290.335938 12.679688 298.222656 C 9.964844 305.871094 6.238281 312.984375 2.429688 320.148438 C 2.085938 320.777344 1.746094 321.449219 1.398438 322.074219 C 1.402344 322.121094 1.410156 322.164062 1.324219 322.21875 C 0.0664062 324.578125 -1.136719 327.019531 -2.390625 329.421875 C -2.386719 329.46875 -2.382812 329.511719 -2.429688 329.515625 C -4.65625 333.929688 -6.835938 338.382812 -9.015625 342.835938 C -12.742188 350.359375 -17.257812 357.738281 -20.039062 365.664062 C -21.265625 369.199219 -22.117188 372.878906 -23.628906 376.3125 C -25.3125 380.257812 -27.738281 383.644531 -30.441406 386.96875 C -40.824219 399.632812 -53.765625 409.917969 -66.953125 419.542969 C -81.070312 429.90625 -95.566406 439.621094 -109.574219 450.152344 C -114.59375 453.941406 -119.558594 457.8125 -124.523438 461.6875 C -124.304688 461.164062 -124.085938 460.644531 -123.863281 460.121094 C -123.679688 459.691406 -123.492188 459.308594 -123.355469 458.886719 C -121.941406 455.375 -120.425781 451.988281 -119.574219 448.308594 C -117.792969 440.4375 -116.371094 432.5625 -114.867188 424.628906 C -113.449219 417.160156 -111.671875 409.652344 -108.851562 402.585938 C -105.917969 395.28125 -101.386719 388.949219 -97.929688 381.910156 C -96.648438 379.324219 -95.515625 376.613281 -94.386719 373.90625 C -92.25 372.140625 -90.695312 369.570312 -89.246094 367.285156 C -86.941406 363.636719 -85.402344 359.566406 -82.613281 356.1875 C -79.136719 351.96875 -75.457031 347.996094 -72.425781 343.410156 C -69.390625 338.871094 -67.550781 333.769531 -64.707031 329.15625 C -59.1875 320.039062 -50.742188 312.898438 -42.347656 306.582031 C -38.550781 303.734375 -34.695312 300.976562 -31.511719 297.464844 C -28.332031 293.910156 -25.988281 289.714844 -23.296875 285.84375 C -17.707031 277.859375 -11.191406 268.730469 -11 258.613281 C -10.960938 257.652344 -12.652344 257.554688 -12.730469 258.5625 C -13.410156 267.914062 -19.847656 276.484375 -25.191406 283.765625 C -26.109375 284.996094 -27.070312 286.277344 -28.082031 287.472656 C -29.933594 289.800781 -31.976562 292.054688 -34.328125 293.933594 C -37.941406 296.804688 -42.015625 299.175781 -45.890625 301.710938 C -54.332031 307.125 -62.207031 314.070312 -68.144531 322.183594 C -71.175781 326.316406 -73.074219 330.875 -75.53125 335.265625 C -78.144531 339.902344 -81.640625 343.945312 -84.597656 348.339844 C -85.269531 349.320312 -85.9375 350.34375 -86.519531 351.3125 C -86.382812 350.886719 -86.246094 350.417969 -86.109375 349.996094 C -84.628906 345.386719 -83.246094 340.695312 -82.222656 336.042969 C -80.480469 328.175781 -81.644531 320.382812 -83.078125 312.566406 C -84.523438 304.664062 -85.835938 297.15625 -84.664062 289.074219 C -82.316406 272.503906 -72.8125 257.933594 -62.78125 244.941406 C -62.261719 244.253906 -63.304688 243.402344 -63.867188 244.097656 C -69.429688 250.582031 -74.636719 257.390625 -78.832031 264.824219 C -78.824219 264.871094 -78.871094 264.875 -78.871094 264.875 C -81.753906 269.992188 -84.15625 275.375 -85.847656 281.054688 C -87.941406 288.136719 -88.652344 295.398438 -88.21875 302.722656 C -87.75 310.863281 -86.359375 319.136719 -87.15625 327.3125 C -88.027344 335.679688 -91.296875 343.703125 -93.886719 351.703125 C -96.363281 359.460938 -98.925781 367.273438 -102.585938 374.5625 C -106.289062 381.902344 -111.734375 388.1875 -115.199219 395.59375 C -116.058594 397.410156 -116.871094 399.269531 -117.585938 401.160156 C -117.527344 400.382812 -117.476562 399.558594 -117.417969 398.777344 C -117.167969 394.570312 -117.238281 390.34375 -117.886719 386.226562 C -118.910156 379.78125 -122.707031 374.621094 -125.046875 368.628906 C -127.578125 362.109375 -127.652344 354.699219 -128.671875 347.84375 C -128.875 346.320312 -131.078125 346.546875 -131.011719 348.085938 C -130.992188 348.71875 -130.972656 349.355469 -130.953125 349.988281 C -130.746094 356.425781 -131.164062 363.019531 -129.75 369.289062 C -129.078125 372.316406 -127.789062 375.140625 -126.714844 378.078125 C -125.476562 381.316406 -124.882812 384.441406 -124.574219 387.910156 C -124.027344 394.585938 -125.078125 401.199219 -124.804688 407.859375 C -124.671875 410.9375 -124.167969 414.070312 -123.40625 417.085938 C -123.234375 417.886719 -123 418.820312 -122.726562 419.746094 C -124.273438 428.136719 -124.71875 436.691406 -126.078125 445.152344 C -126.78125 449.363281 -127.519531 453.261719 -128.921875 457.316406 C -129.941406 460.242188 -130.757812 463.371094 -130.796875 466.515625 C -131.933594 467.40625 -133.074219 468.25 -134.167969 469.089844 C -141.53125 474.847656 -147.800781 480.628906 -153 488.4375 C -157.292969 494.882812 -160.867188 501.660156 -166.332031 507.316406 C -170.6875 511.808594 -176.734375 517.566406 -177.132812 524.296875 C -177.261719 527.039062 -174.921875 528.617188 -172.851562 528.40625 C -171.503906 528.269531 -170.277344 527.371094 -169.96875 525.519531 Z M -169.96875 525.519531 " fill-opacity="1" fill-rule="nonzero"/></g></g></g></g><g clip-path="url(#d8464e6395)"><g clip-path="url(#4425b9e130)"><g clip-path="url(#f95ca7c74e)"><g clip-path="url(#fd836f04ac)"><path fill="#7f4c38" d="M 22.515625 271.789062 C 22.023438 272.746094 21.570312 273.660156 21.167969 274.609375 C 17.777344 282.324219 15.507812 290.335938 12.679688 298.222656 C 9.964844 305.871094 6.238281 312.984375 2.429688 320.148438 C 2.085938 320.777344 1.746094 321.449219 1.398438 322.074219 C 1.402344 322.121094 1.410156 322.164062 1.324219 322.21875 C 0.332031 324.503906 -0.800781 326.757812 -2.078125 328.9375 C -2.15625 329.082031 -2.269531 329.273438 -2.390625 329.421875 C -2.386719 329.46875 -2.382812 329.511719 -2.429688 329.515625 C -4.65625 333.929688 -6.835938 338.382812 -9.015625 342.835938 C -12.742188 350.359375 -17.257812 357.738281 -20.039062 365.664062 C -21.265625 369.199219 -22.117188 372.878906 -23.628906 376.3125 C -25.3125 380.257812 -27.738281 383.644531 -30.441406 386.96875 C -40.824219 399.632812 -53.765625 409.917969 -66.953125 419.542969 C -81.070312 429.90625 -95.566406 439.621094 -109.574219 450.152344 C -114.59375 453.941406 -119.558594 457.8125 -124.523438 461.6875 C -124.304688 461.164062 -124.085938 460.644531 -123.863281 460.121094 C -124.550781 460.964844 -125.65625 462.578125 -125.023438 463.46875 C -124.914062 463.640625 -124.730469 463.664062 -124.597656 463.605469 C -124.023438 463.457031 -123.6875 462.742188 -123.324219 462.292969 C -122.832031 461.789062 -122.289062 461.324219 -121.691406 460.945312 C -121.097656 460.519531 -120.453125 460.179688 -119.800781 459.886719 C -119.019531 459.53125 -118.339844 459.054688 -117.609375 458.660156 C -116.140625 457.820312 -114.804688 456.90625 -113.4375 455.988281 C -115.046875 457.972656 -116.605469 460 -118.464844 461.789062 C -118.585938 461.902344 -118.398438 462.09375 -118.265625 461.996094 C -115.773438 460.144531 -113.910156 457.609375 -111.710938 455.441406 C -110.351562 454.101562 -109.046875 452.882812 -107.273438 452.121094 C -105.808594 451.492188 -104.367188 450.882812 -102.976562 450.097656 C -100.269531 448.570312 -97.652344 446.84375 -95.523438 444.566406 C -94.3125 443.273438 -93.132812 442.238281 -91.59375 441.367188 C -90.0625 440.5 -88.535156 439.40625 -86.875 438.824219 C -86.613281 438.734375 -86.710938 438.273438 -86.992188 438.339844 C -88.457031 438.675781 -89.714844 439.410156 -91.070312 440.035156 C -92.460938 440.675781 -93.828125 441.308594 -95.058594 442.230469 C -96.402344 443.242188 -97.523438 444.507812 -98.871094 445.507812 C -100.320312 446.578125 -101.871094 447.539062 -103.398438 448.492188 C -103.515625 448.5625 -103.632812 448.621094 -103.75 448.6875 C -100.125 445.773438 -97.105469 442.085938 -93.054688 439.773438 C -91.207031 438.71875 -89.398438 437.761719 -87.710938 436.496094 C -86.152344 435.292969 -84.597656 434.042969 -82.878906 433.089844 C -82.574219 432.96875 -82.269531 432.847656 -81.917969 432.71875 C -81.214844 432.46875 -80.519531 432.167969 -79.867188 431.875 C -79.050781 431.589844 -78.285156 431.242188 -77.550781 430.828125 C -77.808594 431.039062 -78.054688 431.265625 -78.320312 431.46875 C -79.765625 432.585938 -81.402344 433.445312 -82.730469 434.710938 C -82.992188 434.960938 -82.570312 435.410156 -82.289062 435.175781 C -80.90625 434.011719 -79.234375 433.265625 -77.734375 432.269531 C -75.90625 431.058594 -74.195312 429.640625 -72.472656 428.28125 C -71.941406 427.863281 -71.449219 427.410156 -70.953125 426.957031 C -68.746094 425.5625 -66.660156 424.023438 -64.742188 422.09375 C -64.210938 421.554688 -63.640625 421.054688 -63.097656 420.53125 C -61.585938 419.640625 -60.070312 418.75 -58.628906 417.753906 C -57.070312 416.671875 -55.859375 415.273438 -54.414062 414.0625 C -52.855469 412.761719 -50.988281 411.929688 -49.335938 410.773438 C -47.746094 409.660156 -46.308594 408.347656 -44.699219 407.265625 C -44.566406 407.175781 -44.683594 406.972656 -44.828125 407.027344 C -46.519531 407.65625 -47.792969 408.789062 -49.261719 409.800781 C -50.933594 410.953125 -52.871094 411.652344 -54.535156 412.800781 C -55.992188 413.800781 -57.1875 415.128906 -58.566406 416.226562 C -56.894531 414.679688 -55.21875 413.136719 -53.648438 411.496094 C -52.011719 409.738281 -50.523438 407.855469 -48.683594 406.304688 C -47.007812 404.902344 -45.175781 403.714844 -43.507812 402.269531 C -41.921875 400.882812 -40.289062 399.53125 -38.808594 398.015625 C -38.152344 397.3125 -37.449219 396.648438 -36.847656 395.859375 C -33.523438 394.609375 -31.101562 391.175781 -28.8125 388.714844 C -25.859375 385.589844 -22.898438 383.015625 -21.226562 378.929688 C -19.546875 374.890625 -19.261719 370.585938 -18.285156 366.347656 C -17.773438 364.25 -16.875 362.382812 -15.703125 360.535156 C -15.550781 360.246094 -15.351562 359.953125 -15.199219 359.664062 C -15.117188 359.664062 -15.046875 359.640625 -14.96875 359.628906 C -15.152344 360.105469 -15.40625 360.527344 -15.554688 361.03125 C -16.4375 364.054688 -16.125 367.273438 -16.933594 370.339844 C -17.015625 370.660156 -16.515625 370.734375 -16.425781 370.421875 C -15.601562 367.585938 -15.402344 364.597656 -14.53125 361.785156 C -13.578125 358.695312 -11.9375 356.226562 -10.105469 353.605469 C -8.511719 351.324219 -7.332031 348.6875 -6.175781 346.164062 C -5.070312 343.746094 -4.28125 341.199219 -3.132812 338.808594 C -3.074219 338.683594 -3.253906 338.570312 -3.34375 338.679688 C -4.074219 339.578125 -4.5 340.671875 -4.921875 341.742188 C -5.457031 343.085938 -6.152344 344.3125 -6.800781 345.601562 C -7.753906 347.488281 -8.777344 349.359375 -9.890625 351.164062 C -9.660156 350.667969 -9.402344 350.175781 -9.179688 349.675781 C -7.617188 346.289062 -6.535156 342.675781 -4.492188 339.554688 C -0.671875 333.796875 2.835938 328.113281 5.546875 321.742188 C 8.265625 315.460938 10.421875 309.007812 12.148438 302.371094 C 13.128906 298.734375 14.625 295.542969 16.191406 292.167969 C 15.230469 295.210938 14.371094 298.292969 14.019531 301.390625 C 13.992188 301.628906 14.347656 301.691406 14.386719 301.453125 C 14.914062 298.378906 16.167969 295.425781 17.214844 292.503906 C 18.117188 289.992188 18.835938 287.421875 19.726562 284.90625 C 20.574219 282.503906 21.351562 280.113281 22.042969 277.664062 C 22.847656 274.8125 24.167969 272.199219 25.234375 269.445312 C 26.039062 267.363281 26.367188 265.109375 27.253906 263.066406 C 28.15625 260.984375 29.773438 259.339844 30.628906 257.230469 C 31.511719 255.070312 31.8125 252.703125 32.796875 250.582031 C 33.964844 248.070312 35.734375 245.796875 37.109375 243.390625 C 37.257812 243.132812 36.847656 242.960938 36.699219 243.203125 C 35.359375 245.378906 33.722656 247.40625 32.472656 249.632812 C 32.902344 248.386719 33.300781 247.128906 33.816406 245.929688 C 34.628906 244.074219 35.730469 242.414062 36.542969 240.601562 C 37.953125 238.820312 39.171875 236.96875 39.894531 234.710938 C 42.273438 227.78125 41.800781 220.050781 44.835938 213.28125 C 45.976562 210.664062 47.207031 208.035156 47.6875 205.210938 C 47.785156 204.605469 47.777344 204.015625 47.78125 203.421875 C 47.859375 202.988281 47.941406 202.542969 48.03125 202.128906 C 48.324219 200.742188 48.703125 199.378906 48.707031 197.949219 C 48.707031 196.351562 48.273438 194.789062 48.417969 193.183594 C 48.550781 191.722656 49.191406 190.367188 49.261719 188.894531 C 49.273438 188.621094 48.894531 188.542969 48.832031 188.824219 C 48.535156 190.207031 47.914062 191.5 47.703125 192.902344 C 47.472656 194.449219 47.625 195.949219 47.632812 197.496094 C 47.636719 198.179688 47.53125 198.839844 47.402344 199.496094 C 47.167969 198.167969 46.894531 196.839844 46.738281 195.480469 C 46.261719 191.253906 48.199219 188.007812 50.734375 184.792969 C 51.78125 183.503906 52.828125 182.167969 53.878906 180.878906 C 53.957031 180.777344 53.996094 180.730469 54.035156 180.632812 C 50.074219 184.132812 46.75 188.476562 45.746094 193.765625 C 44.988281 197.480469 45.96875 201.292969 45.445312 205.03125 C 44.832031 209.277344 42.613281 213.328125 41.398438 217.453125 C 40.191406 221.625 38.914062 225.578125 38.492188 229.894531 C 38.289062 231.917969 38.140625 234.027344 37.289062 235.886719 C 36.472656 237.699219 35.089844 239.25 33.9375 240.871094 C 33.027344 242.191406 32.15625 243.464844 31.628906 244.972656 C 30.976562 247.039062 31.050781 249.082031 29.929688 251.015625 C 28.007812 254.441406 26.132812 257.40625 24.886719 261.21875 C 23.796875 264.789062 23.105469 268.226562 22.515625 271.789062 Z M 28.363281 256.996094 C 29.09375 255.222656 30.378906 254.046875 31.289062 252.433594 C 30.8125 253.910156 30.429688 255.425781 29.730469 256.820312 C 28.996094 258.28125 28.011719 259.578125 27.128906 260.941406 C 27.46875 259.609375 27.835938 258.285156 28.363281 256.996094 Z M -172.851562 528.40625 C -174.921875 528.617188 -177.261719 527.039062 -177.132812 524.296875 C -176.730469 517.566406 -170.6875 511.808594 -166.332031 507.316406 C -160.867188 501.660156 -157.289062 494.882812 -153 488.4375 C -147.800781 480.628906 -141.53125 474.847656 -134.167969 469.089844 C -133.074219 468.25 -131.933594 467.40625 -130.796875 466.515625 C -130.757812 463.371094 -129.941406 460.242188 -128.921875 457.316406 C -127.519531 453.261719 -126.78125 449.363281 -126.078125 445.152344 C -124.71875 436.691406 -124.273438 428.136719 -122.726562 419.746094 C -123 418.820312 -123.234375 417.886719 -123.40625 417.085938 C -124.167969 414.070312 -124.671875 410.9375 -124.804688 407.859375 C -125.078125 401.199219 -124.027344 394.585938 -124.574219 387.910156 C -124.882812 384.441406 -125.476562 381.316406 -126.714844 378.078125 C -127.789062 375.140625 -129.078125 372.316406 -129.75 369.289062 C -131.164062 363.019531 -130.746094 356.425781 -130.953125 349.988281 C -128.859375 356.6875 -130.472656 363.996094 -128.550781 370.804688 C -127.625 374.078125 -126.179688 377.523438 -124.730469 380.601562 C -123.242188 383.589844 -121.496094 386.003906 -121.238281 389.433594 C -121.027344 392.824219 -121.59375 396.160156 -122.210938 399.449219 C -122.910156 403.296875 -122.816406 406.882812 -121.570312 410.621094 C -120.960938 412.398438 -120.175781 414.226562 -119.910156 416.113281 C -119.46875 415.121094 -119.15625 414.109375 -118.878906 413.023438 C -118.808594 412.753906 -118.398438 412.8125 -118.441406 413.097656 C -118.621094 414.238281 -118.601562 415.414062 -118.949219 416.523438 C -119.351562 417.824219 -119.847656 419.050781 -120.125 420.398438 C -120.644531 422.898438 -120.667969 425.503906 -120.8125 428.046875 C -120.972656 430.804688 -121.3125 433.503906 -121.566406 436.253906 C -121.683594 437.558594 -121.792969 438.722656 -122.191406 439.972656 C -122.5625 441.140625 -122.660156 442.414062 -123.230469 443.503906 C -123.308594 443.648438 -123.53125 443.585938 -123.507812 443.417969 C -123.324219 442.15625 -123.464844 440.886719 -123.300781 439.632812 C -123.132812 438.339844 -122.898438 437.078125 -122.769531 435.769531 C -122.734375 435.382812 -122.695312 435 -122.65625 434.617188 C -123.234375 437.6875 -124.109375 440.613281 -125 443.679688 C -126.160156 447.621094 -126.289062 451.539062 -126.597656 455.578125 C -126.433594 455.066406 -126.246094 454.558594 -126.085938 454.042969 C -125.492188 452.089844 -125.214844 450.042969 -124.453125 448.144531 C -124.367188 447.925781 -123.996094 448.035156 -124.058594 448.265625 C -124.609375 450.273438 -124.667969 452.375 -125.121094 454.40625 C -125.542969 456.292969 -126.042969 458.136719 -126.65625 459.972656 C -127.34375 462.039062 -128.078125 464.082031 -128.625 466.195312 C -128.847656 467.058594 -129.039062 467.933594 -129.304688 468.785156 C -129.585938 469.683594 -129.996094 470.53125 -130.25 471.441406 C -130.351562 471.804688 -130.835938 471.796875 -130.90625 471.421875 C -131.003906 470.898438 -130.917969 470.394531 -130.800781 469.890625 C -131.15625 470.300781 -131.570312 470.699219 -132.054688 471.101562 C -133.058594 471.933594 -134.179688 472.546875 -135.144531 473.328125 C -136.53125 474.425781 -137.613281 475.855469 -138.949219 476.992188 C -141.78125 479.511719 -144.171875 482.347656 -146.503906 485.316406 C -148.953125 488.433594 -151.78125 491.453125 -153.796875 494.84375 C -154.753906 496.484375 -155.480469 498.230469 -156.265625 499.941406 C -155.179688 498.925781 -154.058594 497.933594 -153.195312 496.710938 C -152.195312 495.300781 -151.578125 493.65625 -150.558594 492.257812 C -148.382812 489.265625 -144.96875 487.035156 -142.082031 484.792969 C -141.847656 484.609375 -141.589844 484.976562 -141.8125 485.164062 C -144.648438 487.605469 -148.085938 490.390625 -149.746094 493.820312 C -150.402344 495.179688 -150.953125 496.582031 -151.824219 497.832031 C -152.722656 499.117188 -153.882812 500.175781 -155.042969 501.21875 C -156.441406 502.472656 -157.832031 503.636719 -158.757812 505.304688 C -159.621094 506.859375 -160.210938 508.550781 -161.097656 510.089844 C -161.746094 511.222656 -162.628906 512.171875 -163.535156 513.097656 C -164.730469 514.3125 -165.511719 515.515625 -166.265625 517.042969 C -166.375 517.269531 -166.679688 517.148438 -166.667969 516.917969 C -166.5 513.871094 -163.3125 511.714844 -162.054688 509.113281 C -161.808594 508.597656 -161.597656 508.066406 -161.382812 507.539062 C -162.53125 508.742188 -163.757812 509.875 -165 511 C -167.703125 513.460938 -169.515625 516.148438 -170.894531 519.5625 C -172.050781 522.457031 -172.246094 525.433594 -172.851562 528.40625 Z M -93.886719 351.703125 C -91.296875 343.703125 -88.027344 335.679688 -87.15625 327.3125 C -86.359375 319.136719 -87.75 310.863281 -88.21875 302.722656 C -88.652344 295.398438 -87.941406 288.136719 -85.847656 281.054688 C -84.15625 275.375 -81.753906 269.992188 -78.871094 264.875 C -78.960938 265.339844 -79.046875 265.800781 -79.183594 266.269531 C -80.582031 270.78125 -83.140625 274.636719 -84.691406 279.027344 C -86.640625 284.410156 -87.699219 289.613281 -87.5625 295.375 C -87.414062 300.820312 -86.957031 306.1875 -86.222656 311.570312 C -85.691406 315.210938 -85.460938 318.84375 -85.402344 322.492188 C -85.230469 320.5625 -85.042969 318.632812 -84.914062 316.695312 C -84.667969 313.003906 -85.363281 309.542969 -85.675781 305.902344 C -85.691406 305.703125 -85.402344 305.679688 -85.367188 305.871094 C -84.714844 309.484375 -83.847656 313.03125 -83.792969 316.730469 C -83.738281 320.257812 -84.15625 323.828125 -84.289062 327.351562 C -84.429688 331.117188 -85.523438 334.582031 -86.015625 338.277344 C -86.476562 341.738281 -87.257812 345.332031 -88.628906 348.546875 C -88.714844 348.75 -89.042969 348.648438 -88.996094 348.433594 C -88.269531 344.972656 -87.433594 341.625 -87.164062 338.082031 C -87.140625 337.765625 -87.0625 337.46875 -87.019531 337.15625 C -87.464844 338.902344 -87.945312 340.652344 -88.46875 342.460938 C -89.921875 347.382812 -91.800781 352.078125 -93.535156 356.898438 C -94.566406 359.6875 -95.605469 362.429688 -96.835938 365.058594 C -97.667969 367.144531 -98.265625 369.296875 -99 371.421875 C -99.765625 373.726562 -100.945312 375.941406 -101.902344 378.132812 C -102.207031 378.832031 -102.554688 379.539062 -102.902344 380.246094 C -101.746094 378.476562 -100.566406 376.726562 -99.449219 374.9375 C -98.546875 373.488281 -97.84375 372.070312 -97.269531 370.46875 C -96.789062 369.132812 -96.273438 367.867188 -95.445312 366.707031 C -95.285156 366.480469 -94.90625 366.71875 -95.039062 366.960938 C -95.863281 368.476562 -96.226562 370.140625 -96.738281 371.777344 C -97.191406 373.222656 -97.894531 374.480469 -98.644531 375.789062 C -100.316406 378.714844 -102.269531 381.476562 -103.886719 384.433594 C -105.519531 387.417969 -107.398438 390.222656 -109.050781 393.191406 C -109.828125 394.597656 -110.675781 395.960938 -111.417969 397.382812 C -112.0625 398.628906 -112.644531 400.0625 -113.667969 401.046875 C -113.820312 401.195312 -114.117188 401.058594 -114.011719 400.835938 C -112.5625 397.875 -111.207031 394.878906 -109.699219 391.941406 C -108.917969 390.425781 -107.964844 389.03125 -107.105469 387.5625 C -106.417969 386.378906 -105.820312 385.144531 -105.167969 383.941406 C -106.394531 385.414062 -108.054688 386.535156 -109.140625 388.199219 C -110.476562 390.246094 -111.550781 392.628906 -112.738281 394.796875 C -113.839844 396.910156 -115.292969 399.152344 -115.875 401.441406 C -116.320312 403.304688 -116.289062 405.394531 -117.441406 407.015625 C -117.675781 407.355469 -118.320312 407.285156 -118.457031 406.84375 C -119.171875 404.28125 -118.421875 401.429688 -117.417969 398.777344 C -117.476562 399.558594 -117.527344 400.382812 -117.585938 401.160156 C -116.871094 399.269531 -116.058594 397.410156 -115.199219 395.59375 C -111.734375 388.1875 -106.289062 381.902344 -102.585938 374.5625 C -98.925781 367.273438 -96.363281 359.460938 -93.886719 351.703125 Z M -86.109375 349.996094 C -86.246094 350.417969 -86.382812 350.886719 -86.519531 351.3125 C -85.9375 350.34375 -85.269531 349.320312 -84.597656 348.339844 C -81.640625 343.945312 -78.144531 339.902344 -75.53125 335.265625 C -73.074219 330.875 -71.175781 326.316406 -68.144531 322.183594 C -62.207031 314.070312 -54.332031 307.125 -45.890625 301.710938 C -42.015625 299.175781 -37.941406 296.804688 -34.328125 293.933594 C -31.976562 292.054688 -29.933594 289.800781 -28.082031 287.472656 C -29.574219 289.761719 -31.359375 291.855469 -33.492188 293.667969 C -38.582031 298.097656 -44.132812 301.988281 -49.175781 306.460938 C -51.71875 308.675781 -54.503906 310.78125 -56.898438 313.117188 C -57.289062 313.503906 -57.574219 313.972656 -57.929688 314.390625 C -56.957031 313.332031 -56 312.261719 -54.875 311.363281 C -53.101562 309.949219 -50.890625 309.082031 -48.941406 307.945312 C -47.042969 306.839844 -45.160156 305.769531 -43.140625 304.90625 C -42.882812 304.792969 -42.742188 305.1875 -42.984375 305.308594 C -45.175781 306.421875 -47.21875 307.800781 -49.3125 309.082031 C -51.265625 310.28125 -53.398438 311.15625 -54.984375 312.859375 C -56.25 314.21875 -57.492188 315.695312 -58.660156 317.140625 C -59.988281 318.78125 -61.730469 319.957031 -62.785156 321.808594 C -63.796875 323.578125 -65.074219 325.246094 -66.019531 327.03125 C -66.894531 328.6875 -67.558594 330.3125 -68.640625 331.851562 C -71.066406 335.292969 -73.6875 338.585938 -76.085938 342.042969 C -76.175781 342.171875 -76.367188 342.039062 -76.308594 341.90625 C -75.519531 340.027344 -74.203125 338.4375 -73.011719 336.804688 C -71.648438 334.933594 -70.457031 332.941406 -69.222656 330.988281 C -68.496094 329.835938 -68.027344 328.566406 -67.5 327.328125 C -67.757812 327.671875 -68.039062 327.992188 -68.289062 328.339844 C -70.203125 330.945312 -72.125 333.464844 -74.4375 335.746094 C -74.644531 335.949219 -74.898438 336.113281 -75.167969 336.140625 C -75.394531 336.617188 -75.617188 337.09375 -75.835938 337.617188 C -76.851562 340.132812 -78.085938 342.261719 -79.777344 344.390625 C -80.664062 345.480469 -81.28125 346.546875 -81.878906 347.835938 C -82.40625 348.890625 -82.960938 350.128906 -83.78125 350.984375 C -84.597656 351.886719 -85.59375 352.355469 -86.113281 353.5 C -86.296875 353.917969 -86.519531 354.402344 -86.832031 354.773438 C -86.863281 354.925781 -86.886719 355.078125 -86.933594 355.222656 C -87.089844 355.691406 -87.324219 356.117188 -87.59375 356.527344 C -87.871094 356.957031 -88.246094 357.285156 -88.566406 357.675781 C -89.195312 358.441406 -89.542969 359.382812 -89.945312 360.277344 C -90.335938 361.15625 -90.773438 362.015625 -91.402344 362.75 C -91.636719 363.023438 -92.042969 362.6875 -91.832031 362.398438 C -91.207031 361.539062 -90.863281 360.539062 -90.507812 359.546875 C -90.167969 358.589844 -89.777344 357.683594 -89.304688 356.78125 C -89.0625 356.320312 -88.804688 355.859375 -88.574219 355.386719 C -88.503906 355.242188 -88.445312 355.09375 -88.382812 354.945312 C -88.390625 354.917969 -88.425781 354.902344 -88.425781 354.875 C -88.515625 354.019531 -88.039062 352.878906 -87.714844 352.070312 C -87.390625 351.21875 -86.722656 350.652344 -86.109375 349.996094 Z M -6.15625 427.199219 C -0.839844 424.972656 4.230469 422.132812 9.421875 419.601562 C 8.535156 420.238281 7.746094 420.953125 6.804688 421.550781 C 4.582031 422.917969 2.480469 424.585938 0.199219 425.820312 C -4.839844 428.519531 -10.304688 430.171875 -15.828125 431.238281 C -18.953125 431.785156 -21.921875 432.953125 -25.042969 433.542969 C -28.160156 434.136719 -31.339844 434.597656 -34.5 434.785156 C -37.523438 435.003906 -40.578125 434.90625 -43.589844 435.214844 C -46.347656 435.539062 -48.886719 436.085938 -51.589844 435.96875 C -43.25 436.300781 -34.683594 438.164062 -26.648438 435.535156 C -26.410156 435.457031 -26.277344 435.796875 -26.507812 435.894531 C -30.335938 437.539062 -35.066406 438.269531 -39.21875 438.230469 C -44.074219 438.183594 -48.851562 437.113281 -53.710938 437.082031 C -58.566406 437.046875 -62.453125 438.917969 -67.019531 440.160156 C -71.042969 441.257812 -75.160156 442.027344 -79.136719 443.226562 C -79.371094 443.296875 -79.59375 442.96875 -79.355469 442.828125 C -77.789062 441.886719 -76.226562 441.546875 -74.480469 441.125 C -72.457031 440.640625 -70.535156 439.800781 -68.519531 439.285156 C -66.480469 438.765625 -64.488281 438.007812 -62.476562 437.34375 C -62.917969 437.398438 -63.363281 437.433594 -63.800781 437.507812 C -65.714844 437.886719 -67.34375 438.828125 -69.1875 439.46875 C -70.632812 439.980469 -72.1875 440.324219 -73.703125 440.613281 C -75.523438 441.027344 -77.335938 441.53125 -79.175781 441.765625 C -80.125 441.863281 -81.105469 442.039062 -82.042969 441.992188 C -82.402344 442.078125 -82.761719 442.15625 -83.117188 442.234375 C -84.953125 442.636719 -86.777344 443.21875 -88.167969 444.546875 C -88.402344 444.773438 -88.789062 444.488281 -88.570312 444.21875 C -87.335938 442.6875 -85.542969 441.800781 -83.667969 441.324219 C -83.628906 441.3125 -83.585938 441.3125 -83.546875 441.300781 C -83.527344 441.269531 -83.539062 441.226562 -83.503906 441.207031 C -82.820312 440.773438 -82.144531 440.703125 -81.402344 440.402344 L -81.359375 440.394531 C -75.398438 438.695312 -69.226562 437.289062 -63.222656 436.039062 C -58.199219 434.980469 -53.238281 433.699219 -48.117188 433.128906 C -43.3125 432.59375 -38.46875 432.414062 -33.640625 432.101562 C -24.390625 431.476562 -14.828125 430.816406 -6.15625 427.199219 Z M 60.722656 314.414062 C 69.082031 312.648438 77.710938 311.722656 86.183594 310.171875 C 81.589844 311.871094 76.644531 313.285156 71.933594 313.859375 C 68.699219 314.234375 65.398438 314.390625 62.152344 314.632812 C 58.820312 314.925781 56.328125 315.863281 53.507812 317.609375 C 53.320312 317.722656 53.125 317.820312 52.9375 317.933594 C 55.167969 317.535156 57.429688 317.289062 59.617188 316.667969 C 59.960938 316.570312 60.167969 317.066406 59.820312 317.195312 C 56.785156 318.324219 53.574219 318.667969 50.484375 319.597656 C 49.824219 319.796875 49.214844 320.066406 48.609375 320.347656 C 48.265625 320.527344 47.914062 320.703125 47.566406 320.882812 C 45.671875 321.9375 43.984375 323.304688 42.242188 324.714844 C 37.050781 328.921875 30.953125 332.480469 24.808594 335.089844 C 24.632812 335.164062 24.515625 334.917969 24.65625 334.804688 C 27.515625 332.546875 31.015625 330.972656 34.109375 329.046875 C 36.371094 327.640625 38.519531 326.109375 40.617188 324.488281 C 39.445312 325.121094 38.28125 325.765625 37.148438 326.46875 C 34.800781 327.9375 32.453125 329.40625 29.9375 330.574219 C 27.808594 331.519531 25.785156 333.046875 23.59375 333.859375 C 23.269531 334.210938 22.9375 334.519531 22.609375 334.871094 C 20.375 337.011719 17.796875 338.457031 14.964844 339.65625 C 11.914062 340.921875 8.757812 341.609375 5.632812 342.566406 C 4.355469 342.972656 3.136719 343.503906 1.972656 344.125 C 1.3125 344.492188 0.644531 344.953125 -0.0585938 345.273438 C -0.203125 345.421875 -0.332031 345.578125 -0.484375 345.722656 C -1.179688 346.371094 -1.847656 347.054688 -2.578125 347.660156 C -4.011719 348.859375 -5.171875 350.324219 -6.449219 351.679688 C -6.648438 351.890625 -6.988281 351.625 -6.804688 351.386719 C -5.652344 349.910156 -4.640625 348.324219 -3.332031 346.972656 C -2.65625 346.269531 -1.957031 345.585938 -1.265625 344.898438 C -1.234375 344.863281 -1.191406 344.839844 -1.160156 344.804688 C -1.097656 343.792969 -0.308594 342.898438 0.683594 342.164062 C 0.503906 342.636719 0.277344 343.070312 0.0507812 343.546875 C 2.707031 341.957031 5.417969 340.496094 8.1875 339.121094 C 10.378906 337.441406 13.429688 336.175781 15.65625 335.308594 C 16.007812 335.183594 16.316406 335.105469 16.667969 334.980469 C 20.265625 333.292969 23.902344 331.554688 27.390625 329.652344 C 32.851562 326.636719 37.933594 323.023438 43.460938 320.226562 C 48.90625 317.488281 54.761719 315.660156 60.722656 314.414062 Z M 25.9375 338.535156 C 29.125 335.070312 33.597656 335.25 38.222656 334.730469 C 43.789062 334.070312 48.632812 334.800781 54.144531 335.828125 C 59.839844 336.882812 64.890625 339.597656 70.378906 341.3125 C 74.84375 342.765625 79.574219 343.691406 84.003906 345.238281 C 81.425781 344.910156 78.839844 344.496094 76.277344 343.890625 C 68.082031 341.953125 60.390625 338.695312 51.96875 337.644531 C 44.328125 336.699219 36.5625 336.265625 28.914062 337 C 28.867188 337.003906 28.824219 337.011719 28.824219 337.011719 C 27.875 337.515625 26.886719 338.074219 25.9375 338.535156 Z M 76.691406 196.511719 C 78.054688 195.144531 79.605469 193.894531 81.21875 192.773438 C 79.597656 194.257812 78.121094 195.820312 76.710938 197.554688 C 74.925781 199.648438 73.027344 201.527344 71.972656 204.089844 C 71.03125 206.460938 70.121094 208.648438 68.554688 210.671875 C 65.097656 215.074219 59.90625 217.152344 55.515625 220.421875 C 53.0625 222.21875 51.167969 224.550781 49.121094 226.761719 C 47.488281 228.566406 45.40625 229.960938 44.074219 232.054688 C 43.890625 232.320312 43.625 232.375 43.359375 232.339844 C 43.273438 232.488281 43.191406 232.644531 43.105469 232.792969 C 42.507812 233.859375 41.878906 234.902344 41.21875 235.933594 C 41.039062 236.210938 40.601562 235.917969 40.734375 235.632812 C 41.25 234.523438 41.71875 233.394531 42.265625 232.300781 C 42.363281 232.109375 42.476562 231.925781 42.574219 231.738281 C 42.542969 231.667969 42.488281 231.609375 42.476562 231.535156 C 42.25 230.195312 42.597656 229.15625 43.277344 228.269531 C 43.203125 228.867188 43.132812 229.511719 43.0625 230.15625 C 47.445312 225.476562 52.457031 221.1875 57.523438 217.394531 C 60.554688 215.085938 63.851562 213.109375 66.679688 210.546875 C 69.546875 207.933594 71.078125 204.683594 72.917969 201.355469 C 73.800781 199.765625 74.886719 198.378906 76.070312 197.074219 C 76.277344 196.871094 76.480469 196.667969 76.691406 196.511719 Z M 76.691406 196.511719 " fill-opacity="1" fill-rule="nonzero"/></g></g></g></g><g clip-path="url(#a5013ec306)"><g clip-path="url(#8b8ff67b26)"><g clip-path="url(#2405729759)"><g clip-path="url(#473067066a)"><path fill="#5f926a" d="M 151.621094 153.230469 C 152.066406 153.140625 152.609375 153.128906 152.789062 153.519531 C 152.859375 153.785156 152.707031 154.074219 152.550781 154.320312 C 151.40625 156.027344 150.269531 157.78125 149.128906 159.492188 C 147.828125 161.445312 146.492188 163.492188 144.636719 164.90625 C 142.617188 166.480469 140.066406 167.285156 137.566406 167.722656 C 136.40625 167.933594 135.242188 168.097656 134.113281 168.167969 C 133.625 168.265625 133.128906 168.316406 132.632812 168.367188 C 131.285156 168.503906 129.789062 168.519531 128.53125 169.105469 C 128.222656 169.226562 127.855469 169.628906 127.511719 169.34375 C 127.0625 168.980469 127.511719 168.023438 127.648438 167.601562 C 128.488281 165.148438 129.375 162.695312 130.78125 160.457031 C 132.222656 158.128906 134.28125 156.050781 136.871094 155.148438 C 137.613281 154.847656 138.410156 154.671875 139.222656 154.589844 C 140.742188 154.34375 142.332031 154.363281 143.871094 154.296875 C 146.492188 154.164062 149.089844 153.808594 151.621094 153.230469 Z M 121.296875 188.996094 C 122.054688 189.28125 122.917969 189.285156 123.675781 189.613281 C 125.335938 190.265625 126.796875 191.25 128.222656 192.289062 C 130.425781 193.835938 132.597656 195.527344 135.128906 196.3125 C 136.628906 196.75 138.183594 196.863281 139.757812 196.703125 C 141.203125 196.601562 142.578125 196.277344 143.933594 195.777344 C 146.738281 194.761719 149.292969 193.089844 151.703125 191.34375 C 151.910156 191.140625 152.167969 190.976562 152.230469 190.695312 C 152.246094 190.421875 152.078125 190.121094 151.835938 189.964844 C 151.546875 189.8125 151.269531 189.75 150.988281 189.6875 C 146.957031 188.917969 143.628906 186.117188 139.667969 185.160156 C 136.6875 184.460938 133.546875 184.828125 130.53125 185.546875 C 130.484375 185.550781 130.484375 185.550781 130.484375 185.550781 C 129.730469 185.722656 128.933594 185.9375 128.183594 186.152344 C 125.929688 186.746094 123.769531 187.421875 121.570312 188.101562 C 120.820312 188.316406 120.589844 188.75 121.296875 188.996094 Z M 123.976562 205.414062 C 124.335938 205.832031 124.699219 206.25 125.0625 206.714844 C 125.535156 207.347656 126.199219 208.054688 126.902344 207.800781 C 127.296875 207.667969 127.527344 207.28125 127.578125 206.867188 C 127.675781 206.492188 127.589844 206.089844 127.546875 205.6875 C 127.117188 203.273438 126.691406 200.859375 125.863281 198.535156 C 125.082031 196.25 123.859375 194.054688 122.097656 192.371094 C 120.9375 191.261719 119.484375 190.363281 117.894531 189.933594 C 117.753906 189.902344 117.566406 189.832031 117.425781 189.800781 C 116.914062 189.667969 116.402344 189.539062 115.828125 189.28125 C 115.257812 189.019531 114.789062 188.886719 114.171875 189.085938 C 115.636719 190.074219 116.003906 191.902344 116.085938 193.574219 C 116.121094 195.253906 115.941406 197.046875 116.640625 198.566406 C 117.519531 200.480469 119.496094 201.597656 121.167969 202.835938 C 122.199219 203.59375 123.105469 204.457031 123.976562 205.414062 Z M 56.453125 180.890625 C 57.488281 180.328125 58.535156 179.902344 59.582031 179.476562 C 60.800781 178.988281 62.074219 178.539062 63.292969 178.007812 C 66.253906 176.75 69.253906 174.984375 70.730469 172.105469 C 71.984375 169.703125 71.960938 166.839844 71.957031 164.109375 C 71.914062 161.476562 71.871094 158.84375 71.871094 156.160156 C 71.835938 155.84375 71.84375 155.480469 71.597656 155.277344 C 71.546875 155.238281 71.449219 155.15625 71.359375 155.164062 C 70.988281 155.113281 70.597656 155.289062 70.300781 155.5 C 68.691406 156.621094 67.074219 157.695312 65.457031 158.769531 C 63.714844 159.949219 61.976562 161.171875 60.742188 162.847656 C 59.027344 165.207031 58.558594 168.164062 57.75 170.929688 C 57.457031 171.953125 57.078125 172.957031 56.699219 173.953125 C 56.6875 172.757812 56.597656 171.558594 56.378906 170.390625 C 55.703125 166.910156 54.277344 163.597656 52.8125 160.382812 C 52.402344 159.515625 51.707031 158.492188 50.777344 158.726562 C 50.25 158.871094 49.9375 159.402344 49.714844 159.878906 L 49.675781 159.929688 C 48.566406 161.953125 47.453125 163.980469 46.867188 166.222656 C 46.234375 168.46875 46.171875 170.980469 47.15625 173.0625 C 48.21875 175.453125 50.480469 177.132812 51.671875 179.46875 C 52.128906 180.375 52.558594 181.46875 53.546875 181.777344 C 53.78125 181.859375 54.027344 181.800781 54.273438 181.773438 C 54.980469 181.882812 55.953125 181.128906 56.453125 180.890625 Z M 129.179688 294.902344 C 128.796875 295.171875 128.464844 295.476562 128.230469 295.867188 C 127.996094 296.269531 128 296.886719 128.339844 297.222656 C 128.335938 297.222656 128.332031 297.222656 128.324219 297.21875 C 126.507812 296.769531 124.457031 296.707031 125.542969 299.324219 C 126.207031 300.941406 126.660156 302.257812 126.800781 304.0625 C 126.90625 305.554688 126.976562 307.136719 127.792969 308.464844 C 128.671875 309.921875 130.253906 310.761719 131.863281 311.371094 C 132.953125 311.804688 134.035156 312.195312 135.050781 312.773438 C 135.527344 312.996094 135.964844 313.269531 136.410156 313.632812 C 136.855469 313.996094 137.449219 314.480469 138.015625 314.242188 C 138.539062 314.007812 138.605469 313.316406 138.636719 312.769531 C 138.65625 311.175781 138.714844 309.53125 138.464844 307.964844 C 137.980469 305.011719 136.429688 302.257812 134.222656 300.257812 C 132.871094 299.03125 131.28125 298.144531 129.539062 297.550781 C 129.378906 297.507812 129.191406 297.457031 129.015625 297.40625 C 129.4375 297.378906 129.984375 297.097656 130.398438 297.054688 C 132.148438 296.828125 134.019531 297.367188 135.707031 297.875 C 137.304688 298.394531 138.863281 298.964844 140.523438 299.203125 C 141.121094 299.277344 141.71875 299.351562 142.351562 299.332031 C 144.9375 299.296875 147.40625 298.089844 149.375 296.476562 C 151.386719 294.816406 153.039062 292.78125 154.605469 290.757812 C 154.847656 290.457031 155.125 290.066406 155.042969 289.710938 C 154.882812 289.042969 153.929688 289.050781 153.265625 289.210938 C 151.617188 289.515625 149.933594 289.503906 148.273438 289.265625 C 145.78125 288.882812 143.355469 287.8125 140.871094 287.976562 L 140.738281 287.992188 C 137.675781 288.257812 135.0625 290.253906 132.667969 292.136719 C 131.488281 293.074219 130.308594 293.96875 129.179688 294.902344 Z M -127.808594 349.304688 C -127.4375 348.496094 -127.265625 347.523438 -127.023438 346.769531 C -126.363281 344.792969 -125.707031 342.769531 -125.375 340.6875 C -124.773438 336.804688 -125.496094 332.832031 -127.050781 329.214844 C -128.597656 325.640625 -130.96875 322.425781 -133.710938 319.613281 C -134.015625 319.28125 -134.375 318.910156 -134.796875 318.769531 C -135.179688 318.582031 -135.675781 318.585938 -136.058594 318.855469 C -136.105469 318.859375 -136.101562 318.902344 -136.144531 318.910156 C -136.554688 319.359375 -136.4375 320.03125 -136.417969 320.664062 C -136.214844 323.554688 -138.128906 326.160156 -138.652344 329.035156 C -139.296875 332.511719 -137.847656 336.003906 -136.125 339.101562 C -134.289062 342.371094 -132.300781 345.398438 -131.371094 349.125 C -131.019531 350.363281 -130.546875 351.859375 -129.007812 350.929688 C -128.410156 350.550781 -128.0625 349.96875 -127.808594 349.304688 Z M 107.179688 364.976562 C 106.785156 365.566406 105.863281 365.429688 105.199219 365.179688 C 104.355469 364.902344 103.464844 364.628906 102.65625 364.304688 C 102.613281 364.308594 102.613281 364.308594 102.609375 364.261719 C 101.707031 363.898438 100.84375 363.441406 100.015625 362.890625 C 98.410156 361.871094 97.078125 360.371094 96.484375 358.566406 C 95.277344 354.777344 97.753906 350.566406 96.71875 346.671875 C 96.636719 346.347656 96.625 346.027344 96.664062 345.738281 C 96.164062 345.832031 95.644531 345.925781 95.128906 345.785156 C 93.601562 345.488281 94.125 344.386719 95.101562 343.742188 C 97.90625 341.816406 98.808594 337.769531 101.675781 336.066406 C 101.796875 335.914062 101.882812 335.863281 102.015625 335.800781 C 103.484375 335.0625 105.207031 335.019531 106.835938 334.992188 C 108.015625 334.960938 109.199219 334.976562 110.378906 334.945312 C 110.742188 334.957031 111.105469 334.964844 111.398438 335.160156 C 111.800781 335.527344 111.644531 336.226562 111.421875 336.707031 C 110.261719 339.597656 108.148438 342.042969 105.445312 343.59375 C 103.828125 344.558594 102.148438 345.007812 100.390625 345.257812 C 100.621094 345.277344 100.851562 345.292969 101.074219 345.269531 C 102.34375 345.230469 103.605469 344.691406 104.742188 344.257812 C 105.660156 343.890625 106.574219 343.523438 107.496094 343.203125 C 107.539062 343.199219 107.628906 343.1875 107.671875 343.140625 C 108.152344 342.953125 108.636719 342.8125 109.121094 342.671875 L 109.167969 342.667969 C 109.253906 342.613281 109.34375 342.605469 109.476562 342.589844 C 110.273438 342.371094 111.128906 342.285156 111.996094 342.332031 C 113.546875 342.402344 115.015625 342.980469 116.398438 343.609375 C 119.261719 344.957031 121.890625 346.6875 124.285156 348.761719 C 124.730469 349.125 125.195312 349.671875 125.027344 350.234375 C 124.902344 350.792969 124.195312 351 123.660156 351.101562 C 120.726562 351.71875 117.835938 352.335938 114.945312 352.949219 C 114.71875 352.972656 114.542969 353.035156 114.320312 353.058594 C 112.679688 353.453125 111.023438 353.714844 109.394531 353.332031 C 105.238281 352.402344 102.820312 348.117188 99.234375 346.074219 C 99.5625 346.503906 99.882812 346.953125 100.285156 347.304688 C 102.320312 349.007812 103.777344 351.269531 104.804688 353.757812 C 106.125 356.898438 106.699219 360.296875 107.316406 363.644531 C 107.363281 364.09375 107.457031 364.585938 107.179688 364.976562 Z M 99.222656 345.402344 C 99.050781 345.417969 98.878906 345.429688 98.707031 345.441406 C 98.714844 345.449219 98.726562 345.457031 98.730469 345.464844 C 98.804688 345.53125 98.859375 345.625 98.925781 345.703125 C 99.019531 345.578125 99.109375 345.464844 99.222656 345.402344 Z M -12.199219 263.46875 C -12.15625 263.417969 -12.207031 263.378906 -12.207031 263.378906 L -12.238281 263.0625 C -12.242188 262.914062 -12.226562 262.761719 -12.222656 262.613281 C -12.003906 262.695312 -11.769531 262.695312 -11.570312 262.496094 C -11.375 262.203125 -11.550781 261.355469 -11.449219 261.027344 C -11.101562 259.535156 -10.03125 258.015625 -9.257812 256.664062 C -9.144531 256.46875 -9.070312 256.28125 -8.953125 256.085938 C -7.746094 253.6875 -6.503906 251.195312 -6.414062 248.503906 C -6.34375 245.175781 -8.117188 242.082031 -9.988281 239.316406 C -12.019531 236.339844 -14.367188 233.394531 -17.675781 232.140625 C -18.433594 231.8125 -19.363281 231.632812 -20.042969 232.066406 C -20.085938 232.117188 -20.128906 232.121094 -20.171875 232.167969 C -20.636719 232.492188 -20.898438 233.0625 -21.070312 233.582031 C -22.121094 236.644531 -21.539062 240.089844 -20.277344 243.097656 C -19.3125 245.371094 -17.992188 247.503906 -16.742188 249.660156 C -19.8125 246.316406 -24.035156 244.089844 -28.453125 243.117188 C -28.867188 243.066406 -29.289062 242.972656 -29.691406 243.015625 C -29.875 242.988281 -30.054688 243.007812 -30.28125 243.03125 C -30.859375 243.132812 -31.457031 243.515625 -31.628906 244.078125 C -31.800781 244.59375 -31.613281 245.121094 -31.464844 245.652344 C -30.867188 247.503906 -30.273438 249.308594 -29.722656 251.160156 C -29.207031 252.652344 -28.730469 254.199219 -27.703125 255.367188 C -26.566406 256.707031 -24.945312 257.449219 -23.347656 257.96875 C -21.703125 258.484375 -19.988281 258.808594 -18.421875 259.464844 C -16.816406 260.074219 -15.300781 261.101562 -14.464844 262.609375 C -14.25 262.949219 -14.121094 263.300781 -13.859375 263.640625 C -13.550781 264.015625 -12.96875 264.367188 -12.496094 264.089844 C -12.199219 263.878906 -12.175781 263.695312 -12.199219 263.46875 Z M -66.414062 248.945312 C -65.714844 248.679688 -64.753906 247.953125 -64.289062 247.691406 C -62.523438 246.738281 -60.625 246.179688 -58.71875 245.710938 C -58.234375 245.570312 -57.699219 245.472656 -57.214844 245.332031 C -54.863281 244.769531 -52.515625 244.167969 -50.464844 242.910156 C -47.523438 241.019531 -45.617188 237.910156 -44.5 234.613281 C -43.425781 231.320312 -43.101562 227.828125 -42.777344 224.339844 C -42.734375 223.878906 -42.699219 223.328125 -43.011719 222.953125 C -43.53125 222.324219 -44.546875 222.609375 -45.28125 222.957031 C -48.617188 224.570312 -51.953125 226.140625 -55.335938 227.714844 C -55.597656 227.832031 -55.8125 227.945312 -56.074219 228.0625 C -57.890625 228.933594 -59.65625 229.886719 -60.910156 231.425781 C -62.207031 232.921875 -62.828125 234.851562 -63.453125 236.734375 C -64.136719 238.800781 -64.808594 240.855469 -65.480469 242.90625 C -65.351562 240.988281 -65.492188 239.054688 -65.953125 237.171875 C -66.777344 233.570312 -68.394531 230.1875 -70.226562 226.917969 C -70.847656 225.753906 -71.5625 224.554688 -72.480469 223.554688 C -72.941406 223.058594 -73.539062 222.527344 -74.210938 222.640625 C -74.609375 222.726562 -74.945312 222.988281 -75.140625 223.328125 C -75.304688 223.480469 -75.371094 223.714844 -75.445312 223.90625 C -75.5625 224.507812 -75.5 225.140625 -75.484375 225.730469 C -75.402344 227.859375 -75.820312 229.992188 -76.101562 232.113281 C -76.382812 234.28125 -76.476562 236.472656 -75.769531 238.496094 C -74.394531 242.585938 -70.230469 245.113281 -68.511719 249.03125 C -67.90625 250.347656 -66.941406 250.121094 -66.414062 248.945312 Z M 36.371094 429.582031 C 36.792969 429.265625 36.449219 428.574219 36.089844 428.15625 C 33.53125 425.371094 30.972656 422.539062 27.851562 420.449219 C 26.621094 419.625 25.269531 418.972656 23.875 418.449219 C 24.132812 418.46875 24.394531 418.488281 24.652344 418.5 C 27.855469 418.71875 31.371094 418.449219 33.792969 416.382812 C 35.253906 415.09375 36.160156 413.320312 36.929688 411.511719 C 38.09375 408.664062 39.015625 405.703125 39.113281 402.644531 C 39.109375 402.148438 39.042969 401.515625 38.605469 401.242188 C 37.886719 400.863281 37.195312 401.660156 36.710938 402.253906 C 35.050781 404.246094 32.292969 404.800781 29.734375 405.105469 L 29.195312 405.164062 C 26.855469 405.402344 24.332031 405.613281 22.371094 406.859375 C 19.726562 408.542969 18.546875 411.664062 16.898438 414.199219 C 16.59375 414.667969 15.78125 415.472656 15.097656 416.265625 C 15.367188 414.921875 15.210938 413.390625 15.054688 412.160156 C 14.753906 409.6875 14.234375 407.285156 13.449219 404.910156 C 12.578125 402.175781 11.289062 399.351562 8.855469 397.78125 C 8.46875 397.546875 7.992188 397.324219 7.605469 397.546875 C 7.515625 397.554688 7.472656 397.558594 7.429688 397.609375 C 7.179688 397.816406 7.121094 398.140625 7.0625 398.464844 C 6.695312 400.640625 6.328125 402.816406 5.960938 404.992188 C 5.671875 406.613281 5.386719 408.28125 5.824219 409.871094 C 6.644531 413.019531 9.730469 414.75 11.578125 417.289062 C 12.378906 418.40625 13.097656 419.460938 14.210938 418.191406 C 14.25 418.296875 14.332031 418.351562 14.402344 418.421875 C 14.144531 418.5625 13.925781 418.742188 13.847656 419.015625 C 13.699219 419.347656 13.875 419.738281 14.007812 420.136719 C 15.339844 423.410156 16.972656 426.929688 20.136719 428.558594 C 21.71875 429.355469 23.554688 429.53125 25.375 429.570312 C 25.789062 429.621094 26.242188 429.617188 26.652344 429.621094 C 29.703125 429.675781 32.703125 429.6875 35.707031 429.742188 C 35.9375 429.765625 36.207031 429.738281 36.371094 429.582031 Z M 36.371094 429.582031 " fill-opacity="1" fill-rule="nonzero"/></g></g></g></g><g clip-path="url(#5df766d1ba)"><g clip-path="url(#d89a24325f)"><g clip-path="url(#4e28eb72b6)"><g clip-path="url(#efe668af8f)"><path fill="#587e60" d="M -13.425781 259.328125 C -13.40625 259.515625 -13.59375 259.632812 -13.761719 259.570312 C -14.335938 259.34375 -14.734375 258.6875 -15.042969 258.183594 C -15.378906 257.636719 -15.695312 257.074219 -16.007812 256.511719 C -16.671875 255.300781 -17.347656 254.054688 -18.304688 253.039062 C -19.332031 251.949219 -20.664062 251.183594 -21.921875 250.394531 C -23.203125 249.59375 -24.445312 248.542969 -25.882812 248.039062 C -26.152344 247.945312 -26.007812 247.515625 -25.738281 247.570312 C -24.273438 247.859375 -22.992188 248.910156 -21.707031 249.632812 C -20.367188 250.390625 -18.964844 251.179688 -17.851562 252.261719 C -16.828125 253.261719 -16.058594 254.464844 -15.335938 255.6875 C -14.964844 256.320312 -14.617188 256.96875 -14.242188 257.597656 C -13.933594 258.117188 -13.480469 258.710938 -13.425781 259.328125 Z M 128.554688 298.007812 C 128.5 297.804688 128.457031 297.59375 128.386719 297.394531 C 128.382812 297.351562 128.328125 297.265625 128.324219 297.21875 C 126.507812 296.769531 124.457031 296.707031 125.542969 299.324219 C 126.207031 300.941406 126.660156 302.257812 126.800781 304.0625 C 126.90625 305.554688 126.976562 307.136719 127.792969 308.464844 C 128.671875 309.921875 130.253906 310.761719 131.863281 311.371094 C 132.953125 311.804688 134.035156 312.195312 135.050781 312.773438 C 134.996094 312.6875 134.941406 312.601562 134.890625 312.5625 C 133.398438 310.847656 131.320312 309.605469 130.203125 307.582031 C 128.867188 305.171875 129.230469 302.210938 128.847656 299.433594 C 129.398438 299.652344 129.957031 299.875 130.402344 300.25 C 131.4375 301.125 132.121094 302.351562 132.972656 303.390625 C 134.691406 305.476562 135.867188 308.101562 136.339844 310.761719 C 136.394531 311.054688 136.835938 311.019531 136.808594 310.714844 C 136.539062 307.828125 135.519531 305 133.765625 302.6875 C 132.917969 301.570312 132.171875 300.316406 131.097656 299.394531 C 130.441406 298.828125 129.496094 298.304688 128.554688 298.007812 Z M -127.808594 349.304688 C -127.921875 349.089844 -128.03125 348.917969 -128.140625 348.75 C -128.386719 348.375 -128.613281 347.988281 -128.851562 347.605469 C -128.574219 345.523438 -129.34375 343.285156 -129.410156 341.21875 C -129.496094 338.589844 -129.160156 335.984375 -129.371094 333.351562 C -129.777344 328.3125 -131.550781 323.507812 -134.839844 319.640625 C -135.054688 319.386719 -135.453125 319.667969 -135.261719 319.949219 C -132.242188 324.386719 -130.484375 329.070312 -130.421875 334.472656 C -130.394531 336.949219 -130.71875 339.421875 -130.589844 341.902344 C -130.53125 343.085938 -130.28125 344.203125 -130.09375 345.371094 C -130.082031 345.425781 -130.082031 345.488281 -130.074219 345.542969 C -132.964844 340.433594 -135.042969 334.835938 -135.339844 329.015625 C -135.457031 325.617188 -135.09375 322.074219 -136.058594 318.855469 C -136.105469 318.859375 -136.101562 318.902344 -136.144531 318.910156 C -136.554688 319.359375 -136.4375 320.03125 -136.417969 320.664062 C -136.214844 323.554688 -138.128906 326.160156 -138.652344 329.035156 C -139.296875 332.511719 -137.847656 336.003906 -136.125 339.101562 C -134.289062 342.371094 -132.300781 345.398438 -131.371094 349.125 C -131.019531 350.363281 -130.546875 351.859375 -129.007812 350.929688 C -128.410156 350.550781 -128.0625 349.96875 -127.808594 349.304688 Z M 22.21875 427.574219 C 20.148438 425.554688 19.300781 422.59375 17.78125 420.160156 C 17.546875 419.773438 17.292969 419.40625 17.007812 419.0625 C 17.574219 419.292969 18.128906 419.554688 18.65625 419.832031 C 20.414062 420.757812 22.054688 421.925781 23.589844 423.183594 C 25.046875 424.382812 26.601562 425.410156 28.242188 426.339844 C 29.003906 426.773438 29.761719 427.25 30.617188 427.488281 C 31.554688 427.75 32.558594 427.664062 33.46875 428.046875 C 33.859375 428.214844 34.109375 427.648438 33.738281 427.453125 C 33.007812 427.0625 32.210938 426.96875 31.414062 426.785156 C 30.324219 426.535156 29.433594 425.902344 28.503906 425.308594 C 26.761719 424.191406 25.28125 422.890625 23.761719 421.496094 C 22.335938 420.191406 20.777344 419.070312 19.082031 418.140625 C 18.734375 417.953125 18.273438 417.726562 17.769531 417.515625 C 17.945312 417.351562 18.121094 417.179688 18.304688 417.027344 C 19.132812 416.335938 20.066406 415.804688 21.039062 415.332031 C 23.234375 414.273438 25.53125 413.648438 27.835938 412.890625 C 29.875 412.21875 31.855469 411.699219 33.410156 410.160156 C 34.949219 408.636719 36.199219 407.214844 37.246094 405.316406 C 37.414062 405.015625 36.96875 404.78125 36.757812 405.011719 C 35.261719 406.644531 33.945312 408.363281 32.089844 409.628906 C 31.0625 410.328125 29.753906 410.394531 28.5625 410.628906 C 27.449219 410.847656 26.339844 411.070312 25.238281 411.339844 C 24.523438 411.515625 23.847656 411.75 23.164062 411.96875 C 23.183594 411.929688 23.226562 411.90625 23.246094 411.867188 C 23.476562 411.433594 23.515625 410.929688 23.648438 410.460938 C 24.203125 408.355469 25.941406 406.679688 27.886719 405.707031 C 28.316406 405.480469 28.707031 405.304688 29.195312 405.164062 C 26.855469 405.402344 24.332031 405.613281 22.371094 406.859375 C 19.726562 408.542969 18.546875 411.664062 16.898438 414.199219 C 16.476562 414.851562 15.082031 416.136719 14.433594 417.15625 C 14.417969 417.160156 14.398438 417.15625 14.382812 417.164062 C 14.132812 414.164062 12.585938 411.800781 11.082031 409.222656 C 10.113281 407.558594 10.09375 405.949219 9.953125 404.082031 C 9.828125 402.4375 9.371094 400.832031 8.644531 399.355469 C 8.546875 399.15625 8.230469 399.269531 8.316406 399.484375 C 9.035156 401.296875 9.257812 403.136719 9.1875 405.074219 C 9.132812 406.691406 9.289062 408.0625 10.054688 409.511719 C 10.832031 410.96875 11.777344 412.320312 12.46875 413.828125 C 12.710938 414.355469 12.894531 414.894531 13.042969 415.441406 C 12.691406 414.980469 12.335938 414.515625 11.9375 414.113281 C 10.867188 412.996094 9.664062 411.890625 8.890625 410.558594 C 7.683594 408.5 7.46875 405.976562 7.539062 403.554688 C 7.5625 401.554688 7.765625 399.53125 7.605469 397.546875 C 7.515625 397.554688 7.472656 397.558594 7.429688 397.609375 C 7.179688 397.816406 7.121094 398.140625 7.0625 398.464844 C 6.695312 400.640625 6.328125 402.816406 5.960938 404.992188 C 5.671875 406.613281 5.386719 408.28125 5.824219 409.875 C 6.644531 413.019531 9.730469 414.75 11.578125 417.289062 C 12.363281 418.382812 13.070312 419.417969 14.144531 418.265625 C 14.246094 418.332031 14.367188 418.347656 14.476562 418.386719 C 14.1875 418.53125 13.929688 418.714844 13.847656 419.015625 C 13.699219 419.347656 13.875 419.738281 14.007812 420.136719 C 15.339844 423.410156 16.972656 426.929688 20.136719 428.558594 C 21.71875 429.355469 23.554688 429.53125 25.375 429.570312 C 24.191406 429.101562 23.125 428.4375 22.21875 427.574219 Z M 98.621094 359.03125 C 98.019531 356.726562 98.679688 354.292969 99.121094 351.929688 C 99.265625 351.253906 99.363281 350.554688 99.429688 349.851562 C 99.4375 349.863281 99.449219 349.871094 99.457031 349.882812 C 100.15625 350.878906 100.714844 351.96875 101.199219 353.082031 C 101.789062 354.421875 102.125 355.851562 102.683594 357.203125 C 103.234375 358.535156 103.890625 359.804688 104.007812 361.265625 C 104.03125 361.566406 104.472656 361.511719 104.464844 361.21875 C 104.421875 359.8125 103.90625 358.484375 103.449219 357.167969 C 102.917969 355.632812 102.539062 354.046875 101.941406 352.535156 C 101.476562 351.367188 100.921875 350.234375 100.210938 349.195312 C 99.980469 348.859375 99.722656 348.515625 99.445312 348.179688 C 99.390625 347.371094 99.210938 346.59375 98.878906 345.859375 C 102.671875 347.808594 105.097656 352.371094 109.394531 353.332031 C 111.023438 353.714844 112.679688 353.453125 114.320312 353.058594 C 114.136719 353.03125 113.992188 352.953125 113.847656 352.878906 C 112.753906 352.398438 111.699219 351.871094 110.765625 351.191406 C 109.640625 350.398438 108.675781 349.40625 107.882812 348.304688 C 107.417969 347.707031 107.070312 347.023438 106.984375 346.277344 C 107.292969 346.273438 107.605469 346.253906 107.90625 346.265625 C 109.351562 346.328125 110.8125 346.457031 112.238281 346.726562 C 113.6875 347 115.082031 347.515625 116.527344 347.835938 C 117.933594 348.144531 119.355469 348.355469 120.671875 348.964844 C 120.917969 349.078125 121.074219 348.714844 120.84375 348.585938 C 119.613281 347.898438 118.25 347.5625 116.90625 347.167969 C 115.398438 346.726562 113.9375 346.117188 112.398438 345.769531 C 110.894531 345.433594 109.3125 345.285156 107.777344 345.210938 C 107.554688 345.203125 107.324219 345.191406 107.097656 345.179688 C 107.253906 344.707031 107.496094 344.25 107.839844 343.894531 C 108.332031 343.390625 108.878906 342.96875 109.476562 342.589844 C 109.519531 342.539062 109.609375 342.53125 109.648438 342.480469 C 109.472656 342.546875 109.34375 342.605469 109.167969 342.667969 L 109.121094 342.671875 C 108.640625 342.859375 108.160156 343.042969 107.671875 343.140625 C 107.628906 343.1875 107.539062 343.199219 107.496094 343.203125 C 106.574219 343.523438 105.660156 343.890625 104.742188 344.257812 C 103.605469 344.691406 102.34375 345.230469 101.074219 345.269531 C 100.28125 345.351562 99.355469 344.941406 98.851562 345.78125 C 98.800781 345.679688 98.785156 345.566406 98.730469 345.464844 C 98.628906 345.335938 98.480469 345.214844 98.332031 345.09375 C 98.226562 345.03125 98.164062 345.050781 98.070312 345.007812 C 98.375 344.765625 98.640625 344.480469 98.890625 344.183594 C 99.539062 343.917969 100.15625 343.5625 100.753906 343.230469 C 101.863281 342.625 102.929688 341.96875 103.96875 341.25 C 106.035156 339.820312 107.84375 338.175781 109.476562 336.265625 C 109.636719 336.082031 109.367188 335.777344 109.175781 335.949219 C 107.367188 337.574219 105.335938 339.015625 103.269531 340.292969 C 102.230469 340.933594 101.164062 341.539062 100.085938 342.113281 C 100.085938 342.113281 100.082031 342.117188 100.082031 342.117188 C 100.160156 341.902344 100.261719 341.699219 100.324219 341.480469 C 100.679688 340.078125 100.710938 338.621094 101.117188 337.257812 C 101.25 336.789062 101.394531 336.410156 101.675781 336.066406 C 98.808594 337.769531 97.90625 341.816406 95.101562 343.742188 C 94.125 344.386719 93.601562 345.488281 95.128906 345.785156 C 95.644531 345.925781 96.164062 345.832031 96.664062 345.738281 C 96.625 346.027344 96.636719 346.347656 96.71875 346.671875 C 97.753906 350.566406 95.277344 354.777344 96.484375 358.566406 C 97.078125 360.371094 98.410156 361.871094 100.015625 362.890625 C 100.84375 363.441406 101.707031 363.898438 102.609375 364.261719 C 102.019531 363.824219 101.46875 363.332031 100.964844 362.839844 C 99.898438 361.765625 99.042969 360.488281 98.621094 359.03125 Z M 129.179688 294.902344 C 128.796875 295.171875 128.464844 295.476562 128.230469 295.867188 C 127.921875 296.398438 128.015625 297.296875 128.757812 297.449219 C 129.179688 297.585938 129.902344 297.105469 130.398438 297.054688 C 132.148438 296.828125 134.019531 297.367188 135.707031 297.875 C 137.304688 298.394531 138.863281 298.964844 140.523438 299.203125 C 139.167969 297.980469 137.859375 296.796875 136.515625 295.613281 C 138.25 295.59375 140.011719 295.558594 141.738281 295.371094 C 143.480469 295.1875 145.21875 294.765625 146.816406 294.03125 C 148.476562 293.273438 149.953125 292.183594 151.683594 291.578125 C 151.90625 291.5 151.824219 291.125 151.585938 291.171875 C 149.773438 291.527344 148.140625 292.367188 146.417969 293.007812 C 144.558594 293.703125 142.636719 294.082031 140.65625 294.179688 C 139.023438 294.257812 137.386719 294.289062 135.75 294.308594 C 135.769531 294.023438 135.878906 293.738281 136.027344 293.476562 C 137.171875 291.3125 138.476562 288.996094 140.738281 287.992188 C 137.675781 288.257812 135.0625 290.253906 132.667969 292.136719 C 131.488281 293.074219 130.308594 293.96875 129.179688 294.902344 Z M 121.71875 201.097656 C 120.777344 199.917969 119.378906 199.105469 118.652344 197.769531 C 117.703125 196.089844 117.957031 194.046875 117.839844 192.09375 C 118.316406 192.417969 118.828125 192.707031 119.269531 193.03125 C 120.523438 193.945312 121.441406 195.332031 122.054688 196.746094 C 122.691406 198.21875 123.121094 199.789062 123.679688 201.292969 C 123.96875 202.0625 124.234375 202.835938 124.609375 203.570312 C 124.988281 204.300781 125.402344 205.015625 125.710938 205.777344 C 125.796875 206 126.1875 205.925781 126.132812 205.675781 C 125.808594 204.117188 125.003906 202.644531 124.492188 201.136719 C 123.933594 199.480469 123.519531 197.753906 122.851562 196.140625 C 122.292969 194.789062 121.585938 193.457031 120.5 192.457031 C 119.703125 191.71875 118.660156 190.976562 117.621094 190.472656 C 117.5625 190.242188 117.511719 190.011719 117.425781 189.800781 C 116.914062 189.667969 116.402344 189.539062 115.828125 189.28125 C 115.257812 189.019531 114.789062 188.886719 114.171875 189.085938 C 115.636719 190.074219 116.003906 191.902344 116.085938 193.574219 C 116.121094 195.253906 115.941406 197.046875 116.640625 198.566406 C 117.519531 200.480469 119.496094 201.597656 121.167969 202.835938 C 122.199219 203.59375 123.105469 204.457031 123.976562 205.414062 C 123.28125 203.9375 122.753906 202.355469 121.71875 201.097656 Z M 121.296875 188.996094 C 122.054688 189.28125 122.917969 189.285156 123.675781 189.613281 C 125.335938 190.265625 126.796875 191.25 128.222656 192.289062 C 130.425781 193.835938 132.597656 195.527344 135.128906 196.3125 C 136.628906 196.75 138.183594 196.863281 139.757812 196.703125 C 137 195.941406 134.40625 194.566406 132.214844 192.699219 C 130.585938 191.335938 129.148438 189.699219 127.421875 188.5 C 128.703125 188.449219 129.988281 188.371094 131.257812 188.546875 C 133.175781 188.816406 134.984375 189.550781 136.84375 190.0625 C 138.644531 190.558594 140.460938 191.238281 142.316406 191.503906 C 144.339844 191.792969 146.394531 191.589844 148.398438 191.257812 C 148.65625 191.214844 148.617188 190.847656 148.355469 190.855469 C 146.140625 190.925781 143.871094 190.96875 141.703125 190.445312 C 139.792969 189.988281 137.863281 189.308594 136.003906 188.679688 C 133.253906 187.75 130.382812 186.992188 127.5 187.195312 C 128.535156 186.71875 129.546875 186.203125 130.484375 185.550781 C 129.730469 185.722656 128.933594 185.9375 128.183594 186.152344 C 125.929688 186.746094 123.769531 187.421875 121.570312 188.101562 C 120.820312 188.316406 120.589844 188.75 121.296875 188.996094 Z M 130.78125 160.457031 C 129.375 162.695312 128.488281 165.148438 127.648438 167.601562 C 127.511719 168.023438 127.0625 168.980469 127.511719 169.34375 C 127.855469 169.628906 128.222656 169.226562 128.53125 169.105469 C 129.789062 168.519531 131.285156 168.503906 132.632812 168.367188 C 133.128906 168.316406 133.625 168.265625 134.113281 168.167969 C 133.851562 167.832031 133.457031 167.507812 133.1875 167.125 C 132.648438 166.492188 132.375 165.679688 132.28125 164.835938 C 133.042969 164.132812 133.746094 163.359375 134.550781 162.710938 C 135.996094 161.546875 137.914062 160.898438 139.625 160.226562 C 141.402344 159.527344 143.292969 159.027344 144.980469 158.117188 C 146.472656 157.316406 147.628906 155.878906 149.347656 155.546875 C 149.625 155.492188 149.59375 155.070312 149.300781 155.097656 C 147.710938 155.246094 146.511719 156.125 145.171875 156.902344 C 143.351562 157.964844 141.171875 158.414062 139.199219 159.128906 C 137.507812 159.742188 135.671875 160.339844 134.167969 161.351562 C 133.570312 161.753906 133.003906 162.289062 132.441406 162.816406 C 132.78125 161.503906 133.496094 160.304688 134.285156 159.1875 C 135.203125 157.957031 136.261719 156.757812 137.480469 155.769531 C 138.027344 155.351562 138.621094 154.925781 139.222656 154.589844 C 138.410156 154.671875 137.613281 154.847656 136.871094 155.148438 C 134.28125 156.050781 132.222656 158.128906 130.78125 160.457031 Z M 56.453125 180.890625 C 57.488281 180.328125 58.535156 179.902344 59.582031 179.476562 C 59.464844 178.808594 59.257812 178.101562 59.234375 177.421875 C 59.230469 177.136719 59.292969 176.867188 59.347656 176.59375 C 60.761719 175.972656 62.074219 174.816406 63.117188 173.835938 C 64.523438 172.515625 65.789062 171.019531 66.820312 169.394531 C 69.03125 165.910156 69.773438 162.078125 70.421875 158.074219 C 70.476562 157.734375 69.996094 157.671875 69.910156 157.988281 C 68.867188 161.675781 67.816406 165.414062 65.628906 168.605469 C 64.621094 170.070312 63.460938 171.402344 62.183594 172.636719 C 61.546875 173.246094 60.875 173.8125 60.207031 174.386719 C 60.460938 173.914062 60.722656 173.441406 60.957031 172.96875 C 62 170.722656 62.289062 168.191406 63.09375 165.882812 C 64.605469 161.542969 67.992188 158.238281 71.359375 155.164062 C 70.988281 155.113281 70.597656 155.289062 70.300781 155.5 C 68.691406 156.621094 67.074219 157.695312 65.457031 158.769531 C 63.714844 159.949219 61.976562 161.171875 60.742188 162.847656 C 59.027344 165.207031 58.558594 168.164062 57.75 170.929688 C 57.117188 173.128906 56.238281 175.257812 55.191406 177.300781 C 54.671875 174.519531 52.769531 172.261719 51.777344 169.613281 C 51.265625 168.253906 51.332031 166.875 51.257812 165.449219 C 51.183594 164.070312 50.988281 162.59375 51.527344 161.28125 C 51.648438 160.980469 51.230469 160.800781 51.078125 161.074219 C 50.429688 162.230469 50.324219 163.621094 50.292969 164.917969 C 50.253906 166.414062 50.027344 168.019531 50.355469 169.492188 C 50.710938 171.082031 51.5625 172.757812 52.410156 174.144531 C 52.894531 174.9375 53.484375 175.632812 53.882812 176.488281 C 54.152344 177.0625 54.4375 177.597656 54.800781 178.097656 C 54.707031 178.269531 54.640625 178.457031 54.539062 178.628906 C 54.535156 178.636719 54.527344 178.652344 54.523438 178.660156 C 52.644531 176.503906 50.734375 174.367188 49.703125 171.753906 C 48.785156 169.4375 48.660156 166.902344 48.867188 164.472656 C 49.027344 162.90625 49.328125 161.421875 49.675781 159.929688 C 48.566406 161.953125 47.453125 163.980469 46.867188 166.222656 C 46.234375 168.46875 46.171875 170.980469 47.15625 173.0625 C 48.21875 175.453125 50.480469 177.132812 51.671875 179.46875 C 52.128906 180.375 52.558594 181.46875 53.546875 181.777344 C 53.78125 181.859375 54.027344 181.800781 54.273438 181.773438 C 54.980469 181.882812 55.953125 181.128906 56.453125 180.890625 Z M -12.199219 263.46875 C -12.15625 263.417969 -12.207031 263.378906 -12.207031 263.378906 C -12.984375 261.546875 -14.152344 259.894531 -15.648438 258.589844 C -19.09375 255.578125 -24.070312 254.449219 -26.890625 250.871094 C -28.617188 248.636719 -29.3125 245.839844 -29.691406 243.015625 C -29.875 242.988281 -30.054688 243.007812 -30.28125 243.03125 C -30.859375 243.132812 -31.457031 243.515625 -31.628906 244.078125 C -31.800781 244.59375 -31.613281 245.121094 -31.464844 245.652344 C -30.867188 247.503906 -30.273438 249.308594 -29.722656 251.160156 C -29.207031 252.652344 -28.730469 254.199219 -27.703125 255.367188 C -26.566406 256.707031 -24.945312 257.449219 -23.347656 257.96875 C -21.703125 258.484375 -19.988281 258.808594 -18.421875 259.464844 C -16.816406 260.074219 -15.300781 261.101562 -14.464844 262.609375 C -14.25 262.949219 -14.121094 263.300781 -13.859375 263.640625 C -13.550781 264.015625 -12.96875 264.367188 -12.496094 264.089844 C -12.199219 263.878906 -12.175781 263.695312 -12.199219 263.46875 Z M -20.171875 232.167969 C -20.636719 232.492188 -20.898438 233.0625 -21.070312 233.582031 C -22.121094 236.644531 -21.539062 240.089844 -20.277344 243.097656 C -19.019531 246.0625 -17.152344 248.78125 -15.636719 251.628906 C -14.070312 254.472656 -12.839844 257.621094 -12.917969 260.859375 C -12.925781 261.222656 -12.976562 261.636719 -12.847656 261.988281 C -12.664062 262.46875 -12.023438 262.949219 -11.570312 262.496094 C -11.375 262.203125 -11.550781 261.355469 -11.449219 261.027344 C -11.101562 259.535156 -10.03125 258.015625 -9.257812 256.664062 C -9.488281 256.640625 -9.679688 256.570312 -9.871094 256.453125 C -10.613281 256.058594 -11.171875 255.414062 -11.59375 254.6875 C -11.449219 253.691406 -11.5 252.632812 -11.554688 251.691406 C -11.679688 249.484375 -11.972656 247.351562 -12.574219 245.222656 C -13.5625 241.722656 -15.109375 237.464844 -18.265625 235.332031 C -18.457031 235.203125 -18.785156 235.371094 -18.664062 235.625 C -18.550781 235.84375 -18.453125 236.070312 -18.367188 236.300781 C -18.328125 236.394531 -18.179688 236.363281 -18.191406 236.261719 C -17.1875 237.507812 -16.308594 238.761719 -15.621094 240.257812 C -14.882812 241.871094 -14.34375 243.582031 -13.871094 245.292969 C -13.660156 246.058594 -13.511719 246.828125 -13.378906 247.597656 C -14.285156 244.792969 -16.0625 242.285156 -17.578125 239.730469 C -18.992188 237.460938 -20.171875 234.808594 -20.171875 232.167969 Z M -66.414062 248.945312 C -65.714844 248.679688 -64.753906 247.953125 -64.289062 247.691406 C -62.523438 246.738281 -60.625 246.179688 -58.71875 245.710938 C -58.234375 245.570312 -57.699219 245.472656 -57.214844 245.332031 C -57.953125 244.769531 -58.984375 244.464844 -59.757812 244 C -60.675781 243.445312 -61.292969 242.546875 -61.679688 241.542969 C -61.671875 241.539062 -61.667969 241.535156 -61.664062 241.53125 C -59.613281 239.925781 -57.25 238.804688 -55.050781 237.429688 C -50.859375 234.808594 -48.199219 230.855469 -46.300781 226.367188 C -46.207031 226.140625 -46.53125 225.996094 -46.648438 226.210938 C -47.855469 228.480469 -49.328125 230.6875 -51.066406 232.589844 C -52.917969 234.613281 -55.121094 235.996094 -57.539062 237.246094 C -59.085938 238.042969 -60.648438 238.847656 -62.078125 239.84375 C -62.09375 239.6875 -62.136719 239.53125 -62.140625 239.375 C -62.140625 237.601562 -61.457031 235.847656 -60.664062 234.265625 C -59.445312 231.957031 -57.886719 229.886719 -56.074219 228.0625 C -57.890625 228.933594 -59.65625 229.886719 -60.910156 231.425781 C -62.207031 232.921875 -62.828125 234.851562 -63.453125 236.734375 C -64.195312 238.972656 -64.921875 241.199219 -65.652344 243.421875 C -65.832031 243.671875 -66.015625 243.914062 -66.195312 244.167969 C -66.382812 244.441406 -66.589844 244.734375 -66.78125 245.035156 C -66.480469 243.355469 -66.820312 241.554688 -67.066406 239.890625 C -67.304688 238.257812 -67.597656 236.539062 -68.214844 235.003906 C -68.820312 233.496094 -69.710938 232.121094 -70.464844 230.683594 C -71.175781 229.320312 -71.808594 227.921875 -72.871094 226.785156 C -73.070312 226.570312 -73.445312 226.824219 -73.25 227.0625 C -72.242188 228.292969 -71.691406 229.789062 -71 231.207031 C -70.335938 232.574219 -69.554688 233.890625 -69.089844 235.347656 C -68.578125 236.957031 -68.492188 238.703125 -68.339844 240.378906 C -68.273438 241.148438 -68.242188 241.949219 -68.164062 242.742188 C -69.742188 239.84375 -71.492188 237.015625 -72.515625 233.886719 C -73.582031 230.539062 -73.769531 226.964844 -75.011719 223.679688 C -75.066406 223.59375 -75.082031 223.457031 -75.140625 223.328125 C -75.304688 223.480469 -75.371094 223.714844 -75.445312 223.90625 C -75.5625 224.507812 -75.5 225.136719 -75.484375 225.730469 C -75.402344 227.859375 -75.820312 229.992188 -76.101562 232.113281 C -76.382812 234.28125 -76.476562 236.472656 -75.769531 238.496094 C -74.394531 242.585938 -70.230469 245.113281 -68.511719 249.03125 C -67.90625 250.347656 -66.941406 250.121094 -66.414062 248.945312 Z M -66.414062 248.945312 " fill-opacity="1" fill-rule="nonzero"/></g></g></g></g></svg>