<svg xmlns="http://www.w3.org/2000/svg" xmlns:xlink="http://www.w3.org/1999/xlink" width="500" zoomAndPan="magnify" viewBox="0 0 375 374.999991" height="500" preserveAspectRatio="xMidYMid meet" version="1.0"><defs><clipPath id="59f2988600"><path d="M 0 0 L 42 0 L 42 244 L 0 244 Z M 0 0 " clip-rule="nonzero"/></clipPath><clipPath id="36cd9fb1b0"><path d="M 61.5625 -112.800781 L 96.828125 231.898438 L -268.019531 269.222656 L -303.28125 -75.476562 Z M 61.5625 -112.800781 " clip-rule="nonzero"/></clipPath><clipPath id="b7b6168003"><path d="M 72.324219 -7.601562 L 96.828125 231.898438 L -13.597656 243.195312 L -38.097656 3.695312 Z M 72.324219 -7.601562 " clip-rule="nonzero"/></clipPath><clipPath id="e58f7b95ba"><path d="M 61.574219 -112.703125 L 96.835938 232 L -268.007812 269.324219 L -303.273438 -75.378906 Z M 61.574219 -112.703125 " clip-rule="nonzero"/></clipPath><clipPath id="662d2c293e"><path d="M 0 0 L 65 0 L 65 171 L 0 171 Z M 0 0 " clip-rule="nonzero"/></clipPath><clipPath id="58e8c903eb"><path d="M 61.5625 -112.800781 L 96.828125 231.898438 L -268.019531 269.222656 L -303.28125 -75.476562 Z M 61.5625 -112.800781 " clip-rule="nonzero"/></clipPath><clipPath id="e843e1759a"><path d="M 72.324219 -7.601562 L 96.828125 231.898438 L -13.597656 243.195312 L -38.097656 3.695312 Z M 72.324219 -7.601562 " clip-rule="nonzero"/></clipPath><clipPath id="ffed5e4845"><path d="M 61.574219 -112.703125 L 96.835938 232 L -268.007812 269.324219 L -303.273438 -75.378906 Z M 61.574219 -112.703125 " clip-rule="nonzero"/></clipPath><clipPath id="904538b594"><path d="M 0 0 L 62 0 L 62 171 L 0 171 Z M 0 0 " clip-rule="nonzero"/></clipPath><clipPath id="8ba92cef64"><path d="M 61.5625 -112.800781 L 96.828125 231.898438 L -268.019531 269.222656 L -303.28125 -75.476562 Z M 61.5625 -112.800781 " clip-rule="nonzero"/></clipPath><clipPath id="162d90c08f"><path d="M 72.324219 -7.601562 L 96.828125 231.898438 L -13.597656 243.195312 L -38.097656 3.695312 Z M 72.324219 -7.601562 " clip-rule="nonzero"/></clipPath><clipPath id="07550c73e5"><path d="M 61.574219 -112.703125 L 96.835938 232 L -268.007812 269.324219 L -303.273438 -75.378906 Z M 61.574219 -112.703125 " clip-rule="nonzero"/></clipPath></defs><g clip-path="url(#59f2988600)"><g clip-path="url(#36cd9fb1b0)"><g clip-path="url(#b7b6168003)"><g clip-path="url(#e58f7b95ba)"><path fill="#a47052" d="M -260.65625 266.171875 C -260.261719 263.8125 -258.375 261.84375 -256.863281 260.1875 C -254.574219 257.679688 -252.039062 255.375 -249.699219 252.953125 C -244.847656 247.953125 -241.597656 241.980469 -237.824219 236.226562 C -233.65625 229.886719 -229.085938 224.367188 -223.066406 219.703125 C -215.789062 214.046875 -208.460938 208.382812 -201.125 202.8125 C -197.503906 200.03125 -193.871094 197.339844 -190.246094 194.601562 C -187.738281 193.347656 -185.222656 192.179688 -182.652344 191.097656 C -173.621094 187.445312 -163.863281 185.125 -154.378906 183.246094 C -135.71875 179.5625 -115.945312 181.453125 -98.199219 173.722656 C -88.933594 169.683594 -81.230469 162.84375 -72.078125 158.585938 C -70.859375 158.054688 -71.554688 156.167969 -72.871094 156.621094 C -75.757812 157.691406 -78.496094 158.925781 -81.222656 160.25 L -81.265625 160.253906 C -86.460938 162.789062 -91.53125 165.625 -96.84375 167.851562 C -105.515625 171.46875 -115.082031 172.128906 -124.332031 172.757812 C -129.160156 173.070312 -134.003906 173.246094 -138.808594 173.785156 C -143.929688 174.351562 -148.886719 175.632812 -153.914062 176.695312 C -159.917969 177.945312 -166.089844 179.351562 -172.050781 181.050781 L -172.09375 181.054688 C -172.183594 181.066406 -172.3125 181.125 -172.402344 181.132812 C -168.019531 177.820312 -163.671875 174.554688 -159.339844 171.152344 C -146.46875 161.101562 -134.792969 149.992188 -123.703125 138.03125 C -121.042969 135.167969 -118.570312 132.230469 -116.105469 129.246094 C -113.6875 126.226562 -111.066406 123.457031 -108.6875 120.484375 C -103.738281 114.246094 -101.453125 106.371094 -97.855469 99.359375 C -97.246094 98.207031 -96.730469 97.015625 -96.167969 95.867188 C -93.726562 93.980469 -91.183594 92.171875 -88.527344 90.628906 C -84.5 88.257812 -80.125 86.582031 -75.871094 84.648438 C -72.140625 82.945312 -68.460938 81.160156 -64.800781 79.191406 L -64.753906 79.1875 C -63.800781 78.726562 -62.8125 78.171875 -61.867188 77.664062 C -61.867188 77.664062 -61.820312 77.660156 -61.777344 77.65625 C -54.128906 76.917969 -46.359375 77.351562 -38.722656 78.300781 C -30.300781 79.347656 -22.605469 82.609375 -14.414062 84.546875 C -11.851562 85.148438 -9.265625 85.566406 -6.6875 85.894531 C -0.289062 86.695312 6.183594 86.898438 12.507812 87.886719 C 13.664062 88.085938 13.941406 86.375 12.828125 86.125 C 3.449219 84.175781 -6.296875 83.945312 -15.464844 80.925781 C -23.742188 78.175781 -31.351562 74.40625 -40.03125 73.066406 C -44.085938 72.480469 -48.210938 72.128906 -52.34375 72.140625 C -44.917969 67.46875 -37.613281 62.492188 -29.433594 59.382812 C -17.96875 55.113281 -5.28125 54.773438 6.480469 51.613281 C 18.730469 48.359375 28.84375 40.183594 41.039062 36.796875 C 41.742188 36.585938 41.480469 35.339844 40.722656 35.507812 C 29.433594 37.9375 19.695312 44.4375 8.769531 47.785156 C 4.449219 49.089844 0.00390625 50.046875 -4.503906 50.828125 C -12.976562 52.375 -21.605469 53.304688 -29.96875 55.070312 C -35.925781 56.316406 -41.785156 58.140625 -47.226562 60.882812 C -52.757812 63.675781 -57.839844 67.289062 -63.300781 70.304688 C -66.785156 72.210938 -70.425781 73.945312 -74.023438 75.632812 C -74.375 75.761719 -74.683594 75.835938 -75.035156 75.964844 C -77.261719 76.828125 -80.3125 78.097656 -82.503906 79.777344 C -85.269531 81.152344 -87.984375 82.609375 -90.636719 84.203125 C -90.414062 83.722656 -90.1875 83.292969 -90.007812 82.816406 L -90.011719 82.773438 C -88.894531 80.382812 -87.820312 78 -86.746094 75.617188 C -83.519531 68.507812 -80.050781 61.558594 -77.066406 54.335938 C -70.6875 38.945312 -68.257812 22.277344 -61.789062 6.921875 C -60.253906 3.261719 -58.195312 -0.132812 -56.515625 -3.714844 C -54.921875 -7.246094 -53.703125 -10.871094 -52.109375 -14.355469 C -48.839844 -21.511719 -43.625 -26.914062 -37.84375 -32.144531 C -31.9375 -37.480469 -24.804688 -41.894531 -19.8125 -48.183594 C -17.558594 -51.007812 -16.253906 -54.234375 -14.769531 -57.523438 C -13.882812 -59.480469 -12.542969 -61.070312 -11.050781 -62.453125 C -9.222656 -63.6875 -7.347656 -64.878906 -5.210938 -65.78125 C -1.125 -67.5625 3.339844 -68.335938 7.765625 -69.0625 C 12.503906 -69.820312 16.792969 -69.621094 21.558594 -69.246094 C 26 -68.882812 30.398438 -69.421875 34.785156 -70.054688 C 35.59375 -70.136719 35.476562 -71.304688 34.660156 -71.269531 C 29.472656 -70.921875 24.351562 -70.804688 19.21875 -71.691406 C 14.636719 -72.496094 9.886719 -72.738281 5.328125 -72 C 4.523438 -71.871094 3.726562 -71.652344 2.972656 -71.484375 C 15.558594 -78.140625 29.191406 -82.992188 40.496094 -91.972656 C 41.042969 -92.390625 40.402344 -93.328125 39.8125 -92.855469 C 28.550781 -84.382812 15.171875 -79.691406 2.675781 -73.5 C 1.03125 -72.695312 -0.609375 -71.84375 -2.199219 -70.957031 C -4.644531 -69.566406 -7.140625 -68.222656 -9.386719 -66.625 C -9.433594 -66.621094 -9.425781 -66.578125 -9.472656 -66.570312 C -11.085938 -65.453125 -12.636719 -64.203125 -13.996094 -62.832031 C -14.207031 -62.675781 -14.414062 -62.472656 -14.621094 -62.269531 C -15.804688 -60.964844 -16.890625 -59.582031 -17.773438 -57.988281 C -19.613281 -54.664062 -21.144531 -51.414062 -24.011719 -48.800781 C -26.835938 -46.234375 -30.132812 -44.261719 -33.167969 -41.949219 C -38.230469 -38.15625 -43.246094 -33.867188 -47.628906 -29.1875 C -47.558594 -29.832031 -47.488281 -30.476562 -47.414062 -31.074219 C -47.289062 -32.089844 -47.070312 -33.066406 -46.757812 -34.007812 C -45.429688 -38.328125 -44.203125 -42.777344 -42.539062 -46.949219 C -41.199219 -50.269531 -40.332031 -53.363281 -40.335938 -56.953125 C -40.292969 -60.960938 -41.261719 -65.09375 -40.167969 -69.074219 C -39.019531 -73.375 -36.054688 -76.816406 -32.757812 -79.699219 C -31.96875 -80.417969 -32.875 -81.738281 -33.761719 -81.054688 C -34.730469 -80.320312 -35.695312 -79.539062 -36.617188 -78.761719 C -36.609375 -78.714844 -36.65625 -78.710938 -36.65625 -78.710938 C -40.613281 -75.214844 -43.941406 -70.871094 -44.945312 -65.582031 C -45.699219 -61.863281 -44.71875 -58.054688 -45.246094 -54.316406 C -45.855469 -50.066406 -48.078125 -46.019531 -49.289062 -41.890625 C -50.5 -37.71875 -51.777344 -33.769531 -52.199219 -29.449219 C -52.398438 -27.425781 -52.546875 -25.320312 -53.402344 -23.457031 C -54.214844 -21.648438 -55.601562 -20.09375 -56.753906 -18.476562 C -57.664062 -17.152344 -58.53125 -15.882812 -59.058594 -14.371094 C -59.710938 -12.304688 -59.640625 -10.265625 -60.757812 -8.332031 C -62.679688 -4.90625 -64.558594 -1.9375 -65.804688 1.875 C -66.890625 5.441406 -67.585938 8.878906 -68.175781 12.441406 C -68.667969 13.402344 -69.121094 14.3125 -69.523438 15.265625 C -72.914062 22.980469 -75.183594 30.992188 -78.011719 38.875 C -80.726562 46.523438 -84.449219 53.636719 -88.261719 60.804688 C -88.605469 61.429688 -88.945312 62.101562 -89.289062 62.730469 C -89.285156 62.773438 -89.28125 62.820312 -89.367188 62.875 C -90.625 65.230469 -91.828125 67.675781 -93.082031 70.078125 C -93.078125 70.121094 -93.074219 70.167969 -93.117188 70.171875 C -95.347656 74.585938 -97.527344 79.039062 -99.707031 83.492188 C -103.433594 91.015625 -107.949219 98.390625 -110.726562 106.316406 C -111.957031 109.855469 -112.804688 113.535156 -114.316406 116.964844 C -116.003906 120.914062 -118.429688 124.300781 -121.132812 127.625 C -131.515625 140.285156 -144.453125 150.570312 -157.644531 160.199219 C -171.757812 170.558594 -186.257812 180.277344 -200.265625 190.804688 C -205.28125 194.59375 -210.25 198.46875 -215.210938 202.34375 C -214.992188 201.820312 -214.773438 201.296875 -214.554688 200.773438 C -214.371094 200.347656 -214.183594 199.964844 -214.046875 199.539062 C -212.632812 196.027344 -211.117188 192.644531 -210.265625 188.964844 C -208.480469 181.09375 -207.0625 173.214844 -205.554688 165.28125 C -204.140625 157.8125 -202.363281 150.308594 -199.542969 143.242188 C -196.609375 135.9375 -192.078125 129.605469 -188.617188 122.566406 C -187.339844 119.976562 -186.207031 117.269531 -185.074219 114.558594 C -182.9375 112.796875 -181.382812 110.226562 -179.9375 107.9375 C -177.628906 104.292969 -176.09375 100.222656 -173.304688 96.84375 C -169.828125 92.621094 -166.144531 88.652344 -163.117188 84.066406 C -160.082031 79.523438 -158.242188 74.421875 -155.398438 69.8125 C -149.878906 60.695312 -141.429688 53.554688 -133.035156 47.234375 C -129.238281 44.390625 -125.386719 41.632812 -122.203125 38.121094 C -119.023438 34.566406 -116.679688 30.367188 -113.988281 26.5 C -108.398438 18.511719 -101.878906 9.386719 -101.6875 -0.730469 C -101.652344 -1.691406 -103.34375 -1.792969 -103.421875 -0.78125 C -104.101562 8.566406 -110.539062 17.140625 -115.878906 24.417969 C -116.800781 25.648438 -117.757812 26.929688 -118.773438 28.125 C -120.625 30.453125 -122.664062 32.710938 -125.015625 34.589844 C -128.628906 37.460938 -132.703125 39.832031 -136.578125 42.367188 C -145.019531 47.777344 -152.898438 54.726562 -158.835938 62.839844 C -161.867188 66.96875 -163.761719 71.53125 -166.222656 75.921875 C -168.835938 80.554688 -172.328125 84.597656 -175.289062 88.996094 C -175.960938 89.972656 -176.628906 90.996094 -177.210938 91.964844 C -177.070312 91.542969 -176.9375 91.074219 -176.800781 90.652344 C -175.316406 86.042969 -173.933594 81.351562 -172.910156 76.699219 C -171.171875 68.832031 -172.332031 61.035156 -173.769531 53.222656 C -175.210938 45.316406 -176.527344 37.808594 -175.351562 29.730469 C -173.003906 13.160156 -163.5 -1.414062 -153.472656 -14.402344 C -152.953125 -15.09375 -153.992188 -15.941406 -154.558594 -15.246094 C -160.121094 -8.765625 -165.328125 -1.953125 -169.519531 5.480469 C -169.515625 5.523438 -169.5625 5.527344 -169.5625 5.527344 C -172.445312 10.644531 -174.847656 16.03125 -176.539062 21.707031 C -178.628906 28.792969 -179.339844 36.050781 -178.910156 43.375 C -178.441406 51.515625 -177.050781 59.789062 -177.847656 67.96875 C -178.71875 76.335938 -181.984375 84.359375 -184.574219 92.355469 C -187.054688 100.113281 -189.617188 107.929688 -193.277344 115.21875 C -196.980469 122.554688 -202.421875 128.84375 -205.890625 136.25 C -206.75 138.066406 -207.558594 139.921875 -208.273438 141.816406 C -208.21875 141.035156 -208.167969 140.210938 -208.109375 139.433594 C -207.859375 135.222656 -207.925781 131 -208.574219 126.878906 C -209.597656 120.433594 -213.398438 115.273438 -215.738281 109.28125 C -218.265625 102.761719 -218.34375 95.355469 -219.363281 88.5 C -219.5625 86.972656 -221.765625 87.199219 -221.699219 88.738281 C -221.679688 89.375 -221.660156 90.007812 -221.640625 90.644531 C -221.4375 97.082031 -221.851562 103.675781 -220.441406 109.945312 C -219.765625 112.96875 -218.476562 115.792969 -217.40625 118.730469 C -216.164062 121.972656 -215.574219 125.09375 -215.265625 128.566406 C -214.71875 135.242188 -215.765625 141.855469 -215.496094 148.511719 C -215.363281 151.59375 -214.859375 154.726562 -214.097656 157.742188 C -213.921875 158.542969 -213.691406 159.472656 -213.414062 160.402344 C -214.964844 168.792969 -215.40625 177.34375 -216.769531 185.808594 C -217.472656 190.019531 -218.210938 193.914062 -219.613281 197.972656 C -220.628906 200.894531 -221.445312 204.027344 -221.488281 207.171875 C -222.625 208.058594 -223.765625 208.902344 -224.859375 209.742188 C -232.222656 215.5 -238.488281 221.28125 -243.6875 229.09375 C -247.980469 235.535156 -251.558594 242.316406 -257.023438 247.96875 C -261.378906 252.464844 -267.421875 258.222656 -267.824219 264.949219 C -267.953125 267.691406 -265.609375 269.273438 -263.542969 269.0625 C -262.195312 268.921875 -260.96875 268.023438 -260.65625 266.171875 Z M -260.65625 266.171875 " fill-opacity="1" fill-rule="nonzero"/></g></g></g></g><g clip-path="url(#662d2c293e)"><g clip-path="url(#58e8c903eb)"><g clip-path="url(#e843e1759a)"><g clip-path="url(#ffed5e4845)"><path fill="#5f926a" d="M 60.929688 -106.113281 C 61.375 -106.207031 61.921875 -106.214844 62.097656 -105.824219 C 62.167969 -105.558594 62.015625 -105.269531 61.859375 -105.027344 C 60.71875 -103.316406 59.578125 -101.5625 58.4375 -99.855469 C 57.136719 -97.902344 55.800781 -95.855469 53.949219 -94.4375 C 51.929688 -92.867188 49.375 -92.058594 46.875 -91.621094 C 45.714844 -91.410156 44.550781 -91.246094 43.421875 -91.175781 C 42.933594 -91.082031 42.4375 -91.03125 41.945312 -90.980469 C 40.59375 -90.84375 39.097656 -90.824219 37.839844 -90.242188 C 37.535156 -90.121094 37.167969 -89.71875 36.820312 -90 C 36.375 -90.363281 36.820312 -91.320312 36.960938 -91.746094 C 37.800781 -94.195312 38.683594 -96.652344 40.089844 -98.886719 C 41.53125 -101.21875 43.59375 -103.292969 46.179688 -104.195312 C 46.921875 -104.5 47.722656 -104.671875 48.53125 -104.753906 C 50.050781 -105 51.644531 -104.980469 53.179688 -105.046875 C 55.800781 -105.179688 58.402344 -105.535156 60.929688 -106.113281 Z M 30.605469 -70.351562 C 31.363281 -70.066406 32.226562 -70.0625 32.988281 -69.730469 C 34.644531 -69.082031 36.109375 -68.09375 37.53125 -67.058594 C 39.734375 -65.507812 41.90625 -63.820312 44.441406 -63.03125 C 45.9375 -62.59375 47.496094 -62.480469 49.070312 -62.640625 C 50.511719 -62.746094 51.886719 -63.066406 53.246094 -63.570312 C 56.046875 -64.582031 58.601562 -66.253906 61.015625 -68.003906 C 61.21875 -68.207031 61.476562 -68.367188 61.539062 -68.648438 C 61.554688 -68.921875 61.390625 -69.222656 61.144531 -69.382812 C 60.855469 -69.535156 60.578125 -69.597656 60.300781 -69.660156 C 56.269531 -70.429688 52.9375 -73.226562 48.976562 -74.1875 C 46 -74.882812 42.855469 -74.515625 39.839844 -73.796875 C 39.796875 -73.792969 39.796875 -73.792969 39.796875 -73.792969 C 39.039062 -73.625 38.246094 -73.40625 37.496094 -73.195312 C 35.238281 -72.597656 33.082031 -71.921875 30.878906 -71.242188 C 30.128906 -71.03125 29.898438 -70.597656 30.605469 -70.351562 Z M 33.285156 -53.929688 C 33.648438 -53.511719 34.007812 -53.09375 34.371094 -52.632812 C 34.847656 -52 35.507812 -51.292969 36.210938 -51.546875 C 36.605469 -51.679688 36.839844 -52.066406 36.886719 -52.480469 C 36.984375 -52.855469 36.898438 -53.253906 36.859375 -53.660156 C 36.429688 -56.070312 36 -58.484375 35.171875 -60.8125 C 34.394531 -63.097656 33.167969 -65.292969 31.40625 -66.976562 C 30.246094 -68.085938 28.792969 -68.984375 27.203125 -69.410156 C 27.066406 -69.441406 26.875 -69.515625 26.738281 -69.546875 C 26.222656 -69.675781 25.710938 -69.804688 25.136719 -70.066406 C 24.566406 -70.324219 24.097656 -70.457031 23.484375 -70.257812 C 24.945312 -69.273438 25.316406 -67.445312 25.398438 -65.769531 C 25.433594 -64.089844 25.25 -62.296875 25.953125 -60.777344 C 26.828125 -58.867188 28.808594 -57.75 30.476562 -56.507812 C 31.507812 -55.75 32.414062 -54.886719 33.285156 -53.929688 Z M -34.238281 -78.457031 C -33.203125 -79.015625 -32.15625 -79.441406 -31.109375 -79.867188 C -29.886719 -80.355469 -28.617188 -80.804688 -27.398438 -81.339844 C -24.4375 -82.597656 -21.4375 -84.359375 -19.960938 -87.238281 C -18.707031 -89.640625 -18.726562 -92.507812 -18.734375 -95.234375 C -18.777344 -97.871094 -18.820312 -100.503906 -18.820312 -103.1875 C -18.851562 -103.5 -18.84375 -103.867188 -19.09375 -104.070312 C -19.140625 -104.109375 -19.242188 -104.191406 -19.332031 -104.179688 C -19.699219 -104.234375 -20.089844 -104.058594 -20.386719 -103.84375 C -22 -102.726562 -23.617188 -101.648438 -25.230469 -100.574219 C -26.972656 -99.394531 -28.710938 -98.171875 -29.949219 -96.5 C -31.660156 -94.140625 -32.132812 -91.179688 -32.9375 -88.414062 C -33.234375 -87.390625 -33.609375 -86.390625 -33.992188 -85.390625 C -34.003906 -86.589844 -34.089844 -87.789062 -34.3125 -88.957031 C -34.984375 -92.4375 -36.414062 -95.746094 -37.878906 -98.960938 C -38.285156 -99.832031 -38.980469 -100.851562 -39.910156 -100.621094 C -40.441406 -100.472656 -40.75 -99.941406 -40.976562 -99.464844 L -41.015625 -99.414062 C -42.125 -97.390625 -43.234375 -95.367188 -43.824219 -93.125 C -44.457031 -90.875 -44.519531 -88.367188 -43.535156 -86.285156 C -42.472656 -83.890625 -40.210938 -82.210938 -39.015625 -79.878906 C -38.558594 -78.96875 -38.128906 -77.875 -37.144531 -77.566406 C -36.910156 -77.484375 -36.660156 -77.542969 -36.414062 -77.574219 C -35.710938 -77.464844 -34.734375 -78.21875 -34.238281 -78.457031 Z M 38.488281 35.558594 C 38.105469 35.824219 37.773438 36.132812 37.542969 36.519531 C 37.304688 36.925781 37.308594 37.539062 37.652344 37.878906 C 37.644531 37.878906 37.640625 37.875 37.636719 37.875 C 35.816406 37.425781 33.765625 37.359375 34.851562 39.980469 C 35.515625 41.59375 35.96875 42.914062 36.109375 44.71875 C 36.214844 46.207031 36.285156 47.792969 37.105469 49.121094 C 37.980469 50.578125 39.566406 51.414062 41.171875 52.023438 C 42.261719 52.457031 43.347656 52.847656 44.359375 53.425781 C 44.835938 53.652344 45.273438 53.925781 45.71875 54.289062 C 46.164062 54.652344 46.761719 55.136719 47.328125 54.898438 C 47.847656 54.660156 47.914062 53.972656 47.949219 53.421875 C 47.96875 51.828125 48.027344 50.183594 47.773438 48.621094 C 47.292969 45.667969 45.738281 42.914062 43.535156 40.910156 C 42.179688 39.683594 40.589844 38.800781 38.851562 38.207031 C 38.6875 38.164062 38.5 38.113281 38.324219 38.0625 C 38.75 38.03125 39.292969 37.75 39.707031 37.707031 C 41.457031 37.484375 43.328125 38.019531 45.015625 38.53125 C 46.613281 39.050781 48.171875 39.617188 49.832031 39.855469 C 50.429688 39.933594 51.027344 40.007812 51.664062 39.988281 C 54.25 39.949219 56.714844 38.742188 58.683594 37.132812 C 60.695312 35.46875 62.351562 33.4375 63.914062 31.410156 C 64.15625 31.113281 64.433594 30.71875 64.351562 30.367188 C 64.195312 29.699219 63.242188 29.707031 62.574219 29.863281 C 60.925781 30.171875 59.242188 30.160156 57.582031 29.921875 C 55.089844 29.539062 52.664062 28.46875 50.183594 28.632812 L 50.046875 28.644531 C 46.984375 28.914062 44.375 30.910156 41.976562 32.792969 C 40.800781 33.730469 39.621094 34.625 38.488281 35.558594 Z M -218.5 89.960938 C -218.128906 89.148438 -217.957031 88.175781 -217.714844 87.425781 C -217.054688 85.445312 -216.398438 83.421875 -216.066406 81.34375 C -215.464844 77.460938 -216.1875 73.484375 -217.738281 69.867188 C -219.285156 66.296875 -221.660156 63.082031 -224.398438 60.269531 C -224.707031 59.9375 -225.0625 59.5625 -225.484375 59.425781 C -225.867188 59.238281 -226.367188 59.242188 -226.75 59.507812 C -226.792969 59.511719 -226.789062 59.558594 -226.835938 59.5625 C -227.242188 60.015625 -227.128906 60.683594 -227.109375 61.320312 C -226.90625 64.210938 -228.820312 66.816406 -229.34375 69.691406 C -229.988281 73.167969 -228.539062 76.660156 -226.8125 79.757812 C -224.980469 83.027344 -222.988281 86.054688 -222.0625 89.78125 C -221.707031 91.015625 -221.238281 92.515625 -219.699219 91.585938 C -219.101562 91.203125 -218.75 90.625 -218.5 89.960938 Z M 16.488281 105.632812 C 16.09375 106.21875 15.171875 106.085938 14.511719 105.835938 C 13.664062 105.558594 12.773438 105.285156 11.96875 104.957031 C 11.921875 104.960938 11.921875 104.960938 11.917969 104.917969 C 11.019531 104.554688 10.152344 104.097656 9.324219 103.546875 C 7.722656 102.527344 6.386719 101.027344 5.792969 99.222656 C 4.585938 95.433594 7.0625 91.222656 6.03125 87.324219 C 5.949219 87.003906 5.9375 86.683594 5.972656 86.390625 C 5.472656 86.488281 4.953125 86.582031 4.441406 86.441406 C 2.910156 86.140625 3.433594 85.042969 4.414062 84.398438 C 7.214844 82.472656 8.117188 78.421875 10.988281 76.71875 C 11.109375 76.570312 11.195312 76.515625 11.324219 76.457031 C 12.792969 75.714844 14.515625 75.675781 16.148438 75.644531 C 17.324219 75.617188 18.507812 75.632812 19.6875 75.601562 C 20.050781 75.609375 20.414062 75.617188 20.707031 75.816406 C 21.109375 76.183594 20.953125 76.882812 20.730469 77.359375 C 19.570312 80.253906 17.460938 82.699219 14.757812 84.25 C 13.136719 85.210938 11.460938 85.664062 9.699219 85.914062 C 9.929688 85.929688 10.164062 85.945312 10.382812 85.925781 C 11.652344 85.886719 12.914062 85.347656 14.050781 84.910156 C 14.96875 84.546875 15.882812 84.179688 16.804688 83.855469 C 16.851562 83.851562 16.941406 83.84375 16.980469 83.792969 C 17.460938 83.609375 17.949219 83.46875 18.433594 83.328125 L 18.476562 83.320312 C 18.5625 83.269531 18.652344 83.257812 18.789062 83.246094 C 19.582031 83.027344 20.4375 82.941406 21.304688 82.988281 C 22.855469 83.054688 24.324219 83.632812 25.707031 84.265625 C 28.570312 85.609375 31.199219 87.34375 33.59375 89.417969 C 34.039062 89.78125 34.503906 90.324219 34.335938 90.886719 C 34.210938 91.445312 33.503906 91.65625 32.96875 91.757812 C 30.035156 92.375 27.144531 92.988281 24.253906 93.601562 C 24.03125 93.625 23.855469 93.6875 23.628906 93.710938 C 21.988281 94.109375 20.335938 94.367188 18.707031 93.988281 C 14.546875 93.058594 12.132812 88.773438 8.542969 86.730469 C 8.871094 87.160156 9.191406 87.605469 9.59375 87.960938 C 11.628906 89.664062 13.085938 91.925781 14.113281 94.414062 C 15.4375 97.550781 16.011719 100.949219 16.625 104.300781 C 16.671875 104.75 16.765625 105.242188 16.488281 105.632812 Z M 8.53125 86.054688 C 8.359375 86.070312 8.1875 86.082031 8.015625 86.097656 C 8.023438 86.105469 8.035156 86.109375 8.042969 86.117188 C 8.113281 86.1875 8.171875 86.28125 8.238281 86.355469 C 8.328125 86.234375 8.421875 86.121094 8.53125 86.054688 Z M -102.886719 4.125 C -102.847656 4.074219 -102.898438 4.035156 -102.898438 4.035156 L -102.929688 3.71875 C -102.933594 3.566406 -102.914062 3.417969 -102.910156 3.265625 C -102.695312 3.351562 -102.460938 3.351562 -102.261719 3.148438 C -102.0625 2.855469 -102.242188 2.011719 -102.136719 1.683594 C -101.789062 0.191406 -100.71875 -1.328125 -99.949219 -2.683594 C -99.832031 -2.875 -99.761719 -3.066406 -99.644531 -3.257812 C -98.4375 -5.65625 -97.191406 -8.148438 -97.105469 -10.84375 C -97.035156 -14.171875 -98.804688 -17.265625 -100.679688 -20.03125 C -102.710938 -23.003906 -105.054688 -25.949219 -108.363281 -27.203125 C -109.125 -27.535156 -110.050781 -27.714844 -110.734375 -27.28125 C -110.773438 -27.230469 -110.820312 -27.226562 -110.859375 -27.175781 C -111.328125 -26.855469 -111.585938 -26.28125 -111.761719 -25.765625 C -112.808594 -22.699219 -112.230469 -19.257812 -110.96875 -16.246094 C -110.003906 -13.972656 -108.683594 -11.839844 -107.433594 -9.6875 C -110.503906 -13.03125 -114.722656 -15.253906 -119.144531 -16.230469 C -119.558594 -16.277344 -119.976562 -16.371094 -120.382812 -16.332031 C -120.566406 -16.355469 -120.746094 -16.339844 -120.972656 -16.316406 C -121.550781 -16.210938 -122.148438 -15.832031 -122.316406 -15.269531 C -122.492188 -14.75 -122.300781 -14.222656 -122.15625 -13.691406 C -121.558594 -11.84375 -120.964844 -10.039062 -120.410156 -8.183594 C -119.894531 -6.691406 -119.417969 -5.148438 -118.390625 -3.980469 C -117.253906 -2.640625 -115.632812 -1.894531 -114.035156 -1.378906 C -112.394531 -0.863281 -110.679688 -0.539062 -109.113281 0.121094 C -107.503906 0.730469 -105.992188 1.757812 -105.15625 3.265625 C -104.941406 3.605469 -104.8125 3.957031 -104.550781 4.292969 C -104.238281 4.671875 -103.660156 5.019531 -103.1875 4.746094 C -102.890625 4.535156 -102.863281 4.347656 -102.886719 4.125 Z M -157.105469 -10.402344 C -156.40625 -10.667969 -155.445312 -11.394531 -154.976562 -11.65625 C -153.210938 -12.609375 -151.316406 -13.167969 -149.410156 -13.632812 C -148.925781 -13.773438 -148.390625 -13.875 -147.902344 -14.015625 C -145.554688 -14.574219 -143.207031 -15.179688 -141.15625 -16.433594 C -138.214844 -18.328125 -136.304688 -21.433594 -135.1875 -24.730469 C -134.117188 -28.027344 -133.792969 -31.515625 -133.46875 -35.007812 C -133.425781 -35.464844 -133.390625 -36.015625 -133.703125 -36.394531 C -134.21875 -37.023438 -135.234375 -36.738281 -135.972656 -36.386719 C -139.304688 -34.773438 -142.644531 -33.203125 -146.027344 -31.628906 C -146.285156 -31.511719 -146.503906 -31.398438 -146.761719 -31.28125 C -148.582031 -30.414062 -150.347656 -29.460938 -151.597656 -27.921875 C -152.898438 -26.421875 -153.519531 -24.496094 -154.144531 -22.609375 C -154.828125 -20.542969 -155.5 -18.492188 -156.171875 -16.4375 C -156.042969 -18.359375 -156.183594 -20.289062 -156.644531 -22.171875 C -157.464844 -25.773438 -159.085938 -29.15625 -160.917969 -32.425781 C -161.539062 -33.589844 -162.25 -34.792969 -163.171875 -35.789062 C -163.628906 -36.289062 -164.230469 -36.816406 -164.898438 -36.703125 C -165.300781 -36.617188 -165.636719 -36.355469 -165.828125 -36.015625 C -165.996094 -35.863281 -166.0625 -35.628906 -166.132812 -35.441406 C -166.253906 -34.835938 -166.1875 -34.207031 -166.175781 -33.617188 C -166.09375 -31.488281 -166.511719 -29.351562 -166.792969 -27.230469 C -167.070312 -25.0625 -167.164062 -22.871094 -166.457031 -20.851562 C -165.085938 -16.761719 -160.921875 -14.230469 -159.203125 -10.3125 C -158.59375 -9 -157.628906 -9.222656 -157.105469 -10.402344 Z M -54.320312 170.238281 C -53.898438 169.921875 -54.238281 169.230469 -54.601562 168.8125 C -57.15625 166.023438 -59.71875 163.195312 -62.839844 161.101562 C -64.066406 160.28125 -65.421875 159.628906 -66.8125 159.105469 C -66.554688 159.121094 -66.292969 159.140625 -66.039062 159.15625 C -62.835938 159.371094 -59.320312 159.105469 -56.894531 157.035156 C -55.4375 155.75 -54.527344 153.972656 -53.757812 152.167969 C -52.597656 149.320312 -51.671875 146.359375 -51.578125 143.300781 C -51.582031 142.800781 -51.648438 142.171875 -52.085938 141.898438 C -52.804688 141.515625 -53.496094 142.3125 -53.980469 142.910156 C -55.636719 144.898438 -58.398438 145.453125 -60.957031 145.761719 L -61.496094 145.816406 C -63.835938 146.054688 -66.355469 146.269531 -68.320312 147.515625 C -70.964844 149.195312 -72.144531 152.320312 -73.792969 154.851562 C -74.09375 155.324219 -74.910156 156.125 -75.59375 156.921875 C -75.324219 155.578125 -75.480469 154.042969 -75.636719 152.8125 C -75.933594 150.339844 -76.453125 147.9375 -77.242188 145.5625 C -78.113281 142.832031 -79.402344 140.007812 -81.832031 138.4375 C -82.21875 138.203125 -82.695312 137.976562 -83.082031 138.199219 C -83.171875 138.207031 -83.21875 138.214844 -83.257812 138.261719 C -83.511719 138.472656 -83.566406 138.796875 -83.625 139.121094 C -83.992188 141.296875 -84.363281 143.46875 -84.730469 145.644531 C -85.019531 147.269531 -85.300781 148.933594 -84.867188 150.527344 C -84.046875 153.671875 -80.960938 155.40625 -79.109375 157.945312 C -78.3125 159.0625 -77.59375 160.113281 -76.480469 158.847656 C -76.441406 158.949219 -76.359375 159.003906 -76.289062 159.074219 C -76.546875 159.214844 -76.765625 159.394531 -76.84375 159.667969 C -76.992188 160.003906 -76.816406 160.394531 -76.683594 160.789062 C -75.347656 164.066406 -73.71875 167.582031 -70.550781 169.214844 C -68.972656 170.007812 -67.136719 170.183594 -65.3125 170.226562 C -64.902344 170.273438 -64.445312 170.273438 -64.035156 170.277344 C -60.988281 170.328125 -57.988281 170.339844 -54.984375 170.398438 C -54.753906 170.417969 -54.484375 170.390625 -54.320312 170.238281 Z M -54.320312 170.238281 " fill-opacity="1" fill-rule="nonzero"/></g></g></g></g><g clip-path="url(#904538b594)"><g clip-path="url(#8ba92cef64)"><g clip-path="url(#162d90c08f)"><g clip-path="url(#07550c73e5)"><path fill="#587e60" d="M -104.113281 -0.015625 C -104.097656 0.167969 -104.285156 0.289062 -104.449219 0.222656 C -105.023438 0 -105.425781 -0.660156 -105.734375 -1.160156 C -106.066406 -1.710938 -106.386719 -2.269531 -106.695312 -2.832031 C -107.363281 -4.046875 -108.039062 -5.292969 -108.996094 -6.308594 C -110.023438 -7.398438 -111.351562 -8.164062 -112.609375 -8.949219 C -113.890625 -9.753906 -115.136719 -10.804688 -116.574219 -11.304688 C -116.839844 -11.398438 -116.699219 -11.828125 -116.429688 -11.773438 C -114.960938 -11.484375 -113.683594 -10.4375 -112.398438 -9.710938 C -111.054688 -8.957031 -109.652344 -8.164062 -108.542969 -7.082031 C -107.519531 -6.082031 -106.75 -4.882812 -106.027344 -3.65625 C -105.652344 -3.023438 -105.308594 -2.378906 -104.929688 -1.746094 C -104.621094 -1.230469 -104.171875 -0.632812 -104.113281 -0.015625 Z M 37.863281 38.664062 C 37.808594 38.457031 37.769531 38.25 37.699219 38.050781 C 37.695312 38.003906 37.640625 37.917969 37.636719 37.875 C 35.816406 37.425781 33.765625 37.359375 34.851562 39.980469 C 35.515625 41.59375 35.96875 42.914062 36.109375 44.71875 C 36.214844 46.207031 36.285156 47.792969 37.105469 49.121094 C 37.980469 50.578125 39.566406 51.414062 41.171875 52.023438 C 42.261719 52.457031 43.347656 52.847656 44.359375 53.425781 C 44.304688 53.339844 44.25 53.253906 44.203125 53.214844 C 42.710938 51.503906 40.628906 50.261719 39.511719 48.238281 C 38.175781 45.824219 38.542969 42.863281 38.15625 40.085938 C 38.710938 40.308594 39.265625 40.527344 39.710938 40.90625 C 40.75 41.78125 41.429688 43.007812 42.285156 44.046875 C 44 46.132812 45.175781 48.757812 45.652344 51.417969 C 45.703125 51.710938 46.144531 51.671875 46.117188 51.367188 C 45.847656 48.484375 44.828125 45.652344 43.074219 43.34375 C 42.226562 42.222656 41.484375 40.972656 40.410156 40.046875 C 39.753906 39.484375 38.808594 38.957031 37.863281 38.664062 Z M -218.5 89.960938 C -218.613281 89.746094 -218.722656 89.574219 -218.832031 89.402344 C -219.074219 89.027344 -219.304688 88.640625 -219.542969 88.257812 C -219.265625 86.179688 -220.03125 83.941406 -220.101562 81.875 C -220.1875 79.242188 -219.851562 76.636719 -220.0625 74.003906 C -220.46875 68.96875 -222.238281 64.164062 -225.53125 60.292969 C -225.746094 60.042969 -226.144531 60.320312 -225.953125 60.601562 C -222.929688 65.039062 -221.175781 69.722656 -221.113281 75.125 C -221.085938 77.605469 -221.40625 80.074219 -221.28125 82.554688 C -221.21875 83.742188 -220.96875 84.859375 -220.78125 86.023438 C -220.773438 86.078125 -220.773438 86.140625 -220.765625 86.199219 C -223.65625 81.089844 -225.730469 75.488281 -226.027344 69.671875 C -226.148438 66.269531 -225.785156 62.730469 -226.75 59.507812 C -226.792969 59.511719 -226.789062 59.558594 -226.835938 59.5625 C -227.242188 60.015625 -227.128906 60.683594 -227.109375 61.320312 C -226.90625 64.210938 -228.820312 66.816406 -229.34375 69.691406 C -229.988281 73.167969 -228.539062 76.660156 -226.8125 79.757812 C -224.980469 83.027344 -222.988281 86.054688 -222.0625 89.78125 C -221.710938 91.015625 -221.238281 92.515625 -219.699219 91.585938 C -219.101562 91.203125 -218.75 90.625 -218.5 89.960938 Z M -68.472656 168.230469 C -70.539062 166.210938 -71.390625 163.25 -72.910156 160.8125 C -73.144531 160.429688 -73.398438 160.0625 -73.683594 159.714844 C -73.117188 159.945312 -72.558594 160.210938 -72.035156 160.488281 C -70.273438 161.410156 -68.636719 162.578125 -67.101562 163.839844 C -65.644531 165.039062 -64.089844 166.0625 -62.449219 166.996094 C -61.683594 167.429688 -60.929688 167.902344 -60.074219 168.140625 C -59.132812 168.402344 -58.132812 168.316406 -57.222656 168.703125 C -56.832031 168.867188 -56.582031 168.304688 -56.953125 168.105469 C -57.683594 167.71875 -58.480469 167.621094 -59.277344 167.4375 C -60.363281 167.1875 -61.257812 166.554688 -62.183594 165.960938 C -63.929688 164.84375 -65.40625 163.546875 -66.929688 162.152344 C -68.351562 160.847656 -69.914062 159.726562 -71.609375 158.796875 C -71.953125 158.605469 -72.417969 158.382812 -72.921875 158.171875 C -72.746094 158.003906 -72.566406 157.835938 -72.386719 157.683594 C -71.554688 156.992188 -70.621094 156.457031 -69.652344 155.988281 C -67.457031 154.925781 -65.160156 154.300781 -62.855469 153.542969 C -60.816406 152.875 -58.835938 152.351562 -57.28125 150.8125 C -55.742188 149.292969 -54.492188 147.871094 -53.441406 145.972656 C -53.277344 145.667969 -53.722656 145.433594 -53.933594 145.667969 C -55.429688 147.296875 -56.746094 149.019531 -58.601562 150.285156 C -59.628906 150.984375 -60.9375 151.050781 -62.125 151.28125 C -63.242188 151.5 -64.347656 151.722656 -65.453125 151.992188 C -66.167969 152.167969 -66.84375 152.402344 -67.527344 152.625 C -67.507812 152.582031 -67.460938 152.5625 -67.445312 152.519531 C -67.214844 152.085938 -67.175781 151.582031 -67.042969 151.113281 C -66.484375 149.011719 -64.75 147.332031 -62.804688 146.359375 C -62.371094 146.132812 -61.980469 145.957031 -61.496094 145.816406 C -63.835938 146.054688 -66.355469 146.269531 -68.320312 147.515625 C -70.964844 149.195312 -72.144531 152.320312 -73.792969 154.851562 C -74.210938 155.503906 -75.609375 156.792969 -76.257812 157.808594 C -76.273438 157.816406 -76.292969 157.8125 -76.308594 157.816406 C -76.558594 154.816406 -78.101562 152.457031 -79.605469 149.878906 C -80.578125 148.214844 -80.59375 146.601562 -80.734375 144.734375 C -80.859375 143.089844 -81.316406 141.488281 -82.046875 140.011719 C -82.144531 139.808594 -82.460938 139.921875 -82.375 140.136719 C -81.652344 141.949219 -81.433594 143.789062 -81.5 145.726562 C -81.558594 147.347656 -81.402344 148.71875 -80.632812 150.164062 C -79.859375 151.625 -78.914062 152.976562 -78.222656 154.484375 C -77.980469 155.007812 -77.792969 155.546875 -77.644531 156.097656 C -77.996094 155.636719 -78.355469 155.171875 -78.753906 154.769531 C -79.820312 153.652344 -81.027344 152.546875 -81.796875 151.214844 C -83.007812 149.15625 -83.222656 146.628906 -83.148438 144.210938 C -83.128906 142.207031 -82.925781 140.183594 -83.082031 138.199219 C -83.171875 138.210938 -83.21875 138.214844 -83.257812 138.261719 C -83.511719 138.472656 -83.566406 138.796875 -83.625 139.121094 C -83.992188 141.296875 -84.363281 143.46875 -84.730469 145.644531 C -85.019531 147.269531 -85.300781 148.933594 -84.867188 150.527344 C -84.046875 153.671875 -80.960938 155.40625 -79.109375 157.945312 C -78.328125 159.039062 -77.621094 160.074219 -76.546875 158.921875 C -76.445312 158.984375 -76.324219 159 -76.210938 159.042969 C -76.503906 159.1875 -76.757812 159.371094 -76.84375 159.667969 C -76.992188 160.003906 -76.816406 160.394531 -76.683594 160.789062 C -75.347656 164.066406 -73.71875 167.582031 -70.550781 169.214844 C -68.972656 170.007812 -67.136719 170.183594 -65.3125 170.226562 C -66.5 169.753906 -67.566406 169.089844 -68.472656 168.230469 Z M 7.929688 99.683594 C 7.332031 97.382812 7.992188 94.949219 8.429688 92.582031 C 8.574219 91.90625 8.675781 91.207031 8.738281 90.503906 C 8.746094 90.515625 8.757812 90.527344 8.765625 90.539062 C 9.46875 91.53125 10.023438 92.625 10.511719 93.734375 C 11.097656 95.074219 11.433594 96.507812 11.992188 97.855469 C 12.542969 99.1875 13.203125 100.457031 13.320312 101.921875 C 13.34375 102.21875 13.785156 102.167969 13.773438 101.875 C 13.734375 100.464844 13.214844 99.136719 12.761719 97.820312 C 12.226562 96.285156 11.847656 94.699219 11.25 93.1875 C 10.789062 92.019531 10.230469 90.890625 9.523438 89.851562 C 9.292969 89.515625 9.03125 89.167969 8.753906 88.832031 C 8.699219 88.027344 8.519531 87.246094 8.191406 86.515625 C 11.980469 88.464844 14.40625 93.027344 18.707031 93.988281 C 20.335938 94.367188 21.988281 94.109375 23.628906 93.710938 C 23.445312 93.6875 23.300781 93.609375 23.15625 93.53125 C 22.0625 93.054688 21.007812 92.523438 20.078125 91.847656 C 18.949219 91.050781 17.984375 90.058594 17.191406 88.957031 C 16.730469 88.363281 16.378906 87.675781 16.292969 86.933594 C 16.601562 86.929688 16.914062 86.90625 17.214844 86.921875 C 18.660156 86.984375 20.125 87.113281 21.546875 87.382812 C 23 87.65625 24.394531 88.171875 25.835938 88.488281 C 27.242188 88.796875 28.664062 89.011719 29.980469 89.621094 C 30.230469 89.734375 30.382812 89.371094 30.152344 89.242188 C 28.921875 88.554688 27.5625 88.21875 26.21875 87.824219 C 24.707031 87.378906 23.246094 86.773438 21.707031 86.425781 C 20.203125 86.085938 18.625 85.941406 17.085938 85.867188 C 16.863281 85.855469 16.632812 85.847656 16.40625 85.835938 C 16.566406 85.359375 16.808594 84.90625 17.148438 84.550781 C 17.644531 84.042969 18.191406 83.625 18.789062 83.246094 C 18.828125 83.195312 18.917969 83.1875 18.957031 83.136719 C 18.785156 83.199219 18.652344 83.257812 18.476562 83.320312 L 18.433594 83.328125 C 17.953125 83.511719 17.472656 83.699219 16.980469 83.792969 C 16.941406 83.84375 16.851562 83.851562 16.804688 83.855469 C 15.882812 84.179688 14.96875 84.546875 14.050781 84.910156 C 12.914062 85.347656 11.652344 85.886719 10.382812 85.925781 C 9.589844 86.003906 8.664062 85.59375 8.160156 86.433594 C 8.113281 86.332031 8.097656 86.21875 8.042969 86.117188 C 7.9375 85.992188 7.789062 85.871094 7.640625 85.75 C 7.539062 85.683594 7.472656 85.703125 7.382812 85.660156 C 7.683594 85.417969 7.949219 85.136719 8.203125 84.835938 C 8.847656 84.570312 9.464844 84.214844 10.066406 83.886719 C 11.171875 83.28125 12.242188 82.625 13.277344 81.90625 C 15.34375 80.472656 17.152344 78.828125 18.789062 76.921875 C 18.949219 76.734375 18.675781 76.433594 18.488281 76.601562 C 16.679688 78.226562 14.644531 79.667969 12.578125 80.945312 C 11.539062 81.585938 10.472656 82.191406 9.398438 82.769531 C 9.394531 82.769531 9.390625 82.769531 9.390625 82.769531 C 9.472656 82.558594 9.570312 82.351562 9.632812 82.132812 C 9.988281 80.734375 10.023438 79.273438 10.425781 77.914062 C 10.5625 77.445312 10.703125 77.066406 10.988281 76.71875 C 8.117188 78.421875 7.214844 82.472656 4.414062 84.398438 C 3.433594 85.042969 2.910156 86.144531 4.441406 86.441406 C 4.953125 86.582031 5.472656 86.488281 5.972656 86.390625 C 5.9375 86.683594 5.949219 87.003906 6.03125 87.324219 C 7.0625 91.222656 4.585938 95.433594 5.792969 99.222656 C 6.386719 101.027344 7.722656 102.527344 9.324219 103.546875 C 10.152344 104.097656 11.019531 104.554688 11.917969 104.917969 C 11.328125 104.476562 10.777344 103.988281 10.273438 103.492188 C 9.210938 102.421875 8.351562 101.144531 7.929688 99.683594 Z M 38.488281 35.558594 C 38.105469 35.824219 37.773438 36.132812 37.542969 36.519531 C 37.230469 37.050781 37.324219 37.953125 38.066406 38.105469 C 38.488281 38.242188 39.214844 37.757812 39.707031 37.707031 C 41.457031 37.484375 43.328125 38.019531 45.015625 38.53125 C 46.613281 39.050781 48.171875 39.617188 49.832031 39.855469 C 48.476562 38.632812 47.167969 37.449219 45.824219 36.269531 C 47.558594 36.246094 49.324219 36.210938 51.046875 36.027344 C 52.792969 35.839844 54.527344 35.417969 56.128906 34.6875 C 57.785156 33.929688 59.265625 32.835938 60.996094 32.234375 C 61.214844 32.15625 61.136719 31.777344 60.898438 31.824219 C 59.082031 32.183594 57.449219 33.019531 55.730469 33.664062 C 53.867188 34.359375 51.949219 34.738281 49.964844 34.835938 C 48.332031 34.914062 46.695312 34.941406 45.0625 34.960938 C 45.082031 34.679688 45.1875 34.390625 45.339844 34.128906 C 46.480469 31.964844 47.789062 29.648438 50.046875 28.644531 C 46.984375 28.914062 44.375 30.910156 41.976562 32.792969 C 40.800781 33.730469 39.621094 34.625 38.488281 35.558594 Z M 31.027344 -58.25 C 30.089844 -59.425781 28.6875 -60.238281 27.960938 -61.574219 C 27.011719 -63.257812 27.265625 -65.296875 27.152344 -67.253906 C 27.625 -66.929688 28.136719 -66.640625 28.578125 -66.316406 C 29.835938 -65.402344 30.75 -64.015625 31.363281 -62.597656 C 32 -61.128906 32.429688 -59.558594 32.992188 -58.054688 C 33.277344 -57.285156 33.542969 -56.507812 33.921875 -55.777344 C 34.296875 -55.046875 34.714844 -54.332031 35.019531 -53.566406 C 35.109375 -53.34375 35.496094 -53.417969 35.445312 -53.667969 C 35.117188 -55.230469 34.3125 -56.699219 33.804688 -58.210938 C 33.242188 -59.863281 32.828125 -61.59375 32.160156 -63.207031 C 31.601562 -64.554688 30.894531 -65.886719 29.808594 -66.886719 C 29.011719 -67.625 27.972656 -68.367188 26.929688 -68.875 C 26.871094 -69.101562 26.820312 -69.335938 26.738281 -69.546875 C 26.222656 -69.675781 25.710938 -69.804688 25.136719 -70.066406 C 24.566406 -70.324219 24.097656 -70.457031 23.484375 -70.257812 C 24.945312 -69.273438 25.316406 -67.445312 25.398438 -65.769531 C 25.433594 -64.089844 25.25 -62.296875 25.953125 -60.777344 C 26.828125 -58.867188 28.808594 -57.75 30.476562 -56.507812 C 31.507812 -55.75 32.414062 -54.886719 33.285156 -53.929688 C 32.589844 -55.40625 32.0625 -56.988281 31.027344 -58.25 Z M 30.605469 -70.351562 C 31.363281 -70.066406 32.226562 -70.0625 32.988281 -69.730469 C 34.644531 -69.082031 36.109375 -68.09375 37.53125 -67.058594 C 39.734375 -65.507812 41.90625 -63.820312 44.441406 -63.03125 C 45.9375 -62.59375 47.496094 -62.480469 49.070312 -62.640625 C 46.308594 -63.40625 43.714844 -64.777344 41.527344 -66.648438 C 39.894531 -68.011719 38.460938 -69.644531 36.730469 -70.84375 C 38.015625 -70.894531 39.296875 -70.976562 40.570312 -70.796875 C 42.488281 -70.53125 44.292969 -69.792969 46.152344 -69.28125 C 47.953125 -68.789062 49.773438 -68.105469 51.625 -67.84375 C 53.648438 -67.554688 55.703125 -67.753906 57.707031 -68.085938 C 57.964844 -68.128906 57.929688 -68.5 57.667969 -68.492188 C 55.449219 -68.421875 53.183594 -68.378906 51.011719 -68.898438 C 49.105469 -69.359375 47.171875 -70.039062 45.316406 -70.664062 C 42.5625 -71.59375 39.691406 -72.351562 36.808594 -72.152344 C 37.84375 -72.628906 38.855469 -73.144531 39.796875 -73.792969 C 39.039062 -73.625 38.246094 -73.40625 37.496094 -73.195312 C 35.238281 -72.597656 33.082031 -71.921875 30.878906 -71.242188 C 30.128906 -71.03125 29.898438 -70.597656 30.605469 -70.351562 Z M 40.089844 -98.886719 C 38.683594 -96.652344 37.800781 -94.195312 36.960938 -91.746094 C 36.820312 -91.320312 36.375 -90.363281 36.820312 -90 C 37.167969 -89.71875 37.535156 -90.121094 37.839844 -90.242188 C 39.097656 -90.824219 40.59375 -90.84375 41.945312 -90.980469 C 42.4375 -91.03125 42.933594 -91.082031 43.421875 -91.175781 C 43.160156 -91.515625 42.765625 -91.835938 42.5 -92.21875 C 41.957031 -92.851562 41.6875 -93.667969 41.59375 -94.511719 C 42.351562 -95.214844 43.058594 -95.988281 43.863281 -96.636719 C 45.304688 -97.796875 47.222656 -98.449219 48.933594 -99.121094 C 50.710938 -99.816406 52.601562 -100.320312 54.289062 -101.226562 C 55.78125 -102.027344 56.9375 -103.464844 58.65625 -103.796875 C 58.9375 -103.851562 58.902344 -104.273438 58.609375 -104.246094 C 57.023438 -104.101562 55.820312 -103.222656 54.484375 -102.441406 C 52.660156 -101.378906 50.480469 -100.933594 48.507812 -100.21875 C 46.816406 -99.605469 44.980469 -99.003906 43.480469 -97.992188 C 42.878906 -97.589844 42.3125 -97.058594 41.75 -96.53125 C 42.09375 -97.839844 42.804688 -99.039062 43.59375 -100.15625 C 44.515625 -101.386719 45.574219 -102.585938 46.789062 -103.574219 C 47.335938 -103.996094 47.929688 -104.421875 48.53125 -104.753906 C 47.722656 -104.671875 46.921875 -104.5 46.179688 -104.195312 C 43.59375 -103.292969 41.53125 -101.21875 40.089844 -98.886719 Z M -34.238281 -78.457031 C -33.203125 -79.015625 -32.15625 -79.441406 -31.109375 -79.867188 C -31.222656 -80.539062 -31.433594 -81.246094 -31.457031 -81.925781 C -31.460938 -82.207031 -31.398438 -82.480469 -31.34375 -82.75 C -29.929688 -83.375 -28.617188 -84.53125 -27.574219 -85.511719 C -26.167969 -86.828125 -24.902344 -88.324219 -23.867188 -89.953125 C -21.65625 -93.433594 -20.917969 -97.265625 -20.269531 -101.269531 C -20.210938 -101.609375 -20.691406 -101.671875 -20.78125 -101.355469 C -21.824219 -97.671875 -22.875 -93.929688 -25.0625 -90.742188 C -26.070312 -89.273438 -27.226562 -87.941406 -28.507812 -86.710938 C -29.144531 -86.097656 -29.816406 -85.53125 -30.484375 -84.957031 C -30.230469 -85.433594 -29.96875 -85.90625 -29.730469 -86.378906 C -28.6875 -88.621094 -28.402344 -91.152344 -27.59375 -93.464844 C -26.085938 -97.804688 -22.695312 -101.105469 -19.332031 -104.179688 C -19.699219 -104.234375 -20.089844 -104.058594 -20.386719 -103.84375 C -22 -102.726562 -23.617188 -101.648438 -25.230469 -100.574219 C -26.972656 -99.394531 -28.710938 -98.171875 -29.949219 -96.5 C -31.660156 -94.140625 -32.132812 -91.179688 -32.9375 -88.414062 C -33.574219 -86.214844 -34.453125 -84.089844 -35.5 -82.046875 C -36.019531 -84.828125 -37.917969 -87.082031 -38.914062 -89.734375 C -39.425781 -91.089844 -39.355469 -92.472656 -39.433594 -93.894531 C -39.507812 -95.273438 -39.703125 -96.753906 -39.164062 -98.066406 C -39.039062 -98.363281 -39.460938 -98.542969 -39.613281 -98.269531 C -40.261719 -97.117188 -40.367188 -95.726562 -40.398438 -94.425781 C -40.433594 -92.929688 -40.660156 -91.324219 -40.332031 -89.851562 C -39.980469 -88.265625 -39.128906 -86.585938 -38.28125 -85.203125 C -37.792969 -84.40625 -37.203125 -83.710938 -36.804688 -82.859375 C -36.535156 -82.28125 -36.253906 -81.746094 -35.890625 -81.246094 C -35.984375 -81.074219 -36.050781 -80.886719 -36.148438 -80.714844 C -36.152344 -80.707031 -36.164062 -80.691406 -36.167969 -80.683594 C -38.042969 -82.84375 -39.957031 -84.980469 -40.988281 -87.589844 C -41.90625 -89.90625 -42.027344 -92.441406 -41.824219 -94.875 C -41.664062 -96.4375 -41.363281 -97.925781 -41.015625 -99.414062 C -42.125 -97.390625 -43.234375 -95.367188 -43.824219 -93.125 C -44.457031 -90.875 -44.519531 -88.367188 -43.535156 -86.285156 C -42.472656 -83.890625 -40.210938 -82.210938 -39.015625 -79.878906 C -38.558594 -78.96875 -38.128906 -77.875 -37.144531 -77.566406 C -36.910156 -77.484375 -36.660156 -77.542969 -36.414062 -77.574219 C -35.710938 -77.464844 -34.734375 -78.21875 -34.238281 -78.457031 Z M -102.886719 4.125 C -102.847656 4.074219 -102.898438 4.035156 -102.898438 4.035156 C -103.675781 2.203125 -104.84375 0.546875 -106.339844 -0.753906 C -109.78125 -3.769531 -114.761719 -4.898438 -117.578125 -8.476562 C -119.308594 -10.707031 -120 -13.503906 -120.382812 -16.332031 C -120.566406 -16.355469 -120.746094 -16.339844 -120.972656 -16.316406 C -121.550781 -16.210938 -122.148438 -15.832031 -122.316406 -15.269531 C -122.492188 -14.75 -122.300781 -14.222656 -122.15625 -13.691406 C -121.558594 -11.84375 -120.964844 -10.039062 -120.410156 -8.183594 C -119.894531 -6.691406 -119.417969 -5.148438 -118.390625 -3.980469 C -117.253906 -2.640625 -115.632812 -1.894531 -114.035156 -1.378906 C -112.394531 -0.863281 -110.679688 -0.539062 -109.113281 0.121094 C -107.503906 0.730469 -105.992188 1.757812 -105.15625 3.265625 C -104.941406 3.605469 -104.8125 3.957031 -104.550781 4.292969 C -104.238281 4.671875 -103.660156 5.019531 -103.1875 4.746094 C -102.890625 4.535156 -102.863281 4.347656 -102.886719 4.125 Z M -110.859375 -27.175781 C -111.328125 -26.855469 -111.585938 -26.28125 -111.761719 -25.765625 C -112.808594 -22.699219 -112.230469 -19.257812 -110.96875 -16.246094 C -109.710938 -13.28125 -107.84375 -10.5625 -106.324219 -7.714844 C -104.761719 -4.871094 -103.53125 -1.722656 -103.609375 1.511719 C -103.617188 1.878906 -103.664062 2.292969 -103.539062 2.644531 C -103.351562 3.125 -102.714844 3.605469 -102.261719 3.148438 C -102.0625 2.855469 -102.242188 2.011719 -102.136719 1.683594 C -101.789062 0.191406 -100.71875 -1.328125 -99.949219 -2.683594 C -100.179688 -2.703125 -100.367188 -2.777344 -100.5625 -2.890625 C -101.304688 -3.285156 -101.859375 -3.929688 -102.285156 -4.65625 C -102.136719 -5.65625 -102.1875 -6.714844 -102.242188 -7.65625 C -102.371094 -9.859375 -102.660156 -11.996094 -103.261719 -14.125 C -104.25 -17.621094 -105.800781 -21.878906 -108.953125 -24.015625 C -109.144531 -24.144531 -109.472656 -23.976562 -109.355469 -23.722656 C -109.242188 -23.5 -109.144531 -23.273438 -109.058594 -23.042969 C -109.019531 -22.949219 -108.867188 -22.984375 -108.882812 -23.085938 C -107.878906 -21.835938 -106.996094 -20.585938 -106.3125 -19.089844 C -105.570312 -17.472656 -105.035156 -15.765625 -104.5625 -14.050781 C -104.351562 -13.289062 -104.203125 -12.519531 -104.066406 -11.746094 C -104.976562 -14.550781 -106.753906 -17.058594 -108.269531 -19.617188 C -109.683594 -21.882812 -110.863281 -24.539062 -110.859375 -27.175781 Z M -157.105469 -10.402344 C -156.40625 -10.667969 -155.445312 -11.394531 -154.976562 -11.65625 C -153.210938 -12.609375 -151.316406 -13.167969 -149.410156 -13.632812 C -148.925781 -13.773438 -148.390625 -13.875 -147.902344 -14.015625 C -148.644531 -14.578125 -149.671875 -14.878906 -150.449219 -15.347656 C -151.367188 -15.898438 -151.980469 -16.796875 -152.367188 -17.800781 C -152.363281 -17.804688 -152.359375 -17.8125 -152.355469 -17.816406 C -150.304688 -19.421875 -147.941406 -20.542969 -145.742188 -21.917969 C -141.550781 -24.535156 -138.886719 -28.492188 -136.992188 -32.976562 C -136.894531 -33.203125 -137.222656 -33.351562 -137.335938 -33.136719 C -138.546875 -30.863281 -140.015625 -28.660156 -141.753906 -26.757812 C -143.605469 -24.734375 -145.8125 -23.351562 -148.230469 -22.101562 C -149.773438 -21.300781 -151.339844 -20.496094 -152.769531 -19.5 C -152.785156 -19.65625 -152.824219 -19.8125 -152.828125 -19.972656 C -152.828125 -21.746094 -152.144531 -23.5 -151.351562 -25.082031 C -150.136719 -27.386719 -148.574219 -29.457031 -146.761719 -31.28125 C -148.582031 -30.414062 -150.347656 -29.460938 -151.597656 -27.921875 C -152.898438 -26.421875 -153.519531 -24.496094 -154.144531 -22.609375 C -154.886719 -20.371094 -155.613281 -18.148438 -156.34375 -15.921875 C -156.519531 -15.671875 -156.707031 -15.433594 -156.882812 -15.179688 C -157.074219 -14.902344 -157.277344 -14.609375 -157.46875 -14.308594 C -157.171875 -15.988281 -157.511719 -17.789062 -157.753906 -19.453125 C -157.992188 -21.085938 -158.289062 -22.804688 -158.90625 -24.339844 C -159.511719 -25.851562 -160.402344 -27.222656 -161.152344 -28.660156 C -161.867188 -30.027344 -162.5 -31.421875 -163.5625 -32.5625 C -163.761719 -32.773438 -164.136719 -32.523438 -163.941406 -32.285156 C -162.929688 -31.054688 -162.378906 -29.554688 -161.691406 -28.136719 C -161.027344 -26.769531 -160.242188 -25.453125 -159.78125 -24 C -159.265625 -22.390625 -159.183594 -20.640625 -159.03125 -18.96875 C -158.960938 -18.195312 -158.929688 -17.394531 -158.855469 -16.605469 C -160.433594 -19.5 -162.183594 -22.332031 -163.203125 -25.460938 C -164.273438 -28.808594 -164.457031 -32.382812 -165.703125 -35.667969 C -165.757812 -35.753906 -165.769531 -35.886719 -165.828125 -36.019531 C -165.996094 -35.863281 -166.0625 -35.628906 -166.132812 -35.441406 C -166.253906 -34.835938 -166.1875 -34.207031 -166.175781 -33.617188 C -166.09375 -31.488281 -166.511719 -29.351562 -166.792969 -27.230469 C -167.070312 -25.0625 -167.164062 -22.871094 -166.457031 -20.851562 C -165.085938 -16.761719 -160.921875 -14.230469 -159.203125 -10.3125 C -158.59375 -9 -157.628906 -9.222656 -157.105469 -10.402344 Z M -157.105469 -10.402344 " fill-opacity="1" fill-rule="nonzero"/></g></g></g></g></svg>