<svg xmlns="http://www.w3.org/2000/svg" xmlns:xlink="http://www.w3.org/1999/xlink" width="500" zoomAndPan="magnify" viewBox="0 0 375 374.999991" height="500" preserveAspectRatio="xMidYMid meet" version="1.0"><defs><clipPath id="83c9a0c00e"><path d="M 0 266 L 99 266 L 99 375 L 0 375 Z M 0 266 " clip-rule="nonzero"/></clipPath><clipPath id="5870e3e222"><path d="M 118.515625 246.835938 L 153.777344 591.535156 L -211.066406 628.859375 L -246.332031 284.160156 Z M 118.515625 246.835938 " clip-rule="nonzero"/></clipPath><clipPath id="3324283dae"><path d="M 118.515625 246.835938 L 134.160156 399.789062 L 3.59375 413.144531 L -12.054688 260.195312 Z M 118.515625 246.835938 " clip-rule="nonzero"/></clipPath><clipPath id="7971508f33"><path d="M 118.515625 246.835938 L 153.777344 591.539062 L -211.066406 628.863281 L -246.332031 284.160156 Z M 118.515625 246.835938 " clip-rule="nonzero"/></clipPath><clipPath id="18df4a1628"><path d="M 0 280 L 53 280 L 53 375 L 0 375 Z M 0 280 " clip-rule="nonzero"/></clipPath><clipPath id="f9ed5fa583"><path d="M 118.515625 246.835938 L 153.777344 591.535156 L -211.066406 628.859375 L -246.332031 284.160156 Z M 118.515625 246.835938 " clip-rule="nonzero"/></clipPath><clipPath id="6256ef237f"><path d="M 118.515625 246.835938 L 134.160156 399.789062 L 3.59375 413.144531 L -12.054688 260.195312 Z M 118.515625 246.835938 " clip-rule="nonzero"/></clipPath><clipPath id="c03ad4a6d4"><path d="M 118.515625 246.835938 L 153.777344 591.539062 L -211.066406 628.863281 L -246.332031 284.160156 Z M 118.515625 246.835938 " clip-rule="nonzero"/></clipPath><clipPath id="473f5612d7"><path d="M 0 253 L 122 253 L 122 375 L 0 375 Z M 0 253 " clip-rule="nonzero"/></clipPath><clipPath id="11ea4a778f"><path d="M 118.515625 246.835938 L 153.777344 591.535156 L -211.066406 628.859375 L -246.332031 284.160156 Z M 118.515625 246.835938 " clip-rule="nonzero"/></clipPath><clipPath id="633a3482c3"><path d="M 118.515625 246.835938 L 134.160156 399.789062 L 3.59375 413.144531 L -12.054688 260.195312 Z M 118.515625 246.835938 " clip-rule="nonzero"/></clipPath><clipPath id="f99cdd0db3"><path d="M 118.515625 246.835938 L 153.777344 591.539062 L -211.066406 628.863281 L -246.332031 284.160156 Z M 118.515625 246.835938 " clip-rule="nonzero"/></clipPath><clipPath id="184425c530"><path d="M 0 254 L 119 254 L 119 375 L 0 375 Z M 0 254 " clip-rule="nonzero"/></clipPath><clipPath id="29388c2ca8"><path d="M 118.515625 246.835938 L 153.777344 591.535156 L -211.066406 628.859375 L -246.332031 284.160156 Z M 118.515625 246.835938 " clip-rule="nonzero"/></clipPath><clipPath id="26a375faa4"><path d="M 118.515625 246.835938 L 134.160156 399.789062 L 3.59375 413.144531 L -12.054688 260.195312 Z M 118.515625 246.835938 " clip-rule="nonzero"/></clipPath><clipPath id="dfa69fc87b"><path d="M 118.515625 246.835938 L 153.777344 591.539062 L -211.066406 628.863281 L -246.332031 284.160156 Z M 118.515625 246.835938 " clip-rule="nonzero"/></clipPath></defs><g clip-path="url(#83c9a0c00e)"><g clip-path="url(#5870e3e222)"><g clip-path="url(#3324283dae)"><g clip-path="url(#7971508f33)"><path fill="#a47052" d="M -203.714844 625.710938 C -203.320312 623.351562 -201.433594 621.382812 -199.921875 619.726562 C -197.632812 617.21875 -195.097656 614.914062 -192.757812 612.488281 C -187.90625 607.488281 -184.65625 601.515625 -180.882812 595.761719 C -176.714844 589.421875 -172.144531 583.90625 -166.128906 579.242188 C -158.847656 573.585938 -151.519531 567.921875 -144.183594 562.351562 C -140.5625 559.570312 -136.929688 556.878906 -133.304688 554.140625 C -130.796875 552.882812 -128.28125 551.71875 -125.710938 550.636719 C -116.679688 546.980469 -106.921875 544.664062 -97.4375 542.785156 C -78.777344 539.101562 -59.003906 540.988281 -41.257812 533.261719 C -31.992188 529.21875 -24.289062 522.382812 -15.136719 518.125 C -13.921875 517.589844 -14.613281 515.707031 -15.929688 516.160156 C -18.820312 517.226562 -21.554688 518.464844 -24.28125 519.789062 L -24.328125 519.792969 C -29.519531 522.324219 -34.589844 525.164062 -39.90625 527.390625 C -48.574219 531.007812 -58.140625 531.667969 -67.390625 532.296875 C -72.21875 532.609375 -77.0625 532.785156 -81.867188 533.320312 C -86.988281 533.890625 -91.945312 535.171875 -96.972656 536.230469 C -102.976562 537.484375 -109.148438 538.886719 -115.109375 540.589844 L -115.152344 540.59375 C -115.242188 540.601562 -115.371094 540.660156 -115.464844 540.671875 C -111.078125 537.355469 -106.730469 534.089844 -102.398438 530.691406 C -89.527344 520.640625 -77.851562 509.53125 -66.761719 497.570312 C -64.101562 494.703125 -61.632812 491.765625 -59.164062 488.785156 C -56.746094 485.765625 -54.125 482.992188 -51.746094 480.019531 C -46.796875 473.78125 -44.511719 465.90625 -40.914062 458.898438 C -40.304688 457.742188 -39.789062 456.554688 -39.226562 455.40625 C -36.785156 453.515625 -34.242188 451.710938 -31.585938 450.164062 C -27.558594 447.796875 -23.183594 446.121094 -18.929688 444.183594 C -15.199219 442.484375 -11.519531 440.699219 -7.859375 438.730469 L -7.8125 438.726562 C -6.859375 438.265625 -5.871094 437.707031 -4.925781 437.203125 C -4.925781 437.203125 -4.878906 437.199219 -4.835938 437.195312 C 2.8125 436.457031 10.582031 436.890625 18.21875 437.835938 C 26.640625 438.886719 34.335938 442.148438 42.527344 444.085938 C 45.089844 444.6875 47.675781 445.105469 50.253906 445.429688 C 56.652344 446.234375 63.125 446.433594 69.449219 447.425781 C 70.605469 447.625 70.882812 445.914062 69.769531 445.664062 C 60.390625 443.710938 50.644531 443.480469 41.476562 440.460938 C 33.199219 437.714844 25.589844 433.945312 16.910156 432.601562 C 12.855469 432.019531 8.730469 431.667969 4.597656 431.679688 C 12.023438 427.007812 19.328125 422.03125 27.507812 418.917969 C 38.972656 414.652344 51.660156 414.308594 63.421875 411.152344 C 75.671875 407.894531 85.785156 399.71875 97.980469 396.335938 C 98.683594 396.125 98.421875 394.878906 97.664062 395.046875 C 86.375 397.476562 76.632812 403.976562 65.710938 407.324219 C 61.390625 408.628906 56.945312 409.585938 52.4375 410.363281 C 43.960938 411.914062 35.335938 412.839844 26.972656 414.605469 C 21.011719 415.851562 15.15625 417.679688 9.714844 420.421875 C 4.183594 423.214844 -0.898438 426.828125 -6.359375 429.84375 C -9.84375 431.746094 -13.484375 433.484375 -17.082031 435.171875 C -17.433594 435.296875 -17.742188 435.375 -18.09375 435.503906 C -20.320312 436.367188 -23.371094 437.632812 -25.5625 439.3125 C -28.328125 440.6875 -31.042969 442.148438 -33.695312 443.738281 C -33.472656 443.261719 -33.246094 442.828125 -33.066406 442.355469 L -33.070312 442.3125 C -31.953125 439.921875 -30.878906 437.539062 -29.804688 435.152344 C -26.578125 428.046875 -23.109375 421.09375 -20.125 413.875 C -13.746094 398.484375 -11.316406 381.816406 -4.847656 366.460938 C -3.3125 362.800781 -1.253906 359.40625 0.425781 355.820312 C 2.015625 352.292969 3.234375 348.664062 4.832031 345.179688 C 8.097656 338.023438 13.316406 332.625 19.097656 327.390625 C 25.003906 322.058594 32.136719 317.640625 37.128906 311.355469 C 39.382812 308.53125 40.6875 305.304688 42.171875 302.015625 C 43.058594 300.058594 44.398438 298.464844 45.890625 297.085938 C 47.71875 295.851562 49.59375 294.660156 51.730469 293.757812 C 55.816406 291.976562 60.28125 291.199219 64.707031 290.476562 C 69.441406 289.71875 73.734375 289.914062 78.496094 290.292969 C 82.941406 290.65625 87.339844 290.117188 91.726562 289.484375 C 92.535156 289.402344 92.417969 288.230469 91.601562 288.269531 C 86.414062 288.617188 81.292969 288.734375 76.15625 287.847656 C 71.578125 287.042969 66.828125 286.800781 62.269531 287.539062 C 61.464844 287.667969 60.667969 287.886719 59.914062 288.054688 C 72.5 281.398438 86.132812 276.546875 97.433594 267.566406 C 97.984375 267.144531 97.34375 266.210938 96.753906 266.679688 C 85.492188 275.15625 72.113281 279.847656 59.617188 286.035156 C 57.972656 286.839844 56.332031 287.691406 54.742188 288.582031 C 52.296875 289.96875 49.800781 291.316406 47.554688 292.910156 C 47.507812 292.917969 47.511719 292.960938 47.46875 292.964844 C 45.855469 294.085938 44.304688 295.335938 42.945312 296.703125 C 42.734375 296.863281 42.527344 297.066406 42.320312 297.269531 C 41.136719 298.570312 40.050781 299.957031 39.167969 301.546875 C 37.328125 304.875 35.796875 308.125 32.929688 310.738281 C 30.105469 313.300781 26.808594 315.277344 23.773438 317.589844 C 18.710938 321.382812 13.695312 325.671875 9.3125 330.347656 C 9.382812 329.703125 9.453125 329.0625 9.527344 328.460938 C 9.652344 327.449219 9.871094 326.472656 10.183594 325.527344 C 11.511719 321.207031 12.738281 316.761719 14.402344 312.589844 C 15.742188 309.265625 16.609375 306.175781 16.605469 302.582031 C 16.648438 298.574219 15.679688 294.445312 16.773438 290.464844 C 17.921875 286.164062 20.886719 282.722656 24.183594 279.835938 C 24.972656 279.117188 24.0625 277.800781 23.179688 278.484375 C 22.210938 279.21875 21.246094 280 20.324219 280.777344 C 20.328125 280.820312 20.285156 280.828125 20.285156 280.828125 C 16.328125 284.324219 13 288.667969 11.996094 293.957031 C 11.242188 297.671875 12.222656 301.484375 11.695312 305.222656 C 11.085938 309.46875 8.863281 313.519531 7.648438 317.644531 C 6.441406 321.816406 5.164062 325.769531 4.742188 330.089844 C 4.542969 332.109375 4.394531 334.21875 3.539062 336.078125 C 2.726562 337.890625 1.339844 339.445312 0.1875 341.0625 C -0.722656 342.382812 -1.59375 343.65625 -2.121094 345.164062 C -2.769531 347.234375 -2.699219 349.273438 -3.816406 351.207031 C -5.738281 354.632812 -7.617188 357.601562 -8.863281 361.410156 C -9.949219 364.980469 -10.644531 368.417969 -11.234375 371.980469 C -11.726562 372.941406 -12.179688 373.851562 -12.582031 374.800781 C -15.972656 382.519531 -18.242188 390.527344 -21.070312 398.414062 C -23.785156 406.0625 -27.507812 413.175781 -31.320312 420.34375 C -31.664062 420.96875 -32.003906 421.640625 -32.347656 422.265625 C -32.34375 422.3125 -32.339844 422.359375 -32.425781 422.410156 C -33.683594 424.769531 -34.886719 427.210938 -36.140625 429.617188 C -36.136719 429.660156 -36.132812 429.707031 -36.175781 429.710938 C -38.40625 434.121094 -40.585938 438.578125 -42.765625 443.03125 C -46.492188 450.554688 -51.007812 457.929688 -53.785156 465.855469 C -55.015625 469.394531 -55.867188 473.074219 -57.378906 476.503906 C -59.0625 480.449219 -61.488281 483.835938 -64.191406 487.164062 C -74.574219 499.824219 -87.515625 510.109375 -100.703125 519.738281 C -114.816406 530.097656 -129.316406 539.8125 -143.324219 550.34375 C -148.34375 554.132812 -153.308594 558.007812 -158.269531 561.878906 C -158.050781 561.359375 -157.832031 560.835938 -157.613281 560.3125 C -157.429688 559.882812 -157.242188 559.5 -157.105469 559.078125 C -155.691406 555.566406 -154.175781 552.183594 -153.324219 548.5 C -151.539062 540.632812 -150.121094 532.753906 -148.613281 524.820312 C -147.199219 517.351562 -145.421875 509.847656 -142.601562 502.78125 C -139.667969 495.476562 -135.136719 489.144531 -131.675781 482.101562 C -130.398438 479.515625 -129.265625 476.804688 -128.132812 474.097656 C -125.996094 472.332031 -124.441406 469.761719 -122.996094 467.476562 C -120.6875 463.828125 -119.152344 459.757812 -116.363281 456.382812 C -112.886719 452.160156 -109.203125 448.1875 -106.175781 443.601562 C -103.140625 439.0625 -101.300781 433.960938 -98.457031 429.347656 C -92.9375 420.230469 -84.492188 413.089844 -76.09375 406.773438 C -72.296875 403.929688 -68.445312 401.167969 -65.261719 397.660156 C -62.082031 394.105469 -59.738281 389.90625 -57.046875 386.039062 C -51.457031 378.050781 -44.941406 368.921875 -44.746094 358.804688 C -44.710938 357.847656 -46.402344 357.746094 -46.480469 358.753906 C -47.160156 368.105469 -53.597656 376.679688 -58.9375 383.957031 C -59.859375 385.1875 -60.816406 386.46875 -61.832031 387.664062 C -63.683594 389.992188 -65.722656 392.246094 -68.074219 394.125 C -71.6875 396.996094 -75.761719 399.371094 -79.636719 401.90625 C -88.078125 407.316406 -95.957031 414.265625 -101.894531 422.375 C -104.925781 426.507812 -106.820312 431.070312 -109.28125 435.460938 C -111.894531 440.09375 -115.390625 444.136719 -118.347656 448.53125 C -119.019531 449.511719 -119.6875 450.535156 -120.269531 451.503906 C -120.128906 451.082031 -119.996094 450.613281 -119.859375 450.1875 C -118.375 445.578125 -116.992188 440.890625 -115.96875 436.234375 C -114.230469 428.371094 -115.390625 420.574219 -116.828125 412.757812 C -118.269531 404.855469 -119.585938 397.347656 -118.414062 389.269531 C -116.0625 372.695312 -106.558594 358.125 -96.53125 345.132812 C -96.011719 344.445312 -97.050781 343.59375 -97.617188 344.289062 C -103.179688 350.773438 -108.386719 357.582031 -112.578125 365.015625 C -112.574219 365.0625 -112.621094 365.066406 -112.621094 365.066406 C -115.503906 370.183594 -117.90625 375.570312 -119.597656 381.246094 C -121.6875 388.328125 -122.398438 395.589844 -121.96875 402.914062 C -121.5 411.054688 -120.109375 419.328125 -120.90625 427.507812 C -121.777344 435.875 -125.046875 443.894531 -127.632812 451.894531 C -130.113281 459.652344 -132.675781 467.464844 -136.335938 474.753906 C -140.039062 482.09375 -145.480469 488.382812 -148.949219 495.789062 C -149.808594 497.605469 -150.617188 499.460938 -151.332031 501.355469 C -151.277344 500.574219 -151.226562 499.75 -151.167969 498.972656 C -150.917969 494.761719 -150.984375 490.539062 -151.632812 486.417969 C -152.65625 479.972656 -156.457031 474.8125 -158.796875 468.820312 C -161.324219 462.300781 -161.402344 454.894531 -162.421875 448.039062 C -162.621094 446.511719 -164.824219 446.738281 -164.757812 448.277344 C -164.738281 448.910156 -164.71875 449.546875 -164.699219 450.183594 C -164.496094 456.621094 -164.914062 463.210938 -163.5 469.480469 C -162.824219 472.507812 -161.535156 475.332031 -160.464844 478.269531 C -159.222656 481.507812 -158.632812 484.632812 -158.324219 488.105469 C -157.777344 494.78125 -158.824219 501.390625 -158.554688 508.050781 C -158.421875 511.128906 -157.917969 514.261719 -157.15625 517.277344 C -156.980469 518.078125 -156.75 519.011719 -156.472656 519.9375 C -158.023438 528.332031 -158.464844 536.882812 -159.828125 545.34375 C -160.53125 549.558594 -161.269531 553.453125 -162.671875 557.507812 C -163.691406 560.433594 -164.503906 563.566406 -164.546875 566.707031 C -165.683594 567.597656 -166.824219 568.441406 -167.917969 569.28125 C -175.28125 575.039062 -181.546875 580.820312 -186.746094 588.628906 C -191.039062 595.074219 -194.617188 601.851562 -200.082031 607.507812 C -204.4375 612 -210.480469 617.761719 -210.882812 624.488281 C -211.011719 627.230469 -208.667969 628.808594 -206.601562 628.597656 C -205.253906 628.460938 -204.027344 627.5625 -203.714844 625.710938 Z M -203.714844 625.710938 " fill-opacity="1" fill-rule="nonzero"/></g></g></g></g><g clip-path="url(#18df4a1628)"><g clip-path="url(#f9ed5fa583)"><g clip-path="url(#6256ef237f)"><g clip-path="url(#c03ad4a6d4)"><path fill="#7f4c38" d="M -11.234375 371.980469 C -11.726562 372.941406 -12.179688 373.851562 -12.582031 374.800781 C -15.972656 382.519531 -18.242188 390.527344 -21.070312 398.414062 C -23.785156 406.0625 -27.507812 413.175781 -31.320312 420.34375 C -31.664062 420.96875 -32.003906 421.640625 -32.347656 422.265625 C -32.34375 422.3125 -32.339844 422.359375 -32.425781 422.410156 C -33.417969 424.695312 -34.550781 426.949219 -35.828125 429.128906 C -35.902344 429.273438 -36.019531 429.464844 -36.140625 429.617188 C -36.136719 429.660156 -36.132812 429.707031 -36.175781 429.710938 C -38.40625 434.121094 -40.585938 438.578125 -42.765625 443.03125 C -46.492188 450.554688 -51.007812 457.929688 -53.785156 465.855469 C -55.015625 469.394531 -55.867188 473.074219 -57.378906 476.503906 C -59.0625 480.449219 -61.488281 483.835938 -64.191406 487.164062 C -74.574219 499.824219 -87.515625 510.109375 -100.703125 519.738281 C -114.816406 530.097656 -129.316406 539.8125 -143.324219 550.34375 C -148.34375 554.132812 -153.308594 558.007812 -158.269531 561.878906 C -158.050781 561.359375 -157.832031 560.835938 -157.613281 560.3125 C -158.300781 561.15625 -159.40625 562.769531 -158.769531 563.660156 C -158.664062 563.832031 -158.476562 563.859375 -158.347656 563.800781 C -157.773438 563.648438 -157.4375 562.933594 -157.074219 562.484375 C -156.582031 561.980469 -156.035156 561.515625 -155.441406 561.136719 C -154.847656 560.710938 -154.199219 560.371094 -153.550781 560.078125 C -152.765625 559.726562 -152.089844 559.246094 -151.355469 558.855469 C -149.890625 558.011719 -148.554688 557.097656 -147.183594 556.179688 C -148.796875 558.164062 -150.355469 560.191406 -152.214844 561.980469 C -152.335938 562.09375 -152.148438 562.285156 -152.015625 562.191406 C -149.523438 560.335938 -147.65625 557.804688 -145.457031 555.632812 C -144.101562 554.292969 -142.796875 553.078125 -141.019531 552.3125 C -139.554688 551.683594 -138.117188 551.074219 -136.722656 550.289062 C -134.015625 548.761719 -131.398438 547.039062 -129.269531 544.757812 C -128.0625 543.464844 -126.878906 542.429688 -125.34375 541.5625 C -123.808594 540.695312 -122.285156 539.597656 -120.625 539.015625 C -120.363281 538.925781 -120.460938 538.46875 -120.738281 538.53125 C -122.207031 538.867188 -123.464844 539.601562 -124.820312 540.226562 C -126.207031 540.871094 -127.574219 541.5 -128.804688 542.425781 C -130.148438 543.433594 -131.269531 544.703125 -132.621094 545.699219 C -134.070312 546.773438 -135.621094 547.730469 -137.148438 548.683594 C -137.261719 548.753906 -137.382812 548.8125 -137.5 548.882812 C -133.871094 545.96875 -130.855469 542.28125 -126.800781 539.964844 C -124.957031 538.914062 -123.148438 537.953125 -121.457031 536.691406 C -119.902344 535.484375 -118.347656 534.234375 -116.628906 533.285156 C -116.320312 533.160156 -116.015625 533.039062 -115.664062 532.914062 C -114.964844 532.660156 -114.269531 532.359375 -113.617188 532.066406 C -112.796875 531.78125 -112.035156 531.433594 -111.300781 531.019531 C -111.558594 531.230469 -111.804688 531.457031 -112.066406 531.660156 C -113.515625 532.777344 -115.148438 533.636719 -116.480469 534.902344 C -116.742188 535.152344 -116.316406 535.601562 -116.039062 535.367188 C -114.65625 534.203125 -112.984375 533.457031 -111.484375 532.460938 C -109.65625 531.25 -107.941406 529.832031 -106.222656 528.472656 C -105.691406 528.054688 -105.199219 527.601562 -104.699219 527.152344 C -102.496094 525.757812 -100.40625 524.214844 -98.488281 522.285156 C -97.960938 521.746094 -97.390625 521.25 -96.84375 520.722656 C -95.335938 519.832031 -93.820312 518.941406 -92.378906 517.945312 C -90.816406 516.867188 -89.605469 515.464844 -88.160156 514.257812 C -86.605469 512.953125 -84.738281 512.121094 -83.082031 510.964844 C -81.492188 509.851562 -80.058594 508.539062 -78.445312 507.457031 C -78.316406 507.371094 -78.433594 507.164062 -78.578125 507.21875 C -80.265625 507.847656 -81.542969 508.980469 -83.011719 509.992188 C -84.683594 511.144531 -86.617188 511.847656 -88.285156 512.992188 C -89.742188 513.996094 -90.9375 515.320312 -92.316406 516.417969 C -90.644531 514.875 -88.96875 513.328125 -87.398438 511.6875 C -85.761719 509.929688 -84.273438 508.046875 -82.429688 506.496094 C -80.757812 505.097656 -78.925781 503.90625 -77.257812 502.464844 C -75.671875 501.074219 -74.039062 499.722656 -72.558594 498.207031 C -71.902344 497.503906 -71.199219 496.839844 -70.597656 496.050781 C -67.273438 494.800781 -64.851562 491.367188 -62.558594 488.90625 C -59.609375 485.785156 -56.644531 483.207031 -54.972656 479.121094 C -53.296875 475.085938 -53.011719 470.78125 -52.035156 466.539062 C -51.523438 464.441406 -50.625 462.574219 -49.449219 460.726562 C -49.296875 460.4375 -49.101562 460.144531 -48.949219 459.855469 C -48.867188 459.859375 -48.796875 459.832031 -48.71875 459.820312 C -48.902344 460.296875 -49.15625 460.71875 -49.304688 461.222656 C -50.183594 464.246094 -49.875 467.464844 -50.679688 470.53125 C -50.765625 470.851562 -50.265625 470.925781 -50.175781 470.617188 C -49.351562 467.777344 -49.148438 464.789062 -48.28125 461.976562 C -47.324219 458.886719 -45.6875 456.417969 -43.855469 453.796875 C -42.261719 451.515625 -41.078125 448.882812 -39.925781 446.355469 C -38.820312 443.9375 -38.03125 441.390625 -36.882812 439 C -36.820312 438.875 -37.003906 438.765625 -37.089844 438.871094 C -37.824219 439.769531 -38.246094 440.863281 -38.671875 441.933594 C -39.207031 443.277344 -39.902344 444.503906 -40.550781 445.792969 C -41.5 447.679688 -42.523438 449.550781 -43.636719 451.359375 C -43.40625 450.859375 -43.152344 450.367188 -42.929688 449.871094 C -41.367188 446.480469 -40.28125 442.867188 -38.238281 439.746094 C -34.421875 433.988281 -30.914062 428.308594 -28.203125 421.933594 C -25.484375 415.652344 -23.328125 409.199219 -21.597656 402.5625 C -20.617188 398.925781 -19.125 395.734375 -17.558594 392.359375 C -18.519531 395.40625 -19.375 398.488281 -19.726562 401.582031 C -19.753906 401.820312 -19.402344 401.882812 -19.363281 401.644531 C -18.835938 398.574219 -17.582031 395.617188 -16.53125 392.695312 C -15.628906 390.183594 -14.914062 387.613281 -14.023438 385.097656 C -13.175781 382.695312 -12.398438 380.304688 -11.707031 377.855469 C -10.898438 375.003906 -9.582031 372.394531 -8.515625 369.636719 C -7.710938 367.554688 -7.378906 365.304688 -6.496094 363.257812 C -5.59375 361.175781 -3.976562 359.53125 -3.117188 357.425781 C -2.238281 355.261719 -1.9375 352.894531 -0.953125 350.773438 C 0.214844 348.261719 1.984375 345.992188 3.363281 343.582031 C 3.507812 343.328125 3.101562 343.15625 2.953125 343.394531 C 1.613281 345.570312 -0.0273438 347.597656 -1.273438 349.828125 C -0.84375 348.582031 -0.445312 347.320312 0.0703125 346.125 C 0.878906 344.265625 1.980469 342.609375 2.792969 340.796875 C 4.203125 339.015625 5.421875 337.160156 6.144531 334.902344 C 8.523438 327.972656 8.050781 320.242188 11.085938 313.472656 C 12.226562 310.855469 13.457031 308.226562 13.941406 305.402344 C 14.035156 304.796875 14.027344 304.207031 14.03125 303.613281 C 14.109375 303.179688 14.191406 302.734375 14.28125 302.320312 C 14.574219 300.933594 14.953125 299.570312 14.957031 298.144531 C 14.957031 296.542969 14.523438 294.980469 14.667969 293.375 C 14.800781 291.914062 15.441406 290.558594 15.511719 289.085938 C 15.523438 288.8125 15.144531 288.734375 15.085938 289.015625 C 14.789062 290.398438 14.167969 291.691406 13.957031 293.097656 C 13.722656 294.640625 13.875 296.140625 13.886719 297.6875 C 13.890625 298.371094 13.785156 299.035156 13.65625 299.691406 C 13.417969 298.363281 13.148438 297.03125 12.988281 295.675781 C 12.511719 291.445312 14.453125 288.199219 16.984375 284.984375 C 18.035156 283.695312 19.078125 282.359375 20.128906 281.070312 C 20.207031 280.96875 20.25 280.921875 20.285156 280.828125 C 16.328125 284.324219 13 288.667969 11.996094 293.957031 C 11.242188 297.671875 12.222656 301.484375 11.695312 305.222656 C 11.085938 309.46875 8.863281 313.519531 7.648438 317.644531 C 6.441406 321.816406 5.164062 325.769531 4.742188 330.089844 C 4.542969 332.109375 4.394531 334.21875 3.539062 336.078125 C 2.726562 337.890625 1.339844 339.445312 0.1875 341.0625 C -0.722656 342.382812 -1.59375 343.65625 -2.121094 345.164062 C -2.769531 347.234375 -2.699219 349.273438 -3.816406 351.207031 C -5.738281 354.632812 -7.617188 357.601562 -8.863281 361.410156 C -9.949219 364.980469 -10.644531 368.417969 -11.234375 371.980469 Z M -5.386719 357.191406 C -4.65625 355.414062 -3.371094 354.242188 -2.457031 352.625 C -2.933594 354.105469 -3.320312 355.617188 -4.019531 357.011719 C -4.753906 358.476562 -5.738281 359.769531 -6.617188 361.132812 C -6.28125 359.800781 -5.914062 358.476562 -5.386719 357.191406 Z M -206.601562 628.597656 C -208.667969 628.808594 -211.011719 627.230469 -210.882812 624.488281 C -210.480469 617.761719 -204.4375 612 -200.082031 607.507812 C -194.617188 601.851562 -191.039062 595.074219 -186.746094 588.628906 C -181.546875 580.820312 -175.28125 575.039062 -167.917969 569.28125 C -166.824219 568.441406 -165.683594 567.597656 -164.546875 566.707031 C -164.503906 563.566406 -163.691406 560.433594 -162.671875 557.507812 C -161.269531 553.453125 -160.53125 549.558594 -159.828125 545.34375 C -158.464844 536.882812 -158.023438 528.332031 -156.472656 519.9375 C -156.75 519.011719 -156.980469 518.078125 -157.15625 517.277344 C -157.917969 514.261719 -158.421875 511.128906 -158.554688 508.050781 C -158.824219 501.390625 -157.777344 494.78125 -158.324219 488.105469 C -158.632812 484.632812 -159.222656 481.507812 -160.464844 478.269531 C -161.535156 475.332031 -162.824219 472.507812 -163.5 469.480469 C -164.914062 463.210938 -164.496094 456.621094 -164.699219 450.183594 C -162.605469 456.882812 -164.222656 464.1875 -162.296875 470.996094 C -161.375 474.269531 -159.929688 477.714844 -158.480469 480.796875 C -156.992188 483.78125 -155.246094 486.195312 -154.984375 489.628906 C -154.777344 493.015625 -155.34375 496.351562 -155.960938 499.644531 C -156.65625 503.488281 -156.5625 507.074219 -155.316406 510.8125 C -154.710938 512.589844 -153.921875 514.421875 -153.660156 516.304688 C -153.214844 515.316406 -152.902344 514.300781 -152.625 513.214844 C -152.558594 512.945312 -152.144531 513.003906 -152.191406 513.289062 C -152.371094 514.429688 -152.351562 515.605469 -152.699219 516.714844 C -153.101562 518.019531 -153.59375 519.246094 -153.875 520.589844 C -154.394531 523.089844 -154.417969 525.695312 -154.5625 528.238281 C -154.722656 530.996094 -155.058594 533.699219 -155.3125 536.445312 C -155.433594 537.75 -155.542969 538.914062 -155.9375 540.167969 C -156.308594 541.332031 -156.410156 542.605469 -156.980469 543.695312 C -157.058594 543.839844 -157.28125 543.777344 -157.257812 543.613281 C -157.074219 542.351562 -157.214844 541.078125 -157.050781 539.824219 C -156.878906 538.53125 -156.648438 537.269531 -156.519531 535.960938 C -156.480469 535.574219 -156.445312 535.195312 -156.40625 534.808594 C -156.984375 537.878906 -157.855469 540.808594 -158.75 543.871094 C -159.910156 547.8125 -160.039062 551.730469 -160.347656 555.769531 C -160.183594 555.257812 -159.992188 554.753906 -159.835938 554.234375 C -159.242188 552.28125 -158.960938 550.238281 -158.203125 548.335938 C -158.117188 548.117188 -157.746094 548.230469 -157.808594 548.457031 C -158.359375 550.464844 -158.414062 552.566406 -158.871094 554.597656 C -159.292969 556.488281 -159.792969 558.328125 -160.40625 560.164062 C -161.09375 562.230469 -161.828125 564.277344 -162.375 566.386719 C -162.597656 567.25 -162.785156 568.125 -163.054688 568.976562 C -163.335938 569.878906 -163.746094 570.722656 -164 571.636719 C -164.097656 571.996094 -164.585938 571.992188 -164.65625 571.613281 C -164.75 571.09375 -164.667969 570.585938 -164.550781 570.082031 C -164.90625 570.492188 -165.316406 570.894531 -165.804688 571.292969 C -166.808594 572.125 -167.929688 572.738281 -168.894531 573.519531 C -170.28125 574.617188 -171.359375 576.046875 -172.699219 577.183594 C -175.53125 579.703125 -177.917969 582.542969 -180.25 585.507812 C -182.703125 588.625 -185.53125 591.644531 -187.546875 595.035156 C -188.5 596.675781 -189.230469 598.421875 -190.011719 600.136719 C -188.929688 599.117188 -187.808594 598.125 -186.945312 596.902344 C -185.945312 595.492188 -185.328125 593.851562 -184.308594 592.449219 C -182.132812 589.457031 -178.71875 587.226562 -175.832031 584.988281 C -175.59375 584.804688 -175.339844 585.167969 -175.5625 585.359375 C -178.398438 587.796875 -181.835938 590.582031 -183.492188 594.011719 C -184.152344 595.371094 -184.703125 596.777344 -185.574219 598.023438 C -186.472656 599.308594 -187.632812 600.367188 -188.792969 601.410156 C -190.191406 602.667969 -191.582031 603.828125 -192.507812 605.496094 C -193.371094 607.050781 -193.960938 608.742188 -194.847656 610.285156 C -195.496094 611.414062 -196.378906 612.363281 -197.285156 613.289062 C -198.476562 614.503906 -199.261719 615.707031 -200.011719 617.234375 C -200.125 617.460938 -200.425781 617.34375 -200.414062 617.109375 C -200.25 614.0625 -197.058594 611.90625 -195.804688 609.308594 C -195.554688 608.792969 -195.347656 608.261719 -195.128906 607.730469 C -196.28125 608.933594 -197.507812 610.070312 -198.75 611.191406 C -201.453125 613.652344 -203.265625 616.339844 -204.644531 619.753906 C -205.800781 622.648438 -205.996094 625.625 -206.601562 628.597656 Z M -127.632812 451.894531 C -125.046875 443.894531 -121.777344 435.875 -120.90625 427.507812 C -120.109375 419.328125 -121.5 411.054688 -121.96875 402.914062 C -122.398438 395.589844 -121.6875 388.328125 -119.597656 381.246094 C -117.90625 375.570312 -115.503906 370.183594 -112.621094 365.066406 C -112.707031 365.53125 -112.796875 365.996094 -112.929688 366.464844 C -114.332031 370.972656 -116.890625 374.828125 -118.441406 379.21875 C -120.390625 384.601562 -121.445312 389.804688 -121.3125 395.570312 C -121.164062 401.011719 -120.707031 406.378906 -119.972656 411.761719 C -119.441406 415.40625 -119.210938 419.035156 -119.148438 422.683594 C -118.976562 420.753906 -118.789062 418.828125 -118.664062 416.886719 C -118.417969 413.199219 -119.113281 409.734375 -119.425781 406.09375 C -119.441406 405.894531 -119.152344 405.871094 -119.117188 406.0625 C -118.460938 409.675781 -117.597656 413.222656 -117.539062 416.921875 C -117.488281 420.449219 -117.90625 424.019531 -118.039062 427.542969 C -118.179688 431.308594 -119.273438 434.773438 -119.765625 438.46875 C -120.226562 441.929688 -121.007812 445.523438 -122.378906 448.738281 C -122.464844 448.941406 -122.792969 448.84375 -122.746094 448.625 C -122.015625 445.164062 -121.183594 441.816406 -120.914062 438.277344 C -120.890625 437.960938 -120.8125 437.660156 -120.769531 437.351562 C -121.214844 439.09375 -121.695312 440.84375 -122.21875 442.652344 C -123.667969 447.574219 -125.550781 452.273438 -127.285156 457.089844 C -128.316406 459.878906 -129.355469 462.625 -130.585938 465.25 C -131.414062 467.335938 -132.011719 469.492188 -132.75 471.613281 C -133.515625 473.921875 -134.695312 476.132812 -135.652344 478.324219 C -135.957031 479.023438 -136.300781 479.730469 -136.648438 480.4375 C -135.496094 478.667969 -134.316406 476.917969 -133.199219 475.128906 C -132.296875 473.679688 -131.59375 472.261719 -131.015625 470.660156 C -130.535156 469.324219 -130.023438 468.058594 -129.195312 466.898438 C -129.035156 466.671875 -128.65625 466.910156 -128.785156 467.152344 C -129.613281 468.671875 -129.972656 470.332031 -130.488281 471.96875 C -130.9375 473.414062 -131.640625 474.671875 -132.390625 475.980469 C -134.066406 478.90625 -136.019531 481.667969 -137.636719 484.625 C -139.269531 487.609375 -141.148438 490.414062 -142.796875 493.386719 C -143.578125 494.789062 -144.425781 496.152344 -145.167969 497.574219 C -145.8125 498.820312 -146.390625 500.253906 -147.417969 501.238281 C -147.570312 501.390625 -147.867188 501.25 -147.757812 501.027344 C -146.3125 498.066406 -144.957031 495.070312 -143.445312 492.132812 C -142.667969 490.621094 -141.714844 489.222656 -140.855469 487.753906 C -140.164062 486.570312 -139.570312 485.339844 -138.917969 484.132812 C -140.140625 485.605469 -141.804688 486.726562 -142.890625 488.390625 C -144.226562 490.4375 -145.300781 492.820312 -146.488281 494.988281 C -147.589844 497.105469 -149.039062 499.34375 -149.625 501.632812 C -150.070312 503.5 -150.035156 505.585938 -151.1875 507.207031 C -151.425781 507.550781 -152.070312 507.480469 -152.207031 507.039062 C -152.921875 504.472656 -152.167969 501.621094 -151.167969 498.972656 C -151.226562 499.75 -151.277344 500.574219 -151.332031 501.355469 C -150.617188 499.460938 -149.808594 497.605469 -148.949219 495.789062 C -145.480469 488.382812 -140.039062 482.09375 -136.335938 474.753906 C -132.675781 467.464844 -130.113281 459.652344 -127.632812 451.894531 Z M -119.859375 450.1875 C -119.996094 450.613281 -120.128906 451.082031 -120.269531 451.503906 C -119.6875 450.535156 -119.019531 449.511719 -118.347656 448.53125 C -115.390625 444.136719 -111.894531 440.09375 -109.28125 435.460938 C -106.820312 431.070312 -104.925781 426.507812 -101.894531 422.375 C -95.957031 414.261719 -88.078125 407.316406 -79.636719 401.90625 C -75.761719 399.371094 -71.6875 396.996094 -68.074219 394.125 C -65.722656 392.246094 -63.683594 389.992188 -61.832031 387.664062 C -63.324219 389.957031 -65.109375 392.046875 -67.238281 393.859375 C -72.328125 398.289062 -77.882812 402.179688 -82.921875 406.652344 C -85.46875 408.871094 -88.25 410.972656 -90.648438 413.3125 C -91.039062 413.695312 -91.324219 414.167969 -91.679688 414.582031 C -90.707031 413.523438 -89.746094 412.453125 -88.625 411.558594 C -86.851562 410.140625 -84.640625 409.277344 -82.6875 408.136719 C -80.792969 407.03125 -78.910156 405.964844 -76.890625 405.097656 C -76.628906 404.988281 -76.492188 405.378906 -76.734375 405.5 C -78.925781 406.613281 -80.964844 407.992188 -83.058594 409.277344 C -85.011719 410.472656 -87.148438 411.347656 -88.734375 413.050781 C -90 414.410156 -91.242188 415.890625 -92.410156 417.332031 C -93.738281 418.972656 -95.476562 420.152344 -96.535156 422 C -97.546875 423.769531 -98.820312 425.441406 -99.765625 427.226562 C -100.644531 428.878906 -101.304688 430.503906 -102.390625 432.046875 C -104.816406 435.488281 -107.4375 438.78125 -109.835938 442.238281 C -109.925781 442.367188 -110.113281 442.230469 -110.058594 442.097656 C -109.265625 440.21875 -107.949219 438.632812 -106.757812 436.996094 C -105.398438 435.125 -104.207031 433.132812 -102.972656 431.179688 C -102.246094 430.027344 -101.777344 428.757812 -101.246094 427.523438 C -101.507812 427.863281 -101.785156 428.183594 -102.039062 428.53125 C -103.953125 431.140625 -105.875 433.65625 -108.1875 435.9375 C -108.390625 436.140625 -108.648438 436.304688 -108.917969 436.332031 C -109.140625 436.808594 -109.367188 437.289062 -109.585938 437.8125 C -110.597656 440.324219 -111.835938 442.453125 -113.527344 444.582031 C -114.414062 445.675781 -115.03125 446.738281 -115.625 448.027344 C -116.15625 449.082031 -116.710938 450.320312 -117.53125 451.179688 C -118.347656 452.082031 -119.34375 452.546875 -119.863281 453.691406 C -120.042969 454.109375 -120.269531 454.597656 -120.582031 454.964844 C -120.613281 455.117188 -120.636719 455.269531 -120.683594 455.417969 C -120.839844 455.882812 -121.074219 456.308594 -121.339844 456.722656 C -121.621094 457.148438 -121.992188 457.476562 -122.316406 457.867188 C -122.945312 458.636719 -123.292969 459.574219 -123.691406 460.472656 C -124.085938 461.347656 -124.523438 462.207031 -125.148438 462.941406 C -125.382812 463.21875 -125.789062 462.878906 -125.582031 462.589844 C -124.957031 461.730469 -124.609375 460.734375 -124.257812 459.738281 C -123.917969 458.78125 -123.527344 457.875 -123.054688 456.976562 C -122.8125 456.511719 -122.550781 456.050781 -122.324219 455.582031 C -122.253906 455.433594 -122.191406 455.285156 -122.132812 455.136719 C -122.140625 455.109375 -122.171875 455.09375 -122.175781 455.066406 C -122.261719 454.210938 -121.789062 453.070312 -121.464844 452.261719 C -121.140625 451.410156 -120.472656 450.84375 -119.859375 450.1875 Z M -39.90625 527.390625 C -34.589844 525.164062 -29.519531 522.324219 -24.324219 519.792969 C -25.214844 520.429688 -26.003906 521.148438 -26.945312 521.742188 C -29.167969 523.109375 -31.265625 524.777344 -33.546875 526.011719 C -38.589844 528.710938 -44.054688 530.363281 -49.578125 531.429688 C -52.703125 531.976562 -55.671875 533.144531 -58.792969 533.734375 C -61.910156 534.328125 -65.089844 534.789062 -68.25 534.976562 C -71.273438 535.195312 -74.324219 535.097656 -77.339844 535.40625 C -80.09375 535.730469 -82.636719 536.277344 -85.335938 536.160156 C -77 536.492188 -68.433594 538.359375 -60.394531 535.726562 C -60.160156 535.648438 -60.023438 535.988281 -60.253906 536.089844 C -64.085938 537.734375 -68.8125 538.460938 -72.96875 538.421875 C -77.820312 538.378906 -82.597656 537.304688 -87.460938 537.273438 C -92.316406 537.242188 -96.203125 539.109375 -100.769531 540.355469 C -104.792969 541.449219 -108.910156 542.21875 -112.886719 543.417969 C -113.121094 543.488281 -113.339844 543.160156 -113.105469 543.019531 C -111.539062 542.078125 -109.976562 541.738281 -108.230469 541.320312 C -106.207031 540.832031 -104.285156 539.992188 -102.265625 539.476562 C -100.230469 538.957031 -98.238281 538.199219 -96.226562 537.535156 C -96.667969 537.589844 -97.109375 537.628906 -97.546875 537.699219 C -99.464844 538.078125 -101.09375 539.019531 -102.9375 539.660156 C -104.382812 540.175781 -105.9375 540.515625 -107.453125 540.804688 C -109.273438 541.21875 -111.085938 541.722656 -112.921875 541.957031 C -113.875 542.054688 -114.851562 542.230469 -115.792969 542.183594 C -116.152344 542.269531 -116.507812 542.347656 -116.867188 542.425781 C -118.703125 542.828125 -120.527344 543.414062 -121.917969 544.738281 C -122.152344 544.964844 -122.539062 544.679688 -122.320312 544.410156 C -121.085938 542.878906 -119.292969 541.996094 -117.417969 541.515625 C -117.375 541.503906 -117.335938 541.503906 -117.296875 541.492188 C -117.277344 541.464844 -117.289062 541.417969 -117.25 541.398438 C -116.570312 540.964844 -115.894531 540.898438 -115.152344 540.59375 L -115.109375 540.589844 C -109.148438 538.886719 -102.976562 537.484375 -96.972656 536.230469 C -91.945312 535.171875 -86.988281 533.890625 -81.867188 533.320312 C -77.0625 532.785156 -72.21875 532.609375 -67.390625 532.296875 C -58.140625 531.667969 -48.574219 531.007812 -39.90625 527.390625 Z M 26.972656 414.605469 C 35.335938 412.839844 43.964844 411.914062 52.4375 410.363281 C 47.839844 412.0625 42.894531 413.476562 38.183594 414.050781 C 34.953125 414.425781 31.652344 414.582031 28.40625 414.824219 C 25.074219 415.121094 22.578125 416.054688 19.757812 417.800781 C 19.574219 417.917969 19.375 418.011719 19.1875 418.125 C 21.417969 417.730469 23.679688 417.480469 25.867188 416.859375 C 26.210938 416.761719 26.417969 417.257812 26.070312 417.386719 C 23.035156 418.515625 19.824219 418.859375 16.738281 419.789062 C 16.074219 419.988281 15.464844 420.261719 14.859375 420.539062 C 14.515625 420.722656 14.167969 420.898438 13.820312 421.074219 C 11.921875 422.128906 10.234375 423.496094 8.492188 424.90625 C 3.304688 429.113281 -2.796875 432.671875 -8.9375 435.28125 C -9.117188 435.359375 -9.234375 435.109375 -9.09375 434.996094 C -6.234375 432.738281 -2.734375 431.164062 0.359375 429.238281 C 2.621094 427.832031 4.773438 426.300781 6.867188 424.679688 C 5.695312 425.3125 4.53125 425.957031 3.402344 426.660156 C 1.050781 428.128906 -1.296875 429.597656 -3.8125 430.765625 C -5.941406 431.710938 -7.964844 433.238281 -10.152344 434.054688 C -10.480469 434.40625 -10.8125 434.710938 -11.140625 435.0625 C -13.375 437.203125 -15.953125 438.648438 -18.785156 439.847656 C -21.835938 441.117188 -24.988281 441.800781 -28.117188 442.757812 C -29.394531 443.164062 -30.613281 443.695312 -31.773438 444.316406 C -32.4375 444.683594 -33.105469 445.144531 -33.808594 445.464844 C -33.953125 445.613281 -34.082031 445.773438 -34.234375 445.914062 C -34.925781 446.5625 -35.597656 447.246094 -36.324219 447.855469 C -37.761719 449.050781 -38.921875 450.515625 -40.199219 451.871094 C -40.398438 452.085938 -40.738281 451.816406 -40.554688 451.582031 C -39.402344 450.101562 -38.390625 448.515625 -37.082031 447.164062 C -36.402344 446.464844 -35.707031 445.777344 -35.015625 445.089844 C -34.984375 445.054688 -34.941406 445.03125 -34.90625 445 C -34.847656 443.988281 -34.058594 443.089844 -33.066406 442.355469 C -33.246094 442.828125 -33.472656 443.261719 -33.695312 443.738281 C -31.042969 442.148438 -28.328125 440.6875 -25.5625 439.3125 C -23.371094 437.632812 -20.320312 436.367188 -18.09375 435.503906 C -17.742188 435.375 -17.433594 435.296875 -17.082031 435.171875 C -13.484375 433.484375 -9.84375 431.746094 -6.359375 429.84375 C -0.898438 426.828125 4.183594 423.214844 9.714844 420.421875 C 15.15625 417.679688 21.011719 415.851562 26.972656 414.605469 Z M -7.8125 438.726562 C -4.625 435.261719 -0.152344 435.441406 4.472656 434.921875 C 10.039062 434.261719 14.882812 434.996094 20.394531 436.023438 C 26.09375 437.078125 31.140625 439.789062 36.632812 441.503906 C 41.097656 442.957031 45.824219 443.882812 50.253906 445.429688 C 47.675781 445.105469 45.089844 444.6875 42.527344 444.085938 C 34.335938 442.148438 26.640625 438.886719 18.21875 437.835938 C 10.582031 436.890625 2.8125 436.457031 -4.835938 437.195312 C -4.878906 437.199219 -4.925781 437.203125 -4.925781 437.203125 C -5.871094 437.707031 -6.859375 438.265625 -7.8125 438.726562 Z M 42.945312 296.703125 C 44.304688 295.335938 45.855469 294.085938 47.46875 292.964844 C 45.847656 294.449219 44.371094 296.011719 42.960938 297.75 C 41.175781 299.839844 39.277344 301.71875 38.222656 304.28125 C 37.285156 306.652344 36.371094 308.839844 34.808594 310.863281 C 31.351562 315.265625 26.15625 317.34375 21.765625 320.613281 C 19.3125 322.410156 17.417969 324.742188 15.371094 326.953125 C 13.738281 328.757812 11.65625 330.15625 10.324219 332.246094 C 10.140625 332.515625 9.875 332.566406 9.613281 332.53125 C 9.523438 332.683594 9.441406 332.835938 9.355469 332.988281 C 8.757812 334.054688 8.128906 335.09375 7.46875 336.125 C 7.289062 336.40625 6.851562 336.109375 6.984375 335.824219 C 7.5 334.714844 7.96875 333.585938 8.515625 332.492188 C 8.613281 332.300781 8.726562 332.121094 8.824219 331.929688 C 8.796875 331.859375 8.738281 331.804688 8.726562 331.726562 C 8.5 330.386719 8.847656 329.351562 9.527344 328.460938 C 9.453125 329.0625 9.382812 329.703125 9.3125 330.347656 C 13.695312 325.671875 18.710938 321.382812 23.773438 317.589844 C 26.808594 315.277344 30.105469 313.300781 32.929688 310.738281 C 35.796875 308.125 37.328125 304.875 39.167969 301.546875 C 40.050781 299.957031 41.136719 298.570312 42.320312 297.269531 C 42.527344 297.066406 42.734375 296.863281 42.945312 296.703125 Z M 42.945312 296.703125 " fill-opacity="1" fill-rule="nonzero"/></g></g></g></g><g clip-path="url(#473f5612d7)"><g clip-path="url(#11ea4a778f)"><g clip-path="url(#633a3482c3)"><g clip-path="url(#f99cdd0db3)"><path fill="#5f926a" d="M 117.871094 253.421875 C 118.316406 253.332031 118.863281 253.324219 119.039062 253.714844 C 119.109375 253.980469 118.957031 254.269531 118.800781 254.511719 C 117.660156 256.21875 116.519531 257.972656 115.378906 259.683594 C 114.078125 261.636719 112.742188 263.683594 110.890625 265.101562 C 108.871094 266.671875 106.316406 267.480469 103.816406 267.917969 C 102.65625 268.125 101.492188 268.292969 100.363281 268.359375 C 99.875 268.457031 99.378906 268.507812 98.886719 268.558594 C 97.535156 268.695312 96.039062 268.710938 94.78125 269.296875 C 94.476562 269.417969 94.109375 269.820312 93.761719 269.535156 C 93.316406 269.171875 93.761719 268.21875 93.902344 267.792969 C 94.742188 265.34375 95.625 262.886719 97.03125 260.648438 C 98.472656 258.320312 100.535156 256.242188 103.121094 255.339844 C 103.863281 255.039062 104.664062 254.867188 105.472656 254.78125 C 106.992188 254.535156 108.582031 254.554688 110.121094 254.488281 C 112.742188 254.359375 115.34375 254 117.871094 253.421875 Z M 87.546875 289.1875 C 88.304688 289.472656 89.167969 289.476562 89.929688 289.808594 C 91.585938 290.457031 93.050781 291.445312 94.472656 292.480469 C 96.675781 294.03125 98.847656 295.71875 101.382812 296.503906 C 102.878906 296.941406 104.4375 297.058594 106.007812 296.894531 C 107.453125 296.792969 108.828125 296.472656 110.183594 295.96875 C 112.988281 294.953125 115.542969 293.28125 117.953125 291.535156 C 118.160156 291.332031 118.417969 291.167969 118.480469 290.890625 C 118.496094 290.613281 118.328125 290.3125 118.085938 290.15625 C 117.796875 290.003906 117.519531 289.941406 117.242188 289.878906 C 113.210938 289.109375 109.878906 286.3125 105.917969 285.351562 C 102.941406 284.65625 99.796875 285.023438 96.78125 285.738281 C 96.738281 285.746094 96.738281 285.746094 96.738281 285.746094 C 95.980469 285.914062 95.1875 286.128906 94.433594 286.34375 C 92.179688 286.9375 90.023438 287.613281 87.820312 288.292969 C 87.070312 288.507812 86.839844 288.941406 87.546875 289.1875 Z M 90.226562 305.605469 C 90.589844 306.023438 90.949219 306.441406 91.3125 306.90625 C 91.789062 307.539062 92.449219 308.246094 93.152344 307.992188 C 93.546875 307.859375 93.78125 307.472656 93.828125 307.058594 C 93.925781 306.683594 93.839844 306.285156 93.796875 305.878906 C 93.371094 303.464844 92.941406 301.054688 92.113281 298.726562 C 91.332031 296.441406 90.109375 294.246094 88.347656 292.5625 C 87.1875 291.453125 85.734375 290.554688 84.144531 290.125 C 84.007812 290.09375 83.816406 290.023438 83.675781 289.992188 C 83.164062 289.863281 82.652344 289.734375 82.078125 289.472656 C 81.507812 289.214844 81.039062 289.078125 80.425781 289.277344 C 81.886719 290.265625 82.257812 292.09375 82.335938 293.769531 C 82.371094 295.449219 82.191406 297.238281 82.894531 298.761719 C 83.769531 300.671875 85.746094 301.789062 87.417969 303.027344 C 88.449219 303.785156 89.355469 304.648438 90.226562 305.605469 Z M 22.703125 281.082031 C 23.738281 280.519531 24.785156 280.097656 25.832031 279.671875 C 27.054688 279.179688 28.324219 278.734375 29.542969 278.199219 C 32.503906 276.941406 35.503906 275.179688 36.980469 272.296875 C 38.234375 269.894531 38.214844 267.03125 38.207031 264.300781 C 38.164062 261.667969 38.121094 259.035156 38.121094 256.351562 C 38.089844 256.035156 38.097656 255.671875 37.847656 255.46875 C 37.796875 255.429688 37.699219 255.347656 37.609375 255.355469 C 37.242188 255.304688 36.851562 255.480469 36.554688 255.691406 C 34.941406 256.8125 33.324219 257.886719 31.707031 258.964844 C 29.964844 260.140625 28.230469 261.367188 26.992188 263.039062 C 25.28125 265.398438 24.808594 268.355469 24.003906 271.125 C 23.707031 272.148438 23.332031 273.148438 22.949219 274.148438 C 22.9375 272.949219 22.851562 271.75 22.628906 270.582031 C 21.957031 267.101562 20.527344 263.792969 19.0625 260.574219 C 18.65625 259.707031 17.960938 258.6875 17.03125 258.917969 C 16.5 259.0625 16.191406 259.59375 15.964844 260.074219 L 15.925781 260.121094 C 14.816406 262.148438 13.707031 264.171875 13.117188 266.414062 C 12.484375 268.664062 12.421875 271.171875 13.40625 273.253906 C 14.46875 275.648438 16.730469 277.324219 17.925781 279.660156 C 18.382812 280.570312 18.8125 281.660156 19.796875 281.972656 C 20.03125 282.050781 20.28125 281.992188 20.527344 281.964844 C 21.230469 282.074219 22.207031 281.320312 22.703125 281.082031 Z M 95.429688 395.097656 C 95.046875 395.363281 94.714844 395.671875 94.484375 396.058594 C 94.246094 396.464844 94.25 397.078125 94.59375 397.417969 C 94.585938 397.414062 94.582031 397.414062 94.578125 397.414062 C 92.757812 396.960938 90.707031 396.898438 91.792969 399.515625 C 92.457031 401.132812 92.910156 402.449219 93.050781 404.253906 C 93.15625 405.746094 93.226562 407.332031 94.046875 408.65625 C 94.921875 410.113281 96.507812 410.953125 98.113281 411.5625 C 99.203125 411.996094 100.289062 412.386719 101.300781 412.964844 C 101.777344 413.1875 102.214844 413.460938 102.660156 413.824219 C 103.105469 414.191406 103.703125 414.675781 104.269531 414.433594 C 104.789062 414.199219 104.855469 413.511719 104.890625 412.960938 C 104.910156 411.367188 104.96875 409.722656 104.714844 408.15625 C 104.234375 405.203125 102.679688 402.453125 100.472656 400.449219 C 99.121094 399.222656 97.53125 398.339844 95.792969 397.742188 C 95.628906 397.699219 95.441406 397.652344 95.265625 397.601562 C 95.691406 397.570312 96.234375 397.289062 96.648438 397.246094 C 98.398438 397.023438 100.269531 397.558594 101.957031 398.066406 C 103.554688 398.585938 105.113281 399.15625 106.773438 399.394531 C 107.371094 399.46875 107.96875 399.546875 108.605469 399.527344 C 111.191406 399.488281 113.65625 398.28125 115.625 396.667969 C 117.636719 395.007812 119.292969 392.972656 120.855469 390.949219 C 121.097656 390.652344 121.375 390.257812 121.292969 389.902344 C 121.136719 389.238281 120.183594 389.242188 119.515625 389.402344 C 117.867188 389.707031 116.183594 389.699219 114.523438 389.457031 C 112.03125 389.078125 109.605469 388.003906 107.125 388.167969 L 106.988281 388.183594 C 103.925781 388.449219 101.316406 390.445312 98.917969 392.328125 C 97.742188 393.269531 96.5625 394.164062 95.429688 395.097656 Z M -161.558594 449.5 C -161.1875 448.6875 -161.015625 447.714844 -160.773438 446.960938 C -160.113281 444.984375 -159.457031 442.960938 -159.125 440.878906 C -158.523438 436.996094 -159.246094 433.023438 -160.796875 429.40625 C -162.34375 425.832031 -164.71875 422.621094 -167.460938 419.808594 C -167.765625 419.476562 -168.121094 419.101562 -168.546875 418.964844 C -168.925781 418.773438 -169.425781 418.78125 -169.808594 419.046875 C -169.851562 419.050781 -169.847656 419.097656 -169.894531 419.101562 C -170.300781 419.550781 -170.1875 420.222656 -170.167969 420.859375 C -169.964844 423.746094 -171.878906 426.355469 -172.402344 429.226562 C -173.046875 432.707031 -171.597656 436.195312 -169.871094 439.296875 C -168.039062 442.566406 -166.046875 445.589844 -165.121094 449.316406 C -164.769531 450.554688 -164.296875 452.054688 -162.757812 451.121094 C -162.160156 450.742188 -161.808594 450.160156 -161.558594 449.5 Z M 73.429688 465.171875 C 73.035156 465.757812 72.113281 465.625 71.453125 465.371094 C 70.605469 465.09375 69.714844 464.824219 68.910156 464.496094 C 68.863281 464.5 68.863281 464.5 68.859375 464.457031 C 67.960938 464.09375 67.09375 463.636719 66.265625 463.082031 C 64.664062 462.066406 63.328125 460.5625 62.734375 458.757812 C 61.527344 454.96875 64.003906 450.757812 62.972656 446.863281 C 62.890625 446.539062 62.878906 446.222656 62.914062 445.929688 C 62.414062 446.023438 61.894531 446.117188 61.382812 445.980469 C 59.851562 445.679688 60.375 444.582031 61.355469 443.933594 C 64.15625 442.011719 65.058594 437.960938 67.929688 436.257812 C 68.050781 436.109375 68.132812 436.054688 68.265625 435.996094 C 69.734375 435.253906 71.457031 435.214844 73.089844 435.183594 C 74.265625 435.152344 75.449219 435.167969 76.628906 435.140625 C 76.992188 435.148438 77.355469 435.15625 77.648438 435.351562 C 78.050781 435.722656 77.894531 436.421875 77.671875 436.898438 C 76.511719 439.789062 74.402344 442.234375 71.699219 443.785156 C 70.078125 444.75 68.402344 445.203125 66.640625 445.453125 C 66.871094 445.46875 67.101562 445.484375 67.324219 445.460938 C 68.59375 445.421875 69.855469 444.882812 70.992188 444.449219 C 71.910156 444.082031 72.824219 443.714844 73.746094 443.394531 C 73.792969 443.390625 73.882812 443.382812 73.921875 443.332031 C 74.402344 443.144531 74.886719 443.003906 75.375 442.863281 L 75.417969 442.859375 C 75.503906 442.804688 75.59375 442.796875 75.730469 442.78125 C 76.523438 442.566406 77.378906 442.476562 78.246094 442.523438 C 79.796875 442.59375 81.265625 443.171875 82.648438 443.804688 C 85.511719 445.148438 88.140625 446.878906 90.535156 448.957031 C 90.980469 449.320312 91.445312 449.863281 91.277344 450.425781 C 91.152344 450.984375 90.445312 451.191406 89.910156 451.292969 C 86.976562 451.914062 84.085938 452.527344 81.195312 453.140625 C 80.96875 453.164062 80.796875 453.226562 80.570312 453.25 C 78.929688 453.644531 77.277344 453.90625 75.648438 453.527344 C 71.488281 452.59375 69.070312 448.308594 65.484375 446.265625 C 65.8125 446.695312 66.132812 447.144531 66.535156 447.5 C 68.570312 449.199219 70.027344 451.460938 71.054688 453.949219 C 72.375 457.089844 72.953125 460.488281 73.566406 463.835938 C 73.613281 464.289062 73.707031 464.777344 73.429688 465.171875 Z M 65.472656 445.59375 C 65.300781 445.609375 65.128906 445.621094 64.957031 445.632812 C 64.964844 445.640625 64.976562 445.648438 64.984375 445.65625 C 65.054688 445.726562 65.109375 445.820312 65.179688 445.894531 C 65.269531 445.773438 65.363281 445.65625 65.472656 445.59375 Z M -45.945312 363.660156 C -45.90625 363.613281 -45.957031 363.570312 -45.957031 363.570312 L -45.988281 363.257812 C -45.992188 363.105469 -45.972656 362.957031 -45.96875 362.804688 C -45.753906 362.886719 -45.519531 362.886719 -45.320312 362.6875 C -45.121094 362.394531 -45.300781 361.546875 -45.195312 361.21875 C -44.851562 359.726562 -43.777344 358.207031 -43.007812 356.855469 C -42.890625 356.664062 -42.820312 356.472656 -42.703125 356.277344 C -41.496094 353.882812 -40.25 351.386719 -40.164062 348.695312 C -40.09375 345.367188 -41.863281 342.273438 -43.738281 339.507812 C -45.769531 336.53125 -48.113281 333.589844 -51.421875 332.332031 C -52.183594 332.003906 -53.109375 331.824219 -53.792969 332.257812 C -53.832031 332.308594 -53.878906 332.3125 -53.917969 332.363281 C -54.386719 332.683594 -54.644531 333.253906 -54.820312 333.773438 C -55.867188 336.835938 -55.289062 340.28125 -54.027344 343.289062 C -53.0625 345.566406 -51.742188 347.695312 -50.492188 349.851562 C -53.5625 346.507812 -57.78125 344.285156 -62.203125 343.308594 C -62.617188 343.257812 -63.035156 343.164062 -63.441406 343.207031 C -63.625 343.179688 -63.804688 343.199219 -64.03125 343.222656 C -64.609375 343.328125 -65.207031 343.707031 -65.375 344.269531 C -65.550781 344.789062 -65.359375 345.3125 -65.214844 345.84375 C -64.617188 347.695312 -64.023438 349.5 -63.46875 351.351562 C -62.953125 352.847656 -62.480469 354.390625 -61.449219 355.558594 C -60.3125 356.898438 -58.691406 357.640625 -57.09375 358.160156 C -55.453125 358.675781 -53.738281 359 -52.171875 359.660156 C -50.5625 360.265625 -49.050781 361.296875 -48.214844 362.800781 C -48 363.144531 -47.871094 363.496094 -47.609375 363.832031 C -47.296875 364.210938 -46.71875 364.558594 -46.246094 364.285156 C -45.949219 364.070312 -45.921875 363.886719 -45.945312 363.660156 Z M -100.164062 349.136719 C -99.464844 348.871094 -98.503906 348.144531 -98.035156 347.882812 C -96.269531 346.929688 -94.375 346.371094 -92.46875 345.902344 C -91.984375 345.761719 -91.449219 345.664062 -90.964844 345.523438 C -88.613281 344.964844 -86.265625 344.359375 -84.214844 343.101562 C -81.273438 341.210938 -79.363281 338.105469 -78.246094 334.804688 C -77.175781 331.511719 -76.851562 328.023438 -76.527344 324.53125 C -76.484375 324.070312 -76.449219 323.523438 -76.761719 323.144531 C -77.277344 322.515625 -78.292969 322.800781 -79.03125 323.148438 C -82.363281 324.765625 -85.703125 326.335938 -89.085938 327.910156 C -89.34375 328.027344 -89.5625 328.140625 -89.820312 328.257812 C -91.640625 329.125 -93.40625 330.078125 -94.65625 331.617188 C -95.957031 333.113281 -96.578125 335.042969 -97.203125 336.925781 C -97.886719 338.992188 -98.558594 341.046875 -99.230469 343.097656 C -99.101562 341.179688 -99.242188 339.25 -99.703125 337.363281 C -100.527344 333.765625 -102.144531 330.382812 -103.976562 327.113281 C -104.597656 325.945312 -105.308594 324.746094 -106.230469 323.75 C -106.6875 323.25 -107.289062 322.71875 -107.957031 322.832031 C -108.359375 322.921875 -108.695312 323.183594 -108.886719 323.519531 C -109.054688 323.671875 -109.121094 323.90625 -109.191406 324.097656 C -109.3125 324.699219 -109.246094 325.332031 -109.234375 325.921875 C -109.152344 328.050781 -109.570312 330.1875 -109.851562 332.308594 C -110.128906 334.472656 -110.222656 336.667969 -109.515625 338.6875 C -108.144531 342.777344 -103.980469 345.308594 -102.261719 349.226562 C -101.652344 350.539062 -100.6875 350.316406 -100.164062 349.136719 Z M 2.621094 529.777344 C 3.042969 529.460938 2.703125 528.765625 2.339844 528.347656 C -0.214844 525.5625 -2.777344 522.730469 -5.898438 520.640625 C -7.125 519.816406 -8.480469 519.164062 -9.871094 518.644531 C -9.617188 518.660156 -9.351562 518.679688 -9.097656 518.691406 C -5.894531 518.910156 -2.378906 518.640625 0.046875 516.574219 C 1.503906 515.289062 2.414062 513.511719 3.183594 511.703125 C 4.34375 508.855469 5.269531 505.898438 5.363281 502.839844 C 5.359375 502.339844 5.292969 501.707031 4.855469 501.433594 C 4.136719 501.054688 3.445312 501.851562 2.960938 502.449219 C 1.304688 504.4375 -1.457031 504.992188 -4.015625 505.300781 L -4.554688 505.355469 C -6.894531 505.59375 -9.414062 505.804688 -11.378906 507.054688 C -14.023438 508.734375 -15.203125 511.855469 -16.851562 514.390625 C -17.152344 514.859375 -17.96875 515.664062 -18.652344 516.457031 C -18.382812 515.113281 -18.539062 513.582031 -18.695312 512.351562 C -18.996094 509.878906 -19.511719 507.476562 -20.300781 505.101562 C -21.171875 502.367188 -22.460938 499.542969 -24.890625 497.972656 C -25.277344 497.738281 -25.757812 497.515625 -26.140625 497.738281 C -26.230469 497.746094 -26.277344 497.75 -26.316406 497.800781 C -26.570312 498.007812 -26.625 498.332031 -26.683594 498.65625 C -27.050781 500.832031 -27.421875 503.007812 -27.789062 505.183594 C -28.078125 506.804688 -28.359375 508.472656 -27.925781 510.066406 C -27.105469 513.210938 -24.019531 514.941406 -22.167969 517.484375 C -21.371094 518.597656 -20.652344 519.652344 -19.539062 518.382812 C -19.5 518.488281 -19.417969 518.542969 -19.347656 518.613281 C -19.605469 518.753906 -19.824219 518.933594 -19.902344 519.207031 C -20.050781 519.539062 -19.875 519.929688 -19.742188 520.328125 C -18.40625 523.601562 -16.777344 527.121094 -13.609375 528.753906 C -12.03125 529.546875 -10.195312 529.722656 -8.375 529.761719 C -7.960938 529.8125 -7.503906 529.8125 -7.097656 529.8125 C -4.046875 529.867188 -1.046875 529.878906 1.957031 529.933594 C 2.1875 529.957031 2.457031 529.929688 2.621094 529.777344 Z M 2.621094 529.777344 " fill-opacity="1" fill-rule="nonzero"/></g></g></g></g><g clip-path="url(#184425c530)"><g clip-path="url(#29388c2ca8)"><g clip-path="url(#26a375faa4)"><g clip-path="url(#dfa69fc87b)"><path fill="#587e60" d="M -47.171875 359.519531 C -47.15625 359.707031 -47.34375 359.828125 -47.507812 359.761719 C -48.082031 359.539062 -48.484375 358.878906 -48.792969 358.375 C -49.125 357.828125 -49.445312 357.269531 -49.753906 356.707031 C -50.421875 355.492188 -51.097656 354.246094 -52.054688 353.230469 C -53.082031 352.140625 -54.410156 351.375 -55.667969 350.585938 C -56.949219 349.785156 -58.195312 348.734375 -59.632812 348.230469 C -59.898438 348.136719 -59.757812 347.710938 -59.488281 347.761719 C -58.019531 348.054688 -56.742188 349.101562 -55.457031 349.824219 C -54.113281 350.582031 -52.710938 351.371094 -51.601562 352.457031 C -50.578125 353.453125 -49.808594 354.65625 -49.085938 355.882812 C -48.714844 356.511719 -48.367188 357.160156 -47.992188 357.789062 C -47.679688 358.308594 -47.230469 358.90625 -47.171875 359.519531 Z M 94.804688 398.199219 C 94.75 397.996094 94.710938 397.789062 94.640625 397.589844 C 94.636719 397.542969 94.582031 397.457031 94.578125 397.414062 C 92.757812 396.960938 90.707031 396.898438 91.792969 399.515625 C 92.457031 401.132812 92.910156 402.449219 93.050781 404.253906 C 93.15625 405.746094 93.226562 407.332031 94.046875 408.65625 C 94.921875 410.113281 96.507812 410.953125 98.113281 411.5625 C 99.203125 411.996094 100.289062 412.386719 101.300781 412.964844 C 101.246094 412.878906 101.191406 412.792969 101.144531 412.753906 C 99.648438 411.039062 97.570312 409.796875 96.453125 407.773438 C 95.117188 405.363281 95.484375 402.402344 95.097656 399.625 C 95.652344 399.84375 96.207031 400.066406 96.652344 400.441406 C 97.691406 401.316406 98.371094 402.542969 99.226562 403.582031 C 100.941406 405.671875 102.117188 408.296875 102.59375 410.953125 C 102.644531 411.246094 103.085938 411.210938 103.058594 410.90625 C 102.789062 408.019531 101.769531 405.191406 100.015625 402.882812 C 99.167969 401.761719 98.425781 400.507812 97.351562 399.585938 C 96.695312 399.019531 95.75 398.496094 94.804688 398.199219 Z M -161.558594 449.5 C -161.671875 449.28125 -161.78125 449.113281 -161.890625 448.941406 C -162.132812 448.566406 -162.363281 448.179688 -162.601562 447.796875 C -162.324219 445.71875 -163.089844 443.476562 -163.160156 441.414062 C -163.246094 438.78125 -162.910156 436.175781 -163.121094 433.542969 C -163.527344 428.503906 -165.300781 423.703125 -168.589844 419.832031 C -168.804688 419.578125 -169.203125 419.859375 -169.011719 420.140625 C -165.988281 424.578125 -164.234375 429.261719 -164.171875 434.664062 C -164.144531 437.144531 -164.464844 439.613281 -164.339844 442.09375 C -164.28125 443.277344 -164.027344 444.398438 -163.839844 445.5625 C -163.832031 445.617188 -163.832031 445.679688 -163.824219 445.738281 C -166.714844 440.625 -168.792969 435.027344 -169.085938 429.207031 C -169.207031 425.808594 -168.84375 422.269531 -169.808594 419.046875 C -169.855469 419.050781 -169.847656 419.097656 -169.894531 419.101562 C -170.300781 419.550781 -170.1875 420.222656 -170.167969 420.859375 C -169.964844 423.746094 -171.878906 426.355469 -172.402344 429.226562 C -173.046875 432.707031 -171.597656 436.195312 -169.871094 439.296875 C -168.039062 442.566406 -166.046875 445.589844 -165.121094 449.316406 C -164.769531 450.554688 -164.296875 452.054688 -162.757812 451.121094 C -162.160156 450.742188 -161.808594 450.160156 -161.558594 449.5 Z M -11.53125 527.765625 C -13.601562 525.75 -14.449219 522.789062 -15.96875 520.351562 C -16.203125 519.964844 -16.457031 519.597656 -16.742188 519.253906 C -16.175781 519.484375 -15.617188 519.75 -15.09375 520.023438 C -13.335938 520.949219 -11.695312 522.117188 -10.160156 523.378906 C -8.703125 524.574219 -7.148438 525.601562 -5.507812 526.53125 C -4.742188 526.964844 -3.988281 527.441406 -3.132812 527.679688 C -2.195312 527.941406 -1.191406 527.855469 -0.28125 528.238281 C 0.109375 528.40625 0.359375 527.839844 -0.0117188 527.644531 C -0.742188 527.257812 -1.539062 527.160156 -2.335938 526.976562 C -3.425781 526.726562 -4.316406 526.09375 -5.242188 525.5 C -6.988281 524.382812 -8.46875 523.085938 -9.988281 521.691406 C -11.410156 520.382812 -12.972656 519.261719 -14.667969 518.335938 C -15.011719 518.144531 -15.476562 517.921875 -15.980469 517.710938 C -15.804688 517.542969 -15.625 517.371094 -15.445312 517.222656 C -14.613281 516.527344 -13.683594 515.996094 -12.710938 515.527344 C -10.515625 514.464844 -8.21875 513.839844 -5.914062 513.082031 C -3.875 512.414062 -1.894531 511.890625 -0.339844 510.351562 C 1.199219 508.828125 2.449219 507.410156 3.5 505.507812 C 3.664062 505.207031 3.21875 504.972656 3.007812 505.203125 C 1.511719 506.835938 0.195312 508.554688 -1.660156 509.820312 C -2.6875 510.523438 -3.996094 510.585938 -5.1875 510.820312 C -6.300781 511.039062 -7.40625 511.261719 -8.511719 511.53125 C -9.226562 511.707031 -9.902344 511.941406 -10.585938 512.160156 C -10.566406 512.121094 -10.519531 512.097656 -10.503906 512.058594 C -10.273438 511.625 -10.234375 511.121094 -10.101562 510.652344 C -9.542969 508.546875 -7.808594 506.871094 -5.863281 505.898438 C -5.429688 505.671875 -5.039062 505.496094 -4.554688 505.355469 C -6.894531 505.59375 -9.414062 505.804688 -11.378906 507.054688 C -14.023438 508.734375 -15.203125 511.855469 -16.851562 514.390625 C -17.269531 515.042969 -18.667969 516.328125 -19.316406 517.347656 C -19.332031 517.351562 -19.351562 517.347656 -19.367188 517.355469 C -19.617188 514.355469 -21.160156 511.996094 -22.667969 509.414062 C -23.636719 507.75 -23.652344 506.140625 -23.792969 504.273438 C -23.917969 502.628906 -24.375 501.023438 -25.105469 499.546875 C -25.203125 499.347656 -25.519531 499.460938 -25.433594 499.675781 C -24.710938 501.488281 -24.492188 503.328125 -24.558594 505.265625 C -24.617188 506.882812 -24.460938 508.253906 -23.691406 509.703125 C -22.917969 511.164062 -21.972656 512.511719 -21.28125 514.019531 C -21.039062 514.546875 -20.851562 515.085938 -20.703125 515.636719 C -21.054688 515.171875 -21.414062 514.707031 -21.8125 514.308594 C -22.882812 513.1875 -24.085938 512.082031 -24.855469 510.753906 C -26.066406 508.691406 -26.28125 506.167969 -26.207031 503.75 C -26.1875 501.746094 -25.984375 499.722656 -26.140625 497.738281 C -26.230469 497.746094 -26.277344 497.75 -26.316406 497.800781 C -26.570312 498.007812 -26.625 498.332031 -26.683594 498.65625 C -27.050781 500.832031 -27.421875 503.007812 -27.789062 505.183594 C -28.078125 506.804688 -28.359375 508.472656 -27.925781 510.066406 C -27.105469 513.210938 -24.019531 514.941406 -22.167969 517.484375 C -21.386719 518.578125 -20.679688 519.613281 -19.605469 518.457031 C -19.503906 518.523438 -19.382812 518.539062 -19.269531 518.578125 C -19.5625 518.722656 -19.816406 518.90625 -19.902344 519.207031 C -20.050781 519.539062 -19.875 519.933594 -19.742188 520.328125 C -18.40625 523.601562 -16.777344 527.121094 -13.609375 528.753906 C -12.03125 529.546875 -10.195312 529.722656 -8.375 529.761719 C -9.558594 529.292969 -10.625 528.628906 -11.53125 527.765625 Z M 64.871094 459.222656 C 64.273438 456.917969 64.933594 454.484375 65.371094 452.121094 C 65.515625 451.445312 65.617188 450.746094 65.679688 450.042969 C 65.6875 450.054688 65.699219 450.0625 65.707031 450.078125 C 66.410156 451.070312 66.964844 452.164062 67.453125 453.273438 C 68.039062 454.613281 68.375 456.042969 68.933594 457.394531 C 69.484375 458.726562 70.144531 459.996094 70.257812 461.460938 C 70.285156 461.757812 70.726562 461.707031 70.714844 461.414062 C 70.675781 460.003906 70.15625 458.675781 69.699219 457.359375 C 69.167969 455.824219 68.789062 454.238281 68.191406 452.726562 C 67.726562 451.558594 67.171875 450.425781 66.464844 449.386719 C 66.234375 449.050781 65.972656 448.707031 65.695312 448.371094 C 65.640625 447.5625 65.460938 446.785156 65.132812 446.050781 C 68.921875 448 71.347656 452.566406 75.648438 453.527344 C 77.277344 453.90625 78.929688 453.644531 80.570312 453.25 C 80.386719 453.222656 80.242188 453.148438 80.097656 453.070312 C 79.003906 452.589844 77.949219 452.0625 77.015625 451.382812 C 75.890625 450.589844 74.925781 449.597656 74.132812 448.496094 C 73.671875 447.902344 73.320312 447.214844 73.234375 446.472656 C 73.542969 446.464844 73.855469 446.445312 74.15625 446.457031 C 75.601562 446.519531 77.066406 446.652344 78.488281 446.917969 C 79.941406 447.195312 81.335938 447.707031 82.777344 448.027344 C 84.183594 448.335938 85.605469 448.546875 86.921875 449.15625 C 87.167969 449.269531 87.324219 448.90625 87.09375 448.777344 C 85.863281 448.089844 84.503906 447.753906 83.160156 447.359375 C 81.648438 446.917969 80.1875 446.308594 78.648438 445.964844 C 77.144531 445.625 75.566406 445.476562 74.027344 445.402344 C 73.804688 445.394531 73.574219 445.382812 73.347656 445.375 C 73.507812 444.898438 73.746094 444.445312 74.089844 444.085938 C 74.585938 443.582031 75.132812 443.160156 75.730469 442.78125 C 75.769531 442.734375 75.859375 442.722656 75.898438 442.675781 C 75.722656 442.738281 75.59375 442.796875 75.417969 442.859375 L 75.375 442.863281 C 74.894531 443.050781 74.414062 443.234375 73.921875 443.332031 C 73.882812 443.382812 73.792969 443.390625 73.746094 443.394531 C 72.824219 443.714844 71.910156 444.082031 70.992188 444.449219 C 69.855469 444.882812 68.59375 445.421875 67.324219 445.460938 C 66.53125 445.542969 65.605469 445.132812 65.101562 445.972656 C 65.054688 445.871094 65.039062 445.757812 64.984375 445.65625 C 64.878906 445.53125 64.730469 445.410156 64.582031 445.289062 C 64.480469 445.222656 64.414062 445.242188 64.324219 445.199219 C 64.625 444.957031 64.890625 444.671875 65.144531 444.375 C 65.789062 444.109375 66.40625 443.753906 67.007812 443.425781 C 68.113281 442.816406 69.183594 442.164062 70.21875 441.445312 C 72.285156 440.011719 74.09375 438.367188 75.730469 436.457031 C 75.886719 436.273438 75.617188 435.96875 75.429688 436.140625 C 73.621094 437.765625 71.585938 439.207031 69.519531 440.484375 C 68.480469 441.125 67.414062 441.730469 66.339844 442.304688 C 66.335938 442.308594 66.332031 442.308594 66.332031 442.308594 C 66.414062 442.097656 66.511719 441.890625 66.574219 441.671875 C 66.929688 440.269531 66.964844 438.8125 67.367188 437.453125 C 67.503906 436.984375 67.644531 436.605469 67.929688 436.257812 C 65.058594 437.960938 64.15625 442.011719 61.355469 443.933594 C 60.375 444.582031 59.851562 445.679688 61.382812 445.980469 C 61.894531 446.117188 62.414062 446.023438 62.914062 445.929688 C 62.878906 446.222656 62.890625 446.539062 62.972656 446.863281 C 64.003906 450.757812 61.527344 454.96875 62.734375 458.757812 C 63.328125 460.5625 64.664062 462.066406 66.265625 463.082031 C 67.09375 463.636719 67.960938 464.09375 68.859375 464.457031 C 68.269531 464.015625 67.71875 463.527344 67.214844 463.03125 C 66.152344 461.957031 65.292969 460.679688 64.871094 459.222656 Z M 95.429688 395.097656 C 95.046875 395.363281 94.714844 395.671875 94.484375 396.058594 C 94.171875 396.589844 94.265625 397.488281 95.007812 397.640625 C 95.429688 397.78125 96.152344 397.296875 96.648438 397.246094 C 98.398438 397.023438 100.269531 397.558594 101.957031 398.066406 C 103.554688 398.585938 105.113281 399.15625 106.773438 399.394531 C 105.417969 398.171875 104.109375 396.988281 102.765625 395.808594 C 104.5 395.785156 106.265625 395.75 107.988281 395.566406 C 109.734375 395.378906 111.46875 394.957031 113.070312 394.226562 C 114.726562 393.46875 116.203125 392.375 117.9375 391.769531 C 118.15625 391.695312 118.078125 391.316406 117.839844 391.363281 C 116.023438 391.722656 114.390625 392.558594 112.671875 393.203125 C 110.808594 393.898438 108.890625 394.273438 106.90625 394.371094 C 105.273438 394.449219 103.636719 394.480469 102.003906 394.5 C 102.023438 394.21875 102.128906 393.929688 102.28125 393.667969 C 103.421875 391.503906 104.730469 389.1875 106.988281 388.183594 C 103.925781 388.449219 101.316406 390.445312 98.917969 392.328125 C 97.742188 393.269531 96.5625 394.164062 95.429688 395.097656 Z M 87.96875 301.289062 C 87.03125 300.109375 85.628906 299.300781 84.902344 297.964844 C 83.953125 296.28125 84.207031 294.238281 84.09375 292.285156 C 84.566406 292.609375 85.078125 292.898438 85.519531 293.222656 C 86.777344 294.136719 87.691406 295.523438 88.304688 296.9375 C 88.941406 298.410156 89.371094 299.980469 89.933594 301.484375 C 90.21875 302.253906 90.484375 303.027344 90.863281 303.761719 C 91.238281 304.492188 91.65625 305.207031 91.960938 305.96875 C 92.046875 306.191406 92.4375 306.121094 92.386719 305.867188 C 92.058594 304.308594 91.253906 302.839844 90.746094 301.328125 C 90.183594 299.671875 89.769531 297.945312 89.101562 296.332031 C 88.542969 294.980469 87.835938 293.652344 86.75 292.648438 C 85.953125 291.910156 84.914062 291.171875 83.871094 290.664062 C 83.8125 290.433594 83.761719 290.203125 83.675781 289.992188 C 83.164062 289.863281 82.652344 289.734375 82.078125 289.472656 C 81.507812 289.214844 81.039062 289.078125 80.425781 289.277344 C 81.886719 290.265625 82.257812 292.09375 82.335938 293.769531 C 82.371094 295.449219 82.191406 297.238281 82.894531 298.761719 C 83.769531 300.671875 85.746094 301.789062 87.417969 303.027344 C 88.449219 303.785156 89.355469 304.648438 90.226562 305.605469 C 89.53125 304.132812 89.003906 302.546875 87.96875 301.289062 Z M 87.546875 289.1875 C 88.304688 289.472656 89.167969 289.476562 89.929688 289.808594 C 91.585938 290.457031 93.050781 291.445312 94.472656 292.480469 C 96.675781 294.03125 98.847656 295.71875 101.382812 296.503906 C 102.878906 296.941406 104.4375 297.058594 106.007812 296.894531 C 103.25 296.132812 100.65625 294.757812 98.46875 292.890625 C 96.835938 291.527344 95.402344 289.894531 93.671875 288.691406 C 94.957031 288.644531 96.238281 288.5625 97.511719 288.742188 C 99.429688 289.007812 101.234375 289.746094 103.09375 290.253906 C 104.894531 290.75 106.714844 291.433594 108.566406 291.695312 C 110.589844 291.984375 112.644531 291.785156 114.648438 291.453125 C 114.90625 291.410156 114.871094 291.039062 114.609375 291.046875 C 112.390625 291.117188 110.125 291.160156 107.953125 290.636719 C 106.046875 290.179688 104.113281 289.5 102.257812 288.875 C 99.503906 287.945312 96.632812 287.183594 93.75 287.386719 C 94.785156 286.910156 95.796875 286.394531 96.738281 285.746094 C 95.980469 285.914062 95.1875 286.128906 94.433594 286.34375 C 92.179688 286.9375 90.023438 287.613281 87.820312 288.292969 C 87.070312 288.507812 86.839844 288.941406 87.546875 289.1875 Z M 97.03125 260.648438 C 95.625 262.886719 94.742188 265.34375 93.902344 267.792969 C 93.761719 268.21875 93.316406 269.171875 93.761719 269.535156 C 94.109375 269.820312 94.476562 269.417969 94.78125 269.296875 C 96.039062 268.710938 97.535156 268.695312 98.886719 268.558594 C 99.378906 268.507812 99.875 268.457031 100.363281 268.359375 C 100.101562 268.023438 99.707031 267.699219 99.441406 267.316406 C 98.898438 266.683594 98.625 265.871094 98.535156 265.027344 C 99.292969 264.324219 100 263.550781 100.804688 262.902344 C 102.246094 261.738281 104.164062 261.089844 105.875 260.417969 C 107.652344 259.71875 109.542969 259.21875 111.230469 258.3125 C 112.722656 257.507812 113.878906 256.070312 115.597656 255.738281 C 115.878906 255.683594 115.84375 255.265625 115.550781 255.289062 C 113.964844 255.4375 112.761719 256.316406 111.425781 257.09375 C 109.601562 258.15625 107.421875 258.605469 105.449219 259.320312 C 103.757812 259.933594 101.921875 260.535156 100.421875 261.542969 C 99.820312 261.945312 99.253906 262.480469 98.691406 263.007812 C 99.03125 261.699219 99.746094 260.496094 100.535156 259.382812 C 101.457031 258.152344 102.515625 256.949219 103.730469 255.960938 C 104.277344 255.542969 104.871094 255.117188 105.472656 254.78125 C 104.664062 254.867188 103.863281 255.039062 103.121094 255.339844 C 100.535156 256.242188 98.472656 258.320312 97.03125 260.648438 Z M 22.703125 281.082031 C 23.738281 280.519531 24.785156 280.097656 25.832031 279.671875 C 25.71875 279 25.507812 278.292969 25.484375 277.613281 C 25.480469 277.332031 25.542969 277.058594 25.597656 276.785156 C 27.011719 276.164062 28.324219 275.007812 29.367188 274.027344 C 30.773438 272.707031 32.039062 271.210938 33.074219 269.585938 C 35.285156 266.101562 36.023438 262.269531 36.671875 258.269531 C 36.730469 257.929688 36.25 257.867188 36.160156 258.179688 C 35.117188 261.867188 34.066406 265.609375 31.878906 268.796875 C 30.871094 270.261719 29.714844 271.59375 28.433594 272.828125 C 27.796875 273.441406 27.125 274.003906 26.457031 274.582031 C 26.710938 274.105469 26.972656 273.632812 27.210938 273.160156 C 28.253906 270.917969 28.539062 268.386719 29.347656 266.074219 C 30.855469 261.734375 34.242188 258.429688 37.609375 255.355469 C 37.242188 255.304688 36.851562 255.480469 36.554688 255.691406 C 34.941406 256.8125 33.324219 257.886719 31.707031 258.964844 C 29.964844 260.140625 28.230469 261.367188 26.992188 263.039062 C 25.28125 265.398438 24.808594 268.355469 24.003906 271.125 C 23.367188 273.320312 22.488281 275.449219 21.441406 277.492188 C 20.921875 274.710938 19.023438 272.453125 18.027344 269.804688 C 17.515625 268.449219 17.585938 267.066406 17.507812 265.640625 C 17.433594 264.265625 17.238281 262.785156 17.777344 261.472656 C 17.898438 261.175781 17.480469 260.992188 17.328125 261.269531 C 16.679688 262.421875 16.574219 263.8125 16.542969 265.113281 C 16.507812 266.605469 16.28125 268.210938 16.609375 269.683594 C 16.960938 271.273438 17.8125 272.953125 18.660156 274.335938 C 19.148438 275.132812 19.738281 275.828125 20.136719 276.679688 C 20.40625 277.253906 20.6875 277.792969 21.050781 278.289062 C 20.957031 278.464844 20.890625 278.648438 20.792969 278.820312 C 20.789062 278.828125 20.777344 278.84375 20.773438 278.855469 C 18.898438 276.695312 16.984375 274.558594 15.953125 271.945312 C 15.035156 269.628906 14.914062 267.09375 15.117188 264.664062 C 15.277344 263.101562 15.578125 261.613281 15.925781 260.121094 C 14.816406 262.148438 13.707031 264.171875 13.117188 266.414062 C 12.484375 268.664062 12.421875 271.171875 13.40625 273.253906 C 14.46875 275.648438 16.730469 277.324219 17.925781 279.660156 C 18.382812 280.570312 18.8125 281.660156 19.796875 281.972656 C 20.03125 282.050781 20.28125 281.992188 20.527344 281.964844 C 21.230469 282.074219 22.207031 281.320312 22.703125 281.082031 Z M -45.945312 363.660156 C -45.90625 363.613281 -45.957031 363.570312 -45.957031 363.570312 C -46.734375 361.742188 -47.902344 360.085938 -49.398438 358.785156 C -52.84375 355.769531 -57.820312 354.640625 -60.636719 351.0625 C -62.367188 348.828125 -63.058594 346.035156 -63.441406 343.207031 C -63.625 343.179688 -63.804688 343.199219 -64.03125 343.222656 C -64.609375 343.328125 -65.207031 343.707031 -65.375 344.269531 C -65.550781 344.789062 -65.359375 345.3125 -65.214844 345.84375 C -64.617188 347.695312 -64.023438 349.5 -63.46875 351.351562 C -62.953125 352.847656 -62.480469 354.390625 -61.449219 355.558594 C -60.3125 356.898438 -58.691406 357.640625 -57.09375 358.160156 C -55.453125 358.675781 -53.738281 359 -52.171875 359.660156 C -50.5625 360.265625 -49.050781 361.296875 -48.214844 362.800781 C -48 363.144531 -47.871094 363.496094 -47.609375 363.832031 C -47.296875 364.210938 -46.71875 364.558594 -46.246094 364.285156 C -45.949219 364.070312 -45.921875 363.886719 -45.945312 363.660156 Z M -53.917969 332.363281 C -54.386719 332.683594 -54.644531 333.253906 -54.820312 333.773438 C -55.867188 336.835938 -55.289062 340.28125 -54.027344 343.289062 C -52.769531 346.253906 -50.902344 348.976562 -49.382812 351.820312 C -47.820312 354.664062 -46.589844 357.8125 -46.667969 361.050781 C -46.675781 361.417969 -46.722656 361.832031 -46.597656 362.179688 C -46.410156 362.664062 -45.773438 363.144531 -45.320312 362.6875 C -45.121094 362.394531 -45.300781 361.546875 -45.195312 361.21875 C -44.851562 359.726562 -43.777344 358.207031 -43.007812 356.855469 C -43.238281 356.832031 -43.425781 356.761719 -43.621094 356.644531 C -44.363281 356.253906 -44.917969 355.609375 -45.34375 354.878906 C -45.195312 353.882812 -45.246094 352.824219 -45.300781 351.882812 C -45.429688 349.679688 -45.71875 347.542969 -46.320312 345.414062 C -47.308594 341.914062 -48.859375 337.65625 -52.011719 335.523438 C -52.203125 335.394531 -52.53125 335.5625 -52.414062 335.816406 C -52.300781 336.035156 -52.203125 336.261719 -52.117188 336.496094 C -52.078125 336.585938 -51.925781 336.554688 -51.941406 336.453125 C -50.9375 337.703125 -50.054688 338.953125 -49.371094 340.449219 C -48.628906 342.0625 -48.09375 343.773438 -47.621094 345.484375 C -47.410156 346.25 -47.261719 347.019531 -47.125 347.789062 C -48.035156 344.984375 -49.8125 342.476562 -51.328125 339.921875 C -52.742188 337.65625 -53.921875 335 -53.917969 332.363281 Z M -100.164062 349.136719 C -99.464844 348.871094 -98.503906 348.144531 -98.035156 347.882812 C -96.269531 346.929688 -94.375 346.371094 -92.46875 345.902344 C -91.984375 345.761719 -91.449219 345.664062 -90.964844 345.523438 C -91.703125 344.960938 -92.730469 344.65625 -93.507812 344.191406 C -94.425781 343.636719 -95.039062 342.742188 -95.425781 341.734375 C -95.421875 341.730469 -95.417969 341.726562 -95.414062 341.722656 C -93.363281 340.117188 -91 338.996094 -88.800781 337.621094 C -84.609375 335.003906 -81.945312 331.046875 -80.050781 326.558594 C -79.953125 326.332031 -80.28125 326.1875 -80.394531 326.402344 C -81.605469 328.675781 -83.074219 330.878906 -84.816406 332.78125 C -86.664062 334.804688 -88.871094 336.1875 -91.289062 337.4375 C -92.832031 338.238281 -94.398438 339.039062 -95.828125 340.039062 C -95.84375 339.878906 -95.882812 339.722656 -95.886719 339.566406 C -95.886719 337.792969 -95.203125 336.039062 -94.410156 334.457031 C -93.195312 332.148438 -91.632812 330.078125 -89.820312 328.257812 C -91.640625 329.125 -93.40625 330.078125 -94.65625 331.617188 C -95.957031 333.113281 -96.578125 335.042969 -97.203125 336.925781 C -97.945312 339.167969 -98.671875 341.390625 -99.402344 343.617188 C -99.582031 343.863281 -99.765625 344.105469 -99.941406 344.359375 C -100.132812 344.632812 -100.335938 344.925781 -100.527344 345.226562 C -100.230469 343.546875 -100.570312 341.75 -100.816406 340.082031 C -101.050781 338.453125 -101.347656 336.734375 -101.964844 335.199219 C -102.570312 333.6875 -103.460938 332.3125 -104.210938 330.875 C -104.925781 329.511719 -105.558594 328.113281 -106.621094 326.976562 C -106.820312 326.761719 -107.195312 327.015625 -107 327.253906 C -105.988281 328.484375 -105.4375 329.980469 -104.75 331.398438 C -104.085938 332.765625 -103.300781 334.082031 -102.839844 335.539062 C -102.324219 337.148438 -102.242188 338.894531 -102.089844 340.570312 C -102.019531 341.339844 -101.992188 342.140625 -101.914062 342.933594 C -103.492188 340.039062 -105.242188 337.207031 -106.261719 334.078125 C -107.332031 330.730469 -107.515625 327.15625 -108.761719 323.871094 C -108.816406 323.785156 -108.828125 323.652344 -108.886719 323.519531 C -109.054688 323.671875 -109.121094 323.90625 -109.191406 324.097656 C -109.3125 324.699219 -109.246094 325.332031 -109.234375 325.921875 C -109.152344 328.050781 -109.570312 330.1875 -109.851562 332.308594 C -110.128906 334.472656 -110.222656 336.667969 -109.515625 338.6875 C -108.144531 342.777344 -103.980469 345.308594 -102.261719 349.226562 C -101.652344 350.539062 -100.6875 350.316406 -100.164062 349.136719 Z M -100.164062 349.136719 " fill-opacity="1" fill-rule="nonzero"/></g></g></g></g></svg>