<svg xmlns="http://www.w3.org/2000/svg" xmlns:xlink="http://www.w3.org/1999/xlink" width="500" zoomAndPan="magnify" viewBox="0 0 375 374.999991" height="500" preserveAspectRatio="xMidYMid meet" version="1.0"><defs><clipPath id="51827bcd7b"><path d="M 0 0 L 53 0 L 53 144 L 0 144 Z M 0 0 " clip-rule="nonzero"/></clipPath><clipPath id="4a60d610b3"><path d="M 71.65625 165.289062 L -274.132812 187.519531 L -297.660156 -178.476562 L 48.128906 -200.703125 Z M 71.65625 165.289062 " clip-rule="nonzero"/></clipPath><clipPath id="12769b8c1a"><path d="M 71.65625 165.289062 L -13.667969 170.773438 L -24.589844 0.875 L 60.734375 -4.609375 Z M 71.65625 165.289062 " clip-rule="nonzero"/></clipPath><clipPath id="74591551c9"><path d="M 71.65625 165.289062 L -274.132812 187.519531 L -297.660156 -178.476562 L 48.128906 -200.703125 Z M 71.65625 165.289062 " clip-rule="nonzero"/></clipPath><clipPath id="0aafc42b8a"><path d="M 0 0 L 42 0 L 42 94 L 0 94 Z M 0 0 " clip-rule="nonzero"/></clipPath><clipPath id="4c7d78d2db"><path d="M 71.65625 165.289062 L -274.132812 187.519531 L -297.660156 -178.476562 L 48.128906 -200.703125 Z M 71.65625 165.289062 " clip-rule="nonzero"/></clipPath><clipPath id="0d44c9c666"><path d="M 71.65625 165.289062 L -13.667969 170.773438 L -24.589844 0.875 L 60.734375 -4.609375 Z M 71.65625 165.289062 " clip-rule="nonzero"/></clipPath><clipPath id="63ad9c703d"><path d="M 71.65625 165.289062 L -274.132812 187.519531 L -297.660156 -178.476562 L 48.128906 -200.703125 Z M 71.65625 165.289062 " clip-rule="nonzero"/></clipPath><clipPath id="c6d71a17fb"><path d="M 0 0 L 67 0 L 67 166 L 0 166 Z M 0 0 " clip-rule="nonzero"/></clipPath><clipPath id="1c2a29d236"><path d="M 71.65625 165.289062 L -274.132812 187.519531 L -297.660156 -178.476562 L 48.128906 -200.703125 Z M 71.65625 165.289062 " clip-rule="nonzero"/></clipPath><clipPath id="fe11a92fd0"><path d="M 71.65625 165.289062 L -13.667969 170.773438 L -24.589844 0.875 L 60.734375 -4.609375 Z M 71.65625 165.289062 " clip-rule="nonzero"/></clipPath><clipPath id="cf37e64429"><path d="M 71.65625 165.289062 L -274.132812 187.519531 L -297.660156 -178.476562 L 48.128906 -200.703125 Z M 71.65625 165.289062 " clip-rule="nonzero"/></clipPath><clipPath id="11967540c1"><path d="M 0 0 L 67 0 L 67 163 L 0 163 Z M 0 0 " clip-rule="nonzero"/></clipPath><clipPath id="b713e6c6a0"><path d="M 71.65625 165.289062 L -274.132812 187.519531 L -297.660156 -178.476562 L 48.128906 -200.703125 Z M 71.65625 165.289062 " clip-rule="nonzero"/></clipPath><clipPath id="8d5e6810ba"><path d="M 71.65625 165.289062 L -13.667969 170.773438 L -24.589844 0.875 L 60.734375 -4.609375 Z M 71.65625 165.289062 " clip-rule="nonzero"/></clipPath><clipPath id="7593b1133a"><path d="M 71.65625 165.289062 L -274.132812 187.519531 L -297.660156 -178.476562 L 48.128906 -200.703125 Z M 71.65625 165.289062 " clip-rule="nonzero"/></clipPath></defs><g clip-path="url(#51827bcd7b)"><g clip-path="url(#4a60d610b3)"><g clip-path="url(#12769b8c1a)"><g clip-path="url(#74591551c9)"><path fill="#a47052" d="M -294.789062 -171.011719 C -292.445312 -170.527344 -290.550781 -168.566406 -288.953125 -166.992188 C -286.53125 -164.613281 -284.324219 -161.992188 -281.988281 -159.5625 C -277.175781 -154.527344 -271.332031 -151.050781 -265.722656 -147.066406 C -259.546875 -142.660156 -254.203125 -137.886719 -249.769531 -131.695312 C -244.394531 -124.207031 -239.011719 -116.671875 -233.71875 -109.132812 C -231.078125 -105.40625 -228.523438 -101.675781 -225.925781 -97.945312 C -224.765625 -95.394531 -223.695312 -92.835938 -222.710938 -90.226562 C -219.398438 -81.066406 -217.453125 -71.226562 -215.933594 -61.679688 C -212.957031 -42.894531 -215.589844 -23.203125 -208.535156 -5.179688 C -204.847656 4.230469 -198.304688 12.1875 -194.398438 21.492188 C -193.910156 22.730469 -192 22.109375 -192.402344 20.777344 C -193.363281 17.847656 -194.492188 15.070312 -195.714844 12.292969 L -195.714844 12.25 C -198.050781 6.964844 -200.695312 1.789062 -202.722656 -3.605469 C -206.007812 -12.40625 -206.304688 -21.988281 -206.585938 -31.253906 C -206.714844 -36.09375 -206.707031 -40.941406 -207.0625 -45.761719 C -207.4375 -50.902344 -208.53125 -55.902344 -209.402344 -60.964844 C -210.425781 -67.015625 -211.597656 -73.234375 -213.070312 -79.253906 L -213.074219 -79.296875 C -213.078125 -79.390625 -213.132812 -79.519531 -213.140625 -79.613281 C -209.992188 -75.105469 -206.894531 -70.636719 -203.660156 -66.179688 C -194.101562 -52.9375 -183.441406 -40.851562 -171.90625 -29.316406 C -169.144531 -26.550781 -166.300781 -23.972656 -163.417969 -21.394531 C -160.488281 -18.867188 -157.820312 -16.140625 -154.9375 -13.652344 C -148.890625 -8.46875 -141.105469 -5.890625 -134.238281 -2.027344 C -133.109375 -1.378906 -131.9375 -0.820312 -130.8125 -0.210938 C -129.019531 2.300781 -127.308594 4.90625 -125.863281 7.621094 C -123.648438 11.738281 -122.140625 16.167969 -120.367188 20.492188 C -118.808594 24.289062 -117.160156 28.03125 -115.332031 31.765625 L -115.332031 31.808594 C -114.90625 32.777344 -114.386719 33.785156 -113.917969 34.753906 C -113.917969 34.753906 -113.914062 34.796875 -113.910156 34.84375 C -113.464844 42.515625 -114.191406 50.257812 -115.425781 57.855469 C -116.789062 66.234375 -120.339844 73.796875 -122.585938 81.914062 C -123.285156 84.449219 -123.796875 87.019531 -124.222656 89.582031 C -125.265625 95.945312 -125.710938 102.40625 -126.941406 108.6875 C -127.183594 109.835938 -125.484375 110.179688 -125.191406 109.074219 C -122.886719 99.777344 -122.289062 90.046875 -118.925781 81 C -115.867188 72.832031 -111.8125 65.371094 -110.144531 56.746094 C -109.40625 52.714844 -108.898438 48.605469 -108.757812 44.476562 C -104.371094 52.074219 -99.671875 59.5625 -96.871094 67.851562 C -93.039062 79.46875 -93.175781 92.160156 -90.464844 104.035156 C -87.671875 116.398438 -79.882812 126.8125 -76.960938 139.125 C -76.78125 139.839844 -75.523438 139.621094 -75.664062 138.859375 C -77.664062 127.484375 -83.792969 117.507812 -86.726562 106.464844 C -87.867188 102.101562 -88.652344 97.621094 -89.261719 93.085938 C -90.492188 84.5625 -91.09375 75.902344 -92.542969 67.480469 C -93.5625 61.480469 -95.167969 55.558594 -97.699219 50.015625 C -100.285156 44.382812 -103.703125 39.167969 -106.507812 33.597656 C -108.28125 30.042969 -109.878906 26.339844 -111.429688 22.683594 C -111.542969 22.328125 -111.605469 22.015625 -111.722656 21.660156 C -112.5 19.398438 -113.652344 16.304688 -115.25 14.050781 C -116.515625 11.234375 -117.875 8.46875 -119.363281 5.753906 C -118.894531 5.996094 -118.46875 6.242188 -118.003906 6.4375 L -117.960938 6.433594 C -115.613281 7.644531 -113.273438 8.804688 -110.929688 9.96875 C -103.949219 13.460938 -97.132812 17.1875 -90.03125 20.445312 C -74.894531 27.398438 -58.328125 30.457031 -43.226562 37.5 C -39.628906 39.171875 -36.3125 41.359375 -32.796875 43.171875 C -29.332031 44.894531 -25.75 46.25 -22.332031 47.976562 C -15.300781 51.511719 -10.101562 56.929688 -5.089844 62.902344 C 0.015625 69.003906 4.160156 76.300781 10.253906 81.527344 C 12.988281 83.886719 16.164062 85.3125 19.398438 86.917969 C 21.320312 87.878906 22.859375 89.277344 24.183594 90.820312 C 25.347656 92.695312 26.46875 94.613281 27.285156 96.78125 C 28.914062 100.933594 29.519531 105.425781 30.078125 109.871094 C 30.65625 114.636719 30.296875 118.914062 29.738281 123.660156 C 29.207031 128.089844 29.582031 132.503906 30.046875 136.910156 C 30.101562 137.722656 31.273438 137.648438 31.265625 136.832031 C 31.113281 131.636719 31.191406 126.511719 32.269531 121.414062 C 33.25 116.867188 33.667969 112.132812 33.101562 107.546875 C 33.003906 106.738281 32.816406 105.9375 32.679688 105.175781 C 38.855469 118.003906 43.1875 131.808594 51.734375 143.441406 C 52.132812 144.007812 53.09375 143.402344 52.644531 142.796875 C 44.601562 131.222656 40.417969 117.675781 34.703125 104.953125 C 33.960938 103.28125 33.175781 101.609375 32.34375 99.988281 C 31.050781 97.488281 29.800781 94.945312 28.289062 92.640625 C 28.289062 92.59375 28.242188 92.597656 28.238281 92.554688 C 27.179688 90.902344 25.988281 89.300781 24.675781 87.890625 C 24.523438 87.675781 24.328125 87.460938 24.132812 87.246094 C 22.875 86.015625 21.535156 84.878906 19.976562 83.9375 C 16.722656 81.972656 13.53125 80.320312 11.027344 77.355469 C 8.574219 74.433594 6.722656 71.066406 4.527344 67.945312 C 0.929688 62.742188 -3.167969 57.570312 -7.675781 53.015625 C -7.035156 53.109375 -6.394531 53.203125 -5.800781 53.300781 C -4.792969 53.460938 -3.824219 53.71875 -2.894531 54.066406 C 1.375 55.558594 5.773438 56.949219 9.878906 58.769531 C 13.148438 60.234375 16.203125 61.214844 19.792969 61.347656 C 23.796875 61.542969 27.960938 60.734375 31.894531 61.972656 C 36.152344 63.285156 39.480469 66.378906 42.238281 69.777344 C 42.925781 70.59375 44.277344 69.738281 43.628906 68.828125 C 42.929688 67.832031 42.183594 66.835938 41.445312 65.890625 C 41.398438 65.890625 41.394531 65.847656 41.394531 65.847656 C 38.050781 61.757812 33.835938 58.269531 28.589844 57.070312 C 24.902344 56.171875 21.058594 57.007812 17.339844 56.34375 C 13.121094 55.574219 9.160156 53.199219 5.078125 51.832031 C 0.957031 50.464844 -2.945312 49.042969 -7.242188 48.457031 C -9.257812 48.179688 -11.359375 47.953125 -13.1875 47.027344 C -14.964844 46.144531 -16.464844 44.703125 -18.039062 43.488281 C -19.324219 42.53125 -20.5625 41.613281 -22.050781 41.03125 C -24.09375 40.300781 -26.132812 40.296875 -28.023438 39.105469 C -31.375 37.054688 -34.269531 35.066406 -38.03125 33.679688 C -41.558594 32.457031 -44.964844 31.632812 -48.503906 30.910156 C -49.445312 30.382812 -50.335938 29.894531 -51.273438 29.457031 C -58.855469 25.777344 -66.773438 23.207031 -74.546875 20.085938 C -82.085938 17.082031 -89.054688 13.089844 -96.074219 9.011719 C -96.6875 8.644531 -97.34375 8.28125 -97.957031 7.910156 C -98.003906 7.914062 -98.046875 7.917969 -98.097656 7.832031 C -100.40625 6.484375 -102.804688 5.1875 -105.15625 3.84375 C -105.203125 3.847656 -105.246094 3.851562 -105.25 3.804688 C -109.574219 1.414062 -113.945312 -0.933594 -118.3125 -3.28125 C -125.6875 -7.289062 -132.890625 -12.078125 -140.707031 -15.15625 C -144.195312 -16.515625 -147.839844 -17.503906 -151.210938 -19.144531 C -155.089844 -20.980469 -158.382812 -23.53125 -161.605469 -26.355469 C -173.863281 -37.207031 -183.652344 -50.527344 -192.777344 -64.074219 C -202.597656 -78.566406 -211.761719 -93.421875 -221.753906 -107.816406 C -225.351562 -112.976562 -229.035156 -118.082031 -232.71875 -123.191406 C -232.203125 -122.949219 -231.691406 -122.710938 -231.175781 -122.472656 C -230.753906 -122.273438 -230.378906 -122.070312 -229.960938 -121.917969 C -226.507812 -120.375 -223.179688 -118.730469 -219.535156 -117.742188 C -211.738281 -115.660156 -203.917969 -113.945312 -196.050781 -112.140625 C -188.640625 -110.445312 -181.207031 -108.386719 -174.25 -105.300781 C -167.0625 -102.09375 -160.90625 -97.324219 -154 -93.601562 C -151.464844 -92.226562 -148.800781 -90.992188 -146.136719 -89.761719 C -144.453125 -87.558594 -141.941406 -85.910156 -139.714844 -84.375 C -136.15625 -81.933594 -132.148438 -80.242188 -128.875 -77.328125 C -124.789062 -73.695312 -120.960938 -69.867188 -116.492188 -66.667969 C -112.070312 -63.464844 -107.039062 -61.429688 -102.539062 -58.414062 C -93.636719 -52.554688 -86.820312 -43.84375 -80.824219 -35.21875 C -78.125 -31.316406 -75.511719 -27.363281 -72.125 -24.046875 C -68.691406 -20.734375 -64.585938 -18.238281 -60.820312 -15.398438 C -53.050781 -9.511719 -44.175781 -2.65625 -34.074219 -2.082031 C -33.117188 -2.007812 -32.953125 -3.695312 -33.957031 -3.8125 C -43.273438 -4.84375 -51.597656 -11.597656 -58.671875 -17.214844 C -59.867188 -18.179688 -61.109375 -19.183594 -62.265625 -20.242188 C -64.523438 -22.179688 -66.699219 -24.304688 -68.488281 -26.726562 C -71.21875 -30.445312 -73.4375 -34.605469 -75.824219 -38.574219 C -80.914062 -47.214844 -87.558594 -55.347656 -95.441406 -61.589844 C -99.457031 -64.773438 -103.941406 -66.839844 -108.238281 -69.460938 C -112.769531 -72.25 -116.675781 -75.894531 -120.957031 -79.015625 C -121.910156 -79.722656 -122.910156 -80.429688 -123.855469 -81.046875 C -123.4375 -80.894531 -122.972656 -80.742188 -122.554688 -80.589844 C -118.003906 -78.933594 -113.371094 -77.375 -108.757812 -76.175781 C -100.964844 -74.140625 -93.128906 -75.007812 -85.269531 -76.144531 C -77.316406 -77.292969 -69.761719 -78.320312 -61.734375 -76.84375 C -45.261719 -73.871094 -31.058594 -63.824219 -18.457031 -53.3125 C -17.789062 -52.765625 -16.898438 -53.773438 -17.574219 -54.367188 C -23.839844 -60.167969 -30.449219 -65.628906 -37.71875 -70.101562 C -37.765625 -70.097656 -37.769531 -70.140625 -37.769531 -70.140625 C -42.773438 -73.21875 -48.0625 -75.820312 -53.671875 -77.726562 C -60.671875 -80.082031 -67.898438 -81.066406 -75.234375 -80.914062 C -83.386719 -80.75 -91.707031 -79.671875 -99.851562 -80.78125 C -108.179688 -81.964844 -116.070312 -85.535156 -123.964844 -88.421875 C -131.625 -91.191406 -139.335938 -94.046875 -146.484375 -97.980469 C -153.675781 -101.957031 -159.753906 -107.636719 -167.023438 -111.378906 C -168.808594 -112.308594 -170.632812 -113.1875 -172.496094 -113.972656 C -171.71875 -113.886719 -170.898438 -113.804688 -170.121094 -113.71875 C -165.925781 -113.308594 -161.699219 -113.21875 -157.5625 -113.710938 C -151.082031 -114.488281 -145.78125 -118.089844 -139.703125 -120.203125 C -133.09375 -122.484375 -125.6875 -122.28125 -118.800781 -123.039062 C -117.269531 -123.183594 -117.410156 -125.394531 -118.949219 -125.386719 C -119.585938 -125.390625 -120.222656 -125.394531 -120.855469 -125.398438 C -127.296875 -125.4375 -133.871094 -126.101562 -140.1875 -124.925781 C -143.238281 -124.367188 -146.109375 -123.1875 -149.085938 -122.226562 C -152.367188 -121.109375 -155.511719 -120.636719 -158.992188 -120.457031 C -165.683594 -120.164062 -172.253906 -121.460938 -178.917969 -121.441406 C -182 -121.421875 -185.148438 -121.039062 -188.191406 -120.390625 C -188.996094 -120.25 -189.9375 -120.050781 -190.875 -119.8125 C -199.203125 -121.675781 -207.730469 -122.441406 -216.136719 -124.121094 C -220.320312 -124.984375 -224.183594 -125.867188 -228.183594 -127.421875 C -231.066406 -128.550781 -234.167969 -129.484375 -237.304688 -129.644531 C -238.152344 -130.8125 -238.953125 -131.984375 -239.75 -133.109375 C -245.226562 -140.683594 -250.765625 -147.164062 -258.375 -152.65625 C -264.652344 -157.1875 -271.289062 -161.019531 -276.734375 -166.691406 C -281.0625 -171.214844 -286.585938 -177.472656 -293.296875 -178.128906 C -296.03125 -178.359375 -297.699219 -176.078125 -297.566406 -174.003906 C -297.476562 -172.648438 -296.625 -171.390625 -294.789062 -171.011719 Z M -294.789062 -171.011719 " fill-opacity="1" fill-rule="nonzero"/></g></g></g></g><g clip-path="url(#0aafc42b8a)"><g clip-path="url(#4c7d78d2db)"><g clip-path="url(#0d44c9c666)"><g clip-path="url(#63ad9c703d)"><path fill="#7f4c38" d="M -48.503906 30.910156 C -49.445312 30.382812 -50.335938 29.894531 -51.273438 29.457031 C -58.855469 25.777344 -66.773438 23.207031 -74.546875 20.085938 C -82.085938 17.082031 -89.054688 13.089844 -96.074219 9.011719 C -96.6875 8.644531 -97.34375 8.28125 -97.957031 7.910156 C -98.003906 7.914062 -98.046875 7.917969 -98.097656 7.832031 C -100.34375 6.75 -102.554688 5.535156 -104.683594 4.179688 C -104.824219 4.097656 -105.011719 3.972656 -105.15625 3.84375 C -105.203125 3.847656 -105.246094 3.851562 -105.25 3.804688 C -109.574219 1.414062 -113.945312 -0.933594 -118.3125 -3.28125 C -125.6875 -7.289062 -132.890625 -12.078125 -140.707031 -15.15625 C -144.195312 -16.515625 -147.839844 -17.503906 -151.210938 -19.144531 C -155.089844 -20.980469 -158.382812 -23.53125 -161.605469 -26.355469 C -173.863281 -37.207031 -183.652344 -50.527344 -192.777344 -64.074219 C -202.597656 -78.566406 -211.761719 -93.421875 -221.753906 -107.816406 C -225.351562 -112.976562 -229.035156 -118.082031 -232.71875 -123.191406 C -232.203125 -122.949219 -231.691406 -122.710938 -231.175781 -122.472656 C -231.992188 -123.191406 -233.566406 -124.359375 -234.476562 -123.757812 C -234.652344 -123.652344 -234.6875 -123.472656 -234.632812 -123.339844 C -234.503906 -122.757812 -233.800781 -122.394531 -233.367188 -122.015625 C -232.882812 -121.503906 -232.4375 -120.941406 -232.082031 -120.332031 C -231.679688 -119.722656 -231.363281 -119.066406 -231.097656 -118.402344 C -230.773438 -117.609375 -230.320312 -116.914062 -229.953125 -116.167969 C -229.167969 -114.667969 -228.304688 -113.300781 -227.4375 -111.894531 C -229.363281 -113.582031 -231.328125 -115.214844 -233.046875 -117.140625 C -233.15625 -117.265625 -233.355469 -117.085938 -233.261719 -116.949219 C -231.503906 -114.390625 -229.042969 -112.429688 -226.960938 -110.152344 C -225.671875 -108.742188 -224.503906 -107.394531 -223.808594 -105.589844 C -223.234375 -104.101562 -222.679688 -102.640625 -221.949219 -101.222656 C -220.523438 -98.457031 -218.902344 -95.777344 -216.703125 -93.5625 C -215.457031 -92.308594 -214.46875 -91.085938 -213.65625 -89.515625 C -212.847656 -87.953125 -211.808594 -86.386719 -211.292969 -84.707031 C -211.210938 -84.441406 -210.75 -84.519531 -210.800781 -84.804688 C -211.082031 -86.28125 -211.769531 -87.566406 -212.34375 -88.945312 C -212.933594 -90.355469 -213.511719 -91.746094 -214.386719 -93.011719 C -215.347656 -94.390625 -216.570312 -95.558594 -217.515625 -96.945312 C -218.535156 -98.433594 -219.433594 -100.019531 -220.328125 -101.582031 C -220.394531 -101.703125 -220.449219 -101.820312 -220.511719 -101.941406 C -217.738281 -98.207031 -214.167969 -95.054688 -212.007812 -90.914062 C -211.023438 -89.03125 -210.136719 -87.1875 -208.933594 -85.453125 C -207.789062 -83.851562 -206.597656 -82.25 -205.714844 -80.496094 C -205.605469 -80.1875 -205.492188 -79.875 -205.378906 -79.519531 C -205.152344 -78.8125 -204.878906 -78.105469 -204.609375 -77.441406 C -204.355469 -76.613281 -204.039062 -75.835938 -203.652344 -75.085938 C -203.851562 -75.351562 -204.070312 -75.609375 -204.261719 -75.878906 C -205.328125 -77.367188 -206.121094 -79.03125 -207.335938 -80.410156 C -207.578125 -80.679688 -208.042969 -80.273438 -207.820312 -79.988281 C -206.707031 -78.5625 -206.023438 -76.859375 -205.085938 -75.324219 C -203.945312 -73.453125 -202.59375 -71.6875 -201.300781 -69.917969 C -200.902344 -69.371094 -200.464844 -68.859375 -200.035156 -68.347656 C -198.726562 -66.089844 -197.261719 -63.945312 -195.40625 -61.957031 C -194.890625 -61.40625 -194.414062 -60.816406 -193.910156 -60.253906 C -193.078125 -58.710938 -192.242188 -57.164062 -191.300781 -55.6875 C -190.28125 -54.085938 -188.929688 -52.820312 -187.773438 -51.332031 C -186.53125 -49.730469 -185.769531 -47.832031 -184.675781 -46.132812 C -183.625 -44.503906 -182.367188 -43.019531 -181.347656 -41.367188 C -181.265625 -41.234375 -181.054688 -41.34375 -181.105469 -41.488281 C -181.667969 -43.203125 -182.75 -44.519531 -183.707031 -46.023438 C -184.796875 -47.738281 -185.425781 -49.699219 -186.507812 -51.410156 C -187.453125 -52.902344 -188.730469 -54.144531 -189.777344 -55.566406 C -188.296875 -53.835938 -186.816406 -52.105469 -185.238281 -50.472656 C -183.539062 -48.769531 -181.71875 -47.210938 -180.234375 -45.3125 C -178.898438 -43.585938 -177.78125 -41.710938 -176.402344 -39.988281 C -175.074219 -38.355469 -173.785156 -36.671875 -172.324219 -35.132812 C -171.648438 -34.453125 -171.011719 -33.722656 -170.246094 -33.09375 C -169.121094 -29.722656 -165.785156 -27.175781 -163.40625 -24.792969 C -160.398438 -21.726562 -157.9375 -18.667969 -153.917969 -16.84375 C -149.945312 -15.015625 -145.65625 -14.566406 -141.457031 -13.429688 C -139.378906 -12.839844 -137.546875 -11.871094 -135.742188 -10.628906 C -135.460938 -10.464844 -135.175781 -10.257812 -134.894531 -10.09375 C -134.898438 -10.011719 -134.875 -9.941406 -134.867188 -9.863281 C -135.335938 -10.066406 -135.746094 -10.335938 -136.246094 -10.5 C -139.234375 -11.496094 -142.460938 -11.304688 -145.492188 -12.226562 C -145.8125 -12.324219 -145.90625 -11.828125 -145.597656 -11.726562 C -142.792969 -10.796875 -139.816406 -10.480469 -137.039062 -9.507812 C -133.984375 -8.4375 -131.582031 -6.703125 -129.03125 -4.777344 C -126.8125 -3.097656 -124.222656 -1.816406 -121.742188 -0.570312 C -119.367188 0.625 -116.855469 1.515625 -114.507812 2.75 C -114.382812 2.816406 -114.265625 2.640625 -114.371094 2.546875 C -115.242188 1.78125 -116.320312 1.316406 -117.371094 0.851562 C -118.695312 0.265625 -119.894531 -0.472656 -121.15625 -1.171875 C -123.007812 -2.191406 -124.835938 -3.285156 -126.601562 -4.46875 C -126.113281 -4.21875 -125.632812 -3.945312 -125.140625 -3.703125 C -121.8125 -2.011719 -118.242188 -0.792969 -115.203125 1.367188 C -109.589844 5.398438 -104.046875 9.117188 -97.78125 12.066406 C -91.605469 15.023438 -85.238281 17.421875 -78.671875 19.398438 C -75.074219 20.515625 -71.941406 22.128906 -68.628906 23.820312 C -71.636719 22.746094 -74.683594 21.773438 -77.765625 21.304688 C -78 21.269531 -78.074219 21.617188 -77.839844 21.667969 C -74.789062 22.308594 -71.886719 23.675781 -69.003906 24.832031 C -66.527344 25.832031 -63.988281 26.644531 -61.503906 27.628906 C -59.140625 28.566406 -56.777344 29.433594 -54.355469 30.21875 C -51.535156 31.128906 -48.976562 32.546875 -46.265625 33.714844 C -44.214844 34.601562 -41.976562 35.011719 -39.964844 35.976562 C -37.917969 36.953125 -36.339844 38.632812 -34.261719 39.570312 C -32.136719 40.53125 -29.78125 40.921875 -27.699219 41.984375 C -25.234375 43.246094 -23.03125 45.101562 -20.675781 46.566406 C -20.425781 46.722656 -20.238281 46.324219 -20.472656 46.164062 C -22.597656 44.742188 -24.5625 43.027344 -26.742188 41.699219 C -25.511719 42.175781 -24.269531 42.621094 -23.089844 43.179688 C -21.265625 44.058594 -19.648438 45.222656 -17.871094 46.105469 C -16.144531 47.582031 -14.335938 48.867188 -12.109375 49.675781 C -5.273438 52.316406 2.46875 52.136719 9.121094 55.421875 C 11.691406 56.660156 14.273438 57.988281 17.078125 58.578125 C 17.675781 58.695312 18.269531 58.714844 18.859375 58.738281 C 19.292969 58.832031 19.734375 58.933594 20.140625 59.035156 C 21.519531 59.382812 22.863281 59.8125 24.292969 59.871094 C 25.890625 59.929688 27.46875 59.554688 29.066406 59.761719 C 30.523438 59.949219 31.855469 60.640625 33.320312 60.765625 C 33.59375 60.789062 33.6875 60.414062 33.410156 60.339844 C 32.039062 59.992188 30.769531 59.324219 29.375 59.058594 C 27.839844 58.769531 26.332031 58.863281 24.785156 58.816406 C 24.105469 58.792969 23.449219 58.664062 22.796875 58.511719 C 24.132812 58.324219 25.472656 58.101562 26.835938 57.996094 C 31.078125 57.679688 34.246094 59.738281 37.363281 62.390625 C 38.613281 63.488281 39.910156 64.582031 41.160156 65.679688 C 41.253906 65.765625 41.300781 65.808594 41.394531 65.847656 C 38.050781 61.757812 33.835938 58.269531 28.589844 57.070312 C 24.902344 56.171875 21.058594 57.007812 17.339844 56.34375 C 13.121094 55.574219 9.160156 53.199219 5.078125 51.832031 C 0.957031 50.464844 -2.945312 49.042969 -7.242188 48.457031 C -9.257812 48.179688 -11.359375 47.953125 -13.1875 47.027344 C -14.964844 46.144531 -16.464844 44.703125 -18.039062 43.488281 C -19.324219 42.53125 -20.5625 41.613281 -22.050781 41.03125 C -24.09375 40.300781 -26.132812 40.296875 -28.023438 39.105469 C -31.375 37.054688 -34.269531 35.066406 -38.03125 33.679688 C -41.558594 32.457031 -44.964844 31.632812 -48.503906 30.910156 Z M -33.945312 37.3125 C -32.199219 38.109375 -31.074219 39.4375 -29.492188 40.410156 C -30.953125 39.878906 -32.449219 39.4375 -33.820312 38.683594 C -35.253906 37.898438 -36.507812 36.863281 -37.835938 35.933594 C -36.519531 36.320312 -35.210938 36.738281 -33.945312 37.3125 Z M -297.566406 -174.003906 C -297.699219 -176.078125 -296.03125 -178.359375 -293.296875 -178.128906 C -286.585938 -177.472656 -281.0625 -171.214844 -276.734375 -166.691406 C -271.289062 -161.019531 -264.652344 -157.1875 -258.375 -152.65625 C -250.765625 -147.164062 -245.226562 -140.683594 -239.75 -133.109375 C -238.953125 -131.984375 -238.152344 -130.8125 -237.304688 -129.644531 C -234.167969 -129.480469 -231.066406 -128.550781 -228.183594 -127.421875 C -224.183594 -125.867188 -220.320312 -124.984375 -216.136719 -124.121094 C -207.730469 -122.441406 -199.203125 -121.675781 -190.875 -119.8125 C -189.9375 -120.050781 -188.996094 -120.25 -188.191406 -120.390625 C -185.148438 -121.039062 -182 -121.421875 -178.917969 -121.441406 C -172.253906 -121.460938 -165.683594 -120.164062 -158.992188 -120.457031 C -155.511719 -120.636719 -152.367188 -121.109375 -149.085938 -122.226562 C -146.109375 -123.1875 -143.238281 -124.367188 -140.1875 -124.925781 C -133.871094 -126.101562 -127.296875 -125.4375 -120.855469 -125.398438 C -127.628906 -123.558594 -134.871094 -125.449219 -141.746094 -123.785156 C -145.050781 -122.984375 -148.550781 -121.671875 -151.683594 -120.335938 C -154.722656 -118.964844 -157.203125 -117.308594 -160.640625 -117.179688 C -164.035156 -117.097656 -167.347656 -117.789062 -170.613281 -118.53125 C -174.429688 -119.371094 -178.015625 -119.414062 -181.800781 -118.3125 C -183.597656 -117.769531 -185.457031 -117.054688 -187.351562 -116.863281 C -186.375 -116.382812 -185.375 -116.03125 -184.300781 -115.710938 C -184.035156 -115.632812 -184.109375 -115.222656 -184.390625 -115.28125 C -185.527344 -115.5 -186.699219 -115.527344 -187.796875 -115.914062 C -189.082031 -116.367188 -190.289062 -116.90625 -191.625 -117.238281 C -194.101562 -117.851562 -196.707031 -117.972656 -199.238281 -118.214844 C -201.992188 -118.476562 -204.675781 -118.917969 -207.414062 -119.273438 C -208.710938 -119.445312 -209.871094 -119.59375 -211.109375 -120.039062 C -212.257812 -120.453125 -213.527344 -120.601562 -214.59375 -121.214844 C -214.738281 -121.296875 -214.667969 -121.519531 -214.5 -121.488281 C -213.246094 -121.253906 -211.972656 -121.347656 -210.726562 -121.136719 C -209.4375 -120.917969 -208.1875 -120.640625 -206.882812 -120.460938 C -206.496094 -120.410156 -206.121094 -120.359375 -205.734375 -120.304688 C -208.78125 -120.996094 -211.675781 -121.980469 -214.703125 -122.988281 C -218.601562 -124.292969 -222.511719 -124.570312 -226.535156 -125.035156 C -226.027344 -124.851562 -225.53125 -124.640625 -225.019531 -124.464844 C -223.089844 -123.796875 -221.058594 -123.441406 -219.183594 -122.609375 C -218.972656 -122.515625 -219.097656 -122.148438 -219.320312 -122.21875 C -221.308594 -122.847656 -223.40625 -122.980469 -225.417969 -123.511719 C -227.289062 -124.007812 -229.109375 -124.578125 -230.921875 -125.257812 C -232.960938 -126.023438 -234.976562 -126.832031 -237.066406 -127.457031 C -237.921875 -127.714844 -238.789062 -127.9375 -239.628906 -128.238281 C -240.519531 -128.550781 -241.347656 -128.992188 -242.25 -129.28125 C -242.609375 -129.394531 -242.582031 -129.878906 -242.203125 -129.9375 C -241.679688 -130.011719 -241.175781 -129.910156 -240.675781 -129.773438 C -241.074219 -130.144531 -241.457031 -130.570312 -241.839844 -131.074219 C -242.632812 -132.109375 -243.207031 -133.25 -243.949219 -134.242188 C -244.992188 -135.671875 -246.382812 -136.804688 -247.46875 -138.183594 C -249.878906 -141.109375 -252.621094 -143.605469 -255.5 -146.046875 C -258.523438 -148.613281 -261.433594 -151.550781 -264.742188 -153.695312 C -266.347656 -154.710938 -268.066406 -155.503906 -269.75 -156.351562 C -268.769531 -155.230469 -267.824219 -154.074219 -266.636719 -153.164062 C -265.261719 -152.113281 -263.644531 -151.433594 -262.28125 -150.363281 C -259.375 -148.074219 -257.273438 -144.578125 -255.144531 -141.609375 C -254.972656 -141.367188 -255.34375 -141.125 -255.527344 -141.351562 C -257.855469 -144.28125 -260.511719 -147.820312 -263.875 -149.605469 C -265.210938 -150.316406 -266.589844 -150.917969 -267.804688 -151.835938 C -269.054688 -152.78125 -270.070312 -153.984375 -271.066406 -155.183594 C -272.269531 -156.625 -273.378906 -158.058594 -275.011719 -159.046875 C -276.53125 -159.96875 -278.199219 -160.621094 -279.707031 -161.566406 C -280.8125 -162.257812 -281.726562 -163.175781 -282.617188 -164.117188 C -283.789062 -165.355469 -284.960938 -166.183594 -286.457031 -166.992188 C -286.679688 -167.113281 -286.550781 -167.410156 -286.320312 -167.386719 C -283.277344 -167.105469 -281.246094 -163.839844 -278.695312 -162.484375 C -278.1875 -162.21875 -277.664062 -161.988281 -277.144531 -161.753906 C -278.304688 -162.945312 -279.390625 -164.21875 -280.46875 -165.5 C -282.824219 -168.292969 -285.441406 -170.207031 -288.800781 -171.714844 C -291.648438 -172.980469 -294.617188 -173.285156 -297.566406 -174.003906 Z M -123.964844 -88.421875 C -116.070312 -85.535156 -108.179688 -81.964844 -99.851562 -80.78125 C -91.707031 -79.671875 -83.386719 -80.75 -75.234375 -80.914062 C -67.898438 -81.066406 -60.671875 -80.082031 -53.671875 -77.722656 C -48.0625 -75.820312 -42.773438 -73.21875 -37.769531 -70.140625 C -38.226562 -70.25 -38.6875 -70.355469 -39.152344 -70.503906 C -43.605469 -72.078125 -47.363281 -74.777344 -51.6875 -76.492188 C -56.996094 -78.644531 -62.15625 -79.894531 -67.921875 -79.980469 C -73.367188 -80.035156 -78.746094 -79.78125 -84.152344 -79.253906 C -87.8125 -78.855469 -91.449219 -78.765625 -95.097656 -78.84375 C -93.175781 -78.597656 -91.257812 -78.335938 -89.324219 -78.136719 C -85.644531 -77.753906 -82.160156 -78.316406 -78.511719 -78.492188 C -78.308594 -78.5 -78.296875 -78.210938 -78.492188 -78.183594 C -82.125 -77.664062 -85.703125 -76.933594 -89.402344 -77.015625 C -92.925781 -77.097656 -96.480469 -77.648438 -99.996094 -77.914062 C -103.753906 -78.199219 -107.175781 -79.421875 -110.847656 -80.050781 C -114.289062 -80.644531 -117.851562 -81.5625 -121.011719 -83.050781 C -121.210938 -83.144531 -121.101562 -83.46875 -120.886719 -83.414062 C -117.453125 -82.554688 -114.140625 -81.597656 -110.613281 -81.191406 C -110.296875 -81.15625 -110 -81.066406 -109.691406 -81.011719 C -111.417969 -81.523438 -113.148438 -82.070312 -114.933594 -82.664062 C -119.800781 -84.296875 -124.421875 -86.355469 -129.171875 -88.269531 C -131.921875 -89.40625 -134.625 -90.546875 -137.203125 -91.875 C -139.257812 -92.785156 -141.386719 -93.464844 -143.480469 -94.28125 C -145.753906 -95.128906 -147.921875 -96.394531 -150.074219 -97.433594 C -150.761719 -97.765625 -151.457031 -98.136719 -152.148438 -98.507812 C -150.425781 -97.289062 -148.722656 -96.042969 -146.972656 -94.859375 C -145.5625 -93.90625 -144.171875 -93.148438 -142.59375 -92.511719 C -141.277344 -91.980469 -140.03125 -91.417969 -138.902344 -90.550781 C -138.683594 -90.382812 -138.933594 -90.011719 -139.171875 -90.152344 C -140.65625 -91.03125 -142.304688 -91.457031 -143.917969 -92.03125 C -145.347656 -92.539062 -146.578125 -93.289062 -147.855469 -94.085938 C -150.71875 -95.871094 -153.402344 -97.925781 -156.296875 -99.652344 C -159.21875 -101.398438 -161.949219 -103.382812 -164.855469 -105.144531 C -166.226562 -105.976562 -167.558594 -106.875 -168.953125 -107.667969 C -170.171875 -108.359375 -171.585938 -108.992188 -172.53125 -110.054688 C -172.671875 -110.214844 -172.523438 -110.503906 -172.304688 -110.386719 C -169.402344 -108.832031 -166.457031 -107.363281 -163.582031 -105.742188 C -162.097656 -104.90625 -160.738281 -103.902344 -159.300781 -102.988281 C -158.144531 -102.253906 -156.9375 -101.613281 -155.757812 -100.914062 C -157.183594 -102.195312 -158.242188 -103.898438 -159.859375 -105.046875 C -161.855469 -106.457031 -164.199219 -107.621094 -166.320312 -108.890625 C -168.390625 -110.070312 -170.574219 -111.605469 -172.839844 -112.273438 C -174.6875 -112.789062 -176.777344 -112.835938 -178.351562 -114.046875 C -178.683594 -114.300781 -178.589844 -114.9375 -178.144531 -115.058594 C -175.554688 -115.675781 -172.730469 -114.816406 -170.121094 -113.71875 C -170.898438 -113.804688 -171.71875 -113.886719 -172.496094 -113.972656 C -170.632812 -113.1875 -168.808594 -112.308594 -167.023438 -111.378906 C -159.753906 -107.636719 -153.675781 -101.957031 -146.484375 -97.980469 C -139.335938 -94.046875 -131.625 -91.191406 -123.964844 -88.421875 Z M -122.554688 -80.589844 C -122.972656 -80.742188 -123.4375 -80.894531 -123.855469 -81.046875 C -122.910156 -80.429688 -121.910156 -79.722656 -120.957031 -79.015625 C -116.675781 -75.894531 -112.769531 -72.25 -108.238281 -69.460938 C -103.941406 -66.839844 -99.457031 -64.773438 -95.441406 -61.589844 C -87.558594 -55.347656 -80.914062 -47.214844 -75.824219 -38.574219 C -73.4375 -34.605469 -71.21875 -30.445312 -68.488281 -26.726562 C -66.699219 -24.304688 -64.523438 -22.179688 -62.265625 -20.242188 C -64.5 -21.820312 -66.523438 -23.683594 -68.253906 -25.882812 C -72.488281 -31.136719 -76.164062 -36.832031 -80.445312 -42.035156 C -82.5625 -44.664062 -84.5625 -47.523438 -86.808594 -50.007812 C -87.175781 -50.414062 -87.636719 -50.714844 -88.039062 -51.085938 C -87.019531 -50.074219 -85.984375 -49.074219 -85.128906 -47.917969 C -83.78125 -46.09375 -83 -43.851562 -81.9375 -41.859375 C -80.90625 -39.921875 -79.90625 -38 -79.121094 -35.949219 C -79.019531 -35.683594 -79.414062 -35.5625 -79.527344 -35.808594 C -80.558594 -38.039062 -81.859375 -40.132812 -83.0625 -42.273438 C -84.183594 -44.269531 -84.976562 -46.4375 -86.617188 -48.082031 C -87.929688 -49.398438 -89.359375 -50.695312 -90.757812 -51.917969 C -92.347656 -53.308594 -93.460938 -55.09375 -95.269531 -56.21875 C -97 -57.292969 -98.617188 -58.632812 -100.367188 -59.644531 C -101.988281 -60.582031 -103.585938 -61.304688 -105.085938 -62.449219 C -108.433594 -65.003906 -111.625 -67.746094 -114.988281 -70.273438 C -115.113281 -70.367188 -114.972656 -70.550781 -114.839844 -70.488281 C -112.992188 -69.628906 -111.457031 -68.253906 -109.867188 -67 C -108.046875 -65.570312 -106.105469 -64.304688 -104.195312 -62.996094 C -103.074219 -62.226562 -101.824219 -61.710938 -100.609375 -61.136719 C -100.9375 -61.40625 -101.25 -61.699219 -101.589844 -61.964844 C -104.121094 -63.972656 -106.5625 -65.992188 -108.757812 -68.386719 C -108.953125 -68.601562 -109.105469 -68.863281 -109.121094 -69.132812 C -109.589844 -69.375 -110.058594 -69.617188 -110.574219 -69.855469 C -113.050781 -70.964844 -115.128906 -72.277344 -117.191406 -74.050781 C -118.25 -74.976562 -119.289062 -75.636719 -120.554688 -76.277344 C -121.589844 -76.847656 -122.808594 -77.445312 -123.632812 -78.300781 C -124.503906 -79.148438 -124.933594 -80.164062 -126.054688 -80.726562 C -126.464844 -80.921875 -126.945312 -81.164062 -127.304688 -81.492188 C -127.453125 -81.527344 -127.605469 -81.558594 -127.75 -81.609375 C -128.210938 -81.785156 -128.625 -82.035156 -129.027344 -82.316406 C -129.445312 -82.609375 -129.757812 -82.996094 -130.136719 -83.332031 C -130.878906 -83.992188 -131.804688 -84.375 -132.6875 -84.808594 C -133.550781 -85.234375 -134.390625 -85.703125 -135.101562 -86.359375 C -135.367188 -86.601562 -135.015625 -86.996094 -134.734375 -86.773438 C -133.898438 -86.121094 -132.914062 -85.734375 -131.933594 -85.34375 C -130.988281 -84.96875 -130.097656 -84.542969 -129.21875 -84.039062 C -128.761719 -83.777344 -128.3125 -83.503906 -127.851562 -83.253906 C -127.707031 -83.179688 -127.5625 -83.113281 -127.414062 -83.046875 C -127.386719 -83.054688 -127.371094 -83.085938 -127.34375 -83.089844 C -126.484375 -83.144531 -125.363281 -82.625 -124.570312 -82.269531 C -123.730469 -81.917969 -123.1875 -81.226562 -122.554688 -80.589844 Z M -202.722656 -3.605469 C -200.695312 1.789062 -198.050781 6.964844 -195.714844 12.25 C -196.320312 11.335938 -197.007812 10.519531 -197.566406 9.558594 C -198.847656 7.285156 -200.4375 5.125 -201.585938 2.796875 C -204.089844 -2.339844 -205.535156 -7.863281 -206.390625 -13.425781 C -206.820312 -16.566406 -207.875 -19.578125 -208.347656 -22.71875 C -208.824219 -25.859375 -209.164062 -29.050781 -209.230469 -32.21875 C -209.335938 -35.246094 -209.125 -38.292969 -209.316406 -41.316406 C -209.539062 -44.082031 -209.988281 -46.640625 -209.769531 -49.335938 C -210.414062 -41.019531 -212.601562 -32.527344 -210.277344 -24.398438 C -210.207031 -24.15625 -210.554688 -24.035156 -210.644531 -24.269531 C -212.144531 -28.15625 -212.695312 -32.914062 -212.496094 -37.0625 C -212.269531 -41.910156 -211.015625 -46.644531 -210.800781 -51.5 C -210.585938 -56.351562 -212.308594 -60.304688 -213.378906 -64.917969 C -214.320312 -68.976562 -214.933594 -73.121094 -215.984375 -77.140625 C -216.042969 -77.375 -215.707031 -77.585938 -215.574219 -77.34375 C -214.695312 -75.742188 -214.414062 -74.167969 -214.058594 -72.40625 C -213.648438 -70.367188 -212.882812 -68.414062 -212.445312 -66.378906 C -212.003906 -64.324219 -211.320312 -62.304688 -210.734375 -60.269531 C -210.769531 -60.714844 -210.789062 -61.15625 -210.847656 -61.597656 C -211.152344 -63.523438 -212.03125 -65.191406 -212.605469 -67.054688 C -213.0625 -68.519531 -213.34375 -70.085938 -213.578125 -71.613281 C -213.921875 -73.445312 -214.355469 -75.277344 -214.519531 -77.121094 C -214.582031 -78.078125 -214.722656 -79.0625 -214.640625 -80 C -214.710938 -80.359375 -214.777344 -80.71875 -214.839844 -81.082031 C -215.175781 -82.929688 -215.6875 -84.773438 -216.960938 -86.214844 C -217.179688 -86.457031 -216.878906 -86.832031 -216.617188 -86.605469 C -215.136719 -85.316406 -214.316406 -83.488281 -213.910156 -81.59375 C -213.902344 -81.554688 -213.902344 -81.515625 -213.894531 -81.472656 C -213.863281 -81.453125 -213.820312 -81.464844 -213.800781 -81.425781 C -213.394531 -80.726562 -213.347656 -80.050781 -213.074219 -79.296875 L -213.070312 -79.253906 C -211.597656 -73.234375 -210.425781 -67.015625 -209.402344 -60.964844 C -208.53125 -55.902344 -207.4375 -50.902344 -207.0625 -45.761719 C -206.707031 -40.941406 -206.714844 -36.09375 -206.585938 -31.253906 C -206.304688 -21.988281 -206.007812 -12.40625 -202.722656 -3.605469 Z M -92.542969 67.480469 C -91.09375 75.902344 -90.492188 84.5625 -89.261719 93.085938 C -90.785156 88.429688 -92.015625 83.4375 -92.410156 78.707031 C -92.664062 75.460938 -92.695312 72.15625 -92.8125 68.902344 C -92.980469 65.5625 -93.824219 63.035156 -95.460938 60.152344 C -95.570312 59.960938 -95.65625 59.761719 -95.765625 59.570312 C -95.453125 61.8125 -95.289062 64.082031 -94.75 66.289062 C -94.667969 66.636719 -95.171875 66.828125 -95.285156 66.476562 C -96.300781 63.398438 -96.523438 60.175781 -97.335938 57.058594 C -97.507812 56.386719 -97.757812 55.765625 -98.015625 55.152344 C -98.179688 54.800781 -98.34375 54.445312 -98.507812 54.09375 C -99.492188 52.15625 -100.792969 50.417969 -102.136719 48.625 C -106.144531 43.28125 -109.46875 37.050781 -111.847656 30.816406 C -111.914062 30.636719 -111.664062 30.527344 -111.554688 30.667969 C -109.40625 33.613281 -107.96875 37.167969 -106.15625 40.335938 C -104.835938 42.648438 -103.390625 44.855469 -101.847656 47.011719 C -102.4375 45.816406 -103.039062 44.628906 -103.699219 43.472656 C -105.078125 41.070312 -106.457031 38.667969 -107.527344 36.109375 C -108.390625 33.945312 -109.839844 31.863281 -110.574219 29.648438 C -110.910156 29.304688 -111.207031 28.964844 -111.546875 28.621094 C -113.597656 26.308594 -114.945312 23.679688 -116.039062 20.804688 C -117.1875 17.707031 -117.757812 14.527344 -118.59375 11.367188 C -118.949219 10.078125 -119.4375 8.839844 -120.011719 7.652344 C -120.355469 6.976562 -120.792969 6.292969 -121.085938 5.578125 C -121.226562 5.429688 -121.378906 5.292969 -121.515625 5.136719 C -122.140625 4.417969 -122.796875 3.726562 -123.375 2.972656 C -124.519531 1.492188 -125.9375 0.28125 -127.242188 -1.046875 C -127.449219 -1.257812 -127.167969 -1.585938 -126.941406 -1.394531 C -125.507812 -0.1875 -123.960938 0.886719 -122.660156 2.242188 C -121.984375 2.945312 -121.324219 3.667969 -120.664062 4.386719 C -120.628906 4.421875 -120.609375 4.460938 -120.578125 4.496094 C -119.566406 4.597656 -118.699219 5.421875 -118.003906 6.4375 C -118.46875 6.242188 -118.894531 5.996094 -119.363281 5.753906 C -117.875 8.46875 -116.515625 11.234375 -115.246094 14.050781 C -113.652344 16.304688 -112.5 19.398438 -111.722656 21.660156 C -111.605469 22.015625 -111.542969 22.328125 -111.429688 22.683594 C -109.878906 26.339844 -108.28125 30.042969 -106.507812 33.597656 C -103.703125 39.167969 -100.285156 44.382812 -97.699219 50.015625 C -95.167969 55.558594 -93.5625 61.480469 -92.542969 67.480469 Z M -115.332031 31.808594 C -111.988281 35.128906 -112.335938 39.589844 -111.992188 44.230469 C -111.542969 49.816406 -112.457031 54.632812 -113.691406 60.101562 C -114.960938 65.753906 -117.863281 70.695312 -119.78125 76.117188 C -121.40625 80.523438 -122.507812 85.214844 -124.222656 89.582031 C -123.796875 87.019531 -123.285156 84.449219 -122.585938 81.914062 C -120.339844 73.796875 -116.789062 66.234375 -115.425781 57.855469 C -114.191406 50.257812 -113.464844 42.515625 -113.910156 34.84375 C -113.914062 34.796875 -113.917969 34.753906 -113.917969 34.753906 C -114.386719 33.785156 -114.90625 32.777344 -115.332031 31.808594 Z M 24.675781 87.890625 C 25.988281 89.300781 27.179688 90.902344 28.238281 92.554688 C 26.816406 90.878906 25.3125 89.34375 23.628906 87.867188 C 21.605469 86.003906 19.800781 84.039062 17.277344 82.886719 C 14.945312 81.859375 12.796875 80.863281 10.832031 79.226562 C 6.5625 75.605469 4.683594 70.335938 1.582031 65.824219 C -0.121094 63.308594 -2.382812 61.324219 -4.511719 59.195312 C -6.253906 57.496094 -7.570312 55.363281 -9.613281 53.953125 C -9.871094 53.757812 -9.914062 53.492188 -9.871094 53.230469 C -10.015625 53.136719 -10.167969 53.046875 -10.3125 52.957031 C -11.359375 52.320312 -12.375 51.652344 -13.378906 50.953125 C -13.652344 50.761719 -13.339844 50.335938 -13.058594 50.480469 C -11.96875 51.039062 -10.863281 51.546875 -9.789062 52.136719 C -9.601562 52.242188 -9.425781 52.363281 -9.238281 52.46875 C -9.167969 52.4375 -9.109375 52.386719 -9.03125 52.375 C -7.683594 52.199219 -6.660156 52.585938 -5.800781 53.300781 C -6.394531 53.203125 -7.035156 53.109375 -7.675781 53.015625 C -3.167969 57.570312 0.929688 62.742188 4.527344 67.945312 C 6.722656 71.066406 8.574219 74.433594 11.027344 77.355469 C 13.53125 80.320312 16.722656 81.972656 19.976562 83.9375 C 21.535156 84.878906 22.875 86.015625 24.132812 87.246094 C 24.328125 87.460938 24.523438 87.675781 24.675781 87.890625 Z M 24.675781 87.890625 " fill-opacity="1" fill-rule="nonzero"/></g></g></g></g><g clip-path="url(#c6d71a17fb)"><g clip-path="url(#1c2a29d236)"><g clip-path="url(#fe11a92fd0)"><g clip-path="url(#cf37e64429)"><path fill="#5f926a" d="M 65.097656 164.398438 C 65.171875 164.847656 65.160156 165.390625 64.761719 165.554688 C 64.496094 165.617188 64.210938 165.453125 63.972656 165.289062 C 62.308594 164.082031 60.597656 162.878906 58.933594 161.671875 C 57.03125 160.296875 55.039062 158.886719 53.691406 156.980469 C 52.195312 154.902344 51.488281 152.320312 51.144531 149.808594 C 50.976562 148.640625 50.855469 147.472656 50.832031 146.339844 C 50.753906 145.847656 50.722656 145.351562 50.6875 144.855469 C 50.601562 143.5 50.640625 142.003906 50.105469 140.726562 C 49.996094 140.414062 49.609375 140.03125 49.90625 139.695312 C 50.285156 139.265625 51.222656 139.746094 51.640625 139.902344 C 54.058594 140.835938 56.480469 141.8125 58.660156 143.300781 C 60.9375 144.832031 62.933594 146.964844 63.734375 149.585938 C 64.011719 150.339844 64.152344 151.144531 64.207031 151.957031 C 64.394531 153.484375 64.316406 155.074219 64.324219 156.613281 C 64.355469 159.238281 64.613281 161.847656 65.097656 164.398438 Z M 30.503906 132.746094 C 30.1875 133.492188 30.152344 134.355469 29.792969 135.101562 C 29.082031 136.734375 28.039062 138.160156 26.949219 139.542969 C 25.320312 141.683594 23.550781 143.792969 22.667969 146.292969 C 22.171875 147.773438 22 149.324219 22.101562 150.90625 C 22.148438 152.351562 22.421875 153.738281 22.871094 155.113281 C 23.78125 157.953125 25.351562 160.570312 27.007812 163.042969 C 27.203125 163.257812 27.355469 163.519531 27.632812 163.59375 C 27.90625 163.621094 28.214844 163.464844 28.382812 163.226562 C 28.542969 162.945312 28.617188 162.667969 28.691406 162.390625 C 29.613281 158.394531 32.535156 155.171875 33.640625 151.25 C 34.449219 148.300781 34.203125 145.144531 33.597656 142.105469 C 33.597656 142.058594 33.597656 142.058594 33.597656 142.058594 C 33.457031 141.296875 33.269531 140.496094 33.082031 139.738281 C 32.574219 137.460938 31.980469 135.277344 31.382812 133.050781 C 31.199219 132.292969 30.777344 132.050781 30.503906 132.746094 Z M 13.992188 134.804688 C 13.5625 135.148438 13.132812 135.492188 12.65625 135.839844 C 12.003906 136.289062 11.273438 136.925781 11.5 137.636719 C 11.617188 138.035156 11.996094 138.285156 12.40625 138.347656 C 12.777344 138.460938 13.179688 138.390625 13.585938 138.363281 C 16.015625 138.027344 18.441406 137.6875 20.796875 136.949219 C 23.109375 136.257812 25.351562 135.117188 27.101562 133.417969 C 28.253906 132.300781 29.203125 130.882812 29.691406 129.3125 C 29.730469 129.171875 29.808594 128.988281 29.84375 128.847656 C 29.992188 128.339844 30.140625 127.832031 30.421875 127.273438 C 30.703125 126.710938 30.855469 126.246094 30.679688 125.625 C 29.636719 127.050781 27.796875 127.351562 26.121094 127.367188 C 24.441406 127.339844 22.65625 127.089844 21.113281 127.734375 C 19.167969 128.539062 17.976562 130.472656 16.675781 132.09375 C 15.878906 133.097656 14.984375 133.972656 13.992188 134.804688 Z M 41.050781 68.253906 C 41.570312 69.308594 41.957031 70.371094 42.34375 71.433594 C 42.785156 72.671875 43.183594 73.960938 43.671875 75.195312 C 44.816406 78.203125 46.464844 81.269531 49.289062 82.851562 C 51.640625 84.195312 54.503906 84.285156 57.230469 84.378906 C 59.867188 84.4375 62.5 84.496094 65.179688 84.59375 C 65.496094 84.574219 65.859375 84.59375 66.074219 84.355469 C 66.113281 84.308594 66.199219 84.210938 66.191406 84.121094 C 66.261719 83.753906 66.097656 83.355469 65.898438 83.054688 C 64.839844 81.398438 63.824219 79.742188 62.8125 78.089844 C 61.699219 76.304688 60.542969 74.519531 58.917969 73.222656 C 56.625 71.421875 53.6875 70.839844 50.953125 69.929688 C 49.941406 69.59375 48.953125 69.179688 47.96875 68.761719 C 49.167969 68.796875 50.371094 68.753906 51.542969 68.578125 C 55.046875 68.035156 58.410156 66.730469 61.679688 65.390625 C 62.5625 65.015625 63.609375 64.359375 63.410156 63.421875 C 63.285156 62.886719 62.765625 62.558594 62.296875 62.316406 L 62.25 62.273438 C 60.269531 61.085938 58.289062 59.902344 56.066406 59.230469 C 53.84375 58.511719 51.339844 58.355469 49.222656 59.261719 C 46.792969 60.230469 45.027344 62.429688 42.652344 63.53125 C 41.726562 63.953125 40.617188 64.34375 40.269531 65.316406 C 40.179688 65.546875 40.230469 65.796875 40.25 66.046875 C 40.113281 66.746094 40.832031 67.75 41.050781 68.253906 Z M -75.628906 136.625 C -75.878906 136.234375 -76.175781 135.890625 -76.554688 135.644531 C -76.949219 135.390625 -77.566406 135.371094 -77.914062 135.699219 C -77.914062 135.695312 -77.914062 135.691406 -77.910156 135.683594 C -77.390625 133.886719 -77.25 131.839844 -79.910156 132.824219 C -81.546875 133.429688 -82.882812 133.832031 -84.691406 133.902344 C -86.183594 133.953125 -87.769531 133.964844 -89.128906 134.730469 C -90.617188 135.550781 -91.515625 137.101562 -92.183594 138.6875 C -92.660156 139.757812 -93.089844 140.828125 -93.707031 141.816406 C -93.949219 142.285156 -94.238281 142.710938 -94.617188 143.144531 C -95 143.578125 -95.503906 144.152344 -95.289062 144.726562 C -95.070312 145.257812 -94.386719 145.347656 -93.835938 145.40625 C -92.246094 145.484375 -90.605469 145.605469 -89.03125 145.414062 C -86.0625 145.039062 -83.253906 143.59375 -81.167969 141.464844 C -79.890625 140.160156 -78.949219 138.605469 -78.289062 136.886719 C -78.238281 136.726562 -78.183594 136.539062 -78.125 136.367188 C -78.109375 136.792969 -77.851562 137.347656 -77.824219 137.761719 C -77.664062 139.519531 -78.269531 141.371094 -78.84375 143.035156 C -79.421875 144.613281 -80.050781 146.148438 -80.351562 147.796875 C -80.449219 148.394531 -80.546875 148.988281 -80.550781 149.621094 C -80.613281 152.207031 -79.5 154.71875 -77.960938 156.746094 C -76.378906 158.820312 -74.410156 160.550781 -72.445312 162.191406 C -72.15625 162.445312 -71.773438 162.734375 -71.414062 162.667969 C -70.742188 162.535156 -70.714844 161.582031 -70.847656 160.910156 C -71.089844 159.25 -71.015625 157.570312 -70.714844 155.917969 C -70.238281 153.445312 -69.078125 151.058594 -69.148438 148.574219 L -69.15625 148.4375 C -69.308594 145.367188 -71.203125 142.683594 -72.996094 140.214844 C -73.890625 139.003906 -74.738281 137.792969 -75.628906 136.625 Z M -120.292969 -122.234375 C -119.496094 -121.832031 -118.53125 -121.621094 -117.789062 -121.351562 C -115.835938 -120.617188 -113.839844 -119.886719 -111.773438 -119.476562 C -107.914062 -118.726562 -103.914062 -119.300781 -100.242188 -120.714844 C -96.613281 -122.125 -93.3125 -124.375 -90.398438 -127.007812 C -90.054688 -127.300781 -89.667969 -127.644531 -89.515625 -128.0625 C -89.3125 -128.4375 -89.300781 -128.9375 -89.550781 -129.328125 C -89.554688 -129.371094 -89.597656 -129.371094 -89.601562 -129.414062 C -90.039062 -129.839844 -90.710938 -129.75 -91.347656 -129.753906 C -94.242188 -129.660156 -96.773438 -131.671875 -99.628906 -132.304688 C -103.078125 -133.078125 -106.621094 -131.761719 -109.78125 -130.15625 C -113.121094 -128.445312 -116.21875 -126.570312 -119.976562 -125.785156 C -121.226562 -125.480469 -122.742188 -125.066406 -121.871094 -123.492188 C -121.511719 -122.878906 -120.945312 -122.507812 -120.292969 -122.234375 Z M -144.824219 111.996094 C -145.394531 111.582031 -145.226562 110.664062 -144.949219 110.011719 C -144.640625 109.175781 -144.335938 108.296875 -143.976562 107.503906 C -143.980469 107.460938 -143.980469 107.460938 -143.933594 107.457031 C -143.539062 106.570312 -143.050781 105.722656 -142.464844 104.917969 C -141.386719 103.351562 -139.835938 102.074219 -138.011719 101.550781 C -134.179688 100.488281 -130.066406 103.121094 -126.132812 102.234375 C -125.808594 102.167969 -125.488281 102.167969 -125.199219 102.214844 C -125.273438 101.710938 -125.347656 101.1875 -125.191406 100.679688 C -124.832031 99.164062 -123.753906 99.726562 -123.144531 100.730469 C -121.328125 103.601562 -117.316406 104.660156 -115.722656 107.589844 C -115.578125 107.71875 -115.527344 107.804688 -115.472656 107.9375 C -114.789062 109.433594 -114.8125 111.15625 -114.84375 112.789062 C -114.859375 113.964844 -114.917969 115.148438 -114.933594 116.324219 C -114.957031 116.6875 -114.976562 117.054688 -115.1875 117.339844 C -115.570312 117.726562 -116.261719 117.542969 -116.730469 117.300781 C -119.578125 116.035156 -121.941406 113.832031 -123.386719 111.074219 C -124.289062 109.417969 -124.679688 107.726562 -124.859375 105.957031 C -124.886719 106.1875 -124.910156 106.417969 -124.898438 106.640625 C -124.90625 107.910156 -124.417969 109.191406 -124.023438 110.34375 C -123.691406 111.273438 -123.359375 112.203125 -123.074219 113.136719 C -123.070312 113.179688 -123.066406 113.269531 -123.015625 113.3125 C -122.851562 113.800781 -122.726562 114.289062 -122.605469 114.78125 L -122.601562 114.828125 C -122.550781 114.914062 -122.546875 115.003906 -122.539062 115.140625 C -122.351562 115.941406 -122.292969 116.800781 -122.375 117.664062 C -122.503906 119.210938 -123.132812 120.65625 -123.820312 122.015625 C -125.269531 124.824219 -127.101562 127.386719 -129.265625 129.703125 C -129.644531 130.132812 -130.207031 130.578125 -130.761719 130.386719 C -131.316406 130.242188 -131.496094 129.527344 -131.578125 128.988281 C -132.085938 126.035156 -132.589844 123.121094 -133.09375 120.210938 C -133.109375 119.984375 -133.164062 119.808594 -133.179688 119.582031 C -133.511719 117.929688 -133.710938 116.265625 -133.269531 114.652344 C -132.183594 110.53125 -127.808594 108.277344 -125.632812 104.769531 C -126.074219 105.082031 -126.535156 105.386719 -126.902344 105.773438 C -128.679688 107.742188 -130.996094 109.117188 -133.519531 110.046875 C -136.707031 111.25 -140.125 111.695312 -143.496094 112.183594 C -143.945312 112.210938 -144.441406 112.289062 -144.824219 111.996094 Z M -124.957031 104.785156 C -124.96875 104.613281 -124.972656 104.441406 -124.980469 104.269531 C -124.988281 104.273438 -124.996094 104.285156 -125.003906 104.292969 C -125.074219 104.359375 -125.171875 104.414062 -125.25 104.480469 C -125.128906 104.574219 -125.019531 104.671875 -124.957031 104.785156 Z M -38.878906 -3.464844 C -38.832031 -3.421875 -38.789062 -3.46875 -38.789062 -3.46875 L -38.472656 -3.488281 C -38.320312 -3.488281 -38.175781 -3.464844 -38.023438 -3.453125 C -38.113281 -3.242188 -38.125 -3.007812 -37.929688 -2.800781 C -37.644531 -2.59375 -36.792969 -2.738281 -36.46875 -2.621094 C -34.992188 -2.21875 -33.511719 -1.089844 -32.191406 -0.269531 C -32 -0.148438 -31.816406 -0.0664062 -31.625 0.0546875 C -29.273438 1.355469 -26.832031 2.691406 -24.144531 2.878906 C -20.820312 3.074219 -17.660156 1.421875 -14.828125 -0.34375 C -11.777344 -2.261719 -8.746094 -4.496094 -7.367188 -7.753906 C -7.007812 -8.5 -6.796875 -9.421875 -7.203125 -10.121094 C -7.25 -10.160156 -7.253906 -10.207031 -7.300781 -10.25 C -7.605469 -10.726562 -8.167969 -11.007812 -8.679688 -11.203125 C -11.699219 -12.367188 -15.164062 -11.917969 -18.21875 -10.769531 C -20.527344 -9.890625 -22.707031 -8.652344 -24.910156 -7.484375 C -21.449219 -10.425781 -19.070312 -14.558594 -17.925781 -18.941406 C -17.863281 -19.351562 -17.753906 -19.765625 -17.78125 -20.171875 C -17.746094 -20.355469 -17.757812 -20.535156 -17.773438 -20.761719 C -17.855469 -21.347656 -18.210938 -21.957031 -18.769531 -22.148438 C -19.28125 -22.339844 -19.8125 -22.171875 -20.347656 -22.046875 C -22.21875 -21.519531 -24.046875 -20.992188 -25.917969 -20.511719 C -27.429688 -20.050781 -28.992188 -19.632812 -30.199219 -18.652344 C -31.578125 -17.566406 -32.382812 -15.972656 -32.960938 -14.394531 C -33.539062 -12.773438 -33.925781 -11.074219 -34.644531 -9.53125 C -35.3125 -7.949219 -36.398438 -6.476562 -37.933594 -5.699219 C -38.285156 -5.496094 -38.640625 -5.382812 -38.988281 -5.132812 C -39.375 -4.835938 -39.75 -4.269531 -39.492188 -3.785156 C -39.289062 -3.480469 -39.105469 -3.449219 -38.878906 -3.464844 Z M -22.320312 -57.09375 C -22.082031 -56.386719 -21.390625 -55.398438 -21.148438 -54.921875 C -20.261719 -53.121094 -19.773438 -51.203125 -19.378906 -49.28125 C -19.257812 -48.792969 -19.175781 -48.253906 -19.054688 -47.761719 C -18.585938 -45.394531 -18.070312 -43.027344 -16.890625 -40.925781 C -15.113281 -37.917969 -12.078125 -35.894531 -8.824219 -34.652344 C -5.574219 -33.457031 -2.097656 -33 1.375 -32.546875 C 1.835938 -32.484375 2.382812 -32.429688 2.769531 -32.726562 C 3.417969 -33.21875 3.171875 -34.246094 2.851562 -34.996094 C 1.363281 -38.386719 -0.078125 -41.78125 -1.523438 -45.222656 C -1.632812 -45.488281 -1.738281 -45.707031 -1.84375 -45.972656 C -2.644531 -47.820312 -3.53125 -49.621094 -5.019531 -50.929688 C -6.46875 -52.285156 -8.371094 -52.980469 -10.230469 -53.675781 C -12.269531 -54.4375 -14.296875 -55.183594 -16.320312 -55.933594 C -14.40625 -55.730469 -12.472656 -55.800781 -10.574219 -56.1875 C -6.945312 -56.875 -3.503906 -58.363281 -0.167969 -60.074219 C 1.019531 -60.648438 2.25 -61.316406 3.28125 -62.195312 C 3.796875 -62.636719 4.347656 -63.214844 4.257812 -63.890625 C 4.1875 -64.292969 3.9375 -64.640625 3.609375 -64.84375 C 3.460938 -65.015625 3.230469 -65.09375 3.042969 -65.171875 C 2.445312 -65.3125 1.8125 -65.273438 1.222656 -65.28125 C -0.910156 -65.277344 -3.027344 -65.777344 -5.136719 -66.140625 C -7.289062 -66.5 -9.476562 -66.675781 -11.523438 -66.046875 C -15.664062 -64.828125 -18.347656 -60.761719 -22.328125 -59.191406 C -23.664062 -58.636719 -23.476562 -57.664062 -22.320312 -57.09375 Z M -206.710938 38.800781 C -206.410156 39.234375 -205.703125 38.917969 -205.273438 38.574219 C -202.390625 36.125 -199.464844 33.671875 -197.257812 30.628906 C -196.390625 29.433594 -195.6875 28.109375 -195.113281 26.734375 C -195.140625 26.992188 -195.167969 27.253906 -195.191406 27.507812 C -195.53125 30.699219 -195.394531 34.222656 -193.421875 36.722656 C -192.191406 38.230469 -190.449219 39.207031 -188.671875 40.042969 C -185.871094 41.3125 -182.945312 42.347656 -179.894531 42.558594 C -179.394531 42.570312 -178.761719 42.53125 -178.472656 42.105469 C -178.066406 41.398438 -178.835938 40.679688 -179.414062 40.171875 C -181.339844 38.4375 -181.789062 35.660156 -182 33.089844 L -182.035156 32.550781 C -182.183594 30.203125 -182.300781 27.675781 -183.472656 25.667969 C -185.054688 22.960938 -188.128906 21.664062 -190.601562 19.921875 C -191.058594 19.601562 -191.832031 18.757812 -192.597656 18.042969 C -191.265625 18.363281 -189.726562 18.265625 -188.492188 18.15625 C -186.011719 17.949219 -183.589844 17.523438 -181.1875 16.824219 C -178.425781 16.058594 -175.554688 14.878906 -173.890625 12.507812 C -173.644531 12.128906 -173.402344 11.660156 -173.609375 11.265625 C -173.613281 11.175781 -173.617188 11.128906 -173.664062 11.089844 C -173.863281 10.828125 -174.183594 10.757812 -174.507812 10.691406 C -176.667969 10.238281 -178.828125 9.789062 -180.988281 9.339844 C -182.597656 8.992188 -184.25 8.644531 -185.859375 9.019531 C -189.035156 9.722656 -190.878906 12.738281 -193.488281 14.492188 C -194.632812 15.246094 -195.714844 15.925781 -194.488281 17.085938 C -194.59375 17.121094 -194.652344 17.199219 -194.722656 17.265625 C -194.855469 17.003906 -195.027344 16.777344 -195.296875 16.691406 C -195.625 16.53125 -196.023438 16.691406 -196.421875 16.808594 C -199.746094 18.019531 -203.324219 19.515625 -205.074219 22.617188 C -205.925781 24.167969 -206.171875 25.996094 -206.28125 27.8125 C -206.347656 28.226562 -206.363281 28.679688 -206.382812 29.089844 C -206.546875 32.132812 -206.671875 35.128906 -206.84375 38.132812 C -206.875 38.359375 -206.855469 38.628906 -206.710938 38.800781 Z M -206.710938 38.800781 " fill-opacity="1" fill-rule="nonzero"/></g></g></g></g><g clip-path="url(#11967540c1)"><g clip-path="url(#b713e6c6a0)"><g clip-path="url(#8d5e6810ba)"><g clip-path="url(#7593b1133a)"><path fill="#587e60" d="M -34.695312 -4.535156 C -34.882812 -4.523438 -34.996094 -4.714844 -34.925781 -4.878906 C -34.679688 -5.441406 -34.003906 -5.816406 -33.492188 -6.105469 C -32.929688 -6.421875 -32.359375 -6.71875 -31.785156 -7.007812 C -30.546875 -7.625 -29.277344 -8.257812 -28.226562 -9.171875 C -27.097656 -10.15625 -26.28125 -11.457031 -25.449219 -12.6875 C -24.597656 -13.9375 -23.5 -15.140625 -22.945312 -16.558594 C -22.839844 -16.820312 -22.417969 -16.664062 -22.480469 -16.394531 C -22.828125 -14.941406 -23.921875 -13.699219 -24.695312 -12.445312 C -25.503906 -11.132812 -26.34375 -9.761719 -27.46875 -8.691406 C -28.503906 -7.707031 -29.734375 -6.984375 -30.988281 -6.308594 C -31.632812 -5.957031 -32.292969 -5.636719 -32.9375 -5.285156 C -33.464844 -4.996094 -34.078125 -4.566406 -34.695312 -4.535156 Z M -78.707031 135.882812 C -78.5 135.835938 -78.292969 135.804688 -78.089844 135.742188 C -78.042969 135.738281 -77.957031 135.6875 -77.910156 135.683594 C -77.390625 133.886719 -77.25 131.839844 -79.910156 132.824219 C -81.546875 133.429688 -82.882812 133.832031 -84.691406 133.902344 C -86.183594 133.953125 -87.769531 133.964844 -89.128906 134.730469 C -90.617188 135.550781 -91.515625 137.101562 -92.183594 138.6875 C -92.660156 139.757812 -93.089844 140.828125 -93.707031 141.816406 C -93.617188 141.765625 -93.53125 141.714844 -93.488281 141.667969 C -91.722656 140.242188 -90.402344 138.210938 -88.335938 137.171875 C -85.875 135.925781 -82.929688 136.402344 -80.140625 136.121094 C -80.382812 136.667969 -80.625 137.214844 -81.015625 137.644531 C -81.929688 138.648438 -83.183594 139.285156 -84.253906 140.097656 C -86.402344 141.734375 -89.070312 142.8125 -91.746094 143.183594 C -92.039062 143.226562 -92.019531 143.667969 -91.714844 143.652344 C -88.820312 143.492188 -85.957031 142.578125 -83.582031 140.914062 C -82.429688 140.109375 -81.152344 139.414062 -80.1875 138.375 C -79.597656 137.742188 -79.039062 136.816406 -78.707031 135.882812 Z M -120.292969 -122.234375 C -120.074219 -122.339844 -119.898438 -122.441406 -119.722656 -122.542969 C -119.339844 -122.773438 -118.941406 -122.988281 -118.554688 -123.210938 C -116.484375 -122.855469 -114.21875 -123.539062 -112.152344 -123.527344 C -109.519531 -123.511719 -106.929688 -123.082031 -104.289062 -123.191406 C -99.238281 -123.40625 -94.371094 -124.996094 -90.382812 -128.140625 C -90.121094 -128.34375 -90.386719 -128.753906 -90.671875 -128.570312 C -95.222656 -125.71875 -99.96875 -124.140625 -105.371094 -124.285156 C -107.847656 -124.347656 -110.304688 -124.765625 -112.789062 -124.734375 C -113.972656 -124.71875 -115.101562 -124.507812 -116.273438 -124.363281 C -116.328125 -124.359375 -116.390625 -124.359375 -116.449219 -124.355469 C -111.230469 -127.050781 -105.558594 -128.914062 -99.730469 -128.992188 C -96.332031 -128.984375 -92.804688 -128.484375 -89.550781 -129.328125 C -89.554688 -129.371094 -89.597656 -129.371094 -89.601562 -129.414062 C -90.039062 -129.839844 -90.710938 -129.75 -91.347656 -129.753906 C -94.242188 -129.660156 -96.773438 -131.671875 -99.628906 -132.304688 C -103.078125 -133.078125 -106.621094 -131.761719 -109.78125 -130.15625 C -113.121094 -128.445312 -116.21875 -126.570312 -119.976562 -125.785156 C -121.226562 -125.480469 -122.742188 -125.066406 -121.871094 -123.492188 C -121.511719 -122.878906 -120.945312 -122.507812 -120.292969 -122.234375 Z M -204.167969 24.734375 C -202.074219 22.742188 -199.082031 22.007812 -196.589844 20.578125 C -196.195312 20.359375 -195.820312 20.117188 -195.464844 19.847656 C -195.714844 20.40625 -196 20.949219 -196.296875 21.464844 C -197.285156 23.1875 -198.515625 24.78125 -199.832031 26.269531 C -201.085938 27.679688 -202.171875 29.195312 -203.160156 30.796875 C -203.625 31.546875 -204.125 32.285156 -204.398438 33.128906 C -204.695312 34.058594 -204.644531 35.0625 -205.066406 35.957031 C -205.246094 36.339844 -204.691406 36.613281 -204.480469 36.25 C -204.066406 35.535156 -203.9375 34.742188 -203.726562 33.953125 C -203.433594 32.875 -202.769531 32.007812 -202.140625 31.101562 C -200.957031 29.402344 -199.605469 27.972656 -198.152344 26.503906 C -196.796875 25.132812 -195.617188 23.613281 -194.625 21.957031 C -194.421875 21.617188 -194.179688 21.160156 -193.949219 20.667969 C -193.789062 20.847656 -193.625 21.03125 -193.480469 21.21875 C -192.820312 22.074219 -192.324219 23.027344 -191.890625 24.015625 C -190.914062 26.25 -190.375 28.570312 -189.707031 30.898438 C -189.113281 32.964844 -188.664062 34.960938 -187.1875 36.574219 C -185.722656 38.167969 -184.351562 39.472656 -182.492188 40.59375 C -182.195312 40.769531 -181.945312 40.335938 -182.171875 40.113281 C -183.742188 38.558594 -185.414062 37.175781 -186.609375 35.273438 C -187.269531 34.222656 -187.285156 32.910156 -187.472656 31.714844 C -187.648438 30.589844 -187.828125 29.476562 -188.058594 28.363281 C -188.207031 27.644531 -188.414062 26.960938 -188.609375 26.265625 C -188.570312 26.289062 -188.550781 26.335938 -188.507812 26.355469 C -188.085938 26.597656 -187.582031 26.65625 -187.121094 26.808594 C -185.039062 27.445312 -183.425781 29.242188 -182.527344 31.222656 C -182.320312 31.664062 -182.15625 32.058594 -182.035156 32.550781 C -182.183594 30.203125 -182.304688 27.675781 -183.476562 25.667969 C -185.054688 22.960938 -188.128906 21.664062 -190.601562 19.921875 C -191.238281 19.476562 -192.46875 18.03125 -193.460938 17.347656 C -193.46875 17.332031 -193.460938 17.3125 -193.46875 17.296875 C -190.460938 17.160156 -188.042969 15.707031 -185.410156 14.300781 C -183.710938 13.390625 -182.097656 13.4375 -180.226562 13.367188 C -178.582031 13.304688 -176.960938 12.90625 -175.457031 12.234375 C -175.253906 12.144531 -175.355469 11.824219 -175.574219 11.902344 C -177.410156 12.554688 -179.257812 12.707031 -181.191406 12.5625 C -182.804688 12.445312 -184.183594 12.550781 -185.65625 13.261719 C -187.144531 13.980469 -188.53125 14.875 -190.0625 15.511719 C -190.597656 15.730469 -191.144531 15.898438 -191.699219 16.023438 C -191.222656 15.691406 -190.746094 15.351562 -190.328125 14.96875 C -189.171875 13.941406 -188.019531 12.78125 -186.664062 12.058594 C -184.558594 10.929688 -182.027344 10.8125 -179.613281 10.972656 C -177.609375 11.070312 -175.597656 11.347656 -173.609375 11.265625 C -173.613281 11.175781 -173.617188 11.128906 -173.664062 11.089844 C -173.863281 10.828125 -174.183594 10.757812 -174.507812 10.691406 C -176.667969 10.238281 -178.828125 9.789062 -180.988281 9.339844 C -182.597656 8.992188 -184.25 8.644531 -185.859375 9.019531 C -189.035156 9.722656 -190.882812 12.738281 -193.488281 14.492188 C -194.613281 15.230469 -195.671875 15.898438 -194.5625 17.015625 C -194.628906 17.117188 -194.652344 17.234375 -194.695312 17.347656 C -194.828125 17.050781 -195.003906 16.789062 -195.296875 16.691406 C -195.625 16.53125 -196.023438 16.691406 -196.421875 16.808594 C -199.746094 18.019531 -203.324219 19.515625 -205.074219 22.617188 C -205.925781 24.167969 -206.171875 25.996094 -206.28125 27.8125 C -205.765625 26.648438 -205.0625 25.605469 -204.167969 24.734375 Z M -138.554688 103.667969 C -136.230469 103.15625 -133.824219 103.90625 -131.476562 104.4375 C -130.808594 104.609375 -130.113281 104.734375 -129.414062 104.824219 C -129.425781 104.832031 -129.433594 104.84375 -129.449219 104.851562 C -130.46875 105.511719 -131.578125 106.027344 -132.707031 106.472656 C -134.070312 107.007812 -135.511719 107.289062 -136.882812 107.796875 C -138.234375 108.296875 -139.527344 108.90625 -140.996094 108.96875 C -141.292969 108.980469 -141.257812 109.425781 -140.964844 109.425781 C -139.554688 109.4375 -138.210938 108.972656 -136.875 108.566406 C -135.324219 108.089844 -133.722656 107.769531 -132.191406 107.230469 C -131.003906 106.8125 -129.851562 106.300781 -128.789062 105.628906 C -128.445312 105.414062 -128.089844 105.167969 -127.742188 104.902344 C -126.933594 104.875 -126.148438 104.730469 -125.40625 104.425781 C -127.496094 108.140625 -132.148438 110.394531 -133.269531 114.652344 C -133.710938 116.265625 -133.511719 117.929688 -133.179688 119.582031 C -133.148438 119.398438 -133.066406 119.257812 -132.984375 119.117188 C -132.460938 118.042969 -131.894531 117.007812 -131.183594 116.101562 C -130.34375 115.007812 -129.316406 114.082031 -128.1875 113.328125 C -127.574219 112.890625 -126.875 112.566406 -126.128906 112.507812 C -126.136719 112.816406 -126.125 113.128906 -126.152344 113.429688 C -126.269531 114.871094 -126.453125 116.328125 -126.773438 117.738281 C -127.105469 119.179688 -127.671875 120.554688 -128.042969 121.984375 C -128.40625 123.378906 -128.671875 124.789062 -129.328125 126.085938 C -129.453125 126.328125 -129.097656 126.496094 -128.957031 126.269531 C -128.226562 125.066406 -127.835938 123.71875 -127.394531 122.390625 C -126.894531 120.898438 -126.230469 119.460938 -125.828125 117.9375 C -125.429688 116.445312 -125.226562 114.871094 -125.09375 113.339844 C -125.074219 113.121094 -125.054688 112.886719 -125.035156 112.660156 C -124.566406 112.839844 -124.121094 113.097656 -123.78125 113.453125 C -123.292969 113.964844 -122.894531 114.527344 -122.539062 115.140625 C -122.488281 115.179688 -122.484375 115.269531 -122.433594 115.3125 C -122.492188 115.136719 -122.546875 115.003906 -122.601562 114.828125 L -122.605469 114.78125 C -122.773438 114.292969 -122.941406 113.804688 -123.015625 113.3125 C -123.066406 113.269531 -123.070312 113.179688 -123.074219 113.136719 C -123.359375 112.203125 -123.691406 111.273438 -124.023438 110.34375 C -124.417969 109.191406 -124.90625 107.910156 -124.898438 106.640625 C -124.949219 105.84375 -124.503906 104.9375 -125.324219 104.398438 C -125.21875 104.355469 -125.105469 104.34375 -125.003906 104.292969 C -124.875 104.191406 -124.746094 104.050781 -124.621094 103.90625 C -124.550781 103.804688 -124.570312 103.742188 -124.523438 103.648438 C -124.292969 103.960938 -124.019531 104.238281 -123.730469 104.5 C -123.488281 105.15625 -123.15625 105.785156 -122.847656 106.398438 C -122.285156 107.527344 -121.671875 108.621094 -120.992188 109.683594 C -119.636719 111.800781 -118.0625 113.671875 -116.21875 115.378906 C -116.039062 115.542969 -115.726562 115.285156 -115.890625 115.089844 C -117.445312 113.21875 -118.808594 111.136719 -120.003906 109.019531 C -120.605469 107.957031 -121.171875 106.871094 -121.707031 105.773438 C -121.707031 105.769531 -121.707031 105.769531 -121.710938 105.765625 C -121.5 105.855469 -121.296875 105.964844 -121.082031 106.03125 C -119.695312 106.441406 -118.238281 106.53125 -116.894531 106.984375 C -116.429688 107.136719 -116.058594 107.296875 -115.722656 107.589844 C -117.316406 104.660156 -121.328125 103.601562 -123.144531 100.730469 C -123.753906 99.726562 -124.832031 99.164062 -125.191406 100.679688 C -125.347656 101.1875 -125.273438 101.710938 -125.199219 102.214844 C -125.488281 102.167969 -125.808594 102.167969 -126.132812 102.234375 C -130.066406 103.121094 -134.179688 100.488281 -138.011719 101.550781 C -139.835938 102.074219 -141.386719 103.351562 -142.464844 104.917969 C -143.050781 105.722656 -143.539062 106.570312 -143.933594 107.457031 C -143.472656 106.882812 -142.964844 106.351562 -142.449219 105.867188 C -141.335938 104.84375 -140.027344 104.035156 -138.554688 103.667969 Z M -75.628906 136.625 C -75.878906 136.234375 -76.175781 135.890625 -76.554688 135.644531 C -77.074219 135.3125 -77.976562 135.371094 -78.15625 136.109375 C -78.308594 136.527344 -77.855469 137.265625 -77.824219 137.761719 C -77.664062 139.519531 -78.269531 141.371094 -78.84375 143.035156 C -79.421875 144.613281 -80.050781 146.148438 -80.351562 147.796875 C -79.078125 146.492188 -77.847656 145.230469 -76.617188 143.929688 C -76.660156 145.664062 -76.691406 147.425781 -76.570312 149.15625 C -76.449219 150.910156 -76.09375 152.660156 -75.425781 154.285156 C -74.730469 155.972656 -73.691406 157.488281 -73.15625 159.242188 C -73.085938 159.464844 -72.707031 159.398438 -72.742188 159.160156 C -73.03125 157.332031 -73.808594 155.671875 -74.386719 153.925781 C -75.011719 152.039062 -75.316406 150.105469 -75.339844 148.121094 C -75.355469 146.488281 -75.324219 144.851562 -75.28125 143.214844 C -75 143.246094 -74.714844 143.367188 -74.460938 143.523438 C -72.339844 144.746094 -70.074219 146.140625 -69.15625 148.4375 C -69.308594 145.367188 -71.203125 142.683594 -72.996094 140.214844 C -73.890625 139.003906 -74.738281 137.792969 -75.628906 136.625 Z M 18.394531 132.710938 C 19.605469 131.816406 20.46875 130.449219 21.832031 129.773438 C 23.546875 128.886719 25.578125 129.21875 27.535156 129.175781 C 27.195312 129.640625 26.886719 130.136719 26.546875 130.570312 C 25.585938 131.789062 24.164062 132.652344 22.726562 133.210938 C 21.234375 133.792969 19.648438 134.164062 18.125 134.664062 C 17.34375 134.921875 16.558594 135.160156 15.8125 135.507812 C 15.070312 135.855469 14.339844 136.246094 13.566406 136.523438 C 13.339844 136.601562 13.398438 136.996094 13.652344 136.949219 C 15.222656 136.683594 16.722656 135.9375 18.25 135.484375 C 19.925781 134.988281 21.667969 134.636719 23.304688 134.027344 C 24.675781 133.523438 26.03125 132.867188 27.074219 131.820312 C 27.839844 131.050781 28.621094 130.039062 29.164062 129.019531 C 29.398438 128.96875 29.628906 128.925781 29.84375 128.847656 C 29.992188 128.339844 30.140625 127.832031 30.421875 127.273438 C 30.703125 126.710938 30.855469 126.246094 30.679688 125.625 C 29.636719 127.050781 27.796875 127.351562 26.121094 127.367188 C 24.441406 127.339844 22.65625 127.089844 21.113281 127.734375 C 19.167969 128.539062 17.976562 130.472656 16.675781 132.09375 C 15.878906 133.097656 14.984375 133.972656 13.992188 134.804688 C 15.492188 134.164062 17.097656 133.699219 18.394531 132.710938 Z M 30.503906 132.746094 C 30.1875 133.492188 30.152344 134.355469 29.792969 135.101562 C 29.082031 136.734375 28.039062 138.160156 26.949219 139.542969 C 25.320312 141.683594 23.550781 143.792969 22.667969 146.292969 C 22.171875 147.773438 22 149.324219 22.101562 150.90625 C 22.96875 148.175781 24.4375 145.636719 26.390625 143.519531 C 27.8125 141.941406 29.5 140.566406 30.765625 138.886719 C 30.765625 140.171875 30.796875 141.453125 30.574219 142.71875 C 30.234375 144.625 29.429688 146.402344 28.847656 148.242188 C 28.285156 150.023438 27.535156 151.8125 27.203125 153.65625 C 26.839844 155.667969 26.960938 157.730469 27.214844 159.742188 C 27.25 160.003906 27.621094 159.980469 27.621094 159.71875 C 27.636719 157.5 27.679688 155.230469 28.28125 153.082031 C 28.8125 151.195312 29.5625 149.289062 30.261719 147.457031 C 31.292969 144.742188 32.160156 141.902344 32.066406 139.011719 C 32.503906 140.066406 32.984375 141.09375 33.597656 142.058594 C 33.457031 141.296875 33.269531 140.496094 33.082031 139.738281 C 32.574219 137.460938 31.980469 135.277344 31.382812 133.050781 C 31.199219 132.292969 30.777344 132.050781 30.503906 132.746094 Z M 58.660156 143.300781 C 56.480469 141.8125 54.058594 140.835938 51.640625 139.902344 C 51.222656 139.746094 50.285156 139.265625 49.90625 139.695312 C 49.609375 140.03125 49.996094 140.414062 50.105469 140.726562 C 50.640625 142.003906 50.601562 143.5 50.6875 144.855469 C 50.722656 145.351562 50.753906 145.847656 50.832031 146.339844 C 51.175781 146.089844 51.515625 145.707031 51.90625 145.457031 C 52.558594 144.941406 53.382812 144.699219 54.230469 144.636719 C 54.90625 145.421875 55.648438 146.15625 56.269531 146.984375 C 57.375 148.472656 57.953125 150.414062 58.558594 152.148438 C 59.1875 153.949219 59.621094 155.855469 60.460938 157.578125 C 61.207031 159.097656 62.601562 160.308594 62.867188 162.039062 C 62.910156 162.320312 63.332031 162.304688 63.316406 162.007812 C 63.230469 160.417969 62.398438 159.183594 61.671875 157.816406 C 60.675781 155.957031 60.3125 153.761719 59.671875 151.761719 C 59.121094 150.046875 58.59375 148.191406 57.640625 146.652344 C 57.261719 146.039062 56.75 145.453125 56.242188 144.871094 C 57.539062 145.261719 58.710938 146.019531 59.796875 146.851562 C 60.992188 147.816406 62.152344 148.917969 63.09375 150.171875 C 63.492188 150.734375 63.894531 151.34375 64.207031 151.957031 C 64.152344 151.144531 64.011719 150.339844 63.734375 149.585938 C 62.933594 146.964844 60.9375 144.832031 58.660156 143.300781 Z M 41.050781 68.253906 C 41.570312 69.308594 41.957031 70.371094 42.34375 71.433594 C 43.015625 71.34375 43.730469 71.164062 44.410156 71.164062 C 44.691406 71.171875 44.960938 71.242188 45.234375 71.308594 C 45.800781 72.746094 46.90625 74.101562 47.847656 75.179688 C 49.113281 76.632812 50.558594 77.957031 52.148438 79.050781 C 55.542969 81.390625 59.34375 82.273438 63.320312 83.074219 C 63.65625 83.144531 63.738281 82.667969 63.425781 82.566406 C 59.78125 81.382812 56.082031 80.195312 52.980469 77.886719 C 51.550781 76.824219 50.265625 75.617188 49.082031 74.292969 C 48.492188 73.632812 47.953125 72.941406 47.40625 72.25 C 47.871094 72.523438 48.332031 72.804688 48.792969 73.054688 C 51 74.183594 53.515625 74.5625 55.796875 75.460938 C 60.074219 77.132812 63.25 80.640625 66.191406 84.121094 C 66.261719 83.753906 66.097656 83.355469 65.898438 83.054688 C 64.839844 81.398438 63.824219 79.742188 62.8125 78.089844 C 61.699219 76.304688 60.542969 74.519531 58.917969 73.222656 C 56.625 71.421875 53.6875 70.839844 50.953125 69.929688 C 48.777344 69.210938 46.6875 68.253906 44.683594 67.128906 C 47.484375 66.714844 49.808594 64.902344 52.496094 64.007812 C 53.871094 63.546875 55.25 63.667969 56.675781 63.644531 C 58.054688 63.625 59.539062 63.484375 60.832031 64.074219 C 61.125 64.207031 61.320312 63.792969 61.050781 63.628906 C 59.921875 62.941406 58.539062 62.78125 57.242188 62.699219 C 55.75 62.609375 54.152344 62.320312 52.667969 62.59375 C 51.066406 62.886719 49.359375 63.675781 47.945312 64.46875 C 47.128906 64.925781 46.414062 65.488281 45.546875 65.855469 C 44.960938 66.101562 44.414062 66.367188 43.902344 66.710938 C 43.730469 66.609375 43.546875 66.535156 43.378906 66.429688 C 43.371094 66.425781 43.355469 66.414062 43.347656 66.410156 C 45.578125 64.617188 47.785156 62.789062 50.433594 61.855469 C 52.78125 61.023438 55.320312 60.996094 57.742188 61.292969 C 59.296875 61.511719 60.773438 61.871094 62.25 62.273438 C 60.269531 61.085938 58.289062 59.902344 56.066406 59.226562 C 53.84375 58.511719 51.339844 58.355469 49.222656 59.261719 C 46.792969 60.230469 45.027344 62.429688 42.652344 63.53125 C 41.726562 63.953125 40.617188 64.34375 40.269531 65.316406 C 40.179688 65.546875 40.230469 65.796875 40.25 66.046875 C 40.113281 66.746094 40.832031 67.75 41.050781 68.253906 Z M -38.878906 -3.464844 C -38.832031 -3.421875 -38.789062 -3.46875 -38.789062 -3.46875 C -36.929688 -4.175781 -35.234375 -5.28125 -33.875 -6.730469 C -30.734375 -10.054688 -29.417969 -14.988281 -25.734375 -17.667969 C -23.4375 -19.3125 -20.621094 -19.898438 -17.78125 -20.171875 C -17.746094 -20.355469 -17.757812 -20.535156 -17.773438 -20.761719 C -17.855469 -21.347656 -18.210938 -21.957031 -18.769531 -22.148438 C -19.28125 -22.339844 -19.8125 -22.171875 -20.347656 -22.046875 C -22.21875 -21.519531 -24.046875 -20.992188 -25.917969 -20.511719 C -27.429688 -20.050781 -28.992188 -19.632812 -30.199219 -18.652344 C -31.578125 -17.566406 -32.382812 -15.972656 -32.960938 -14.394531 C -33.539062 -12.773438 -33.925781 -11.074219 -34.644531 -9.53125 C -35.3125 -7.949219 -36.398438 -6.476562 -37.933594 -5.699219 C -38.285156 -5.496094 -38.640625 -5.382812 -38.988281 -5.132812 C -39.375 -4.835938 -39.75 -4.269531 -39.492188 -3.785156 C -39.289062 -3.480469 -39.105469 -3.449219 -38.878906 -3.464844 Z M -7.300781 -10.25 C -7.605469 -10.726562 -8.167969 -11.007812 -8.679688 -11.203125 C -11.699219 -12.367188 -15.164062 -11.917969 -18.21875 -10.769531 C -21.230469 -9.625 -24.015625 -7.859375 -26.917969 -6.453125 C -29.820312 -4.996094 -33.011719 -3.886719 -36.246094 -4.085938 C -36.609375 -4.109375 -37.019531 -4.171875 -37.375 -4.058594 C -37.863281 -3.890625 -38.367188 -3.269531 -37.929688 -2.800781 C -37.644531 -2.59375 -36.792969 -2.738281 -36.46875 -2.621094 C -34.992188 -2.21875 -33.511719 -1.089844 -32.191406 -0.269531 C -32.160156 -0.5 -32.082031 -0.683594 -31.957031 -0.875 C -31.535156 -1.601562 -30.871094 -2.132812 -30.128906 -2.53125 C -29.136719 -2.34375 -28.078125 -2.355469 -27.132812 -2.375 C -24.925781 -2.417969 -22.78125 -2.628906 -20.628906 -3.148438 C -17.097656 -4.003906 -12.785156 -5.394531 -10.535156 -8.464844 C -10.398438 -8.648438 -10.550781 -8.984375 -10.808594 -8.875 C -11.035156 -8.769531 -11.265625 -8.679688 -11.5 -8.601562 C -11.59375 -8.570312 -11.566406 -8.417969 -11.464844 -8.425781 C -12.75 -7.472656 -14.035156 -6.636719 -15.554688 -6.007812 C -17.195312 -5.328125 -18.925781 -4.859375 -20.652344 -4.453125 C -21.425781 -4.269531 -22.199219 -4.148438 -22.976562 -4.042969 C -20.140625 -4.84375 -17.566406 -6.527344 -14.953125 -7.945312 C -12.636719 -9.273438 -9.9375 -10.351562 -7.300781 -10.25 Z M -22.320312 -57.09375 C -22.082031 -56.386719 -21.390625 -55.398438 -21.148438 -54.921875 C -20.261719 -53.121094 -19.773438 -51.203125 -19.378906 -49.28125 C -19.257812 -48.792969 -19.175781 -48.253906 -19.054688 -47.761719 C -18.464844 -48.480469 -18.125 -49.5 -17.628906 -50.253906 C -17.042969 -51.152344 -16.121094 -51.734375 -15.101562 -52.082031 C -15.097656 -52.074219 -15.09375 -52.074219 -15.089844 -52.066406 C -13.5625 -49.957031 -12.53125 -47.554688 -11.242188 -45.304688 C -8.78125 -41.019531 -4.929688 -38.207031 -0.519531 -36.144531 C -0.292969 -36.039062 -0.136719 -36.359375 -0.347656 -36.480469 C -2.570312 -37.777344 -4.71875 -39.328125 -6.554688 -41.136719 C -8.507812 -43.066406 -9.804688 -45.320312 -10.964844 -47.785156 C -11.703125 -49.355469 -12.449219 -50.953125 -13.390625 -52.417969 C -13.234375 -52.425781 -13.074219 -52.460938 -12.917969 -52.460938 C -11.144531 -52.394531 -9.417969 -51.644531 -7.867188 -50.792969 C -5.605469 -49.488281 -3.597656 -47.851562 -1.84375 -45.972656 C -2.644531 -47.820312 -3.53125 -49.621094 -5.019531 -50.929688 C -6.46875 -52.285156 -8.371094 -52.980469 -10.230469 -53.675781 C -12.441406 -54.5 -14.636719 -55.3125 -16.832031 -56.125 C -17.074219 -56.3125 -17.308594 -56.507812 -17.554688 -56.691406 C -17.820312 -56.894531 -18.105469 -57.109375 -18.398438 -57.308594 C -16.730469 -56.949219 -14.921875 -57.222656 -13.246094 -57.402344 C -11.609375 -57.578125 -9.878906 -57.808594 -8.324219 -58.367188 C -6.789062 -58.914062 -5.382812 -59.753906 -3.917969 -60.449219 C -2.527344 -61.113281 -1.109375 -61.691406 0.0703125 -62.710938 C 0.289062 -62.902344 0.0507812 -63.285156 -0.195312 -63.097656 C -1.460938 -62.136719 -2.980469 -61.644531 -4.421875 -61.007812 C -5.8125 -60.394531 -7.15625 -59.660156 -8.628906 -59.253906 C -10.257812 -58.800781 -12.007812 -58.785156 -13.683594 -58.695312 C -14.460938 -58.65625 -15.261719 -58.65625 -16.054688 -58.609375 C -13.101562 -60.074219 -10.207031 -61.71875 -7.042969 -62.621094 C -3.65625 -63.5625 -0.0742188 -63.613281 3.253906 -64.730469 C 3.339844 -64.78125 3.476562 -64.792969 3.609375 -64.84375 C 3.460938 -65.015625 3.230469 -65.09375 3.042969 -65.171875 C 2.445312 -65.3125 1.8125 -65.273438 1.222656 -65.28125 C -0.910156 -65.28125 -3.027344 -65.777344 -5.136719 -66.140625 C -7.289062 -66.5 -9.476562 -66.675781 -11.523438 -66.046875 C -15.664062 -64.828125 -18.347656 -60.761719 -22.328125 -59.191406 C -23.664062 -58.636719 -23.476562 -57.664062 -22.320312 -57.09375 Z M -22.320312 -57.09375 " fill-opacity="1" fill-rule="nonzero"/></g></g></g></g></svg>